<?xml version="1.0" encoding="utf-8"?>
<svg version="1.1" xmlns:xlink="http://www.w3.org/1999/xlink" width="8px" height="13px" xmlns="http://www.w3.org/2000/svg">
  <defs>
    <pattern id="BGPattern" patternUnits="userSpaceOnUse" alignment="0 0" imageRepeat="None" />
    <mask fill="white" id="Clip17">
      <path d="M 7.906493506493507 2.964120370370371  C 7.996536796536797 3.0443672839506166  8.013852813852814 3.1321373456790123  7.958441558441558 3.227430555555555  C 7.896103896103896 3.3227237654320976  7.795670995670996 3.370370370370371  7.6571428571428575 3.370370370370371  L 5.32987012987013 3.370370370370371  L 5.32987012987013 12.75925925925926  C 5.32987012987013 12.829475308641975  5.298701298701299 12.887152777777777  5.236363636363636 12.932291666666666  C 5.174025974025974 12.977430555555555  5.094372294372294 13  4.997402597402598 13  L 3.0025974025974027 13  C 2.905627705627706 13  2.825974025974026 12.977430555555555  2.7636363636363637 12.932291666666666  C 2.7012987012987013 12.887152777777777  2.67012987012987 12.829475308641975  2.67012987012987 12.75925925925926  L 2.67012987012987 3.370370370370371  L 0.34285714285714286 3.370370370370371  C 0.1974025974025974 3.370370370370371  0.09696969696969697 3.3227237654320976  0.04155844155844156 3.227430555555555  C -0.01385281385281386 3.1321373456790123  0.0034632034632034554 3.0443672839506166  0.09350649350649351 2.964120370370371  L 3.72987012987013 0.07523148148148218  C 3.7991341991341994 0.02507716049382691  3.8787878787878793 0  3.968831168831169 0  C 4.065800865800866 0  4.148917748917749 0.02507716049382691  4.218181818181818 0.07523148148148218  L 7.906493506493507 2.964120370370371  Z " fill-rule="evenodd" />
    </mask>
  </defs>
  <g transform="matrix(1 0 0 1 -320 -123 )">
    <path d="M 7.906493506493507 2.964120370370371  C 7.996536796536797 3.0443672839506166  8.013852813852814 3.1321373456790123  7.958441558441558 3.227430555555555  C 7.896103896103896 3.3227237654320976  7.795670995670996 3.370370370370371  7.6571428571428575 3.370370370370371  L 5.32987012987013 3.370370370370371  L 5.32987012987013 12.75925925925926  C 5.32987012987013 12.829475308641975  5.298701298701299 12.887152777777777  5.236363636363636 12.932291666666666  C 5.174025974025974 12.977430555555555  5.094372294372294 13  4.997402597402598 13  L 3.0025974025974027 13  C 2.905627705627706 13  2.825974025974026 12.977430555555555  2.7636363636363637 12.932291666666666  C 2.7012987012987013 12.887152777777777  2.67012987012987 12.829475308641975  2.67012987012987 12.75925925925926  L 2.67012987012987 3.370370370370371  L 0.34285714285714286 3.370370370370371  C 0.1974025974025974 3.370370370370371  0.09696969696969697 3.3227237654320976  0.04155844155844156 3.227430555555555  C -0.01385281385281386 3.1321373456790123  0.0034632034632034554 3.0443672839506166  0.09350649350649351 2.964120370370371  L 3.72987012987013 0.07523148148148218  C 3.7991341991341994 0.02507716049382691  3.8787878787878793 0  3.968831168831169 0  C 4.065800865800866 0  4.148917748917749 0.02507716049382691  4.218181818181818 0.07523148148148218  L 7.906493506493507 2.964120370370371  Z " fill-rule="nonzero" fill="rgba(2, 133, 189, 1)" stroke="none" transform="matrix(1 0 0 1 320 123 )" class="fill" />
    <path d="M 7.906493506493507 2.964120370370371  C 7.996536796536797 3.0443672839506166  8.013852813852814 3.1321373456790123  7.958441558441558 3.227430555555555  C 7.896103896103896 3.3227237654320976  7.795670995670996 3.370370370370371  7.6571428571428575 3.370370370370371  L 5.32987012987013 3.370370370370371  L 5.32987012987013 12.75925925925926  C 5.32987012987013 12.829475308641975  5.298701298701299 12.887152777777777  5.236363636363636 12.932291666666666  C 5.174025974025974 12.977430555555555  5.094372294372294 13  4.997402597402598 13  L 3.0025974025974027 13  C 2.905627705627706 13  2.825974025974026 12.977430555555555  2.7636363636363637 12.932291666666666  C 2.7012987012987013 12.887152777777777  2.67012987012987 12.829475308641975  2.67012987012987 12.75925925925926  L 2.67012987012987 3.370370370370371  L 0.34285714285714286 3.370370370370371  C 0.1974025974025974 3.370370370370371  0.09696969696969697 3.3227237654320976  0.04155844155844156 3.227430555555555  C -0.01385281385281386 3.1321373456790123  0.0034632034632034554 3.0443672839506166  0.09350649350649351 2.964120370370371  L 3.72987012987013 0.07523148148148218  C 3.7991341991341994 0.02507716049382691  3.8787878787878793 0  3.968831168831169 0  C 4.065800865800866 0  4.148917748917749 0.02507716049382691  4.218181818181818 0.07523148148148218  L 7.906493506493507 2.964120370370371  Z " stroke-width="0" stroke-dasharray="0" stroke="rgba(255, 255, 255, 0)" fill="none" transform="matrix(1 0 0 1 320 123 )" class="stroke" mask="url(#Clip17)" />
  </g>
</svg>