<?xml version="1.0" encoding="utf-8"?>
<svg version="1.1" xmlns:xlink="http://www.w3.org/1999/xlink" width="29px" height="24px" xmlns="http://www.w3.org/2000/svg">
  <defs>
    <pattern id="BGPattern" patternUnits="userSpaceOnUse" alignment="0 0" imageRepeat="None" />
    <mask fill="white" id="Clip35">
      <path d="M 0 19.636363636363633  L 6.645833333333333 19.636363636363633  L 6.645833333333333 21.818181818181817  L 0 21.818181818181817  L 0 19.636363636363633  Z M 8.458333333333334 17.454545454545453  L 13.291666666666666 17.454545454545453  C 13.618923611111112 17.454545454545453  13.902126736111112 17.5625  14.141276041666666 17.77840909090909  C 14.380425347222221 17.99431818181818  14.5 18.25  14.5 18.545454545454547  L 14.5 22.90909090909091  C 14.5 23.204545454545453  14.380425347222221 23.46022727272727  14.141276041666666 23.676136363636363  C 13.902126736111112 23.892045454545457  13.618923611111112 24  13.291666666666666 24  L 8.458333333333334 24  C 8.13107638888889 24  7.84787326388889 23.892045454545457  7.608723958333334 23.676136363636363  C 7.369574652777778 23.46022727272727  7.25 23.204545454545453  7.25 22.90909090909091  L 7.25 18.545454545454547  C 7.25 18.25  7.369574652777778 17.99431818181818  7.608723958333334 17.77840909090909  C 7.84787326388889 17.5625  8.13107638888889 17.454545454545453  8.458333333333334 17.454545454545453  Z M 0 11  L 16.3125 11  L 16.3125 13  L 0 13  L 0 11  Z M 0 2.1818181818181825  L 4.229166666666667 2.1818181818181825  L 4.229166666666667 4.363636363636362  L 0 4.363636363636362  L 0 2.1818181818181825  Z M 15.104166666666668 19.636363636363633  L 29 19.636363636363633  L 29 21.818181818181817  L 15.104166666666668 21.818181818181817  L 15.104166666666668 19.636363636363633  Z M 6.041666666666667 0  L 10.875 0  C 11.202256944444446 0  11.485460069444446 0.1079545454545432  11.724609375 0.3238636363636376  C 11.963758680555557 0.539772727272724  12.083333333333334 0.7954545454545441  12.083333333333334 1.09090909090909  L 12.083333333333334 5.454545454545455  C 12.083333333333334 5.749999999999998  11.963758680555557 6.005681818181816  11.724609375 6.22159090909091  C 11.485460069444446 6.4374999999999964  11.202256944444446 6.545454545454545  10.875 6.545454545454545  L 6.041666666666667 6.545454545454545  C 5.714409722222223 6.545454545454545  5.431206597222223 6.4374999999999964  5.192057291666667 6.22159090909091  C 4.952907986111112 6.005681818181816  4.833333333333333 5.749999999999998  4.833333333333333 5.454545454545455  L 4.833333333333333 1.09090909090909  C 4.833333333333333 0.7954545454545441  4.952907986111112 0.539772727272724  5.192057291666667 0.3238636363636376  C 5.431206597222223 0.1079545454545432  5.714409722222223 0  6.041666666666667 0  Z M 18.125 8.727272727272727  L 22.958333333333332 8.727272727272727  C 23.28559027777778 8.727272727272727  23.56879340277778 8.835227272727273  23.807942708333332 9.051136363636363  C 24.047092013888893 9.267045454545453  24.166666666666668 9.522727272727272  24.166666666666668 9.818181818181817  L 24.166666666666668 14.18181818181818  C 24.166666666666668 14.477272727272727  24.047092013888893 14.732954545454543  23.807942708333332 14.948863636363635  C 23.56879340277778 15.164772727272727  23.28559027777778 15.272727272727273  22.958333333333332 15.272727272727273  L 18.125 15.272727272727273  C 17.797743055555557 15.272727272727273  17.514539930555557 15.164772727272727  17.275390625 14.948863636363635  C 17.036241319444443 14.732954545454543  16.916666666666668 14.477272727272727  16.916666666666668 14.18181818181818  L 16.916666666666668 9.818181818181817  C 16.916666666666668 9.522727272727272  17.036241319444443 9.267045454545453  17.275390625 9.051136363636363  C 17.514539930555557 8.835227272727273  17.797743055555557 8.727272727272727  18.125 8.727272727272727  Z M 24.770833333333332 10.90909090909091  L 29 10.90909090909091  L 29 13.09090909090909  L 24.770833333333332 13.09090909090909  L 24.770833333333332 10.90909090909091  Z M 12.6875 2.1818181818181825  L 29 2.1818181818181825  L 29 4.363636363636362  L 12.6875 4.363636363636362  L 12.6875 2.1818181818181825  Z " fill-rule="evenodd" />
    </mask>
  </defs>
  <g transform="matrix(1 0 0 1 -48 -147 )">
    <path d="M 0 19.636363636363633  L 6.645833333333333 19.636363636363633  L 6.645833333333333 21.818181818181817  L 0 21.818181818181817  L 0 19.636363636363633  Z M 8.458333333333334 17.454545454545453  L 13.291666666666666 17.454545454545453  C 13.618923611111112 17.454545454545453  13.902126736111112 17.5625  14.141276041666666 17.77840909090909  C 14.380425347222221 17.99431818181818  14.5 18.25  14.5 18.545454545454547  L 14.5 22.90909090909091  C 14.5 23.204545454545453  14.380425347222221 23.46022727272727  14.141276041666666 23.676136363636363  C 13.902126736111112 23.892045454545457  13.618923611111112 24  13.291666666666666 24  L 8.458333333333334 24  C 8.13107638888889 24  7.84787326388889 23.892045454545457  7.608723958333334 23.676136363636363  C 7.369574652777778 23.46022727272727  7.25 23.204545454545453  7.25 22.90909090909091  L 7.25 18.545454545454547  C 7.25 18.25  7.369574652777778 17.99431818181818  7.608723958333334 17.77840909090909  C 7.84787326388889 17.5625  8.13107638888889 17.454545454545453  8.458333333333334 17.454545454545453  Z M 0 11  L 16.3125 11  L 16.3125 13  L 0 13  L 0 11  Z M 0 2.1818181818181825  L 4.229166666666667 2.1818181818181825  L 4.229166666666667 4.363636363636362  L 0 4.363636363636362  L 0 2.1818181818181825  Z M 15.104166666666668 19.636363636363633  L 29 19.636363636363633  L 29 21.818181818181817  L 15.104166666666668 21.818181818181817  L 15.104166666666668 19.636363636363633  Z M 6.041666666666667 0  L 10.875 0  C 11.202256944444446 0  11.485460069444446 0.1079545454545432  11.724609375 0.3238636363636376  C 11.963758680555557 0.539772727272724  12.083333333333334 0.7954545454545441  12.083333333333334 1.09090909090909  L 12.083333333333334 5.454545454545455  C 12.083333333333334 5.749999999999998  11.963758680555557 6.005681818181816  11.724609375 6.22159090909091  C 11.485460069444446 6.4374999999999964  11.202256944444446 6.545454545454545  10.875 6.545454545454545  L 6.041666666666667 6.545454545454545  C 5.714409722222223 6.545454545454545  5.431206597222223 6.4374999999999964  5.192057291666667 6.22159090909091  C 4.952907986111112 6.005681818181816  4.833333333333333 5.749999999999998  4.833333333333333 5.454545454545455  L 4.833333333333333 1.09090909090909  C 4.833333333333333 0.7954545454545441  4.952907986111112 0.539772727272724  5.192057291666667 0.3238636363636376  C 5.431206597222223 0.1079545454545432  5.714409722222223 0  6.041666666666667 0  Z M 18.125 8.727272727272727  L 22.958333333333332 8.727272727272727  C 23.28559027777778 8.727272727272727  23.56879340277778 8.835227272727273  23.807942708333332 9.051136363636363  C 24.047092013888893 9.267045454545453  24.166666666666668 9.522727272727272  24.166666666666668 9.818181818181817  L 24.166666666666668 14.18181818181818  C 24.166666666666668 14.477272727272727  24.047092013888893 14.732954545454543  23.807942708333332 14.948863636363635  C 23.56879340277778 15.164772727272727  23.28559027777778 15.272727272727273  22.958333333333332 15.272727272727273  L 18.125 15.272727272727273  C 17.797743055555557 15.272727272727273  17.514539930555557 15.164772727272727  17.275390625 14.948863636363635  C 17.036241319444443 14.732954545454543  16.916666666666668 14.477272727272727  16.916666666666668 14.18181818181818  L 16.916666666666668 9.818181818181817  C 16.916666666666668 9.522727272727272  17.036241319444443 9.267045454545453  17.275390625 9.051136363636363  C 17.514539930555557 8.835227272727273  17.797743055555557 8.727272727272727  18.125 8.727272727272727  Z M 24.770833333333332 10.90909090909091  L 29 10.90909090909091  L 29 13.09090909090909  L 24.770833333333332 13.09090909090909  L 24.770833333333332 10.90909090909091  Z M 12.6875 2.1818181818181825  L 29 2.1818181818181825  L 29 4.363636363636362  L 12.6875 4.363636363636362  L 12.6875 2.1818181818181825  Z " fill-rule="nonzero" fill="rgba(2, 167, 240, 1)" stroke="none" transform="matrix(1 0 0 1 48 147 )" class="fill" />
    <path d="M 0 19.636363636363633  L 6.645833333333333 19.636363636363633  L 6.645833333333333 21.818181818181817  L 0 21.818181818181817  L 0 19.636363636363633  Z " stroke-width="0" stroke-dasharray="0" stroke="rgba(255, 255, 255, 0)" fill="none" transform="matrix(1 0 0 1 48 147 )" class="stroke" mask="url(#Clip35)" />
    <path d="M 8.458333333333334 17.454545454545453  L 13.291666666666666 17.454545454545453  C 13.618923611111112 17.454545454545453  13.902126736111112 17.5625  14.141276041666666 17.77840909090909  C 14.380425347222221 17.99431818181818  14.5 18.25  14.5 18.545454545454547  L 14.5 22.90909090909091  C 14.5 23.204545454545453  14.380425347222221 23.46022727272727  14.141276041666666 23.676136363636363  C 13.902126736111112 23.892045454545457  13.618923611111112 24  13.291666666666666 24  L 8.458333333333334 24  C 8.13107638888889 24  7.84787326388889 23.892045454545457  7.608723958333334 23.676136363636363  C 7.369574652777778 23.46022727272727  7.25 23.204545454545453  7.25 22.90909090909091  L 7.25 18.545454545454547  C 7.25 18.25  7.369574652777778 17.99431818181818  7.608723958333334 17.77840909090909  C 7.84787326388889 17.5625  8.13107638888889 17.454545454545453  8.458333333333334 17.454545454545453  Z " stroke-width="0" stroke-dasharray="0" stroke="rgba(255, 255, 255, 0)" fill="none" transform="matrix(1 0 0 1 48 147 )" class="stroke" mask="url(#Clip35)" />
    <path d="M 0 11  L 16.3125 11  L 16.3125 13  L 0 13  L 0 11  Z " stroke-width="0" stroke-dasharray="0" stroke="rgba(255, 255, 255, 0)" fill="none" transform="matrix(1 0 0 1 48 147 )" class="stroke" mask="url(#Clip35)" />
    <path d="M 0 2.1818181818181825  L 4.229166666666667 2.1818181818181825  L 4.229166666666667 4.363636363636362  L 0 4.363636363636362  L 0 2.1818181818181825  Z " stroke-width="0" stroke-dasharray="0" stroke="rgba(255, 255, 255, 0)" fill="none" transform="matrix(1 0 0 1 48 147 )" class="stroke" mask="url(#Clip35)" />
    <path d="M 15.104166666666668 19.636363636363633  L 29 19.636363636363633  L 29 21.818181818181817  L 15.104166666666668 21.818181818181817  L 15.104166666666668 19.636363636363633  Z " stroke-width="0" stroke-dasharray="0" stroke="rgba(255, 255, 255, 0)" fill="none" transform="matrix(1 0 0 1 48 147 )" class="stroke" mask="url(#Clip35)" />
    <path d="M 6.041666666666667 0  L 10.875 0  C 11.202256944444446 0  11.485460069444446 0.1079545454545432  11.724609375 0.3238636363636376  C 11.963758680555557 0.539772727272724  12.083333333333334 0.7954545454545441  12.083333333333334 1.09090909090909  L 12.083333333333334 5.454545454545455  C 12.083333333333334 5.749999999999998  11.963758680555557 6.005681818181816  11.724609375 6.22159090909091  C 11.485460069444446 6.4374999999999964  11.202256944444446 6.545454545454545  10.875 6.545454545454545  L 6.041666666666667 6.545454545454545  C 5.714409722222223 6.545454545454545  5.431206597222223 6.4374999999999964  5.192057291666667 6.22159090909091  C 4.952907986111112 6.005681818181816  4.833333333333333 5.749999999999998  4.833333333333333 5.454545454545455  L 4.833333333333333 1.09090909090909  C 4.833333333333333 0.7954545454545441  4.952907986111112 0.539772727272724  5.192057291666667 0.3238636363636376  C 5.431206597222223 0.1079545454545432  5.714409722222223 0  6.041666666666667 0  Z " stroke-width="0" stroke-dasharray="0" stroke="rgba(255, 255, 255, 0)" fill="none" transform="matrix(1 0 0 1 48 147 )" class="stroke" mask="url(#Clip35)" />
    <path d="M 18.125 8.727272727272727  L 22.958333333333332 8.727272727272727  C 23.28559027777778 8.727272727272727  23.56879340277778 8.835227272727273  23.807942708333332 9.051136363636363  C 24.047092013888893 9.267045454545453  24.166666666666668 9.522727272727272  24.166666666666668 9.818181818181817  L 24.166666666666668 14.18181818181818  C 24.166666666666668 14.477272727272727  24.047092013888893 14.732954545454543  23.807942708333332 14.948863636363635  C 23.56879340277778 15.164772727272727  23.28559027777778 15.272727272727273  22.958333333333332 15.272727272727273  L 18.125 15.272727272727273  C 17.797743055555557 15.272727272727273  17.514539930555557 15.164772727272727  17.275390625 14.948863636363635  C 17.036241319444443 14.732954545454543  16.916666666666668 14.477272727272727  16.916666666666668 14.18181818181818  L 16.916666666666668 9.818181818181817  C 16.916666666666668 9.522727272727272  17.036241319444443 9.267045454545453  17.275390625 9.051136363636363  C 17.514539930555557 8.835227272727273  17.797743055555557 8.727272727272727  18.125 8.727272727272727  Z " stroke-width="0" stroke-dasharray="0" stroke="rgba(255, 255, 255, 0)" fill="none" transform="matrix(1 0 0 1 48 147 )" class="stroke" mask="url(#Clip35)" />
    <path d="M 24.770833333333332 10.90909090909091  L 29 10.90909090909091  L 29 13.09090909090909  L 24.770833333333332 13.09090909090909  L 24.770833333333332 10.90909090909091  Z " stroke-width="0" stroke-dasharray="0" stroke="rgba(255, 255, 255, 0)" fill="none" transform="matrix(1 0 0 1 48 147 )" class="stroke" mask="url(#Clip35)" />
    <path d="M 12.6875 2.1818181818181825  L 29 2.1818181818181825  L 29 4.363636363636362  L 12.6875 4.363636363636362  L 12.6875 2.1818181818181825  Z " stroke-width="0" stroke-dasharray="0" stroke="rgba(255, 255, 255, 0)" fill="none" transform="matrix(1 0 0 1 48 147 )" class="stroke" mask="url(#Clip35)" />
  </g>
</svg>