<?xml version="1.0" encoding="utf-8"?>
<svg version="1.1" xmlns:xlink="http://www.w3.org/1999/xlink" width="24px" height="24px" xmlns="http://www.w3.org/2000/svg">
  <defs>
    <pattern id="BGPattern" patternUnits="userSpaceOnUse" alignment="0 0" imageRepeat="None" />
    <mask fill="white" id="Clip14">
      <path d="M 5.015625 17.616477272727273  C 5.100446428571429 17.72443181818182  5.142857142857142 17.852272727272727  5.142857142857142 18  L 5.142857142857142 19.09090909090909  C 5.142857142857142 19.23863636363636  5.100446428571429 19.366477272727273  5.015625 19.474431818181817  C 4.930803571428571 19.582386363636363  4.830357142857143 19.636363636363633  4.714285714285714 19.636363636363633  L 3.8571428571428577 19.636363636363633  C 3.7410714285714293 19.636363636363633  3.640625 19.582386363636363  3.5558035714285716 19.474431818181817  C 3.4709821428571432 19.366477272727273  3.4285714285714284 19.23863636363636  3.4285714285714284 19.09090909090909  L 3.4285714285714284 18  C 3.4285714285714284 17.852272727272727  3.4709821428571432 17.72443181818182  3.5558035714285716 17.616477272727273  C 3.640625 17.508522727272727  3.7410714285714293 17.454545454545453  3.8571428571428577 17.454545454545453  L 4.714285714285714 17.454545454545453  C 4.830357142857143 17.454545454545453  4.930803571428571 17.508522727272727  5.015625 17.616477272727273  Z M 5.015625 13.25284090909091  C 5.100446428571429 13.360795454545453  5.142857142857142 13.488636363636363  5.142857142857142 13.636363636363635  L 5.142857142857142 14.727272727272727  C 5.142857142857142 14.875  5.100446428571429 15.002840909090907  5.015625 15.110795454545455  C 4.930803571428571 15.218749999999998  4.830357142857143 15.272727272727273  4.714285714285714 15.272727272727273  L 3.8571428571428577 15.272727272727273  C 3.7410714285714293 15.272727272727273  3.640625 15.218749999999998  3.5558035714285716 15.110795454545455  C 3.4709821428571432 15.002840909090907  3.4285714285714284 14.875  3.4285714285714284 14.727272727272727  L 3.4285714285714284 13.636363636363635  C 3.4285714285714284 13.488636363636363  3.4709821428571432 13.360795454545453  3.5558035714285716 13.25284090909091  C 3.640625 13.144886363636362  3.7410714285714293 13.09090909090909  3.8571428571428577 13.09090909090909  L 4.714285714285714 13.09090909090909  C 4.830357142857143 13.09090909090909  4.930803571428571 13.144886363636362  5.015625 13.25284090909091  Z M 5.015625 8.889204545454545  C 5.100446428571429 8.99715909090909  5.142857142857142 9.124999999999998  5.142857142857142 9.272727272727273  L 5.142857142857142 10.363636363636363  C 5.142857142857142 10.511363636363637  5.100446428571429 10.639204545454543  5.015625 10.74715909090909  C 4.930803571428571 10.855113636363637  4.830357142857143 10.90909090909091  4.714285714285714 10.90909090909091  L 3.8571428571428577 10.90909090909091  C 3.7410714285714293 10.90909090909091  3.640625 10.855113636363637  3.5558035714285716 10.74715909090909  C 3.4709821428571432 10.639204545454543  3.4285714285714284 10.511363636363637  3.4285714285714284 10.363636363636363  L 3.4285714285714284 9.272727272727273  C 3.4285714285714284 9.124999999999998  3.4709821428571432 8.99715909090909  3.5558035714285716 8.889204545454545  C 3.640625 8.78125  3.7410714285714293 8.727272727272727  3.8571428571428577 8.727272727272727  L 4.714285714285714 8.727272727272727  C 4.830357142857143 8.727272727272727  4.930803571428571 8.78125  5.015625 8.889204545454545  Z M 20.44419642857143 17.616477272727273  C 20.529017857142854 17.72443181818182  20.57142857142857 17.852272727272727  20.57142857142857 18  L 20.57142857142857 19.09090909090909  C 20.57142857142857 19.23863636363636  20.529017857142854 19.366477272727273  20.44419642857143 19.474431818181817  C 20.359375 19.582386363636363  20.258928571428573 19.636363636363633  20.142857142857142 19.636363636363633  L 7.285714285714285 19.636363636363633  C 7.169642857142858 19.636363636363633  7.069196428571429 19.582386363636363  6.984375 19.474431818181817  C 6.899553571428572 19.366477272727273  6.857142857142857 19.23863636363636  6.857142857142857 19.09090909090909  L 6.857142857142857 18  C 6.857142857142857 17.852272727272727  6.899553571428572 17.72443181818182  6.984375 17.616477272727273  C 7.069196428571429 17.508522727272727  7.169642857142858 17.454545454545453  7.285714285714285 17  L 20.142857142857142 17  C 20.258928571428573 17.454545454545453  20.359375 17.508522727272727  20.44419642857143 17.616477272727273  Z M 20.44419642857143 13.25284090909091  C 20.529017857142854 13.360795454545453  20.57142857142857 13.488636363636363  20.57142857142857 13.636363636363635  L 20.57142857142857 14.727272727272727  C 20.57142857142857 14.875  20.529017857142854 15.002840909090907  20.44419642857143 15.110795454545455  C 20.359375 15.218749999999998  20.258928571428573 15.272727272727273  20.142857142857142 15  L 7.285714285714285 15  C 7.169642857142858 15.272727272727273  7.069196428571429 15.218749999999998  6.984375 15.110795454545455  C 6.899553571428572 15.002840909090907  6.857142857142857 14.875  6.857142857142857 14.727272727272727  L 6.857142857142857 13.636363636363635  C 6.857142857142857 13.488636363636363  6.899553571428572 13.360795454545453  6.984375 13.25284090909091  C 7.069196428571429 13.144886363636362  7.169642857142858 13.09090909090909  7.285714285714285 13  L 20.142857142857142 13  C 20.258928571428573 13.09090909090909  20.359375 13.144886363636362  20.44419642857143 13.25284090909091  Z M 20.44419642857143 8.889204545454545  C 20.529017857142854 8.99715909090909  20.57142857142857 9.124999999999998  20.57142857142857 9.272727272727273  L 20.57142857142857 10.363636363636363  C 20.57142857142857 10.511363636363637  20.529017857142854 10.639204545454543  20.44419642857143 10.74715909090909  C 20.359375 10.855113636363637  20.258928571428573 10.90909090909091  20.142857142857142 11  L 7.285714285714285 11  C 7.169642857142858 10.90909090909091  7.069196428571429 10.855113636363637  6.984375 10.74715909090909  C 6.899553571428572 10.639204545454543  6.857142857142857 10.511363636363637  6.857142857142857 10.363636363636363  L 6.857142857142857 9.272727272727273  C 6.857142857142857 9.124999999999998  6.899553571428572 8.99715909090909  6.984375 8.889204545454545  C 7.069196428571429 8.78125  7.169642857142858 8.727272727272727  7.285714285714285 9  L 20.142857142857142 9  C 20.258928571428573 8.727272727272727  20.359375 8.78125  20.44419642857143 8.889204545454545  Z M 22.158482142857142 21.65625  C 22.243303571428573 21.548295454545457  22.285714285714285 21.420454545454547  22 21.272727272727273  L 22 7.09090909090909  C 22.285714285714285 6.943181818181816  22.243303571428573 6.815340909090908  22.158482142857142 6.707386363636362  C 22.073660714285715 6.599431818181817  21.973214285714285 6.545454545454545  21.857142857142858 7  L 2.142857142857143 7  C 2.0267857142857144 6.545454545454545  1.9263392857142856 6.599431818181817  1.8415178571428572 6.707386363636362  C 1.7566964285714288 6.815340909090908  1.7142857142857142 6.943181818181816  2 7.09090909090909  L 2 21.272727272727273  C 1.7142857142857142 21.420454545454547  1.7566964285714288 21.548295454545457  1.8415178571428572 21.65625  C 1.9263392857142856 21.764204545454543  2.0267857142857144 21.818181818181817  2.142857142857143 21.818181818181817  L 21.857142857142858 21.818181818181817  C 21.973214285714285 21.818181818181817  22.073660714285715 21.764204545454543  22.158482142857142 21.65625  Z M 23.370535714285715 0.8011363636363624  C 23.790178571428573 1.3352272727272707  24 1.9772727272727275  24 2.7272727272727275  L 24 21.272727272727273  C 24 22.022727272727273  23.790178571428573 22.66477272727273  23.370535714285715 23.198863636363637  C 22.95089285714286 23.732954545454543  22.446428571428577 24  21.857142857142858 24  L 2.142857142857143 24  C 1.5535714285714288 24  1.049107142857143 23.732954545454543  0.6294642857142857 23.198863636363637  C 0.20982142857142858 22.66477272727273  0 22.022727272727273  0 21.272727272727273  L 0 2.7272727272727275  C 0 1.9772727272727275  0.20982142857142858 1.3352272727272707  0.6294642857142857 0.8011363636363624  C 1.049107142857143 0.2670454545454515  1.5535714285714288 0  2.142857142857143 0  L 21.857142857142858 0  C 22.446428571428577 0  22.95089285714286 0.2670454545454515  23.370535714285715 0.8011363636363624  Z " fill-rule="evenodd" />
    </mask>
  </defs>
  <g transform="matrix(1 0 0 1 -239 -11 )">
    <path d="M 5.015625 17.616477272727273  C 5.100446428571429 17.72443181818182  5.142857142857142 17.852272727272727  5.142857142857142 18  L 5.142857142857142 19.09090909090909  C 5.142857142857142 19.23863636363636  5.100446428571429 19.366477272727273  5.015625 19.474431818181817  C 4.930803571428571 19.582386363636363  4.830357142857143 19.636363636363633  4.714285714285714 19.636363636363633  L 3.8571428571428577 19.636363636363633  C 3.7410714285714293 19.636363636363633  3.640625 19.582386363636363  3.5558035714285716 19.474431818181817  C 3.4709821428571432 19.366477272727273  3.4285714285714284 19.23863636363636  3.4285714285714284 19.09090909090909  L 3.4285714285714284 18  C 3.4285714285714284 17.852272727272727  3.4709821428571432 17.72443181818182  3.5558035714285716 17.616477272727273  C 3.640625 17.508522727272727  3.7410714285714293 17.454545454545453  3.8571428571428577 17.454545454545453  L 4.714285714285714 17.454545454545453  C 4.830357142857143 17.454545454545453  4.930803571428571 17.508522727272727  5.015625 17.616477272727273  Z M 5.015625 13.25284090909091  C 5.100446428571429 13.360795454545453  5.142857142857142 13.488636363636363  5.142857142857142 13.636363636363635  L 5.142857142857142 14.727272727272727  C 5.142857142857142 14.875  5.100446428571429 15.002840909090907  5.015625 15.110795454545455  C 4.930803571428571 15.218749999999998  4.830357142857143 15.272727272727273  4.714285714285714 15.272727272727273  L 3.8571428571428577 15.272727272727273  C 3.7410714285714293 15.272727272727273  3.640625 15.218749999999998  3.5558035714285716 15.110795454545455  C 3.4709821428571432 15.002840909090907  3.4285714285714284 14.875  3.4285714285714284 14.727272727272727  L 3.4285714285714284 13.636363636363635  C 3.4285714285714284 13.488636363636363  3.4709821428571432 13.360795454545453  3.5558035714285716 13.25284090909091  C 3.640625 13.144886363636362  3.7410714285714293 13.09090909090909  3.8571428571428577 13.09090909090909  L 4.714285714285714 13.09090909090909  C 4.830357142857143 13.09090909090909  4.930803571428571 13.144886363636362  5.015625 13.25284090909091  Z M 5.015625 8.889204545454545  C 5.100446428571429 8.99715909090909  5.142857142857142 9.124999999999998  5.142857142857142 9.272727272727273  L 5.142857142857142 10.363636363636363  C 5.142857142857142 10.511363636363637  5.100446428571429 10.639204545454543  5.015625 10.74715909090909  C 4.930803571428571 10.855113636363637  4.830357142857143 10.90909090909091  4.714285714285714 10.90909090909091  L 3.8571428571428577 10.90909090909091  C 3.7410714285714293 10.90909090909091  3.640625 10.855113636363637  3.5558035714285716 10.74715909090909  C 3.4709821428571432 10.639204545454543  3.4285714285714284 10.511363636363637  3.4285714285714284 10.363636363636363  L 3.4285714285714284 9.272727272727273  C 3.4285714285714284 9.124999999999998  3.4709821428571432 8.99715909090909  3.5558035714285716 8.889204545454545  C 3.640625 8.78125  3.7410714285714293 8.727272727272727  3.8571428571428577 8.727272727272727  L 4.714285714285714 8.727272727272727  C 4.830357142857143 8.727272727272727  4.930803571428571 8.78125  5.015625 8.889204545454545  Z M 20.44419642857143 17.616477272727273  C 20.529017857142854 17.72443181818182  20.57142857142857 17.852272727272727  20.57142857142857 18  L 20.57142857142857 19.09090909090909  C 20.57142857142857 19.23863636363636  20.529017857142854 19.366477272727273  20.44419642857143 19.474431818181817  C 20.359375 19.582386363636363  20.258928571428573 19.636363636363633  20.142857142857142 19.636363636363633  L 7.285714285714285 19.636363636363633  C 7.169642857142858 19.636363636363633  7.069196428571429 19.582386363636363  6.984375 19.474431818181817  C 6.899553571428572 19.366477272727273  6.857142857142857 19.23863636363636  6.857142857142857 19.09090909090909  L 6.857142857142857 18  C 6.857142857142857 17.852272727272727  6.899553571428572 17.72443181818182  6.984375 17.616477272727273  C 7.069196428571429 17.508522727272727  7.169642857142858 17.454545454545453  7.285714285714285 17  L 20.142857142857142 17  C 20.258928571428573 17.454545454545453  20.359375 17.508522727272727  20.44419642857143 17.616477272727273  Z M 20.44419642857143 13.25284090909091  C 20.529017857142854 13.360795454545453  20.57142857142857 13.488636363636363  20.57142857142857 13.636363636363635  L 20.57142857142857 14.727272727272727  C 20.57142857142857 14.875  20.529017857142854 15.002840909090907  20.44419642857143 15.110795454545455  C 20.359375 15.218749999999998  20.258928571428573 15.272727272727273  20.142857142857142 15  L 7.285714285714285 15  C 7.169642857142858 15.272727272727273  7.069196428571429 15.218749999999998  6.984375 15.110795454545455  C 6.899553571428572 15.002840909090907  6.857142857142857 14.875  6.857142857142857 14.727272727272727  L 6.857142857142857 13.636363636363635  C 6.857142857142857 13.488636363636363  6.899553571428572 13.360795454545453  6.984375 13.25284090909091  C 7.069196428571429 13.144886363636362  7.169642857142858 13.09090909090909  7.285714285714285 13  L 20.142857142857142 13  C 20.258928571428573 13.09090909090909  20.359375 13.144886363636362  20.44419642857143 13.25284090909091  Z M 20.44419642857143 8.889204545454545  C 20.529017857142854 8.99715909090909  20.57142857142857 9.124999999999998  20.57142857142857 9.272727272727273  L 20.57142857142857 10.363636363636363  C 20.57142857142857 10.511363636363637  20.529017857142854 10.639204545454543  20.44419642857143 10.74715909090909  C 20.359375 10.855113636363637  20.258928571428573 10.90909090909091  20.142857142857142 11  L 7.285714285714285 11  C 7.169642857142858 10.90909090909091  7.069196428571429 10.855113636363637  6.984375 10.74715909090909  C 6.899553571428572 10.639204545454543  6.857142857142857 10.511363636363637  6.857142857142857 10.363636363636363  L 6.857142857142857 9.272727272727273  C 6.857142857142857 9.124999999999998  6.899553571428572 8.99715909090909  6.984375 8.889204545454545  C 7.069196428571429 8.78125  7.169642857142858 8.727272727272727  7.285714285714285 9  L 20.142857142857142 9  C 20.258928571428573 8.727272727272727  20.359375 8.78125  20.44419642857143 8.889204545454545  Z M 22.158482142857142 21.65625  C 22.243303571428573 21.548295454545457  22.285714285714285 21.420454545454547  22 21.272727272727273  L 22 7.09090909090909  C 22.285714285714285 6.943181818181816  22.243303571428573 6.815340909090908  22.158482142857142 6.707386363636362  C 22.073660714285715 6.599431818181817  21.973214285714285 6.545454545454545  21.857142857142858 7  L 2.142857142857143 7  C 2.0267857142857144 6.545454545454545  1.9263392857142856 6.599431818181817  1.8415178571428572 6.707386363636362  C 1.7566964285714288 6.815340909090908  1.7142857142857142 6.943181818181816  2 7.09090909090909  L 2 21.272727272727273  C 1.7142857142857142 21.420454545454547  1.7566964285714288 21.548295454545457  1.8415178571428572 21.65625  C 1.9263392857142856 21.764204545454543  2.0267857142857144 21.818181818181817  2.142857142857143 21.818181818181817  L 21.857142857142858 21.818181818181817  C 21.973214285714285 21.818181818181817  22.073660714285715 21.764204545454543  22.158482142857142 21.65625  Z M 23.370535714285715 0.8011363636363624  C 23.790178571428573 1.3352272727272707  24 1.9772727272727275  24 2.7272727272727275  L 24 21.272727272727273  C 24 22.022727272727273  23.790178571428573 22.66477272727273  23.370535714285715 23.198863636363637  C 22.95089285714286 23.732954545454543  22.446428571428577 24  21.857142857142858 24  L 2.142857142857143 24  C 1.5535714285714288 24  1.049107142857143 23.732954545454543  0.6294642857142857 23.198863636363637  C 0.20982142857142858 22.66477272727273  0 22.022727272727273  0 21.272727272727273  L 0 2.7272727272727275  C 0 1.9772727272727275  0.20982142857142858 1.3352272727272707  0.6294642857142857 0.8011363636363624  C 1.049107142857143 0.2670454545454515  1.5535714285714288 0  2.142857142857143 0  L 21.857142857142858 0  C 22.446428571428577 0  22.95089285714286 0.2670454545454515  23.370535714285715 0.8011363636363624  Z " fill-rule="nonzero" fill="rgba(255, 255, 255, 1)" stroke="none" transform="matrix(1 0 0 1 239 11 )" class="fill" />
    <path d="M 5.015625 17.616477272727273  C 5.100446428571429 17.72443181818182  5.142857142857142 17.852272727272727  5.142857142857142 18  L 5.142857142857142 19.09090909090909  C 5.142857142857142 19.23863636363636  5.100446428571429 19.366477272727273  5.015625 19.474431818181817  C 4.930803571428571 19.582386363636363  4.830357142857143 19.636363636363633  4.714285714285714 19.636363636363633  L 3.8571428571428577 19.636363636363633  C 3.7410714285714293 19.636363636363633  3.640625 19.582386363636363  3.5558035714285716 19.474431818181817  C 3.4709821428571432 19.366477272727273  3.4285714285714284 19.23863636363636  3.4285714285714284 19.09090909090909  L 3.4285714285714284 18  C 3.4285714285714284 17.852272727272727  3.4709821428571432 17.72443181818182  3.5558035714285716 17.616477272727273  C 3.640625 17.508522727272727  3.7410714285714293 17.454545454545453  3.8571428571428577 17.454545454545453  L 4.714285714285714 17.454545454545453  C 4.830357142857143 17.454545454545453  4.930803571428571 17.508522727272727  5.015625 17.616477272727273  Z " stroke-width="0" stroke-dasharray="0" stroke="rgba(255, 255, 255, 0)" fill="none" transform="matrix(1 0 0 1 239 11 )" class="stroke" mask="url(#Clip14)" />
    <path d="M 5.015625 13.25284090909091  C 5.100446428571429 13.360795454545453  5.142857142857142 13.488636363636363  5.142857142857142 13.636363636363635  L 5.142857142857142 14.727272727272727  C 5.142857142857142 14.875  5.100446428571429 15.002840909090907  5.015625 15.110795454545455  C 4.930803571428571 15.218749999999998  4.830357142857143 15.272727272727273  4.714285714285714 15.272727272727273  L 3.8571428571428577 15.272727272727273  C 3.7410714285714293 15.272727272727273  3.640625 15.218749999999998  3.5558035714285716 15.110795454545455  C 3.4709821428571432 15.002840909090907  3.4285714285714284 14.875  3.4285714285714284 14.727272727272727  L 3.4285714285714284 13.636363636363635  C 3.4285714285714284 13.488636363636363  3.4709821428571432 13.360795454545453  3.5558035714285716 13.25284090909091  C 3.640625 13.144886363636362  3.7410714285714293 13.09090909090909  3.8571428571428577 13.09090909090909  L 4.714285714285714 13.09090909090909  C 4.830357142857143 13.09090909090909  4.930803571428571 13.144886363636362  5.015625 13.25284090909091  Z " stroke-width="0" stroke-dasharray="0" stroke="rgba(255, 255, 255, 0)" fill="none" transform="matrix(1 0 0 1 239 11 )" class="stroke" mask="url(#Clip14)" />
    <path d="M 5.015625 8.889204545454545  C 5.100446428571429 8.99715909090909  5.142857142857142 9.124999999999998  5.142857142857142 9.272727272727273  L 5.142857142857142 10.363636363636363  C 5.142857142857142 10.511363636363637  5.100446428571429 10.639204545454543  5.015625 10.74715909090909  C 4.930803571428571 10.855113636363637  4.830357142857143 10.90909090909091  4.714285714285714 10.90909090909091  L 3.8571428571428577 10.90909090909091  C 3.7410714285714293 10.90909090909091  3.640625 10.855113636363637  3.5558035714285716 10.74715909090909  C 3.4709821428571432 10.639204545454543  3.4285714285714284 10.511363636363637  3.4285714285714284 10.363636363636363  L 3.4285714285714284 9.272727272727273  C 3.4285714285714284 9.124999999999998  3.4709821428571432 8.99715909090909  3.5558035714285716 8.889204545454545  C 3.640625 8.78125  3.7410714285714293 8.727272727272727  3.8571428571428577 8.727272727272727  L 4.714285714285714 8.727272727272727  C 4.830357142857143 8.727272727272727  4.930803571428571 8.78125  5.015625 8.889204545454545  Z " stroke-width="0" stroke-dasharray="0" stroke="rgba(255, 255, 255, 0)" fill="none" transform="matrix(1 0 0 1 239 11 )" class="stroke" mask="url(#Clip14)" />
    <path d="M 20.44419642857143 17.616477272727273  C 20.529017857142854 17.72443181818182  20.57142857142857 17.852272727272727  20.57142857142857 18  L 20.57142857142857 19.09090909090909  C 20.57142857142857 19.23863636363636  20.529017857142854 19.366477272727273  20.44419642857143 19.474431818181817  C 20.359375 19.582386363636363  20.258928571428573 19.636363636363633  20.142857142857142 19.636363636363633  L 7.285714285714285 19.636363636363633  C 7.169642857142858 19.636363636363633  7.069196428571429 19.582386363636363  6.984375 19.474431818181817  C 6.899553571428572 19.366477272727273  6.857142857142857 19.23863636363636  6.857142857142857 19.09090909090909  L 6.857142857142857 18  C 6.857142857142857 17.852272727272727  6.899553571428572 17.72443181818182  6.984375 17.616477272727273  C 7.069196428571429 17.508522727272727  7.169642857142858 17.454545454545453  7.285714285714285 17  L 20.142857142857142 17  C 20.258928571428573 17.454545454545453  20.359375 17.508522727272727  20.44419642857143 17.616477272727273  Z " stroke-width="0" stroke-dasharray="0" stroke="rgba(255, 255, 255, 0)" fill="none" transform="matrix(1 0 0 1 239 11 )" class="stroke" mask="url(#Clip14)" />
    <path d="M 20.44419642857143 13.25284090909091  C 20.529017857142854 13.360795454545453  20.57142857142857 13.488636363636363  20.57142857142857 13.636363636363635  L 20.57142857142857 14.727272727272727  C 20.57142857142857 14.875  20.529017857142854 15.002840909090907  20.44419642857143 15.110795454545455  C 20.359375 15.218749999999998  20.258928571428573 15.272727272727273  20.142857142857142 15  L 7.285714285714285 15  C 7.169642857142858 15.272727272727273  7.069196428571429 15.218749999999998  6.984375 15.110795454545455  C 6.899553571428572 15.002840909090907  6.857142857142857 14.875  6.857142857142857 14.727272727272727  L 6.857142857142857 13.636363636363635  C 6.857142857142857 13.488636363636363  6.899553571428572 13.360795454545453  6.984375 13.25284090909091  C 7.069196428571429 13.144886363636362  7.169642857142858 13.09090909090909  7.285714285714285 13  L 20.142857142857142 13  C 20.258928571428573 13.09090909090909  20.359375 13.144886363636362  20.44419642857143 13.25284090909091  Z " stroke-width="0" stroke-dasharray="0" stroke="rgba(255, 255, 255, 0)" fill="none" transform="matrix(1 0 0 1 239 11 )" class="stroke" mask="url(#Clip14)" />
    <path d="M 20.44419642857143 8.889204545454545  C 20.529017857142854 8.99715909090909  20.57142857142857 9.124999999999998  20.57142857142857 9.272727272727273  L 20.57142857142857 10.363636363636363  C 20.57142857142857 10.511363636363637  20.529017857142854 10.639204545454543  20.44419642857143 10.74715909090909  C 20.359375 10.855113636363637  20.258928571428573 10.90909090909091  20.142857142857142 11  L 7.285714285714285 11  C 7.169642857142858 10.90909090909091  7.069196428571429 10.855113636363637  6.984375 10.74715909090909  C 6.899553571428572 10.639204545454543  6.857142857142857 10.511363636363637  6.857142857142857 10.363636363636363  L 6.857142857142857 9.272727272727273  C 6.857142857142857 9.124999999999998  6.899553571428572 8.99715909090909  6.984375 8.889204545454545  C 7.069196428571429 8.78125  7.169642857142858 8.727272727272727  7.285714285714285 9  L 20.142857142857142 9  C 20.258928571428573 8.727272727272727  20.359375 8.78125  20.44419642857143 8.889204545454545  Z " stroke-width="0" stroke-dasharray="0" stroke="rgba(255, 255, 255, 0)" fill="none" transform="matrix(1 0 0 1 239 11 )" class="stroke" mask="url(#Clip14)" />
    <path d="M 22.158482142857142 21.65625  C 22.243303571428573 21.548295454545457  22.285714285714285 21.420454545454547  22 21.272727272727273  L 22 7.09090909090909  C 22.285714285714285 6.943181818181816  22.243303571428573 6.815340909090908  22.158482142857142 6.707386363636362  C 22.073660714285715 6.599431818181817  21.973214285714285 6.545454545454545  21.857142857142858 7  L 2.142857142857143 7  C 2.0267857142857144 6.545454545454545  1.9263392857142856 6.599431818181817  1.8415178571428572 6.707386363636362  C 1.7566964285714288 6.815340909090908  1.7142857142857142 6.943181818181816  2 7.09090909090909  L 2 21.272727272727273  C 1.7142857142857142 21.420454545454547  1.7566964285714288 21.548295454545457  1.8415178571428572 21.65625  C 1.9263392857142856 21.764204545454543  2.0267857142857144 21.818181818181817  2.142857142857143 21.818181818181817  L 21.857142857142858 21.818181818181817  C 21.973214285714285 21.818181818181817  22.073660714285715 21.764204545454543  22.158482142857142 21.65625  Z " stroke-width="0" stroke-dasharray="0" stroke="rgba(255, 255, 255, 0)" fill="none" transform="matrix(1 0 0 1 239 11 )" class="stroke" mask="url(#Clip14)" />
    <path d="M 23.370535714285715 0.8011363636363624  C 23.790178571428573 1.3352272727272707  24 1.9772727272727275  24 2.7272727272727275  L 24 21.272727272727273  C 24 22.022727272727273  23.790178571428573 22.66477272727273  23.370535714285715 23.198863636363637  C 22.95089285714286 23.732954545454543  22.446428571428577 24  21.857142857142858 24  L 2.142857142857143 24  C 1.5535714285714288 24  1.049107142857143 23.732954545454543  0.6294642857142857 23.198863636363637  C 0.20982142857142858 22.66477272727273  0 22.022727272727273  0 21.272727272727273  L 0 2.7272727272727275  C 0 1.9772727272727275  0.20982142857142858 1.3352272727272707  0.6294642857142857 0.8011363636363624  C 1.049107142857143 0.2670454545454515  1.5535714285714288 0  2.142857142857143 0  L 21.857142857142858 0  C 22.446428571428577 0  22.95089285714286 0.2670454545454515  23.370535714285715 0.8011363636363624  Z " stroke-width="0" stroke-dasharray="0" stroke="rgba(255, 255, 255, 0)" fill="none" transform="matrix(1 0 0 1 239 11 )" class="stroke" mask="url(#Clip14)" />
  </g>
</svg>