<?xml version="1.0" encoding="utf-8"?>
<svg version="1.1" xmlns:xlink="http://www.w3.org/1999/xlink" width="26px" height="24px" xmlns="http://www.w3.org/2000/svg">
  <defs>
    <pattern id="BGPattern" patternUnits="userSpaceOnUse" alignment="0 0" imageRepeat="None" />
    <mask fill="white" id="Clip13">
      <path d="M 24.673469387755105 4.796874999999999  C 25.06882753101241 4.953125000000001  25.37575030012005 5.177083333333331  25.594237695078032 5.468750000000001  C 26.010404161664663 6.062499999999999  26.104041616646658 6.734375000000001  25.87515006002401 7.484375000000001  L 21.58343337334934 21.640625  C 21.38575430172069 22.307291666666668  20.98779511804722 22.8671875  20.38955582232893 23.3203125  C 19.791316526610647 23.7734375  19.154061624649863 24  18.47779111644658 24  L 4.073229291716687 24  C 3.272108843537415 24  2.499599839935975 23.721354166666668  1.755702280912365 23.1640625  C 1.0118047218887556 22.606770833333332  0.49419767907162876 21.921875  0.2028811524609844 21.109375  C -0.0468187274909964 20.411458333333332  -0.05722288915566227 19.75  0.1716686674669868 19.125  C 0.1716686674669868 19.083333333333332  0.1872749099639856 18.942708333333332  0.2184873949579832 18.703125  C 0.24969987995198079 18.463541666666664  0.2705082032813126 18.270833333333332  0.28091236494597843 18.125  C 0.2913165266106443 18.041666666666668  0.27571028411364545 17.9296875  0.234093637454982 17.7890625  C 0.19247699079631853 17.6484375  0.17687074829931976 17.546875  0.1872749099639856 17.484375  C 0.20808323329331735 17.369791666666664  0.24969987995198079 17.260416666666664  0.312124849939976 17.15625  C 0.3745498199279712 17.05208333333333  0.46038415366146457 16.9296875  0.5696278511404562 16.7890625  C 0.6788715486194478 16.6484375  0.7647058823529411 16.526041666666664  0.8271308523409363 16.421875  C 1.0664265706282514 16.026041666666664  1.3005202080832334 15.549479166666664  1.5294117647058822 14.992187500000002  C 1.7583033213285315 14.434895833333334  1.9143657462985195 13.95833333333333  1.9975990396158463 13.562500000000002  C 2.0288115246098437 13.458333333333332  2.0314125650260104 13.30208333333333  2.005402160864346 13.093750000000002  C 1.9793917567026813 12.885416666666668  1.9767907162865146 12.73958333333333  1.9975990396158463 12.65625  C 2.0288115246098437 12.541666666666666  2.117246898759504 12.395833333333334  2.262905162064826 12.218749999999998  C 2.408563425370148 12.041666666666668  2.496998799519808 11.921875  2.5282112845138056 11.859375  C 2.746698679471789 11.484375  2.965186074429772 11.005208333333332  3.183673469387755 10.421875  C 3.4021608643457384 9.838541666666664  3.532212885154062 9.369791666666664  3.5738295318127253 9.015625  C 3.584233693477391 8.921875  3.5712284913965586 8.755208333333332  3.534813925570228 8.515625  C 3.498399359743898 8.276041666666666  3.5010004001600645 8.130208333333332  3.5426170468187275 8.078125  C 3.584233693477391 7.942708333333331  3.6986794717887155 7.783854166666663  3.8859543817527014 7.601562500000001  C 4.073229291716687 7.419270833333333  4.187675070028011 7.302083333333333  4.229291716686674 7.250000000000001  C 4.426970788315327 6.979166666666665  4.648059223689477 6.5390625  4.8925570228091235 5.9296875  C 5.137054821928771 5.3203125  5.280112044817928 4.817708333333333  5.32172869147659 4.421874999999999  C 5.332132853141257 4.338541666666663  5.316526610644258 4.205729166666664  5.2749099639855945 4.023437499999999  C 5.233293317326931 3.8411458333333313  5.222889155662266 3.703125  5.243697478991597 3.609375  C 5.264505802320929 3.5260416666666643  5.311324529811926 3.4322916666666643  5.384153661464586 3.328125  C 5.456982793117247 3.223958333333333  5.55062024809924 3.1041666666666643  5.665066026410564 2.968749999999999  C 5.779511804721889 2.8333333333333313  5.867947178871549 2.723958333333332  5.930372148859544 2.640624999999999  C 6.013605442176871 2.515625000000001  6.099439775910365 2.356770833333333  6.187875150060024 2.164062500000001  C 6.276310524209684 1.9713541666666634  6.354341736694678 1.7890625000000009  6.421968787515006 1.6171875  C 6.489595838335334 1.4453124999999991  6.572829131652663 1.2578124999999991  6.671668667466986 1.0546875  C 6.770508203281313 0.8515625000000009  6.871948779511805 0.6848958333333321  6.975990396158463 0.5546874999999991  C 7.080032012805123 0.4244791666666634  7.217887154861946 0.30208333333333126  7.389555822328932 0.1875  C 7.5612244897959195 0.07291666666666341  7.748499399759905 0.013020833333333037  7.951380552220888 0.007812500000000888  C 8.154261704681874 0.00260416666666341  8.401360544217688 0.03125000000000089  8.692677070828331 0.09375  L 8.677070828331333 0.140625  C 9.072428971588636 0.046875  9.337735094037615 0  9.472989195678272 0  L 21.349339735894358 0  C 22.119247699079633 0  22.71228491396559 0.2916666666666643  23.12845138055222 0.8750000000000009  C 23.54461784713886 1.4583333333333321  23.63825530212085 2.1354166666666634  23.4093637454982 2.90625  L 19.133253301320526 17.0625  C 18.758703481392555 18.302083333333332  18.386754701880754 19.1015625  18.017406962785113 19.4609375  C 17.64805922368948 19.8203125  16.97959183673469 20  16.012004801920767 20  L 2.450180072028812 20  C 2.1692677070828332 20  1.9715886354541818 20.078125  1.857142857142857 20.234375  C 1.7426970788315326 20.401041666666668  1.7374949979991998 20.625  1.8415366146458583 20.90625  C 2.091236494597839 21.635416666666668  2.8403361344537816 22  4.088835534213685 22  L 18.493397358943575 22  C 18.79511804721889 22  19.086434573829532 21.919270833333332  19.367346938775512 21.7578125  C 19.64825930372149 21.596354166666668  19.830332132853144 21.380208333333332  19.913565426170468 21.109375  L 24.595438175270107 5.687499999999999  C 24.668267306922772 5.458333333333331  24.694277711084435 5.161458333333332  24.673469387755105 4.796874999999999  Z M 9.316926770708283 4.5  L 8.98919567827131 5.499999999999999  C 8.947579031612646 5.635416666666664  8.957983193277311 5.752604166666664  9.020408163265307 5.851562499999999  C 9.0828331332533 5.950520833333331  9.186874749899962 6  9.332533013205282 6  L 18.821128451380552 6  C 18.95638255302121 6  19.0890356142457 5.950520833333331  19.21908763505402 5.851562499999999  C 19.349139655862345 5.752604166666664  19.43497398959584 5.635416666666664  19.476590636254503 5.499999999999999  L 19.804321728691477 4.5  C 19.84593837535014 4.364583333333332  19.835534213685474 4.247395833333332  19.773109243697476 4.1484375  C 19.710684273709486 4.049479166666665  19.606642657062828 3.999999999999999  19.460984393757503 3.999999999999999  L 9.972388955582232 3.999999999999999  C 9.837134853941578 3.999999999999999  9.704481792717086 4.049479166666665  9.574429771908763 4.1484375  C 9.44437775110044 4.247395833333332  9.358543417366949 4.364583333333332  9.316926770708283 4.5  Z M 8.021608643457384 8.5  L 7.6938775510204085 9.5  C 7.6522609043617456 9.635416666666666  7.6626650660264115 9.752604166666666  7.725090036014406 9.8515625  C 7.787515006002401 9.950520833333332  7.891556622649059 10  8.037214885954382 10  L 17.52581032412965 10  C 17.66106442577031 10  17.7937174869948 9.950520833333332  17.92376950780312 9.8515625  C 18.053821528611447 9.752604166666666  18.139655862344938 9.635416666666666  18.181272509003602 9.5  L 18.509003601440575 8.5  C 18.55062024809924 8.364583333333332  18.540216086434572 8.247395833333332  18.47779111644658 8.1484375  C 18.415366146458584 8.049479166666668  18.311324529811927 8  18.1656662665066 8  L 8.677070828331333 8  C 8.541816726690676 8  8.409163665466187 8.049479166666668  8.279111644657863 8.1484375  C 8.14905962384954 8.247395833333332  8.063225290116048 8.364583333333332  8.021608643457384 8.5  Z " fill-rule="evenodd" />
    </mask>
  </defs>
  <g transform="matrix(1 0 0 1 -316 -11 )">
    <path d="M 24.673469387755105 4.796874999999999  C 25.06882753101241 4.953125000000001  25.37575030012005 5.177083333333331  25.594237695078032 5.468750000000001  C 26.010404161664663 6.062499999999999  26.104041616646658 6.734375000000001  25.87515006002401 7.484375000000001  L 21.58343337334934 21.640625  C 21.38575430172069 22.307291666666668  20.98779511804722 22.8671875  20.38955582232893 23.3203125  C 19.791316526610647 23.7734375  19.154061624649863 24  18.47779111644658 24  L 4.073229291716687 24  C 3.272108843537415 24  2.499599839935975 23.721354166666668  1.755702280912365 23.1640625  C 1.0118047218887556 22.606770833333332  0.49419767907162876 21.921875  0.2028811524609844 21.109375  C -0.0468187274909964 20.411458333333332  -0.05722288915566227 19.75  0.1716686674669868 19.125  C 0.1716686674669868 19.083333333333332  0.1872749099639856 18.942708333333332  0.2184873949579832 18.703125  C 0.24969987995198079 18.463541666666664  0.2705082032813126 18.270833333333332  0.28091236494597843 18.125  C 0.2913165266106443 18.041666666666668  0.27571028411364545 17.9296875  0.234093637454982 17.7890625  C 0.19247699079631853 17.6484375  0.17687074829931976 17.546875  0.1872749099639856 17.484375  C 0.20808323329331735 17.369791666666664  0.24969987995198079 17.260416666666664  0.312124849939976 17.15625  C 0.3745498199279712 17.05208333333333  0.46038415366146457 16.9296875  0.5696278511404562 16.7890625  C 0.6788715486194478 16.6484375  0.7647058823529411 16.526041666666664  0.8271308523409363 16.421875  C 1.0664265706282514 16.026041666666664  1.3005202080832334 15.549479166666664  1.5294117647058822 14.992187500000002  C 1.7583033213285315 14.434895833333334  1.9143657462985195 13.95833333333333  1.9975990396158463 13.562500000000002  C 2.0288115246098437 13.458333333333332  2.0314125650260104 13.30208333333333  2.005402160864346 13.093750000000002  C 1.9793917567026813 12.885416666666668  1.9767907162865146 12.73958333333333  1.9975990396158463 12.65625  C 2.0288115246098437 12.541666666666666  2.117246898759504 12.395833333333334  2.262905162064826 12.218749999999998  C 2.408563425370148 12.041666666666668  2.496998799519808 11.921875  2.5282112845138056 11.859375  C 2.746698679471789 11.484375  2.965186074429772 11.005208333333332  3.183673469387755 10.421875  C 3.4021608643457384 9.838541666666664  3.532212885154062 9.369791666666664  3.5738295318127253 9.015625  C 3.584233693477391 8.921875  3.5712284913965586 8.755208333333332  3.534813925570228 8.515625  C 3.498399359743898 8.276041666666666  3.5010004001600645 8.130208333333332  3.5426170468187275 8.078125  C 3.584233693477391 7.942708333333331  3.6986794717887155 7.783854166666663  3.8859543817527014 7.601562500000001  C 4.073229291716687 7.419270833333333  4.187675070028011 7.302083333333333  4.229291716686674 7.250000000000001  C 4.426970788315327 6.979166666666665  4.648059223689477 6.5390625  4.8925570228091235 5.9296875  C 5.137054821928771 5.3203125  5.280112044817928 4.817708333333333  5.32172869147659 4.421874999999999  C 5.332132853141257 4.338541666666663  5.316526610644258 4.205729166666664  5.2749099639855945 4.023437499999999  C 5.233293317326931 3.8411458333333313  5.222889155662266 3.703125  5.243697478991597 3.609375  C 5.264505802320929 3.5260416666666643  5.311324529811926 3.4322916666666643  5.384153661464586 3.328125  C 5.456982793117247 3.223958333333333  5.55062024809924 3.1041666666666643  5.665066026410564 2.968749999999999  C 5.779511804721889 2.8333333333333313  5.867947178871549 2.723958333333332  5.930372148859544 2.640624999999999  C 6.013605442176871 2.515625000000001  6.099439775910365 2.356770833333333  6.187875150060024 2.164062500000001  C 6.276310524209684 1.9713541666666634  6.354341736694678 1.7890625000000009  6.421968787515006 1.6171875  C 6.489595838335334 1.4453124999999991  6.572829131652663 1.2578124999999991  6.671668667466986 1.0546875  C 6.770508203281313 0.8515625000000009  6.871948779511805 0.6848958333333321  6.975990396158463 0.5546874999999991  C 7.080032012805123 0.4244791666666634  7.217887154861946 0.30208333333333126  7.389555822328932 0.1875  C 7.5612244897959195 0.07291666666666341  7.748499399759905 0.013020833333333037  7.951380552220888 0.007812500000000888  C 8.154261704681874 0.00260416666666341  8.401360544217688 0.03125000000000089  8.692677070828331 0.09375  L 8.677070828331333 0.140625  C 9.072428971588636 0.046875  9.337735094037615 0  9.472989195678272 0  L 21.349339735894358 0  C 22.119247699079633 0  22.71228491396559 0.2916666666666643  23.12845138055222 0.8750000000000009  C 23.54461784713886 1.4583333333333321  23.63825530212085 2.1354166666666634  23.4093637454982 2.90625  L 19.133253301320526 17.0625  C 18.758703481392555 18.302083333333332  18.386754701880754 19.1015625  18.017406962785113 19.4609375  C 17.64805922368948 19.8203125  16.97959183673469 20  16.012004801920767 20  L 2.450180072028812 20  C 2.1692677070828332 20  1.9715886354541818 20.078125  1.857142857142857 20.234375  C 1.7426970788315326 20.401041666666668  1.7374949979991998 20.625  1.8415366146458583 20.90625  C 2.091236494597839 21.635416666666668  2.8403361344537816 22  4.088835534213685 22  L 18.493397358943575 22  C 18.79511804721889 22  19.086434573829532 21.919270833333332  19.367346938775512 21.7578125  C 19.64825930372149 21.596354166666668  19.830332132853144 21.380208333333332  19.913565426170468 21.109375  L 24.595438175270107 5.687499999999999  C 24.668267306922772 5.458333333333331  24.694277711084435 5.161458333333332  24.673469387755105 4.796874999999999  Z M 9.316926770708283 4.5  L 8.98919567827131 5.499999999999999  C 8.947579031612646 5.635416666666664  8.957983193277311 5.752604166666664  9.020408163265307 5.851562499999999  C 9.0828331332533 5.950520833333331  9.186874749899962 6  9.332533013205282 6  L 18.821128451380552 6  C 18.95638255302121 6  19.0890356142457 5.950520833333331  19.21908763505402 5.851562499999999  C 19.349139655862345 5.752604166666664  19.43497398959584 5.635416666666664  19.476590636254503 5.499999999999999  L 19.804321728691477 4.5  C 19.84593837535014 4.364583333333332  19.835534213685474 4.247395833333332  19.773109243697476 4.1484375  C 19.710684273709486 4.049479166666665  19.606642657062828 3.999999999999999  19.460984393757503 3.999999999999999  L 9.972388955582232 3.999999999999999  C 9.837134853941578 3.999999999999999  9.704481792717086 4.049479166666665  9.574429771908763 4.1484375  C 9.44437775110044 4.247395833333332  9.358543417366949 4.364583333333332  9.316926770708283 4.5  Z M 8.021608643457384 8.5  L 7.6938775510204085 9.5  C 7.6522609043617456 9.635416666666666  7.6626650660264115 9.752604166666666  7.725090036014406 9.8515625  C 7.787515006002401 9.950520833333332  7.891556622649059 10  8.037214885954382 10  L 17.52581032412965 10  C 17.66106442577031 10  17.7937174869948 9.950520833333332  17.92376950780312 9.8515625  C 18.053821528611447 9.752604166666666  18.139655862344938 9.635416666666666  18.181272509003602 9.5  L 18.509003601440575 8.5  C 18.55062024809924 8.364583333333332  18.540216086434572 8.247395833333332  18.47779111644658 8.1484375  C 18.415366146458584 8.049479166666668  18.311324529811927 8  18.1656662665066 8  L 8.677070828331333 8  C 8.541816726690676 8  8.409163665466187 8.049479166666668  8.279111644657863 8.1484375  C 8.14905962384954 8.247395833333332  8.063225290116048 8.364583333333332  8.021608643457384 8.5  Z " fill-rule="nonzero" fill="rgba(255, 255, 255, 1)" stroke="none" transform="matrix(1 0 0 1 316 11 )" class="fill" />
    <path d="M 24.673469387755105 4.796874999999999  C 25.06882753101241 4.953125000000001  25.37575030012005 5.177083333333331  25.594237695078032 5.468750000000001  C 26.010404161664663 6.062499999999999  26.104041616646658 6.734375000000001  25.87515006002401 7.484375000000001  L 21.58343337334934 21.640625  C 21.38575430172069 22.307291666666668  20.98779511804722 22.8671875  20.38955582232893 23.3203125  C 19.791316526610647 23.7734375  19.154061624649863 24  18.47779111644658 24  L 4.073229291716687 24  C 3.272108843537415 24  2.499599839935975 23.721354166666668  1.755702280912365 23.1640625  C 1.0118047218887556 22.606770833333332  0.49419767907162876 21.921875  0.2028811524609844 21.109375  C -0.0468187274909964 20.411458333333332  -0.05722288915566227 19.75  0.1716686674669868 19.125  C 0.1716686674669868 19.083333333333332  0.1872749099639856 18.942708333333332  0.2184873949579832 18.703125  C 0.24969987995198079 18.463541666666664  0.2705082032813126 18.270833333333332  0.28091236494597843 18.125  C 0.2913165266106443 18.041666666666668  0.27571028411364545 17.9296875  0.234093637454982 17.7890625  C 0.19247699079631853 17.6484375  0.17687074829931976 17.546875  0.1872749099639856 17.484375  C 0.20808323329331735 17.369791666666664  0.24969987995198079 17.260416666666664  0.312124849939976 17.15625  C 0.3745498199279712 17.05208333333333  0.46038415366146457 16.9296875  0.5696278511404562 16.7890625  C 0.6788715486194478 16.6484375  0.7647058823529411 16.526041666666664  0.8271308523409363 16.421875  C 1.0664265706282514 16.026041666666664  1.3005202080832334 15.549479166666664  1.5294117647058822 14.992187500000002  C 1.7583033213285315 14.434895833333334  1.9143657462985195 13.95833333333333  1.9975990396158463 13.562500000000002  C 2.0288115246098437 13.458333333333332  2.0314125650260104 13.30208333333333  2.005402160864346 13.093750000000002  C 1.9793917567026813 12.885416666666668  1.9767907162865146 12.73958333333333  1.9975990396158463 12.65625  C 2.0288115246098437 12.541666666666666  2.117246898759504 12.395833333333334  2.262905162064826 12.218749999999998  C 2.408563425370148 12.041666666666668  2.496998799519808 11.921875  2.5282112845138056 11.859375  C 2.746698679471789 11.484375  2.965186074429772 11.005208333333332  3.183673469387755 10.421875  C 3.4021608643457384 9.838541666666664  3.532212885154062 9.369791666666664  3.5738295318127253 9.015625  C 3.584233693477391 8.921875  3.5712284913965586 8.755208333333332  3.534813925570228 8.515625  C 3.498399359743898 8.276041666666666  3.5010004001600645 8.130208333333332  3.5426170468187275 8.078125  C 3.584233693477391 7.942708333333331  3.6986794717887155 7.783854166666663  3.8859543817527014 7.601562500000001  C 4.073229291716687 7.419270833333333  4.187675070028011 7.302083333333333  4.229291716686674 7.250000000000001  C 4.426970788315327 6.979166666666665  4.648059223689477 6.5390625  4.8925570228091235 5.9296875  C 5.137054821928771 5.3203125  5.280112044817928 4.817708333333333  5.32172869147659 4.421874999999999  C 5.332132853141257 4.338541666666663  5.316526610644258 4.205729166666664  5.2749099639855945 4.023437499999999  C 5.233293317326931 3.8411458333333313  5.222889155662266 3.703125  5.243697478991597 3.609375  C 5.264505802320929 3.5260416666666643  5.311324529811926 3.4322916666666643  5.384153661464586 3.328125  C 5.456982793117247 3.223958333333333  5.55062024809924 3.1041666666666643  5.665066026410564 2.968749999999999  C 5.779511804721889 2.8333333333333313  5.867947178871549 2.723958333333332  5.930372148859544 2.640624999999999  C 6.013605442176871 2.515625000000001  6.099439775910365 2.356770833333333  6.187875150060024 2.164062500000001  C 6.276310524209684 1.9713541666666634  6.354341736694678 1.7890625000000009  6.421968787515006 1.6171875  C 6.489595838335334 1.4453124999999991  6.572829131652663 1.2578124999999991  6.671668667466986 1.0546875  C 6.770508203281313 0.8515625000000009  6.871948779511805 0.6848958333333321  6.975990396158463 0.5546874999999991  C 7.080032012805123 0.4244791666666634  7.217887154861946 0.30208333333333126  7.389555822328932 0.1875  C 7.5612244897959195 0.07291666666666341  7.748499399759905 0.013020833333333037  7.951380552220888 0.007812500000000888  C 8.154261704681874 0.00260416666666341  8.401360544217688 0.03125000000000089  8.692677070828331 0.09375  L 8.677070828331333 0.140625  C 9.072428971588636 0.046875  9.337735094037615 0  9.472989195678272 0  L 21.349339735894358 0  C 22.119247699079633 0  22.71228491396559 0.2916666666666643  23.12845138055222 0.8750000000000009  C 23.54461784713886 1.4583333333333321  23.63825530212085 2.1354166666666634  23.4093637454982 2.90625  L 19.133253301320526 17.0625  C 18.758703481392555 18.302083333333332  18.386754701880754 19.1015625  18.017406962785113 19.4609375  C 17.64805922368948 19.8203125  16.97959183673469 20  16.012004801920767 20  L 2.450180072028812 20  C 2.1692677070828332 20  1.9715886354541818 20.078125  1.857142857142857 20.234375  C 1.7426970788315326 20.401041666666668  1.7374949979991998 20.625  1.8415366146458583 20.90625  C 2.091236494597839 21.635416666666668  2.8403361344537816 22  4.088835534213685 22  L 18.493397358943575 22  C 18.79511804721889 22  19.086434573829532 21.919270833333332  19.367346938775512 21.7578125  C 19.64825930372149 21.596354166666668  19.830332132853144 21.380208333333332  19.913565426170468 21.109375  L 24.595438175270107 5.687499999999999  C 24.668267306922772 5.458333333333331  24.694277711084435 5.161458333333332  24.673469387755105 4.796874999999999  Z " stroke-width="0" stroke-dasharray="0" stroke="rgba(255, 255, 255, 0)" fill="none" transform="matrix(1 0 0 1 316 11 )" class="stroke" mask="url(#Clip13)" />
    <path d="M 9.316926770708283 4.5  L 8.98919567827131 5.499999999999999  C 8.947579031612646 5.635416666666664  8.957983193277311 5.752604166666664  9.020408163265307 5.851562499999999  C 9.0828331332533 5.950520833333331  9.186874749899962 6  9.332533013205282 6  L 18.821128451380552 6  C 18.95638255302121 6  19.0890356142457 5.950520833333331  19.21908763505402 5.851562499999999  C 19.349139655862345 5.752604166666664  19.43497398959584 5.635416666666664  19.476590636254503 5.499999999999999  L 19.804321728691477 4.5  C 19.84593837535014 4.364583333333332  19.835534213685474 4.247395833333332  19.773109243697476 4.1484375  C 19.710684273709486 4.049479166666665  19.606642657062828 3.999999999999999  19.460984393757503 3.999999999999999  L 9.972388955582232 3.999999999999999  C 9.837134853941578 3.999999999999999  9.704481792717086 4.049479166666665  9.574429771908763 4.1484375  C 9.44437775110044 4.247395833333332  9.358543417366949 4.364583333333332  9.316926770708283 4.5  Z " stroke-width="0" stroke-dasharray="0" stroke="rgba(255, 255, 255, 0)" fill="none" transform="matrix(1 0 0 1 316 11 )" class="stroke" mask="url(#Clip13)" />
    <path d="M 8.021608643457384 8.5  L 7.6938775510204085 9.5  C 7.6522609043617456 9.635416666666666  7.6626650660264115 9.752604166666666  7.725090036014406 9.8515625  C 7.787515006002401 9.950520833333332  7.891556622649059 10  8.037214885954382 10  L 17.52581032412965 10  C 17.66106442577031 10  17.7937174869948 9.950520833333332  17.92376950780312 9.8515625  C 18.053821528611447 9.752604166666666  18.139655862344938 9.635416666666666  18.181272509003602 9.5  L 18.509003601440575 8.5  C 18.55062024809924 8.364583333333332  18.540216086434572 8.247395833333332  18.47779111644658 8.1484375  C 18.415366146458584 8.049479166666668  18.311324529811927 8  18.1656662665066 8  L 8.677070828331333 8  C 8.541816726690676 8  8.409163665466187 8.049479166666668  8.279111644657863 8.1484375  C 8.14905962384954 8.247395833333332  8.063225290116048 8.364583333333332  8.021608643457384 8.5  Z " stroke-width="0" stroke-dasharray="0" stroke="rgba(255, 255, 255, 0)" fill="none" transform="matrix(1 0 0 1 316 11 )" class="stroke" mask="url(#Clip13)" />
  </g>
</svg>