<?xml version="1.0" encoding="utf-8"?>
<svg version="1.1" xmlns:xlink="http://www.w3.org/1999/xlink" width="11px" height="11px" xmlns="http://www.w3.org/2000/svg">
  <defs>
    <pattern id="BGPattern" patternUnits="userSpaceOnUse" alignment="0 0" imageRepeat="None" />
    <mask fill="white" id="Clip22">
      <path d="M 7.516225961538462 6.737240075614368  L 7.84014423076923 6.411468178954001  L 9.5390625 4.678638941398865  L 7.185697115384615 4.318210459987398  L 6.749399038461538 4.248897290485192  L 6.55108173076923 3.8330182734719593  L 5.5 1.6011342155009447  L 5.5 8.275992438563327  L 5.890024038461538 8.490863264020163  L 7.9921875 9.655324511657215  L 7.595552884615385 7.194706994328923  L 7.516225961538462 6.737240075614368  Z M 10.986778846153845 4.183049779458097  C 11.026442307692308 4.310123923545473  10.973557692307693 4.44759504305818  10.828125 4.595463137996219  L 8.428485576923077 7.049149338374291  L 8.996995192307692 10.51480781348456  C 9.019030448717949 10.667296786389414  9.005809294871796 10.786284394034867  8.95733173076923 10.87177063642092  C 8.908854166666668 10.957256878806973  8.833934294871796 11  8.732572115384615 11  C 8.657652243589745 11  8.569511217948719 10.972274732199118  8.468149038461538 10.916824196597354  L 5.5 9.281033396345306  L 2.5318509615384612 10.916824196597354  C 2.4304887820512824 10.972274732199118  2.342347756410257 11  2.2674278846153846 11  C 2.1660657051282053 11  2.0911458333333335 10.957256878806973  2.042668269230769 10.87177063642092  C 1.9941907051282053 10.786284394034867  1.9809695512820513 10.667296786389414  2.0030048076923075 10.51480781348456  L 2.571514423076923 7.049149338374291  L 0.16526442307692307 4.595463137996219  C 0.02423878205128204 4.44759504305818  -0.026442307692307696 4.310123923545473  0.013221153846153848 4.183049779458097  C 0.05288461538461539 4.05597563537072  0.171875 3.9762654904431844  0.37019230769230765 3.9439193446754883  L 3.688701923076923 3.4379332073093885  L 5.176081730769231 0.2841839949590417  C 5.264222756410257 0.09472799831968015  5.372195512820514 0  5.5 0  C 5.623397435897437 0  5.7313701923076925 0.09472799831968015  5.82391826923077 0.2841839949590417  L 7.3112980769230775 3.4379332073093885  L 10.629807692307692 3.9439193446754883  C 10.828125000000002 3.9762654904431844  10.947115384615387 4.05597563537072  10.986778846153845 4.183049779458097  Z " fill-rule="evenodd" />
    </mask>
  </defs>
  <g transform="matrix(1 0 0 1 -52 0 )">
    <path d="M 7.516225961538462 6.737240075614368  L 7.84014423076923 6.411468178954001  L 9.5390625 4.678638941398865  L 7.185697115384615 4.318210459987398  L 6.749399038461538 4.248897290485192  L 6.55108173076923 3.8330182734719593  L 5.5 1.6011342155009447  L 5.5 8.275992438563327  L 5.890024038461538 8.490863264020163  L 7.9921875 9.655324511657215  L 7.595552884615385 7.194706994328923  L 7.516225961538462 6.737240075614368  Z M 10.986778846153845 4.183049779458097  C 11.026442307692308 4.310123923545473  10.973557692307693 4.44759504305818  10.828125 4.595463137996219  L 8.428485576923077 7.049149338374291  L 8.996995192307692 10.51480781348456  C 9.019030448717949 10.667296786389414  9.005809294871796 10.786284394034867  8.95733173076923 10.87177063642092  C 8.908854166666668 10.957256878806973  8.833934294871796 11  8.732572115384615 11  C 8.657652243589745 11  8.569511217948719 10.972274732199118  8.468149038461538 10.916824196597354  L 5.5 9.281033396345306  L 2.5318509615384612 10.916824196597354  C 2.4304887820512824 10.972274732199118  2.342347756410257 11  2.2674278846153846 11  C 2.1660657051282053 11  2.0911458333333335 10.957256878806973  2.042668269230769 10.87177063642092  C 1.9941907051282053 10.786284394034867  1.9809695512820513 10.667296786389414  2.0030048076923075 10.51480781348456  L 2.571514423076923 7.049149338374291  L 0.16526442307692307 4.595463137996219  C 0.02423878205128204 4.44759504305818  -0.026442307692307696 4.310123923545473  0.013221153846153848 4.183049779458097  C 0.05288461538461539 4.05597563537072  0.171875 3.9762654904431844  0.37019230769230765 3.9439193446754883  L 3.688701923076923 3.4379332073093885  L 5.176081730769231 0.2841839949590417  C 5.264222756410257 0.09472799831968015  5.372195512820514 0  5.5 0  C 5.623397435897437 0  5.7313701923076925 0.09472799831968015  5.82391826923077 0.2841839949590417  L 7.3112980769230775 3.4379332073093885  L 10.629807692307692 3.9439193446754883  C 10.828125000000002 3.9762654904431844  10.947115384615387 4.05597563537072  10.986778846153845 4.183049779458097  Z " fill-rule="nonzero" fill="rgba(0, 0, 0, 1)" stroke="none" transform="matrix(1 0 0 1 52 0 )" class="fill" />
    <path d="M 7.516225961538462 6.737240075614368  L 7.84014423076923 6.411468178954001  L 9.5390625 4.678638941398865  L 7.185697115384615 4.318210459987398  L 6.749399038461538 4.248897290485192  L 6.55108173076923 3.8330182734719593  L 5.5 1.6011342155009447  L 5.5 8.275992438563327  L 5.890024038461538 8.490863264020163  L 7.9921875 9.655324511657215  L 7.595552884615385 7.194706994328923  L 7.516225961538462 6.737240075614368  Z " stroke-width="0" stroke-dasharray="0" stroke="rgba(255, 255, 255, 0)" fill="none" transform="matrix(1 0 0 1 52 0 )" class="stroke" mask="url(#Clip22)" />
    <path d="M 10.986778846153845 4.183049779458097  C 11.026442307692308 4.310123923545473  10.973557692307693 4.44759504305818  10.828125 4.595463137996219  L 8.428485576923077 7.049149338374291  L 8.996995192307692 10.51480781348456  C 9.019030448717949 10.667296786389414  9.005809294871796 10.786284394034867  8.95733173076923 10.87177063642092  C 8.908854166666668 10.957256878806973  8.833934294871796 11  8.732572115384615 11  C 8.657652243589745 11  8.569511217948719 10.972274732199118  8.468149038461538 10.916824196597354  L 5.5 9.281033396345306  L 2.5318509615384612 10.916824196597354  C 2.4304887820512824 10.972274732199118  2.342347756410257 11  2.2674278846153846 11  C 2.1660657051282053 11  2.0911458333333335 10.957256878806973  2.042668269230769 10.87177063642092  C 1.9941907051282053 10.786284394034867  1.9809695512820513 10.667296786389414  2.0030048076923075 10.51480781348456  L 2.571514423076923 7.049149338374291  L 0.16526442307692307 4.595463137996219  C 0.02423878205128204 4.44759504305818  -0.026442307692307696 4.310123923545473  0.013221153846153848 4.183049779458097  C 0.05288461538461539 4.05597563537072  0.171875 3.9762654904431844  0.37019230769230765 3.9439193446754883  L 3.688701923076923 3.4379332073093885  L 5.176081730769231 0.2841839949590417  C 5.264222756410257 0.09472799831968015  5.372195512820514 0  5.5 0  C 5.623397435897437 0  5.7313701923076925 0.09472799831968015  5.82391826923077 0.2841839949590417  L 7.3112980769230775 3.4379332073093885  L 10.629807692307692 3.9439193446754883  C 10.828125000000002 3.9762654904431844  10.947115384615387 4.05597563537072  10.986778846153845 4.183049779458097  Z " stroke-width="0" stroke-dasharray="0" stroke="rgba(255, 255, 255, 0)" fill="none" transform="matrix(1 0 0 1 52 0 )" class="stroke" mask="url(#Clip22)" />
  </g>
</svg>