<?xml version="1.0" encoding="utf-8"?>
<svg version="1.1" xmlns:xlink="http://www.w3.org/1999/xlink" width="18px" height="24px" xmlns="http://www.w3.org/2000/svg">
  <defs>
    <pattern id="BGPattern" patternUnits="userSpaceOnUse" alignment="0 0" imageRepeat="None" />
    <mask fill="white" id="Clip24">
      <path d="M 1.6312499999999999 0  L 16.368750000000002 0  C 16.584375 0  16.790625000000002 0.04758757435558536  16.9875 0.14276272306675608  C 17.296875 0.28023793787177453  17.54296875 0.4970257766027748  17.72578125 0.7931262392597489  C 17.908593749999998 1.0892267019167203  18 1.4170522141440829  18 1.7766027759418366  L 18 22.223397224058164  C 18 22.582947785855918  17.908593749999998 22.910773298083278  17.72578125 23.20687376074025  C 17.54296875 23.502974223397224  17.296875 23.71976206212822  16.9875 23.857237276933244  C 16.809375000000003 23.94183740912095  16.603125000000002 23.984137475214805  16.368750000000002 23.984137475214805  C 15.918750000000001 23.984137475214805  15.529687500000003 23.81493721083939  15.2015625 23.476536682088565  L 9 16.750826173165894  L 2.7984375 23.476536682088565  C 2.4609375 23.825512227362857  2.0718750000000004 24  1.6312499999999999 24  C 1.415625 24  1.2093749999999999 23.952412425644415  1.0125 23.857237276933244  C 0.703125 23.71976206212822  0.45703125 23.502974223397224  0.27421875 23.20687376074025  C 0.09140625000000001 22.910773298083278  0 22.582947785855918  0 22.223397224058164  L 0 1.7766027759418366  C 0 1.4170522141440829  0.09140625000000001 1.0892267019167203  0.27421875 0.7931262392597489  C 0.45703125 0.4970257766027748  0.703125 0.28023793787177453  1.0125 0.14276272306675608  C 1.2093749999999999 0.04758757435558536  1.415625 0  1.6312499999999999 0  Z " fill-rule="evenodd" />
    </mask>
  </defs>
  <g transform="matrix(1 0 0 1 -144 -12 )">
    <path d="M 1.6312499999999999 0  L 16.368750000000002 0  C 16.584375 0  16.790625000000002 0.04758757435558536  16.9875 0.14276272306675608  C 17.296875 0.28023793787177453  17.54296875 0.4970257766027748  17.72578125 0.7931262392597489  C 17.908593749999998 1.0892267019167203  18 1.4170522141440829  18 1.7766027759418366  L 18 22.223397224058164  C 18 22.582947785855918  17.908593749999998 22.910773298083278  17.72578125 23.20687376074025  C 17.54296875 23.502974223397224  17.296875 23.71976206212822  16.9875 23.857237276933244  C 16.809375000000003 23.94183740912095  16.603125000000002 23.984137475214805  16.368750000000002 23.984137475214805  C 15.918750000000001 23.984137475214805  15.529687500000003 23.81493721083939  15.2015625 23.476536682088565  L 9 16.750826173165894  L 2.7984375 23.476536682088565  C 2.4609375 23.825512227362857  2.0718750000000004 24  1.6312499999999999 24  C 1.415625 24  1.2093749999999999 23.952412425644415  1.0125 23.857237276933244  C 0.703125 23.71976206212822  0.45703125 23.502974223397224  0.27421875 23.20687376074025  C 0.09140625000000001 22.910773298083278  0 22.582947785855918  0 22.223397224058164  L 0 1.7766027759418366  C 0 1.4170522141440829  0.09140625000000001 1.0892267019167203  0.27421875 0.7931262392597489  C 0.45703125 0.4970257766027748  0.703125 0.28023793787177453  1.0125 0.14276272306675608  C 1.2093749999999999 0.04758757435558536  1.415625 0  1.6312499999999999 0  Z " fill-rule="nonzero" fill="rgba(2, 151, 215, 1)" stroke="none" transform="matrix(1 0 0 1 144 12 )" class="fill" />
    <path d="M 1.6312499999999999 0  L 16.368750000000002 0  C 16.584375 0  16.790625000000002 0.04758757435558536  16.9875 0.14276272306675608  C 17.296875 0.28023793787177453  17.54296875 0.4970257766027748  17.72578125 0.7931262392597489  C 17.908593749999998 1.0892267019167203  18 1.4170522141440829  18 1.7766027759418366  L 18 22.223397224058164  C 18 22.582947785855918  17.908593749999998 22.910773298083278  17.72578125 23.20687376074025  C 17.54296875 23.502974223397224  17.296875 23.71976206212822  16.9875 23.857237276933244  C 16.809375000000003 23.94183740912095  16.603125000000002 23.984137475214805  16.368750000000002 23.984137475214805  C 15.918750000000001 23.984137475214805  15.529687500000003 23.81493721083939  15.2015625 23.476536682088565  L 9 16.750826173165894  L 2.7984375 23.476536682088565  C 2.4609375 23.825512227362857  2.0718750000000004 24  1.6312499999999999 24  C 1.415625 24  1.2093749999999999 23.952412425644415  1.0125 23.857237276933244  C 0.703125 23.71976206212822  0.45703125 23.502974223397224  0.27421875 23.20687376074025  C 0.09140625000000001 22.910773298083278  0 22.582947785855918  0 22.223397224058164  L 0 1.7766027759418366  C 0 1.4170522141440829  0.09140625000000001 1.0892267019167203  0.27421875 0.7931262392597489  C 0.45703125 0.4970257766027748  0.703125 0.28023793787177453  1.0125 0.14276272306675608  C 1.2093749999999999 0.04758757435558536  1.415625 0  1.6312499999999999 0  Z " stroke-width="0" stroke-dasharray="0" stroke="rgba(255, 255, 255, 0)" fill="none" transform="matrix(1 0 0 1 144 12 )" class="stroke" mask="url(#Clip24)" />
  </g>
</svg>