<?xml version="1.0" encoding="utf-8"?>
<svg version="1.1" xmlns:xlink="http://www.w3.org/1999/xlink" width="16px" height="16px" xmlns="http://www.w3.org/2000/svg">
  <defs>
    <pattern id="BGPattern" patternUnits="userSpaceOnUse" alignment="0 0" imageRepeat="None" />
    <mask fill="white" id="Clip5">
      <path d="M 15.183673469387756 3.197916666666666  C 15.426970788315328 3.302083333333334  15.615846338535414 3.4513888888888875  15.750300120048019 3.645833333333334  C 16.00640256102441 4.041666666666666  16.064025610244098 4.489583333333334  15.923169267707083 4.989583333333334  L 13.282112845138055 14.427083333333334  C 13.160464185674272 14.871527777777779  12.915566226490597 15.244791666666666  12.547418967587035 15.546875  C 12.179271708683475 15.848958333333334  11.787114845938376 16  11.370948379351741 16  L 2.5066026410564226 16  C 2.0136054421768708 16  1.538215286114446 15.814236111111112  1.0804321728691477 15.442708333333334  C 0.6226490596238496 15.071180555555555  0.30412164865946384 14.614583333333334  0.12484993997599039 14.072916666666666  C -0.028811524609843937 13.607638888888888  -0.035214085634253704 13.166666666666666  0.1056422569027611 12.75  C 0.1056422569027611 12.722222222222221  0.11524609843937575 12.628472222222221  0.13445378151260504 12.46875  C 0.15366146458583432 12.309027777777777  0.16646658663465388 12.180555555555555  0.17286914765906364 12.083333333333334  C 0.1792717086834734 12.027777777777779  0.16966786714685875 11.953125  0.14405762304921968 11.859375  C 0.11844737895158064 11.765625  0.108843537414966 11.697916666666668  0.11524609843937575 11.65625  C 0.12805122048819528 11.57986111111111  0.15366146458583432 11.506944444444443  0.19207683073229292 11.4375  C 0.2304921968787515 11.368055555555554  0.28331332533013204 11.286458333333332  0.3505402160864346 11.192708333333332  C 0.4177671068427371 11.098958333333332  0.47058823529411764 11.01736111111111  0.5090036014405762 10.947916666666668  C 0.6562625050020009 10.684027777777775  0.8003201280512205 10.366319444444443  0.9411764705882353 9.994791666666668  C 1.0820328131252501 9.62326388888889  1.1780712284913966 9.305555555555554  1.2292917166866746 9.041666666666668  C 1.2484993997599039 8.972222222222221  1.2501000400160065 8.868055555555554  1.234093637454982 8.729166666666668  C 1.2180872348939578 8.590277777777779  1.2164865946378551 8.493055555555554  1.2292917166866746 8.4375  C 1.2484993997599039 8.36111111111111  1.3029211684673871 8.26388888888889  1.3925570228091237 8.145833333333332  C 1.4821928771508603 8.027777777777779  1.5366146458583434 7.947916666666666  1.5558223289315727 7.90625  C 1.6902761104441777 7.65625  1.8247298919567827 7.336805555555555  1.9591836734693877 6.947916666666666  C 2.0936374549819927 6.559027777777777  2.173669467787115 6.246527777777777  2.199279711884754 6.010416666666666  C 2.2056822729091636 5.947916666666666  2.1976790716286514 5.836805555555555  2.1752701080432173 5.677083333333334  C 2.152861144457783 5.517361111111111  2.154461784713886 5.4201388888888875  2.1800720288115247 5.385416666666666  C 2.2056822729091636 5.2951388888888875  2.276110444177671 5.189236111111109  2.391356542617047 5.067708333333334  C 2.5066026410564226 4.946180555555555  2.57703081232493 4.868055555555555  2.602641056422569 4.833333333333334  C 2.724289715886355 4.652777777777777  2.8603441376550625 4.359375  3.0108043217286915 3.953125  C 3.161264505802321 3.546875  3.2492997198879556 3.2118055555555554  3.274909963985594 2.947916666666666  C 3.281312525010004 2.892361111111109  3.2717086834733897 2.803819444444443  3.2460984393757504 2.682291666666666  C 3.2204881952781115 2.5607638888888875  3.214085634253702 2.46875  3.226890756302521 2.40625  C 3.2396958783513408 2.350694444444443  3.268507402961185 2.288194444444443  3.3133253301320527 2.21875  C 3.3581432573029213 2.1493055555555554  3.415766306522609 2.069444444444443  3.4861944777911162 1.979166666666666  C 3.556622649059624 1.8888888888888875  3.611044417767107 1.8159722222222214  3.6494597839135654 1.760416666666666  C 3.700680272108844 1.677083333333334  3.7535014005602245 1.5711805555555554  3.807923169267707 1.442708333333334  C 3.86234493797519 1.314236111111109  3.9103641456582636 1.192708333333334  3.9519807923169266 1.078125  C 3.9935974389755904 0.9635416666666661  4.044817927170869 0.8385416666666661  4.105642256902761 0.703125  C 4.166466586634654 0.5677083333333339  4.228891556622649 0.45659722222222143  4.292917166866746 0.3697916666666661  C 4.356942777110845 0.28298611111110894  4.441776710684274 0.2013888888888875  4.547418967587035 0.125  C 4.653061224489797 0.04861111111110894  4.768307322929172 0.008680555555555358  4.893157262905162 0.0052083333333339255  C 5.018007202881153 0.00173611111110894  5.170068027210885 0.020833333333333925  5.3493397358943575 0.0625  L 5.3397358943577435 0.09375  C 5.583033213285314 0.03125  5.746298519407763 0  5.82953181272509 0  L 13.138055222088836 0  C 13.61184473789516 0  13.976790716286516 0.19444444444444287  14.232893157262906 0.5833333333333339  C 14.488995598239297 0.9722222222222214  14.546618647458985 1.423611111111109  14.40576230492197 1.9375  L 11.774309723889555 11.375  C 11.543817527010804 12.201388888888888  11.314925970388156 12.734375  11.087635054021609 12.973958333333334  C 10.860344137655064 13.213541666666666  10.448979591836734 13.333333333333334  9.853541416566626 13.333333333333334  L 1.5078031212484995 13.333333333333334  C 1.3349339735894359 13.333333333333334  1.2132853141256503 13.385416666666666  1.1428571428571428 13.489583333333334  C 1.0724289715886355 13.600694444444445  1.0692276910764307 13.75  1.1332533013205282 13.9375  C 1.2869147659063624 14.423611111111112  1.7478991596638656 14.666666666666666  2.516206482593037 14.666666666666666  L 11.380552220888354 14.666666666666666  C 11.56622649059624 14.666666666666666  11.745498199279712 14.612847222222221  11.918367346938776 14.505208333333334  C 12.091236494597839 14.397569444444445  12.20328131252501 14.253472222222221  12.254501800720288 14.072916666666666  L 15.135654261704682 3.791666666666666  C 15.180472188875552 3.6388888888888875  15.196478591436575 3.4409722222222214  15.183673469387756 3.197916666666666  Z M 5.733493397358943 3  L 5.531812725090036 3.666666666666666  C 5.506202480992397 3.756944444444443  5.512605042016807 3.835069444444443  5.551020408163265 3.901041666666666  C 5.589435774309724 3.9670138888888875  5.653461384553823 4  5.743097238895558 4  L 11.582232893157263 4  C 11.66546618647459 4  11.747098839535814 3.9670138888888875  11.827130852340936 3.901041666666666  C 11.90716286514606 3.835069444444443  11.95998399359744 3.756944444444443  11.985594237695079 3.666666666666666  L 12.187274909963985 3  C 12.212885154061626 2.9097222222222214  12.206482593037215 2.8315972222222214  12.168067226890756 2.765625  C 12.129651860744298 2.699652777777777  12.065626250500202 2.666666666666666  11.975990396158464 2.666666666666666  L 6.136854741896759 2.666666666666666  C 6.053621448579432 2.666666666666666  5.971988795518207 2.699652777777777  5.891956782713085 2.765625  C 5.8119247699079635 2.8315972222222214  5.7591036414565835 2.9097222222222214  5.733493397358943 3  Z M 4.936374549819928 5.666666666666666  L 4.73469387755102 6.333333333333334  C 4.709083633453382 6.423611111111111  4.7154861944777915 6.501736111111111  4.75390156062425 6.567708333333334  C 4.792316926770709 6.633680555555555  4.856342537014806 6.666666666666666  4.945978391356543 6.666666666666666  L 10.785114045618247 6.666666666666666  C 10.868347338935575 6.666666666666666  10.9499799919968 6.633680555555555  11.03001200480192 6.567708333333334  C 11.110044017607045 6.501736111111111  11.162865146058424 6.423611111111111  11.188475390156063 6.333333333333334  L 11.39015606242497 5.666666666666666  C 11.41576630652261 5.5763888888888875  11.409363745498199 5.4982638888888875  11.370948379351741 5.432291666666666  C 11.332533013205282 5.366319444444445  11.268507402961186 5.333333333333334  11.178871548619448 5.333333333333334  L 5.3397358943577435 5.333333333333334  C 5.256502601040417 5.333333333333334  5.174869947979192 5.366319444444445  5.09483793517407 5.432291666666666  C 5.014805922368948 5.4982638888888875  4.961984793917567 5.5763888888888875  4.936374549819928 5.666666666666666  Z " fill-rule="evenodd" />
    </mask>
  </defs>
  <g transform="matrix(1 0 0 1 -24 -200 )">
    <path d="M 15.183673469387756 3.197916666666666  C 15.426970788315328 3.302083333333334  15.615846338535414 3.4513888888888875  15.750300120048019 3.645833333333334  C 16.00640256102441 4.041666666666666  16.064025610244098 4.489583333333334  15.923169267707083 4.989583333333334  L 13.282112845138055 14.427083333333334  C 13.160464185674272 14.871527777777779  12.915566226490597 15.244791666666666  12.547418967587035 15.546875  C 12.179271708683475 15.848958333333334  11.787114845938376 16  11.370948379351741 16  L 2.5066026410564226 16  C 2.0136054421768708 16  1.538215286114446 15.814236111111112  1.0804321728691477 15.442708333333334  C 0.6226490596238496 15.071180555555555  0.30412164865946384 14.614583333333334  0.12484993997599039 14.072916666666666  C -0.028811524609843937 13.607638888888888  -0.035214085634253704 13.166666666666666  0.1056422569027611 12.75  C 0.1056422569027611 12.722222222222221  0.11524609843937575 12.628472222222221  0.13445378151260504 12.46875  C 0.15366146458583432 12.309027777777777  0.16646658663465388 12.180555555555555  0.17286914765906364 12.083333333333334  C 0.1792717086834734 12.027777777777779  0.16966786714685875 11.953125  0.14405762304921968 11.859375  C 0.11844737895158064 11.765625  0.108843537414966 11.697916666666668  0.11524609843937575 11.65625  C 0.12805122048819528 11.57986111111111  0.15366146458583432 11.506944444444443  0.19207683073229292 11.4375  C 0.2304921968787515 11.368055555555554  0.28331332533013204 11.286458333333332  0.3505402160864346 11.192708333333332  C 0.4177671068427371 11.098958333333332  0.47058823529411764 11.01736111111111  0.5090036014405762 10.947916666666668  C 0.6562625050020009 10.684027777777775  0.8003201280512205 10.366319444444443  0.9411764705882353 9.994791666666668  C 1.0820328131252501 9.62326388888889  1.1780712284913966 9.305555555555554  1.2292917166866746 9.041666666666668  C 1.2484993997599039 8.972222222222221  1.2501000400160065 8.868055555555554  1.234093637454982 8.729166666666668  C 1.2180872348939578 8.590277777777779  1.2164865946378551 8.493055555555554  1.2292917166866746 8.4375  C 1.2484993997599039 8.36111111111111  1.3029211684673871 8.26388888888889  1.3925570228091237 8.145833333333332  C 1.4821928771508603 8.027777777777779  1.5366146458583434 7.947916666666666  1.5558223289315727 7.90625  C 1.6902761104441777 7.65625  1.8247298919567827 7.336805555555555  1.9591836734693877 6.947916666666666  C 2.0936374549819927 6.559027777777777  2.173669467787115 6.246527777777777  2.199279711884754 6.010416666666666  C 2.2056822729091636 5.947916666666666  2.1976790716286514 5.836805555555555  2.1752701080432173 5.677083333333334  C 2.152861144457783 5.517361111111111  2.154461784713886 5.4201388888888875  2.1800720288115247 5.385416666666666  C 2.2056822729091636 5.2951388888888875  2.276110444177671 5.189236111111109  2.391356542617047 5.067708333333334  C 2.5066026410564226 4.946180555555555  2.57703081232493 4.868055555555555  2.602641056422569 4.833333333333334  C 2.724289715886355 4.652777777777777  2.8603441376550625 4.359375  3.0108043217286915 3.953125  C 3.161264505802321 3.546875  3.2492997198879556 3.2118055555555554  3.274909963985594 2.947916666666666  C 3.281312525010004 2.892361111111109  3.2717086834733897 2.803819444444443  3.2460984393757504 2.682291666666666  C 3.2204881952781115 2.5607638888888875  3.214085634253702 2.46875  3.226890756302521 2.40625  C 3.2396958783513408 2.350694444444443  3.268507402961185 2.288194444444443  3.3133253301320527 2.21875  C 3.3581432573029213 2.1493055555555554  3.415766306522609 2.069444444444443  3.4861944777911162 1.979166666666666  C 3.556622649059624 1.8888888888888875  3.611044417767107 1.8159722222222214  3.6494597839135654 1.760416666666666  C 3.700680272108844 1.677083333333334  3.7535014005602245 1.5711805555555554  3.807923169267707 1.442708333333334  C 3.86234493797519 1.314236111111109  3.9103641456582636 1.192708333333334  3.9519807923169266 1.078125  C 3.9935974389755904 0.9635416666666661  4.044817927170869 0.8385416666666661  4.105642256902761 0.703125  C 4.166466586634654 0.5677083333333339  4.228891556622649 0.45659722222222143  4.292917166866746 0.3697916666666661  C 4.356942777110845 0.28298611111110894  4.441776710684274 0.2013888888888875  4.547418967587035 0.125  C 4.653061224489797 0.04861111111110894  4.768307322929172 0.008680555555555358  4.893157262905162 0.0052083333333339255  C 5.018007202881153 0.00173611111110894  5.170068027210885 0.020833333333333925  5.3493397358943575 0.0625  L 5.3397358943577435 0.09375  C 5.583033213285314 0.03125  5.746298519407763 0  5.82953181272509 0  L 13.138055222088836 0  C 13.61184473789516 0  13.976790716286516 0.19444444444444287  14.232893157262906 0.5833333333333339  C 14.488995598239297 0.9722222222222214  14.546618647458985 1.423611111111109  14.40576230492197 1.9375  L 11.774309723889555 11.375  C 11.543817527010804 12.201388888888888  11.314925970388156 12.734375  11.087635054021609 12.973958333333334  C 10.860344137655064 13.213541666666666  10.448979591836734 13.333333333333334  9.853541416566626 13.333333333333334  L 1.5078031212484995 13.333333333333334  C 1.3349339735894359 13.333333333333334  1.2132853141256503 13.385416666666666  1.1428571428571428 13.489583333333334  C 1.0724289715886355 13.600694444444445  1.0692276910764307 13.75  1.1332533013205282 13.9375  C 1.2869147659063624 14.423611111111112  1.7478991596638656 14.666666666666666  2.516206482593037 14.666666666666666  L 11.380552220888354 14.666666666666666  C 11.56622649059624 14.666666666666666  11.745498199279712 14.612847222222221  11.918367346938776 14.505208333333334  C 12.091236494597839 14.397569444444445  12.20328131252501 14.253472222222221  12.254501800720288 14.072916666666666  L 15.135654261704682 3.791666666666666  C 15.180472188875552 3.6388888888888875  15.196478591436575 3.4409722222222214  15.183673469387756 3.197916666666666  Z M 5.733493397358943 3  L 5.531812725090036 3.666666666666666  C 5.506202480992397 3.756944444444443  5.512605042016807 3.835069444444443  5.551020408163265 3.901041666666666  C 5.589435774309724 3.9670138888888875  5.653461384553823 4  5.743097238895558 4  L 11.582232893157263 4  C 11.66546618647459 4  11.747098839535814 3.9670138888888875  11.827130852340936 3.901041666666666  C 11.90716286514606 3.835069444444443  11.95998399359744 3.756944444444443  11.985594237695079 3.666666666666666  L 12.187274909963985 3  C 12.212885154061626 2.9097222222222214  12.206482593037215 2.8315972222222214  12.168067226890756 2.765625  C 12.129651860744298 2.699652777777777  12.065626250500202 2.666666666666666  11.975990396158464 2.666666666666666  L 6.136854741896759 2.666666666666666  C 6.053621448579432 2.666666666666666  5.971988795518207 2.699652777777777  5.891956782713085 2.765625  C 5.8119247699079635 2.8315972222222214  5.7591036414565835 2.9097222222222214  5.733493397358943 3  Z M 4.936374549819928 5.666666666666666  L 4.73469387755102 6.333333333333334  C 4.709083633453382 6.423611111111111  4.7154861944777915 6.501736111111111  4.75390156062425 6.567708333333334  C 4.792316926770709 6.633680555555555  4.856342537014806 6.666666666666666  4.945978391356543 6.666666666666666  L 10.785114045618247 6.666666666666666  C 10.868347338935575 6.666666666666666  10.9499799919968 6.633680555555555  11.03001200480192 6.567708333333334  C 11.110044017607045 6.501736111111111  11.162865146058424 6.423611111111111  11.188475390156063 6.333333333333334  L 11.39015606242497 5.666666666666666  C 11.41576630652261 5.5763888888888875  11.409363745498199 5.4982638888888875  11.370948379351741 5.432291666666666  C 11.332533013205282 5.366319444444445  11.268507402961186 5.333333333333334  11.178871548619448 5.333333333333334  L 5.3397358943577435 5.333333333333334  C 5.256502601040417 5.333333333333334  5.174869947979192 5.366319444444445  5.09483793517407 5.432291666666666  C 5.014805922368948 5.4982638888888875  4.961984793917567 5.5763888888888875  4.936374549819928 5.666666666666666  Z " fill-rule="nonzero" fill="rgba(0, 0, 0, 1)" stroke="none" transform="matrix(1 0 0 1 24 200 )" class="fill" />
    <path d="M 15.183673469387756 3.197916666666666  C 15.426970788315328 3.302083333333334  15.615846338535414 3.4513888888888875  15.750300120048019 3.645833333333334  C 16.00640256102441 4.041666666666666  16.064025610244098 4.489583333333334  15.923169267707083 4.989583333333334  L 13.282112845138055 14.427083333333334  C 13.160464185674272 14.871527777777779  12.915566226490597 15.244791666666666  12.547418967587035 15.546875  C 12.179271708683475 15.848958333333334  11.787114845938376 16  11.370948379351741 16  L 2.5066026410564226 16  C 2.0136054421768708 16  1.538215286114446 15.814236111111112  1.0804321728691477 15.442708333333334  C 0.6226490596238496 15.071180555555555  0.30412164865946384 14.614583333333334  0.12484993997599039 14.072916666666666  C -0.028811524609843937 13.607638888888888  -0.035214085634253704 13.166666666666666  0.1056422569027611 12.75  C 0.1056422569027611 12.722222222222221  0.11524609843937575 12.628472222222221  0.13445378151260504 12.46875  C 0.15366146458583432 12.309027777777777  0.16646658663465388 12.180555555555555  0.17286914765906364 12.083333333333334  C 0.1792717086834734 12.027777777777779  0.16966786714685875 11.953125  0.14405762304921968 11.859375  C 0.11844737895158064 11.765625  0.108843537414966 11.697916666666668  0.11524609843937575 11.65625  C 0.12805122048819528 11.57986111111111  0.15366146458583432 11.506944444444443  0.19207683073229292 11.4375  C 0.2304921968787515 11.368055555555554  0.28331332533013204 11.286458333333332  0.3505402160864346 11.192708333333332  C 0.4177671068427371 11.098958333333332  0.47058823529411764 11.01736111111111  0.5090036014405762 10.947916666666668  C 0.6562625050020009 10.684027777777775  0.8003201280512205 10.366319444444443  0.9411764705882353 9.994791666666668  C 1.0820328131252501 9.62326388888889  1.1780712284913966 9.305555555555554  1.2292917166866746 9.041666666666668  C 1.2484993997599039 8.972222222222221  1.2501000400160065 8.868055555555554  1.234093637454982 8.729166666666668  C 1.2180872348939578 8.590277777777779  1.2164865946378551 8.493055555555554  1.2292917166866746 8.4375  C 1.2484993997599039 8.36111111111111  1.3029211684673871 8.26388888888889  1.3925570228091237 8.145833333333332  C 1.4821928771508603 8.027777777777779  1.5366146458583434 7.947916666666666  1.5558223289315727 7.90625  C 1.6902761104441777 7.65625  1.8247298919567827 7.336805555555555  1.9591836734693877 6.947916666666666  C 2.0936374549819927 6.559027777777777  2.173669467787115 6.246527777777777  2.199279711884754 6.010416666666666  C 2.2056822729091636 5.947916666666666  2.1976790716286514 5.836805555555555  2.1752701080432173 5.677083333333334  C 2.152861144457783 5.517361111111111  2.154461784713886 5.4201388888888875  2.1800720288115247 5.385416666666666  C 2.2056822729091636 5.2951388888888875  2.276110444177671 5.189236111111109  2.391356542617047 5.067708333333334  C 2.5066026410564226 4.946180555555555  2.57703081232493 4.868055555555555  2.602641056422569 4.833333333333334  C 2.724289715886355 4.652777777777777  2.8603441376550625 4.359375  3.0108043217286915 3.953125  C 3.161264505802321 3.546875  3.2492997198879556 3.2118055555555554  3.274909963985594 2.947916666666666  C 3.281312525010004 2.892361111111109  3.2717086834733897 2.803819444444443  3.2460984393757504 2.682291666666666  C 3.2204881952781115 2.5607638888888875  3.214085634253702 2.46875  3.226890756302521 2.40625  C 3.2396958783513408 2.350694444444443  3.268507402961185 2.288194444444443  3.3133253301320527 2.21875  C 3.3581432573029213 2.1493055555555554  3.415766306522609 2.069444444444443  3.4861944777911162 1.979166666666666  C 3.556622649059624 1.8888888888888875  3.611044417767107 1.8159722222222214  3.6494597839135654 1.760416666666666  C 3.700680272108844 1.677083333333334  3.7535014005602245 1.5711805555555554  3.807923169267707 1.442708333333334  C 3.86234493797519 1.314236111111109  3.9103641456582636 1.192708333333334  3.9519807923169266 1.078125  C 3.9935974389755904 0.9635416666666661  4.044817927170869 0.8385416666666661  4.105642256902761 0.703125  C 4.166466586634654 0.5677083333333339  4.228891556622649 0.45659722222222143  4.292917166866746 0.3697916666666661  C 4.356942777110845 0.28298611111110894  4.441776710684274 0.2013888888888875  4.547418967587035 0.125  C 4.653061224489797 0.04861111111110894  4.768307322929172 0.008680555555555358  4.893157262905162 0.0052083333333339255  C 5.018007202881153 0.00173611111110894  5.170068027210885 0.020833333333333925  5.3493397358943575 0.0625  L 5.3397358943577435 0.09375  C 5.583033213285314 0.03125  5.746298519407763 0  5.82953181272509 0  L 13.138055222088836 0  C 13.61184473789516 0  13.976790716286516 0.19444444444444287  14.232893157262906 0.5833333333333339  C 14.488995598239297 0.9722222222222214  14.546618647458985 1.423611111111109  14.40576230492197 1.9375  L 11.774309723889555 11.375  C 11.543817527010804 12.201388888888888  11.314925970388156 12.734375  11.087635054021609 12.973958333333334  C 10.860344137655064 13.213541666666666  10.448979591836734 13.333333333333334  9.853541416566626 13.333333333333334  L 1.5078031212484995 13.333333333333334  C 1.3349339735894359 13.333333333333334  1.2132853141256503 13.385416666666666  1.1428571428571428 13.489583333333334  C 1.0724289715886355 13.600694444444445  1.0692276910764307 13.75  1.1332533013205282 13.9375  C 1.2869147659063624 14.423611111111112  1.7478991596638656 14.666666666666666  2.516206482593037 14.666666666666666  L 11.380552220888354 14.666666666666666  C 11.56622649059624 14.666666666666666  11.745498199279712 14.612847222222221  11.918367346938776 14.505208333333334  C 12.091236494597839 14.397569444444445  12.20328131252501 14.253472222222221  12.254501800720288 14.072916666666666  L 15.135654261704682 3.791666666666666  C 15.180472188875552 3.6388888888888875  15.196478591436575 3.4409722222222214  15.183673469387756 3.197916666666666  Z " stroke-width="0" stroke-dasharray="0" stroke="rgba(255, 255, 255, 0)" fill="none" transform="matrix(1 0 0 1 24 200 )" class="stroke" mask="url(#Clip5)" />
    <path d="M 5.733493397358943 3  L 5.531812725090036 3.666666666666666  C 5.506202480992397 3.756944444444443  5.512605042016807 3.835069444444443  5.551020408163265 3.901041666666666  C 5.589435774309724 3.9670138888888875  5.653461384553823 4  5.743097238895558 4  L 11.582232893157263 4  C 11.66546618647459 4  11.747098839535814 3.9670138888888875  11.827130852340936 3.901041666666666  C 11.90716286514606 3.835069444444443  11.95998399359744 3.756944444444443  11.985594237695079 3.666666666666666  L 12.187274909963985 3  C 12.212885154061626 2.9097222222222214  12.206482593037215 2.8315972222222214  12.168067226890756 2.765625  C 12.129651860744298 2.699652777777777  12.065626250500202 2.666666666666666  11.975990396158464 2.666666666666666  L 6.136854741896759 2.666666666666666  C 6.053621448579432 2.666666666666666  5.971988795518207 2.699652777777777  5.891956782713085 2.765625  C 5.8119247699079635 2.8315972222222214  5.7591036414565835 2.9097222222222214  5.733493397358943 3  Z " stroke-width="0" stroke-dasharray="0" stroke="rgba(255, 255, 255, 0)" fill="none" transform="matrix(1 0 0 1 24 200 )" class="stroke" mask="url(#Clip5)" />
    <path d="M 4.936374549819928 5.666666666666666  L 4.73469387755102 6.333333333333334  C 4.709083633453382 6.423611111111111  4.7154861944777915 6.501736111111111  4.75390156062425 6.567708333333334  C 4.792316926770709 6.633680555555555  4.856342537014806 6.666666666666666  4.945978391356543 6.666666666666666  L 10.785114045618247 6.666666666666666  C 10.868347338935575 6.666666666666666  10.9499799919968 6.633680555555555  11.03001200480192 6.567708333333334  C 11.110044017607045 6.501736111111111  11.162865146058424 6.423611111111111  11.188475390156063 6.333333333333334  L 11.39015606242497 5.666666666666666  C 11.41576630652261 5.5763888888888875  11.409363745498199 5.4982638888888875  11.370948379351741 5.432291666666666  C 11.332533013205282 5.366319444444445  11.268507402961186 5.333333333333334  11.178871548619448 5.333333333333334  L 5.3397358943577435 5.333333333333334  C 5.256502601040417 5.333333333333334  5.174869947979192 5.366319444444445  5.09483793517407 5.432291666666666  C 5.014805922368948 5.4982638888888875  4.961984793917567 5.5763888888888875  4.936374549819928 5.666666666666666  Z " stroke-width="0" stroke-dasharray="0" stroke="rgba(255, 255, 255, 0)" fill="none" transform="matrix(1 0 0 1 24 200 )" class="stroke" mask="url(#Clip5)" />
  </g>
</svg>