<?xml version="1.0" encoding="utf-8"?>
<svg version="1.1" xmlns:xlink="http://www.w3.org/1999/xlink" width="16px" height="16px" xmlns="http://www.w3.org/2000/svg">
  <defs>
    <pattern id="BGPattern" patternUnits="userSpaceOnUse" alignment="0 0" imageRepeat="None" />
    <mask fill="white" id="Clip6">
      <path d="M 11.178571428571429 14.075892857142858  C 12.160714285714286 13.555059523809526  12.967261904761907 12.848214285714285  13.598214285714286 11.955357142857142  C 13.467261904761907 11.032738095238095  13.206845238095239 10.266369047619047  12.816964285714286 9.65625  C 12.427083333333334 9.046130952380953  11.877976190476192 8.69345238095238  11.169642857142858 8.598214285714285  C 10.770833333333334 9.038690476190474  10.296130952380953 9.382440476190474  9.745535714285714 9.629464285714285  C 9.194940476190478 9.876488095238095  8.613095238095239 10  8 10  C 7.386904761904762 10  6.805059523809525 9.876488095238095  6.254464285714286 9.629464285714285  C 5.703869047619048 9.382440476190474  5.229166666666667 9.038690476190474  4.830357142857143 8.598214285714285  C 4.122023809523809 8.69345238095238  3.572916666666667 9.046130952380953  3.1830357142857144 9.65625  C 2.7931547619047623 10.266369047619047  2.5327380952380953 11.032738095238095  2.4017857142857144 11.955357142857142  C 3.0327380952380953 12.848214285714285  3.8392857142857144 13.555059523809526  4.821428571428571 14.075892857142858  C 5.803571428571429 14.59672619047619  6.863095238095239 14.857142857142858  8 14.857142857142858  C 9.136904761904763 14.857142857142858  10.196428571428571 14.59672619047619  11.178571428571429 14.075892857142858  Z M 10.424107142857142 8.138392857142858  C 11.09375 7.46875  11.428571428571429 6.6607142857142865  11.428571428571429 5.7142857142857135  C 11.428571428571429 4.767857142857142  11.09375 3.959821428571429  10.424107142857142 3.290178571428571  C 9.754464285714286 2.6205357142857135  8.946428571428571 2.2857142857142865  8 2.2857142857142865  C 7.053571428571429 2.2857142857142865  6.245535714285714 2.6205357142857135  5.575892857142857 3.290178571428571  C 4.90625 3.959821428571429  4.571428571428571 4.767857142857142  4.571428571428571 5.7142857142857135  C 4.571428571428571 6.6607142857142865  4.90625 7.46875  5.575892857142857 8.138392857142858  C 6.245535714285714 8.808035714285715  7.053571428571429 9.142857142857142  8 9.142857142857142  C 8.946428571428571 9.142857142857142  9.754464285714286 8.808035714285715  10.424107142857142 8.138392857142858  Z M 15.366071428571429 4.892857142857142  C 15.788690476190478 5.88095238095238  16 6.916666666666666  16 8  C 16 9.083333333333332  15.788690476190478 10.117559523809522  15.366071428571429 11.102678571428571  C 14.943452380952383 12.087797619047619  14.376488095238098 12.938988095238095  13.665178571428571 13.65625  C 12.95386904761905 14.373511904761903  12.104166666666668 14.943452380952381  11.116071428571429 15.366071428571429  C 10.127976190476192 15.788690476190476  9.089285714285714 16  8 16  C 6.916666666666667 16  5.880952380952381 15.788690476190476  4.892857142857143 15.366071428571429  C 3.904761904761905 14.943452380952381  3.0535714285714284 14.375  2.3392857142857144 13.660714285714285  C 1.625 12.946428571428571  1.056547619047619 12.095238095238095  0.6339285714285714 11.107142857142858  C 0.21130952380952378 10.119047619047619  0 9.083333333333332  0 8  C 0 6.916666666666666  0.21130952380952378 5.88095238095238  0.6339285714285714 4.892857142857142  C 1.056547619047619 3.9047619047619033  1.625 3.053571428571429  2.3392857142857144 2.3392857142857135  C 3.0535714285714284 1.625  3.904761904761905 1.0565476190476186  4.892857142857143 0.6339285714285712  C 5.880952380952381 0.21130952380952372  6.916666666666667 0  8 0  C 9.083333333333334 0  10.11904761904762 0.21130952380952372  11.107142857142858 0.6339285714285712  C 12.095238095238097 1.0565476190476186  12.946428571428571 1.625  13.660714285714286 2.3392857142857135  C 14.375000000000002 3.053571428571429  14.943452380952383 3.9047619047619033  15.366071428571429 4.892857142857142  Z " fill-rule="evenodd" />
    </mask>
  </defs>
  <g transform="matrix(1 0 0 1 -24 -250 )">
    <path d="M 11.178571428571429 14.075892857142858  C 12.160714285714286 13.555059523809526  12.967261904761907 12.848214285714285  13.598214285714286 11.955357142857142  C 13.467261904761907 11.032738095238095  13.206845238095239 10.266369047619047  12.816964285714286 9.65625  C 12.427083333333334 9.046130952380953  11.877976190476192 8.69345238095238  11.169642857142858 8.598214285714285  C 10.770833333333334 9.038690476190474  10.296130952380953 9.382440476190474  9.745535714285714 9.629464285714285  C 9.194940476190478 9.876488095238095  8.613095238095239 10  8 10  C 7.386904761904762 10  6.805059523809525 9.876488095238095  6.254464285714286 9.629464285714285  C 5.703869047619048 9.382440476190474  5.229166666666667 9.038690476190474  4.830357142857143 8.598214285714285  C 4.122023809523809 8.69345238095238  3.572916666666667 9.046130952380953  3.1830357142857144 9.65625  C 2.7931547619047623 10.266369047619047  2.5327380952380953 11.032738095238095  2.4017857142857144 11.955357142857142  C 3.0327380952380953 12.848214285714285  3.8392857142857144 13.555059523809526  4.821428571428571 14.075892857142858  C 5.803571428571429 14.59672619047619  6.863095238095239 14.857142857142858  8 14.857142857142858  C 9.136904761904763 14.857142857142858  10.196428571428571 14.59672619047619  11.178571428571429 14.075892857142858  Z M 10.424107142857142 8.138392857142858  C 11.09375 7.46875  11.428571428571429 6.6607142857142865  11.428571428571429 5.7142857142857135  C 11.428571428571429 4.767857142857142  11.09375 3.959821428571429  10.424107142857142 3.290178571428571  C 9.754464285714286 2.6205357142857135  8.946428571428571 2.2857142857142865  8 2.2857142857142865  C 7.053571428571429 2.2857142857142865  6.245535714285714 2.6205357142857135  5.575892857142857 3.290178571428571  C 4.90625 3.959821428571429  4.571428571428571 4.767857142857142  4.571428571428571 5.7142857142857135  C 4.571428571428571 6.6607142857142865  4.90625 7.46875  5.575892857142857 8.138392857142858  C 6.245535714285714 8.808035714285715  7.053571428571429 9.142857142857142  8 9.142857142857142  C 8.946428571428571 9.142857142857142  9.754464285714286 8.808035714285715  10.424107142857142 8.138392857142858  Z M 15.366071428571429 4.892857142857142  C 15.788690476190478 5.88095238095238  16 6.916666666666666  16 8  C 16 9.083333333333332  15.788690476190478 10.117559523809522  15.366071428571429 11.102678571428571  C 14.943452380952383 12.087797619047619  14.376488095238098 12.938988095238095  13.665178571428571 13.65625  C 12.95386904761905 14.373511904761903  12.104166666666668 14.943452380952381  11.116071428571429 15.366071428571429  C 10.127976190476192 15.788690476190476  9.089285714285714 16  8 16  C 6.916666666666667 16  5.880952380952381 15.788690476190476  4.892857142857143 15.366071428571429  C 3.904761904761905 14.943452380952381  3.0535714285714284 14.375  2.3392857142857144 13.660714285714285  C 1.625 12.946428571428571  1.056547619047619 12.095238095238095  0.6339285714285714 11.107142857142858  C 0.21130952380952378 10.119047619047619  0 9.083333333333332  0 8  C 0 6.916666666666666  0.21130952380952378 5.88095238095238  0.6339285714285714 4.892857142857142  C 1.056547619047619 3.9047619047619033  1.625 3.053571428571429  2.3392857142857144 2.3392857142857135  C 3.0535714285714284 1.625  3.904761904761905 1.0565476190476186  4.892857142857143 0.6339285714285712  C 5.880952380952381 0.21130952380952372  6.916666666666667 0  8 0  C 9.083333333333334 0  10.11904761904762 0.21130952380952372  11.107142857142858 0.6339285714285712  C 12.095238095238097 1.0565476190476186  12.946428571428571 1.625  13.660714285714286 2.3392857142857135  C 14.375000000000002 3.053571428571429  14.943452380952383 3.9047619047619033  15.366071428571429 4.892857142857142  Z " fill-rule="nonzero" fill="rgba(0, 0, 0, 1)" stroke="none" transform="matrix(1 0 0 1 24 250 )" class="fill" />
    <path d="M 11.178571428571429 14.075892857142858  C 12.160714285714286 13.555059523809526  12.967261904761907 12.848214285714285  13.598214285714286 11.955357142857142  C 13.467261904761907 11.032738095238095  13.206845238095239 10.266369047619047  12.816964285714286 9.65625  C 12.427083333333334 9.046130952380953  11.877976190476192 8.69345238095238  11.169642857142858 8.598214285714285  C 10.770833333333334 9.038690476190474  10.296130952380953 9.382440476190474  9.745535714285714 9.629464285714285  C 9.194940476190478 9.876488095238095  8.613095238095239 10  8 10  C 7.386904761904762 10  6.805059523809525 9.876488095238095  6.254464285714286 9.629464285714285  C 5.703869047619048 9.382440476190474  5.229166666666667 9.038690476190474  4.830357142857143 8.598214285714285  C 4.122023809523809 8.69345238095238  3.572916666666667 9.046130952380953  3.1830357142857144 9.65625  C 2.7931547619047623 10.266369047619047  2.5327380952380953 11.032738095238095  2.4017857142857144 11.955357142857142  C 3.0327380952380953 12.848214285714285  3.8392857142857144 13.555059523809526  4.821428571428571 14.075892857142858  C 5.803571428571429 14.59672619047619  6.863095238095239 14.857142857142858  8 14.857142857142858  C 9.136904761904763 14.857142857142858  10.196428571428571 14.59672619047619  11.178571428571429 14.075892857142858  Z " stroke-width="0" stroke-dasharray="0" stroke="rgba(255, 255, 255, 0)" fill="none" transform="matrix(1 0 0 1 24 250 )" class="stroke" mask="url(#Clip6)" />
    <path d="M 10.424107142857142 8.138392857142858  C 11.09375 7.46875  11.428571428571429 6.6607142857142865  11.428571428571429 5.7142857142857135  C 11.428571428571429 4.767857142857142  11.09375 3.959821428571429  10.424107142857142 3.290178571428571  C 9.754464285714286 2.6205357142857135  8.946428571428571 2.2857142857142865  8 2.2857142857142865  C 7.053571428571429 2.2857142857142865  6.245535714285714 2.6205357142857135  5.575892857142857 3.290178571428571  C 4.90625 3.959821428571429  4.571428571428571 4.767857142857142  4.571428571428571 5.7142857142857135  C 4.571428571428571 6.6607142857142865  4.90625 7.46875  5.575892857142857 8.138392857142858  C 6.245535714285714 8.808035714285715  7.053571428571429 9.142857142857142  8 9.142857142857142  C 8.946428571428571 9.142857142857142  9.754464285714286 8.808035714285715  10.424107142857142 8.138392857142858  Z " stroke-width="0" stroke-dasharray="0" stroke="rgba(255, 255, 255, 0)" fill="none" transform="matrix(1 0 0 1 24 250 )" class="stroke" mask="url(#Clip6)" />
    <path d="M 15.366071428571429 4.892857142857142  C 15.788690476190478 5.88095238095238  16 6.916666666666666  16 8  C 16 9.083333333333332  15.788690476190478 10.117559523809522  15.366071428571429 11.102678571428571  C 14.943452380952383 12.087797619047619  14.376488095238098 12.938988095238095  13.665178571428571 13.65625  C 12.95386904761905 14.373511904761903  12.104166666666668 14.943452380952381  11.116071428571429 15.366071428571429  C 10.127976190476192 15.788690476190476  9.089285714285714 16  8 16  C 6.916666666666667 16  5.880952380952381 15.788690476190476  4.892857142857143 15.366071428571429  C 3.904761904761905 14.943452380952381  3.0535714285714284 14.375  2.3392857142857144 13.660714285714285  C 1.625 12.946428571428571  1.056547619047619 12.095238095238095  0.6339285714285714 11.107142857142858  C 0.21130952380952378 10.119047619047619  0 9.083333333333332  0 8  C 0 6.916666666666666  0.21130952380952378 5.88095238095238  0.6339285714285714 4.892857142857142  C 1.056547619047619 3.9047619047619033  1.625 3.053571428571429  2.3392857142857144 2.3392857142857135  C 3.0535714285714284 1.625  3.904761904761905 1.0565476190476186  4.892857142857143 0.6339285714285712  C 5.880952380952381 0.21130952380952372  6.916666666666667 0  8 0  C 9.083333333333334 0  10.11904761904762 0.21130952380952372  11.107142857142858 0.6339285714285712  C 12.095238095238097 1.0565476190476186  12.946428571428571 1.625  13.660714285714286 2.3392857142857135  C 14.375000000000002 3.053571428571429  14.943452380952383 3.9047619047619033  15.366071428571429 4.892857142857142  Z " stroke-width="0" stroke-dasharray="0" stroke="rgba(255, 255, 255, 0)" fill="none" transform="matrix(1 0 0 1 24 250 )" class="stroke" mask="url(#Clip6)" />
  </g>
</svg>