<?xml version="1.0" encoding="utf-8"?>
<svg version="1.1" xmlns:xlink="http://www.w3.org/1999/xlink" width="16px" height="16px" xmlns="http://www.w3.org/2000/svg">
  <defs>
    <pattern id="BGPattern" patternUnits="userSpaceOnUse" alignment="0 0" imageRepeat="None" />
    <mask fill="white" id="Clip1">
      <path d="M 13.700123915737299 9.141075604053  C 13.706732755059893 9.157703299558326  13.71003717472119 9.182644842816316  13.71003717472119 9.215900233826968  L 13.71003717472119 15.20187061574435  C 13.71003717472119 15.418030657313587  13.647253201156548 15.605092231748506  13.521685254027261 15.763055339049103  C 13.396117306897978 15.921018446349702  13.247418422139614 16  13.075588599752168 16  L 9.268897149938041 16  L 9.268897149938041 11.211223694466096  L 6.731102850061958 11.211223694466096  L 6.731102850061958 16  L 2.9244114002478314 16  C 2.7525815778603886 16  2.6038826931020242 15.921018446349702  2.4783147459727384 15.763055339049103  C 2.3527467988434534 15.605092231748506  2.2899628252788102 15.418030657313587  2.2899628252788102 15.20187061574435  L 2.2899628252788102 9.215900233826968  C 2.2899628252788102 9.207586386074304  2.291615035109459 9.19511561444531  2.294919454770756 9.178487918939984  C 2.298223874432053 9.161860223434658  2.2998760842627015 9.149389451805664  2.2998760842627015 9.141075604053  L 8 3.2299298519095867  L 13.700123915737299 9.141075604053  Z M 15.990086741016109 8.062353858144974  C 15.996695580338704 8.174590802805923  15.973564642709626 8.272278513899714  15.920693928128872 8.355416991426345  L 15.306071871127633 9.278254091971942  C 15.253201156546883 9.35307872174591  15.183808343659646 9.398804884385555  15.097893432465924 9.415432579890881  L 15.06815365551425 9.415432579890881  C 14.98223874432053 9.415432579890881  14.912845931433294 9.38633411275656  14.85997521685254 9.328137178487918  L 8 2.132501948558067  L 1.1400247831474597 9.328137178487918  C 1.060718711276332 9.394647960509221  0.9814126394052045 9.423746427643543  0.9021065675340768 9.415432579890881  C 0.8161916563403553 9.398804884385555  0.7467988434531186 9.35307872174591  0.6939281288723668 9.278254091971942  L 0.07930607187112763 8.355416991426345  C 0.02643535729037589 8.272278513899714  0.0033044196612970083 8.174590802805923  0.009913258983890954 8.062353858144974  C 0.016522098306484972 7.950116913484022  0.05287071458075178 7.860743050142894  0.11895910780669144 7.79423226812159  L 7.246592317224287 0.3242400623538586  C 7.458075175547295 0.10808002078461776  7.709211069805866 0  8 0  C 8.290788930194136 0  8.541924824452707 0.10808002078461776  8.753407682775713 0.3242400623538586  L 11.172242874845105 2.8682774746687443  L 11.172242874845105 0.4364770070148083  C 11.172242874845105 0.3200831384775249  11.201982651796778 0.22447388932190115  11.261462205700123 0.1496492595479353  C 11.32094175960347 0.07482462977396764  11.3969434118133 0.03741231488698382  11.489467162329616 0.03741231488698382  L 13.39281288723668 0.03741231488698382  C 13.485336637752996 0.03741231488698382  13.561338289962825 0.07482462977396764  13.62081784386617 0.1496492595479353  C 13.680297397769516 0.22447388932190115  13.71003717472119 0.3200831384775249  13.71003717472119 0.4364770070148083  L 13.71003717472119 5.524551831644583  L 15.881040892193308 7.79423226812159  C 15.94712928541925 7.860743050142894  15.983477901693517 7.950116913484022  15.990086741016109 8.062353858144974  Z " fill-rule="evenodd" />
    </mask>
  </defs>
  <g transform="matrix(1 0 0 1 -24 -15 )">
    <path d="M 13.700123915737299 9.141075604053  C 13.706732755059893 9.157703299558326  13.71003717472119 9.182644842816316  13.71003717472119 9.215900233826968  L 13.71003717472119 15.20187061574435  C 13.71003717472119 15.418030657313587  13.647253201156548 15.605092231748506  13.521685254027261 15.763055339049103  C 13.396117306897978 15.921018446349702  13.247418422139614 16  13.075588599752168 16  L 9.268897149938041 16  L 9.268897149938041 11.211223694466096  L 6.731102850061958 11.211223694466096  L 6.731102850061958 16  L 2.9244114002478314 16  C 2.7525815778603886 16  2.6038826931020242 15.921018446349702  2.4783147459727384 15.763055339049103  C 2.3527467988434534 15.605092231748506  2.2899628252788102 15.418030657313587  2.2899628252788102 15.20187061574435  L 2.2899628252788102 9.215900233826968  C 2.2899628252788102 9.207586386074304  2.291615035109459 9.19511561444531  2.294919454770756 9.178487918939984  C 2.298223874432053 9.161860223434658  2.2998760842627015 9.149389451805664  2.2998760842627015 9.141075604053  L 8 3.2299298519095867  L 13.700123915737299 9.141075604053  Z M 15.990086741016109 8.062353858144974  C 15.996695580338704 8.174590802805923  15.973564642709626 8.272278513899714  15.920693928128872 8.355416991426345  L 15.306071871127633 9.278254091971942  C 15.253201156546883 9.35307872174591  15.183808343659646 9.398804884385555  15.097893432465924 9.415432579890881  L 15.06815365551425 9.415432579890881  C 14.98223874432053 9.415432579890881  14.912845931433294 9.38633411275656  14.85997521685254 9.328137178487918  L 8 2.132501948558067  L 1.1400247831474597 9.328137178487918  C 1.060718711276332 9.394647960509221  0.9814126394052045 9.423746427643543  0.9021065675340768 9.415432579890881  C 0.8161916563403553 9.398804884385555  0.7467988434531186 9.35307872174591  0.6939281288723668 9.278254091971942  L 0.07930607187112763 8.355416991426345  C 0.02643535729037589 8.272278513899714  0.0033044196612970083 8.174590802805923  0.009913258983890954 8.062353858144974  C 0.016522098306484972 7.950116913484022  0.05287071458075178 7.860743050142894  0.11895910780669144 7.79423226812159  L 7.246592317224287 0.3242400623538586  C 7.458075175547295 0.10808002078461776  7.709211069805866 0  8 0  C 8.290788930194136 0  8.541924824452707 0.10808002078461776  8.753407682775713 0.3242400623538586  L 11.172242874845105 2.8682774746687443  L 11.172242874845105 0.4364770070148083  C 11.172242874845105 0.3200831384775249  11.201982651796778 0.22447388932190115  11.261462205700123 0.1496492595479353  C 11.32094175960347 0.07482462977396764  11.3969434118133 0.03741231488698382  11.489467162329616 0.03741231488698382  L 13.39281288723668 0.03741231488698382  C 13.485336637752996 0.03741231488698382  13.561338289962825 0.07482462977396764  13.62081784386617 0.1496492595479353  C 13.680297397769516 0.22447388932190115  13.71003717472119 0.3200831384775249  13.71003717472119 0.4364770070148083  L 13.71003717472119 5.524551831644583  L 15.881040892193308 7.79423226812159  C 15.94712928541925 7.860743050142894  15.983477901693517 7.950116913484022  15.990086741016109 8.062353858144974  Z " fill-rule="nonzero" fill="rgba(0, 0, 0, 1)" stroke="none" transform="matrix(1 0 0 1 24 15 )" class="fill" />
    <path d="M 13.700123915737299 9.141075604053  C 13.706732755059893 9.157703299558326  13.71003717472119 9.182644842816316  13.71003717472119 9.215900233826968  L 13.71003717472119 15.20187061574435  C 13.71003717472119 15.418030657313587  13.647253201156548 15.605092231748506  13.521685254027261 15.763055339049103  C 13.396117306897978 15.921018446349702  13.247418422139614 16  13.075588599752168 16  L 9.268897149938041 16  L 9.268897149938041 11.211223694466096  L 6.731102850061958 11.211223694466096  L 6.731102850061958 16  L 2.9244114002478314 16  C 2.7525815778603886 16  2.6038826931020242 15.921018446349702  2.4783147459727384 15.763055339049103  C 2.3527467988434534 15.605092231748506  2.2899628252788102 15.418030657313587  2.2899628252788102 15.20187061574435  L 2.2899628252788102 9.215900233826968  C 2.2899628252788102 9.207586386074304  2.291615035109459 9.19511561444531  2.294919454770756 9.178487918939984  C 2.298223874432053 9.161860223434658  2.2998760842627015 9.149389451805664  2.2998760842627015 9.141075604053  L 8 3.2299298519095867  L 13.700123915737299 9.141075604053  Z " stroke-width="0" stroke-dasharray="0" stroke="rgba(255, 255, 255, 0)" fill="none" transform="matrix(1 0 0 1 24 15 )" class="stroke" mask="url(#Clip1)" />
    <path d="M 15.990086741016109 8.062353858144974  C 15.996695580338704 8.174590802805923  15.973564642709626 8.272278513899714  15.920693928128872 8.355416991426345  L 15.306071871127633 9.278254091971942  C 15.253201156546883 9.35307872174591  15.183808343659646 9.398804884385555  15.097893432465924 9.415432579890881  L 15.06815365551425 9.415432579890881  C 14.98223874432053 9.415432579890881  14.912845931433294 9.38633411275656  14.85997521685254 9.328137178487918  L 8 2.132501948558067  L 1.1400247831474597 9.328137178487918  C 1.060718711276332 9.394647960509221  0.9814126394052045 9.423746427643543  0.9021065675340768 9.415432579890881  C 0.8161916563403553 9.398804884385555  0.7467988434531186 9.35307872174591  0.6939281288723668 9.278254091971942  L 0.07930607187112763 8.355416991426345  C 0.02643535729037589 8.272278513899714  0.0033044196612970083 8.174590802805923  0.009913258983890954 8.062353858144974  C 0.016522098306484972 7.950116913484022  0.05287071458075178 7.860743050142894  0.11895910780669144 7.79423226812159  L 7.246592317224287 0.3242400623538586  C 7.458075175547295 0.10808002078461776  7.709211069805866 0  8 0  C 8.290788930194136 0  8.541924824452707 0.10808002078461776  8.753407682775713 0.3242400623538586  L 11.172242874845105 2.8682774746687443  L 11.172242874845105 0.4364770070148083  C 11.172242874845105 0.3200831384775249  11.201982651796778 0.22447388932190115  11.261462205700123 0.1496492595479353  C 11.32094175960347 0.07482462977396764  11.3969434118133 0.03741231488698382  11.489467162329616 0.03741231488698382  L 13.39281288723668 0.03741231488698382  C 13.485336637752996 0.03741231488698382  13.561338289962825 0.07482462977396764  13.62081784386617 0.1496492595479353  C 13.680297397769516 0.22447388932190115  13.71003717472119 0.3200831384775249  13.71003717472119 0.4364770070148083  L 13.71003717472119 5.524551831644583  L 15.881040892193308 7.79423226812159  C 15.94712928541925 7.860743050142894  15.983477901693517 7.950116913484022  15.990086741016109 8.062353858144974  Z " stroke-width="0" stroke-dasharray="0" stroke="rgba(255, 255, 255, 0)" fill="none" transform="matrix(1 0 0 1 24 15 )" class="stroke" mask="url(#Clip1)" />
  </g>
</svg>