<?xml version="1.0" encoding="utf-8"?>
<svg version="1.1" xmlns:xlink="http://www.w3.org/1999/xlink" width="11px" height="11px" xmlns="http://www.w3.org/2000/svg">
  <defs>
    <pattern id="BGPattern" patternUnits="userSpaceOnUse" alignment="0 0" imageRepeat="None" />
    <mask fill="white" id="Clip20">
      <path d="M 10.629807692307692 3.9439193446754883  C 10.876602564102564 3.9855072463768124  11 4.091787439613526  11 4.262759924385634  C 11 4.364419239655534  10.942708333333334 4.475320310859062  10.828125 4.595463137996219  L 8.428485576923077 7.049149338374291  L 8.996995192307692 10.51480781348456  C 9.001402243589745 10.547153959252258  9.00360576923077 10.593362738920394  9.00360576923077 10.653434152488973  C 9.00360576923077 10.75047258979206  8.98046875 10.832493173703003  8.934194711538462 10.899495904221801  C 8.887920673076923 10.966498634740601  8.820713141025642 11  8.732572115384615 11  C 8.648838141025642 11  8.560697115384615 10.972274732199118  8.468149038461538 10.916824196597354  L 5.5 9.281033396345306  L 2.5318509615384612 10.916824196597354  C 2.4348958333333335 10.972274732199118  2.3467548076923075 11  2.2674278846153846 11  C 2.1748798076923075 11  2.10546875 10.966498634740601  2.0591947115384612 10.899495904221801  C 2.012920673076923 10.832493173703003  1.9897836538461537 10.75047258979206  1.9897836538461537 10.653434152488973  C 1.9897836538461537 10.625708884688091  1.9941907051282053 10.579500105019953  2.0030048076923075 10.51480781348456  L 2.571514423076923 7.049149338374291  L 0.16526442307692307 4.595463137996219  C 0.055088141025641024 4.47069943289225  0 4.359798361688721  0 4.262759924385634  C 0 4.091787439613526  0.12339743589743588 3.9855072463768124  0.37019230769230765 3.9439193446754883  L 3.688701923076923 3.4379332073093885  L 5.176081730769231 0.2841839949590417  C 5.259815705128205 0.09472799831968015  5.367788461538462 0  5.5 0  C 5.632211538461538 0  5.740184294871795 0.09472799831968015  5.82391826923077 0.2841839949590417  L 7.3112980769230775 3.4379332073093885  L 10.629807692307692 3.9439193446754883  Z " fill-rule="evenodd" />
    </mask>
  </defs>
  <g transform="matrix(1 0 0 1 -39 0 )">
    <path d="M 10.629807692307692 3.9439193446754883  C 10.876602564102564 3.9855072463768124  11 4.091787439613526  11 4.262759924385634  C 11 4.364419239655534  10.942708333333334 4.475320310859062  10.828125 4.595463137996219  L 8.428485576923077 7.049149338374291  L 8.996995192307692 10.51480781348456  C 9.001402243589745 10.547153959252258  9.00360576923077 10.593362738920394  9.00360576923077 10.653434152488973  C 9.00360576923077 10.75047258979206  8.98046875 10.832493173703003  8.934194711538462 10.899495904221801  C 8.887920673076923 10.966498634740601  8.820713141025642 11  8.732572115384615 11  C 8.648838141025642 11  8.560697115384615 10.972274732199118  8.468149038461538 10.916824196597354  L 5.5 9.281033396345306  L 2.5318509615384612 10.916824196597354  C 2.4348958333333335 10.972274732199118  2.3467548076923075 11  2.2674278846153846 11  C 2.1748798076923075 11  2.10546875 10.966498634740601  2.0591947115384612 10.899495904221801  C 2.012920673076923 10.832493173703003  1.9897836538461537 10.75047258979206  1.9897836538461537 10.653434152488973  C 1.9897836538461537 10.625708884688091  1.9941907051282053 10.579500105019953  2.0030048076923075 10.51480781348456  L 2.571514423076923 7.049149338374291  L 0.16526442307692307 4.595463137996219  C 0.055088141025641024 4.47069943289225  0 4.359798361688721  0 4.262759924385634  C 0 4.091787439613526  0.12339743589743588 3.9855072463768124  0.37019230769230765 3.9439193446754883  L 3.688701923076923 3.4379332073093885  L 5.176081730769231 0.2841839949590417  C 5.259815705128205 0.09472799831968015  5.367788461538462 0  5.5 0  C 5.632211538461538 0  5.740184294871795 0.09472799831968015  5.82391826923077 0.2841839949590417  L 7.3112980769230775 3.4379332073093885  L 10.629807692307692 3.9439193446754883  Z " fill-rule="nonzero" fill="rgba(0, 0, 0, 1)" stroke="none" transform="matrix(1 0 0 1 39 0 )" class="fill" />
    <path d="M 10.629807692307692 3.9439193446754883  C 10.876602564102564 3.9855072463768124  11 4.091787439613526  11 4.262759924385634  C 11 4.364419239655534  10.942708333333334 4.475320310859062  10.828125 4.595463137996219  L 8.428485576923077 7.049149338374291  L 8.996995192307692 10.51480781348456  C 9.001402243589745 10.547153959252258  9.00360576923077 10.593362738920394  9.00360576923077 10.653434152488973  C 9.00360576923077 10.75047258979206  8.98046875 10.832493173703003  8.934194711538462 10.899495904221801  C 8.887920673076923 10.966498634740601  8.820713141025642 11  8.732572115384615 11  C 8.648838141025642 11  8.560697115384615 10.972274732199118  8.468149038461538 10.916824196597354  L 5.5 9.281033396345306  L 2.5318509615384612 10.916824196597354  C 2.4348958333333335 10.972274732199118  2.3467548076923075 11  2.2674278846153846 11  C 2.1748798076923075 11  2.10546875 10.966498634740601  2.0591947115384612 10.899495904221801  C 2.012920673076923 10.832493173703003  1.9897836538461537 10.75047258979206  1.9897836538461537 10.653434152488973  C 1.9897836538461537 10.625708884688091  1.9941907051282053 10.579500105019953  2.0030048076923075 10.51480781348456  L 2.571514423076923 7.049149338374291  L 0.16526442307692307 4.595463137996219  C 0.055088141025641024 4.47069943289225  0 4.359798361688721  0 4.262759924385634  C 0 4.091787439613526  0.12339743589743588 3.9855072463768124  0.37019230769230765 3.9439193446754883  L 3.688701923076923 3.4379332073093885  L 5.176081730769231 0.2841839949590417  C 5.259815705128205 0.09472799831968015  5.367788461538462 0  5.5 0  C 5.632211538461538 0  5.740184294871795 0.09472799831968015  5.82391826923077 0.2841839949590417  L 7.3112980769230775 3.4379332073093885  L 10.629807692307692 3.9439193446754883  Z " stroke-width="0" stroke-dasharray="0" stroke="rgba(255, 255, 255, 0)" fill="none" transform="matrix(1 0 0 1 39 0 )" class="stroke" mask="url(#Clip20)" />
  </g>
</svg>