<?xml version="1.0" encoding="utf-8"?>
<svg version="1.1" xmlns:xlink="http://www.w3.org/1999/xlink" width="47px" height="24px" xmlns="http://www.w3.org/2000/svg">
  <defs>
    <pattern id="BGPattern" patternUnits="userSpaceOnUse" alignment="0 0" imageRepeat="None" />
    <mask fill="white" id="Clip76">
      <path d="M 0 24  L 0 0  L 47 0  L 47 24  L 0 24  Z " fill-rule="evenodd" />
    </mask>
  </defs>
  <g transform="matrix(1 0 0 1 -81 -25 )">
    <path d="M 0 24  L 0 0  L 47 0  L 47 24  L 0 24  Z " fill-rule="nonzero" fill="rgba(242, 242, 242, 1)" stroke="none" transform="matrix(1 0 0 1 81 25 )" class="fill" />
    <path d="M 0 24  L 0 0  L 47 0  L 47 24  L 0 24  Z " stroke-width="2" stroke-dasharray="0" stroke="rgba(121, 121, 121, 1)" fill="none" transform="matrix(1 0 0 1 81 25 )" class="stroke" mask="url(#Clip76)" />
    <path d="M 46.127949011444436 0.44530263245390433  L 0.8720509885555627 23.554697367546094  M 0.8720509885555627 0.44530263245390433  L 46.127949011444436 23.554697367546094  " stroke-width="1" stroke-dasharray="0" stroke="rgba(121, 121, 121, 1)" fill="none" transform="matrix(1 0 0 1 81 25 )" class="stroke" />
  </g>
</svg>