<?xml version="1.0" encoding="utf-8"?>
<svg version="1.1" xmlns:xlink="http://www.w3.org/1999/xlink" width="16px" height="18px" xmlns="http://www.w3.org/2000/svg">
  <defs>
    <pattern id="BGPattern" patternUnits="userSpaceOnUse" alignment="0 0" imageRepeat="None" />
    <mask fill="white" id="Clip77">
      <path d="M 15.72508591065292 8.585170340681364  C 15.908361970217642 8.705410821643286  16 8.843687374749498  16 9  C 16 9.1563126252505  15.908361970217642 9.294589178356713  15.72508591065292 9.414829659318636  L 2.9140893470790377 17.819639278557116  C 2.7308132875143185 17.939879759519037  2.520045819014891 18  2.281786941580756 18  C 2.043528064146621 18  1.8327605956471937 17.939879759519037  1.6494845360824741 17.819639278557116  L 0.27491408934707906 16.917835671342687  C 0.09163802978235974 16.79759519038076  0 16.65931863727455  0 16.50300601202405  C 0 16.346693386773545  0.09163802978235974 16.208416833667336  0.27491408934707906 16.08817635270541  L 11.079037800687285 9  L 0.27491408934707906 1.911823647294589  C 0.09163802978235974 1.7915831663326645  0 1.6533066132264522  0 1.4969939879759524  C 0 1.3406813627254486  0.09163802978235974 1.2024048096192363  0.27491408934707906 1.0821643286573137  L 1.6494845360824741 0.18036072144288595  C 1.8327605956471937 0.06012024048096132  2.043528064146621 0  2.281786941580756 0  C 2.520045819014891 0  2.7308132875143185 0.06012024048096132  2.9140893470790377 0.18036072144288595  L 15.72508591065292 8.585170340681364  Z " fill-rule="evenodd" />
    </mask>
  </defs>
  <g transform="matrix(1 0 0 1 -368 -3 )">
    <path d="M 15.72508591065292 8.585170340681364  C 15.908361970217642 8.705410821643286  16 8.843687374749498  16 9  C 16 9.1563126252505  15.908361970217642 9.294589178356713  15.72508591065292 9.414829659318636  L 2.9140893470790377 17.819639278557116  C 2.7308132875143185 17.939879759519037  2.520045819014891 18  2.281786941580756 18  C 2.043528064146621 18  1.8327605956471937 17.939879759519037  1.6494845360824741 17.819639278557116  L 0.27491408934707906 16.917835671342687  C 0.09163802978235974 16.79759519038076  0 16.65931863727455  0 16.50300601202405  C 0 16.346693386773545  0.09163802978235974 16.208416833667336  0.27491408934707906 16.08817635270541  L 11.079037800687285 9  L 0.27491408934707906 1.911823647294589  C 0.09163802978235974 1.7915831663326645  0 1.6533066132264522  0 1.4969939879759524  C 0 1.3406813627254486  0.09163802978235974 1.2024048096192363  0.27491408934707906 1.0821643286573137  L 1.6494845360824741 0.18036072144288595  C 1.8327605956471937 0.06012024048096132  2.043528064146621 0  2.281786941580756 0  C 2.520045819014891 0  2.7308132875143185 0.06012024048096132  2.9140893470790377 0.18036072144288595  L 15.72508591065292 8.585170340681364  Z " fill-rule="nonzero" fill="rgba(30, 152, 215, 1)" stroke="none" transform="matrix(1 0 0 1 368 3 )" class="fill" />
    <path d="M 15.72508591065292 8.585170340681364  C 15.908361970217642 8.705410821643286  16 8.843687374749498  16 9  C 16 9.1563126252505  15.908361970217642 9.294589178356713  15.72508591065292 9.414829659318636  L 2.9140893470790377 17.819639278557116  C 2.7308132875143185 17.939879759519037  2.520045819014891 18  2.281786941580756 18  C 2.043528064146621 18  1.8327605956471937 17.939879759519037  1.6494845360824741 17.819639278557116  L 0.27491408934707906 16.917835671342687  C 0.09163802978235974 16.79759519038076  0 16.65931863727455  0 16.50300601202405  C 0 16.346693386773545  0.09163802978235974 16.208416833667336  0.27491408934707906 16.08817635270541  L 11.079037800687285 9  L 0.27491408934707906 1.911823647294589  C 0.09163802978235974 1.7915831663326645  0 1.6533066132264522  0 1.4969939879759524  C 0 1.3406813627254486  0.09163802978235974 1.2024048096192363  0.27491408934707906 1.0821643286573137  L 1.6494845360824741 0.18036072144288595  C 1.8327605956471937 0.06012024048096132  2.043528064146621 0  2.281786941580756 0  C 2.520045819014891 0  2.7308132875143185 0.06012024048096132  2.9140893470790377 0.18036072144288595  L 15.72508591065292 8.585170340681364  Z " stroke-width="0" stroke-dasharray="0" stroke="rgba(255, 255, 255, 0)" fill="none" transform="matrix(1 0 0 1 368 3 )" class="stroke" mask="url(#Clip77)" />
  </g>
</svg>