<?xml version="1.0" encoding="utf-8"?>
<svg version="1.1" xmlns:xlink="http://www.w3.org/1999/xlink" width="44px" height="40px" xmlns="http://www.w3.org/2000/svg">
  <defs>
    <pattern id="BGPattern" patternUnits="userSpaceOnUse" alignment="0 0" imageRepeat="None" />
    <mask fill="white" id="Clip103">
      <path d="M 0 40  L 0 0  L 44 0  L 44 40  L 0 40  Z " fill-rule="evenodd" />
    </mask>
  </defs>
  <g transform="matrix(1 0 0 1 -253 -325 )">
    <path d="M 0 40  L 0 0  L 44 0  L 44 40  L 0 40  Z " fill-rule="nonzero" fill="rgba(242, 242, 242, 1)" stroke="none" transform="matrix(1 0 0 1 253 325 )" class="fill" />
    <path d="M 0 40  L 0 0  L 44 0  L 44 40  L 0 40  Z " stroke-width="2" stroke-dasharray="0" stroke="rgba(121, 121, 121, 1)" fill="none" transform="matrix(1 0 0 1 253 325 )" class="stroke" mask="url(#Clip103)" />
    <path d="M 43.59303295963223 0.3699700366979719  L 0.4069670403677691 39.63002996330203  M 0.4069670403677691 0.3699700366979719  L 43.59303295963223 39.63002996330203  " stroke-width="1" stroke-dasharray="0" stroke="rgba(121, 121, 121, 1)" fill="none" transform="matrix(1 0 0 1 253 325 )" class="stroke" />
  </g>
</svg>