<?xml version="1.0" encoding="utf-8"?>
<svg version="1.1" xmlns:xlink="http://www.w3.org/1999/xlink" width="8px" height="13px" xmlns="http://www.w3.org/2000/svg">
  <defs>
    <pattern id="BGPattern" patternUnits="userSpaceOnUse" alignment="0 0" imageRepeat="None" />
    <mask fill="white" id="Clip18">
      <path d="M 7.6571428571428575 9.62962962962963  C 7.802597402597403 9.62962962962963  7.903030303030304 9.677276234567902  7.958441558441558 9.772569444444445  C 8.013852813852814 9.867862654320989  7.996536796536797 9.955632716049381  7.906493506493507 10.03587962962963  L 4.27012987012987 12.924768518518517  C 4.2008658008658015 12.974922839506172  4.121212121212121 13  4.031168831168831 13  C 3.9341991341991345 13  3.8510822510822513 12.974922839506172  3.7818181818181817 12.924768518518517  L 0.09350649350649351 10.03587962962963  C 0.0034632034632034554 9.955632716049381  -0.01385281385281386 9.867862654320989  0.04155844155844156 9.772569444444445  C 0.1038961038961039 9.677276234567902  0.2043290043290043 9.62962962962963  0.34285714285714286 9.62962962962963  L 2.67012987012987 9.62962962962963  L 2.67012987012987 0.24074074074074037  C 2.67012987012987 0.17052469135802328  2.7012987012987013 0.11284722222222254  2.7636363636363637 0.06770833333333381  C 2.825974025974026 0.022569444444445086  2.905627705627706 0  3.0025974025974027 0  L 4.997402597402598 0  C 5.094372294372294 0  5.174025974025974 0.022569444444445086  5.236363636363636 0.06770833333333381  C 5.298701298701299 0.11284722222222254  5.32987012987013 0.17052469135802328  5.32987012987013 0.24074074074074037  L 5.32987012987013 9.62962962962963  L 7.6571428571428575 9.62962962962963  Z " fill-rule="evenodd" />
    </mask>
  </defs>
  <g transform="matrix(1 0 0 1 -328 -130 )">
    <path d="M 7.6571428571428575 9.62962962962963  C 7.802597402597403 9.62962962962963  7.903030303030304 9.677276234567902  7.958441558441558 9.772569444444445  C 8.013852813852814 9.867862654320989  7.996536796536797 9.955632716049381  7.906493506493507 10.03587962962963  L 4.27012987012987 12.924768518518517  C 4.2008658008658015 12.974922839506172  4.121212121212121 13  4.031168831168831 13  C 3.9341991341991345 13  3.8510822510822513 12.974922839506172  3.7818181818181817 12.924768518518517  L 0.09350649350649351 10.03587962962963  C 0.0034632034632034554 9.955632716049381  -0.01385281385281386 9.867862654320989  0.04155844155844156 9.772569444444445  C 0.1038961038961039 9.677276234567902  0.2043290043290043 9.62962962962963  0.34285714285714286 9.62962962962963  L 2.67012987012987 9.62962962962963  L 2.67012987012987 0.24074074074074037  C 2.67012987012987 0.17052469135802328  2.7012987012987013 0.11284722222222254  2.7636363636363637 0.06770833333333381  C 2.825974025974026 0.022569444444445086  2.905627705627706 0  3.0025974025974027 0  L 4.997402597402598 0  C 5.094372294372294 0  5.174025974025974 0.022569444444445086  5.236363636363636 0.06770833333333381  C 5.298701298701299 0.11284722222222254  5.32987012987013 0.17052469135802328  5.32987012987013 0.24074074074074037  L 5.32987012987013 9.62962962962963  L 7.6571428571428575 9.62962962962963  Z " fill-rule="nonzero" fill="rgba(2, 133, 189, 1)" stroke="none" transform="matrix(1 0 0 1 328 130 )" class="fill" />
    <path d="M 7.6571428571428575 9.62962962962963  C 7.802597402597403 9.62962962962963  7.903030303030304 9.677276234567902  7.958441558441558 9.772569444444445  C 8.013852813852814 9.867862654320989  7.996536796536797 9.955632716049381  7.906493506493507 10.03587962962963  L 4.27012987012987 12.924768518518517  C 4.2008658008658015 12.974922839506172  4.121212121212121 13  4.031168831168831 13  C 3.9341991341991345 13  3.8510822510822513 12.974922839506172  3.7818181818181817 12.924768518518517  L 0.09350649350649351 10.03587962962963  C 0.0034632034632034554 9.955632716049381  -0.01385281385281386 9.867862654320989  0.04155844155844156 9.772569444444445  C 0.1038961038961039 9.677276234567902  0.2043290043290043 9.62962962962963  0.34285714285714286 9.62962962962963  L 2.67012987012987 9.62962962962963  L 2.67012987012987 0.24074074074074037  C 2.67012987012987 0.17052469135802328  2.7012987012987013 0.11284722222222254  2.7636363636363637 0.06770833333333381  C 2.825974025974026 0.022569444444445086  2.905627705627706 0  3.0025974025974027 0  L 4.997402597402598 0  C 5.094372294372294 0  5.174025974025974 0.022569444444445086  5.236363636363636 0.06770833333333381  C 5.298701298701299 0.11284722222222254  5.32987012987013 0.17052469135802328  5.32987012987013 0.24074074074074037  L 5.32987012987013 9.62962962962963  L 7.6571428571428575 9.62962962962963  Z " stroke-width="0" stroke-dasharray="0" stroke="rgba(255, 255, 255, 0)" fill="none" transform="matrix(1 0 0 1 328 130 )" class="stroke" mask="url(#Clip18)" />
  </g>
</svg>