<?xml version="1.0" encoding="utf-8"?>
<svg version="1.1" xmlns:xlink="http://www.w3.org/1999/xlink" width="14px" height="19px" xmlns="http://www.w3.org/2000/svg">
  <defs>
    <pattern id="BGPattern" patternUnits="userSpaceOnUse" alignment="0 0" imageRepeat="None" />
    <mask fill="white" id="Clip19">
      <path d="M 12.6 17.204230006609386  L 12.6 1.6074025115664248  L 1.4000000000000001 1.6074025115664248  L 1.4000000000000001 17.204230006609386  L 6.0265625 12.105750165234634  L 7 11.038334434897553  L 7.973437500000001 12.105750165234634  L 12.6 17.204230006609386  Z M 1.26875 0  L 12.731250000000001 0  C 12.898958333333335 0  13.059375000000001 0.03767349636483841  13.2125 0.11302048909451523  C 13.453125 0.22185503414848817  13.64453125 0.39347873981053005  13.78671875 0.6278916060806345  C 13.928906249999999 0.8623044723507369  14 1.1218330028640655  14 1.4064771976206205  L 14 17.59352280237938  C 14 17.878166997135935  13.928906249999999 18.13769552764926  13.78671875 18.372108393919365  C 13.64453125 18.60652126018947  13.453125 18.778144965851506  13.2125 18.886979510905483  C 13.073958333333335 18.953954615554085  12.913541666666667 18.98744216787839  12.731250000000001 18.98744216787839  C 12.38125 18.98744216787839  12.078645833333335 18.853491958581184  11.823437499999999 18.585591539986783  L 7 13.261070720423  L 2.1765624999999997 18.585591539986783  C 1.9140625 18.86186384666226  1.6114583333333334 19  1.26875 19  C 1.1010416666666667 19  0.9406249999999999 18.96232650363516  0.7875 18.886979510905483  C 0.546875 18.778144965851506  0.35546875 18.60652126018947  0.21328125 18.372108393919365  C 0.07109375 18.13769552764926  0 17.878166997135935  0 17.59352280237938  L 0 1.4064771976206205  C 0 1.1218330028640655  0.07109375 0.8623044723507369  0.21328125 0.6278916060806345  C 0.35546875 0.39347873981053005  0.546875 0.22185503414848817  0.7875 0.11302048909451523  C 0.9406249999999999 0.03767349636483841  1.1010416666666667 0  1.26875 0  Z " fill-rule="evenodd" />
    </mask>
  </defs>
  <g transform="matrix(1 0 0 1 -321 -78 )">
    <path d="M 12.6 17.204230006609386  L 12.6 1.6074025115664248  L 1.4000000000000001 1.6074025115664248  L 1.4000000000000001 17.204230006609386  L 6.0265625 12.105750165234634  L 7 11.038334434897553  L 7.973437500000001 12.105750165234634  L 12.6 17.204230006609386  Z M 1.26875 0  L 12.731250000000001 0  C 12.898958333333335 0  13.059375000000001 0.03767349636483841  13.2125 0.11302048909451523  C 13.453125 0.22185503414848817  13.64453125 0.39347873981053005  13.78671875 0.6278916060806345  C 13.928906249999999 0.8623044723507369  14 1.1218330028640655  14 1.4064771976206205  L 14 17.59352280237938  C 14 17.878166997135935  13.928906249999999 18.13769552764926  13.78671875 18.372108393919365  C 13.64453125 18.60652126018947  13.453125 18.778144965851506  13.2125 18.886979510905483  C 13.073958333333335 18.953954615554085  12.913541666666667 18.98744216787839  12.731250000000001 18.98744216787839  C 12.38125 18.98744216787839  12.078645833333335 18.853491958581184  11.823437499999999 18.585591539986783  L 7 13.261070720423  L 2.1765624999999997 18.585591539986783  C 1.9140625 18.86186384666226  1.6114583333333334 19  1.26875 19  C 1.1010416666666667 19  0.9406249999999999 18.96232650363516  0.7875 18.886979510905483  C 0.546875 18.778144965851506  0.35546875 18.60652126018947  0.21328125 18.372108393919365  C 0.07109375 18.13769552764926  0 17.878166997135935  0 17.59352280237938  L 0 1.4064771976206205  C 0 1.1218330028640655  0.07109375 0.8623044723507369  0.21328125 0.6278916060806345  C 0.35546875 0.39347873981053005  0.546875 0.22185503414848817  0.7875 0.11302048909451523  C 0.9406249999999999 0.03767349636483841  1.1010416666666667 0  1.26875 0  Z " fill-rule="nonzero" fill="rgba(2, 133, 189, 1)" stroke="none" transform="matrix(1 0 0 1 321 78 )" class="fill" />
    <path d="M 12.6 17.204230006609386  L 12.6 1.6074025115664248  L 1.4000000000000001 1.6074025115664248  L 1.4000000000000001 17.204230006609386  L 6.0265625 12.105750165234634  L 7 11.038334434897553  L 7.973437500000001 12.105750165234634  L 12.6 17.204230006609386  Z " stroke-width="0" stroke-dasharray="0" stroke="rgba(255, 255, 255, 0)" fill="none" transform="matrix(1 0 0 1 321 78 )" class="stroke" mask="url(#Clip19)" />
    <path d="M 1.26875 0  L 12.731250000000001 0  C 12.898958333333335 0  13.059375000000001 0.03767349636483841  13.2125 0.11302048909451523  C 13.453125 0.22185503414848817  13.64453125 0.39347873981053005  13.78671875 0.6278916060806345  C 13.928906249999999 0.8623044723507369  14 1.1218330028640655  14 1.4064771976206205  L 14 17.59352280237938  C 14 17.878166997135935  13.928906249999999 18.13769552764926  13.78671875 18.372108393919365  C 13.64453125 18.60652126018947  13.453125 18.778144965851506  13.2125 18.886979510905483  C 13.073958333333335 18.953954615554085  12.913541666666667 18.98744216787839  12.731250000000001 18.98744216787839  C 12.38125 18.98744216787839  12.078645833333335 18.853491958581184  11.823437499999999 18.585591539986783  L 7 13.261070720423  L 2.1765624999999997 18.585591539986783  C 1.9140625 18.86186384666226  1.6114583333333334 19  1.26875 19  C 1.1010416666666667 19  0.9406249999999999 18.96232650363516  0.7875 18.886979510905483  C 0.546875 18.778144965851506  0.35546875 18.60652126018947  0.21328125 18.372108393919365  C 0.07109375 18.13769552764926  0 17.878166997135935  0 17.59352280237938  L 0 1.4064771976206205  C 0 1.1218330028640655  0.07109375 0.8623044723507369  0.21328125 0.6278916060806345  C 0.35546875 0.39347873981053005  0.546875 0.22185503414848817  0.7875 0.11302048909451523  C 0.9406249999999999 0.03767349636483841  1.1010416666666667 0  1.26875 0  Z " stroke-width="0" stroke-dasharray="0" stroke="rgba(255, 255, 255, 0)" fill="none" transform="matrix(1 0 0 1 321 78 )" class="stroke" mask="url(#Clip19)" />
  </g>
</svg>