<?xml version="1.0" encoding="utf-8"?>
<svg version="1.1" xmlns:xlink="http://www.w3.org/1999/xlink" width="29px" height="34px" xmlns="http://www.w3.org/2000/svg">
  <defs>
    <pattern id="BGPattern" patternUnits="userSpaceOnUse" alignment="0 0" imageRepeat="None" />
    <mask fill="white" id="Clip28">
      <path d="M 8.458333333333334 0  L 20.541666666666668 0  C 22.870225694444446 0  24.862087673611114 0.5913318452380967  26.517252604166668 1.7739955357142863  C 28.17241753472222 2.956659226190476  29 4.389136904761903  29 6.071428571428573  L 29 23.071428571428573  C 29 24.71577380952381  28.210177951388886 26.119791666666668  26.630533854166668 27.283482142857146  C 25.050889756944446 28.447172619047617  23.128255208333332 29.060639880952383  20.862630208333332 29.123883928571427  L 24.884114583333332 32.956473214285715  C 25.085503472222225 33.14620535714286  25.135850694444446 33.367559523809526  25.03515625 33.620535714285715  C 24.934461805555557 33.873511904761905  24.745659722222225 34  24.46875 34  L 4.53125 34  C 4.254340277777778 34  4.065538194444445 33.873511904761905  3.96484375 33.620535714285715  C 3.864149305555556 33.367559523809526  3.914496527777778 33.14620535714286  4.115885416666667 32.956473214285715  L 8.137369791666666 29.123883928571427  C 5.871744791666667 29.060639880952383  3.949110243055556 28.447172619047617  2.3694661458333335 27.283482142857146  C 0.789822048611111 26.119791666666668  0 24.71577380952381  0 23.071428571428573  L 0 6.071428571428573  C 0 4.389136904761903  0.8275824652777777 2.956659226190476  2.4827473958333335 1.7739955357142863  C 4.137912326388889 0.5913318452380967  6.129774305555555 0  8.458333333333334 0  Z M 11.932291666666666 24.4375  C 12.637152777777779 25.145833333333332  13.493055555555557 25.5  14.5 25.5  C 15.506944444444445 25.5  16.362847222222225 25.145833333333332  17.067708333333332 24.4375  C 17.772569444444446 23.72916666666666  18.125000000000004 22.869047619047617  18.125 21.857142857142854  C 18.125000000000004 20.84523809523809  17.772569444444446 19.985119047619047  17.067708333333332 19.276785714285715  C 16.362847222222225 18.56845238095238  15.506944444444445 18.214285714285715  14.5 18.214285714285715  C 13.493055555555557 18.214285714285715  12.637152777777779 18.56845238095238  11.932291666666666 19.276785714285715  C 11.227430555555557 19.985119047619047  10.875 20.84523809523809  10.875 21.857142857142854  C 10.875 22.869047619047617  11.227430555555557 23.72916666666666  11.932291666666666 24.4375  Z M 4 15  L 25 15  L 25 5  L 4 5  L 4 15  Z " fill-rule="evenodd" />
    </mask>
  </defs>
  <g transform="matrix(1 0 0 1 -31 -121 )">
    <path d="M 8.458333333333334 0  L 20.541666666666668 0  C 22.870225694444446 0  24.862087673611114 0.5913318452380967  26.517252604166668 1.7739955357142863  C 28.17241753472222 2.956659226190476  29 4.389136904761903  29 6.071428571428573  L 29 23.071428571428573  C 29 24.71577380952381  28.210177951388886 26.119791666666668  26.630533854166668 27.283482142857146  C 25.050889756944446 28.447172619047617  23.128255208333332 29.060639880952383  20.862630208333332 29.123883928571427  L 24.884114583333332 32.956473214285715  C 25.085503472222225 33.14620535714286  25.135850694444446 33.367559523809526  25.03515625 33.620535714285715  C 24.934461805555557 33.873511904761905  24.745659722222225 34  24.46875 34  L 4.53125 34  C 4.254340277777778 34  4.065538194444445 33.873511904761905  3.96484375 33.620535714285715  C 3.864149305555556 33.367559523809526  3.914496527777778 33.14620535714286  4.115885416666667 32.956473214285715  L 8.137369791666666 29.123883928571427  C 5.871744791666667 29.060639880952383  3.949110243055556 28.447172619047617  2.3694661458333335 27.283482142857146  C 0.789822048611111 26.119791666666668  0 24.71577380952381  0 23.071428571428573  L 0 6.071428571428573  C 0 4.389136904761903  0.8275824652777777 2.956659226190476  2.4827473958333335 1.7739955357142863  C 4.137912326388889 0.5913318452380967  6.129774305555555 0  8.458333333333334 0  Z M 11.932291666666666 24.4375  C 12.637152777777779 25.145833333333332  13.493055555555557 25.5  14.5 25.5  C 15.506944444444445 25.5  16.362847222222225 25.145833333333332  17.067708333333332 24.4375  C 17.772569444444446 23.72916666666666  18.125000000000004 22.869047619047617  18.125 21.857142857142854  C 18.125000000000004 20.84523809523809  17.772569444444446 19.985119047619047  17.067708333333332 19.276785714285715  C 16.362847222222225 18.56845238095238  15.506944444444445 18.214285714285715  14.5 18.214285714285715  C 13.493055555555557 18.214285714285715  12.637152777777779 18.56845238095238  11.932291666666666 19.276785714285715  C 11.227430555555557 19.985119047619047  10.875 20.84523809523809  10.875 21.857142857142854  C 10.875 22.869047619047617  11.227430555555557 23.72916666666666  11.932291666666666 24.4375  Z M 4 15  L 25 15  L 25 5  L 4 5  L 4 15  Z " fill-rule="nonzero" fill="rgba(51, 51, 51, 1)" stroke="none" transform="matrix(1 0 0 1 31 121 )" class="fill" />
    <path d="M 8.458333333333334 0  L 20.541666666666668 0  C 22.870225694444446 0  24.862087673611114 0.5913318452380967  26.517252604166668 1.7739955357142863  C 28.17241753472222 2.956659226190476  29 4.389136904761903  29 6.071428571428573  L 29 23.071428571428573  C 29 24.71577380952381  28.210177951388886 26.119791666666668  26.630533854166668 27.283482142857146  C 25.050889756944446 28.447172619047617  23.128255208333332 29.060639880952383  20.862630208333332 29.123883928571427  L 24.884114583333332 32.956473214285715  C 25.085503472222225 33.14620535714286  25.135850694444446 33.367559523809526  25.03515625 33.620535714285715  C 24.934461805555557 33.873511904761905  24.745659722222225 34  24.46875 34  L 4.53125 34  C 4.254340277777778 34  4.065538194444445 33.873511904761905  3.96484375 33.620535714285715  C 3.864149305555556 33.367559523809526  3.914496527777778 33.14620535714286  4.115885416666667 32.956473214285715  L 8.137369791666666 29.123883928571427  C 5.871744791666667 29.060639880952383  3.949110243055556 28.447172619047617  2.3694661458333335 27.283482142857146  C 0.789822048611111 26.119791666666668  0 24.71577380952381  0 23.071428571428573  L 0 6.071428571428573  C 0 4.389136904761903  0.8275824652777777 2.956659226190476  2.4827473958333335 1.7739955357142863  C 4.137912326388889 0.5913318452380967  6.129774305555555 0  8.458333333333334 0  Z " stroke-width="0" stroke-dasharray="0" stroke="rgba(255, 255, 255, 0)" fill="none" transform="matrix(1 0 0 1 31 121 )" class="stroke" mask="url(#Clip28)" />
    <path d="M 11.932291666666666 24.4375  C 12.637152777777779 25.145833333333332  13.493055555555557 25.5  14.5 25.5  C 15.506944444444445 25.5  16.362847222222225 25.145833333333332  17.067708333333332 24.4375  C 17.772569444444446 23.72916666666666  18.125000000000004 22.869047619047617  18.125 21.857142857142854  C 18.125000000000004 20.84523809523809  17.772569444444446 19.985119047619047  17.067708333333332 19.276785714285715  C 16.362847222222225 18.56845238095238  15.506944444444445 18.214285714285715  14.5 18.214285714285715  C 13.493055555555557 18.214285714285715  12.637152777777779 18.56845238095238  11.932291666666666 19.276785714285715  C 11.227430555555557 19.985119047619047  10.875 20.84523809523809  10.875 21.857142857142854  C 10.875 22.869047619047617  11.227430555555557 23.72916666666666  11.932291666666666 24.4375  Z " stroke-width="0" stroke-dasharray="0" stroke="rgba(255, 255, 255, 0)" fill="none" transform="matrix(1 0 0 1 31 121 )" class="stroke" mask="url(#Clip28)" />
    <path d="M 4 15  L 25 15  L 25 5  L 4 5  L 4 15  Z " stroke-width="0" stroke-dasharray="0" stroke="rgba(255, 255, 255, 0)" fill="none" transform="matrix(1 0 0 1 31 121 )" class="stroke" mask="url(#Clip28)" />
  </g>
</svg>