<?xml version="1.0" encoding="utf-8"?>
<svg version="1.1" xmlns:xlink="http://www.w3.org/1999/xlink" width="62px" height="64px" xmlns="http://www.w3.org/2000/svg">
  <defs>
    <pattern id="BGPattern" patternUnits="userSpaceOnUse" alignment="0 0" imageRepeat="None" />
    <mask fill="white" id="Clip43">
      <path d="M 15.81670673076923 48.27777777777778  C 16.748197115384617 49.2037037037037  17.21394230769231 50.32098765432098  17.21394230769231 51.62962962962963  C 17.21394230769231 52.938271604938265  16.748197115384617 54.05555555555556  15.81670673076923 54.98148148148148  C 14.885216346153845 55.907407407407405  13.761217948717949 56.37037037037037  12.444711538461538 56.37037037037037  C 11.153044871794874 56.37037037037037  10.035256410256412 55.901234567901234  9.091346153846155 54.96296296296296  C 8.147435897435898 54.0246913580247  7.675480769230769 52.91358024691358  7.675480769230769 51.62962962962963  C 7.675480769230769 50.32098765432098  8.141225961538462 49.2037037037037  9.072716346153845 48.27777777777778  C 10.00420673076923 47.35185185185185  11.128205128205128 46.888888888888886  12.444711538461538 46.888888888888886  C 13.761217948717949 46.888888888888886  14.885216346153845 47.35185185185185  15.81670673076923 48.27777777777778  Z M 34.37199519230769 55.907407407407405  C 35.30348557692308 56.833333333333336  35.76923076923077 57.95061728395062  35.76923076923077 59.25925925925926  C 35.76923076923077 60.5679012345679  35.30348557692308 61.68518518518518  34.37199519230769 62.611111111111114  C 33.44050480769231 63.53703703703704  32.31650641025641 64  31 64  C 29.68349358974359 64  28.559495192307693 63.53703703703704  27.62800480769231 62.611111111111114  C 26.696514423076923 61.68518518518518  26.23076923076923 60.5679012345679  26.23076923076923 59.25925925925926  C 26.23076923076923 57.95061728395062  26.696514423076923 56.833333333333336  27.62800480769231 55.907407407407405  C 28.559495192307693 54.98148148148148  29.68349358974359 54.51851851851852  31 54.51851851851852  C 32.31650641025641 54.51851851851852  33.44050480769231 54.98148148148148  34.37199519230769 55.907407407407405  Z M 8.141225961538462 29.833333333333336  C 9.072716346153845 30.75925925925926  9.538461538461538 31.876543209876544  9.538461538461538 33.18518518518519  C 9.538461538461538 34.49382716049382  9.072716346153845 35.611111111111114  8.141225961538462 36.53703703703704  C 7.2097355769230775 37.46296296296296  6.085737179487181 37.925925925925924  4.769230769230769 37.925925925925924  C 3.4527243589743595 37.925925925925924  2.3287259615384612 37.46296296296296  1.3972355769230769 36.53703703703704  C 0.46574519230769235 35.611111111111114  0 34.49382716049382  0 33.18518518518519  C 0 31.876543209876544  0.46574519230769235 30.75925925925926  1.3972355769230769 29.833333333333336  C 2.3287259615384612 28.907407407407405  3.4527243589743595 28.444444444444443  4.769230769230769 28.444444444444443  C 6.085737179487181 28.444444444444443  7.2097355769230775 28.907407407407405  8.141225961538462 29.833333333333336  Z M 52.92728365384615 48.27777777777778  C 53.85877403846154 49.2037037037037  54.32451923076923 50.32098765432098  54.32451923076923 51.62962962962963  C 54.32451923076923 52.91358024691358  53.85256410256411 54.0246913580247  52.90865384615385 54.96296296296296  C 51.96474358974359 55.901234567901234  50.84695512820513 56.37037037037037  49.55528846153846 56.37037037037037  C 48.23878205128205 56.37037037037037  47.11478365384615 55.907407407407405  46.18329326923077 54.98148148148148  C 45.25180288461538 54.05555555555556  44.78605769230769 52.938271604938265  44.78605769230769 51.62962962962963  C 44.78605769230769 50.32098765432098  45.25180288461538 49.2037037037037  46.18329326923077 48.27777777777778  C 47.11478365384615 47.35185185185185  48.23878205128205 46.888888888888886  49.55528846153846 46.888888888888886  C 50.871794871794876 46.888888888888886  51.99579326923077 47.35185185185185  52.92728365384615 48.27777777777778  Z M 16.655048076923077 10.555555555555557  C 17.822516025641026 11.716049382716044  18.40625 13.111111111111114  18.40625 14.74074074074074  C 18.40625 16.370370370370374  17.822516025641026 17.765432098765423  16.655048076923077 18.925925925925924  C 15.487580128205128 20.086419753086417  14.084134615384615 20.666666666666664  12.444711538461538 20.666666666666664  C 10.805288461538462 20.666666666666664  9.401842948717949 20.086419753086417  8.234375 18.925925925925924  C 7.066907051282052 17.765432098765423  6.4831730769230775 16.370370370370374  6.4831730769230775 14.74074074074074  C 6.4831730769230775 13.111111111111114  7.066907051282052 11.716049382716044  8.234375 10.555555555555557  C 9.401842948717949 9.395061728395056  10.805288461538462 8.814814814814817  12.444711538461538 8.814814814814817  C 14.084134615384615 8.814814814814817  15.487580128205128 9.395061728395056  16.655048076923077 10.555555555555557  Z M 60.60276442307692 29.833333333333336  C 61.53425480769232 30.75925925925926  62.000000000000014 31.876543209876544  62 33.18518518518519  C 62.000000000000014 34.49382716049382  61.53425480769232 35.611111111111114  60.60276442307692 36.53703703703704  C 59.67127403846155 37.46296296296296  58.54727564102565 37.925925925925924  57.23076923076923 37.925925925925924  C 55.914262820512825 37.925925925925924  54.79026442307692 37.46296296296296  53.85877403846154 36.53703703703704  C 52.92728365384615 35.611111111111114  52.46153846153846 34.49382716049382  52.46153846153846 33.18518518518519  C 52.46153846153846 31.876543209876544  52.92728365384615 30.75925925925926  53.85877403846154 29.833333333333336  C 54.79026442307692 28.907407407407405  55.914262820512825 28.444444444444443  57.23076923076923 28.444444444444443  C 58.54727564102565 28.444444444444443  59.67127403846155 28.907407407407405  60.60276442307692 29.833333333333336  Z M 36.06730769230769 2.074074074074076  C 37.458333333333336 3.456790123456784  38.15384615384615 5.135802469135797  38.15384615384615 7.111111111111114  C 38.15384615384615 9.086419753086417  37.458333333333336 10.765432098765423  36.06730769230769 12.148148148148145  C 34.67628205128205 13.53086419753086  32.98717948717949 14.222222222222221  31 14.222222222222221  C 29.012820512820518 14.222222222222221  27.323717948717956 13.53086419753086  25.93269230769231 12.148148148148145  C 24.541666666666668 10.765432098765423  23.846153846153847 9.086419753086417  23.846153846153847 7.111111111111114  C 23.846153846153847 5.135802469135797  24.541666666666668 3.456790123456784  25.93269230769231 2.074074074074076  C 27.323717948717956 0.6913580246913611  29.012820512820518 0  31 0  C 32.98717948717949 0  34.67628205128205 0.6913580246913611  36.06730769230769 2.074074074074076  Z M 55.44230769230769 8.888888888888886  C 57.08173076923077 10.518518518518519  57.90144230769231 12.469135802469133  57.90144230769231 14.74074074074074  C 57.90144230769231 17.037037037037038  57.08173076923077 18.993827160493822  55.44230769230769 20.611111111111114  C 53.80288461538462 22.228395061728392  51.840544871794876 23.037037037037038  49.55528846153846 23.037037037037038  C 47.24519230769231 23.037037037037038  45.27664262820513 22.228395061728392  43.64963942307692 20.611111111111114  C 42.02263621794872 18.993827160493822  41.20913461538462 17.037037037037038  41.20913461538462 14.74074074074074  C 41.20913461538462 12.469135802469133  42.02263621794872 10.518518518518519  43.64963942307692 8.888888888888886  C 45.27664262820513 7.2592592592592595  47.24519230769231 6.444444444444443  49.55528846153846 6.444444444444443  C 51.840544871794876 6.444444444444443  53.80288461538462 7.2592592592592595  55.44230769230769 8.888888888888886  Z " fill-rule="evenodd" />
    </mask>
  </defs>
  <g transform="matrix(1 0 0 1 -185 -499 )">
    <path d="M 15.81670673076923 48.27777777777778  C 16.748197115384617 49.2037037037037  17.21394230769231 50.32098765432098  17.21394230769231 51.62962962962963  C 17.21394230769231 52.938271604938265  16.748197115384617 54.05555555555556  15.81670673076923 54.98148148148148  C 14.885216346153845 55.907407407407405  13.761217948717949 56.37037037037037  12.444711538461538 56.37037037037037  C 11.153044871794874 56.37037037037037  10.035256410256412 55.901234567901234  9.091346153846155 54.96296296296296  C 8.147435897435898 54.0246913580247  7.675480769230769 52.91358024691358  7.675480769230769 51.62962962962963  C 7.675480769230769 50.32098765432098  8.141225961538462 49.2037037037037  9.072716346153845 48.27777777777778  C 10.00420673076923 47.35185185185185  11.128205128205128 46.888888888888886  12.444711538461538 46.888888888888886  C 13.761217948717949 46.888888888888886  14.885216346153845 47.35185185185185  15.81670673076923 48.27777777777778  Z M 34.37199519230769 55.907407407407405  C 35.30348557692308 56.833333333333336  35.76923076923077 57.95061728395062  35.76923076923077 59.25925925925926  C 35.76923076923077 60.5679012345679  35.30348557692308 61.68518518518518  34.37199519230769 62.611111111111114  C 33.44050480769231 63.53703703703704  32.31650641025641 64  31 64  C 29.68349358974359 64  28.559495192307693 63.53703703703704  27.62800480769231 62.611111111111114  C 26.696514423076923 61.68518518518518  26.23076923076923 60.5679012345679  26.23076923076923 59.25925925925926  C 26.23076923076923 57.95061728395062  26.696514423076923 56.833333333333336  27.62800480769231 55.907407407407405  C 28.559495192307693 54.98148148148148  29.68349358974359 54.51851851851852  31 54.51851851851852  C 32.31650641025641 54.51851851851852  33.44050480769231 54.98148148148148  34.37199519230769 55.907407407407405  Z M 8.141225961538462 29.833333333333336  C 9.072716346153845 30.75925925925926  9.538461538461538 31.876543209876544  9.538461538461538 33.18518518518519  C 9.538461538461538 34.49382716049382  9.072716346153845 35.611111111111114  8.141225961538462 36.53703703703704  C 7.2097355769230775 37.46296296296296  6.085737179487181 37.925925925925924  4.769230769230769 37.925925925925924  C 3.4527243589743595 37.925925925925924  2.3287259615384612 37.46296296296296  1.3972355769230769 36.53703703703704  C 0.46574519230769235 35.611111111111114  0 34.49382716049382  0 33.18518518518519  C 0 31.876543209876544  0.46574519230769235 30.75925925925926  1.3972355769230769 29.833333333333336  C 2.3287259615384612 28.907407407407405  3.4527243589743595 28.444444444444443  4.769230769230769 28.444444444444443  C 6.085737179487181 28.444444444444443  7.2097355769230775 28.907407407407405  8.141225961538462 29.833333333333336  Z M 52.92728365384615 48.27777777777778  C 53.85877403846154 49.2037037037037  54.32451923076923 50.32098765432098  54.32451923076923 51.62962962962963  C 54.32451923076923 52.91358024691358  53.85256410256411 54.0246913580247  52.90865384615385 54.96296296296296  C 51.96474358974359 55.901234567901234  50.84695512820513 56.37037037037037  49.55528846153846 56.37037037037037  C 48.23878205128205 56.37037037037037  47.11478365384615 55.907407407407405  46.18329326923077 54.98148148148148  C 45.25180288461538 54.05555555555556  44.78605769230769 52.938271604938265  44.78605769230769 51.62962962962963  C 44.78605769230769 50.32098765432098  45.25180288461538 49.2037037037037  46.18329326923077 48.27777777777778  C 47.11478365384615 47.35185185185185  48.23878205128205 46.888888888888886  49.55528846153846 46.888888888888886  C 50.871794871794876 46.888888888888886  51.99579326923077 47.35185185185185  52.92728365384615 48.27777777777778  Z M 16.655048076923077 10.555555555555557  C 17.822516025641026 11.716049382716044  18.40625 13.111111111111114  18.40625 14.74074074074074  C 18.40625 16.370370370370374  17.822516025641026 17.765432098765423  16.655048076923077 18.925925925925924  C 15.487580128205128 20.086419753086417  14.084134615384615 20.666666666666664  12.444711538461538 20.666666666666664  C 10.805288461538462 20.666666666666664  9.401842948717949 20.086419753086417  8.234375 18.925925925925924  C 7.066907051282052 17.765432098765423  6.4831730769230775 16.370370370370374  6.4831730769230775 14.74074074074074  C 6.4831730769230775 13.111111111111114  7.066907051282052 11.716049382716044  8.234375 10.555555555555557  C 9.401842948717949 9.395061728395056  10.805288461538462 8.814814814814817  12.444711538461538 8.814814814814817  C 14.084134615384615 8.814814814814817  15.487580128205128 9.395061728395056  16.655048076923077 10.555555555555557  Z M 60.60276442307692 29.833333333333336  C 61.53425480769232 30.75925925925926  62.000000000000014 31.876543209876544  62 33.18518518518519  C 62.000000000000014 34.49382716049382  61.53425480769232 35.611111111111114  60.60276442307692 36.53703703703704  C 59.67127403846155 37.46296296296296  58.54727564102565 37.925925925925924  57.23076923076923 37.925925925925924  C 55.914262820512825 37.925925925925924  54.79026442307692 37.46296296296296  53.85877403846154 36.53703703703704  C 52.92728365384615 35.611111111111114  52.46153846153846 34.49382716049382  52.46153846153846 33.18518518518519  C 52.46153846153846 31.876543209876544  52.92728365384615 30.75925925925926  53.85877403846154 29.833333333333336  C 54.79026442307692 28.907407407407405  55.914262820512825 28.444444444444443  57.23076923076923 28.444444444444443  C 58.54727564102565 28.444444444444443  59.67127403846155 28.907407407407405  60.60276442307692 29.833333333333336  Z M 36.06730769230769 2.074074074074076  C 37.458333333333336 3.456790123456784  38.15384615384615 5.135802469135797  38.15384615384615 7.111111111111114  C 38.15384615384615 9.086419753086417  37.458333333333336 10.765432098765423  36.06730769230769 12.148148148148145  C 34.67628205128205 13.53086419753086  32.98717948717949 14.222222222222221  31 14.222222222222221  C 29.012820512820518 14.222222222222221  27.323717948717956 13.53086419753086  25.93269230769231 12.148148148148145  C 24.541666666666668 10.765432098765423  23.846153846153847 9.086419753086417  23.846153846153847 7.111111111111114  C 23.846153846153847 5.135802469135797  24.541666666666668 3.456790123456784  25.93269230769231 2.074074074074076  C 27.323717948717956 0.6913580246913611  29.012820512820518 0  31 0  C 32.98717948717949 0  34.67628205128205 0.6913580246913611  36.06730769230769 2.074074074074076  Z M 55.44230769230769 8.888888888888886  C 57.08173076923077 10.518518518518519  57.90144230769231 12.469135802469133  57.90144230769231 14.74074074074074  C 57.90144230769231 17.037037037037038  57.08173076923077 18.993827160493822  55.44230769230769 20.611111111111114  C 53.80288461538462 22.228395061728392  51.840544871794876 23.037037037037038  49.55528846153846 23.037037037037038  C 47.24519230769231 23.037037037037038  45.27664262820513 22.228395061728392  43.64963942307692 20.611111111111114  C 42.02263621794872 18.993827160493822  41.20913461538462 17.037037037037038  41.20913461538462 14.74074074074074  C 41.20913461538462 12.469135802469133  42.02263621794872 10.518518518518519  43.64963942307692 8.888888888888886  C 45.27664262820513 7.2592592592592595  47.24519230769231 6.444444444444443  49.55528846153846 6.444444444444443  C 51.840544871794876 6.444444444444443  53.80288461538462 7.2592592592592595  55.44230769230769 8.888888888888886  Z " fill-rule="nonzero" fill="rgba(249, 252, 255, 0.8745098039215686)" stroke="none" transform="matrix(1 0 0 1 185 499 )" class="fill" />
    <path d="M 15.81670673076923 48.27777777777778  C 16.748197115384617 49.2037037037037  17.21394230769231 50.32098765432098  17.21394230769231 51.62962962962963  C 17.21394230769231 52.938271604938265  16.748197115384617 54.05555555555556  15.81670673076923 54.98148148148148  C 14.885216346153845 55.907407407407405  13.761217948717949 56.37037037037037  12.444711538461538 56.37037037037037  C 11.153044871794874 56.37037037037037  10.035256410256412 55.901234567901234  9.091346153846155 54.96296296296296  C 8.147435897435898 54.0246913580247  7.675480769230769 52.91358024691358  7.675480769230769 51.62962962962963  C 7.675480769230769 50.32098765432098  8.141225961538462 49.2037037037037  9.072716346153845 48.27777777777778  C 10.00420673076923 47.35185185185185  11.128205128205128 46.888888888888886  12.444711538461538 46.888888888888886  C 13.761217948717949 46.888888888888886  14.885216346153845 47.35185185185185  15.81670673076923 48.27777777777778  Z " stroke-width="0" stroke-dasharray="0" stroke="rgba(255, 255, 255, 0)" fill="none" transform="matrix(1 0 0 1 185 499 )" class="stroke" mask="url(#Clip43)" />
    <path d="M 34.37199519230769 55.907407407407405  C 35.30348557692308 56.833333333333336  35.76923076923077 57.95061728395062  35.76923076923077 59.25925925925926  C 35.76923076923077 60.5679012345679  35.30348557692308 61.68518518518518  34.37199519230769 62.611111111111114  C 33.44050480769231 63.53703703703704  32.31650641025641 64  31 64  C 29.68349358974359 64  28.559495192307693 63.53703703703704  27.62800480769231 62.611111111111114  C 26.696514423076923 61.68518518518518  26.23076923076923 60.5679012345679  26.23076923076923 59.25925925925926  C 26.23076923076923 57.95061728395062  26.696514423076923 56.833333333333336  27.62800480769231 55.907407407407405  C 28.559495192307693 54.98148148148148  29.68349358974359 54.51851851851852  31 54.51851851851852  C 32.31650641025641 54.51851851851852  33.44050480769231 54.98148148148148  34.37199519230769 55.907407407407405  Z " stroke-width="0" stroke-dasharray="0" stroke="rgba(255, 255, 255, 0)" fill="none" transform="matrix(1 0 0 1 185 499 )" class="stroke" mask="url(#Clip43)" />
    <path d="M 8.141225961538462 29.833333333333336  C 9.072716346153845 30.75925925925926  9.538461538461538 31.876543209876544  9.538461538461538 33.18518518518519  C 9.538461538461538 34.49382716049382  9.072716346153845 35.611111111111114  8.141225961538462 36.53703703703704  C 7.2097355769230775 37.46296296296296  6.085737179487181 37.925925925925924  4.769230769230769 37.925925925925924  C 3.4527243589743595 37.925925925925924  2.3287259615384612 37.46296296296296  1.3972355769230769 36.53703703703704  C 0.46574519230769235 35.611111111111114  0 34.49382716049382  0 33.18518518518519  C 0 31.876543209876544  0.46574519230769235 30.75925925925926  1.3972355769230769 29.833333333333336  C 2.3287259615384612 28.907407407407405  3.4527243589743595 28.444444444444443  4.769230769230769 28.444444444444443  C 6.085737179487181 28.444444444444443  7.2097355769230775 28.907407407407405  8.141225961538462 29.833333333333336  Z " stroke-width="0" stroke-dasharray="0" stroke="rgba(255, 255, 255, 0)" fill="none" transform="matrix(1 0 0 1 185 499 )" class="stroke" mask="url(#Clip43)" />
    <path d="M 52.92728365384615 48.27777777777778  C 53.85877403846154 49.2037037037037  54.32451923076923 50.32098765432098  54.32451923076923 51.62962962962963  C 54.32451923076923 52.91358024691358  53.85256410256411 54.0246913580247  52.90865384615385 54.96296296296296  C 51.96474358974359 55.901234567901234  50.84695512820513 56.37037037037037  49.55528846153846 56.37037037037037  C 48.23878205128205 56.37037037037037  47.11478365384615 55.907407407407405  46.18329326923077 54.98148148148148  C 45.25180288461538 54.05555555555556  44.78605769230769 52.938271604938265  44.78605769230769 51.62962962962963  C 44.78605769230769 50.32098765432098  45.25180288461538 49.2037037037037  46.18329326923077 48.27777777777778  C 47.11478365384615 47.35185185185185  48.23878205128205 46.888888888888886  49.55528846153846 46.888888888888886  C 50.871794871794876 46.888888888888886  51.99579326923077 47.35185185185185  52.92728365384615 48.27777777777778  Z " stroke-width="0" stroke-dasharray="0" stroke="rgba(255, 255, 255, 0)" fill="none" transform="matrix(1 0 0 1 185 499 )" class="stroke" mask="url(#Clip43)" />
    <path d="M 16.655048076923077 10.555555555555557  C 17.822516025641026 11.716049382716044  18.40625 13.111111111111114  18.40625 14.74074074074074  C 18.40625 16.370370370370374  17.822516025641026 17.765432098765423  16.655048076923077 18.925925925925924  C 15.487580128205128 20.086419753086417  14.084134615384615 20.666666666666664  12.444711538461538 20.666666666666664  C 10.805288461538462 20.666666666666664  9.401842948717949 20.086419753086417  8.234375 18.925925925925924  C 7.066907051282052 17.765432098765423  6.4831730769230775 16.370370370370374  6.4831730769230775 14.74074074074074  C 6.4831730769230775 13.111111111111114  7.066907051282052 11.716049382716044  8.234375 10.555555555555557  C 9.401842948717949 9.395061728395056  10.805288461538462 8.814814814814817  12.444711538461538 8.814814814814817  C 14.084134615384615 8.814814814814817  15.487580128205128 9.395061728395056  16.655048076923077 10.555555555555557  Z " stroke-width="0" stroke-dasharray="0" stroke="rgba(255, 255, 255, 0)" fill="none" transform="matrix(1 0 0 1 185 499 )" class="stroke" mask="url(#Clip43)" />
    <path d="M 60.60276442307692 29.833333333333336  C 61.53425480769232 30.75925925925926  62.000000000000014 31.876543209876544  62 33.18518518518519  C 62.000000000000014 34.49382716049382  61.53425480769232 35.611111111111114  60.60276442307692 36.53703703703704  C 59.67127403846155 37.46296296296296  58.54727564102565 37.925925925925924  57.23076923076923 37.925925925925924  C 55.914262820512825 37.925925925925924  54.79026442307692 37.46296296296296  53.85877403846154 36.53703703703704  C 52.92728365384615 35.611111111111114  52.46153846153846 34.49382716049382  52.46153846153846 33.18518518518519  C 52.46153846153846 31.876543209876544  52.92728365384615 30.75925925925926  53.85877403846154 29.833333333333336  C 54.79026442307692 28.907407407407405  55.914262820512825 28.444444444444443  57.23076923076923 28.444444444444443  C 58.54727564102565 28.444444444444443  59.67127403846155 28.907407407407405  60.60276442307692 29.833333333333336  Z " stroke-width="0" stroke-dasharray="0" stroke="rgba(255, 255, 255, 0)" fill="none" transform="matrix(1 0 0 1 185 499 )" class="stroke" mask="url(#Clip43)" />
    <path d="M 36.06730769230769 2.074074074074076  C 37.458333333333336 3.456790123456784  38.15384615384615 5.135802469135797  38.15384615384615 7.111111111111114  C 38.15384615384615 9.086419753086417  37.458333333333336 10.765432098765423  36.06730769230769 12.148148148148145  C 34.67628205128205 13.53086419753086  32.98717948717949 14.222222222222221  31 14.222222222222221  C 29.012820512820518 14.222222222222221  27.323717948717956 13.53086419753086  25.93269230769231 12.148148148148145  C 24.541666666666668 10.765432098765423  23.846153846153847 9.086419753086417  23.846153846153847 7.111111111111114  C 23.846153846153847 5.135802469135797  24.541666666666668 3.456790123456784  25.93269230769231 2.074074074074076  C 27.323717948717956 0.6913580246913611  29.012820512820518 0  31 0  C 32.98717948717949 0  34.67628205128205 0.6913580246913611  36.06730769230769 2.074074074074076  Z " stroke-width="0" stroke-dasharray="0" stroke="rgba(255, 255, 255, 0)" fill="none" transform="matrix(1 0 0 1 185 499 )" class="stroke" mask="url(#Clip43)" />
    <path d="M 55.44230769230769 8.888888888888886  C 57.08173076923077 10.518518518518519  57.90144230769231 12.469135802469133  57.90144230769231 14.74074074074074  C 57.90144230769231 17.037037037037038  57.08173076923077 18.993827160493822  55.44230769230769 20.611111111111114  C 53.80288461538462 22.228395061728392  51.840544871794876 23.037037037037038  49.55528846153846 23.037037037037038  C 47.24519230769231 23.037037037037038  45.27664262820513 22.228395061728392  43.64963942307692 20.611111111111114  C 42.02263621794872 18.993827160493822  41.20913461538462 17.037037037037038  41.20913461538462 14.74074074074074  C 41.20913461538462 12.469135802469133  42.02263621794872 10.518518518518519  43.64963942307692 8.888888888888886  C 45.27664262820513 7.2592592592592595  47.24519230769231 6.444444444444443  49.55528846153846 6.444444444444443  C 51.840544871794876 6.444444444444443  53.80288461538462 7.2592592592592595  55.44230769230769 8.888888888888886  Z " stroke-width="0" stroke-dasharray="0" stroke="rgba(255, 255, 255, 0)" fill="none" transform="matrix(1 0 0 1 185 499 )" class="stroke" mask="url(#Clip43)" />
  </g>
</svg>