<?xml version="1.0" encoding="utf-8"?>
<svg version="1.1" xmlns:xlink="http://www.w3.org/1999/xlink" width="40px" height="36px" xmlns="http://www.w3.org/2000/svg">
  <defs>
    <pattern id="BGPattern" patternUnits="userSpaceOnUse" alignment="0 0" imageRepeat="None" />
    <mask fill="white" id="Clip65">
      <path d="M 6.25 6.42857142857143  L 16 6.42857142857143  L 16 21.85714285714286  C 15.714285714285714 22.205357142857142  15.572916666666668 22.506696428571427  15.290178571428573 22.761160714285715  C 15.007440476190476 23.015625000000004  14.67261904761905 23.14285714285714  15 23.14285714285714  L 15 34.714285714285715  C 14.285714285714286 35.0625  14.144345238095239 35.363839285714285  13.861607142857142 35.61830357142857  C 13.57886904761905 35.87276785714286  13.24404761904762 36  12.857142857142858 36  L 1.4285714285714284 36  C 1.0416666666666667 36  0.7068452380952381 35.87276785714286  0.4241071428571429 35.61830357142857  C 0.14136904761904762 35.363839285714285  0 35.0625  0 34.714285714285715  L 0 24.42857142857143  L 5.5580357142857135 6.890625  C 5.662202380952381 6.582589285714284  5.892857142857143 6.42857142857143  6.25 6.42857142857143  Z M 17.142857142857142 6.42857142857143  L 22.857142857142854 6.42857142857143  L 22.857142857142854 20.57142857142857  L 17.142857142857142 20.57142857142857  L 17.142857142857142 6.42857142857143  Z M 34.441964285714285 6.890625  L 40 24.42857142857143  L 40 34.714285714285715  C 40 35.0625  39.858630952380956 35.363839285714285  39.575892857142854 35.61830357142857  C 39.293154761904766 35.87276785714286  38.958333333333336 36  38.57142857142857 36  L 27.142857142857146 36  C 26.75595238095238 36  26.421130952380953 35.87276785714286  26.138392857142854 35.61830357142857  C 25.855654761904766 35.363839285714285  25.714285714285715 35.0625  25 34.714285714285715  L 25 23.14285714285714  C 25.327380952380953 23.14285714285714  24.992559523809526 23.015625000000004  24.709821428571427 22.761160714285715  C 24.427083333333336 22.506696428571427  24.285714285714285 22.205357142857142  24 21.85714285714286  L 24 6.42857142857143  L 33.75 6.42857142857143  C 34.107142857142854 6.42857142857143  34.33779761904762 6.582589285714284  34.441964285714285 6.890625  Z M 16.227678571428573 0.1808035714285703  C 16.361607142857142 0.30133928571428514  16.428571428571427 0.45535714285713924  16.428571428571427 0.6428571428571446  L 16.428571428571427 5.142857142857144  L 8.571428571428571 5.142857142857144  L 8.571428571428571 0.6428571428571446  C 8.571428571428571 0.45535714285713924  8.638392857142858 0.30133928571428514  8.772321428571429 0.1808035714285703  C 8.906250000000002 0.06026785714285543  9.077380952380954 0  9.285714285714286 0  L 15.714285714285714 0  C 15.92261904761905 0  16.09375 0.06026785714285543  16.227678571428573 0.1808035714285703  Z M 31.227678571428573 0.1808035714285703  C 31.361607142857146 0.30133928571428514  31.428571428571427 0.45535714285713924  31.428571428571427 0.6428571428571446  L 31.428571428571427 5.142857142857144  L 23.571428571428573 5.142857142857144  L 23.571428571428573 0.6428571428571446  C 23.571428571428573 0.45535714285713924  23.638392857142854 0.30133928571428514  23.772321428571427 0.1808035714285703  C 23.90625 0.06026785714285543  24.077380952380953 0  24.285714285714285 0  L 30.714285714285715 0  C 30.92261904761905 0  31.09375 0.06026785714285543  31.227678571428573 0.1808035714285703  Z " fill-rule="evenodd" />
    </mask>
  </defs>
  <g transform="matrix(1 0 0 1 -41 -187 )">
    <path d="M 6.25 6.42857142857143  L 16 6.42857142857143  L 16 21.85714285714286  C 15.714285714285714 22.205357142857142  15.572916666666668 22.506696428571427  15.290178571428573 22.761160714285715  C 15.007440476190476 23.015625000000004  14.67261904761905 23.14285714285714  15 23.14285714285714  L 15 34.714285714285715  C 14.285714285714286 35.0625  14.144345238095239 35.363839285714285  13.861607142857142 35.61830357142857  C 13.57886904761905 35.87276785714286  13.24404761904762 36  12.857142857142858 36  L 1.4285714285714284 36  C 1.0416666666666667 36  0.7068452380952381 35.87276785714286  0.4241071428571429 35.61830357142857  C 0.14136904761904762 35.363839285714285  0 35.0625  0 34.714285714285715  L 0 24.42857142857143  L 5.5580357142857135 6.890625  C 5.662202380952381 6.582589285714284  5.892857142857143 6.42857142857143  6.25 6.42857142857143  Z M 17.142857142857142 6.42857142857143  L 22.857142857142854 6.42857142857143  L 22.857142857142854 20.57142857142857  L 17.142857142857142 20.57142857142857  L 17.142857142857142 6.42857142857143  Z M 34.441964285714285 6.890625  L 40 24.42857142857143  L 40 34.714285714285715  C 40 35.0625  39.858630952380956 35.363839285714285  39.575892857142854 35.61830357142857  C 39.293154761904766 35.87276785714286  38.958333333333336 36  38.57142857142857 36  L 27.142857142857146 36  C 26.75595238095238 36  26.421130952380953 35.87276785714286  26.138392857142854 35.61830357142857  C 25.855654761904766 35.363839285714285  25.714285714285715 35.0625  25 34.714285714285715  L 25 23.14285714285714  C 25.327380952380953 23.14285714285714  24.992559523809526 23.015625000000004  24.709821428571427 22.761160714285715  C 24.427083333333336 22.506696428571427  24.285714285714285 22.205357142857142  24 21.85714285714286  L 24 6.42857142857143  L 33.75 6.42857142857143  C 34.107142857142854 6.42857142857143  34.33779761904762 6.582589285714284  34.441964285714285 6.890625  Z M 16.227678571428573 0.1808035714285703  C 16.361607142857142 0.30133928571428514  16.428571428571427 0.45535714285713924  16.428571428571427 0.6428571428571446  L 16.428571428571427 5.142857142857144  L 8.571428571428571 5.142857142857144  L 8.571428571428571 0.6428571428571446  C 8.571428571428571 0.45535714285713924  8.638392857142858 0.30133928571428514  8.772321428571429 0.1808035714285703  C 8.906250000000002 0.06026785714285543  9.077380952380954 0  9.285714285714286 0  L 15.714285714285714 0  C 15.92261904761905 0  16.09375 0.06026785714285543  16.227678571428573 0.1808035714285703  Z M 31.227678571428573 0.1808035714285703  C 31.361607142857146 0.30133928571428514  31.428571428571427 0.45535714285713924  31.428571428571427 0.6428571428571446  L 31.428571428571427 5.142857142857144  L 23.571428571428573 5.142857142857144  L 23.571428571428573 0.6428571428571446  C 23.571428571428573 0.45535714285713924  23.638392857142854 0.30133928571428514  23.772321428571427 0.1808035714285703  C 23.90625 0.06026785714285543  24.077380952380953 0  24.285714285714285 0  L 30.714285714285715 0  C 30.92261904761905 0  31.09375 0.06026785714285543  31.227678571428573 0.1808035714285703  Z " fill-rule="nonzero" fill="rgba(51, 51, 51, 1)" stroke="none" transform="matrix(1 0 0 1 41 187 )" class="fill" />
    <path d="M 6.25 6.42857142857143  L 16 6.42857142857143  L 16 21.85714285714286  C 15.714285714285714 22.205357142857142  15.572916666666668 22.506696428571427  15.290178571428573 22.761160714285715  C 15.007440476190476 23.015625000000004  14.67261904761905 23.14285714285714  15 23.14285714285714  L 15 34.714285714285715  C 14.285714285714286 35.0625  14.144345238095239 35.363839285714285  13.861607142857142 35.61830357142857  C 13.57886904761905 35.87276785714286  13.24404761904762 36  12.857142857142858 36  L 1.4285714285714284 36  C 1.0416666666666667 36  0.7068452380952381 35.87276785714286  0.4241071428571429 35.61830357142857  C 0.14136904761904762 35.363839285714285  0 35.0625  0 34.714285714285715  L 0 24.42857142857143  L 5.5580357142857135 6.890625  C 5.662202380952381 6.582589285714284  5.892857142857143 6.42857142857143  6.25 6.42857142857143  Z " stroke-width="0" stroke-dasharray="0" stroke="rgba(255, 255, 255, 0)" fill="none" transform="matrix(1 0 0 1 41 187 )" class="stroke" mask="url(#Clip65)" />
    <path d="M 17.142857142857142 6.42857142857143  L 22.857142857142854 6.42857142857143  L 22.857142857142854 20.57142857142857  L 17.142857142857142 20.57142857142857  L 17.142857142857142 6.42857142857143  Z " stroke-width="0" stroke-dasharray="0" stroke="rgba(255, 255, 255, 0)" fill="none" transform="matrix(1 0 0 1 41 187 )" class="stroke" mask="url(#Clip65)" />
    <path d="M 34.441964285714285 6.890625  L 40 24.42857142857143  L 40 34.714285714285715  C 40 35.0625  39.858630952380956 35.363839285714285  39.575892857142854 35.61830357142857  C 39.293154761904766 35.87276785714286  38.958333333333336 36  38.57142857142857 36  L 27.142857142857146 36  C 26.75595238095238 36  26.421130952380953 35.87276785714286  26.138392857142854 35.61830357142857  C 25.855654761904766 35.363839285714285  25.714285714285715 35.0625  25 34.714285714285715  L 25 23.14285714285714  C 25.327380952380953 23.14285714285714  24.992559523809526 23.015625000000004  24.709821428571427 22.761160714285715  C 24.427083333333336 22.506696428571427  24.285714285714285 22.205357142857142  24 21.85714285714286  L 24 6.42857142857143  L 33.75 6.42857142857143  C 34.107142857142854 6.42857142857143  34.33779761904762 6.582589285714284  34.441964285714285 6.890625  Z " stroke-width="0" stroke-dasharray="0" stroke="rgba(255, 255, 255, 0)" fill="none" transform="matrix(1 0 0 1 41 187 )" class="stroke" mask="url(#Clip65)" />
    <path d="M 16.227678571428573 0.1808035714285703  C 16.361607142857142 0.30133928571428514  16.428571428571427 0.45535714285713924  16.428571428571427 0.6428571428571446  L 16.428571428571427 5.142857142857144  L 8.571428571428571 5.142857142857144  L 8.571428571428571 0.6428571428571446  C 8.571428571428571 0.45535714285713924  8.638392857142858 0.30133928571428514  8.772321428571429 0.1808035714285703  C 8.906250000000002 0.06026785714285543  9.077380952380954 0  9.285714285714286 0  L 15.714285714285714 0  C 15.92261904761905 0  16.09375 0.06026785714285543  16.227678571428573 0.1808035714285703  Z " stroke-width="0" stroke-dasharray="0" stroke="rgba(255, 255, 255, 0)" fill="none" transform="matrix(1 0 0 1 41 187 )" class="stroke" mask="url(#Clip65)" />
    <path d="M 31.227678571428573 0.1808035714285703  C 31.361607142857146 0.30133928571428514  31.428571428571427 0.45535714285713924  31.428571428571427 0.6428571428571446  L 31.428571428571427 5.142857142857144  L 23.571428571428573 5.142857142857144  L 23.571428571428573 0.6428571428571446  C 23.571428571428573 0.45535714285713924  23.638392857142854 0.30133928571428514  23.772321428571427 0.1808035714285703  C 23.90625 0.06026785714285543  24.077380952380953 0  24.285714285714285 0  L 30.714285714285715 0  C 30.92261904761905 0  31.09375 0.06026785714285543  31.227678571428573 0.1808035714285703  Z " stroke-width="0" stroke-dasharray="0" stroke="rgba(255, 255, 255, 0)" fill="none" transform="matrix(1 0 0 1 41 187 )" class="stroke" mask="url(#Clip65)" />
  </g>
</svg>