<?xml version="1.0" encoding="utf-8"?>
<svg version="1.1" xmlns:xlink="http://www.w3.org/1999/xlink" width="44px" height="40px" xmlns="http://www.w3.org/2000/svg">
  <defs>
    <pattern id="BGPattern" patternUnits="userSpaceOnUse" alignment="0 0" imageRepeat="None" />
    <mask fill="white" id="Clip82">
      <path d="M 6.875 7.142857142857144  L 18 7.142857142857144  L 18 24.28571428571429  C 17.285714285714285 24.672619047619047  17.130208333333336 25.007440476190474  16.81919642857143 25.290178571428573  C 16.508184523809526 25.57291666666667  16.139880952380953 25.71428571428571  16 25.71428571428571  L 16 38.57142857142857  C 15.714285714285715 38.95833333333333  15.558779761904763 39.29315476190476  15.247767857142856 39.575892857142854  C 14.936755952380954 39.858630952380956  14.568452380952383 40  14.142857142857144 40  L 1.5714285714285714 40  C 1.1458333333333335 40  0.7775297619047619 39.858630952380956  0.46651785714285715 39.575892857142854  C 0.15550595238095238 39.29315476190476  0 38.95833333333333  0 38.57142857142857  L 0 27.142857142857146  L 6.113839285714286 7.65625  C 6.2284226190476195 7.313988095238093  6.482142857142858 7.142857142857144  6.875 7.142857142857144  Z M 19 7.142857142857144  L 25 7.142857142857144  L 25 22.857142857142854  L 19 22.857142857142854  L 19 7.142857142857144  Z M 37.886160714285715 7.65625  L 44 27.142857142857146  L 44 38.57142857142857  C 44 38.95833333333333  43.84449404761905 39.29315476190476  43.53348214285714 39.575892857142854  C 43.22247023809524 39.858630952380956  42.85416666666667 40  42.42857142857143 40  L 29.857142857142858 40  C 29.43154761904762 40  29.063244047619047 39.858630952380956  28.752232142857142 39.575892857142854  C 28.441220238095244 39.29315476190476  28.28571428571429 38.95833333333333  28 38.57142857142857  L 28 25.71428571428571  C 27.860119047619047 25.71428571428571  27.491815476190478 25.57291666666667  27.18080357142857 25.290178571428573  C 26.869791666666668 25.007440476190474  26.71428571428571 24.672619047619047  26 24.28571428571429  L 26 7.142857142857144  L 37.125 7.142857142857144  C 37.51785714285714 7.142857142857144  37.77157738095238 7.313988095238093  37.886160714285715 7.65625  Z M 17.85044642857143 0.20089285714285587  C 17.997767857142858 0.33482142857142794  18.07142857142857 0.5059523809523769  18.07142857142857 0.7142857142857162  L 18.07142857142857 5.714285714285716  L 9.428571428571429 5.714285714285716  L 9.428571428571429 0.7142857142857162  C 9.428571428571429 0.5059523809523769  9.502232142857142 0.33482142857142794  9.649553571428571 0.20089285714285587  C 9.796875000000002 0.06696428571428381  9.98511904761905 0  10.214285714285715 0  L 17.285714285714285 0  C 17.514880952380953 0  17.703125 0.06696428571428381  17.85044642857143 0.20089285714285587  Z M 34.35044642857143 0.20089285714285587  C 34.49776785714286 0.33482142857142794  34.57142857142857 0.5059523809523769  34.57142857142857 0.7142857142857162  L 34.57142857142857 5.714285714285716  L 25.92857142857143 5.714285714285716  L 25.92857142857143 0.7142857142857162  C 25.92857142857143 0.5059523809523769  26.002232142857142 0.33482142857142794  26.14955357142857 0.20089285714285587  C 26.296875 0.06696428571428381  26.485119047619047 0  26.71428571428571 0  L 33.785714285714285 0  C 34.014880952380956 0  34.203125 0.06696428571428381  34.35044642857143 0.20089285714285587  Z " fill-rule="evenodd" />
    </mask>
  </defs>
  <g transform="matrix(1 0 0 1 -286 -214 )">
    <path d="M 6.875 7.142857142857144  L 18 7.142857142857144  L 18 24.28571428571429  C 17.285714285714285 24.672619047619047  17.130208333333336 25.007440476190474  16.81919642857143 25.290178571428573  C 16.508184523809526 25.57291666666667  16.139880952380953 25.71428571428571  16 25.71428571428571  L 16 38.57142857142857  C 15.714285714285715 38.95833333333333  15.558779761904763 39.29315476190476  15.247767857142856 39.575892857142854  C 14.936755952380954 39.858630952380956  14.568452380952383 40  14.142857142857144 40  L 1.5714285714285714 40  C 1.1458333333333335 40  0.7775297619047619 39.858630952380956  0.46651785714285715 39.575892857142854  C 0.15550595238095238 39.29315476190476  0 38.95833333333333  0 38.57142857142857  L 0 27.142857142857146  L 6.113839285714286 7.65625  C 6.2284226190476195 7.313988095238093  6.482142857142858 7.142857142857144  6.875 7.142857142857144  Z M 19 7.142857142857144  L 25 7.142857142857144  L 25 22.857142857142854  L 19 22.857142857142854  L 19 7.142857142857144  Z M 37.886160714285715 7.65625  L 44 27.142857142857146  L 44 38.57142857142857  C 44 38.95833333333333  43.84449404761905 39.29315476190476  43.53348214285714 39.575892857142854  C 43.22247023809524 39.858630952380956  42.85416666666667 40  42.42857142857143 40  L 29.857142857142858 40  C 29.43154761904762 40  29.063244047619047 39.858630952380956  28.752232142857142 39.575892857142854  C 28.441220238095244 39.29315476190476  28.28571428571429 38.95833333333333  28 38.57142857142857  L 28 25.71428571428571  C 27.860119047619047 25.71428571428571  27.491815476190478 25.57291666666667  27.18080357142857 25.290178571428573  C 26.869791666666668 25.007440476190474  26.71428571428571 24.672619047619047  26 24.28571428571429  L 26 7.142857142857144  L 37.125 7.142857142857144  C 37.51785714285714 7.142857142857144  37.77157738095238 7.313988095238093  37.886160714285715 7.65625  Z M 17.85044642857143 0.20089285714285587  C 17.997767857142858 0.33482142857142794  18.07142857142857 0.5059523809523769  18.07142857142857 0.7142857142857162  L 18.07142857142857 5.714285714285716  L 9.428571428571429 5.714285714285716  L 9.428571428571429 0.7142857142857162  C 9.428571428571429 0.5059523809523769  9.502232142857142 0.33482142857142794  9.649553571428571 0.20089285714285587  C 9.796875000000002 0.06696428571428381  9.98511904761905 0  10.214285714285715 0  L 17.285714285714285 0  C 17.514880952380953 0  17.703125 0.06696428571428381  17.85044642857143 0.20089285714285587  Z M 34.35044642857143 0.20089285714285587  C 34.49776785714286 0.33482142857142794  34.57142857142857 0.5059523809523769  34.57142857142857 0.7142857142857162  L 34.57142857142857 5.714285714285716  L 25.92857142857143 5.714285714285716  L 25.92857142857143 0.7142857142857162  C 25.92857142857143 0.5059523809523769  26.002232142857142 0.33482142857142794  26.14955357142857 0.20089285714285587  C 26.296875 0.06696428571428381  26.485119047619047 0  26.71428571428571 0  L 33.785714285714285 0  C 34.014880952380956 0  34.203125 0.06696428571428381  34.35044642857143 0.20089285714285587  Z " fill-rule="nonzero" fill="rgba(51, 51, 51, 1)" stroke="none" transform="matrix(1 0 0 1 286 214 )" class="fill" />
    <path d="M 6.875 7.142857142857144  L 18 7.142857142857144  L 18 24.28571428571429  C 17.285714285714285 24.672619047619047  17.130208333333336 25.007440476190474  16.81919642857143 25.290178571428573  C 16.508184523809526 25.57291666666667  16.139880952380953 25.71428571428571  16 25.71428571428571  L 16 38.57142857142857  C 15.714285714285715 38.95833333333333  15.558779761904763 39.29315476190476  15.247767857142856 39.575892857142854  C 14.936755952380954 39.858630952380956  14.568452380952383 40  14.142857142857144 40  L 1.5714285714285714 40  C 1.1458333333333335 40  0.7775297619047619 39.858630952380956  0.46651785714285715 39.575892857142854  C 0.15550595238095238 39.29315476190476  0 38.95833333333333  0 38.57142857142857  L 0 27.142857142857146  L 6.113839285714286 7.65625  C 6.2284226190476195 7.313988095238093  6.482142857142858 7.142857142857144  6.875 7.142857142857144  Z " stroke-width="0" stroke-dasharray="0" stroke="rgba(255, 255, 255, 0)" fill="none" transform="matrix(1 0 0 1 286 214 )" class="stroke" mask="url(#Clip82)" />
    <path d="M 19 7.142857142857144  L 25 7.142857142857144  L 25 22.857142857142854  L 19 22.857142857142854  L 19 7.142857142857144  Z " stroke-width="0" stroke-dasharray="0" stroke="rgba(255, 255, 255, 0)" fill="none" transform="matrix(1 0 0 1 286 214 )" class="stroke" mask="url(#Clip82)" />
    <path d="M 37.886160714285715 7.65625  L 44 27.142857142857146  L 44 38.57142857142857  C 44 38.95833333333333  43.84449404761905 39.29315476190476  43.53348214285714 39.575892857142854  C 43.22247023809524 39.858630952380956  42.85416666666667 40  42.42857142857143 40  L 29.857142857142858 40  C 29.43154761904762 40  29.063244047619047 39.858630952380956  28.752232142857142 39.575892857142854  C 28.441220238095244 39.29315476190476  28.28571428571429 38.95833333333333  28 38.57142857142857  L 28 25.71428571428571  C 27.860119047619047 25.71428571428571  27.491815476190478 25.57291666666667  27.18080357142857 25.290178571428573  C 26.869791666666668 25.007440476190474  26.71428571428571 24.672619047619047  26 24.28571428571429  L 26 7.142857142857144  L 37.125 7.142857142857144  C 37.51785714285714 7.142857142857144  37.77157738095238 7.313988095238093  37.886160714285715 7.65625  Z " stroke-width="0" stroke-dasharray="0" stroke="rgba(255, 255, 255, 0)" fill="none" transform="matrix(1 0 0 1 286 214 )" class="stroke" mask="url(#Clip82)" />
    <path d="M 17.85044642857143 0.20089285714285587  C 17.997767857142858 0.33482142857142794  18.07142857142857 0.5059523809523769  18.07142857142857 0.7142857142857162  L 18.07142857142857 5.714285714285716  L 9.428571428571429 5.714285714285716  L 9.428571428571429 0.7142857142857162  C 9.428571428571429 0.5059523809523769  9.502232142857142 0.33482142857142794  9.649553571428571 0.20089285714285587  C 9.796875000000002 0.06696428571428381  9.98511904761905 0  10.214285714285715 0  L 17.285714285714285 0  C 17.514880952380953 0  17.703125 0.06696428571428381  17.85044642857143 0.20089285714285587  Z " stroke-width="0" stroke-dasharray="0" stroke="rgba(255, 255, 255, 0)" fill="none" transform="matrix(1 0 0 1 286 214 )" class="stroke" mask="url(#Clip82)" />
    <path d="M 34.35044642857143 0.20089285714285587  C 34.49776785714286 0.33482142857142794  34.57142857142857 0.5059523809523769  34.57142857142857 0.7142857142857162  L 34.57142857142857 5.714285714285716  L 25.92857142857143 5.714285714285716  L 25.92857142857143 0.7142857142857162  C 25.92857142857143 0.5059523809523769  26.002232142857142 0.33482142857142794  26.14955357142857 0.20089285714285587  C 26.296875 0.06696428571428381  26.485119047619047 0  26.71428571428571 0  L 33.785714285714285 0  C 34.014880952380956 0  34.203125 0.06696428571428381  34.35044642857143 0.20089285714285587  Z " stroke-width="0" stroke-dasharray="0" stroke="rgba(255, 255, 255, 0)" fill="none" transform="matrix(1 0 0 1 286 214 )" class="stroke" mask="url(#Clip82)" />
  </g>
</svg>