<?xml version="1.0" encoding="utf-8"?>
<svg version="1.1" xmlns:xlink="http://www.w3.org/1999/xlink" width="24px" height="24px" xmlns="http://www.w3.org/2000/svg">
  <defs>
    <pattern id="BGPattern" patternUnits="userSpaceOnUse" alignment="0 0" imageRepeat="None" />
    <mask fill="white" id="Clip44">
      <path d="M 16.767857142857142 21.113839285714285  C 18.24107142857143 20.33258928571429  19.45089285714286 19.272321428571427  20.39732142857143 17.933035714285715  C 20.20089285714286 16.549107142857142  19.810267857142858 15.399553571428571  19.22544642857143 14.484375  C 18.640625 13.569196428571429  17.81696428571429 13.04017857142857  16.754464285714285 12.897321428571427  C 16.15625 13.558035714285712  15.444196428571429 14.073660714285712  14.61830357142857 14.444196428571427  C 13.792410714285717 14.814732142857142  12.919642857142858 15  12 15  C 11.080357142857142 15  10.207589285714286 14.814732142857142  9.381696428571429 14.444196428571427  C 8.555803571428573 14.073660714285712  7.84375 13.558035714285712  7.245535714285715 12.897321428571427  C 6.1830357142857135 13.04017857142857  5.359375 13.569196428571429  4.774553571428571 14.484375  C 4.189732142857143 15.399553571428571  3.7991071428571432 16.549107142857142  3.6026785714285716 17.933035714285715  C 4.549107142857143 19.272321428571427  5.758928571428571 20.33258928571429  7.232142857142857 21.113839285714285  C 8.705357142857142 21.895089285714285  10.294642857142858 22.285714285714285  12 22.285714285714285  C 13.705357142857144 22.285714285714285  15.294642857142858 21.895089285714285  16.767857142857142 21.113839285714285  Z M 15.636160714285714 12.207589285714286  C 16.640625 11.203125  17.142857142857142 9.99107142857143  17.142857142857142 8.57142857142857  C 17.142857142857142 7.1517857142857135  16.640625 5.939732142857143  15.636160714285714 4.935267857142857  C 14.63169642857143 3.9308035714285703  13.419642857142858 3.4285714285714297  12 3.4285714285714297  C 10.580357142857142 3.4285714285714297  9.368303571428571 3.9308035714285703  8.363839285714285 4.935267857142857  C 7.359375 5.939732142857143  6.857142857142857 7.1517857142857135  6.857142857142857 8.57142857142857  C 6.857142857142857 9.99107142857143  7.359375 11.203125  8.363839285714285 12.207589285714286  C 9.368303571428571 13.212053571428573  10.580357142857142 13.714285714285714  12 13.714285714285714  C 13.419642857142858 13.714285714285714  14.63169642857143 13.212053571428573  15.636160714285714 12.207589285714286  Z M 23.049107142857142 7.3392857142857135  C 23.683035714285715 8.82142857142857  24 10.375  24 12  C 24 13.624999999999998  23.683035714285715 15.176339285714283  23.049107142857142 16.654017857142858  C 22.415178571428577 18.131696428571427  21.564732142857146 19.408482142857142  20.497767857142858 20.484375  C 19.430803571428573 21.560267857142854  18.15625 22.415178571428573  16.674107142857142 23.049107142857142  C 15.191964285714288 23.683035714285715  13.63392857142857 24  12 24  C 10.375 24  8.821428571428573 23.683035714285715  7.339285714285715 23.049107142857142  C 5.857142857142858 22.415178571428573  4.580357142857142 21.5625  3.5089285714285716 20.491071428571427  C 2.4375 19.419642857142858  1.5848214285714286 18.142857142857142  0.9508928571428571 16.660714285714285  C 0.3169642857142857 15.178571428571427  0 13.624999999999998  0 12  C 0 10.375  0.3169642857142857 8.82142857142857  0.9508928571428571 7.3392857142857135  C 1.5848214285714286 5.857142857142855  2.4375 4.580357142857143  3.5089285714285716 3.5089285714285703  C 4.580357142857142 2.4375  5.857142857142858 1.584821428571428  7.339285714285715 0.9508928571428568  C 8.821428571428573 0.3169642857142856  10.375 0  12 0  C 13.625 0  15.17857142857143 0.3169642857142856  16.660714285714285 0.9508928571428568  C 18.142857142857146 1.584821428571428  19.419642857142858 2.4375  20.49107142857143 3.5089285714285703  C 21.562500000000004 4.580357142857143  22.415178571428577 5.857142857142855  23.049107142857142 7.3392857142857135  Z " fill-rule="evenodd" />
    </mask>
  </defs>
  <g transform="matrix(1 0 0 1 -388 -15 )">
    <path d="M 16.767857142857142 21.113839285714285  C 18.24107142857143 20.33258928571429  19.45089285714286 19.272321428571427  20.39732142857143 17.933035714285715  C 20.20089285714286 16.549107142857142  19.810267857142858 15.399553571428571  19.22544642857143 14.484375  C 18.640625 13.569196428571429  17.81696428571429 13.04017857142857  16.754464285714285 12.897321428571427  C 16.15625 13.558035714285712  15.444196428571429 14.073660714285712  14.61830357142857 14.444196428571427  C 13.792410714285717 14.814732142857142  12.919642857142858 15  12 15  C 11.080357142857142 15  10.207589285714286 14.814732142857142  9.381696428571429 14.444196428571427  C 8.555803571428573 14.073660714285712  7.84375 13.558035714285712  7.245535714285715 12.897321428571427  C 6.1830357142857135 13.04017857142857  5.359375 13.569196428571429  4.774553571428571 14.484375  C 4.189732142857143 15.399553571428571  3.7991071428571432 16.549107142857142  3.6026785714285716 17.933035714285715  C 4.549107142857143 19.272321428571427  5.758928571428571 20.33258928571429  7.232142857142857 21.113839285714285  C 8.705357142857142 21.895089285714285  10.294642857142858 22.285714285714285  12 22.285714285714285  C 13.705357142857144 22.285714285714285  15.294642857142858 21.895089285714285  16.767857142857142 21.113839285714285  Z M 15.636160714285714 12.207589285714286  C 16.640625 11.203125  17.142857142857142 9.99107142857143  17.142857142857142 8.57142857142857  C 17.142857142857142 7.1517857142857135  16.640625 5.939732142857143  15.636160714285714 4.935267857142857  C 14.63169642857143 3.9308035714285703  13.419642857142858 3.4285714285714297  12 3.4285714285714297  C 10.580357142857142 3.4285714285714297  9.368303571428571 3.9308035714285703  8.363839285714285 4.935267857142857  C 7.359375 5.939732142857143  6.857142857142857 7.1517857142857135  6.857142857142857 8.57142857142857  C 6.857142857142857 9.99107142857143  7.359375 11.203125  8.363839285714285 12.207589285714286  C 9.368303571428571 13.212053571428573  10.580357142857142 13.714285714285714  12 13.714285714285714  C 13.419642857142858 13.714285714285714  14.63169642857143 13.212053571428573  15.636160714285714 12.207589285714286  Z M 23.049107142857142 7.3392857142857135  C 23.683035714285715 8.82142857142857  24 10.375  24 12  C 24 13.624999999999998  23.683035714285715 15.176339285714283  23.049107142857142 16.654017857142858  C 22.415178571428577 18.131696428571427  21.564732142857146 19.408482142857142  20.497767857142858 20.484375  C 19.430803571428573 21.560267857142854  18.15625 22.415178571428573  16.674107142857142 23.049107142857142  C 15.191964285714288 23.683035714285715  13.63392857142857 24  12 24  C 10.375 24  8.821428571428573 23.683035714285715  7.339285714285715 23.049107142857142  C 5.857142857142858 22.415178571428573  4.580357142857142 21.5625  3.5089285714285716 20.491071428571427  C 2.4375 19.419642857142858  1.5848214285714286 18.142857142857142  0.9508928571428571 16.660714285714285  C 0.3169642857142857 15.178571428571427  0 13.624999999999998  0 12  C 0 10.375  0.3169642857142857 8.82142857142857  0.9508928571428571 7.3392857142857135  C 1.5848214285714286 5.857142857142855  2.4375 4.580357142857143  3.5089285714285716 3.5089285714285703  C 4.580357142857142 2.4375  5.857142857142858 1.584821428571428  7.339285714285715 0.9508928571428568  C 8.821428571428573 0.3169642857142856  10.375 0  12 0  C 13.625 0  15.17857142857143 0.3169642857142856  16.660714285714285 0.9508928571428568  C 18.142857142857146 1.584821428571428  19.419642857142858 2.4375  20.49107142857143 3.5089285714285703  C 21.562500000000004 4.580357142857143  22.415178571428577 5.857142857142855  23.049107142857142 7.3392857142857135  Z " fill-rule="nonzero" fill="rgba(249, 252, 255, 1)" stroke="none" transform="matrix(1 0 0 1 388 15 )" class="fill" />
    <path d="M 16.767857142857142 21.113839285714285  C 18.24107142857143 20.33258928571429  19.45089285714286 19.272321428571427  20.39732142857143 17.933035714285715  C 20.20089285714286 16.549107142857142  19.810267857142858 15.399553571428571  19.22544642857143 14.484375  C 18.640625 13.569196428571429  17.81696428571429 13.04017857142857  16.754464285714285 12.897321428571427  C 16.15625 13.558035714285712  15.444196428571429 14.073660714285712  14.61830357142857 14.444196428571427  C 13.792410714285717 14.814732142857142  12.919642857142858 15  12 15  C 11.080357142857142 15  10.207589285714286 14.814732142857142  9.381696428571429 14.444196428571427  C 8.555803571428573 14.073660714285712  7.84375 13.558035714285712  7.245535714285715 12.897321428571427  C 6.1830357142857135 13.04017857142857  5.359375 13.569196428571429  4.774553571428571 14.484375  C 4.189732142857143 15.399553571428571  3.7991071428571432 16.549107142857142  3.6026785714285716 17.933035714285715  C 4.549107142857143 19.272321428571427  5.758928571428571 20.33258928571429  7.232142857142857 21.113839285714285  C 8.705357142857142 21.895089285714285  10.294642857142858 22.285714285714285  12 22.285714285714285  C 13.705357142857144 22.285714285714285  15.294642857142858 21.895089285714285  16.767857142857142 21.113839285714285  Z " stroke-width="0" stroke-dasharray="0" stroke="rgba(255, 255, 255, 0)" fill="none" transform="matrix(1 0 0 1 388 15 )" class="stroke" mask="url(#Clip44)" />
    <path d="M 15.636160714285714 12.207589285714286  C 16.640625 11.203125  17.142857142857142 9.99107142857143  17.142857142857142 8.57142857142857  C 17.142857142857142 7.1517857142857135  16.640625 5.939732142857143  15.636160714285714 4.935267857142857  C 14.63169642857143 3.9308035714285703  13.419642857142858 3.4285714285714297  12 3.4285714285714297  C 10.580357142857142 3.4285714285714297  9.368303571428571 3.9308035714285703  8.363839285714285 4.935267857142857  C 7.359375 5.939732142857143  6.857142857142857 7.1517857142857135  6.857142857142857 8.57142857142857  C 6.857142857142857 9.99107142857143  7.359375 11.203125  8.363839285714285 12.207589285714286  C 9.368303571428571 13.212053571428573  10.580357142857142 13.714285714285714  12 13.714285714285714  C 13.419642857142858 13.714285714285714  14.63169642857143 13.212053571428573  15.636160714285714 12.207589285714286  Z " stroke-width="0" stroke-dasharray="0" stroke="rgba(255, 255, 255, 0)" fill="none" transform="matrix(1 0 0 1 388 15 )" class="stroke" mask="url(#Clip44)" />
    <path d="M 23.049107142857142 7.3392857142857135  C 23.683035714285715 8.82142857142857  24 10.375  24 12  C 24 13.624999999999998  23.683035714285715 15.176339285714283  23.049107142857142 16.654017857142858  C 22.415178571428577 18.131696428571427  21.564732142857146 19.408482142857142  20.497767857142858 20.484375  C 19.430803571428573 21.560267857142854  18.15625 22.415178571428573  16.674107142857142 23.049107142857142  C 15.191964285714288 23.683035714285715  13.63392857142857 24  12 24  C 10.375 24  8.821428571428573 23.683035714285715  7.339285714285715 23.049107142857142  C 5.857142857142858 22.415178571428573  4.580357142857142 21.5625  3.5089285714285716 20.491071428571427  C 2.4375 19.419642857142858  1.5848214285714286 18.142857142857142  0.9508928571428571 16.660714285714285  C 0.3169642857142857 15.178571428571427  0 13.624999999999998  0 12  C 0 10.375  0.3169642857142857 8.82142857142857  0.9508928571428571 7.3392857142857135  C 1.5848214285714286 5.857142857142855  2.4375 4.580357142857143  3.5089285714285716 3.5089285714285703  C 4.580357142857142 2.4375  5.857142857142858 1.584821428571428  7.339285714285715 0.9508928571428568  C 8.821428571428573 0.3169642857142856  10.375 0  12 0  C 13.625 0  15.17857142857143 0.3169642857142856  16.660714285714285 0.9508928571428568  C 18.142857142857146 1.584821428571428  19.419642857142858 2.4375  20.49107142857143 3.5089285714285703  C 21.562500000000004 4.580357142857143  22.415178571428577 5.857142857142855  23.049107142857142 7.3392857142857135  Z " stroke-width="0" stroke-dasharray="0" stroke="rgba(255, 255, 255, 0)" fill="none" transform="matrix(1 0 0 1 388 15 )" class="stroke" mask="url(#Clip44)" />
  </g>
</svg>