<?xml version="1.0" encoding="utf-8"?>
<svg version="1.1" xmlns:xlink="http://www.w3.org/1999/xlink" width="16px" height="16px" xmlns="http://www.w3.org/2000/svg">
  <defs>
    <pattern id="BGPattern" patternUnits="userSpaceOnUse" alignment="0 0" imageRepeat="None" />
    <mask fill="white" id="Clip66">
      <path d="M 8 15.285714285714286  C 8.102564102564104 15.285714285714286  8.153846153846155 15.238095238095239  8.153846153846153 15.142857142857142  C 8.153846153846155 15.047619047619047  8.102564102564104 15  8 15  C 7.621794871794872 15  7.29647435897436 14.873511904761903  7.024038461538462 14.620535714285714  C 6.751602564102565 14.367559523809524  6.615384615384615 14.06547619047619  6.615384615384615 13.714285714285715  C 6.615384615384615 13.619047619047619  6.564102564102565 13.571428571428571  6.461538461538462 13.571428571428571  C 6.3589743589743595 13.571428571428571  6.3076923076923075 13.619047619047619  6.3076923076923075 13.714285714285715  C 6.3076923076923075 14.148809523809524  6.472756410256411 14.519345238095239  6.802884615384615 14.825892857142858  C 7.133012820512821 15.132440476190476  7.532051282051283 15.285714285714286  8 15.285714285714286  Z M 15.125 11.785714285714285  C 15.387820512820515 12.05952380952381  15.67948717948718 12.321428571428571  16 12.571428571428571  C 16.000000000000004 12.880952380952381  15.87820512820513 13.148809523809526  15.634615384615385 13.375  C 15.391025641025642 13.601190476190474  15.102564102564104 13.714285714285715  14.76923076923077 13.714285714285715  L 10.461538461538462 13.714285714285715  C 10.461538461538462 14.345238095238097  10.221153846153847 14.883928571428571  9.740384615384615 15.330357142857142  C 9.259615384615385 15.776785714285714  8.67948717948718 16  8 16  C 7.320512820512821 16  6.740384615384615 15.776785714285714  6.259615384615385 15.330357142857142  C 5.778846153846154 14.883928571428571  5.538461538461538 14.345238095238097  5.538461538461538 13.714285714285715  L 1.2307692307692308 13.714285714285715  C 0.8974358974358976 13.714285714285715  0.608974358974359 13.601190476190474  0.36538461538461536 13.375  C 0.12179487179487183 13.148809523809526  0 12.880952380952381  0 12.571428571428571  C 0.3205128205128206 12.321428571428571  0.6121794871794873 12.05952380952381  0.875 11.785714285714285  C 1.137820512820513 11.511904761904761  1.4102564102564104 11.15625  1.6923076923076923 10.71875  C 1.9743589743589747 10.28125  2.213141025641026 9.809523809523808  2.4086538461538463 9.303571428571429  C 2.604166666666667 8.797619047619047  2.764423076923077 8.18452380952381  2.889423076923077 7.4642857142857135  C 3.014423076923077 6.744047619047619  3.076923076923077 5.970238095238093  3.076923076923077 5.142857142857142  C 3.076923076923077 4.238095238095237  3.451923076923077 3.397321428571429  4.201923076923077 2.6205357142857135  C 4.951923076923077 1.84375  5.935897435897436 1.3720238095238084  7.153846153846154 1.2053571428571423  C 7.102564102564103 1.0922619047619033  7.076923076923077 0.9761904761904763  7.076923076923077 0.8571428571428577  C 7.076923076923077 0.6190476190476186  7.166666666666667 0.4166666666666661  7.346153846153846 0.25  C 7.525641025641026 0.08333333333333393  7.743589743589744 0  8 0  C 8.256410256410257 0  8.474358974358976 0.08333333333333393  8.653846153846153 0.25  C 8.833333333333334 0.4166666666666661  8.923076923076923 0.6190476190476186  8.923076923076923 0.8571428571428577  C 8.923076923076923 0.9761904761904763  8.897435897435898 1.0922619047619033  8.846153846153847 1.2053571428571423  C 10.064102564102566 1.3720238095238084  11.048076923076923 1.84375  11.798076923076923 2.6205357142857135  C 12.548076923076923 3.397321428571429  12.923076923076923 4.238095238095237  12.923076923076923 5.142857142857142  C 12.923076923076923 5.970238095238093  12.985576923076923 6.744047619047619  13.110576923076923 7.4642857142857135  C 13.235576923076923 8.18452380952381  13.395833333333334 8.797619047619047  13.591346153846153 9.303571428571429  C 13.786858974358976 9.809523809523808  14.025641025641026 10.28125  14.307692307692308 10.71875  C 14.589743589743591 11.15625  14.86217948717949 11.511904761904761  15.125 11.785714285714285  Z " fill-rule="evenodd" />
    </mask>
  </defs>
  <g transform="matrix(1 0 0 1 -327 -25 )">
    <path d="M 8 15.285714285714286  C 8.102564102564104 15.285714285714286  8.153846153846155 15.238095238095239  8.153846153846153 15.142857142857142  C 8.153846153846155 15.047619047619047  8.102564102564104 15  8 15  C 7.621794871794872 15  7.29647435897436 14.873511904761903  7.024038461538462 14.620535714285714  C 6.751602564102565 14.367559523809524  6.615384615384615 14.06547619047619  6.615384615384615 13.714285714285715  C 6.615384615384615 13.619047619047619  6.564102564102565 13.571428571428571  6.461538461538462 13.571428571428571  C 6.3589743589743595 13.571428571428571  6.3076923076923075 13.619047619047619  6.3076923076923075 13.714285714285715  C 6.3076923076923075 14.148809523809524  6.472756410256411 14.519345238095239  6.802884615384615 14.825892857142858  C 7.133012820512821 15.132440476190476  7.532051282051283 15.285714285714286  8 15.285714285714286  Z M 15.125 11.785714285714285  C 15.387820512820515 12.05952380952381  15.67948717948718 12.321428571428571  16 12.571428571428571  C 16.000000000000004 12.880952380952381  15.87820512820513 13.148809523809526  15.634615384615385 13.375  C 15.391025641025642 13.601190476190474  15.102564102564104 13.714285714285715  14.76923076923077 13.714285714285715  L 10.461538461538462 13.714285714285715  C 10.461538461538462 14.345238095238097  10.221153846153847 14.883928571428571  9.740384615384615 15.330357142857142  C 9.259615384615385 15.776785714285714  8.67948717948718 16  8 16  C 7.320512820512821 16  6.740384615384615 15.776785714285714  6.259615384615385 15.330357142857142  C 5.778846153846154 14.883928571428571  5.538461538461538 14.345238095238097  5.538461538461538 13.714285714285715  L 1.2307692307692308 13.714285714285715  C 0.8974358974358976 13.714285714285715  0.608974358974359 13.601190476190474  0.36538461538461536 13.375  C 0.12179487179487183 13.148809523809526  0 12.880952380952381  0 12.571428571428571  C 0.3205128205128206 12.321428571428571  0.6121794871794873 12.05952380952381  0.875 11.785714285714285  C 1.137820512820513 11.511904761904761  1.4102564102564104 11.15625  1.6923076923076923 10.71875  C 1.9743589743589747 10.28125  2.213141025641026 9.809523809523808  2.4086538461538463 9.303571428571429  C 2.604166666666667 8.797619047619047  2.764423076923077 8.18452380952381  2.889423076923077 7.4642857142857135  C 3.014423076923077 6.744047619047619  3.076923076923077 5.970238095238093  3.076923076923077 5.142857142857142  C 3.076923076923077 4.238095238095237  3.451923076923077 3.397321428571429  4.201923076923077 2.6205357142857135  C 4.951923076923077 1.84375  5.935897435897436 1.3720238095238084  7.153846153846154 1.2053571428571423  C 7.102564102564103 1.0922619047619033  7.076923076923077 0.9761904761904763  7.076923076923077 0.8571428571428577  C 7.076923076923077 0.6190476190476186  7.166666666666667 0.4166666666666661  7.346153846153846 0.25  C 7.525641025641026 0.08333333333333393  7.743589743589744 0  8 0  C 8.256410256410257 0  8.474358974358976 0.08333333333333393  8.653846153846153 0.25  C 8.833333333333334 0.4166666666666661  8.923076923076923 0.6190476190476186  8.923076923076923 0.8571428571428577  C 8.923076923076923 0.9761904761904763  8.897435897435898 1.0922619047619033  8.846153846153847 1.2053571428571423  C 10.064102564102566 1.3720238095238084  11.048076923076923 1.84375  11.798076923076923 2.6205357142857135  C 12.548076923076923 3.397321428571429  12.923076923076923 4.238095238095237  12.923076923076923 5.142857142857142  C 12.923076923076923 5.970238095238093  12.985576923076923 6.744047619047619  13.110576923076923 7.4642857142857135  C 13.235576923076923 8.18452380952381  13.395833333333334 8.797619047619047  13.591346153846153 9.303571428571429  C 13.786858974358976 9.809523809523808  14.025641025641026 10.28125  14.307692307692308 10.71875  C 14.589743589743591 11.15625  14.86217948717949 11.511904761904761  15.125 11.785714285714285  Z " fill-rule="nonzero" fill="rgba(2, 133, 189, 1)" stroke="none" transform="matrix(1 0 0 1 327 25 )" class="fill" />
    <path d="M 8 15.285714285714286  C 8.102564102564104 15.285714285714286  8.153846153846155 15.238095238095239  8.153846153846153 15.142857142857142  C 8.153846153846155 15.047619047619047  8.102564102564104 15  8 15  C 7.621794871794872 15  7.29647435897436 14.873511904761903  7.024038461538462 14.620535714285714  C 6.751602564102565 14.367559523809524  6.615384615384615 14.06547619047619  6.615384615384615 13.714285714285715  C 6.615384615384615 13.619047619047619  6.564102564102565 13.571428571428571  6.461538461538462 13.571428571428571  C 6.3589743589743595 13.571428571428571  6.3076923076923075 13.619047619047619  6.3076923076923075 13.714285714285715  C 6.3076923076923075 14.148809523809524  6.472756410256411 14.519345238095239  6.802884615384615 14.825892857142858  C 7.133012820512821 15.132440476190476  7.532051282051283 15.285714285714286  8 15.285714285714286  Z " stroke-width="0" stroke-dasharray="0" stroke="rgba(255, 255, 255, 0)" fill="none" transform="matrix(1 0 0 1 327 25 )" class="stroke" mask="url(#Clip66)" />
    <path d="M 15.125 11.785714285714285  C 15.387820512820515 12.05952380952381  15.67948717948718 12.321428571428571  16 12.571428571428571  C 16.000000000000004 12.880952380952381  15.87820512820513 13.148809523809526  15.634615384615385 13.375  C 15.391025641025642 13.601190476190474  15.102564102564104 13.714285714285715  14.76923076923077 13.714285714285715  L 10.461538461538462 13.714285714285715  C 10.461538461538462 14.345238095238097  10.221153846153847 14.883928571428571  9.740384615384615 15.330357142857142  C 9.259615384615385 15.776785714285714  8.67948717948718 16  8 16  C 7.320512820512821 16  6.740384615384615 15.776785714285714  6.259615384615385 15.330357142857142  C 5.778846153846154 14.883928571428571  5.538461538461538 14.345238095238097  5.538461538461538 13.714285714285715  L 1.2307692307692308 13.714285714285715  C 0.8974358974358976 13.714285714285715  0.608974358974359 13.601190476190474  0.36538461538461536 13.375  C 0.12179487179487183 13.148809523809526  0 12.880952380952381  0 12.571428571428571  C 0.3205128205128206 12.321428571428571  0.6121794871794873 12.05952380952381  0.875 11.785714285714285  C 1.137820512820513 11.511904761904761  1.4102564102564104 11.15625  1.6923076923076923 10.71875  C 1.9743589743589747 10.28125  2.213141025641026 9.809523809523808  2.4086538461538463 9.303571428571429  C 2.604166666666667 8.797619047619047  2.764423076923077 8.18452380952381  2.889423076923077 7.4642857142857135  C 3.014423076923077 6.744047619047619  3.076923076923077 5.970238095238093  3.076923076923077 5.142857142857142  C 3.076923076923077 4.238095238095237  3.451923076923077 3.397321428571429  4.201923076923077 2.6205357142857135  C 4.951923076923077 1.84375  5.935897435897436 1.3720238095238084  7.153846153846154 1.2053571428571423  C 7.102564102564103 1.0922619047619033  7.076923076923077 0.9761904761904763  7.076923076923077 0.8571428571428577  C 7.076923076923077 0.6190476190476186  7.166666666666667 0.4166666666666661  7.346153846153846 0.25  C 7.525641025641026 0.08333333333333393  7.743589743589744 0  8 0  C 8.256410256410257 0  8.474358974358976 0.08333333333333393  8.653846153846153 0.25  C 8.833333333333334 0.4166666666666661  8.923076923076923 0.6190476190476186  8.923076923076923 0.8571428571428577  C 8.923076923076923 0.9761904761904763  8.897435897435898 1.0922619047619033  8.846153846153847 1.2053571428571423  C 10.064102564102566 1.3720238095238084  11.048076923076923 1.84375  11.798076923076923 2.6205357142857135  C 12.548076923076923 3.397321428571429  12.923076923076923 4.238095238095237  12.923076923076923 5.142857142857142  C 12.923076923076923 5.970238095238093  12.985576923076923 6.744047619047619  13.110576923076923 7.4642857142857135  C 13.235576923076923 8.18452380952381  13.395833333333334 8.797619047619047  13.591346153846153 9.303571428571429  C 13.786858974358976 9.809523809523808  14.025641025641026 10.28125  14.307692307692308 10.71875  C 14.589743589743591 11.15625  14.86217948717949 11.511904761904761  15.125 11.785714285714285  Z " stroke-width="0" stroke-dasharray="0" stroke="rgba(255, 255, 255, 0)" fill="none" transform="matrix(1 0 0 1 327 25 )" class="stroke" mask="url(#Clip66)" />
  </g>
</svg>