<?xml version="1.0" encoding="utf-8"?>
<svg version="1.1" xmlns:xlink="http://www.w3.org/1999/xlink" width="32px" height="38px" xmlns="http://www.w3.org/2000/svg">
  <defs>
    <pattern id="BGPattern" patternUnits="userSpaceOnUse" alignment="0 0" imageRepeat="None" />
    <mask fill="white" id="Clip70">
      <path d="M 9.333333333333334 0  L 22.666666666666668 0  C 25.236111111111114 0  27.434027777777782 0.6609002976190492  29.260416666666668 1.9827008928571435  C 31.086805555555554 3.3045014880952377  32 4.905505952380951  32 6.7857142857142865  L 32 25.78571428571429  C 32 27.623511904761905  31.128472222222218 29.192708333333336  29.385416666666668 30.493303571428573  C 27.642361111111114 31.793898809523807  25.520833333333332 32.47953869047619  23.020833333333332 32.550223214285715  L 27.458333333333332 36.833705357142854  C 27.680555555555557 37.04575892857143  27.736111111111114 37.29315476190476  27.625 37.575892857142854  C 27.51388888888889 37.85863095238095  27.305555555555557 38  27 38  L 5 38  C 4.694444444444445 38  4.486111111111112 37.85863095238095  4.375 37.575892857142854  C 4.263888888888889 37.29315476190476  4.319444444444445 37.04575892857143  4.541666666666667 36.833705357142854  L 8.979166666666666 32.550223214285715  C 6.479166666666667 32.47953869047619  4.357638888888889 31.793898809523807  2.6145833333333335 30.493303571428573  C 0.8715277777777777 29.192708333333336  0 27.623511904761905  0 25.78571428571429  L 0 6.7857142857142865  C 0 4.905505952380951  0.9131944444444443 3.3045014880952377  2.7395833333333335 1.9827008928571435  C 4.565972222222222 0.6609002976190492  6.763888888888888 0  9.333333333333334 0  Z M 13.166666666666666 27.3125  C 13.944444444444445 28.104166666666664  14.888888888888891 28.5  16 28.5  C 17.11111111111111 28.5  18.055555555555557 28.104166666666664  18.833333333333332 27.3125  C 19.611111111111114 26.52083333333333  20.000000000000004 25.559523809523807  20 24.428571428571427  C 20.000000000000004 23.297619047619044  19.611111111111114 22.336309523809526  18.833333333333332 21.544642857142858  C 18.055555555555557 20.75297619047619  17.11111111111111 20.357142857142858  16 20.357142857142858  C 14.888888888888891 20.357142857142858  13.944444444444445 20.75297619047619  13.166666666666666 21.544642857142858  C 12.388888888888891 22.336309523809526  12 23.297619047619044  12 24.428571428571427  C 12 25.559523809523807  12.388888888888891 26.52083333333333  13.166666666666666 27.3125  Z M 4 17  L 28 17  L 28 6  L 4 6  L 4 17  Z " fill-rule="evenodd" />
    </mask>
  </defs>
  <g transform="matrix(1 0 0 1 -33 -115 )">
    <path d="M 9.333333333333334 0  L 22.666666666666668 0  C 25.236111111111114 0  27.434027777777782 0.6609002976190492  29.260416666666668 1.9827008928571435  C 31.086805555555554 3.3045014880952377  32 4.905505952380951  32 6.7857142857142865  L 32 25.78571428571429  C 32 27.623511904761905  31.128472222222218 29.192708333333336  29.385416666666668 30.493303571428573  C 27.642361111111114 31.793898809523807  25.520833333333332 32.47953869047619  23.020833333333332 32.550223214285715  L 27.458333333333332 36.833705357142854  C 27.680555555555557 37.04575892857143  27.736111111111114 37.29315476190476  27.625 37.575892857142854  C 27.51388888888889 37.85863095238095  27.305555555555557 38  27 38  L 5 38  C 4.694444444444445 38  4.486111111111112 37.85863095238095  4.375 37.575892857142854  C 4.263888888888889 37.29315476190476  4.319444444444445 37.04575892857143  4.541666666666667 36.833705357142854  L 8.979166666666666 32.550223214285715  C 6.479166666666667 32.47953869047619  4.357638888888889 31.793898809523807  2.6145833333333335 30.493303571428573  C 0.8715277777777777 29.192708333333336  0 27.623511904761905  0 25.78571428571429  L 0 6.7857142857142865  C 0 4.905505952380951  0.9131944444444443 3.3045014880952377  2.7395833333333335 1.9827008928571435  C 4.565972222222222 0.6609002976190492  6.763888888888888 0  9.333333333333334 0  Z M 13.166666666666666 27.3125  C 13.944444444444445 28.104166666666664  14.888888888888891 28.5  16 28.5  C 17.11111111111111 28.5  18.055555555555557 28.104166666666664  18.833333333333332 27.3125  C 19.611111111111114 26.52083333333333  20.000000000000004 25.559523809523807  20 24.428571428571427  C 20.000000000000004 23.297619047619044  19.611111111111114 22.336309523809526  18.833333333333332 21.544642857142858  C 18.055555555555557 20.75297619047619  17.11111111111111 20.357142857142858  16 20.357142857142858  C 14.888888888888891 20.357142857142858  13.944444444444445 20.75297619047619  13.166666666666666 21.544642857142858  C 12.388888888888891 22.336309523809526  12 23.297619047619044  12 24.428571428571427  C 12 25.559523809523807  12.388888888888891 26.52083333333333  13.166666666666666 27.3125  Z M 4 17  L 28 17  L 28 6  L 4 6  L 4 17  Z " fill-rule="nonzero" fill="rgba(51, 51, 51, 1)" stroke="none" transform="matrix(1 0 0 1 33 115 )" class="fill" />
    <path d="M 9.333333333333334 0  L 22.666666666666668 0  C 25.236111111111114 0  27.434027777777782 0.6609002976190492  29.260416666666668 1.9827008928571435  C 31.086805555555554 3.3045014880952377  32 4.905505952380951  32 6.7857142857142865  L 32 25.78571428571429  C 32 27.623511904761905  31.128472222222218 29.192708333333336  29.385416666666668 30.493303571428573  C 27.642361111111114 31.793898809523807  25.520833333333332 32.47953869047619  23.020833333333332 32.550223214285715  L 27.458333333333332 36.833705357142854  C 27.680555555555557 37.04575892857143  27.736111111111114 37.29315476190476  27.625 37.575892857142854  C 27.51388888888889 37.85863095238095  27.305555555555557 38  27 38  L 5 38  C 4.694444444444445 38  4.486111111111112 37.85863095238095  4.375 37.575892857142854  C 4.263888888888889 37.29315476190476  4.319444444444445 37.04575892857143  4.541666666666667 36.833705357142854  L 8.979166666666666 32.550223214285715  C 6.479166666666667 32.47953869047619  4.357638888888889 31.793898809523807  2.6145833333333335 30.493303571428573  C 0.8715277777777777 29.192708333333336  0 27.623511904761905  0 25.78571428571429  L 0 6.7857142857142865  C 0 4.905505952380951  0.9131944444444443 3.3045014880952377  2.7395833333333335 1.9827008928571435  C 4.565972222222222 0.6609002976190492  6.763888888888888 0  9.333333333333334 0  Z " stroke-width="0" stroke-dasharray="0" stroke="rgba(255, 255, 255, 0)" fill="none" transform="matrix(1 0 0 1 33 115 )" class="stroke" mask="url(#Clip70)" />
    <path d="M 13.166666666666666 27.3125  C 13.944444444444445 28.104166666666664  14.888888888888891 28.5  16 28.5  C 17.11111111111111 28.5  18.055555555555557 28.104166666666664  18.833333333333332 27.3125  C 19.611111111111114 26.52083333333333  20.000000000000004 25.559523809523807  20 24.428571428571427  C 20.000000000000004 23.297619047619044  19.611111111111114 22.336309523809526  18.833333333333332 21.544642857142858  C 18.055555555555557 20.75297619047619  17.11111111111111 20.357142857142858  16 20.357142857142858  C 14.888888888888891 20.357142857142858  13.944444444444445 20.75297619047619  13.166666666666666 21.544642857142858  C 12.388888888888891 22.336309523809526  12 23.297619047619044  12 24.428571428571427  C 12 25.559523809523807  12.388888888888891 26.52083333333333  13.166666666666666 27.3125  Z " stroke-width="0" stroke-dasharray="0" stroke="rgba(255, 255, 255, 0)" fill="none" transform="matrix(1 0 0 1 33 115 )" class="stroke" mask="url(#Clip70)" />
    <path d="M 4 17  L 28 17  L 28 6  L 4 6  L 4 17  Z " stroke-width="0" stroke-dasharray="0" stroke="rgba(255, 255, 255, 0)" fill="none" transform="matrix(1 0 0 1 33 115 )" class="stroke" mask="url(#Clip70)" />
  </g>
</svg>