<?xml version="1.0" encoding="utf-8"?>
<svg version="1.1" xmlns:xlink="http://www.w3.org/1999/xlink" width="9px" height="16px" xmlns="http://www.w3.org/2000/svg">
  <defs>
    <pattern id="BGPattern" patternUnits="userSpaceOnUse" alignment="0 0" imageRepeat="None" />
    <mask fill="white" id="Clip47">
      <path d="M 8.894805194805196 3.648148148148149  C 8.996103896103897 3.746913580246913  9.015584415584417 3.8549382716049383  8.953246753246754 3.9722222222222214  C 8.883116883116884 4.089506172839505  8.770129870129871 4.148148148148149  8.614285714285714 4.148148148148149  L 6 4.148148148148149  L 6 15.703703703703704  C 5.996103896103897 15.790123456790123  5.961038961038961 15.86111111111111  5.890909090909091 15.916666666666666  C 5.820779220779221 15.972222222222221  5.731168831168831 16  5.6220779220779225 16  L 3.377922077922078 16  C 3.268831168831169 16  3.1792207792207794 15.972222222222221  3.1090909090909093 15.916666666666666  C 3.038961038961039 15.86111111111111  3.003896103896104 15.790123456790123  3 15.703703703703704  L 3 4.148148148148149  L 0.38571428571428573 4.148148148148149  C 0.2220779220779221 4.148148148148149  0.10909090909090909 4.089506172839505  0.046753246753246755 3.9722222222222214  C -0.015584415584415593 3.8549382716049383  0.0038961038961038874 3.746913580246913  0.1051948051948052 3.648148148148149  L 4.196103896103896 0.09259259259259345  C 4.2740259740259745 0.03086419753086389  4.363636363636364 0  4.464935064935065 0  C 4.574025974025974 0  4.667532467532467 0.03086419753086389  4.745454545454545 0.09259259259259345  L 8.894805194805196 3.648148148148149  Z " fill-rule="evenodd" />
    </mask>
  </defs>
  <g transform="matrix(1 0 0 1 -375 -52 )">
    <path d="M 8.894805194805196 3.648148148148149  C 8.996103896103897 3.746913580246913  9.015584415584417 3.8549382716049383  8.953246753246754 3.9722222222222214  C 8.883116883116884 4.089506172839505  8.770129870129871 4.148148148148149  8.614285714285714 4.148148148148149  L 6 4.148148148148149  L 6 15.703703703703704  C 5.996103896103897 15.790123456790123  5.961038961038961 15.86111111111111  5.890909090909091 15.916666666666666  C 5.820779220779221 15.972222222222221  5.731168831168831 16  5.6220779220779225 16  L 3.377922077922078 16  C 3.268831168831169 16  3.1792207792207794 15.972222222222221  3.1090909090909093 15.916666666666666  C 3.038961038961039 15.86111111111111  3.003896103896104 15.790123456790123  3 15.703703703703704  L 3 4.148148148148149  L 0.38571428571428573 4.148148148148149  C 0.2220779220779221 4.148148148148149  0.10909090909090909 4.089506172839505  0.046753246753246755 3.9722222222222214  C -0.015584415584415593 3.8549382716049383  0.0038961038961038874 3.746913580246913  0.1051948051948052 3.648148148148149  L 4.196103896103896 0.09259259259259345  C 4.2740259740259745 0.03086419753086389  4.363636363636364 0  4.464935064935065 0  C 4.574025974025974 0  4.667532467532467 0.03086419753086389  4.745454545454545 0.09259259259259345  L 8.894805194805196 3.648148148148149  Z " fill-rule="nonzero" fill="rgba(2, 133, 189, 1)" stroke="none" transform="matrix(1 0 0 1 375 52 )" class="fill" />
    <path d="M 8.894805194805196 3.648148148148149  C 8.996103896103897 3.746913580246913  9.015584415584417 3.8549382716049383  8.953246753246754 3.9722222222222214  C 8.883116883116884 4.089506172839505  8.770129870129871 4.148148148148149  8.614285714285714 4.148148148148149  L 6 4.148148148148149  L 6 15.703703703703704  C 5.996103896103897 15.790123456790123  5.961038961038961 15.86111111111111  5.890909090909091 15.916666666666666  C 5.820779220779221 15.972222222222221  5.731168831168831 16  5.6220779220779225 16  L 3.377922077922078 16  C 3.268831168831169 16  3.1792207792207794 15.972222222222221  3.1090909090909093 15.916666666666666  C 3.038961038961039 15.86111111111111  3.003896103896104 15.790123456790123  3 15.703703703703704  L 3 4.148148148148149  L 0.38571428571428573 4.148148148148149  C 0.2220779220779221 4.148148148148149  0.10909090909090909 4.089506172839505  0.046753246753246755 3.9722222222222214  C -0.015584415584415593 3.8549382716049383  0.0038961038961038874 3.746913580246913  0.1051948051948052 3.648148148148149  L 4.196103896103896 0.09259259259259345  C 4.2740259740259745 0.03086419753086389  4.363636363636364 0  4.464935064935065 0  C 4.574025974025974 0  4.667532467532467 0.03086419753086389  4.745454545454545 0.09259259259259345  L 8.894805194805196 3.648148148148149  Z " stroke-width="0" stroke-dasharray="0" stroke="rgba(255, 255, 255, 0)" fill="none" transform="matrix(1 0 0 1 375 52 )" class="stroke" mask="url(#Clip47)" />
  </g>
</svg>