<?xml version="1.0" encoding="utf-8"?>
<svg version="1.1" xmlns:xlink="http://www.w3.org/1999/xlink" width="9px" height="16px" xmlns="http://www.w3.org/2000/svg">
  <defs>
    <pattern id="BGPattern" patternUnits="userSpaceOnUse" alignment="0 0" imageRepeat="None" />
    <mask fill="white" id="Clip48">
      <path d="M 8.614285714285714 11.851851851851851  C 8.777922077922078 11.851851851851851  8.890909090909092 11.910493827160494  8.953246753246754 12.027777777777779  C 9.015584415584417 12.145061728395063  8.996103896103897 12.253086419753085  8.894805194805196 12.351851851851851  L 4.803896103896104 15.907407407407407  C 4.725974025974026 15.969135802469136  4.636363636363637 16  4.535064935064934 16  C 4.425974025974027 16  4.332467532467533 15.969135802469136  4.254545454545455 15.907407407407407  L 0.1051948051948052 12.351851851851851  C 0.0038961038961038874 12.253086419753085  -0.015584415584415593 12.145061728395063  0.046753246753246755 12.027777777777779  C 0.1168831168831169 11.910493827160494  0.22987012987012984 11.851851851851851  0.38571428571428573 11.851851851851851  L 3 11.851851851851851  L 3 0.29629629629629584  C 3.003896103896104 0.2098765432098748  3.038961038961039 0.13888888888888928  3.1090909090909093 0.08333333333333393  C 3.1792207792207794 0.027777777777778567  3.268831168831169 0  3.377922077922078 0  L 5.6220779220779225 0  C 5.731168831168831 0  5.820779220779221 0.027777777777778567  5.890909090909091 0.08333333333333393  C 5.961038961038961 0.13888888888888928  5.996103896103897 0.2098765432098748  6 0.29629629629629584  L 6 11.851851851851851  L 8.614285714285714 11.851851851851851  Z " fill-rule="evenodd" />
    </mask>
  </defs>
  <g transform="matrix(1 0 0 1 -384 -60 )">
    <path d="M 8.614285714285714 11.851851851851851  C 8.777922077922078 11.851851851851851  8.890909090909092 11.910493827160494  8.953246753246754 12.027777777777779  C 9.015584415584417 12.145061728395063  8.996103896103897 12.253086419753085  8.894805194805196 12.351851851851851  L 4.803896103896104 15.907407407407407  C 4.725974025974026 15.969135802469136  4.636363636363637 16  4.535064935064934 16  C 4.425974025974027 16  4.332467532467533 15.969135802469136  4.254545454545455 15.907407407407407  L 0.1051948051948052 12.351851851851851  C 0.0038961038961038874 12.253086419753085  -0.015584415584415593 12.145061728395063  0.046753246753246755 12.027777777777779  C 0.1168831168831169 11.910493827160494  0.22987012987012984 11.851851851851851  0.38571428571428573 11.851851851851851  L 3 11.851851851851851  L 3 0.29629629629629584  C 3.003896103896104 0.2098765432098748  3.038961038961039 0.13888888888888928  3.1090909090909093 0.08333333333333393  C 3.1792207792207794 0.027777777777778567  3.268831168831169 0  3.377922077922078 0  L 5.6220779220779225 0  C 5.731168831168831 0  5.820779220779221 0.027777777777778567  5.890909090909091 0.08333333333333393  C 5.961038961038961 0.13888888888888928  5.996103896103897 0.2098765432098748  6 0.29629629629629584  L 6 11.851851851851851  L 8.614285714285714 11.851851851851851  Z " fill-rule="nonzero" fill="rgba(2, 133, 189, 1)" stroke="none" transform="matrix(1 0 0 1 384 60 )" class="fill" />
    <path d="M 8.614285714285714 11.851851851851851  C 8.777922077922078 11.851851851851851  8.890909090909092 11.910493827160494  8.953246753246754 12.027777777777779  C 9.015584415584417 12.145061728395063  8.996103896103897 12.253086419753085  8.894805194805196 12.351851851851851  L 4.803896103896104 15.907407407407407  C 4.725974025974026 15.969135802469136  4.636363636363637 16  4.535064935064934 16  C 4.425974025974027 16  4.332467532467533 15.969135802469136  4.254545454545455 15.907407407407407  L 0.1051948051948052 12.351851851851851  C 0.0038961038961038874 12.253086419753085  -0.015584415584415593 12.145061728395063  0.046753246753246755 12.027777777777779  C 0.1168831168831169 11.910493827160494  0.22987012987012984 11.851851851851851  0.38571428571428573 11.851851851851851  L 3 11.851851851851851  L 3 0.29629629629629584  C 3.003896103896104 0.2098765432098748  3.038961038961039 0.13888888888888928  3.1090909090909093 0.08333333333333393  C 3.1792207792207794 0.027777777777778567  3.268831168831169 0  3.377922077922078 0  L 5.6220779220779225 0  C 5.731168831168831 0  5.820779220779221 0.027777777777778567  5.890909090909091 0.08333333333333393  C 5.961038961038961 0.13888888888888928  5.996103896103897 0.2098765432098748  6 0.29629629629629584  L 6 11.851851851851851  L 8.614285714285714 11.851851851851851  Z " stroke-width="0" stroke-dasharray="0" stroke="rgba(255, 255, 255, 0)" fill="none" transform="matrix(1 0 0 1 384 60 )" class="stroke" mask="url(#Clip48)" />
  </g>
</svg>