<?xml version="1.0" encoding="utf-8"?>
<svg version="1.1" xmlns:xlink="http://www.w3.org/1999/xlink" width="17px" height="5px" xmlns="http://www.w3.org/2000/svg">
  <defs>
    <pattern id="BGPattern" patternUnits="userSpaceOnUse" alignment="0 0" imageRepeat="None" />
    <mask fill="white" id="Clip49">
      <path d="M 3.552475649350649 1.298828125  C 3.6973620129870137 1.435546875  3.769805194805202 1.6015625  3.769805194805202 1.796875  L 3.769805194805202 3.203125  C 3.769805194805202 3.3984375  3.6973620129870137 3.564453125  3.552475649350649 3.701171875  C 3.407589285714284 3.837890625  3.231655844155851 3.90625  3.0246753246753246 3.90625  L 1.5344155844155816 3.90625  C 1.3274350649350675 3.90625  1.151501623376622 3.837890625  1.0066152597402571 3.701171875  C 0.8617288961038924 3.564453125  0.789285714285716 3.3984375  0.789285714285716 3.203125  L 0.789285714285716 2.312499999999993  L 0.789285714285716 1.796875  C 0.789285714285716 1.6015625  0.8617288961038924 1.435546875  1.0066152597402571 1.298828125  C 1.151501623376622 1.162109375  1.3274350649350675 1.09375  1.5344155844155816 1.09375  L 3.0246753246753246 1.09375  C 3.231655844155851 1.09375  3.407589285714284 1.162109375  3.552475649350649 1.298828125  Z M 9.833644480519485 1.298828125  C 9.978530844155852 1.435546875  10.050974025974028 1.6015625  10.050974025974028 1.796875  L 10.050974025974028 3.203125  C 10.050974025974028 3.3984375  9.978530844155852 3.564453125  9.833644480519485 3.701171875  C 9.688758116883122 3.837890625  9.512824675324676 3.90625  9.305844155844163 3.90625  L 7.815584415584419 3.90625  C 7.608603896103893 3.90625  7.432670454545459 3.837890625  7.287784090909082 3.701171875  C 7.14289772727273 3.564453125  7.070454545454542 3.3984375  7.070454545454542 3.203125  L 7.070454545454542 1.796875  C 7.070454545454542 1.6015625  7.14289772727273 1.435546875  7.287784090909082 1.298828125  C 7.432670454545459 1.162109375  7.608603896103893 1.09375  7.815584415584419 1.09375  L 9.305844155844163 1.09375  C 9.512824675324676 1.09375  9.688758116883122 1.162109375  9.833644480519485 1.298828125  Z M 15.993384740259744 1.298828125  C 16.13827110389611 1.435546875  16.210714285714285 1.6015625  16.210714285714285 1.796875  L 16.210714285714285 3.203125  C 16.210714285714285 3.3984375  16.13827110389611 3.564453125  15.993384740259744 3.701171875  C 15.848498376623379 3.837890625  15.672564935064946 3.90625  15.465584415584408 3.90625  L 13.975324675324677 3.90625  C 13.768344155844161 3.90625  13.592410714285716 3.837890625  13.447524350649353 3.701171875  C 13.302637987012988 3.564453125  13.230194805194799 3.3984375  13.230194805194799 3.203125  L 13.230194805194799 1.796875  C 13.230194805194799 1.6015625  13.302637987012988 1.435546875  13.447524350649353 1.298828125  C 13.592410714285716 1.162109375  13.768344155844161 1.09375  13.975324675324677 1.09375  L 15.465584415584408 1.09375  C 15.672564935064946 1.09375  15.848498376623379 1.162109375  15.993384740259744 1.298828125  Z " fill-rule="evenodd" />
    </mask>
  </defs>
  <g transform="matrix(1 0 0 1 -36 -60 )">
    <path d="M 3.552475649350649 1.298828125  C 3.6973620129870137 1.435546875  3.769805194805202 1.6015625  3.769805194805202 1.796875  L 3.769805194805202 3.203125  C 3.769805194805202 3.3984375  3.6973620129870137 3.564453125  3.552475649350649 3.701171875  C 3.407589285714284 3.837890625  3.231655844155851 3.90625  3.0246753246753246 3.90625  L 1.5344155844155816 3.90625  C 1.3274350649350675 3.90625  1.151501623376622 3.837890625  1.0066152597402571 3.701171875  C 0.8617288961038924 3.564453125  0.789285714285716 3.3984375  0.789285714285716 3.203125  L 0.789285714285716 2.312499999999993  L 0.789285714285716 1.796875  C 0.789285714285716 1.6015625  0.8617288961038924 1.435546875  1.0066152597402571 1.298828125  C 1.151501623376622 1.162109375  1.3274350649350675 1.09375  1.5344155844155816 1.09375  L 3.0246753246753246 1.09375  C 3.231655844155851 1.09375  3.407589285714284 1.162109375  3.552475649350649 1.298828125  Z M 9.833644480519485 1.298828125  C 9.978530844155852 1.435546875  10.050974025974028 1.6015625  10.050974025974028 1.796875  L 10.050974025974028 3.203125  C 10.050974025974028 3.3984375  9.978530844155852 3.564453125  9.833644480519485 3.701171875  C 9.688758116883122 3.837890625  9.512824675324676 3.90625  9.305844155844163 3.90625  L 7.815584415584419 3.90625  C 7.608603896103893 3.90625  7.432670454545459 3.837890625  7.287784090909082 3.701171875  C 7.14289772727273 3.564453125  7.070454545454542 3.3984375  7.070454545454542 3.203125  L 7.070454545454542 1.796875  C 7.070454545454542 1.6015625  7.14289772727273 1.435546875  7.287784090909082 1.298828125  C 7.432670454545459 1.162109375  7.608603896103893 1.09375  7.815584415584419 1.09375  L 9.305844155844163 1.09375  C 9.512824675324676 1.09375  9.688758116883122 1.162109375  9.833644480519485 1.298828125  Z M 15.993384740259744 1.298828125  C 16.13827110389611 1.435546875  16.210714285714285 1.6015625  16.210714285714285 1.796875  L 16.210714285714285 3.203125  C 16.210714285714285 3.3984375  16.13827110389611 3.564453125  15.993384740259744 3.701171875  C 15.848498376623379 3.837890625  15.672564935064946 3.90625  15.465584415584408 3.90625  L 13.975324675324677 3.90625  C 13.768344155844161 3.90625  13.592410714285716 3.837890625  13.447524350649353 3.701171875  C 13.302637987012988 3.564453125  13.230194805194799 3.3984375  13.230194805194799 3.203125  L 13.230194805194799 1.796875  C 13.230194805194799 1.6015625  13.302637987012988 1.435546875  13.447524350649353 1.298828125  C 13.592410714285716 1.162109375  13.768344155844161 1.09375  13.975324675324677 1.09375  L 15.465584415584408 1.09375  C 15.672564935064946 1.09375  15.848498376623379 1.162109375  15.993384740259744 1.298828125  Z " fill-rule="nonzero" fill="rgba(170, 170, 170, 1)" stroke="none" transform="matrix(1 0 0 1 36 60 )" class="fill" />
    <path d="M 3.552475649350649 1.298828125  C 3.6973620129870137 1.435546875  3.769805194805202 1.6015625  3.769805194805202 1.796875  L 3.769805194805202 3.203125  C 3.769805194805202 3.3984375  3.6973620129870137 3.564453125  3.552475649350649 3.701171875  C 3.407589285714284 3.837890625  3.231655844155851 3.90625  3.0246753246753246 3.90625  L 1.5344155844155816 3.90625  C 1.3274350649350675 3.90625  1.151501623376622 3.837890625  1.0066152597402571 3.701171875  C 0.8617288961038924 3.564453125  0.789285714285716 3.3984375  0.789285714285716 3.203125  L 0.789285714285716 2.312499999999993  L 0.789285714285716 1.796875  C 0.789285714285716 1.6015625  0.8617288961038924 1.435546875  1.0066152597402571 1.298828125  C 1.151501623376622 1.162109375  1.3274350649350675 1.09375  1.5344155844155816 1.09375  L 3.0246753246753246 1.09375  C 3.231655844155851 1.09375  3.407589285714284 1.162109375  3.552475649350649 1.298828125  Z " stroke-width="0" stroke-dasharray="0" stroke="rgba(255, 255, 255, 0)" fill="none" transform="matrix(1 0 0 1 36 60 )" class="stroke" mask="url(#Clip49)" />
    <path d="M 9.833644480519485 1.298828125  C 9.978530844155852 1.435546875  10.050974025974028 1.6015625  10.050974025974028 1.796875  L 10.050974025974028 3.203125  C 10.050974025974028 3.3984375  9.978530844155852 3.564453125  9.833644480519485 3.701171875  C 9.688758116883122 3.837890625  9.512824675324676 3.90625  9.305844155844163 3.90625  L 7.815584415584419 3.90625  C 7.608603896103893 3.90625  7.432670454545459 3.837890625  7.287784090909082 3.701171875  C 7.14289772727273 3.564453125  7.070454545454542 3.3984375  7.070454545454542 3.203125  L 7.070454545454542 1.796875  C 7.070454545454542 1.6015625  7.14289772727273 1.435546875  7.287784090909082 1.298828125  C 7.432670454545459 1.162109375  7.608603896103893 1.09375  7.815584415584419 1.09375  L 9.305844155844163 1.09375  C 9.512824675324676 1.09375  9.688758116883122 1.162109375  9.833644480519485 1.298828125  Z " stroke-width="0" stroke-dasharray="0" stroke="rgba(255, 255, 255, 0)" fill="none" transform="matrix(1 0 0 1 36 60 )" class="stroke" mask="url(#Clip49)" />
    <path d="M 15.993384740259744 1.298828125  C 16.13827110389611 1.435546875  16.210714285714285 1.6015625  16.210714285714285 1.796875  L 16.210714285714285 3.203125  C 16.210714285714285 3.3984375  16.13827110389611 3.564453125  15.993384740259744 3.701171875  C 15.848498376623379 3.837890625  15.672564935064946 3.90625  15.465584415584408 3.90625  L 13.975324675324677 3.90625  C 13.768344155844161 3.90625  13.592410714285716 3.837890625  13.447524350649353 3.701171875  C 13.302637987012988 3.564453125  13.230194805194799 3.3984375  13.230194805194799 3.203125  L 13.230194805194799 1.796875  C 13.230194805194799 1.6015625  13.302637987012988 1.435546875  13.447524350649353 1.298828125  C 13.592410714285716 1.162109375  13.768344155844161 1.09375  13.975324675324677 1.09375  L 15.465584415584408 1.09375  C 15.672564935064946 1.09375  15.848498376623379 1.162109375  15.993384740259744 1.298828125  Z " stroke-width="0" stroke-dasharray="0" stroke="rgba(255, 255, 255, 0)" fill="none" transform="matrix(1 0 0 1 36 60 )" class="stroke" mask="url(#Clip49)" />
  </g>
</svg>