<?xml version="1.0" encoding="utf-8"?>
<svg version="1.1" xmlns:xlink="http://www.w3.org/1999/xlink" width="12px" height="12px" xmlns="http://www.w3.org/2000/svg">
  <defs>
    <pattern id="BGPattern" patternUnits="userSpaceOnUse" alignment="0 0" imageRepeat="None" />
    <mask fill="white" id="Clip53">
      <path d="M 6.9296875 3.0703125  C 6.9765625 3.1171875  7 3.1770833333333317  7 3.2500000000000004  L 7 6.75  C 7 6.822916666666666  6.9765625 6.882812499999999  6.9296875 6.929687499999999  C 6.8828125 6.976562499999999  6.822916666666668 6.999999999999999  6.75 6.999999999999999  L 4.25 6.999999999999999  C 4.177083333333334 6.999999999999999  4.1171875 6.976562499999999  4.0703125 6.929687499999999  C 4.0234375 6.882812499999999  4 6.822916666666666  4 6.75  L 4 6.249999999999999  C 4 6.177083333333333  4.0234375 6.1171875  4.0703125 6.0703125  C 4.1171875 6.0234375  4.177083333333334 6  4.25 6  L 6 6  L 6 3.2500000000000004  C 6 3.1770833333333317  6.0234375 3.1171875  6.0703125 3.0703125  C 6.117187500000002 3.0234375  6.177083333333334 3  6.25 3  L 6.75 3  C 6.822916666666668 3  6.8828125 3.0234375  6.9296875 3.0703125  Z M 9.6796875 8.1328125  C 10.059895833333334 7.481770833333332  10.25 6.770833333333334  10.25 6  C 10.25 5.229166666666666  10.059895833333334 4.518229166666666  9.6796875 3.8671875  C 9.299479166666668 3.216145833333332  8.783854166666668 2.700520833333332  8.1328125 2.3203125  C 7.481770833333334 1.9401041666666665  6.770833333333334 1.7500000000000004  6 1.7500000000000004  C 5.229166666666667 1.7500000000000004  4.518229166666667 1.9401041666666665  3.8671875 2.3203125  C 3.2161458333333335 2.700520833333332  2.7005208333333335 3.216145833333332  2.3203125 3.8671875  C 1.940104166666667 4.518229166666666  1.75 5.229166666666666  1.75 6  C 1.75 6.770833333333334  1.940104166666667 7.481770833333332  2.3203125 8.1328125  C 2.7005208333333335 8.783854166666664  3.2161458333333335 9.299479166666666  3.8671875 9.6796875  C 4.518229166666667 10.059895833333334  5.229166666666667 10.25  6 10.25  C 6.770833333333334 10.25  7.481770833333334 10.059895833333334  8.1328125 9.6796875  C 8.783854166666668 9.299479166666666  9.299479166666668 8.783854166666664  9.6796875 8.1328125  Z M 11.1953125 2.98828125  C 11.731770833333332 3.907552083333332  12 4.911458333333332  12 6  C 12 7.088541666666667  11.731770833333332 8.092447916666664  11.1953125 9.01171875  C 10.658854166666668 9.930989583333334  9.930989583333334 10.658854166666666  9.01171875 11.1953125  C 8.092447916666668 11.731770833333334  7.088541666666667 12  6 12  C 4.911458333333334 12  3.9075520833333335 11.731770833333334  2.98828125 11.1953125  C 2.069010416666667 10.658854166666666  1.3411458333333335 9.930989583333334  0.8046875 9.01171875  C 0.26822916666666663 8.092447916666664  0 7.088541666666667  0 6  C 0 4.911458333333332  0.26822916666666663 3.907552083333332  0.8046875 2.98828125  C 1.3411458333333335 2.0690104166666665  2.069010416666667 1.3411458333333321  2.98828125 0.8046874999999996  C 3.9075520833333335 0.26822916666666563  4.911458333333334 0  6 0  C 7.088541666666667 0  8.092447916666668 0.26822916666666563  9.01171875 0.8046874999999996  C 9.930989583333334 1.3411458333333321  10.658854166666668 2.0690104166666665  11.1953125 2.98828125  Z " fill-rule="evenodd" />
    </mask>
  </defs>
  <g transform="matrix(1 0 0 1 -141 -166 )">
    <path d="M 6.9296875 3.0703125  C 6.9765625 3.1171875  7 3.1770833333333317  7 3.2500000000000004  L 7 6.75  C 7 6.822916666666666  6.9765625 6.882812499999999  6.9296875 6.929687499999999  C 6.8828125 6.976562499999999  6.822916666666668 6.999999999999999  6.75 6.999999999999999  L 4.25 6.999999999999999  C 4.177083333333334 6.999999999999999  4.1171875 6.976562499999999  4.0703125 6.929687499999999  C 4.0234375 6.882812499999999  4 6.822916666666666  4 6.75  L 4 6.249999999999999  C 4 6.177083333333333  4.0234375 6.1171875  4.0703125 6.0703125  C 4.1171875 6.0234375  4.177083333333334 6  4.25 6  L 6 6  L 6 3.2500000000000004  C 6 3.1770833333333317  6.0234375 3.1171875  6.0703125 3.0703125  C 6.117187500000002 3.0234375  6.177083333333334 3  6.25 3  L 6.75 3  C 6.822916666666668 3  6.8828125 3.0234375  6.9296875 3.0703125  Z M 9.6796875 8.1328125  C 10.059895833333334 7.481770833333332  10.25 6.770833333333334  10.25 6  C 10.25 5.229166666666666  10.059895833333334 4.518229166666666  9.6796875 3.8671875  C 9.299479166666668 3.216145833333332  8.783854166666668 2.700520833333332  8.1328125 2.3203125  C 7.481770833333334 1.9401041666666665  6.770833333333334 1.7500000000000004  6 1.7500000000000004  C 5.229166666666667 1.7500000000000004  4.518229166666667 1.9401041666666665  3.8671875 2.3203125  C 3.2161458333333335 2.700520833333332  2.7005208333333335 3.216145833333332  2.3203125 3.8671875  C 1.940104166666667 4.518229166666666  1.75 5.229166666666666  1.75 6  C 1.75 6.770833333333334  1.940104166666667 7.481770833333332  2.3203125 8.1328125  C 2.7005208333333335 8.783854166666664  3.2161458333333335 9.299479166666666  3.8671875 9.6796875  C 4.518229166666667 10.059895833333334  5.229166666666667 10.25  6 10.25  C 6.770833333333334 10.25  7.481770833333334 10.059895833333334  8.1328125 9.6796875  C 8.783854166666668 9.299479166666666  9.299479166666668 8.783854166666664  9.6796875 8.1328125  Z M 11.1953125 2.98828125  C 11.731770833333332 3.907552083333332  12 4.911458333333332  12 6  C 12 7.088541666666667  11.731770833333332 8.092447916666664  11.1953125 9.01171875  C 10.658854166666668 9.930989583333334  9.930989583333334 10.658854166666666  9.01171875 11.1953125  C 8.092447916666668 11.731770833333334  7.088541666666667 12  6 12  C 4.911458333333334 12  3.9075520833333335 11.731770833333334  2.98828125 11.1953125  C 2.069010416666667 10.658854166666666  1.3411458333333335 9.930989583333334  0.8046875 9.01171875  C 0.26822916666666663 8.092447916666664  0 7.088541666666667  0 6  C 0 4.911458333333332  0.26822916666666663 3.907552083333332  0.8046875 2.98828125  C 1.3411458333333335 2.0690104166666665  2.069010416666667 1.3411458333333321  2.98828125 0.8046874999999996  C 3.9075520833333335 0.26822916666666563  4.911458333333334 0  6 0  C 7.088541666666667 0  8.092447916666668 0.26822916666666563  9.01171875 0.8046874999999996  C 9.930989583333334 1.3411458333333321  10.658854166666668 2.0690104166666665  11.1953125 2.98828125  Z " fill-rule="nonzero" fill="rgba(2, 133, 189, 1)" stroke="none" transform="matrix(1 0 0 1 141 166 )" class="fill" />
    <path d="M 6.9296875 3.0703125  C 6.9765625 3.1171875  7 3.1770833333333317  7 3.2500000000000004  L 7 6.75  C 7 6.822916666666666  6.9765625 6.882812499999999  6.9296875 6.929687499999999  C 6.8828125 6.976562499999999  6.822916666666668 6.999999999999999  6.75 6.999999999999999  L 4.25 6.999999999999999  C 4.177083333333334 6.999999999999999  4.1171875 6.976562499999999  4.0703125 6.929687499999999  C 4.0234375 6.882812499999999  4 6.822916666666666  4 6.75  L 4 6.249999999999999  C 4 6.177083333333333  4.0234375 6.1171875  4.0703125 6.0703125  C 4.1171875 6.0234375  4.177083333333334 6  4.25 6  L 6 6  L 6 3.2500000000000004  C 6 3.1770833333333317  6.0234375 3.1171875  6.0703125 3.0703125  C 6.117187500000002 3.0234375  6.177083333333334 3  6.25 3  L 6.75 3  C 6.822916666666668 3  6.8828125 3.0234375  6.9296875 3.0703125  Z " stroke-width="0" stroke-dasharray="0" stroke="rgba(255, 255, 255, 0)" fill="none" transform="matrix(1 0 0 1 141 166 )" class="stroke" mask="url(#Clip53)" />
    <path d="M 9.6796875 8.1328125  C 10.059895833333334 7.481770833333332  10.25 6.770833333333334  10.25 6  C 10.25 5.229166666666666  10.059895833333334 4.518229166666666  9.6796875 3.8671875  C 9.299479166666668 3.216145833333332  8.783854166666668 2.700520833333332  8.1328125 2.3203125  C 7.481770833333334 1.9401041666666665  6.770833333333334 1.7500000000000004  6 1.7500000000000004  C 5.229166666666667 1.7500000000000004  4.518229166666667 1.9401041666666665  3.8671875 2.3203125  C 3.2161458333333335 2.700520833333332  2.7005208333333335 3.216145833333332  2.3203125 3.8671875  C 1.940104166666667 4.518229166666666  1.75 5.229166666666666  1.75 6  C 1.75 6.770833333333334  1.940104166666667 7.481770833333332  2.3203125 8.1328125  C 2.7005208333333335 8.783854166666664  3.2161458333333335 9.299479166666666  3.8671875 9.6796875  C 4.518229166666667 10.059895833333334  5.229166666666667 10.25  6 10.25  C 6.770833333333334 10.25  7.481770833333334 10.059895833333334  8.1328125 9.6796875  C 8.783854166666668 9.299479166666666  9.299479166666668 8.783854166666664  9.6796875 8.1328125  Z " stroke-width="0" stroke-dasharray="0" stroke="rgba(255, 255, 255, 0)" fill="none" transform="matrix(1 0 0 1 141 166 )" class="stroke" mask="url(#Clip53)" />
    <path d="M 11.1953125 2.98828125  C 11.731770833333332 3.907552083333332  12 4.911458333333332  12 6  C 12 7.088541666666667  11.731770833333332 8.092447916666664  11.1953125 9.01171875  C 10.658854166666668 9.930989583333334  9.930989583333334 10.658854166666666  9.01171875 11.1953125  C 8.092447916666668 11.731770833333334  7.088541666666667 12  6 12  C 4.911458333333334 12  3.9075520833333335 11.731770833333334  2.98828125 11.1953125  C 2.069010416666667 10.658854166666666  1.3411458333333335 9.930989583333334  0.8046875 9.01171875  C 0.26822916666666663 8.092447916666664  0 7.088541666666667  0 6  C 0 4.911458333333332  0.26822916666666663 3.907552083333332  0.8046875 2.98828125  C 1.3411458333333335 2.0690104166666665  2.069010416666667 1.3411458333333321  2.98828125 0.8046874999999996  C 3.9075520833333335 0.26822916666666563  4.911458333333334 0  6 0  C 7.088541666666667 0  8.092447916666668 0.26822916666666563  9.01171875 0.8046874999999996  C 9.930989583333334 1.3411458333333321  10.658854166666668 2.0690104166666665  11.1953125 2.98828125  Z " stroke-width="0" stroke-dasharray="0" stroke="rgba(255, 255, 255, 0)" fill="none" transform="matrix(1 0 0 1 141 166 )" class="stroke" mask="url(#Clip53)" />
  </g>
</svg>