<?xml version="1.0" encoding="utf-8"?>
<svg version="1.1" xmlns:xlink="http://www.w3.org/1999/xlink" width="64px" height="23px" xmlns="http://www.w3.org/2000/svg">
  <defs>
    <pattern id="BGPattern" patternUnits="userSpaceOnUse" alignment="0 0" imageRepeat="None" />
    <mask fill="white" id="Clip74">
      <path d="M 4 13.925750419199044  C 3.276486802854662 14.819494405077606  3.4116808087128674 15.633292267525547  3.6821378674189917 16.36742650167866  C 3.952594926125116 17.10156073583178  4.327036751339135 17.729264927573272  4.80553239005076 18.25053907690316  C 5.284028028762387 18.771883850016994  5.8509038143067515 19.170837605546666  6.506159746683857 19.447470967276125  C 7.161484726050674 19.724104329005584  7.87398061289992 19.86238569797834  8.643716454221307 19.86238569797834  C 9.392669151639058 19.86238569797834  10.094738943041627 19.71873692142544  10.750063922408447 19.431439368319634  C 11.405388901775266 19.144141815213825  11.977443211548112 18.739891275887956  12.466295898716698 18.21861712655807  C 12.955148585885286 17.697272353444234  13.334837982317499 17.07493556928289  13.605295041023622 16.351465526506118  C 13.875752099729748 15.627995483729352  14.010946105587953 14.81949440507761  14 13.925750419199048  L 14 0.13744533607086726  L 18 0.13744533607086726  L 18 22.479561883572  L 14.042155344938264 22.479561883572  L 14.042155344938264 20.404917606276967  C 13.314054838413863 21.192160925959964  12.455869803270025 21.79860735873272  11.467738333486174 22.224256904595237  C 10.479537816712607 22.649765202889853  9.413452295542694 22.86255466392913  8.269274629007288 22.86255466392913  C 7.104244771578533 22.86255466392913  6.017307059515269 22.65506198668605  5.008323398838069 22.240147255983835  C 3.9994087851505817 21.825232525281617  3.1256191303315872 21.234817691465356  2.3871615753502247 20.46876150696715  C 1.648704020368861 19.702705322468947  1.0661545681596283 18.782548041393333  0.6397203596916621 17.707936544820583  C 0.21321710423398302 16.633395672031778  0 15.436534405442758  0 14.117211497485632  L 0 0.13744533607086726  L 4 0.13744533607086726  L 4 13.925750419199044  Z M 20 0.13744533607086726  L 22.935200479013496 0.13744533607086726  L 22.935200479013496 8.276342069741608  C 23.663300985537898 7.531614267996096  24.50588140100658 6.941199434179834  25.462803631440114 6.504956320724925  C 26.419725861873655 6.068713207270016  27.459918761901164 5.850626962434535  28.58324423754322 5.850626962434535  C 29.74827409497198 5.850626962434535  30.84032128427401 6.074009991066213  31.859731040397882 6.52084667211352  C 32.87907174953204 6.967683353160828  33.76314940581828 7.574129785933582  34.51210210323604 8.340185970431786  C 35.26105480065378 9.106242154929989  35.85396130131998 10.010509084617002  36.29082160523462 11.053128007060716  C 36.72768190914926 12.095817553288382  36.94607753761172 13.202280376422276  36.94607753761172 14.372587100246351  C 36.94607753761172 15.542823200286476  36.72768190914926 16.643989239624172  36.29082160523462 17.67594397069154  C 35.85396130131998 18.707969325542862  35.26105480065378 19.607010095217625  34.51210210323603 20.37292503214793  C 33.76314940581828 21.13898121664613  32.87907174953204 21.745427649418886  31.859731040397875 22.192264330466195  C 30.840321284274005 22.639101011513503  29.748205047982253 22.862484040145183  28.583244237543216 22.862484040145183  C 27.459849714911446 22.862484040145183  26.414547337645164 22.644397795309697  25.44719901176495 22.208154681854793  C 24.47985068588474 21.771982192183835  23.632091746187573 21.181496734583625  22.903991239663174 20.436768932838113  L 22.903991239663174 22.479491259788055  L 20 22.479491259788055  L 20 0.13744533607086726  Z M 22.872851047302586 14.372587100246353  C 22.872782000312878 15.159901043713301  23.013223577389272 15.893964654082467  23.294037684552357 16.574848555137798  C 23.574851791715442 17.255803079977078  23.96496728359433 17.851585321373488  24.46424606620959 18.362265903110973  C 24.963524848824854 18.87294648484846  25.546005254044374 19.27726764795828  26.21168728186815 19.57515876865648  C 26.877438356681647 19.87304988935469  27.59511276775937 20.021995449703788  28.364848609080763 20.021995449703788  C 29.11380130649851 20.021995449703788  29.821049622129564 19.87304988935469  30.48673164995334 19.57515876865648  C 31.152413677777123 19.277267647958276  31.729646511778444 18.873017108632407  32.21863729292646 18.362265903110973  C 32.70748998009505 17.851655945157436  33.09753642498423 17.255803079977078  33.388776627593984 16.574848555137798  C 33.68001683020375 15.893964654082467  33.825636931508626 15.159901043713301  33.825636931508626 14.372587100246353  C 33.825636931508626 13.585273156779406  33.68001683020375 12.845842138830093  33.388776627593984 12.154294046398416  C 33.09753642498423 11.462745953966738  32.70748998009505 10.86166692877413  32.21863729292646 10.350986347036642  C 31.72971555876816 9.840376389083108  31.152482724766838 9.441352009769485  30.486731649953345 9.154125080447626  C 29.820980575139853 8.866898151125769  29.113732259508804 8.723178750788916  28.364848609080767 8.723178750788916  C 27.615964958652725 8.723178750788916  26.908647596031965 8.866827527341819  26.24296556820818 9.154125080447626  C 25.577283540384403 9.441422633553435  24.994803135164886 9.840376389083108  24.495455305559908 10.350986347036642  C 23.996245569934356 10.86166692877413  23.600951553826988 11.462745953966738  23.309711351217228 12.154294046398416  C 23.018471148607468 12.845842138830093  22.872851047302586 13.585273156779406  22.872851047302586 14.372587100246353  Z M 38.10047415862468 14.340665149901255  C 38.100336064645255 13.191686808829873  38.30844369164046 12.106481744664723  38.72445180466175 11.085120581189756  C 39.14045991768304 10.063759417714785  39.71265232143532 9.164789271823972  40.440683780970005 8.388139519733372  C 41.16871524050469 7.61148976764277  42.03214784686673 6.999746551073816  43.03070541209725 6.55290987002651  C 44.029262977327775 6.106073188979202  45.11102216516256 5.882690160347525  46.2759829756016 5.882690160347525  C 47.420160642137006 5.882690160347525  48.48113668606815 6.095479621386807  49.45891110739504 6.52098791968142  C 50.436616481732216 6.946566841759983  51.279127850211175 7.5370522993601945  51.986445212831946 8.29244429248205  C 52.69376257545271 9.047765661819959  53.245102788311634 9.941509647698522  53.640258710439575 10.973464378765891  C 54.035552726546946 12.005489733617209  54.23316521110577 13.12791353192365  54.23316521110577 14.34080639746916  L 54.23316521110577 15  L 41.28326419643869 15  C 41.38731800993629 16.053715653375807  41.595356589941794 16.665458869944764  41.90737993645519 17.229248537212136  C 42.2194723299583 17.793108828263456  42.609449727857765 18.282531651032198  43.07751927112271 18.697446381734412  C 43.54558881438766 19.11243173622058  44.076076836353245 19.43694802346768  44.668983337019434 19.67092461969175  C 45.26188983768563 19.904971839699776  45.891115054940904 20.022066073487736  46.5568661297544 20.022066073487736  C 48.44999649370755 20.022066073487736  49.97904208090365 19.224087938644445  51.144002891342694 17.628202292741804  L 53.42193212896683 19.35170511624085  C 52.63141314374181 20.436910180406002  51.653707769404626 21.28806802456313  50.48874695896559 21.90510802492828  C 49.323717101536836 22.522148025293436  48.01313618979292 22.830703337367986  46.55693517674412 22.830703337367986  C 45.37112217541172 22.830703337367986  44.263401319444824 22.617843252544752  43.23363451486399 22.19233495425014  C 42.203867710283156 21.766826655955526  41.30936395855023 21.170973790775165  40.55005421267552 20.40491760627696  C 39.79074446680081 19.638861421778756  39.19265944190614 18.739891275887942  38.755799137991495 17.707936544820576  C 38.31893883407685 16.67598181375321  38.10047415862468 15.553487391662818  38.10047415862468 14.340665149901255  Z M 46.213633543890694 8.691327424227774  C 45.0278205425583 8.691327424227774  43.99287521374899 9.069023420788703  43.10872851047303 9.824344790126611  C 42.22458180719707 10.57973678324847  41.636922877749065 11.585136971550895  41.3456826751393 12.840545355033893  L 51.05037517329176 12.840545355033893  C 50.77991811458564 11.585136971550895  50.202616233594604 10.57973678324847  49.318469530318644 9.824344790126611  C 48.43432282704269 9.069023420788705  47.39937749823338 8.691327424227774  46.213633543890694 8.691327424227774  Z M 62.68941908825608 9.074249580800952  C 61.64929523521828 9.074320204584902  60.79635777129264 9.446648793565684  60.13067574346886 10.191376595311194  C 59.46499371564508 10.936104397056704  59.132118178238336 11.946801369155331  59.132118178238336 13.22353813539102  L 59.132118178238336 22.47963250735595  L 56 22.47963250735595  L 56 6.2017684162305216  L 59.10083989189832 6.2017684162305216  L 59.10083989189832 8.212568792835377  C 59.49613390800568 7.552942650748789  60.0110173102961 7.031597877634956  60.645490098769564 6.648605097277829  C 61.27996288724303 6.265541693136752  62.03409410888926 6.074009991066214  62.90788376370826 6.074009991066214  L 64 6.074009991066214  L 64 9.074249580800952  L 62.68941908825608 9.074249580800952  Z " fill-rule="evenodd" />
    </mask>
  </defs>
  <g transform="matrix(1 0 0 1 -184 -158 )">
    <path d="M 4 13.925750419199044  C 3.276486802854662 14.819494405077606  3.4116808087128674 15.633292267525547  3.6821378674189917 16.36742650167866  C 3.952594926125116 17.10156073583178  4.327036751339135 17.729264927573272  4.80553239005076 18.25053907690316  C 5.284028028762387 18.771883850016994  5.8509038143067515 19.170837605546666  6.506159746683857 19.447470967276125  C 7.161484726050674 19.724104329005584  7.87398061289992 19.86238569797834  8.643716454221307 19.86238569797834  C 9.392669151639058 19.86238569797834  10.094738943041627 19.71873692142544  10.750063922408447 19.431439368319634  C 11.405388901775266 19.144141815213825  11.977443211548112 18.739891275887956  12.466295898716698 18.21861712655807  C 12.955148585885286 17.697272353444234  13.334837982317499 17.07493556928289  13.605295041023622 16.351465526506118  C 13.875752099729748 15.627995483729352  14.010946105587953 14.81949440507761  14 13.925750419199048  L 14 0.13744533607086726  L 18 0.13744533607086726  L 18 22.479561883572  L 14.042155344938264 22.479561883572  L 14.042155344938264 20.404917606276967  C 13.314054838413863 21.192160925959964  12.455869803270025 21.79860735873272  11.467738333486174 22.224256904595237  C 10.479537816712607 22.649765202889853  9.413452295542694 22.86255466392913  8.269274629007288 22.86255466392913  C 7.104244771578533 22.86255466392913  6.017307059515269 22.65506198668605  5.008323398838069 22.240147255983835  C 3.9994087851505817 21.825232525281617  3.1256191303315872 21.234817691465356  2.3871615753502247 20.46876150696715  C 1.648704020368861 19.702705322468947  1.0661545681596283 18.782548041393333  0.6397203596916621 17.707936544820583  C 0.21321710423398302 16.633395672031778  0 15.436534405442758  0 14.117211497485632  L 0 0.13744533607086726  L 4 0.13744533607086726  L 4 13.925750419199044  Z M 20 0.13744533607086726  L 22.935200479013496 0.13744533607086726  L 22.935200479013496 8.276342069741608  C 23.663300985537898 7.531614267996096  24.50588140100658 6.941199434179834  25.462803631440114 6.504956320724925  C 26.419725861873655 6.068713207270016  27.459918761901164 5.850626962434535  28.58324423754322 5.850626962434535  C 29.74827409497198 5.850626962434535  30.84032128427401 6.074009991066213  31.859731040397882 6.52084667211352  C 32.87907174953204 6.967683353160828  33.76314940581828 7.574129785933582  34.51210210323604 8.340185970431786  C 35.26105480065378 9.106242154929989  35.85396130131998 10.010509084617002  36.29082160523462 11.053128007060716  C 36.72768190914926 12.095817553288382  36.94607753761172 13.202280376422276  36.94607753761172 14.372587100246351  C 36.94607753761172 15.542823200286476  36.72768190914926 16.643989239624172  36.29082160523462 17.67594397069154  C 35.85396130131998 18.707969325542862  35.26105480065378 19.607010095217625  34.51210210323603 20.37292503214793  C 33.76314940581828 21.13898121664613  32.87907174953204 21.745427649418886  31.859731040397875 22.192264330466195  C 30.840321284274005 22.639101011513503  29.748205047982253 22.862484040145183  28.583244237543216 22.862484040145183  C 27.459849714911446 22.862484040145183  26.414547337645164 22.644397795309697  25.44719901176495 22.208154681854793  C 24.47985068588474 21.771982192183835  23.632091746187573 21.181496734583625  22.903991239663174 20.436768932838113  L 22.903991239663174 22.479491259788055  L 20 22.479491259788055  L 20 0.13744533607086726  Z M 22.872851047302586 14.372587100246353  C 22.872782000312878 15.159901043713301  23.013223577389272 15.893964654082467  23.294037684552357 16.574848555137798  C 23.574851791715442 17.255803079977078  23.96496728359433 17.851585321373488  24.46424606620959 18.362265903110973  C 24.963524848824854 18.87294648484846  25.546005254044374 19.27726764795828  26.21168728186815 19.57515876865648  C 26.877438356681647 19.87304988935469  27.59511276775937 20.021995449703788  28.364848609080763 20.021995449703788  C 29.11380130649851 20.021995449703788  29.821049622129564 19.87304988935469  30.48673164995334 19.57515876865648  C 31.152413677777123 19.277267647958276  31.729646511778444 18.873017108632407  32.21863729292646 18.362265903110973  C 32.70748998009505 17.851655945157436  33.09753642498423 17.255803079977078  33.388776627593984 16.574848555137798  C 33.68001683020375 15.893964654082467  33.825636931508626 15.159901043713301  33.825636931508626 14.372587100246353  C 33.825636931508626 13.585273156779406  33.68001683020375 12.845842138830093  33.388776627593984 12.154294046398416  C 33.09753642498423 11.462745953966738  32.70748998009505 10.86166692877413  32.21863729292646 10.350986347036642  C 31.72971555876816 9.840376389083108  31.152482724766838 9.441352009769485  30.486731649953345 9.154125080447626  C 29.820980575139853 8.866898151125769  29.113732259508804 8.723178750788916  28.364848609080767 8.723178750788916  C 27.615964958652725 8.723178750788916  26.908647596031965 8.866827527341819  26.24296556820818 9.154125080447626  C 25.577283540384403 9.441422633553435  24.994803135164886 9.840376389083108  24.495455305559908 10.350986347036642  C 23.996245569934356 10.86166692877413  23.600951553826988 11.462745953966738  23.309711351217228 12.154294046398416  C 23.018471148607468 12.845842138830093  22.872851047302586 13.585273156779406  22.872851047302586 14.372587100246353  Z M 38.10047415862468 14.340665149901255  C 38.100336064645255 13.191686808829873  38.30844369164046 12.106481744664723  38.72445180466175 11.085120581189756  C 39.14045991768304 10.063759417714785  39.71265232143532 9.164789271823972  40.440683780970005 8.388139519733372  C 41.16871524050469 7.61148976764277  42.03214784686673 6.999746551073816  43.03070541209725 6.55290987002651  C 44.029262977327775 6.106073188979202  45.11102216516256 5.882690160347525  46.2759829756016 5.882690160347525  C 47.420160642137006 5.882690160347525  48.48113668606815 6.095479621386807  49.45891110739504 6.52098791968142  C 50.436616481732216 6.946566841759983  51.279127850211175 7.5370522993601945  51.986445212831946 8.29244429248205  C 52.69376257545271 9.047765661819959  53.245102788311634 9.941509647698522  53.640258710439575 10.973464378765891  C 54.035552726546946 12.005489733617209  54.23316521110577 13.12791353192365  54.23316521110577 14.34080639746916  L 54.23316521110577 15  L 41.28326419643869 15  C 41.38731800993629 16.053715653375807  41.595356589941794 16.665458869944764  41.90737993645519 17.229248537212136  C 42.2194723299583 17.793108828263456  42.609449727857765 18.282531651032198  43.07751927112271 18.697446381734412  C 43.54558881438766 19.11243173622058  44.076076836353245 19.43694802346768  44.668983337019434 19.67092461969175  C 45.26188983768563 19.904971839699776  45.891115054940904 20.022066073487736  46.5568661297544 20.022066073487736  C 48.44999649370755 20.022066073487736  49.97904208090365 19.224087938644445  51.144002891342694 17.628202292741804  L 53.42193212896683 19.35170511624085  C 52.63141314374181 20.436910180406002  51.653707769404626 21.28806802456313  50.48874695896559 21.90510802492828  C 49.323717101536836 22.522148025293436  48.01313618979292 22.830703337367986  46.55693517674412 22.830703337367986  C 45.37112217541172 22.830703337367986  44.263401319444824 22.617843252544752  43.23363451486399 22.19233495425014  C 42.203867710283156 21.766826655955526  41.30936395855023 21.170973790775165  40.55005421267552 20.40491760627696  C 39.79074446680081 19.638861421778756  39.19265944190614 18.739891275887942  38.755799137991495 17.707936544820576  C 38.31893883407685 16.67598181375321  38.10047415862468 15.553487391662818  38.10047415862468 14.340665149901255  Z M 46.213633543890694 8.691327424227774  C 45.0278205425583 8.691327424227774  43.99287521374899 9.069023420788703  43.10872851047303 9.824344790126611  C 42.22458180719707 10.57973678324847  41.636922877749065 11.585136971550895  41.3456826751393 12.840545355033893  L 51.05037517329176 12.840545355033893  C 50.77991811458564 11.585136971550895  50.202616233594604 10.57973678324847  49.318469530318644 9.824344790126611  C 48.43432282704269 9.069023420788705  47.39937749823338 8.691327424227774  46.213633543890694 8.691327424227774  Z M 62.68941908825608 9.074249580800952  C 61.64929523521828 9.074320204584902  60.79635777129264 9.446648793565684  60.13067574346886 10.191376595311194  C 59.46499371564508 10.936104397056704  59.132118178238336 11.946801369155331  59.132118178238336 13.22353813539102  L 59.132118178238336 22.47963250735595  L 56 22.47963250735595  L 56 6.2017684162305216  L 59.10083989189832 6.2017684162305216  L 59.10083989189832 8.212568792835377  C 59.49613390800568 7.552942650748789  60.0110173102961 7.031597877634956  60.645490098769564 6.648605097277829  C 61.27996288724303 6.265541693136752  62.03409410888926 6.074009991066214  62.90788376370826 6.074009991066214  L 64 6.074009991066214  L 64 9.074249580800952  L 62.68941908825608 9.074249580800952  Z " fill-rule="nonzero" fill="rgba(255, 255, 255, 1)" stroke="none" transform="matrix(1 0 0 1 184 158 )" class="fill" />
    <path d="M 4 13.925750419199044  C 3.276486802854662 14.819494405077606  3.4116808087128674 15.633292267525547  3.6821378674189917 16.36742650167866  C 3.952594926125116 17.10156073583178  4.327036751339135 17.729264927573272  4.80553239005076 18.25053907690316  C 5.284028028762387 18.771883850016994  5.8509038143067515 19.170837605546666  6.506159746683857 19.447470967276125  C 7.161484726050674 19.724104329005584  7.87398061289992 19.86238569797834  8.643716454221307 19.86238569797834  C 9.392669151639058 19.86238569797834  10.094738943041627 19.71873692142544  10.750063922408447 19.431439368319634  C 11.405388901775266 19.144141815213825  11.977443211548112 18.739891275887956  12.466295898716698 18.21861712655807  C 12.955148585885286 17.697272353444234  13.334837982317499 17.07493556928289  13.605295041023622 16.351465526506118  C 13.875752099729748 15.627995483729352  14.010946105587953 14.81949440507761  14 13.925750419199048  L 14 0.13744533607086726  L 18 0.13744533607086726  L 18 22.479561883572  L 14.042155344938264 22.479561883572  L 14.042155344938264 20.404917606276967  C 13.314054838413863 21.192160925959964  12.455869803270025 21.79860735873272  11.467738333486174 22.224256904595237  C 10.479537816712607 22.649765202889853  9.413452295542694 22.86255466392913  8.269274629007288 22.86255466392913  C 7.104244771578533 22.86255466392913  6.017307059515269 22.65506198668605  5.008323398838069 22.240147255983835  C 3.9994087851505817 21.825232525281617  3.1256191303315872 21.234817691465356  2.3871615753502247 20.46876150696715  C 1.648704020368861 19.702705322468947  1.0661545681596283 18.782548041393333  0.6397203596916621 17.707936544820583  C 0.21321710423398302 16.633395672031778  0 15.436534405442758  0 14.117211497485632  L 0 0.13744533607086726  L 4 0.13744533607086726  L 4 13.925750419199044  Z " stroke-width="0" stroke-dasharray="0" stroke="rgba(255, 255, 255, 0)" fill="none" transform="matrix(1 0 0 1 184 158 )" class="stroke" mask="url(#Clip74)" />
    <path d="M 20 0.13744533607086726  L 22.935200479013496 0.13744533607086726  L 22.935200479013496 8.276342069741608  C 23.663300985537898 7.531614267996096  24.50588140100658 6.941199434179834  25.462803631440114 6.504956320724925  C 26.419725861873655 6.068713207270016  27.459918761901164 5.850626962434535  28.58324423754322 5.850626962434535  C 29.74827409497198 5.850626962434535  30.84032128427401 6.074009991066213  31.859731040397882 6.52084667211352  C 32.87907174953204 6.967683353160828  33.76314940581828 7.574129785933582  34.51210210323604 8.340185970431786  C 35.26105480065378 9.106242154929989  35.85396130131998 10.010509084617002  36.29082160523462 11.053128007060716  C 36.72768190914926 12.095817553288382  36.94607753761172 13.202280376422276  36.94607753761172 14.372587100246351  C 36.94607753761172 15.542823200286476  36.72768190914926 16.643989239624172  36.29082160523462 17.67594397069154  C 35.85396130131998 18.707969325542862  35.26105480065378 19.607010095217625  34.51210210323603 20.37292503214793  C 33.76314940581828 21.13898121664613  32.87907174953204 21.745427649418886  31.859731040397875 22.192264330466195  C 30.840321284274005 22.639101011513503  29.748205047982253 22.862484040145183  28.583244237543216 22.862484040145183  C 27.459849714911446 22.862484040145183  26.414547337645164 22.644397795309697  25.44719901176495 22.208154681854793  C 24.47985068588474 21.771982192183835  23.632091746187573 21.181496734583625  22.903991239663174 20.436768932838113  L 22.903991239663174 22.479491259788055  L 20 22.479491259788055  L 20 0.13744533607086726  Z " stroke-width="0" stroke-dasharray="0" stroke="rgba(255, 255, 255, 0)" fill="none" transform="matrix(1 0 0 1 184 158 )" class="stroke" mask="url(#Clip74)" />
    <path d="M 22.872851047302586 14.372587100246353  C 22.872782000312878 15.159901043713301  23.013223577389272 15.893964654082467  23.294037684552357 16.574848555137798  C 23.574851791715442 17.255803079977078  23.96496728359433 17.851585321373488  24.46424606620959 18.362265903110973  C 24.963524848824854 18.87294648484846  25.546005254044374 19.27726764795828  26.21168728186815 19.57515876865648  C 26.877438356681647 19.87304988935469  27.59511276775937 20.021995449703788  28.364848609080763 20.021995449703788  C 29.11380130649851 20.021995449703788  29.821049622129564 19.87304988935469  30.48673164995334 19.57515876865648  C 31.152413677777123 19.277267647958276  31.729646511778444 18.873017108632407  32.21863729292646 18.362265903110973  C 32.70748998009505 17.851655945157436  33.09753642498423 17.255803079977078  33.388776627593984 16.574848555137798  C 33.68001683020375 15.893964654082467  33.825636931508626 15.159901043713301  33.825636931508626 14.372587100246353  C 33.825636931508626 13.585273156779406  33.68001683020375 12.845842138830093  33.388776627593984 12.154294046398416  C 33.09753642498423 11.462745953966738  32.70748998009505 10.86166692877413  32.21863729292646 10.350986347036642  C 31.72971555876816 9.840376389083108  31.152482724766838 9.441352009769485  30.486731649953345 9.154125080447626  C 29.820980575139853 8.866898151125769  29.113732259508804 8.723178750788916  28.364848609080767 8.723178750788916  C 27.615964958652725 8.723178750788916  26.908647596031965 8.866827527341819  26.24296556820818 9.154125080447626  C 25.577283540384403 9.441422633553435  24.994803135164886 9.840376389083108  24.495455305559908 10.350986347036642  C 23.996245569934356 10.86166692877413  23.600951553826988 11.462745953966738  23.309711351217228 12.154294046398416  C 23.018471148607468 12.845842138830093  22.872851047302586 13.585273156779406  22.872851047302586 14.372587100246353  Z " stroke-width="0" stroke-dasharray="0" stroke="rgba(255, 255, 255, 0)" fill="none" transform="matrix(1 0 0 1 184 158 )" class="stroke" mask="url(#Clip74)" />
    <path d="M 38.10047415862468 14.340665149901255  C 38.100336064645255 13.191686808829873  38.30844369164046 12.106481744664723  38.72445180466175 11.085120581189756  C 39.14045991768304 10.063759417714785  39.71265232143532 9.164789271823972  40.440683780970005 8.388139519733372  C 41.16871524050469 7.61148976764277  42.03214784686673 6.999746551073816  43.03070541209725 6.55290987002651  C 44.029262977327775 6.106073188979202  45.11102216516256 5.882690160347525  46.2759829756016 5.882690160347525  C 47.420160642137006 5.882690160347525  48.48113668606815 6.095479621386807  49.45891110739504 6.52098791968142  C 50.436616481732216 6.946566841759983  51.279127850211175 7.5370522993601945  51.986445212831946 8.29244429248205  C 52.69376257545271 9.047765661819959  53.245102788311634 9.941509647698522  53.640258710439575 10.973464378765891  C 54.035552726546946 12.005489733617209  54.23316521110577 13.12791353192365  54.23316521110577 14.34080639746916  L 54.23316521110577 15  L 41.28326419643869 15  C 41.38731800993629 16.053715653375807  41.595356589941794 16.665458869944764  41.90737993645519 17.229248537212136  C 42.2194723299583 17.793108828263456  42.609449727857765 18.282531651032198  43.07751927112271 18.697446381734412  C 43.54558881438766 19.11243173622058  44.076076836353245 19.43694802346768  44.668983337019434 19.67092461969175  C 45.26188983768563 19.904971839699776  45.891115054940904 20.022066073487736  46.5568661297544 20.022066073487736  C 48.44999649370755 20.022066073487736  49.97904208090365 19.224087938644445  51.144002891342694 17.628202292741804  L 53.42193212896683 19.35170511624085  C 52.63141314374181 20.436910180406002  51.653707769404626 21.28806802456313  50.48874695896559 21.90510802492828  C 49.323717101536836 22.522148025293436  48.01313618979292 22.830703337367986  46.55693517674412 22.830703337367986  C 45.37112217541172 22.830703337367986  44.263401319444824 22.617843252544752  43.23363451486399 22.19233495425014  C 42.203867710283156 21.766826655955526  41.30936395855023 21.170973790775165  40.55005421267552 20.40491760627696  C 39.79074446680081 19.638861421778756  39.19265944190614 18.739891275887942  38.755799137991495 17.707936544820576  C 38.31893883407685 16.67598181375321  38.10047415862468 15.553487391662818  38.10047415862468 14.340665149901255  Z " stroke-width="0" stroke-dasharray="0" stroke="rgba(255, 255, 255, 0)" fill="none" transform="matrix(1 0 0 1 184 158 )" class="stroke" mask="url(#Clip74)" />
    <path d="M 46.213633543890694 8.691327424227774  C 45.0278205425583 8.691327424227774  43.99287521374899 9.069023420788703  43.10872851047303 9.824344790126611  C 42.22458180719707 10.57973678324847  41.636922877749065 11.585136971550895  41.3456826751393 12.840545355033893  L 51.05037517329176 12.840545355033893  C 50.77991811458564 11.585136971550895  50.202616233594604 10.57973678324847  49.318469530318644 9.824344790126611  C 48.43432282704269 9.069023420788705  47.39937749823338 8.691327424227774  46.213633543890694 8.691327424227774  Z " stroke-width="0" stroke-dasharray="0" stroke="rgba(255, 255, 255, 0)" fill="none" transform="matrix(1 0 0 1 184 158 )" class="stroke" mask="url(#Clip74)" />
    <path d="M 62.68941908825608 9.074249580800952  C 61.64929523521828 9.074320204584902  60.79635777129264 9.446648793565684  60.13067574346886 10.191376595311194  C 59.46499371564508 10.936104397056704  59.132118178238336 11.946801369155331  59.132118178238336 13.22353813539102  L 59.132118178238336 22.47963250735595  L 56 22.47963250735595  L 56 6.2017684162305216  L 59.10083989189832 6.2017684162305216  L 59.10083989189832 8.212568792835377  C 59.49613390800568 7.552942650748789  60.0110173102961 7.031597877634956  60.645490098769564 6.648605097277829  C 61.27996288724303 6.265541693136752  62.03409410888926 6.074009991066214  62.90788376370826 6.074009991066214  L 64 6.074009991066214  L 64 9.074249580800952  L 62.68941908825608 9.074249580800952  Z " stroke-width="0" stroke-dasharray="0" stroke="rgba(255, 255, 255, 0)" fill="none" transform="matrix(1 0 0 1 184 158 )" class="stroke" mask="url(#Clip74)" />
  </g>
</svg>