<?xml version="1.0" encoding="utf-8"?>
<svg version="1.1" xmlns:xlink="http://www.w3.org/1999/xlink" width="42px" height="37px" xmlns="http://www.w3.org/2000/svg">
  <defs>
    <pattern id="BGPattern" patternUnits="userSpaceOnUse" alignment="0 0" imageRepeat="None" />
    <mask fill="white" id="Clip62">
      <path d="M 40.1953125 0.12374581939799323  C 40.6328125 -0.05499814195466457  41.04296875 -0.013749535488664089  41.42578125 0.24749163879598646  C 41.80859375 0.5224823485693052  42 0.8868450390189528  42 1.3405797101449295  L 42 30.379598662207357  C 42 30.654589371980673  41.9248046875 30.90208101077666  41.7744140625 31.122073578595316  C 41.6240234375 31.342066146413977  41.42578125 31.50018580453363  41.1796875 31.59643255295429  L 28.0546875 36.876254180602004  C 27.7265625 37.027499070977335  27.3984375 37.027499070977335  27.0703125 36.876254180602004  L 14.4375 31.80267558528428  L 1.8046875 36.876254180602004  C 1.6679687500000002 36.94500185804534  1.5039062500000002 36.979375696767  1.3125 36.979375696767  C 1.052734375 36.979375696767  0.806640625 36.90375325157933  0.57421875 36.752508361204015  C 0.19140624999999997 36.477517651430695  0 36.11315496098105  0 35.65942028985507  L 0 6.620401337792642  C 0 6.345410628019319  0.0751953125 6.0979189892233325  0.2255859375 5.877926421404682  C 0.37597656250000006 5.657933853586024  0.57421875 5.499814195466366  0.8203125 5.40356744704571  L 13.9453125 0.12374581939799323  C 14.2734375 -0.027499070977336393  14.6015625 -0.027499070977336393  14.9296875 0.12374581939799323  L 27.5625 5.19732441471572  L 40.1953125 0.12374581939799323  Z M 27 7.775362318840582  L 15 3.031772575250834  L 15 29.224637681159418  L 27 33.96822742474916  L 27 7.775362318840582  Z M 14 3.031772575250834  L 3 7.507246376811595  L 3 33.70011148272018  L 14 29.224637681159418  L 14 3.031772575250834  Z M 28 33.96822742474916  L 39 29.492753623188406  L 39 3.299888517279821  L 28 7.775362318840582  L 28 33.96822742474916  Z " fill-rule="evenodd" />
    </mask>
  </defs>
  <g transform="matrix(1 0 0 1 -40 -16 )">
    <path d="M 40.1953125 0.12374581939799323  C 40.6328125 -0.05499814195466457  41.04296875 -0.013749535488664089  41.42578125 0.24749163879598646  C 41.80859375 0.5224823485693052  42 0.8868450390189528  42 1.3405797101449295  L 42 30.379598662207357  C 42 30.654589371980673  41.9248046875 30.90208101077666  41.7744140625 31.122073578595316  C 41.6240234375 31.342066146413977  41.42578125 31.50018580453363  41.1796875 31.59643255295429  L 28.0546875 36.876254180602004  C 27.7265625 37.027499070977335  27.3984375 37.027499070977335  27.0703125 36.876254180602004  L 14.4375 31.80267558528428  L 1.8046875 36.876254180602004  C 1.6679687500000002 36.94500185804534  1.5039062500000002 36.979375696767  1.3125 36.979375696767  C 1.052734375 36.979375696767  0.806640625 36.90375325157933  0.57421875 36.752508361204015  C 0.19140624999999997 36.477517651430695  0 36.11315496098105  0 35.65942028985507  L 0 6.620401337792642  C 0 6.345410628019319  0.0751953125 6.0979189892233325  0.2255859375 5.877926421404682  C 0.37597656250000006 5.657933853586024  0.57421875 5.499814195466366  0.8203125 5.40356744704571  L 13.9453125 0.12374581939799323  C 14.2734375 -0.027499070977336393  14.6015625 -0.027499070977336393  14.9296875 0.12374581939799323  L 27.5625 5.19732441471572  L 40.1953125 0.12374581939799323  Z M 27 7.775362318840582  L 15 3.031772575250834  L 15 29.224637681159418  L 27 33.96822742474916  L 27 7.775362318840582  Z M 14 3.031772575250834  L 3 7.507246376811595  L 3 33.70011148272018  L 14 29.224637681159418  L 14 3.031772575250834  Z M 28 33.96822742474916  L 39 29.492753623188406  L 39 3.299888517279821  L 28 7.775362318840582  L 28 33.96822742474916  Z " fill-rule="nonzero" fill="rgba(51, 51, 51, 1)" stroke="none" transform="matrix(1 0 0 1 40 16 )" class="fill" />
    <path d="M 40.1953125 0.12374581939799323  C 40.6328125 -0.05499814195466457  41.04296875 -0.013749535488664089  41.42578125 0.24749163879598646  C 41.80859375 0.5224823485693052  42 0.8868450390189528  42 1.3405797101449295  L 42 30.379598662207357  C 42 30.654589371980673  41.9248046875 30.90208101077666  41.7744140625 31.122073578595316  C 41.6240234375 31.342066146413977  41.42578125 31.50018580453363  41.1796875 31.59643255295429  L 28.0546875 36.876254180602004  C 27.7265625 37.027499070977335  27.3984375 37.027499070977335  27.0703125 36.876254180602004  L 14.4375 31.80267558528428  L 1.8046875 36.876254180602004  C 1.6679687500000002 36.94500185804534  1.5039062500000002 36.979375696767  1.3125 36.979375696767  C 1.052734375 36.979375696767  0.806640625 36.90375325157933  0.57421875 36.752508361204015  C 0.19140624999999997 36.477517651430695  0 36.11315496098105  0 35.65942028985507  L 0 6.620401337792642  C 0 6.345410628019319  0.0751953125 6.0979189892233325  0.2255859375 5.877926421404682  C 0.37597656250000006 5.657933853586024  0.57421875 5.499814195466366  0.8203125 5.40356744704571  L 13.9453125 0.12374581939799323  C 14.2734375 -0.027499070977336393  14.6015625 -0.027499070977336393  14.9296875 0.12374581939799323  L 27.5625 5.19732441471572  L 40.1953125 0.12374581939799323  Z " stroke-width="0" stroke-dasharray="0" stroke="rgba(255, 255, 255, 0)" fill="none" transform="matrix(1 0 0 1 40 16 )" class="stroke" mask="url(#Clip62)" />
    <path d="M 27 7.775362318840582  L 15 3.031772575250834  L 15 29.224637681159418  L 27 33.96822742474916  L 27 7.775362318840582  Z " stroke-width="0" stroke-dasharray="0" stroke="rgba(255, 255, 255, 0)" fill="none" transform="matrix(1 0 0 1 40 16 )" class="stroke" mask="url(#Clip62)" />
    <path d="M 14 3.031772575250834  L 3 7.507246376811595  L 3 33.70011148272018  L 14 29.224637681159418  L 14 3.031772575250834  Z " stroke-width="0" stroke-dasharray="0" stroke="rgba(255, 255, 255, 0)" fill="none" transform="matrix(1 0 0 1 40 16 )" class="stroke" mask="url(#Clip62)" />
    <path d="M 28 33.96822742474916  L 39 29.492753623188406  L 39 3.299888517279821  L 28 7.775362318840582  L 28 33.96822742474916  Z " stroke-width="0" stroke-dasharray="0" stroke="rgba(255, 255, 255, 0)" fill="none" transform="matrix(1 0 0 1 40 16 )" class="stroke" mask="url(#Clip62)" />
  </g>
</svg>