<?xml version="1.0" encoding="utf-8"?>
<svg version="1.1" xmlns:xlink="http://www.w3.org/1999/xlink" width="21px" height="18px" xmlns="http://www.w3.org/2000/svg">
  <defs>
    <pattern id="BGPattern" patternUnits="userSpaceOnUse" alignment="0 0" imageRepeat="None" />
    <mask fill="white" id="Clip86">
      <path d="M 16.39453125 10.605468749999998  C 16.46484375 10.675781249999998  16.5 10.765624999999998  16.5 10.875000000000002  L 16.5 14.625  C 16.5 15.554687499999998  16.169921875000004 16.349609375  15.509765625000002 17.009765625  C 14.849609375000002 17.669921875  14.0546875 18  13.125 18  L 3.3750000000000004 18  C 2.4453125000000004 18  1.650390625 17.669921875  0.990234375 17.009765625  C 0.330078125 16.349609375  0 15.554687499999998  0 14.625  L 0 4.875000000000001  C 0 3.9453124999999982  0.330078125 3.150390624999999  0.990234375 2.490234374999999  C 1.650390625 1.8300781249999976  2.4453125000000004 1.5000000000000007  3.3750000000000004 1.5000000000000007  L 11.625 1.5000000000000007  C 11.734375000000002 1.5000000000000007  11.82421875 1.5351562500000007  11.89453125 1.6054687500000007  C 11.96484375 1.6757812500000007  12 1.7656249999999982  12 1.8749999999999993  L 12 2.625000000000001  C 12 2.734375  11.96484375 2.824218749999999  11.89453125 2.894531249999999  C 11.82421875 2.964843749999999  11.734375000000002 2.999999999999999  11.625 2.999999999999999  L 3.3750000000000004 2.999999999999999  C 2.8593750000000004 2.999999999999999  2.4179687500000004 3.1835937499999973  2.05078125 3.55078125  C 1.6835937500000002 3.9179687499999982  1.5 4.359375  1.5 4.875000000000001  L 1.5 14.625  C 1.5 15.140625  1.6835937500000002 15.582031249999998  2.05078125 15.94921875  C 2.4179687500000004 16.31640625  2.8593750000000004 16.5  3.3750000000000004 16.5  L 13.125 16.5  C 13.640625 16.5  14.082031250000002 16.31640625  14.44921875 15.94921875  C 14.816406250000002 15.582031249999998  15 15.140625  15 14.625  L 15 10.875000000000002  C 15 10.765624999999998  15.03515625 10.675781249999998  15.10546875 10.605468749999998  C 15.17578125 10.535156249999998  15.265625 10.499999999999998  15.374999999999998 10.499999999999998  L 16.125 10.499999999999998  C 16.234375 10.499999999999998  16.32421875 10.535156249999998  16.39453125 10.605468749999998  Z M 20.77734375 0.22265624999999933  C 20.92578125 0.37109374999999756  21 0.5468749999999976  21 0.7499999999999993  L 21 6.75  C 21 6.953125  20.92578125 7.12890625  20.77734375 7.27734375  C 20.628906250000004 7.42578125  20.453125 7.499999999999999  20.25 7.499999999999999  C 20.046875 7.499999999999999  19.87109375 7.42578125  19.72265625 7.27734375  L 17.66015625 5.214843749999999  L 10.01953125 12.855468749999998  C 9.94140625 12.933593749999996  9.8515625 12.97265625  9.75 12.97265625  C 9.648437500000002 12.97265625  9.55859375 12.933593749999996  9.48046875 12.855468749999998  L 8.14453125 11.519531249999998  C 8.06640625 11.44140625  8.02734375 11.3515625  8.02734375 11.25  C 8.02734375 11.1484375  8.06640625 11.05859375  8.14453125 10.980468750000002  L 15.785156249999998 3.33984375  L 13.72265625 1.2773437499999993  C 13.574218750000004 1.1289062499999991  13.500000000000002 0.9531249999999991  13.500000000000002 0.7499999999999993  C 13.500000000000002 0.5468749999999976  13.574218750000004 0.37109374999999756  13.72265625 0.22265624999999933  C 13.87109375 0.07421875000000111  14.046875 0  14.25 0  L 20.25 0  C 20.453125 0  20.628906250000004 0.07421875000000111  20.77734375 0.22265624999999933  Z " fill-rule="evenodd" />
    </mask>
  </defs>
  <g transform="matrix(1 0 0 1 -350 -853 )">
    <path d="M 16.39453125 10.605468749999998  C 16.46484375 10.675781249999998  16.5 10.765624999999998  16.5 10.875000000000002  L 16.5 14.625  C 16.5 15.554687499999998  16.169921875000004 16.349609375  15.509765625000002 17.009765625  C 14.849609375000002 17.669921875  14.0546875 18  13.125 18  L 3.3750000000000004 18  C 2.4453125000000004 18  1.650390625 17.669921875  0.990234375 17.009765625  C 0.330078125 16.349609375  0 15.554687499999998  0 14.625  L 0 4.875000000000001  C 0 3.9453124999999982  0.330078125 3.150390624999999  0.990234375 2.490234374999999  C 1.650390625 1.8300781249999976  2.4453125000000004 1.5000000000000007  3.3750000000000004 1.5000000000000007  L 11.625 1.5000000000000007  C 11.734375000000002 1.5000000000000007  11.82421875 1.5351562500000007  11.89453125 1.6054687500000007  C 11.96484375 1.6757812500000007  12 1.7656249999999982  12 1.8749999999999993  L 12 2.625000000000001  C 12 2.734375  11.96484375 2.824218749999999  11.89453125 2.894531249999999  C 11.82421875 2.964843749999999  11.734375000000002 2.999999999999999  11.625 2.999999999999999  L 3.3750000000000004 2.999999999999999  C 2.8593750000000004 2.999999999999999  2.4179687500000004 3.1835937499999973  2.05078125 3.55078125  C 1.6835937500000002 3.9179687499999982  1.5 4.359375  1.5 4.875000000000001  L 1.5 14.625  C 1.5 15.140625  1.6835937500000002 15.582031249999998  2.05078125 15.94921875  C 2.4179687500000004 16.31640625  2.8593750000000004 16.5  3.3750000000000004 16.5  L 13.125 16.5  C 13.640625 16.5  14.082031250000002 16.31640625  14.44921875 15.94921875  C 14.816406250000002 15.582031249999998  15 15.140625  15 14.625  L 15 10.875000000000002  C 15 10.765624999999998  15.03515625 10.675781249999998  15.10546875 10.605468749999998  C 15.17578125 10.535156249999998  15.265625 10.499999999999998  15.374999999999998 10.499999999999998  L 16.125 10.499999999999998  C 16.234375 10.499999999999998  16.32421875 10.535156249999998  16.39453125 10.605468749999998  Z M 20.77734375 0.22265624999999933  C 20.92578125 0.37109374999999756  21 0.5468749999999976  21 0.7499999999999993  L 21 6.75  C 21 6.953125  20.92578125 7.12890625  20.77734375 7.27734375  C 20.628906250000004 7.42578125  20.453125 7.499999999999999  20.25 7.499999999999999  C 20.046875 7.499999999999999  19.87109375 7.42578125  19.72265625 7.27734375  L 17.66015625 5.214843749999999  L 10.01953125 12.855468749999998  C 9.94140625 12.933593749999996  9.8515625 12.97265625  9.75 12.97265625  C 9.648437500000002 12.97265625  9.55859375 12.933593749999996  9.48046875 12.855468749999998  L 8.14453125 11.519531249999998  C 8.06640625 11.44140625  8.02734375 11.3515625  8.02734375 11.25  C 8.02734375 11.1484375  8.06640625 11.05859375  8.14453125 10.980468750000002  L 15.785156249999998 3.33984375  L 13.72265625 1.2773437499999993  C 13.574218750000004 1.1289062499999991  13.500000000000002 0.9531249999999991  13.500000000000002 0.7499999999999993  C 13.500000000000002 0.5468749999999976  13.574218750000004 0.37109374999999756  13.72265625 0.22265624999999933  C 13.87109375 0.07421875000000111  14.046875 0  14.25 0  L 20.25 0  C 20.453125 0  20.628906250000004 0.07421875000000111  20.77734375 0.22265624999999933  Z " fill-rule="nonzero" fill="rgba(2, 167, 240, 1)" stroke="none" transform="matrix(1 0 0 1 350 853 )" class="fill" />
    <path d="M 16.39453125 10.605468749999998  C 16.46484375 10.675781249999998  16.5 10.765624999999998  16.5 10.875000000000002  L 16.5 14.625  C 16.5 15.554687499999998  16.169921875000004 16.349609375  15.509765625000002 17.009765625  C 14.849609375000002 17.669921875  14.0546875 18  13.125 18  L 3.3750000000000004 18  C 2.4453125000000004 18  1.650390625 17.669921875  0.990234375 17.009765625  C 0.330078125 16.349609375  0 15.554687499999998  0 14.625  L 0 4.875000000000001  C 0 3.9453124999999982  0.330078125 3.150390624999999  0.990234375 2.490234374999999  C 1.650390625 1.8300781249999976  2.4453125000000004 1.5000000000000007  3.3750000000000004 1.5000000000000007  L 11.625 1.5000000000000007  C 11.734375000000002 1.5000000000000007  11.82421875 1.5351562500000007  11.89453125 1.6054687500000007  C 11.96484375 1.6757812500000007  12 1.7656249999999982  12 1.8749999999999993  L 12 2.625000000000001  C 12 2.734375  11.96484375 2.824218749999999  11.89453125 2.894531249999999  C 11.82421875 2.964843749999999  11.734375000000002 2.999999999999999  11.625 2.999999999999999  L 3.3750000000000004 2.999999999999999  C 2.8593750000000004 2.999999999999999  2.4179687500000004 3.1835937499999973  2.05078125 3.55078125  C 1.6835937500000002 3.9179687499999982  1.5 4.359375  1.5 4.875000000000001  L 1.5 14.625  C 1.5 15.140625  1.6835937500000002 15.582031249999998  2.05078125 15.94921875  C 2.4179687500000004 16.31640625  2.8593750000000004 16.5  3.3750000000000004 16.5  L 13.125 16.5  C 13.640625 16.5  14.082031250000002 16.31640625  14.44921875 15.94921875  C 14.816406250000002 15.582031249999998  15 15.140625  15 14.625  L 15 10.875000000000002  C 15 10.765624999999998  15.03515625 10.675781249999998  15.10546875 10.605468749999998  C 15.17578125 10.535156249999998  15.265625 10.499999999999998  15.374999999999998 10.499999999999998  L 16.125 10.499999999999998  C 16.234375 10.499999999999998  16.32421875 10.535156249999998  16.39453125 10.605468749999998  Z " stroke-width="0" stroke-dasharray="0" stroke="rgba(255, 255, 255, 0)" fill="none" transform="matrix(1 0 0 1 350 853 )" class="stroke" mask="url(#Clip86)" />
    <path d="M 20.77734375 0.22265624999999933  C 20.92578125 0.37109374999999756  21 0.5468749999999976  21 0.7499999999999993  L 21 6.75  C 21 6.953125  20.92578125 7.12890625  20.77734375 7.27734375  C 20.628906250000004 7.42578125  20.453125 7.499999999999999  20.25 7.499999999999999  C 20.046875 7.499999999999999  19.87109375 7.42578125  19.72265625 7.27734375  L 17.66015625 5.214843749999999  L 10.01953125 12.855468749999998  C 9.94140625 12.933593749999996  9.8515625 12.97265625  9.75 12.97265625  C 9.648437500000002 12.97265625  9.55859375 12.933593749999996  9.48046875 12.855468749999998  L 8.14453125 11.519531249999998  C 8.06640625 11.44140625  8.02734375 11.3515625  8.02734375 11.25  C 8.02734375 11.1484375  8.06640625 11.05859375  8.14453125 10.980468750000002  L 15.785156249999998 3.33984375  L 13.72265625 1.2773437499999993  C 13.574218750000004 1.1289062499999991  13.500000000000002 0.9531249999999991  13.500000000000002 0.7499999999999993  C 13.500000000000002 0.5468749999999976  13.574218750000004 0.37109374999999756  13.72265625 0.22265624999999933  C 13.87109375 0.07421875000000111  14.046875 0  14.25 0  L 20.25 0  C 20.453125 0  20.628906250000004 0.07421875000000111  20.77734375 0.22265624999999933  Z " stroke-width="0" stroke-dasharray="0" stroke="rgba(255, 255, 255, 0)" fill="none" transform="matrix(1 0 0 1 350 853 )" class="stroke" mask="url(#Clip86)" />
  </g>
</svg>