<?xml version="1.0" encoding="utf-8"?>
<svg version="1.1" xmlns:xlink="http://www.w3.org/1999/xlink" width="9px" height="18px" xmlns="http://www.w3.org/2000/svg">
  <defs>
    <pattern id="BGPattern" patternUnits="userSpaceOnUse" alignment="0 0" imageRepeat="None" />
    <mask fill="white" id="Clip26">
      <path d="M 8.87473233404711 10.958705357142858  C 8.958244111349037 11.253348214285714  9.000000000000002 11.568080357142858  9 11.902901785714285  C 9.000000000000002 12.927455357142858  8.680406852248396 13.809709821428571  8.041220556745182 14.54966517857143  C 7.402034261241971 15.289620535714286  6.571734475374732 15.746651785714286  5.550321199143469 15.920758928571427  L 5.550321199143469 17.678571428571427  C 5.550321199143469 17.772321428571427  5.521413276231263 17.849330357142858  5.463597430406852 17.909598214285715  C 5.405781584582441 17.969866071428573  5.331905781584583 18  5.241970021413276 18  L 3.9411134903640255 18  C 3.857601713062099 18  3.785331905781585 17.968191964285715  3.724304068522484 17.904575892857142  C 3.6632762312633833 17.840959821428573  3.632762312633833 17.765625  3.632762312633833 17.678571428571427  L 3.632762312633833 15.920758928571427  C 3.2087794432548185 15.860491071428573  2.7992505353319057 15.756696428571429  2.4041755888650966 15.609375  C 2.0091006423982867 15.462053571428571  1.6830835117773022 15.313058035714285  1.4261241970021414 15.162388392857142  C 1.1691648822269807 15.01171875  0.9314775160599573 14.851004464285715  0.7130620985010707 14.680245535714285  C 0.4946466809421842 14.509486607142858  0.34528907922912216 14.38392857142857  0.26498929336188437 14.30357142857143  C 0.18468950749464672 14.223214285714285  0.12847965738758033 14.16294642857143  0.09635974304068522 14.122767857142858  C -0.012847965738757985 13.982142857142858  -0.019271948608137045 13.844866071428571  0.07708779443254818 13.7109375  L 1.0695931477516059 12.354910714285715  C 1.1145610278372593 12.287946428571429  1.1884368308351179 12.247767857142856  1.291220556745182 12.234375  C 1.3875802997858673 12.220982142857142  1.4646680942184154 12.25111607142857  1.5224839400428265 12.324776785714285  L 1.5417558886509635 12.34486607142857  C 2.2676659528907925 13.0078125  3.0481798715203428 13.426339285714286  3.8832976445396143 13.60044642857143  C 4.120985010706638 13.654017857142856  4.358672376873662 13.68080357142857  4.596359743040685 13.68080357142857  C 5.116702355460385 13.68080357142857  5.574411134903641 13.536830357142858  5.96948608137045 13.24888392857143  C 6.364561027837259 12.960937499999998  6.562098501070663 12.552455357142858  6.562098501070663 12.0234375  C 6.562098501070663 11.835937499999998  6.5139186295503215 11.658482142857142  6.417558886509637 11.49107142857143  C 6.3211991434689505 11.323660714285714  6.213597430406853 11.183035714285714  6.094753747323341 11.06919642857143  C 5.975910064239829 10.955357142857142  5.788008565310493 10.829799107142858  5.5310492505353315 10.69252232142857  C 5.274089935760172 10.555245535714285  5.062098501070664 10.448102678571427  4.895074946466809 10.37109375  C 4.728051391862956 10.294084821428571  4.471092077087794 10.185267857142858  4.124197002141328 10.044642857142858  C 3.873661670235546 9.937499999999998  3.676124197002141 9.853794642857142  3.5315845824411136 9.793526785714285  C 3.387044967880086 9.73325892857143  3.189507494646681 9.64453125  2.9389721627408996 9.52734375  C 2.6884368308351174 9.410156249999998  2.4876873661670236 9.306361607142858  2.3367237687366167 9.21595982142857  C 2.1857601713062103 9.125558035714285  2.0042826552462527 9.006696428571427  1.7922912205567452 8.859375  C 1.5802997858672376 8.712053571428571  1.4084582441113493 8.569754464285714  1.2767665952890792 8.432477678571427  C 1.1450749464668095 8.29520089285714  1.0053533190578159 8.131138392857142  0.8576017130620985 7.940290178571428  C 0.7098501070663812 7.749441964285713  0.5958244111349037 7.555245535714285  0.515524625267666 7.357700892857142  C 0.43522483940042833 7.160156249999998  0.36777301927194866 6.937499999999999  0.31316916488222696 6.689732142857142  C 0.2585653104925054 6.441964285714286  0.23126338329764454 6.180803571428571  0.23126338329764454 5.90625  C 0.23126338329764454 4.982142857142858  0.5460385438972162 4.171874999999998  1.1755888650963597 3.475446428571428  C 1.8051391862955035 2.779017857142855  2.624197002141328 2.3303571428571423  3.632762312633833 2.129464285714285  L 3.632762312633833 0.3214285714285723  C 3.632762312633833 0.23437499999999867  3.6632762312633833 0.15904017857142838  3.724304068522484 0.09542410714285743  C 3.785331905781585 0.031808035714286476  3.857601713062099 0  3.9411134903640255 0  L 5.241970021413276 0  C 5.331905781584583 0  5.405781584582441 0.030133928571427715  5.463597430406852 0.09040178571428514  C 5.521413276231263 0.15066964285714257  5.550321199143469 0.22767857142856962  5.550321199143469 0.3214285714285723  L 5.550321199143469 2.089285714285715  C 5.916488222698073 2.129464285714285  6.2714132762312635 2.206473214285712  6.615096359743041 2.3203125  C 6.958779443254819 2.4341517857142856  7.238222698072806 2.546316964285715  7.453426124197002 2.656808035714285  C 7.668629550321199 2.7672991071428577  7.872591006423983 2.8928571428571423  8.065310492505354 3.0334821428571423  C 8.258029978586723 3.1741071428571423  8.383297644539615 3.271205357142855  8.441113490364025 3.324776785714285  C 8.498929336188437 3.3783482142857135  8.547109207708779 3.425223214285715  8.585653104925054 3.465401785714285  C 8.694860813704498 3.5859375  8.710920770877944 3.713169642857142  8.633832976445396 3.847098214285715  L 7.853319057815846 5.313616071428572  C 7.801927194860814 5.4140625  7.728051391862955 5.467633928571429  7.63169164882227 5.474330357142858  C 7.541755888650964 5.494419642857142  7.455032119914348 5.470982142857142  7.37152034261242 5.404017857142858  C 7.352248394004282 5.383928571428572  7.305674518201285 5.34375  7.231798715203426 5.283482142857142  C 7.157922912205569 5.223214285714285  7.032655246252679 5.134486607142855  6.855995717344753 5.017299107142858  C 6.679336188436832 4.900111607142856  6.491434689507495 4.792968749999999  6.292291220556745 4.695870535714285  C 6.093147751605996 4.598772321428571  5.8538543897216275 4.511718749999999  5.574411134903641 4.434709821428572  C 5.294967880085653 4.3577008928571415  5.0203426124197 4.319196428571428  4.750535331905781 4.319196428571428  C 4.140256959314775 4.319196428571428  3.6423982869379015 4.4631696428571415  3.2569593147751608 4.751116071428572  C 2.87152034261242 5.039062499999999  2.6788008565310495 5.410714285714285  2.6788008565310495 5.866071428571428  C 2.6788008565310495 6.040178571428571  2.706102783725911 6.200892857142856  2.7607066381156313 6.348214285714285  C 2.8153104925053536 6.495535714285712  2.910064239828694 6.634486607142858  3.044967880085653 6.765066964285715  C 3.1798715203426124 6.895647321428572  3.306745182012848 7.006138392857142  3.4255888650963597 7.096540178571428  C 3.5444325481798717 7.186941964285715  3.724304068522484 7.290736607142856  3.965203426124197 7.407924107142858  C 4.2061027837259095 7.525111607142855  4.400428265524625 7.615513392857142  4.548179871520343 7.679129464285715  C 4.69593147751606 7.742745535714286  4.920770877944326 7.834821428571428  5.22269807280514 7.955357142857142  C 5.563169164882227 8.089285714285714  5.823340471092077 8.194754464285714  6.00321199143469 8.271763392857142  C 6.183083511777303 8.348772321428571  6.427194860813704 8.465959821428571  6.735546038543897 8.623325892857142  C 7.0438972162740905 8.780691964285714  7.2864025695931485 8.922991071428571  7.463062098501071 9.050223214285715  C 7.639721627408995 9.177455357142858  7.838865096359744 9.344866071428571  8.060492505353318 9.552455357142858  C 8.282119914346897 9.760044642857142  8.45235546038544 9.972656249999998  8.57119914346895 10.19029017857143  C 8.690042826552462 10.407924107142858  8.791220556745182 10.664062499999996  8.87473233404711 10.958705357142858  Z " fill-rule="evenodd" />
    </mask>
  </defs>
  <g transform="matrix(1 0 0 1 -241 -69 )">
    <path d="M 8.87473233404711 10.958705357142858  C 8.958244111349037 11.253348214285714  9.000000000000002 11.568080357142858  9 11.902901785714285  C 9.000000000000002 12.927455357142858  8.680406852248396 13.809709821428571  8.041220556745182 14.54966517857143  C 7.402034261241971 15.289620535714286  6.571734475374732 15.746651785714286  5.550321199143469 15.920758928571427  L 5.550321199143469 17.678571428571427  C 5.550321199143469 17.772321428571427  5.521413276231263 17.849330357142858  5.463597430406852 17.909598214285715  C 5.405781584582441 17.969866071428573  5.331905781584583 18  5.241970021413276 18  L 3.9411134903640255 18  C 3.857601713062099 18  3.785331905781585 17.968191964285715  3.724304068522484 17.904575892857142  C 3.6632762312633833 17.840959821428573  3.632762312633833 17.765625  3.632762312633833 17.678571428571427  L 3.632762312633833 15.920758928571427  C 3.2087794432548185 15.860491071428573  2.7992505353319057 15.756696428571429  2.4041755888650966 15.609375  C 2.0091006423982867 15.462053571428571  1.6830835117773022 15.313058035714285  1.4261241970021414 15.162388392857142  C 1.1691648822269807 15.01171875  0.9314775160599573 14.851004464285715  0.7130620985010707 14.680245535714285  C 0.4946466809421842 14.509486607142858  0.34528907922912216 14.38392857142857  0.26498929336188437 14.30357142857143  C 0.18468950749464672 14.223214285714285  0.12847965738758033 14.16294642857143  0.09635974304068522 14.122767857142858  C -0.012847965738757985 13.982142857142858  -0.019271948608137045 13.844866071428571  0.07708779443254818 13.7109375  L 1.0695931477516059 12.354910714285715  C 1.1145610278372593 12.287946428571429  1.1884368308351179 12.247767857142856  1.291220556745182 12.234375  C 1.3875802997858673 12.220982142857142  1.4646680942184154 12.25111607142857  1.5224839400428265 12.324776785714285  L 1.5417558886509635 12.34486607142857  C 2.2676659528907925 13.0078125  3.0481798715203428 13.426339285714286  3.8832976445396143 13.60044642857143  C 4.120985010706638 13.654017857142856  4.358672376873662 13.68080357142857  4.596359743040685 13.68080357142857  C 5.116702355460385 13.68080357142857  5.574411134903641 13.536830357142858  5.96948608137045 13.24888392857143  C 6.364561027837259 12.960937499999998  6.562098501070663 12.552455357142858  6.562098501070663 12.0234375  C 6.562098501070663 11.835937499999998  6.5139186295503215 11.658482142857142  6.417558886509637 11.49107142857143  C 6.3211991434689505 11.323660714285714  6.213597430406853 11.183035714285714  6.094753747323341 11.06919642857143  C 5.975910064239829 10.955357142857142  5.788008565310493 10.829799107142858  5.5310492505353315 10.69252232142857  C 5.274089935760172 10.555245535714285  5.062098501070664 10.448102678571427  4.895074946466809 10.37109375  C 4.728051391862956 10.294084821428571  4.471092077087794 10.185267857142858  4.124197002141328 10.044642857142858  C 3.873661670235546 9.937499999999998  3.676124197002141 9.853794642857142  3.5315845824411136 9.793526785714285  C 3.387044967880086 9.73325892857143  3.189507494646681 9.64453125  2.9389721627408996 9.52734375  C 2.6884368308351174 9.410156249999998  2.4876873661670236 9.306361607142858  2.3367237687366167 9.21595982142857  C 2.1857601713062103 9.125558035714285  2.0042826552462527 9.006696428571427  1.7922912205567452 8.859375  C 1.5802997858672376 8.712053571428571  1.4084582441113493 8.569754464285714  1.2767665952890792 8.432477678571427  C 1.1450749464668095 8.29520089285714  1.0053533190578159 8.131138392857142  0.8576017130620985 7.940290178571428  C 0.7098501070663812 7.749441964285713  0.5958244111349037 7.555245535714285  0.515524625267666 7.357700892857142  C 0.43522483940042833 7.160156249999998  0.36777301927194866 6.937499999999999  0.31316916488222696 6.689732142857142  C 0.2585653104925054 6.441964285714286  0.23126338329764454 6.180803571428571  0.23126338329764454 5.90625  C 0.23126338329764454 4.982142857142858  0.5460385438972162 4.171874999999998  1.1755888650963597 3.475446428571428  C 1.8051391862955035 2.779017857142855  2.624197002141328 2.3303571428571423  3.632762312633833 2.129464285714285  L 3.632762312633833 0.3214285714285723  C 3.632762312633833 0.23437499999999867  3.6632762312633833 0.15904017857142838  3.724304068522484 0.09542410714285743  C 3.785331905781585 0.031808035714286476  3.857601713062099 0  3.9411134903640255 0  L 5.241970021413276 0  C 5.331905781584583 0  5.405781584582441 0.030133928571427715  5.463597430406852 0.09040178571428514  C 5.521413276231263 0.15066964285714257  5.550321199143469 0.22767857142856962  5.550321199143469 0.3214285714285723  L 5.550321199143469 2.089285714285715  C 5.916488222698073 2.129464285714285  6.2714132762312635 2.206473214285712  6.615096359743041 2.3203125  C 6.958779443254819 2.4341517857142856  7.238222698072806 2.546316964285715  7.453426124197002 2.656808035714285  C 7.668629550321199 2.7672991071428577  7.872591006423983 2.8928571428571423  8.065310492505354 3.0334821428571423  C 8.258029978586723 3.1741071428571423  8.383297644539615 3.271205357142855  8.441113490364025 3.324776785714285  C 8.498929336188437 3.3783482142857135  8.547109207708779 3.425223214285715  8.585653104925054 3.465401785714285  C 8.694860813704498 3.5859375  8.710920770877944 3.713169642857142  8.633832976445396 3.847098214285715  L 7.853319057815846 5.313616071428572  C 7.801927194860814 5.4140625  7.728051391862955 5.467633928571429  7.63169164882227 5.474330357142858  C 7.541755888650964 5.494419642857142  7.455032119914348 5.470982142857142  7.37152034261242 5.404017857142858  C 7.352248394004282 5.383928571428572  7.305674518201285 5.34375  7.231798715203426 5.283482142857142  C 7.157922912205569 5.223214285714285  7.032655246252679 5.134486607142855  6.855995717344753 5.017299107142858  C 6.679336188436832 4.900111607142856  6.491434689507495 4.792968749999999  6.292291220556745 4.695870535714285  C 6.093147751605996 4.598772321428571  5.8538543897216275 4.511718749999999  5.574411134903641 4.434709821428572  C 5.294967880085653 4.3577008928571415  5.0203426124197 4.319196428571428  4.750535331905781 4.319196428571428  C 4.140256959314775 4.319196428571428  3.6423982869379015 4.4631696428571415  3.2569593147751608 4.751116071428572  C 2.87152034261242 5.039062499999999  2.6788008565310495 5.410714285714285  2.6788008565310495 5.866071428571428  C 2.6788008565310495 6.040178571428571  2.706102783725911 6.200892857142856  2.7607066381156313 6.348214285714285  C 2.8153104925053536 6.495535714285712  2.910064239828694 6.634486607142858  3.044967880085653 6.765066964285715  C 3.1798715203426124 6.895647321428572  3.306745182012848 7.006138392857142  3.4255888650963597 7.096540178571428  C 3.5444325481798717 7.186941964285715  3.724304068522484 7.290736607142856  3.965203426124197 7.407924107142858  C 4.2061027837259095 7.525111607142855  4.400428265524625 7.615513392857142  4.548179871520343 7.679129464285715  C 4.69593147751606 7.742745535714286  4.920770877944326 7.834821428571428  5.22269807280514 7.955357142857142  C 5.563169164882227 8.089285714285714  5.823340471092077 8.194754464285714  6.00321199143469 8.271763392857142  C 6.183083511777303 8.348772321428571  6.427194860813704 8.465959821428571  6.735546038543897 8.623325892857142  C 7.0438972162740905 8.780691964285714  7.2864025695931485 8.922991071428571  7.463062098501071 9.050223214285715  C 7.639721627408995 9.177455357142858  7.838865096359744 9.344866071428571  8.060492505353318 9.552455357142858  C 8.282119914346897 9.760044642857142  8.45235546038544 9.972656249999998  8.57119914346895 10.19029017857143  C 8.690042826552462 10.407924107142858  8.791220556745182 10.664062499999996  8.87473233404711 10.958705357142858  Z " fill-rule="nonzero" fill="rgba(51, 51, 51, 1)" stroke="none" transform="matrix(1 0 0 1 241 69 )" class="fill" />
    <path d="M 8.87473233404711 10.958705357142858  C 8.958244111349037 11.253348214285714  9.000000000000002 11.568080357142858  9 11.902901785714285  C 9.000000000000002 12.927455357142858  8.680406852248396 13.809709821428571  8.041220556745182 14.54966517857143  C 7.402034261241971 15.289620535714286  6.571734475374732 15.746651785714286  5.550321199143469 15.920758928571427  L 5.550321199143469 17.678571428571427  C 5.550321199143469 17.772321428571427  5.521413276231263 17.849330357142858  5.463597430406852 17.909598214285715  C 5.405781584582441 17.969866071428573  5.331905781584583 18  5.241970021413276 18  L 3.9411134903640255 18  C 3.857601713062099 18  3.785331905781585 17.968191964285715  3.724304068522484 17.904575892857142  C 3.6632762312633833 17.840959821428573  3.632762312633833 17.765625  3.632762312633833 17.678571428571427  L 3.632762312633833 15.920758928571427  C 3.2087794432548185 15.860491071428573  2.7992505353319057 15.756696428571429  2.4041755888650966 15.609375  C 2.0091006423982867 15.462053571428571  1.6830835117773022 15.313058035714285  1.4261241970021414 15.162388392857142  C 1.1691648822269807 15.01171875  0.9314775160599573 14.851004464285715  0.7130620985010707 14.680245535714285  C 0.4946466809421842 14.509486607142858  0.34528907922912216 14.38392857142857  0.26498929336188437 14.30357142857143  C 0.18468950749464672 14.223214285714285  0.12847965738758033 14.16294642857143  0.09635974304068522 14.122767857142858  C -0.012847965738757985 13.982142857142858  -0.019271948608137045 13.844866071428571  0.07708779443254818 13.7109375  L 1.0695931477516059 12.354910714285715  C 1.1145610278372593 12.287946428571429  1.1884368308351179 12.247767857142856  1.291220556745182 12.234375  C 1.3875802997858673 12.220982142857142  1.4646680942184154 12.25111607142857  1.5224839400428265 12.324776785714285  L 1.5417558886509635 12.34486607142857  C 2.2676659528907925 13.0078125  3.0481798715203428 13.426339285714286  3.8832976445396143 13.60044642857143  C 4.120985010706638 13.654017857142856  4.358672376873662 13.68080357142857  4.596359743040685 13.68080357142857  C 5.116702355460385 13.68080357142857  5.574411134903641 13.536830357142858  5.96948608137045 13.24888392857143  C 6.364561027837259 12.960937499999998  6.562098501070663 12.552455357142858  6.562098501070663 12.0234375  C 6.562098501070663 11.835937499999998  6.5139186295503215 11.658482142857142  6.417558886509637 11.49107142857143  C 6.3211991434689505 11.323660714285714  6.213597430406853 11.183035714285714  6.094753747323341 11.06919642857143  C 5.975910064239829 10.955357142857142  5.788008565310493 10.829799107142858  5.5310492505353315 10.69252232142857  C 5.274089935760172 10.555245535714285  5.062098501070664 10.448102678571427  4.895074946466809 10.37109375  C 4.728051391862956 10.294084821428571  4.471092077087794 10.185267857142858  4.124197002141328 10.044642857142858  C 3.873661670235546 9.937499999999998  3.676124197002141 9.853794642857142  3.5315845824411136 9.793526785714285  C 3.387044967880086 9.73325892857143  3.189507494646681 9.64453125  2.9389721627408996 9.52734375  C 2.6884368308351174 9.410156249999998  2.4876873661670236 9.306361607142858  2.3367237687366167 9.21595982142857  C 2.1857601713062103 9.125558035714285  2.0042826552462527 9.006696428571427  1.7922912205567452 8.859375  C 1.5802997858672376 8.712053571428571  1.4084582441113493 8.569754464285714  1.2767665952890792 8.432477678571427  C 1.1450749464668095 8.29520089285714  1.0053533190578159 8.131138392857142  0.8576017130620985 7.940290178571428  C 0.7098501070663812 7.749441964285713  0.5958244111349037 7.555245535714285  0.515524625267666 7.357700892857142  C 0.43522483940042833 7.160156249999998  0.36777301927194866 6.937499999999999  0.31316916488222696 6.689732142857142  C 0.2585653104925054 6.441964285714286  0.23126338329764454 6.180803571428571  0.23126338329764454 5.90625  C 0.23126338329764454 4.982142857142858  0.5460385438972162 4.171874999999998  1.1755888650963597 3.475446428571428  C 1.8051391862955035 2.779017857142855  2.624197002141328 2.3303571428571423  3.632762312633833 2.129464285714285  L 3.632762312633833 0.3214285714285723  C 3.632762312633833 0.23437499999999867  3.6632762312633833 0.15904017857142838  3.724304068522484 0.09542410714285743  C 3.785331905781585 0.031808035714286476  3.857601713062099 0  3.9411134903640255 0  L 5.241970021413276 0  C 5.331905781584583 0  5.405781584582441 0.030133928571427715  5.463597430406852 0.09040178571428514  C 5.521413276231263 0.15066964285714257  5.550321199143469 0.22767857142856962  5.550321199143469 0.3214285714285723  L 5.550321199143469 2.089285714285715  C 5.916488222698073 2.129464285714285  6.2714132762312635 2.206473214285712  6.615096359743041 2.3203125  C 6.958779443254819 2.4341517857142856  7.238222698072806 2.546316964285715  7.453426124197002 2.656808035714285  C 7.668629550321199 2.7672991071428577  7.872591006423983 2.8928571428571423  8.065310492505354 3.0334821428571423  C 8.258029978586723 3.1741071428571423  8.383297644539615 3.271205357142855  8.441113490364025 3.324776785714285  C 8.498929336188437 3.3783482142857135  8.547109207708779 3.425223214285715  8.585653104925054 3.465401785714285  C 8.694860813704498 3.5859375  8.710920770877944 3.713169642857142  8.633832976445396 3.847098214285715  L 7.853319057815846 5.313616071428572  C 7.801927194860814 5.4140625  7.728051391862955 5.467633928571429  7.63169164882227 5.474330357142858  C 7.541755888650964 5.494419642857142  7.455032119914348 5.470982142857142  7.37152034261242 5.404017857142858  C 7.352248394004282 5.383928571428572  7.305674518201285 5.34375  7.231798715203426 5.283482142857142  C 7.157922912205569 5.223214285714285  7.032655246252679 5.134486607142855  6.855995717344753 5.017299107142858  C 6.679336188436832 4.900111607142856  6.491434689507495 4.792968749999999  6.292291220556745 4.695870535714285  C 6.093147751605996 4.598772321428571  5.8538543897216275 4.511718749999999  5.574411134903641 4.434709821428572  C 5.294967880085653 4.3577008928571415  5.0203426124197 4.319196428571428  4.750535331905781 4.319196428571428  C 4.140256959314775 4.319196428571428  3.6423982869379015 4.4631696428571415  3.2569593147751608 4.751116071428572  C 2.87152034261242 5.039062499999999  2.6788008565310495 5.410714285714285  2.6788008565310495 5.866071428571428  C 2.6788008565310495 6.040178571428571  2.706102783725911 6.200892857142856  2.7607066381156313 6.348214285714285  C 2.8153104925053536 6.495535714285712  2.910064239828694 6.634486607142858  3.044967880085653 6.765066964285715  C 3.1798715203426124 6.895647321428572  3.306745182012848 7.006138392857142  3.4255888650963597 7.096540178571428  C 3.5444325481798717 7.186941964285715  3.724304068522484 7.290736607142856  3.965203426124197 7.407924107142858  C 4.2061027837259095 7.525111607142855  4.400428265524625 7.615513392857142  4.548179871520343 7.679129464285715  C 4.69593147751606 7.742745535714286  4.920770877944326 7.834821428571428  5.22269807280514 7.955357142857142  C 5.563169164882227 8.089285714285714  5.823340471092077 8.194754464285714  6.00321199143469 8.271763392857142  C 6.183083511777303 8.348772321428571  6.427194860813704 8.465959821428571  6.735546038543897 8.623325892857142  C 7.0438972162740905 8.780691964285714  7.2864025695931485 8.922991071428571  7.463062098501071 9.050223214285715  C 7.639721627408995 9.177455357142858  7.838865096359744 9.344866071428571  8.060492505353318 9.552455357142858  C 8.282119914346897 9.760044642857142  8.45235546038544 9.972656249999998  8.57119914346895 10.19029017857143  C 8.690042826552462 10.407924107142858  8.791220556745182 10.664062499999996  8.87473233404711 10.958705357142858  Z " stroke-width="0" stroke-dasharray="0" stroke="rgba(255, 255, 255, 0)" fill="none" transform="matrix(1 0 0 1 241 69 )" class="stroke" mask="url(#Clip26)" />
  </g>
</svg>