<?xml version="1.0" encoding="utf-8"?>
<svg version="1.1" xmlns:xlink="http://www.w3.org/1999/xlink" width="29px" height="34px" xmlns="http://www.w3.org/2000/svg">
  <defs>
    <pattern id="BGPattern" patternUnits="userSpaceOnUse" alignment="0 0" imageRepeat="None" />
    <mask fill="white" id="Clip27">
      <path d="M 6.5419921875 24.788504464285715  C 7.013997395833333 24.314174107142854  7.25 23.741815476190474  7.25 23.071428571428573  C 7.25 22.40104166666666  7.013997395833333 21.828683035714285  6.5419921875 21.354352678571427  C 6.069986979166667 20.880022321428573  5.500434027777779 20.642857142857146  4.833333333333333 20.642857142857146  C 4.166232638888889 20.642857142857146  3.5966796875 20.880022321428573  3.1246744791666665 21.354352678571427  C 2.6526692708333335 21.828683035714285  2.4166666666666665 22.40104166666666  2.4166666666666665 23.071428571428573  C 2.4166666666666665 23.741815476190474  2.6526692708333335 24.314174107142854  3.1246744791666665 24.788504464285715  C 3.5966796875 25.262834821428573  4.166232638888889 25.5  4.833333333333333 25.5  C 5.500434027777779 25.5  6.069986979166667 25.262834821428573  6.5419921875 24.788504464285715  Z M 25.875325520833332 24.788504464285715  C 26.347330729166668 24.314174107142854  26.583333333333332 23.741815476190474  26.583333333333332 23.071428571428573  C 26.583333333333332 22.40104166666666  26.347330729166668 21.828683035714285  25.875325520833332 21.354352678571427  C 25.4033203125 20.880022321428573  24.833767361111114 20.642857142857146  24.166666666666668 20.642857142857146  C 23.499565972222225 20.642857142857146  22.930013020833332 20.880022321428573  22.4580078125 21.354352678571427  C 21.986002604166668 21.828683035714285  21.75 22.40104166666666  21.75 23.071428571428573  C 21.75 23.741815476190474  21.986002604166668 24.314174107142854  22.4580078125 24.788504464285715  C 22.930013020833332 25.262834821428573  23.499565972222225 25.5  24.166666666666668 25.5  C 24.833767361111114 25.5  25.4033203125 25.262834821428573  25.875325520833332 24.788504464285715  Z M 25.450520833333332 16.563616071428573  C 25.689670138888893 16.272693452380953  25.77777777777778 15.9375  25.71484375 15.558035714285714  L 24.35546875 8.272321428571427  C 24.292534722222225 7.981398809523807  24.150933159722225 7.74423363095238  23.9306640625 7.5608258928571415  C 23.71039496527778 7.377418154761903  23.45551215277778 7.2857142857142865  23.166015625 7.2857142857142865  L 5.833984375 7.2857142857142865  C 5.544487847222223 7.2857142857142865  5.289605034722223 7.377418154761903  5.0693359375 7.5608258928571415  C 4.849066840277779 7.74423363095238  4.707465277777778 7.981398809523807  4.64453125 8.272321428571427  L 3.28515625 15.558035714285714  C 3.2222222222222223 15.9375  3.3103298611111116 16.272693452380953  3.5494791666666665 16.563616071428573  C 3.7886284722222228 16.85453869047619  4.097005208333334 17  4.474609375 17  L 24.525390625 17  C 24.902994791666668 17  25.21137152777778 16.85453869047619  25.450520833333332 16.563616071428573  Z M 21.18359375 4.5915178571428585  C 21.35980902777778 4.41443452380952  21.447916666666668 4.199404761904762  21.447916666666668 3.9464285714285725  C 21.447916666666668 3.693452380952379  21.35980902777778 3.478422619047617  21.18359375 3.3013392857142865  C 21.007378472222225 3.124255952380948  20.79340277777778 3.0357142857142865  20.541666666666668 3  L 8.458333333333334 3  C 8.206597222222221 3.0357142857142865  7.992621527777778 3.124255952380948  7.81640625 3.3013392857142865  C 7.640190972222222 3.478422619047617  7.552083333333334 3.693452380952379  7.552083333333334 3.9464285714285725  C 7.552083333333334 4.199404761904762  7.640190972222222 4.41443452380952  7.81640625 4.5915178571428585  C 7.992621527777778 4.76860119047619  8.206597222222221 4.8571428571428585  8.458333333333334 5  L 20.541666666666668 5  C 20.79340277777778 4.8571428571428585  21.007378472222225 4.76860119047619  21.18359375 4.5915178571428585  Z M 28.565755208333332 13.47098214285714  C 28.855251736111107 14.761160714285714  29 16.171502976190474  29 17.702008928571427  L 29 29.142857142857146  L 26.583333333333332 29.142857142857146  L 26.583333333333332 31.571428571428573  C 26.583333333333332 32.241815476190474  26.347330729166668 32.81417410714286  25.875325520833332 33.288504464285715  C 25.4033203125 33.76283482142857  24.833767361111114 34  24.166666666666668 34  C 23.499565972222225 34  22.930013020833332 33.76283482142857  22.4580078125 33.288504464285715  C 21.986002604166668 32.81417410714286  21.75 32.241815476190474  21.75 31.571428571428573  L 21.75 29  L 7.25 29  L 7.25 31.571428571428573  C 7.25 32.241815476190474  7.013997395833333 32.81417410714286  6.5419921875 33.288504464285715  C 6.069986979166667 33.76283482142857  5.500434027777779 34  4.833333333333333 34  C 4.166232638888889 34  3.5966796875 33.76283482142857  3.1246744791666665 33.288504464285715  C 2.6526692708333335 32.81417410714286  2.4166666666666665 32.241815476190474  2.4166666666666665 31.571428571428573  L 2.4166666666666665 29.142857142857146  L 0 29.142857142857146  L 0 17.702008928571427  C 0 16.285342261904763  0.15733506944444442 14.875  0.47200520833333337 13.47098214285714  L 2.4166666666666665 4.8571428571428585  C 2.5299479166666665 3.8705357142857135  3.1435546875 3.004092261904762  4.257486979166667 2.2578125  C 5.371419270833333 1.5115327380952341  6.818901909722221 0.9486607142857137  8.599934895833334 0.5691964285714275  C 10.380967881944446 0.18973214285714124  12.34765625 0  14.5 0  C 16.652343750000004 0  18.619032118055557 0.18973214285714124  20.400065104166668 0.5691964285714275  C 22.18109809027778 0.9486607142857137  23.628580729166668 1.5115327380952341  24.742513020833332 2.2578125  C 25.8564453125 3.004092261904762  26.470052083333332 3.8705357142857135  26.583333333333332 4.8571428571428585  L 28.565755208333332 13.47098214285714  Z " fill-rule="evenodd" />
    </mask>
  </defs>
  <g transform="matrix(1 0 0 1 -31 -36 )">
    <path d="M 6.5419921875 24.788504464285715  C 7.013997395833333 24.314174107142854  7.25 23.741815476190474  7.25 23.071428571428573  C 7.25 22.40104166666666  7.013997395833333 21.828683035714285  6.5419921875 21.354352678571427  C 6.069986979166667 20.880022321428573  5.500434027777779 20.642857142857146  4.833333333333333 20.642857142857146  C 4.166232638888889 20.642857142857146  3.5966796875 20.880022321428573  3.1246744791666665 21.354352678571427  C 2.6526692708333335 21.828683035714285  2.4166666666666665 22.40104166666666  2.4166666666666665 23.071428571428573  C 2.4166666666666665 23.741815476190474  2.6526692708333335 24.314174107142854  3.1246744791666665 24.788504464285715  C 3.5966796875 25.262834821428573  4.166232638888889 25.5  4.833333333333333 25.5  C 5.500434027777779 25.5  6.069986979166667 25.262834821428573  6.5419921875 24.788504464285715  Z M 25.875325520833332 24.788504464285715  C 26.347330729166668 24.314174107142854  26.583333333333332 23.741815476190474  26.583333333333332 23.071428571428573  C 26.583333333333332 22.40104166666666  26.347330729166668 21.828683035714285  25.875325520833332 21.354352678571427  C 25.4033203125 20.880022321428573  24.833767361111114 20.642857142857146  24.166666666666668 20.642857142857146  C 23.499565972222225 20.642857142857146  22.930013020833332 20.880022321428573  22.4580078125 21.354352678571427  C 21.986002604166668 21.828683035714285  21.75 22.40104166666666  21.75 23.071428571428573  C 21.75 23.741815476190474  21.986002604166668 24.314174107142854  22.4580078125 24.788504464285715  C 22.930013020833332 25.262834821428573  23.499565972222225 25.5  24.166666666666668 25.5  C 24.833767361111114 25.5  25.4033203125 25.262834821428573  25.875325520833332 24.788504464285715  Z M 25.450520833333332 16.563616071428573  C 25.689670138888893 16.272693452380953  25.77777777777778 15.9375  25.71484375 15.558035714285714  L 24.35546875 8.272321428571427  C 24.292534722222225 7.981398809523807  24.150933159722225 7.74423363095238  23.9306640625 7.5608258928571415  C 23.71039496527778 7.377418154761903  23.45551215277778 7.2857142857142865  23.166015625 7.2857142857142865  L 5.833984375 7.2857142857142865  C 5.544487847222223 7.2857142857142865  5.289605034722223 7.377418154761903  5.0693359375 7.5608258928571415  C 4.849066840277779 7.74423363095238  4.707465277777778 7.981398809523807  4.64453125 8.272321428571427  L 3.28515625 15.558035714285714  C 3.2222222222222223 15.9375  3.3103298611111116 16.272693452380953  3.5494791666666665 16.563616071428573  C 3.7886284722222228 16.85453869047619  4.097005208333334 17  4.474609375 17  L 24.525390625 17  C 24.902994791666668 17  25.21137152777778 16.85453869047619  25.450520833333332 16.563616071428573  Z M 21.18359375 4.5915178571428585  C 21.35980902777778 4.41443452380952  21.447916666666668 4.199404761904762  21.447916666666668 3.9464285714285725  C 21.447916666666668 3.693452380952379  21.35980902777778 3.478422619047617  21.18359375 3.3013392857142865  C 21.007378472222225 3.124255952380948  20.79340277777778 3.0357142857142865  20.541666666666668 3  L 8.458333333333334 3  C 8.206597222222221 3.0357142857142865  7.992621527777778 3.124255952380948  7.81640625 3.3013392857142865  C 7.640190972222222 3.478422619047617  7.552083333333334 3.693452380952379  7.552083333333334 3.9464285714285725  C 7.552083333333334 4.199404761904762  7.640190972222222 4.41443452380952  7.81640625 4.5915178571428585  C 7.992621527777778 4.76860119047619  8.206597222222221 4.8571428571428585  8.458333333333334 5  L 20.541666666666668 5  C 20.79340277777778 4.8571428571428585  21.007378472222225 4.76860119047619  21.18359375 4.5915178571428585  Z M 28.565755208333332 13.47098214285714  C 28.855251736111107 14.761160714285714  29 16.171502976190474  29 17.702008928571427  L 29 29.142857142857146  L 26.583333333333332 29.142857142857146  L 26.583333333333332 31.571428571428573  C 26.583333333333332 32.241815476190474  26.347330729166668 32.81417410714286  25.875325520833332 33.288504464285715  C 25.4033203125 33.76283482142857  24.833767361111114 34  24.166666666666668 34  C 23.499565972222225 34  22.930013020833332 33.76283482142857  22.4580078125 33.288504464285715  C 21.986002604166668 32.81417410714286  21.75 32.241815476190474  21.75 31.571428571428573  L 21.75 29  L 7.25 29  L 7.25 31.571428571428573  C 7.25 32.241815476190474  7.013997395833333 32.81417410714286  6.5419921875 33.288504464285715  C 6.069986979166667 33.76283482142857  5.500434027777779 34  4.833333333333333 34  C 4.166232638888889 34  3.5966796875 33.76283482142857  3.1246744791666665 33.288504464285715  C 2.6526692708333335 32.81417410714286  2.4166666666666665 32.241815476190474  2.4166666666666665 31.571428571428573  L 2.4166666666666665 29.142857142857146  L 0 29.142857142857146  L 0 17.702008928571427  C 0 16.285342261904763  0.15733506944444442 14.875  0.47200520833333337 13.47098214285714  L 2.4166666666666665 4.8571428571428585  C 2.5299479166666665 3.8705357142857135  3.1435546875 3.004092261904762  4.257486979166667 2.2578125  C 5.371419270833333 1.5115327380952341  6.818901909722221 0.9486607142857137  8.599934895833334 0.5691964285714275  C 10.380967881944446 0.18973214285714124  12.34765625 0  14.5 0  C 16.652343750000004 0  18.619032118055557 0.18973214285714124  20.400065104166668 0.5691964285714275  C 22.18109809027778 0.9486607142857137  23.628580729166668 1.5115327380952341  24.742513020833332 2.2578125  C 25.8564453125 3.004092261904762  26.470052083333332 3.8705357142857135  26.583333333333332 4.8571428571428585  L 28.565755208333332 13.47098214285714  Z " fill-rule="nonzero" fill="rgba(51, 51, 51, 1)" stroke="none" transform="matrix(1 0 0 1 31 36 )" class="fill" />
    <path d="M 6.5419921875 24.788504464285715  C 7.013997395833333 24.314174107142854  7.25 23.741815476190474  7.25 23.071428571428573  C 7.25 22.40104166666666  7.013997395833333 21.828683035714285  6.5419921875 21.354352678571427  C 6.069986979166667 20.880022321428573  5.500434027777779 20.642857142857146  4.833333333333333 20.642857142857146  C 4.166232638888889 20.642857142857146  3.5966796875 20.880022321428573  3.1246744791666665 21.354352678571427  C 2.6526692708333335 21.828683035714285  2.4166666666666665 22.40104166666666  2.4166666666666665 23.071428571428573  C 2.4166666666666665 23.741815476190474  2.6526692708333335 24.314174107142854  3.1246744791666665 24.788504464285715  C 3.5966796875 25.262834821428573  4.166232638888889 25.5  4.833333333333333 25.5  C 5.500434027777779 25.5  6.069986979166667 25.262834821428573  6.5419921875 24.788504464285715  Z " stroke-width="0" stroke-dasharray="0" stroke="rgba(255, 255, 255, 0)" fill="none" transform="matrix(1 0 0 1 31 36 )" class="stroke" mask="url(#Clip27)" />
    <path d="M 25.875325520833332 24.788504464285715  C 26.347330729166668 24.314174107142854  26.583333333333332 23.741815476190474  26.583333333333332 23.071428571428573  C 26.583333333333332 22.40104166666666  26.347330729166668 21.828683035714285  25.875325520833332 21.354352678571427  C 25.4033203125 20.880022321428573  24.833767361111114 20.642857142857146  24.166666666666668 20.642857142857146  C 23.499565972222225 20.642857142857146  22.930013020833332 20.880022321428573  22.4580078125 21.354352678571427  C 21.986002604166668 21.828683035714285  21.75 22.40104166666666  21.75 23.071428571428573  C 21.75 23.741815476190474  21.986002604166668 24.314174107142854  22.4580078125 24.788504464285715  C 22.930013020833332 25.262834821428573  23.499565972222225 25.5  24.166666666666668 25.5  C 24.833767361111114 25.5  25.4033203125 25.262834821428573  25.875325520833332 24.788504464285715  Z " stroke-width="0" stroke-dasharray="0" stroke="rgba(255, 255, 255, 0)" fill="none" transform="matrix(1 0 0 1 31 36 )" class="stroke" mask="url(#Clip27)" />
    <path d="M 25.450520833333332 16.563616071428573  C 25.689670138888893 16.272693452380953  25.77777777777778 15.9375  25.71484375 15.558035714285714  L 24.35546875 8.272321428571427  C 24.292534722222225 7.981398809523807  24.150933159722225 7.74423363095238  23.9306640625 7.5608258928571415  C 23.71039496527778 7.377418154761903  23.45551215277778 7.2857142857142865  23.166015625 7.2857142857142865  L 5.833984375 7.2857142857142865  C 5.544487847222223 7.2857142857142865  5.289605034722223 7.377418154761903  5.0693359375 7.5608258928571415  C 4.849066840277779 7.74423363095238  4.707465277777778 7.981398809523807  4.64453125 8.272321428571427  L 3.28515625 15.558035714285714  C 3.2222222222222223 15.9375  3.3103298611111116 16.272693452380953  3.5494791666666665 16.563616071428573  C 3.7886284722222228 16.85453869047619  4.097005208333334 17  4.474609375 17  L 24.525390625 17  C 24.902994791666668 17  25.21137152777778 16.85453869047619  25.450520833333332 16.563616071428573  Z " stroke-width="0" stroke-dasharray="0" stroke="rgba(255, 255, 255, 0)" fill="none" transform="matrix(1 0 0 1 31 36 )" class="stroke" mask="url(#Clip27)" />
    <path d="M 21.18359375 4.5915178571428585  C 21.35980902777778 4.41443452380952  21.447916666666668 4.199404761904762  21.447916666666668 3.9464285714285725  C 21.447916666666668 3.693452380952379  21.35980902777778 3.478422619047617  21.18359375 3.3013392857142865  C 21.007378472222225 3.124255952380948  20.79340277777778 3.0357142857142865  20.541666666666668 3  L 8.458333333333334 3  C 8.206597222222221 3.0357142857142865  7.992621527777778 3.124255952380948  7.81640625 3.3013392857142865  C 7.640190972222222 3.478422619047617  7.552083333333334 3.693452380952379  7.552083333333334 3.9464285714285725  C 7.552083333333334 4.199404761904762  7.640190972222222 4.41443452380952  7.81640625 4.5915178571428585  C 7.992621527777778 4.76860119047619  8.206597222222221 4.8571428571428585  8.458333333333334 5  L 20.541666666666668 5  C 20.79340277777778 4.8571428571428585  21.007378472222225 4.76860119047619  21.18359375 4.5915178571428585  Z " stroke-width="0" stroke-dasharray="0" stroke="rgba(255, 255, 255, 0)" fill="none" transform="matrix(1 0 0 1 31 36 )" class="stroke" mask="url(#Clip27)" />
    <path d="M 28.565755208333332 13.47098214285714  C 28.855251736111107 14.761160714285714  29 16.171502976190474  29 17.702008928571427  L 29 29.142857142857146  L 26.583333333333332 29.142857142857146  L 26.583333333333332 31.571428571428573  C 26.583333333333332 32.241815476190474  26.347330729166668 32.81417410714286  25.875325520833332 33.288504464285715  C 25.4033203125 33.76283482142857  24.833767361111114 34  24.166666666666668 34  C 23.499565972222225 34  22.930013020833332 33.76283482142857  22.4580078125 33.288504464285715  C 21.986002604166668 32.81417410714286  21.75 32.241815476190474  21.75 31.571428571428573  L 21.75 29  L 7.25 29  L 7.25 31.571428571428573  C 7.25 32.241815476190474  7.013997395833333 32.81417410714286  6.5419921875 33.288504464285715  C 6.069986979166667 33.76283482142857  5.500434027777779 34  4.833333333333333 34  C 4.166232638888889 34  3.5966796875 33.76283482142857  3.1246744791666665 33.288504464285715  C 2.6526692708333335 32.81417410714286  2.4166666666666665 32.241815476190474  2.4166666666666665 31.571428571428573  L 2.4166666666666665 29.142857142857146  L 0 29.142857142857146  L 0 17.702008928571427  C 0 16.285342261904763  0.15733506944444442 14.875  0.47200520833333337 13.47098214285714  L 2.4166666666666665 4.8571428571428585  C 2.5299479166666665 3.8705357142857135  3.1435546875 3.004092261904762  4.257486979166667 2.2578125  C 5.371419270833333 1.5115327380952341  6.818901909722221 0.9486607142857137  8.599934895833334 0.5691964285714275  C 10.380967881944446 0.18973214285714124  12.34765625 0  14.5 0  C 16.652343750000004 0  18.619032118055557 0.18973214285714124  20.400065104166668 0.5691964285714275  C 22.18109809027778 0.9486607142857137  23.628580729166668 1.5115327380952341  24.742513020833332 2.2578125  C 25.8564453125 3.004092261904762  26.470052083333332 3.8705357142857135  26.583333333333332 4.8571428571428585  L 28.565755208333332 13.47098214285714  Z " stroke-width="0" stroke-dasharray="0" stroke="rgba(255, 255, 255, 0)" fill="none" transform="matrix(1 0 0 1 31 36 )" class="stroke" mask="url(#Clip27)" />
  </g>
</svg>