<?xml version="1.0" encoding="utf-8"?>
<svg version="1.1" xmlns:xlink="http://www.w3.org/1999/xlink" width="46px" height="17px" xmlns="http://www.w3.org/2000/svg">
  <defs>
    <pattern id="BGPattern" patternUnits="userSpaceOnUse" alignment="0 0" imageRepeat="None" />
    <mask fill="white" id="Clip29">
      <path d="M 2.3549748895517904 4.3243764504951  C 2.3549748895517904 4.9849698313618385  2.452145581262373 11.555042110779773  2.6465365922074024 12.097663066458143  C 2.8409276031524264 12.640284022136512  3.110057665025004 13.104239294293308  3.453976405348982 13.489528882928438  C 3.7978951456729653 13.874870671751689  4.205337116532979 14.169749534534514  4.676302317929023 14.374217671464947  C 5.147317146848921 14.57868580839542  5.659423565521818 14.680893776766577  6.212671201471564 14.680893776766577  C 6.750980952740572 14.680893776766577  7.255593615311169 14.574718594097057  7.726608444231071 14.362368228757976  C 8.197623273150974 14.150017863418896  8.608787308300204 13.85122398652587  8.96015017720263 13.465934397890738  C 9.31151304610505 13.080592609067487  9.584414799790702 12.6206045512091  9.778805810735728 12.085865823939294  C 9.973196821680757 11.55112709666953  10.070367513391345 10.953539342883436  10 10.292945962016699  L 10 0.1015900310089028  L 13 0.1015900310089028  L 13 16.61532834872712  L 10.09279915417438 16.61532834872712  L 10.09279915417438 15.081895622030801  C 9.569476915109965 15.663771119187802  8.952656421100329 16.1120141347155  8.242436927193186 16.42662466861386  C 7.532167805762188 16.741130802135977  6.765918837421311 16.898409968991096  5.943541139598987 16.898409968991096  C 5.106175929572071 16.898409968991096  4.324939449026597 16.745045816246222  3.5997324429148607 16.43836971094459  C 2.874575064326979 16.131693605642916  2.246538749925826 15.695300032822228  1.7157723822829734 15.129084592106159  C 1.1850060146401207 14.562869151390089  0.7662985958647307 13.882752900160295  0.4597990085283799 13.088474837476094  C 0.15324979366817543 12.294248974980013  0 11.409612386631624  0 10.434460672054604  L 0 0.1015900310089028  L 2.3549748895517904 0.1015900310089028  L 2.3549748895517904 4.3243764504951  Z M 15 0.1015900310089028  L 16.48467534429095 0.1015900310089028  L 16.48467534429095 6.117296312417696  C 17.007997583355362 5.566845328518839  17.61360225697348 5.13045175569815  18.301390110097582 4.808011193579306  C 18.98917796322169 4.485570631460462  19.736816610116463 4.3243764504951  20.544206795734187 4.3243764504951  C 21.38157200576111 4.3243764504951  22.166480923071944 4.489485645570664  22.89918168528598 4.819756235909994  C 23.631832819976154 5.1500268262493245  24.267263635431892 5.5982698417769825  24.805573386700907 6.164485282493052  C 25.343883137969904 6.730700723209122  25.77003468532373 7.399071932108227  26.084028028762376 8.169703309566609  C 26.398021372201033 8.940386887213153  26.554993230158424 9.758207234746891  26.554993230158424 10.623216552355986  C 26.554993230158424 11.48817366977696  26.398021372201033 12.302079003200458  26.084028028762376 13.064828152250275  C 25.77003468532373 13.827629501488213  25.343883137969904 14.492137896465197  24.8055733867009 15.058248936804983  C 24.267263635431892 15.624464377521052  23.631832819976154 16.072707393048752  22.89918168528597 16.40297798338804  C 22.166480923071944 16.733248573727373  21.38152237823725 16.898357768802978  20.544206795734187 16.898357768802978  C 19.736766982592602 16.898357768802978  18.985455898932457 16.737163587837614  18.29017428970606 16.41472302571877  C 17.59489268047966 16.092334663788048  16.985565942572315 15.655888890779197  16.46224370350791 15.105437906880338  L 16.46224370350791 16.615276148539003  L 15 16.615276148539003  L 15 0.1015900310089028  Z M 16.439861690248733 10.623216552355986  C 16.43981206272488 11.205144249701148  16.540754446248542 11.7477130051914  16.742589585772006 12.2509750190149  C 16.944424725295477 12.75428923302652  17.224820235083424 13.194650020145614  17.583676860088143 13.5721095805603  C 17.942533485092863 13.949569140974944  18.361191276344396 14.248415218056131  18.839650233842733 14.468595611615658  C 19.318158818864934 14.688776005175185  19.833987301827047 14.79886620195499  20.387234937776796 14.79886620195499  C 20.925544689045804 14.79886620195499  21.433879415905626 14.688776005175185  21.91233837340396 14.468595611615658  C 22.390797330902306 14.248415218056131  22.805683430340757 13.949621341163066  23.157145554290892 13.5721095805603  C 23.508508423193316 13.194702220333774  23.78885430545742 12.75428923302652  23.99818320108318 12.2509750190149  C 24.20751209670894 11.7477130051914  24.312176544521826 11.205144249701148  24.312176544521826 10.623216552355986  C 24.312176544521826 10.041288855010867  24.20751209670894 9.494752885222255  23.99818320108318 8.983608642990147  C 23.78885430545742 8.47246440075804  23.508508423193316 8.028188599528702  23.157145554290892 7.650729039114058  C 22.80573305786461 7.273321678887533  22.39084695842616 6.978390615916589  21.91233837340397 6.766092450765627  C 21.43382978838177 6.553794285614708  20.925495061521946 6.447566902757027  20.3872349377768 6.447566902757027  C 19.848974814031646 6.447566902757027  19.340590459647974 6.5537420854265465  18.86213150214963 6.766092450765627  C 18.38367254465129 6.9784428161047085  17.965014753399764 7.273321678887533  17.606108500871187 7.650729039114058  C 17.247301503390318 8.028188599528702  16.963183929313146 8.47246440075804  16.753855033687387 8.983608642990147  C 16.544526138061617 9.494752885222255  16.439861690248733 10.041288855010867  16.439861690248733 10.623216552355986  Z M 27.384715801511483 10.59962206731833  C 27.38461654646378 9.750377206526448  27.534193903366578 8.948269115621759  27.833199734600637 8.193349994792428  C 28.13220556583469 7.438430873963097  28.543468856031637 6.773974679174233  29.066741467572186 6.199929210237721  C 29.59001407911275 5.625883741301164  30.210606264935464 5.173725711663264  30.928319514944896 4.843455121323933  C 31.646032764954334 4.513184530984644  32.42354718121059 4.348075335909038  33.260862763713654 4.348075335909038  C 34.08324046153597 4.348075335909038  34.845816993111484 4.505354502764157  35.54859235844018 4.8198606362862755  C 36.251318096245036 5.1344189699965135  36.85687314233928 5.570864743005364  37.36525749672296 6.129197955312827  C 37.87364185110663 6.687478967432128  38.26991762909899 7.34807234829891  38.55393594812845 8.110821497348685  C 38.83805352220562 8.873622846586624  38.98008749548228 9.703240436639213  38.98008749548228 10.59972646769461  L 38.98008749548228 11.378240073561601  L 29.67234614119031 11.378240073561601  C 29.7471348196417 11.86578983075605  29.89666254902066 12.317947860393952  30.12092932932717 12.734661962287225  C 30.34524573715753 13.151428264368661  30.62554199189777 13.513175568154214  30.96196697611944 13.819851673455888  C 31.29839196034113 14.12657997894564  31.679680226128895 14.366439843432623  32.10583177348272 14.539379066728673  C 32.53198332083654 14.712370490212884  32.984238945738774 14.798918402143109  33.46274753076097 14.798918402143109  C 34.823434979852294 14.798918402143109  35.9224364956495 14.209108476389384  36.75975207815256 13.029540825070008  L 38.39701371769491 14.303434216351933  C 37.82882819706442 15.105542307256622  37.12610245925958 15.734658974677098  36.288786876756525 16.19073201842524  C 35.4514216667296 16.646805062173428  34.50944163641366 16.87486768414156  33.46279715828484 16.87486768414156  C 32.61049406357717 16.87486768414156  31.81431969835097 16.71753631709828  31.07417480755849 16.403030183576202  C 30.334029916766013 16.088524050054083  29.691105345207976 15.648111062746871  29.14535146536053 15.081895622030801  C 28.599597585513088 14.515680181314734  28.169723973870035 13.85122398652587  27.85573063043139 13.088474837476094  C 27.54173728699274 12.325725688426274  27.384715801511483 11.496055898185569  27.384715801511483 10.59962206731833  Z M 33.21604910967143 6.424024617907489  C 32.36374601496378 6.424024617907489  31.619879059882084 6.703191224061221  30.984398616902496 7.261472236180522  C 30.348918173922897 7.819805448487984  29.92653831838214 8.562927326798508  29.71720942275637 9.49083787111201  L 36.692457155803446 9.49083787111201  C 36.49806614485843 8.562927326798508  36.08313041789613 7.819805448487984  35.44764997491652 7.261472236180522  C 34.81216953193694 6.703191224061221  34.06830257685524 6.424024617907489  33.21604910967143 6.424024617907489  Z M 45.05801996968406 6.707054037983301  C 44.31043095031315 6.7071062381714635  43.69738214811658 6.98230563002679  43.21892319061825 7.532756613925647  C 42.7404642331199 8.083207597824504  42.5012099406088 8.83024449024523  42.5012099406088 9.773919491375985  L 42.5012099406088 16.615380548915283  L 40 16.615380548915283  L 40 4.583915785909495  L 42.47872867230191 4.583915785909495  L 42.47872867230191 6.070159542530502  C 42.762846246379084 5.582609785336052  43.132918691775316 5.1972679965128  43.58894600849063 4.914186376248825  C 44.04497332520593 4.631052555796731  44.587005140764155 4.489485645570664  45.21504145516531 4.489485645570664  L 46 4.489485645570664  L 46 6.707054037983301  L 45.05801996968406 6.707054037983301  Z " fill-rule="evenodd" />
    </mask>
  </defs>
  <g transform="matrix(1 0 0 1 -24 -221 )">
    <path d="M 2.3549748895517904 4.3243764504951  C 2.3549748895517904 4.9849698313618385  2.452145581262373 11.555042110779773  2.6465365922074024 12.097663066458143  C 2.8409276031524264 12.640284022136512  3.110057665025004 13.104239294293308  3.453976405348982 13.489528882928438  C 3.7978951456729653 13.874870671751689  4.205337116532979 14.169749534534514  4.676302317929023 14.374217671464947  C 5.147317146848921 14.57868580839542  5.659423565521818 14.680893776766577  6.212671201471564 14.680893776766577  C 6.750980952740572 14.680893776766577  7.255593615311169 14.574718594097057  7.726608444231071 14.362368228757976  C 8.197623273150974 14.150017863418896  8.608787308300204 13.85122398652587  8.96015017720263 13.465934397890738  C 9.31151304610505 13.080592609067487  9.584414799790702 12.6206045512091  9.778805810735728 12.085865823939294  C 9.973196821680757 11.55112709666953  10.070367513391345 10.953539342883436  10 10.292945962016699  L 10 0.1015900310089028  L 13 0.1015900310089028  L 13 16.61532834872712  L 10.09279915417438 16.61532834872712  L 10.09279915417438 15.081895622030801  C 9.569476915109965 15.663771119187802  8.952656421100329 16.1120141347155  8.242436927193186 16.42662466861386  C 7.532167805762188 16.741130802135977  6.765918837421311 16.898409968991096  5.943541139598987 16.898409968991096  C 5.106175929572071 16.898409968991096  4.324939449026597 16.745045816246222  3.5997324429148607 16.43836971094459  C 2.874575064326979 16.131693605642916  2.246538749925826 15.695300032822228  1.7157723822829734 15.129084592106159  C 1.1850060146401207 14.562869151390089  0.7662985958647307 13.882752900160295  0.4597990085283799 13.088474837476094  C 0.15324979366817543 12.294248974980013  0 11.409612386631624  0 10.434460672054604  L 0 0.1015900310089028  L 2.3549748895517904 0.1015900310089028  L 2.3549748895517904 4.3243764504951  Z M 15 0.1015900310089028  L 16.48467534429095 0.1015900310089028  L 16.48467534429095 6.117296312417696  C 17.007997583355362 5.566845328518839  17.61360225697348 5.13045175569815  18.301390110097582 4.808011193579306  C 18.98917796322169 4.485570631460462  19.736816610116463 4.3243764504951  20.544206795734187 4.3243764504951  C 21.38157200576111 4.3243764504951  22.166480923071944 4.489485645570664  22.89918168528598 4.819756235909994  C 23.631832819976154 5.1500268262493245  24.267263635431892 5.5982698417769825  24.805573386700907 6.164485282493052  C 25.343883137969904 6.730700723209122  25.77003468532373 7.399071932108227  26.084028028762376 8.169703309566609  C 26.398021372201033 8.940386887213153  26.554993230158424 9.758207234746891  26.554993230158424 10.623216552355986  C 26.554993230158424 11.48817366977696  26.398021372201033 12.302079003200458  26.084028028762376 13.064828152250275  C 25.77003468532373 13.827629501488213  25.343883137969904 14.492137896465197  24.8055733867009 15.058248936804983  C 24.267263635431892 15.624464377521052  23.631832819976154 16.072707393048752  22.89918168528597 16.40297798338804  C 22.166480923071944 16.733248573727373  21.38152237823725 16.898357768802978  20.544206795734187 16.898357768802978  C 19.736766982592602 16.898357768802978  18.985455898932457 16.737163587837614  18.29017428970606 16.41472302571877  C 17.59489268047966 16.092334663788048  16.985565942572315 15.655888890779197  16.46224370350791 15.105437906880338  L 16.46224370350791 16.615276148539003  L 15 16.615276148539003  L 15 0.1015900310089028  Z M 16.439861690248733 10.623216552355986  C 16.43981206272488 11.205144249701148  16.540754446248542 11.7477130051914  16.742589585772006 12.2509750190149  C 16.944424725295477 12.75428923302652  17.224820235083424 13.194650020145614  17.583676860088143 13.5721095805603  C 17.942533485092863 13.949569140974944  18.361191276344396 14.248415218056131  18.839650233842733 14.468595611615658  C 19.318158818864934 14.688776005175185  19.833987301827047 14.79886620195499  20.387234937776796 14.79886620195499  C 20.925544689045804 14.79886620195499  21.433879415905626 14.688776005175185  21.91233837340396 14.468595611615658  C 22.390797330902306 14.248415218056131  22.805683430340757 13.949621341163066  23.157145554290892 13.5721095805603  C 23.508508423193316 13.194702220333774  23.78885430545742 12.75428923302652  23.99818320108318 12.2509750190149  C 24.20751209670894 11.7477130051914  24.312176544521826 11.205144249701148  24.312176544521826 10.623216552355986  C 24.312176544521826 10.041288855010867  24.20751209670894 9.494752885222255  23.99818320108318 8.983608642990147  C 23.78885430545742 8.47246440075804  23.508508423193316 8.028188599528702  23.157145554290892 7.650729039114058  C 22.80573305786461 7.273321678887533  22.39084695842616 6.978390615916589  21.91233837340397 6.766092450765627  C 21.43382978838177 6.553794285614708  20.925495061521946 6.447566902757027  20.3872349377768 6.447566902757027  C 19.848974814031646 6.447566902757027  19.340590459647974 6.5537420854265465  18.86213150214963 6.766092450765627  C 18.38367254465129 6.9784428161047085  17.965014753399764 7.273321678887533  17.606108500871187 7.650729039114058  C 17.247301503390318 8.028188599528702  16.963183929313146 8.47246440075804  16.753855033687387 8.983608642990147  C 16.544526138061617 9.494752885222255  16.439861690248733 10.041288855010867  16.439861690248733 10.623216552355986  Z M 27.384715801511483 10.59962206731833  C 27.38461654646378 9.750377206526448  27.534193903366578 8.948269115621759  27.833199734600637 8.193349994792428  C 28.13220556583469 7.438430873963097  28.543468856031637 6.773974679174233  29.066741467572186 6.199929210237721  C 29.59001407911275 5.625883741301164  30.210606264935464 5.173725711663264  30.928319514944896 4.843455121323933  C 31.646032764954334 4.513184530984644  32.42354718121059 4.348075335909038  33.260862763713654 4.348075335909038  C 34.08324046153597 4.348075335909038  34.845816993111484 4.505354502764157  35.54859235844018 4.8198606362862755  C 36.251318096245036 5.1344189699965135  36.85687314233928 5.570864743005364  37.36525749672296 6.129197955312827  C 37.87364185110663 6.687478967432128  38.26991762909899 7.34807234829891  38.55393594812845 8.110821497348685  C 38.83805352220562 8.873622846586624  38.98008749548228 9.703240436639213  38.98008749548228 10.59972646769461  L 38.98008749548228 11.378240073561601  L 29.67234614119031 11.378240073561601  C 29.7471348196417 11.86578983075605  29.89666254902066 12.317947860393952  30.12092932932717 12.734661962287225  C 30.34524573715753 13.151428264368661  30.62554199189777 13.513175568154214  30.96196697611944 13.819851673455888  C 31.29839196034113 14.12657997894564  31.679680226128895 14.366439843432623  32.10583177348272 14.539379066728673  C 32.53198332083654 14.712370490212884  32.984238945738774 14.798918402143109  33.46274753076097 14.798918402143109  C 34.823434979852294 14.798918402143109  35.9224364956495 14.209108476389384  36.75975207815256 13.029540825070008  L 38.39701371769491 14.303434216351933  C 37.82882819706442 15.105542307256622  37.12610245925958 15.734658974677098  36.288786876756525 16.19073201842524  C 35.4514216667296 16.646805062173428  34.50944163641366 16.87486768414156  33.46279715828484 16.87486768414156  C 32.61049406357717 16.87486768414156  31.81431969835097 16.71753631709828  31.07417480755849 16.403030183576202  C 30.334029916766013 16.088524050054083  29.691105345207976 15.648111062746871  29.14535146536053 15.081895622030801  C 28.599597585513088 14.515680181314734  28.169723973870035 13.85122398652587  27.85573063043139 13.088474837476094  C 27.54173728699274 12.325725688426274  27.384715801511483 11.496055898185569  27.384715801511483 10.59962206731833  Z M 33.21604910967143 6.424024617907489  C 32.36374601496378 6.424024617907489  31.619879059882084 6.703191224061221  30.984398616902496 7.261472236180522  C 30.348918173922897 7.819805448487984  29.92653831838214 8.562927326798508  29.71720942275637 9.49083787111201  L 36.692457155803446 9.49083787111201  C 36.49806614485843 8.562927326798508  36.08313041789613 7.819805448487984  35.44764997491652 7.261472236180522  C 34.81216953193694 6.703191224061221  34.06830257685524 6.424024617907489  33.21604910967143 6.424024617907489  Z M 45.05801996968406 6.707054037983301  C 44.31043095031315 6.7071062381714635  43.69738214811658 6.98230563002679  43.21892319061825 7.532756613925647  C 42.7404642331199 8.083207597824504  42.5012099406088 8.83024449024523  42.5012099406088 9.773919491375985  L 42.5012099406088 16.615380548915283  L 40 16.615380548915283  L 40 4.583915785909495  L 42.47872867230191 4.583915785909495  L 42.47872867230191 6.070159542530502  C 42.762846246379084 5.582609785336052  43.132918691775316 5.1972679965128  43.58894600849063 4.914186376248825  C 44.04497332520593 4.631052555796731  44.587005140764155 4.489485645570664  45.21504145516531 4.489485645570664  L 46 4.489485645570664  L 46 6.707054037983301  L 45.05801996968406 6.707054037983301  Z " fill-rule="nonzero" fill="rgba(51, 51, 51, 1)" stroke="none" transform="matrix(1 0 0 1 24 221 )" class="fill" />
    <path d="M 2.3549748895517904 4.3243764504951  C 2.3549748895517904 4.9849698313618385  2.452145581262373 11.555042110779773  2.6465365922074024 12.097663066458143  C 2.8409276031524264 12.640284022136512  3.110057665025004 13.104239294293308  3.453976405348982 13.489528882928438  C 3.7978951456729653 13.874870671751689  4.205337116532979 14.169749534534514  4.676302317929023 14.374217671464947  C 5.147317146848921 14.57868580839542  5.659423565521818 14.680893776766577  6.212671201471564 14.680893776766577  C 6.750980952740572 14.680893776766577  7.255593615311169 14.574718594097057  7.726608444231071 14.362368228757976  C 8.197623273150974 14.150017863418896  8.608787308300204 13.85122398652587  8.96015017720263 13.465934397890738  C 9.31151304610505 13.080592609067487  9.584414799790702 12.6206045512091  9.778805810735728 12.085865823939294  C 9.973196821680757 11.55112709666953  10.070367513391345 10.953539342883436  10 10.292945962016699  L 10 0.1015900310089028  L 13 0.1015900310089028  L 13 16.61532834872712  L 10.09279915417438 16.61532834872712  L 10.09279915417438 15.081895622030801  C 9.569476915109965 15.663771119187802  8.952656421100329 16.1120141347155  8.242436927193186 16.42662466861386  C 7.532167805762188 16.741130802135977  6.765918837421311 16.898409968991096  5.943541139598987 16.898409968991096  C 5.106175929572071 16.898409968991096  4.324939449026597 16.745045816246222  3.5997324429148607 16.43836971094459  C 2.874575064326979 16.131693605642916  2.246538749925826 15.695300032822228  1.7157723822829734 15.129084592106159  C 1.1850060146401207 14.562869151390089  0.7662985958647307 13.882752900160295  0.4597990085283799 13.088474837476094  C 0.15324979366817543 12.294248974980013  0 11.409612386631624  0 10.434460672054604  L 0 0.1015900310089028  L 2.3549748895517904 0.1015900310089028  L 2.3549748895517904 4.3243764504951  Z " stroke-width="0" stroke-dasharray="0" stroke="rgba(255, 255, 255, 0)" fill="none" transform="matrix(1 0 0 1 24 221 )" class="stroke" mask="url(#Clip29)" />
    <path d="M 15 0.1015900310089028  L 16.48467534429095 0.1015900310089028  L 16.48467534429095 6.117296312417696  C 17.007997583355362 5.566845328518839  17.61360225697348 5.13045175569815  18.301390110097582 4.808011193579306  C 18.98917796322169 4.485570631460462  19.736816610116463 4.3243764504951  20.544206795734187 4.3243764504951  C 21.38157200576111 4.3243764504951  22.166480923071944 4.489485645570664  22.89918168528598 4.819756235909994  C 23.631832819976154 5.1500268262493245  24.267263635431892 5.5982698417769825  24.805573386700907 6.164485282493052  C 25.343883137969904 6.730700723209122  25.77003468532373 7.399071932108227  26.084028028762376 8.169703309566609  C 26.398021372201033 8.940386887213153  26.554993230158424 9.758207234746891  26.554993230158424 10.623216552355986  C 26.554993230158424 11.48817366977696  26.398021372201033 12.302079003200458  26.084028028762376 13.064828152250275  C 25.77003468532373 13.827629501488213  25.343883137969904 14.492137896465197  24.8055733867009 15.058248936804983  C 24.267263635431892 15.624464377521052  23.631832819976154 16.072707393048752  22.89918168528597 16.40297798338804  C 22.166480923071944 16.733248573727373  21.38152237823725 16.898357768802978  20.544206795734187 16.898357768802978  C 19.736766982592602 16.898357768802978  18.985455898932457 16.737163587837614  18.29017428970606 16.41472302571877  C 17.59489268047966 16.092334663788048  16.985565942572315 15.655888890779197  16.46224370350791 15.105437906880338  L 16.46224370350791 16.615276148539003  L 15 16.615276148539003  L 15 0.1015900310089028  Z " stroke-width="0" stroke-dasharray="0" stroke="rgba(255, 255, 255, 0)" fill="none" transform="matrix(1 0 0 1 24 221 )" class="stroke" mask="url(#Clip29)" />
    <path d="M 16.439861690248733 10.623216552355986  C 16.43981206272488 11.205144249701148  16.540754446248542 11.7477130051914  16.742589585772006 12.2509750190149  C 16.944424725295477 12.75428923302652  17.224820235083424 13.194650020145614  17.583676860088143 13.5721095805603  C 17.942533485092863 13.949569140974944  18.361191276344396 14.248415218056131  18.839650233842733 14.468595611615658  C 19.318158818864934 14.688776005175185  19.833987301827047 14.79886620195499  20.387234937776796 14.79886620195499  C 20.925544689045804 14.79886620195499  21.433879415905626 14.688776005175185  21.91233837340396 14.468595611615658  C 22.390797330902306 14.248415218056131  22.805683430340757 13.949621341163066  23.157145554290892 13.5721095805603  C 23.508508423193316 13.194702220333774  23.78885430545742 12.75428923302652  23.99818320108318 12.2509750190149  C 24.20751209670894 11.7477130051914  24.312176544521826 11.205144249701148  24.312176544521826 10.623216552355986  C 24.312176544521826 10.041288855010867  24.20751209670894 9.494752885222255  23.99818320108318 8.983608642990147  C 23.78885430545742 8.47246440075804  23.508508423193316 8.028188599528702  23.157145554290892 7.650729039114058  C 22.80573305786461 7.273321678887533  22.39084695842616 6.978390615916589  21.91233837340397 6.766092450765627  C 21.43382978838177 6.553794285614708  20.925495061521946 6.447566902757027  20.3872349377768 6.447566902757027  C 19.848974814031646 6.447566902757027  19.340590459647974 6.5537420854265465  18.86213150214963 6.766092450765627  C 18.38367254465129 6.9784428161047085  17.965014753399764 7.273321678887533  17.606108500871187 7.650729039114058  C 17.247301503390318 8.028188599528702  16.963183929313146 8.47246440075804  16.753855033687387 8.983608642990147  C 16.544526138061617 9.494752885222255  16.439861690248733 10.041288855010867  16.439861690248733 10.623216552355986  Z " stroke-width="0" stroke-dasharray="0" stroke="rgba(255, 255, 255, 0)" fill="none" transform="matrix(1 0 0 1 24 221 )" class="stroke" mask="url(#Clip29)" />
    <path d="M 27.384715801511483 10.59962206731833  C 27.38461654646378 9.750377206526448  27.534193903366578 8.948269115621759  27.833199734600637 8.193349994792428  C 28.13220556583469 7.438430873963097  28.543468856031637 6.773974679174233  29.066741467572186 6.199929210237721  C 29.59001407911275 5.625883741301164  30.210606264935464 5.173725711663264  30.928319514944896 4.843455121323933  C 31.646032764954334 4.513184530984644  32.42354718121059 4.348075335909038  33.260862763713654 4.348075335909038  C 34.08324046153597 4.348075335909038  34.845816993111484 4.505354502764157  35.54859235844018 4.8198606362862755  C 36.251318096245036 5.1344189699965135  36.85687314233928 5.570864743005364  37.36525749672296 6.129197955312827  C 37.87364185110663 6.687478967432128  38.26991762909899 7.34807234829891  38.55393594812845 8.110821497348685  C 38.83805352220562 8.873622846586624  38.98008749548228 9.703240436639213  38.98008749548228 10.59972646769461  L 38.98008749548228 11.378240073561601  L 29.67234614119031 11.378240073561601  C 29.7471348196417 11.86578983075605  29.89666254902066 12.317947860393952  30.12092932932717 12.734661962287225  C 30.34524573715753 13.151428264368661  30.62554199189777 13.513175568154214  30.96196697611944 13.819851673455888  C 31.29839196034113 14.12657997894564  31.679680226128895 14.366439843432623  32.10583177348272 14.539379066728673  C 32.53198332083654 14.712370490212884  32.984238945738774 14.798918402143109  33.46274753076097 14.798918402143109  C 34.823434979852294 14.798918402143109  35.9224364956495 14.209108476389384  36.75975207815256 13.029540825070008  L 38.39701371769491 14.303434216351933  C 37.82882819706442 15.105542307256622  37.12610245925958 15.734658974677098  36.288786876756525 16.19073201842524  C 35.4514216667296 16.646805062173428  34.50944163641366 16.87486768414156  33.46279715828484 16.87486768414156  C 32.61049406357717 16.87486768414156  31.81431969835097 16.71753631709828  31.07417480755849 16.403030183576202  C 30.334029916766013 16.088524050054083  29.691105345207976 15.648111062746871  29.14535146536053 15.081895622030801  C 28.599597585513088 14.515680181314734  28.169723973870035 13.85122398652587  27.85573063043139 13.088474837476094  C 27.54173728699274 12.325725688426274  27.384715801511483 11.496055898185569  27.384715801511483 10.59962206731833  Z " stroke-width="0" stroke-dasharray="0" stroke="rgba(255, 255, 255, 0)" fill="none" transform="matrix(1 0 0 1 24 221 )" class="stroke" mask="url(#Clip29)" />
    <path d="M 33.21604910967143 6.424024617907489  C 32.36374601496378 6.424024617907489  31.619879059882084 6.703191224061221  30.984398616902496 7.261472236180522  C 30.348918173922897 7.819805448487984  29.92653831838214 8.562927326798508  29.71720942275637 9.49083787111201  L 36.692457155803446 9.49083787111201  C 36.49806614485843 8.562927326798508  36.08313041789613 7.819805448487984  35.44764997491652 7.261472236180522  C 34.81216953193694 6.703191224061221  34.06830257685524 6.424024617907489  33.21604910967143 6.424024617907489  Z " stroke-width="0" stroke-dasharray="0" stroke="rgba(255, 255, 255, 0)" fill="none" transform="matrix(1 0 0 1 24 221 )" class="stroke" mask="url(#Clip29)" />
    <path d="M 45.05801996968406 6.707054037983301  C 44.31043095031315 6.7071062381714635  43.69738214811658 6.98230563002679  43.21892319061825 7.532756613925647  C 42.7404642331199 8.083207597824504  42.5012099406088 8.83024449024523  42.5012099406088 9.773919491375985  L 42.5012099406088 16.615380548915283  L 40 16.615380548915283  L 40 4.583915785909495  L 42.47872867230191 4.583915785909495  L 42.47872867230191 6.070159542530502  C 42.762846246379084 5.582609785336052  43.132918691775316 5.1972679965128  43.58894600849063 4.914186376248825  C 44.04497332520593 4.631052555796731  44.587005140764155 4.489485645570664  45.21504145516531 4.489485645570664  L 46 4.489485645570664  L 46 6.707054037983301  L 45.05801996968406 6.707054037983301  Z " stroke-width="0" stroke-dasharray="0" stroke="rgba(255, 255, 255, 0)" fill="none" transform="matrix(1 0 0 1 24 221 )" class="stroke" mask="url(#Clip29)" />
  </g>
</svg>