<?xml version="1.0" encoding="utf-8"?>
<svg version="1.1" xmlns:xlink="http://www.w3.org/1999/xlink" width="13px" height="15px" xmlns="http://www.w3.org/2000/svg">
  <defs>
    <pattern id="BGPattern" patternUnits="userSpaceOnUse" alignment="0 0" imageRepeat="None" />
    <mask fill="white" id="Clip31">
      <path d="M 2.9326171875 10.936104910714285  C 3.1442057291666665 10.726841517857142  3.25 10.474330357142858  3.25 10.178571428571429  C 3.25 9.882812499999998  3.1442057291666665 9.630301339285715  2.9326171875 9.421037946428571  C 2.7210286458333335 9.211774553571429  2.465711805555556 9.107142857142858  2.1666666666666665 9.107142857142858  C 1.867621527777778 9.107142857142858  1.6123046875 9.211774553571429  1.4007161458333333 9.421037946428571  C 1.1891276041666667 9.630301339285715  1.0833333333333333 9.882812499999998  1.0833333333333333 10.178571428571429  C 1.0833333333333333 10.474330357142858  1.1891276041666667 10.726841517857142  1.4007161458333333 10.936104910714285  C 1.6123046875 11.145368303571429  1.867621527777778 11.25  2.1666666666666665 11.25  C 2.465711805555556 11.25  2.7210286458333335 11.145368303571429  2.9326171875 10.936104910714285  Z M 11.599283854166666 10.936104910714285  C 11.810872395833334 10.726841517857142  11.916666666666666 10.474330357142858  11.916666666666666 10.178571428571429  C 11.916666666666666 9.882812499999998  11.810872395833334 9.630301339285715  11.599283854166666 9.421037946428571  C 11.3876953125 9.211774553571429  11.132378472222223 9.107142857142858  10.833333333333334 9.107142857142858  C 10.534288194444445 9.107142857142858  10.278971354166666 9.211774553571429  10.0673828125 9.421037946428571  C 9.855794270833334 9.630301339285715  9.75 9.882812499999998  9.75 10.178571428571429  C 9.75 10.474330357142858  9.855794270833334 10.726841517857142  10.0673828125 10.936104910714285  C 10.278971354166666 11.145368303571429  10.534288194444445 11.25  10.833333333333334 11.25  C 11.132378472222223 11.25  11.3876953125 11.145368303571429  11.599283854166666 10.936104910714285  Z M 11.408854166666666 7.307477678571429  C 11.516059027777779 7.1791294642857135  11.555555555555557 7.03125  11.52734375 6.863839285714286  L 10.91796875 3.649553571428571  C 10.889756944444445 3.521205357142856  10.826280381944445 3.4165736607142847  10.7275390625 3.3356584821428563  C 10.628797743055557 3.254743303571428  10.514539930555557 3.2142857142857144  10.384765625 3.2142857142857144  L 2.615234375 3.2142857142857144  C 2.4854600694444446 3.2142857142857144  2.3712022569444446 3.254743303571428  2.2724609375 3.3356584821428563  C 2.173719618055556 3.4165736607142847  2.110243055555556 3.521205357142856  2.08203125 3.649553571428571  L 1.47265625 6.863839285714286  C 1.4444444444444446 7.03125  1.4839409722222223 7.1791294642857135  1.5911458333333333 7.307477678571429  C 1.6983506944444446 7.435825892857142  1.836588541666667 7.5  2.005859375 7.5  L 10.994140625 7.5  C 11.163411458333334 7.5  11.301649305555557 7.435825892857142  11.408854166666666 7.307477678571429  Z M 9.49609375 2.0256696428571437  C 9.575086805555557 1.9475446428571415  9.614583333333334 1.8526785714285716  9.614583333333334 1.741071428571429  C 9.614583333333334 1.629464285714285  9.575086805555557 1.5345982142857135  9.49609375 1.4564732142857144  C 9.417100694444445 1.3783482142857122  9.321180555555557 1.3392857142857144  9.208333333333334 1.3392857142857144  L 3.791666666666667 1.3392857142857144  C 3.678819444444444 1.3392857142857144  3.582899305555556 1.3783482142857122  3.50390625 1.4564732142857144  C 3.424913194444444 1.5345982142857135  3.385416666666667 1.629464285714285  3.385416666666667 1.741071428571429  C 3.385416666666667 1.8526785714285716  3.424913194444444 1.9475446428571415  3.50390625 2.0256696428571437  C 3.582899305555556 2.1037946428571423  3.678819444444444 2.1428571428571437  3.791666666666667 2.1428571428571437  L 9.208333333333334 2.1428571428571437  C 9.321180555555557 2.1428571428571437  9.417100694444445 2.1037946428571423  9.49609375 2.0256696428571437  Z M 12.805338541666666 5.943080357142857  C 12.935112847222221 6.512276785714286  13 7.134486607142857  13 7.809709821428571  L 13 12.857142857142858  L 11.916666666666666 12.857142857142858  L 11.916666666666666 13.928571428571429  C 11.916666666666666 14.224330357142858  11.810872395833334 14.476841517857144  11.599283854166666 14.686104910714285  C 11.3876953125 14.895368303571429  11.132378472222223 15  10.833333333333334 15  C 10.534288194444445 15  10.278971354166666 14.895368303571429  10.0673828125 14.686104910714285  C 9.855794270833334 14.476841517857144  9.75 14.224330357142858  9.75 13.928571428571429  L 9.75 12.857142857142858  L 3.25 12.857142857142858  L 3.25 13.928571428571429  C 3.25 14.224330357142858  3.1442057291666665 14.476841517857144  2.9326171875 14.686104910714285  C 2.7210286458333335 14.895368303571429  2.465711805555556 15  2.1666666666666665 15  C 1.867621527777778 15  1.6123046875 14.895368303571429  1.4007161458333333 14.686104910714285  C 1.1891276041666667 14.476841517857144  1.0833333333333333 14.224330357142858  1.0833333333333333 13.928571428571429  L 1.0833333333333333 12.857142857142858  L 0 12.857142857142858  L 0 7.809709821428571  C 0 7.184709821428571  0.07052951388888888 6.5625  0.21158854166666669 5.943080357142857  L 1.0833333333333333 2.1428571428571437  C 1.1341145833333333 1.7075892857142856  1.4091796875 1.3253348214285716  1.9085286458333335 0.99609375  C 2.4078776041666665 0.6668526785714268  3.056749131944444 0.4185267857142855  3.855143229166667 0.25111607142857095  C 4.653537326388889 0.08370535714285643  5.53515625 0  6.5 0  C 7.464843750000002 0  8.34646267361111 0.08370535714285643  9.144856770833334 0.25111607142857095  C 9.943250868055557 0.4185267857142855  10.592122395833334 0.6668526785714268  11.091471354166666 0.99609375  C 11.5908203125 1.3253348214285716  11.865885416666666 1.7075892857142856  11.916666666666666 2.1428571428571437  L 12.805338541666666 5.943080357142857  Z " fill-rule="evenodd" />
    </mask>
  </defs>
  <g transform="matrix(1 0 0 1 -23 -186 )">
    <path d="M 2.9326171875 10.936104910714285  C 3.1442057291666665 10.726841517857142  3.25 10.474330357142858  3.25 10.178571428571429  C 3.25 9.882812499999998  3.1442057291666665 9.630301339285715  2.9326171875 9.421037946428571  C 2.7210286458333335 9.211774553571429  2.465711805555556 9.107142857142858  2.1666666666666665 9.107142857142858  C 1.867621527777778 9.107142857142858  1.6123046875 9.211774553571429  1.4007161458333333 9.421037946428571  C 1.1891276041666667 9.630301339285715  1.0833333333333333 9.882812499999998  1.0833333333333333 10.178571428571429  C 1.0833333333333333 10.474330357142858  1.1891276041666667 10.726841517857142  1.4007161458333333 10.936104910714285  C 1.6123046875 11.145368303571429  1.867621527777778 11.25  2.1666666666666665 11.25  C 2.465711805555556 11.25  2.7210286458333335 11.145368303571429  2.9326171875 10.936104910714285  Z M 11.599283854166666 10.936104910714285  C 11.810872395833334 10.726841517857142  11.916666666666666 10.474330357142858  11.916666666666666 10.178571428571429  C 11.916666666666666 9.882812499999998  11.810872395833334 9.630301339285715  11.599283854166666 9.421037946428571  C 11.3876953125 9.211774553571429  11.132378472222223 9.107142857142858  10.833333333333334 9.107142857142858  C 10.534288194444445 9.107142857142858  10.278971354166666 9.211774553571429  10.0673828125 9.421037946428571  C 9.855794270833334 9.630301339285715  9.75 9.882812499999998  9.75 10.178571428571429  C 9.75 10.474330357142858  9.855794270833334 10.726841517857142  10.0673828125 10.936104910714285  C 10.278971354166666 11.145368303571429  10.534288194444445 11.25  10.833333333333334 11.25  C 11.132378472222223 11.25  11.3876953125 11.145368303571429  11.599283854166666 10.936104910714285  Z M 11.408854166666666 7.307477678571429  C 11.516059027777779 7.1791294642857135  11.555555555555557 7.03125  11.52734375 6.863839285714286  L 10.91796875 3.649553571428571  C 10.889756944444445 3.521205357142856  10.826280381944445 3.4165736607142847  10.7275390625 3.3356584821428563  C 10.628797743055557 3.254743303571428  10.514539930555557 3.2142857142857144  10.384765625 3.2142857142857144  L 2.615234375 3.2142857142857144  C 2.4854600694444446 3.2142857142857144  2.3712022569444446 3.254743303571428  2.2724609375 3.3356584821428563  C 2.173719618055556 3.4165736607142847  2.110243055555556 3.521205357142856  2.08203125 3.649553571428571  L 1.47265625 6.863839285714286  C 1.4444444444444446 7.03125  1.4839409722222223 7.1791294642857135  1.5911458333333333 7.307477678571429  C 1.6983506944444446 7.435825892857142  1.836588541666667 7.5  2.005859375 7.5  L 10.994140625 7.5  C 11.163411458333334 7.5  11.301649305555557 7.435825892857142  11.408854166666666 7.307477678571429  Z M 9.49609375 2.0256696428571437  C 9.575086805555557 1.9475446428571415  9.614583333333334 1.8526785714285716  9.614583333333334 1.741071428571429  C 9.614583333333334 1.629464285714285  9.575086805555557 1.5345982142857135  9.49609375 1.4564732142857144  C 9.417100694444445 1.3783482142857122  9.321180555555557 1.3392857142857144  9.208333333333334 1.3392857142857144  L 3.791666666666667 1.3392857142857144  C 3.678819444444444 1.3392857142857144  3.582899305555556 1.3783482142857122  3.50390625 1.4564732142857144  C 3.424913194444444 1.5345982142857135  3.385416666666667 1.629464285714285  3.385416666666667 1.741071428571429  C 3.385416666666667 1.8526785714285716  3.424913194444444 1.9475446428571415  3.50390625 2.0256696428571437  C 3.582899305555556 2.1037946428571423  3.678819444444444 2.1428571428571437  3.791666666666667 2.1428571428571437  L 9.208333333333334 2.1428571428571437  C 9.321180555555557 2.1428571428571437  9.417100694444445 2.1037946428571423  9.49609375 2.0256696428571437  Z M 12.805338541666666 5.943080357142857  C 12.935112847222221 6.512276785714286  13 7.134486607142857  13 7.809709821428571  L 13 12.857142857142858  L 11.916666666666666 12.857142857142858  L 11.916666666666666 13.928571428571429  C 11.916666666666666 14.224330357142858  11.810872395833334 14.476841517857144  11.599283854166666 14.686104910714285  C 11.3876953125 14.895368303571429  11.132378472222223 15  10.833333333333334 15  C 10.534288194444445 15  10.278971354166666 14.895368303571429  10.0673828125 14.686104910714285  C 9.855794270833334 14.476841517857144  9.75 14.224330357142858  9.75 13.928571428571429  L 9.75 12.857142857142858  L 3.25 12.857142857142858  L 3.25 13.928571428571429  C 3.25 14.224330357142858  3.1442057291666665 14.476841517857144  2.9326171875 14.686104910714285  C 2.7210286458333335 14.895368303571429  2.465711805555556 15  2.1666666666666665 15  C 1.867621527777778 15  1.6123046875 14.895368303571429  1.4007161458333333 14.686104910714285  C 1.1891276041666667 14.476841517857144  1.0833333333333333 14.224330357142858  1.0833333333333333 13.928571428571429  L 1.0833333333333333 12.857142857142858  L 0 12.857142857142858  L 0 7.809709821428571  C 0 7.184709821428571  0.07052951388888888 6.5625  0.21158854166666669 5.943080357142857  L 1.0833333333333333 2.1428571428571437  C 1.1341145833333333 1.7075892857142856  1.4091796875 1.3253348214285716  1.9085286458333335 0.99609375  C 2.4078776041666665 0.6668526785714268  3.056749131944444 0.4185267857142855  3.855143229166667 0.25111607142857095  C 4.653537326388889 0.08370535714285643  5.53515625 0  6.5 0  C 7.464843750000002 0  8.34646267361111 0.08370535714285643  9.144856770833334 0.25111607142857095  C 9.943250868055557 0.4185267857142855  10.592122395833334 0.6668526785714268  11.091471354166666 0.99609375  C 11.5908203125 1.3253348214285716  11.865885416666666 1.7075892857142856  11.916666666666666 2.1428571428571437  L 12.805338541666666 5.943080357142857  Z " fill-rule="nonzero" fill="rgba(249, 252, 255, 1)" stroke="none" transform="matrix(1 0 0 1 23 186 )" class="fill" />
    <path d="M 2.9326171875 10.936104910714285  C 3.1442057291666665 10.726841517857142  3.25 10.474330357142858  3.25 10.178571428571429  C 3.25 9.882812499999998  3.1442057291666665 9.630301339285715  2.9326171875 9.421037946428571  C 2.7210286458333335 9.211774553571429  2.465711805555556 9.107142857142858  2.1666666666666665 9.107142857142858  C 1.867621527777778 9.107142857142858  1.6123046875 9.211774553571429  1.4007161458333333 9.421037946428571  C 1.1891276041666667 9.630301339285715  1.0833333333333333 9.882812499999998  1.0833333333333333 10.178571428571429  C 1.0833333333333333 10.474330357142858  1.1891276041666667 10.726841517857142  1.4007161458333333 10.936104910714285  C 1.6123046875 11.145368303571429  1.867621527777778 11.25  2.1666666666666665 11.25  C 2.465711805555556 11.25  2.7210286458333335 11.145368303571429  2.9326171875 10.936104910714285  Z " stroke-width="0" stroke-dasharray="0" stroke="rgba(255, 255, 255, 0)" fill="none" transform="matrix(1 0 0 1 23 186 )" class="stroke" mask="url(#Clip31)" />
    <path d="M 11.599283854166666 10.936104910714285  C 11.810872395833334 10.726841517857142  11.916666666666666 10.474330357142858  11.916666666666666 10.178571428571429  C 11.916666666666666 9.882812499999998  11.810872395833334 9.630301339285715  11.599283854166666 9.421037946428571  C 11.3876953125 9.211774553571429  11.132378472222223 9.107142857142858  10.833333333333334 9.107142857142858  C 10.534288194444445 9.107142857142858  10.278971354166666 9.211774553571429  10.0673828125 9.421037946428571  C 9.855794270833334 9.630301339285715  9.75 9.882812499999998  9.75 10.178571428571429  C 9.75 10.474330357142858  9.855794270833334 10.726841517857142  10.0673828125 10.936104910714285  C 10.278971354166666 11.145368303571429  10.534288194444445 11.25  10.833333333333334 11.25  C 11.132378472222223 11.25  11.3876953125 11.145368303571429  11.599283854166666 10.936104910714285  Z " stroke-width="0" stroke-dasharray="0" stroke="rgba(255, 255, 255, 0)" fill="none" transform="matrix(1 0 0 1 23 186 )" class="stroke" mask="url(#Clip31)" />
    <path d="M 11.408854166666666 7.307477678571429  C 11.516059027777779 7.1791294642857135  11.555555555555557 7.03125  11.52734375 6.863839285714286  L 10.91796875 3.649553571428571  C 10.889756944444445 3.521205357142856  10.826280381944445 3.4165736607142847  10.7275390625 3.3356584821428563  C 10.628797743055557 3.254743303571428  10.514539930555557 3.2142857142857144  10.384765625 3.2142857142857144  L 2.615234375 3.2142857142857144  C 2.4854600694444446 3.2142857142857144  2.3712022569444446 3.254743303571428  2.2724609375 3.3356584821428563  C 2.173719618055556 3.4165736607142847  2.110243055555556 3.521205357142856  2.08203125 3.649553571428571  L 1.47265625 6.863839285714286  C 1.4444444444444446 7.03125  1.4839409722222223 7.1791294642857135  1.5911458333333333 7.307477678571429  C 1.6983506944444446 7.435825892857142  1.836588541666667 7.5  2.005859375 7.5  L 10.994140625 7.5  C 11.163411458333334 7.5  11.301649305555557 7.435825892857142  11.408854166666666 7.307477678571429  Z " stroke-width="0" stroke-dasharray="0" stroke="rgba(255, 255, 255, 0)" fill="none" transform="matrix(1 0 0 1 23 186 )" class="stroke" mask="url(#Clip31)" />
    <path d="M 9.49609375 2.0256696428571437  C 9.575086805555557 1.9475446428571415  9.614583333333334 1.8526785714285716  9.614583333333334 1.741071428571429  C 9.614583333333334 1.629464285714285  9.575086805555557 1.5345982142857135  9.49609375 1.4564732142857144  C 9.417100694444445 1.3783482142857122  9.321180555555557 1.3392857142857144  9.208333333333334 1.3392857142857144  L 3.791666666666667 1.3392857142857144  C 3.678819444444444 1.3392857142857144  3.582899305555556 1.3783482142857122  3.50390625 1.4564732142857144  C 3.424913194444444 1.5345982142857135  3.385416666666667 1.629464285714285  3.385416666666667 1.741071428571429  C 3.385416666666667 1.8526785714285716  3.424913194444444 1.9475446428571415  3.50390625 2.0256696428571437  C 3.582899305555556 2.1037946428571423  3.678819444444444 2.1428571428571437  3.791666666666667 2.1428571428571437  L 9.208333333333334 2.1428571428571437  C 9.321180555555557 2.1428571428571437  9.417100694444445 2.1037946428571423  9.49609375 2.0256696428571437  Z " stroke-width="0" stroke-dasharray="0" stroke="rgba(255, 255, 255, 0)" fill="none" transform="matrix(1 0 0 1 23 186 )" class="stroke" mask="url(#Clip31)" />
    <path d="M 12.805338541666666 5.943080357142857  C 12.935112847222221 6.512276785714286  13 7.134486607142857  13 7.809709821428571  L 13 12.857142857142858  L 11.916666666666666 12.857142857142858  L 11.916666666666666 13.928571428571429  C 11.916666666666666 14.224330357142858  11.810872395833334 14.476841517857144  11.599283854166666 14.686104910714285  C 11.3876953125 14.895368303571429  11.132378472222223 15  10.833333333333334 15  C 10.534288194444445 15  10.278971354166666 14.895368303571429  10.0673828125 14.686104910714285  C 9.855794270833334 14.476841517857144  9.75 14.224330357142858  9.75 13.928571428571429  L 9.75 12.857142857142858  L 3.25 12.857142857142858  L 3.25 13.928571428571429  C 3.25 14.224330357142858  3.1442057291666665 14.476841517857144  2.9326171875 14.686104910714285  C 2.7210286458333335 14.895368303571429  2.465711805555556 15  2.1666666666666665 15  C 1.867621527777778 15  1.6123046875 14.895368303571429  1.4007161458333333 14.686104910714285  C 1.1891276041666667 14.476841517857144  1.0833333333333333 14.224330357142858  1.0833333333333333 13.928571428571429  L 1.0833333333333333 12.857142857142858  L 0 12.857142857142858  L 0 7.809709821428571  C 0 7.184709821428571  0.07052951388888888 6.5625  0.21158854166666669 5.943080357142857  L 1.0833333333333333 2.1428571428571437  C 1.1341145833333333 1.7075892857142856  1.4091796875 1.3253348214285716  1.9085286458333335 0.99609375  C 2.4078776041666665 0.6668526785714268  3.056749131944444 0.4185267857142855  3.855143229166667 0.25111607142857095  C 4.653537326388889 0.08370535714285643  5.53515625 0  6.5 0  C 7.464843750000002 0  8.34646267361111 0.08370535714285643  9.144856770833334 0.25111607142857095  C 9.943250868055557 0.4185267857142855  10.592122395833334 0.6668526785714268  11.091471354166666 0.99609375  C 11.5908203125 1.3253348214285716  11.865885416666666 1.7075892857142856  11.916666666666666 2.1428571428571437  L 12.805338541666666 5.943080357142857  Z " stroke-width="0" stroke-dasharray="0" stroke="rgba(255, 255, 255, 0)" fill="none" transform="matrix(1 0 0 1 23 186 )" class="stroke" mask="url(#Clip31)" />
  </g>
</svg>