<?xml version="1.0" encoding="utf-8"?>
<svg version="1.1" xmlns:xlink="http://www.w3.org/1999/xlink" width="63px" height="64px" xmlns="http://www.w3.org/2000/svg">
  <defs>
    <pattern id="BGPattern" patternUnits="userSpaceOnUse" alignment="0 0" imageRepeat="None" />
    <mask fill="white" id="Clip85">
      <path d="M 16.071814903846153 48.27777777777778  C 17.01832932692308 49.2037037037037  17.49158653846154 50.32098765432098  17.49158653846154 51.62962962962963  C 17.49158653846154 52.938271604938265  17.01832932692308 54.05555555555556  16.071814903846153 54.98148148148148  C 15.12530048076923 55.907407407407405  13.983173076923078 56.37037037037037  12.645432692307693 56.37037037037037  C 11.332932692307693 56.37037037037037  10.197115384615387 55.901234567901234  9.23798076923077 54.96296296296296  C 8.278846153846153 54.0246913580247  7.799278846153847 52.91358024691358  7.799278846153847 51.62962962962963  C 7.799278846153847 50.32098765432098  8.272536057692307 49.2037037037037  9.21905048076923 48.27777777777778  C 10.165564903846153 47.35185185185185  11.307692307692308 46.888888888888886  12.645432692307693 46.888888888888886  C 13.983173076923078 46.888888888888886  15.12530048076923 47.35185185185185  16.071814903846153 48.27777777777778  Z M 34.92638221153847 55.907407407407405  C 35.87289663461539 56.833333333333336  36.34615384615384 57.95061728395062  36.34615384615384 59.25925925925926  C 36.34615384615384 60.5679012345679  35.87289663461539 61.68518518518518  34.92638221153847 62.611111111111114  C 33.97986778846153 63.53703703703704  32.83774038461539 64  31.5 64  C 30.162259615384617 64  29.020132211538463 63.53703703703704  28.07361778846154 62.611111111111114  C 27.127103365384613 61.68518518518518  26.653846153846153 60.5679012345679  26.653846153846153 59.25925925925926  C 26.653846153846153 57.95061728395062  27.127103365384613 56.833333333333336  28.07361778846154 55.907407407407405  C 29.020132211538463 54.98148148148148  30.162259615384617 54.51851851851852  31.5 54.51851851851852  C 32.83774038461539 54.51851851851852  33.97986778846153 54.98148148148148  34.92638221153847 55.907407407407405  Z M 8.272536057692307 29.833333333333336  C 9.21905048076923 30.75925925925926  9.692307692307693 31.876543209876544  9.692307692307693 33.18518518518519  C 9.692307692307693 34.49382716049382  9.21905048076923 35.611111111111114  8.272536057692307 36.53703703703704  C 7.326021634615385 37.46296296296296  6.183894230769232 37.925925925925924  4.846153846153847 37.925925925925924  C 3.508413461538462 37.925925925925924  2.3662860576923075 37.46296296296296  1.4197716346153846 36.53703703703704  C 0.47325721153846156 35.611111111111114  0 34.49382716049382  0 33.18518518518519  C 0 31.876543209876544  0.47325721153846156 30.75925925925926  1.4197716346153846 29.833333333333336  C 2.3662860576923075 28.907407407407405  3.508413461538462 28.444444444444443  4.846153846153847 28.444444444444443  C 6.183894230769232 28.444444444444443  7.326021634615385 28.907407407407405  8.272536057692307 29.833333333333336  Z M 53.780949519230774 48.27777777777778  C 54.72746394230769 49.2037037037037  55.20072115384616 50.32098765432098  55.20072115384616 51.62962962962963  C 55.20072115384616 52.91358024691358  54.721153846153854 54.0246913580247  53.762019230769226 54.96296296296296  C 52.80288461538461 55.901234567901234  51.66706730769231 56.37037037037037  50.35456730769231 56.37037037037037  C 49.01682692307693 56.37037037037037  47.874699519230774 55.907407407407405  46.92818509615384 54.98148148148148  C 45.98167067307692 54.05555555555556  45.50841346153847 52.938271604938265  45.50841346153847 51.62962962962963  C 45.50841346153847 50.32098765432098  45.98167067307692 49.2037037037037  46.92818509615384 48.27777777777778  C 47.874699519230774 47.35185185185185  49.01682692307693 46.888888888888886  50.35456730769231 46.888888888888886  C 51.6923076923077 46.888888888888886  52.83443509615384 47.35185185185185  53.780949519230774 48.27777777777778  Z M 16.923677884615387 10.555555555555557  C 18.109975961538463 11.716049382716044  18.703125 13.111111111111114  18.703125 14.74074074074074  C 18.703125 16.370370370370374  18.109975961538463 17.765432098765423  16.923677884615387 18.925925925925924  C 15.737379807692308 20.086419753086417  14.311298076923077 20.666666666666664  12.645432692307693 20.666666666666664  C 10.979567307692307 20.666666666666664  9.553485576923078 20.086419753086417  8.3671875 18.925925925925924  C 7.180889423076923 17.765432098765423  6.587740384615385 16.370370370370374  6.587740384615385 14.74074074074074  C 6.587740384615385 13.111111111111114  7.180889423076923 11.716049382716044  8.3671875 10.555555555555557  C 9.553485576923078 9.395061728395056  10.979567307692307 8.814814814814817  12.645432692307693 8.814814814814817  C 14.311298076923077 8.814814814814817  15.737379807692308 9.395061728395056  16.923677884615387 10.555555555555557  Z M 61.58022836538461 29.833333333333336  C 62.52674278846155 30.75925925925926  63.000000000000014 31.876543209876544  63 33.18518518518519  C 63.000000000000014 34.49382716049382  62.52674278846155 35.611111111111114  61.58022836538461 36.53703703703704  C 60.6337139423077 37.46296296296296  59.49158653846155 37.925925925925924  58.15384615384616 37.925925925925924  C 56.816105769230774 37.925925925925924  55.67397836538461 37.46296296296296  54.72746394230769 36.53703703703704  C 53.780949519230774 35.611111111111114  53.30769230769231 34.49382716049382  53.30769230769231 33.18518518518519  C 53.30769230769231 31.876543209876544  53.780949519230774 30.75925925925926  54.72746394230769 29.833333333333336  C 55.67397836538461 28.907407407407405  56.816105769230774 28.444444444444443  58.15384615384616 28.444444444444443  C 59.49158653846155 28.444444444444443  60.6337139423077 28.907407407407405  61.58022836538461 29.833333333333336  Z M 36.64903846153847 2.074074074074076  C 38.06250000000001 3.456790123456784  38.769230769230774 5.135802469135797  38.769230769230774 7.111111111111114  C 38.769230769230774 9.086419753086417  38.06250000000001 10.765432098765423  36.64903846153847 12.148148148148145  C 35.23557692307693 13.53086419753086  33.51923076923077 14.222222222222221  31.5 14.222222222222221  C 29.480769230769234 14.222222222222221  27.764423076923084 13.53086419753086  26.35096153846154 12.148148148148145  C 24.937500000000004 10.765432098765423  24.230769230769234 9.086419753086417  24.230769230769234 7.111111111111114  C 24.230769230769234 5.135802469135797  24.937500000000004 3.456790123456784  26.35096153846154 2.074074074074076  C 27.764423076923084 0.6913580246913611  29.480769230769234 0  31.5 0  C 33.51923076923077 0  35.23557692307693 0.6913580246913611  36.64903846153847 2.074074074074076  Z M 56.33653846153847 8.888888888888886  C 58.00240384615384 10.518518518518519  58.83533653846153 12.469135802469133  58.83533653846153 14.74074074074074  C 58.83533653846153 17.037037037037038  58.00240384615384 18.993827160493822  56.33653846153847 20.611111111111114  C 54.67067307692308 22.228395061728392  52.6766826923077 23.037037037037038  50.35456730769231 23.037037037037038  C 48.00721153846153 23.037037037037038  46.00691105769231 22.228395061728392  44.35366586538461 20.611111111111114  C 42.70042067307693 18.993827160493822  41.87379807692308 17.037037037037038  41.87379807692308 14.74074074074074  C 41.87379807692308 12.469135802469133  42.70042067307693 10.518518518518519  44.35366586538461 8.888888888888886  C 46.00691105769231 7.2592592592592595  48.00721153846153 6.444444444444443  50.35456730769231 6.444444444444443  C 52.6766826923077 6.444444444444443  54.67067307692308 7.2592592592592595  56.33653846153847 8.888888888888886  Z " fill-rule="evenodd" />
    </mask>
  </defs>
  <g transform="matrix(1 0 0 1 -184 -487 )">
    <path d="M 16.071814903846153 48.27777777777778  C 17.01832932692308 49.2037037037037  17.49158653846154 50.32098765432098  17.49158653846154 51.62962962962963  C 17.49158653846154 52.938271604938265  17.01832932692308 54.05555555555556  16.071814903846153 54.98148148148148  C 15.12530048076923 55.907407407407405  13.983173076923078 56.37037037037037  12.645432692307693 56.37037037037037  C 11.332932692307693 56.37037037037037  10.197115384615387 55.901234567901234  9.23798076923077 54.96296296296296  C 8.278846153846153 54.0246913580247  7.799278846153847 52.91358024691358  7.799278846153847 51.62962962962963  C 7.799278846153847 50.32098765432098  8.272536057692307 49.2037037037037  9.21905048076923 48.27777777777778  C 10.165564903846153 47.35185185185185  11.307692307692308 46.888888888888886  12.645432692307693 46.888888888888886  C 13.983173076923078 46.888888888888886  15.12530048076923 47.35185185185185  16.071814903846153 48.27777777777778  Z M 34.92638221153847 55.907407407407405  C 35.87289663461539 56.833333333333336  36.34615384615384 57.95061728395062  36.34615384615384 59.25925925925926  C 36.34615384615384 60.5679012345679  35.87289663461539 61.68518518518518  34.92638221153847 62.611111111111114  C 33.97986778846153 63.53703703703704  32.83774038461539 64  31.5 64  C 30.162259615384617 64  29.020132211538463 63.53703703703704  28.07361778846154 62.611111111111114  C 27.127103365384613 61.68518518518518  26.653846153846153 60.5679012345679  26.653846153846153 59.25925925925926  C 26.653846153846153 57.95061728395062  27.127103365384613 56.833333333333336  28.07361778846154 55.907407407407405  C 29.020132211538463 54.98148148148148  30.162259615384617 54.51851851851852  31.5 54.51851851851852  C 32.83774038461539 54.51851851851852  33.97986778846153 54.98148148148148  34.92638221153847 55.907407407407405  Z M 8.272536057692307 29.833333333333336  C 9.21905048076923 30.75925925925926  9.692307692307693 31.876543209876544  9.692307692307693 33.18518518518519  C 9.692307692307693 34.49382716049382  9.21905048076923 35.611111111111114  8.272536057692307 36.53703703703704  C 7.326021634615385 37.46296296296296  6.183894230769232 37.925925925925924  4.846153846153847 37.925925925925924  C 3.508413461538462 37.925925925925924  2.3662860576923075 37.46296296296296  1.4197716346153846 36.53703703703704  C 0.47325721153846156 35.611111111111114  0 34.49382716049382  0 33.18518518518519  C 0 31.876543209876544  0.47325721153846156 30.75925925925926  1.4197716346153846 29.833333333333336  C 2.3662860576923075 28.907407407407405  3.508413461538462 28.444444444444443  4.846153846153847 28.444444444444443  C 6.183894230769232 28.444444444444443  7.326021634615385 28.907407407407405  8.272536057692307 29.833333333333336  Z M 53.780949519230774 48.27777777777778  C 54.72746394230769 49.2037037037037  55.20072115384616 50.32098765432098  55.20072115384616 51.62962962962963  C 55.20072115384616 52.91358024691358  54.721153846153854 54.0246913580247  53.762019230769226 54.96296296296296  C 52.80288461538461 55.901234567901234  51.66706730769231 56.37037037037037  50.35456730769231 56.37037037037037  C 49.01682692307693 56.37037037037037  47.874699519230774 55.907407407407405  46.92818509615384 54.98148148148148  C 45.98167067307692 54.05555555555556  45.50841346153847 52.938271604938265  45.50841346153847 51.62962962962963  C 45.50841346153847 50.32098765432098  45.98167067307692 49.2037037037037  46.92818509615384 48.27777777777778  C 47.874699519230774 47.35185185185185  49.01682692307693 46.888888888888886  50.35456730769231 46.888888888888886  C 51.6923076923077 46.888888888888886  52.83443509615384 47.35185185185185  53.780949519230774 48.27777777777778  Z M 16.923677884615387 10.555555555555557  C 18.109975961538463 11.716049382716044  18.703125 13.111111111111114  18.703125 14.74074074074074  C 18.703125 16.370370370370374  18.109975961538463 17.765432098765423  16.923677884615387 18.925925925925924  C 15.737379807692308 20.086419753086417  14.311298076923077 20.666666666666664  12.645432692307693 20.666666666666664  C 10.979567307692307 20.666666666666664  9.553485576923078 20.086419753086417  8.3671875 18.925925925925924  C 7.180889423076923 17.765432098765423  6.587740384615385 16.370370370370374  6.587740384615385 14.74074074074074  C 6.587740384615385 13.111111111111114  7.180889423076923 11.716049382716044  8.3671875 10.555555555555557  C 9.553485576923078 9.395061728395056  10.979567307692307 8.814814814814817  12.645432692307693 8.814814814814817  C 14.311298076923077 8.814814814814817  15.737379807692308 9.395061728395056  16.923677884615387 10.555555555555557  Z M 61.58022836538461 29.833333333333336  C 62.52674278846155 30.75925925925926  63.000000000000014 31.876543209876544  63 33.18518518518519  C 63.000000000000014 34.49382716049382  62.52674278846155 35.611111111111114  61.58022836538461 36.53703703703704  C 60.6337139423077 37.46296296296296  59.49158653846155 37.925925925925924  58.15384615384616 37.925925925925924  C 56.816105769230774 37.925925925925924  55.67397836538461 37.46296296296296  54.72746394230769 36.53703703703704  C 53.780949519230774 35.611111111111114  53.30769230769231 34.49382716049382  53.30769230769231 33.18518518518519  C 53.30769230769231 31.876543209876544  53.780949519230774 30.75925925925926  54.72746394230769 29.833333333333336  C 55.67397836538461 28.907407407407405  56.816105769230774 28.444444444444443  58.15384615384616 28.444444444444443  C 59.49158653846155 28.444444444444443  60.6337139423077 28.907407407407405  61.58022836538461 29.833333333333336  Z M 36.64903846153847 2.074074074074076  C 38.06250000000001 3.456790123456784  38.769230769230774 5.135802469135797  38.769230769230774 7.111111111111114  C 38.769230769230774 9.086419753086417  38.06250000000001 10.765432098765423  36.64903846153847 12.148148148148145  C 35.23557692307693 13.53086419753086  33.51923076923077 14.222222222222221  31.5 14.222222222222221  C 29.480769230769234 14.222222222222221  27.764423076923084 13.53086419753086  26.35096153846154 12.148148148148145  C 24.937500000000004 10.765432098765423  24.230769230769234 9.086419753086417  24.230769230769234 7.111111111111114  C 24.230769230769234 5.135802469135797  24.937500000000004 3.456790123456784  26.35096153846154 2.074074074074076  C 27.764423076923084 0.6913580246913611  29.480769230769234 0  31.5 0  C 33.51923076923077 0  35.23557692307693 0.6913580246913611  36.64903846153847 2.074074074074076  Z M 56.33653846153847 8.888888888888886  C 58.00240384615384 10.518518518518519  58.83533653846153 12.469135802469133  58.83533653846153 14.74074074074074  C 58.83533653846153 17.037037037037038  58.00240384615384 18.993827160493822  56.33653846153847 20.611111111111114  C 54.67067307692308 22.228395061728392  52.6766826923077 23.037037037037038  50.35456730769231 23.037037037037038  C 48.00721153846153 23.037037037037038  46.00691105769231 22.228395061728392  44.35366586538461 20.611111111111114  C 42.70042067307693 18.993827160493822  41.87379807692308 17.037037037037038  41.87379807692308 14.74074074074074  C 41.87379807692308 12.469135802469133  42.70042067307693 10.518518518518519  44.35366586538461 8.888888888888886  C 46.00691105769231 7.2592592592592595  48.00721153846153 6.444444444444443  50.35456730769231 6.444444444444443  C 52.6766826923077 6.444444444444443  54.67067307692308 7.2592592592592595  56.33653846153847 8.888888888888886  Z " fill-rule="nonzero" fill="rgba(249, 252, 255, 0.8745098039215686)" stroke="none" transform="matrix(1 0 0 1 184 487 )" class="fill" />
    <path d="M 16.071814903846153 48.27777777777778  C 17.01832932692308 49.2037037037037  17.49158653846154 50.32098765432098  17.49158653846154 51.62962962962963  C 17.49158653846154 52.938271604938265  17.01832932692308 54.05555555555556  16.071814903846153 54.98148148148148  C 15.12530048076923 55.907407407407405  13.983173076923078 56.37037037037037  12.645432692307693 56.37037037037037  C 11.332932692307693 56.37037037037037  10.197115384615387 55.901234567901234  9.23798076923077 54.96296296296296  C 8.278846153846153 54.0246913580247  7.799278846153847 52.91358024691358  7.799278846153847 51.62962962962963  C 7.799278846153847 50.32098765432098  8.272536057692307 49.2037037037037  9.21905048076923 48.27777777777778  C 10.165564903846153 47.35185185185185  11.307692307692308 46.888888888888886  12.645432692307693 46.888888888888886  C 13.983173076923078 46.888888888888886  15.12530048076923 47.35185185185185  16.071814903846153 48.27777777777778  Z " stroke-width="0" stroke-dasharray="0" stroke="rgba(255, 255, 255, 0)" fill="none" transform="matrix(1 0 0 1 184 487 )" class="stroke" mask="url(#Clip85)" />
    <path d="M 34.92638221153847 55.907407407407405  C 35.87289663461539 56.833333333333336  36.34615384615384 57.95061728395062  36.34615384615384 59.25925925925926  C 36.34615384615384 60.5679012345679  35.87289663461539 61.68518518518518  34.92638221153847 62.611111111111114  C 33.97986778846153 63.53703703703704  32.83774038461539 64  31.5 64  C 30.162259615384617 64  29.020132211538463 63.53703703703704  28.07361778846154 62.611111111111114  C 27.127103365384613 61.68518518518518  26.653846153846153 60.5679012345679  26.653846153846153 59.25925925925926  C 26.653846153846153 57.95061728395062  27.127103365384613 56.833333333333336  28.07361778846154 55.907407407407405  C 29.020132211538463 54.98148148148148  30.162259615384617 54.51851851851852  31.5 54.51851851851852  C 32.83774038461539 54.51851851851852  33.97986778846153 54.98148148148148  34.92638221153847 55.907407407407405  Z " stroke-width="0" stroke-dasharray="0" stroke="rgba(255, 255, 255, 0)" fill="none" transform="matrix(1 0 0 1 184 487 )" class="stroke" mask="url(#Clip85)" />
    <path d="M 8.272536057692307 29.833333333333336  C 9.21905048076923 30.75925925925926  9.692307692307693 31.876543209876544  9.692307692307693 33.18518518518519  C 9.692307692307693 34.49382716049382  9.21905048076923 35.611111111111114  8.272536057692307 36.53703703703704  C 7.326021634615385 37.46296296296296  6.183894230769232 37.925925925925924  4.846153846153847 37.925925925925924  C 3.508413461538462 37.925925925925924  2.3662860576923075 37.46296296296296  1.4197716346153846 36.53703703703704  C 0.47325721153846156 35.611111111111114  0 34.49382716049382  0 33.18518518518519  C 0 31.876543209876544  0.47325721153846156 30.75925925925926  1.4197716346153846 29.833333333333336  C 2.3662860576923075 28.907407407407405  3.508413461538462 28.444444444444443  4.846153846153847 28.444444444444443  C 6.183894230769232 28.444444444444443  7.326021634615385 28.907407407407405  8.272536057692307 29.833333333333336  Z " stroke-width="0" stroke-dasharray="0" stroke="rgba(255, 255, 255, 0)" fill="none" transform="matrix(1 0 0 1 184 487 )" class="stroke" mask="url(#Clip85)" />
    <path d="M 53.780949519230774 48.27777777777778  C 54.72746394230769 49.2037037037037  55.20072115384616 50.32098765432098  55.20072115384616 51.62962962962963  C 55.20072115384616 52.91358024691358  54.721153846153854 54.0246913580247  53.762019230769226 54.96296296296296  C 52.80288461538461 55.901234567901234  51.66706730769231 56.37037037037037  50.35456730769231 56.37037037037037  C 49.01682692307693 56.37037037037037  47.874699519230774 55.907407407407405  46.92818509615384 54.98148148148148  C 45.98167067307692 54.05555555555556  45.50841346153847 52.938271604938265  45.50841346153847 51.62962962962963  C 45.50841346153847 50.32098765432098  45.98167067307692 49.2037037037037  46.92818509615384 48.27777777777778  C 47.874699519230774 47.35185185185185  49.01682692307693 46.888888888888886  50.35456730769231 46.888888888888886  C 51.6923076923077 46.888888888888886  52.83443509615384 47.35185185185185  53.780949519230774 48.27777777777778  Z " stroke-width="0" stroke-dasharray="0" stroke="rgba(255, 255, 255, 0)" fill="none" transform="matrix(1 0 0 1 184 487 )" class="stroke" mask="url(#Clip85)" />
    <path d="M 16.923677884615387 10.555555555555557  C 18.109975961538463 11.716049382716044  18.703125 13.111111111111114  18.703125 14.74074074074074  C 18.703125 16.370370370370374  18.109975961538463 17.765432098765423  16.923677884615387 18.925925925925924  C 15.737379807692308 20.086419753086417  14.311298076923077 20.666666666666664  12.645432692307693 20.666666666666664  C 10.979567307692307 20.666666666666664  9.553485576923078 20.086419753086417  8.3671875 18.925925925925924  C 7.180889423076923 17.765432098765423  6.587740384615385 16.370370370370374  6.587740384615385 14.74074074074074  C 6.587740384615385 13.111111111111114  7.180889423076923 11.716049382716044  8.3671875 10.555555555555557  C 9.553485576923078 9.395061728395056  10.979567307692307 8.814814814814817  12.645432692307693 8.814814814814817  C 14.311298076923077 8.814814814814817  15.737379807692308 9.395061728395056  16.923677884615387 10.555555555555557  Z " stroke-width="0" stroke-dasharray="0" stroke="rgba(255, 255, 255, 0)" fill="none" transform="matrix(1 0 0 1 184 487 )" class="stroke" mask="url(#Clip85)" />
    <path d="M 61.58022836538461 29.833333333333336  C 62.52674278846155 30.75925925925926  63.000000000000014 31.876543209876544  63 33.18518518518519  C 63.000000000000014 34.49382716049382  62.52674278846155 35.611111111111114  61.58022836538461 36.53703703703704  C 60.6337139423077 37.46296296296296  59.49158653846155 37.925925925925924  58.15384615384616 37.925925925925924  C 56.816105769230774 37.925925925925924  55.67397836538461 37.46296296296296  54.72746394230769 36.53703703703704  C 53.780949519230774 35.611111111111114  53.30769230769231 34.49382716049382  53.30769230769231 33.18518518518519  C 53.30769230769231 31.876543209876544  53.780949519230774 30.75925925925926  54.72746394230769 29.833333333333336  C 55.67397836538461 28.907407407407405  56.816105769230774 28.444444444444443  58.15384615384616 28.444444444444443  C 59.49158653846155 28.444444444444443  60.6337139423077 28.907407407407405  61.58022836538461 29.833333333333336  Z " stroke-width="0" stroke-dasharray="0" stroke="rgba(255, 255, 255, 0)" fill="none" transform="matrix(1 0 0 1 184 487 )" class="stroke" mask="url(#Clip85)" />
    <path d="M 36.64903846153847 2.074074074074076  C 38.06250000000001 3.456790123456784  38.769230769230774 5.135802469135797  38.769230769230774 7.111111111111114  C 38.769230769230774 9.086419753086417  38.06250000000001 10.765432098765423  36.64903846153847 12.148148148148145  C 35.23557692307693 13.53086419753086  33.51923076923077 14.222222222222221  31.5 14.222222222222221  C 29.480769230769234 14.222222222222221  27.764423076923084 13.53086419753086  26.35096153846154 12.148148148148145  C 24.937500000000004 10.765432098765423  24.230769230769234 9.086419753086417  24.230769230769234 7.111111111111114  C 24.230769230769234 5.135802469135797  24.937500000000004 3.456790123456784  26.35096153846154 2.074074074074076  C 27.764423076923084 0.6913580246913611  29.480769230769234 0  31.5 0  C 33.51923076923077 0  35.23557692307693 0.6913580246913611  36.64903846153847 2.074074074074076  Z " stroke-width="0" stroke-dasharray="0" stroke="rgba(255, 255, 255, 0)" fill="none" transform="matrix(1 0 0 1 184 487 )" class="stroke" mask="url(#Clip85)" />
    <path d="M 56.33653846153847 8.888888888888886  C 58.00240384615384 10.518518518518519  58.83533653846153 12.469135802469133  58.83533653846153 14.74074074074074  C 58.83533653846153 17.037037037037038  58.00240384615384 18.993827160493822  56.33653846153847 20.611111111111114  C 54.67067307692308 22.228395061728392  52.6766826923077 23.037037037037038  50.35456730769231 23.037037037037038  C 48.00721153846153 23.037037037037038  46.00691105769231 22.228395061728392  44.35366586538461 20.611111111111114  C 42.70042067307693 18.993827160493822  41.87379807692308 17.037037037037038  41.87379807692308 14.74074074074074  C 41.87379807692308 12.469135802469133  42.70042067307693 10.518518518518519  44.35366586538461 8.888888888888886  C 46.00691105769231 7.2592592592592595  48.00721153846153 6.444444444444443  50.35456730769231 6.444444444444443  C 52.6766826923077 6.444444444444443  54.67067307692308 7.2592592592592595  56.33653846153847 8.888888888888886  Z " stroke-width="0" stroke-dasharray="0" stroke="rgba(255, 255, 255, 0)" fill="none" transform="matrix(1 0 0 1 184 487 )" class="stroke" mask="url(#Clip85)" />
  </g>
</svg>