<?xml version="1.0" encoding="utf-8"?>
<svg version="1.1" xmlns:xlink="http://www.w3.org/1999/xlink" width="122px" height="44px" xmlns="http://www.w3.org/2000/svg">
  <defs>
    <pattern id="BGPattern" patternUnits="userSpaceOnUse" alignment="0 0" imageRepeat="None" />
    <mask fill="white" id="Clip86">
      <path d="M 7 26.640566019337303  C 6.2458029679416995 28.35033712275716  6.503516541608904 29.907167816135832  7.019075309767453 31.311598524950483  C 7.534634077926002 32.71602923376514  8.248413807240226 33.91685464405322  9.160546118534262 34.91407475581474  C 10.0726784298283 35.91142997394555  11.153285396022245 36.67464585408927  12.402367017116102 37.20385750261519  C 13.651580259034098 37.733069151141116  15.009775543340472 37.99760742221944  16.477084490859365 37.99760742221944  C 17.904775570311955 37.99760742221944  19.243096110173102 37.722801067074755  20.4923093520911 37.17318835678539  C 21.7415225940091 36.623575646496015  22.832001122013587 35.85022678865522  23.763876556928707 34.8530066768937  C 24.695751991843828 33.855651458762885  25.419534903792734 32.66509413254118  25.93509367195128 31.281064485489967  C 26.45065244010983 29.89703483843876  26.708366013777034 28.350337122757164  27 26.640566019337307  L 27 0.2629389037877461  L 33 0.2629389037877461  L 33 43.004379255529045  L 26.767858626288564 43.004379255529045  L 26.767858626288564 39.03549455113855  C 25.379917035726425 40.54152524966254  23.744001812483486 41.70168364279303  21.86037619820802 42.51596973053002  C 19.976618963108407 43.329985605528414  17.94439343837826 43.73706109621225  15.763304761545143 43.73706109621225  C 13.542466595821578 43.73706109621225  11.470491582200982 43.34011858322549  9.547116479035068 42.546368663621244  C 7.623872996693296 41.752618744017006  5.958211467194588 40.62312949671633  4.550526753011366 39.15763070898064  C 3.142842038828141 37.69213192124494  2.0323571455542915 35.93183103570899  1.2194669356622307 33.87605252052633  C 0.40644510494603014 31.820409111712962  0 29.5307614712818  0 27.006839386494253  L 0 0.2629389037877461  L 7 0.2629389037877461  L 7 26.640566019337303  Z M 38 0.2629389037877461  L 44 0.2629389037877461  L 44 15.83300222037525  C 45.10816750368162 14.408305556166443  46.71433642066879 13.27881630886577  48.53846942243272 12.444264265734638  C 50.36260242419665 11.609712222603509  52.345470139874095 11.192503754222589  54.486809327816765 11.192503754222589  C 56.707647493540335 11.192503754222589  58.78936244814734 11.619845200300581  60.732612295758464 12.474663198825866  C 62.67573052254545 13.329481197351148  64.3610035548411 14.489639590481636  65.7886946342937 15.955138378217331  C 67.21638571374628 17.42063716595302  68.34661373064121 19.15053911839774  69.17937868497849 21.145114448290066  C 70.01214363931578 23.139824884551686  70.42846030607234 25.256536372286096  70.42846030607234 27.495384017862584  C 70.42846030607234 29.73409655706978  70.01214363931578 31.840675067107114  69.17937868497849 33.81484933523599  C 68.34661373064121 35.78915870973417  67.21638571374628 37.509062790851104  65.78869463429369 38.97429136584821  C 64.3610035548411 40.4397901535839  62.67573052254545 41.599948546714394  60.73261229575845 42.45476654523968  C 58.78936244814732 43.30958454376496  56.70751587271617 43.73692598984296  54.48680932781676 43.73692598984296  C 52.345338519049946 43.73692598984296  50.352730862386096 43.31971752146203  48.50872311617694 42.485165478330906  C 46.66471536996778 41.65074854156907  45.04867489117006 40.521124187899105  43.66073330060792 39.0964275236903  L 43.66073330060792 43.00424414915976  L 38 43.00424414915976  L 38 0.2629389037877461  Z M 43.60137230892055 27.495384017862587  C 43.601240688096425 29.00154982275588  43.8689574443983 30.405845425201242  44.40425933617793 31.70840593156796  C 44.93956122795756 33.011101544303976  45.68321888435169 34.15085887567102  46.63496906371203 35.12781303203838  C 47.58671924307238 36.104767188405745  48.69707251552209 36.87825115261584  49.96602888106116 37.44812981829936  C 51.23511686742439 38.01800848398288  52.6031837135413 38.30294781682464  54.07049266106021 38.30294781682464  C 55.49818374051278 38.30294781682464  56.84637584218448 38.01800848398288  58.115332207723554 37.44812981829936  C 59.38428857326264 36.87825115261583  60.48463866307766 36.10490229477504  61.416777339641065 35.12781303203838  C 62.348652774556186 34.15099398204031  63.092178810126185 33.011101544303976  63.64735544635103 31.70840593156796  C 64.2025320825759 30.405845425201242  64.48012040068832 29.00154982275588  64.48012040068832 27.495384017862587  C 64.48012040068832 25.9892182129693  64.2025320825759 24.57465452645757  63.64735544635103 23.251692958327403  C 63.092178810126185 21.92873139019724  62.348652774556186 20.778841081133116  61.416777339641065 19.80188692476575  C 60.4847702839018 18.825067874767687  59.384420194086786 18.06171688825467  58.11533220772356 17.51223928433459  C 56.846244221360344 16.962761680414513  55.49805211968866 16.687820218900534  54.070492661060214 16.687820218900534  C 52.642933202431756 16.687820218900534  51.294609479935936 16.96262657404522  50.025653114396846 17.51223928433459  C 48.75669674885777 18.06185199462396  47.64634347640806 18.825067874767687  46.694461676223575 19.80188692476575  C 45.742843117687364 20.778841081133116  44.989313899482696 21.92873139019724  44.43413726325784 23.251692958327403  C 43.87896062703299 24.57465452645757  43.60137230892055 25.9892182129693  43.60137230892055 27.495384017862587  Z M 72.6290288648783 27.43431593894153  C 72.62876562323002 25.23627041689193  73.02547078718963 23.160225946315123  73.81848625263646 21.206317633580404  C 74.61150171808329 19.252409320845675  75.70224348773608 17.532640346098034  77.09005345747407 16.04687560296819  C 78.47786342721206 14.561110859838344  80.1237818330897 13.390819489010777  82.02728219181039 12.536001490485496  C 83.93078255053108 11.681183491960214  85.99288600234112 11.253842045882221  88.21359254724055 11.253842045882221  C 90.39468122407366 11.253842045882221  92.41716680781741 11.660917536566066  94.2810492984718 12.474933411564455  C 96.14480016830204 13.289084392932143  97.75083746446505 14.41870874660211  99.0991611869609 15.863806472574357  C 100.44748490945673 17.30876909217731  101.49847719021905 19.018540195597172  102.25174316677544 20.992714463726053  C 103.00527238498012 22.967023838224225  103.38197118367037 25.114269365419155  103.38197118367037 27.434586151680133  L 103.38197118367037 29  L 78.69622237446124 29  C 78.89457495644105 30.711456032545026  79.29114849957655 31.881747403372596  79.88594300386771 32.960301549449305  C 80.48086912898302 34.03899080189531  81.22426354372887 34.97527794110508  82.11652111057766 35.769027860709315  C 83.00877867742648 36.562912886682845  84.02002146929837 37.18372665359034  85.15024948619329 37.63133405506248  C 86.28047750308824 38.07907656290392  87.4799380734811 38.30308292319393  88.74902605984433 38.30308292319393  C 92.35780581613002 38.30308292319393  95.2725489667226 36.7765160565372  97.49325551162201 33.72351742959302  L 101.83555812084302 37.02065326585206  C 100.32863130525783 39.09669773642887  98.46488043542757 40.72499969916425  96.24417389052816 41.90542404768888  C 94.0233357248046 43.08584839621353  91.52504086179275 43.67612812366049  88.74915768066847 43.67612812366049  C 86.4887016468786 43.67612812366049  84.3771087651917 43.26891752660735  82.41411579395947 42.454901651608964  C 80.45112282272727 41.640885776610574  78.74597504598637 40.50099333887423  77.29854084291271 39.035494551138534  C 75.85110663983905 37.56999576340284  74.71100706113357 35.8502267886552  73.87824210679629 33.87605252052632  C 73.045477152459 31.901878252397445  72.6290288648783 29.754497618833216  72.6290288648783 27.43431593894153  Z M 88.09473894304163 16.626887246348787  C 85.83428290925177 16.626887246348787  83.861418376209 17.34943610933491  82.17601372308921 18.794398728937864  C 80.49060906996941 20.239496454910114  79.37038423570915 22.162870728184323  78.8152075994843 24  L 97.31477767408742 24  C 96.79921890592888 22.162870728184323  95.69873719528971 20.239496454910114  94.01333254216992 18.794398728937864  C 92.32792788905013 17.349436109334913  90.35506335600738 16.626887246348787  88.09473894304163 16.626887246348787  Z M 119.50170513698815 17.359433980662693  C 117.51896904213486 17.359569087031986  115.8930570015266 18.071849865951744  114.62410063598752 19.496546530160547  C 113.35514427044843 20.921243194369346  112.72060027726683 22.854750445340635  112 25.29720338944369  L 112 43.004514361898345  L 106 43.004514361898345  L 106 11.86425262235404  L 112.66097604393117 11.86425262235404  L 112.66097604393117 15.71100116890246  C 113.41450526213583 14.449107679693334  114.39600174775194 13.451752461562524  115.60546550077949 12.719070620879325  C 116.81492925380702 11.98625367382683  118.25249189507016 11.619845200300585  119.91815342456887 11.619845200300585  L 122 11.619845200300585  L 122 17.359433980662693  L 119.50170513698815 17.359433980662693  Z " fill-rule="evenodd" />
    </mask>
  </defs>
  <g transform="matrix(1 0 0 1 -154 -293 )">
    <path d="M 7 26.640566019337303  C 6.2458029679416995 28.35033712275716  6.503516541608904 29.907167816135832  7.019075309767453 31.311598524950483  C 7.534634077926002 32.71602923376514  8.248413807240226 33.91685464405322  9.160546118534262 34.91407475581474  C 10.0726784298283 35.91142997394555  11.153285396022245 36.67464585408927  12.402367017116102 37.20385750261519  C 13.651580259034098 37.733069151141116  15.009775543340472 37.99760742221944  16.477084490859365 37.99760742221944  C 17.904775570311955 37.99760742221944  19.243096110173102 37.722801067074755  20.4923093520911 37.17318835678539  C 21.7415225940091 36.623575646496015  22.832001122013587 35.85022678865522  23.763876556928707 34.8530066768937  C 24.695751991843828 33.855651458762885  25.419534903792734 32.66509413254118  25.93509367195128 31.281064485489967  C 26.45065244010983 29.89703483843876  26.708366013777034 28.350337122757164  27 26.640566019337307  L 27 0.2629389037877461  L 33 0.2629389037877461  L 33 43.004379255529045  L 26.767858626288564 43.004379255529045  L 26.767858626288564 39.03549455113855  C 25.379917035726425 40.54152524966254  23.744001812483486 41.70168364279303  21.86037619820802 42.51596973053002  C 19.976618963108407 43.329985605528414  17.94439343837826 43.73706109621225  15.763304761545143 43.73706109621225  C 13.542466595821578 43.73706109621225  11.470491582200982 43.34011858322549  9.547116479035068 42.546368663621244  C 7.623872996693296 41.752618744017006  5.958211467194588 40.62312949671633  4.550526753011366 39.15763070898064  C 3.142842038828141 37.69213192124494  2.0323571455542915 35.93183103570899  1.2194669356622307 33.87605252052633  C 0.40644510494603014 31.820409111712962  0 29.5307614712818  0 27.006839386494253  L 0 0.2629389037877461  L 7 0.2629389037877461  L 7 26.640566019337303  Z M 38 0.2629389037877461  L 44 0.2629389037877461  L 44 15.83300222037525  C 45.10816750368162 14.408305556166443  46.71433642066879 13.27881630886577  48.53846942243272 12.444264265734638  C 50.36260242419665 11.609712222603509  52.345470139874095 11.192503754222589  54.486809327816765 11.192503754222589  C 56.707647493540335 11.192503754222589  58.78936244814734 11.619845200300581  60.732612295758464 12.474663198825866  C 62.67573052254545 13.329481197351148  64.3610035548411 14.489639590481636  65.7886946342937 15.955138378217331  C 67.21638571374628 17.42063716595302  68.34661373064121 19.15053911839774  69.17937868497849 21.145114448290066  C 70.01214363931578 23.139824884551686  70.42846030607234 25.256536372286096  70.42846030607234 27.495384017862584  C 70.42846030607234 29.73409655706978  70.01214363931578 31.840675067107114  69.17937868497849 33.81484933523599  C 68.34661373064121 35.78915870973417  67.21638571374628 37.509062790851104  65.78869463429369 38.97429136584821  C 64.3610035548411 40.4397901535839  62.67573052254545 41.599948546714394  60.73261229575845 42.45476654523968  C 58.78936244814732 43.30958454376496  56.70751587271617 43.73692598984296  54.48680932781676 43.73692598984296  C 52.345338519049946 43.73692598984296  50.352730862386096 43.31971752146203  48.50872311617694 42.485165478330906  C 46.66471536996778 41.65074854156907  45.04867489117006 40.521124187899105  43.66073330060792 39.0964275236903  L 43.66073330060792 43.00424414915976  L 38 43.00424414915976  L 38 0.2629389037877461  Z M 43.60137230892055 27.495384017862587  C 43.601240688096425 29.00154982275588  43.8689574443983 30.405845425201242  44.40425933617793 31.70840593156796  C 44.93956122795756 33.011101544303976  45.68321888435169 34.15085887567102  46.63496906371203 35.12781303203838  C 47.58671924307238 36.104767188405745  48.69707251552209 36.87825115261584  49.96602888106116 37.44812981829936  C 51.23511686742439 38.01800848398288  52.6031837135413 38.30294781682464  54.07049266106021 38.30294781682464  C 55.49818374051278 38.30294781682464  56.84637584218448 38.01800848398288  58.115332207723554 37.44812981829936  C 59.38428857326264 36.87825115261583  60.48463866307766 36.10490229477504  61.416777339641065 35.12781303203838  C 62.348652774556186 34.15099398204031  63.092178810126185 33.011101544303976  63.64735544635103 31.70840593156796  C 64.2025320825759 30.405845425201242  64.48012040068832 29.00154982275588  64.48012040068832 27.495384017862587  C 64.48012040068832 25.9892182129693  64.2025320825759 24.57465452645757  63.64735544635103 23.251692958327403  C 63.092178810126185 21.92873139019724  62.348652774556186 20.778841081133116  61.416777339641065 19.80188692476575  C 60.4847702839018 18.825067874767687  59.384420194086786 18.06171688825467  58.11533220772356 17.51223928433459  C 56.846244221360344 16.962761680414513  55.49805211968866 16.687820218900534  54.070492661060214 16.687820218900534  C 52.642933202431756 16.687820218900534  51.294609479935936 16.96262657404522  50.025653114396846 17.51223928433459  C 48.75669674885777 18.06185199462396  47.64634347640806 18.825067874767687  46.694461676223575 19.80188692476575  C 45.742843117687364 20.778841081133116  44.989313899482696 21.92873139019724  44.43413726325784 23.251692958327403  C 43.87896062703299 24.57465452645757  43.60137230892055 25.9892182129693  43.60137230892055 27.495384017862587  Z M 72.6290288648783 27.43431593894153  C 72.62876562323002 25.23627041689193  73.02547078718963 23.160225946315123  73.81848625263646 21.206317633580404  C 74.61150171808329 19.252409320845675  75.70224348773608 17.532640346098034  77.09005345747407 16.04687560296819  C 78.47786342721206 14.561110859838344  80.1237818330897 13.390819489010777  82.02728219181039 12.536001490485496  C 83.93078255053108 11.681183491960214  85.99288600234112 11.253842045882221  88.21359254724055 11.253842045882221  C 90.39468122407366 11.253842045882221  92.41716680781741 11.660917536566066  94.2810492984718 12.474933411564455  C 96.14480016830204 13.289084392932143  97.75083746446505 14.41870874660211  99.0991611869609 15.863806472574357  C 100.44748490945673 17.30876909217731  101.49847719021905 19.018540195597172  102.25174316677544 20.992714463726053  C 103.00527238498012 22.967023838224225  103.38197118367037 25.114269365419155  103.38197118367037 27.434586151680133  L 103.38197118367037 29  L 78.69622237446124 29  C 78.89457495644105 30.711456032545026  79.29114849957655 31.881747403372596  79.88594300386771 32.960301549449305  C 80.48086912898302 34.03899080189531  81.22426354372887 34.97527794110508  82.11652111057766 35.769027860709315  C 83.00877867742648 36.562912886682845  84.02002146929837 37.18372665359034  85.15024948619329 37.63133405506248  C 86.28047750308824 38.07907656290392  87.4799380734811 38.30308292319393  88.74902605984433 38.30308292319393  C 92.35780581613002 38.30308292319393  95.2725489667226 36.7765160565372  97.49325551162201 33.72351742959302  L 101.83555812084302 37.02065326585206  C 100.32863130525783 39.09669773642887  98.46488043542757 40.72499969916425  96.24417389052816 41.90542404768888  C 94.0233357248046 43.08584839621353  91.52504086179275 43.67612812366049  88.74915768066847 43.67612812366049  C 86.4887016468786 43.67612812366049  84.3771087651917 43.26891752660735  82.41411579395947 42.454901651608964  C 80.45112282272727 41.640885776610574  78.74597504598637 40.50099333887423  77.29854084291271 39.035494551138534  C 75.85110663983905 37.56999576340284  74.71100706113357 35.8502267886552  73.87824210679629 33.87605252052632  C 73.045477152459 31.901878252397445  72.6290288648783 29.754497618833216  72.6290288648783 27.43431593894153  Z M 88.09473894304163 16.626887246348787  C 85.83428290925177 16.626887246348787  83.861418376209 17.34943610933491  82.17601372308921 18.794398728937864  C 80.49060906996941 20.239496454910114  79.37038423570915 22.162870728184323  78.8152075994843 24  L 97.31477767408742 24  C 96.79921890592888 22.162870728184323  95.69873719528971 20.239496454910114  94.01333254216992 18.794398728937864  C 92.32792788905013 17.349436109334913  90.35506335600738 16.626887246348787  88.09473894304163 16.626887246348787  Z M 119.50170513698815 17.359433980662693  C 117.51896904213486 17.359569087031986  115.8930570015266 18.071849865951744  114.62410063598752 19.496546530160547  C 113.35514427044843 20.921243194369346  112.72060027726683 22.854750445340635  112 25.29720338944369  L 112 43.004514361898345  L 106 43.004514361898345  L 106 11.86425262235404  L 112.66097604393117 11.86425262235404  L 112.66097604393117 15.71100116890246  C 113.41450526213583 14.449107679693334  114.39600174775194 13.451752461562524  115.60546550077949 12.719070620879325  C 116.81492925380702 11.98625367382683  118.25249189507016 11.619845200300585  119.91815342456887 11.619845200300585  L 122 11.619845200300585  L 122 17.359433980662693  L 119.50170513698815 17.359433980662693  Z " fill-rule="nonzero" fill="rgba(255, 255, 255, 1)" stroke="none" transform="matrix(1 0 0 1 154 293 )" class="fill" />
    <path d="M 7 26.640566019337303  C 6.2458029679416995 28.35033712275716  6.503516541608904 29.907167816135832  7.019075309767453 31.311598524950483  C 7.534634077926002 32.71602923376514  8.248413807240226 33.91685464405322  9.160546118534262 34.91407475581474  C 10.0726784298283 35.91142997394555  11.153285396022245 36.67464585408927  12.402367017116102 37.20385750261519  C 13.651580259034098 37.733069151141116  15.009775543340472 37.99760742221944  16.477084490859365 37.99760742221944  C 17.904775570311955 37.99760742221944  19.243096110173102 37.722801067074755  20.4923093520911 37.17318835678539  C 21.7415225940091 36.623575646496015  22.832001122013587 35.85022678865522  23.763876556928707 34.8530066768937  C 24.695751991843828 33.855651458762885  25.419534903792734 32.66509413254118  25.93509367195128 31.281064485489967  C 26.45065244010983 29.89703483843876  26.708366013777034 28.350337122757164  27 26.640566019337307  L 27 0.2629389037877461  L 33 0.2629389037877461  L 33 43.004379255529045  L 26.767858626288564 43.004379255529045  L 26.767858626288564 39.03549455113855  C 25.379917035726425 40.54152524966254  23.744001812483486 41.70168364279303  21.86037619820802 42.51596973053002  C 19.976618963108407 43.329985605528414  17.94439343837826 43.73706109621225  15.763304761545143 43.73706109621225  C 13.542466595821578 43.73706109621225  11.470491582200982 43.34011858322549  9.547116479035068 42.546368663621244  C 7.623872996693296 41.752618744017006  5.958211467194588 40.62312949671633  4.550526753011366 39.15763070898064  C 3.142842038828141 37.69213192124494  2.0323571455542915 35.93183103570899  1.2194669356622307 33.87605252052633  C 0.40644510494603014 31.820409111712962  0 29.5307614712818  0 27.006839386494253  L 0 0.2629389037877461  L 7 0.2629389037877461  L 7 26.640566019337303  Z " stroke-width="2" stroke-dasharray="0" stroke="rgba(249, 252, 255, 1)" fill="none" transform="matrix(1 0 0 1 154 293 )" class="stroke" mask="url(#Clip86)" />
    <path d="M 38 0.2629389037877461  L 44 0.2629389037877461  L 44 15.83300222037525  C 45.10816750368162 14.408305556166443  46.71433642066879 13.27881630886577  48.53846942243272 12.444264265734638  C 50.36260242419665 11.609712222603509  52.345470139874095 11.192503754222589  54.486809327816765 11.192503754222589  C 56.707647493540335 11.192503754222589  58.78936244814734 11.619845200300581  60.732612295758464 12.474663198825866  C 62.67573052254545 13.329481197351148  64.3610035548411 14.489639590481636  65.7886946342937 15.955138378217331  C 67.21638571374628 17.42063716595302  68.34661373064121 19.15053911839774  69.17937868497849 21.145114448290066  C 70.01214363931578 23.139824884551686  70.42846030607234 25.256536372286096  70.42846030607234 27.495384017862584  C 70.42846030607234 29.73409655706978  70.01214363931578 31.840675067107114  69.17937868497849 33.81484933523599  C 68.34661373064121 35.78915870973417  67.21638571374628 37.509062790851104  65.78869463429369 38.97429136584821  C 64.3610035548411 40.4397901535839  62.67573052254545 41.599948546714394  60.73261229575845 42.45476654523968  C 58.78936244814732 43.30958454376496  56.70751587271617 43.73692598984296  54.48680932781676 43.73692598984296  C 52.345338519049946 43.73692598984296  50.352730862386096 43.31971752146203  48.50872311617694 42.485165478330906  C 46.66471536996778 41.65074854156907  45.04867489117006 40.521124187899105  43.66073330060792 39.0964275236903  L 43.66073330060792 43.00424414915976  L 38 43.00424414915976  L 38 0.2629389037877461  Z " stroke-width="2" stroke-dasharray="0" stroke="rgba(249, 252, 255, 1)" fill="none" transform="matrix(1 0 0 1 154 293 )" class="stroke" mask="url(#Clip86)" />
    <path d="M 43.60137230892055 27.495384017862587  C 43.601240688096425 29.00154982275588  43.8689574443983 30.405845425201242  44.40425933617793 31.70840593156796  C 44.93956122795756 33.011101544303976  45.68321888435169 34.15085887567102  46.63496906371203 35.12781303203838  C 47.58671924307238 36.104767188405745  48.69707251552209 36.87825115261584  49.96602888106116 37.44812981829936  C 51.23511686742439 38.01800848398288  52.6031837135413 38.30294781682464  54.07049266106021 38.30294781682464  C 55.49818374051278 38.30294781682464  56.84637584218448 38.01800848398288  58.115332207723554 37.44812981829936  C 59.38428857326264 36.87825115261583  60.48463866307766 36.10490229477504  61.416777339641065 35.12781303203838  C 62.348652774556186 34.15099398204031  63.092178810126185 33.011101544303976  63.64735544635103 31.70840593156796  C 64.2025320825759 30.405845425201242  64.48012040068832 29.00154982275588  64.48012040068832 27.495384017862587  C 64.48012040068832 25.9892182129693  64.2025320825759 24.57465452645757  63.64735544635103 23.251692958327403  C 63.092178810126185 21.92873139019724  62.348652774556186 20.778841081133116  61.416777339641065 19.80188692476575  C 60.4847702839018 18.825067874767687  59.384420194086786 18.06171688825467  58.11533220772356 17.51223928433459  C 56.846244221360344 16.962761680414513  55.49805211968866 16.687820218900534  54.070492661060214 16.687820218900534  C 52.642933202431756 16.687820218900534  51.294609479935936 16.96262657404522  50.025653114396846 17.51223928433459  C 48.75669674885777 18.06185199462396  47.64634347640806 18.825067874767687  46.694461676223575 19.80188692476575  C 45.742843117687364 20.778841081133116  44.989313899482696 21.92873139019724  44.43413726325784 23.251692958327403  C 43.87896062703299 24.57465452645757  43.60137230892055 25.9892182129693  43.60137230892055 27.495384017862587  Z " stroke-width="2" stroke-dasharray="0" stroke="rgba(249, 252, 255, 1)" fill="none" transform="matrix(1 0 0 1 154 293 )" class="stroke" mask="url(#Clip86)" />
    <path d="M 72.6290288648783 27.43431593894153  C 72.62876562323002 25.23627041689193  73.02547078718963 23.160225946315123  73.81848625263646 21.206317633580404  C 74.61150171808329 19.252409320845675  75.70224348773608 17.532640346098034  77.09005345747407 16.04687560296819  C 78.47786342721206 14.561110859838344  80.1237818330897 13.390819489010777  82.02728219181039 12.536001490485496  C 83.93078255053108 11.681183491960214  85.99288600234112 11.253842045882221  88.21359254724055 11.253842045882221  C 90.39468122407366 11.253842045882221  92.41716680781741 11.660917536566066  94.2810492984718 12.474933411564455  C 96.14480016830204 13.289084392932143  97.75083746446505 14.41870874660211  99.0991611869609 15.863806472574357  C 100.44748490945673 17.30876909217731  101.49847719021905 19.018540195597172  102.25174316677544 20.992714463726053  C 103.00527238498012 22.967023838224225  103.38197118367037 25.114269365419155  103.38197118367037 27.434586151680133  L 103.38197118367037 29  L 78.69622237446124 29  C 78.89457495644105 30.711456032545026  79.29114849957655 31.881747403372596  79.88594300386771 32.960301549449305  C 80.48086912898302 34.03899080189531  81.22426354372887 34.97527794110508  82.11652111057766 35.769027860709315  C 83.00877867742648 36.562912886682845  84.02002146929837 37.18372665359034  85.15024948619329 37.63133405506248  C 86.28047750308824 38.07907656290392  87.4799380734811 38.30308292319393  88.74902605984433 38.30308292319393  C 92.35780581613002 38.30308292319393  95.2725489667226 36.7765160565372  97.49325551162201 33.72351742959302  L 101.83555812084302 37.02065326585206  C 100.32863130525783 39.09669773642887  98.46488043542757 40.72499969916425  96.24417389052816 41.90542404768888  C 94.0233357248046 43.08584839621353  91.52504086179275 43.67612812366049  88.74915768066847 43.67612812366049  C 86.4887016468786 43.67612812366049  84.3771087651917 43.26891752660735  82.41411579395947 42.454901651608964  C 80.45112282272727 41.640885776610574  78.74597504598637 40.50099333887423  77.29854084291271 39.035494551138534  C 75.85110663983905 37.56999576340284  74.71100706113357 35.8502267886552  73.87824210679629 33.87605252052632  C 73.045477152459 31.901878252397445  72.6290288648783 29.754497618833216  72.6290288648783 27.43431593894153  Z " stroke-width="2" stroke-dasharray="0" stroke="rgba(249, 252, 255, 1)" fill="none" transform="matrix(1 0 0 1 154 293 )" class="stroke" mask="url(#Clip86)" />
    <path d="M 88.09473894304163 16.626887246348787  C 85.83428290925177 16.626887246348787  83.861418376209 17.34943610933491  82.17601372308921 18.794398728937864  C 80.49060906996941 20.239496454910114  79.37038423570915 22.162870728184323  78.8152075994843 24  L 97.31477767408742 24  C 96.79921890592888 22.162870728184323  95.69873719528971 20.239496454910114  94.01333254216992 18.794398728937864  C 92.32792788905013 17.349436109334913  90.35506335600738 16.626887246348787  88.09473894304163 16.626887246348787  Z " stroke-width="2" stroke-dasharray="0" stroke="rgba(249, 252, 255, 1)" fill="none" transform="matrix(1 0 0 1 154 293 )" class="stroke" mask="url(#Clip86)" />
    <path d="M 119.50170513698815 17.359433980662693  C 117.51896904213486 17.359569087031986  115.8930570015266 18.071849865951744  114.62410063598752 19.496546530160547  C 113.35514427044843 20.921243194369346  112.72060027726683 22.854750445340635  112 25.29720338944369  L 112 43.004514361898345  L 106 43.004514361898345  L 106 11.86425262235404  L 112.66097604393117 11.86425262235404  L 112.66097604393117 15.71100116890246  C 113.41450526213583 14.449107679693334  114.39600174775194 13.451752461562524  115.60546550077949 12.719070620879325  C 116.81492925380702 11.98625367382683  118.25249189507016 11.619845200300585  119.91815342456887 11.619845200300585  L 122 11.619845200300585  L 122 17.359433980662693  L 119.50170513698815 17.359433980662693  Z " stroke-width="2" stroke-dasharray="0" stroke="rgba(249, 252, 255, 1)" fill="none" transform="matrix(1 0 0 1 154 293 )" class="stroke" mask="url(#Clip86)" />
  </g>
</svg>