<?xml version="1.0" encoding="utf-8"?>
<svg version="1.1" xmlns:xlink="http://www.w3.org/1999/xlink" width="16px" height="18px" xmlns="http://www.w3.org/2000/svg">
  <defs>
    <pattern id="BGPattern" patternUnits="userSpaceOnUse" alignment="0 0" imageRepeat="None" />
    <mask fill="white" id="Clip89">
      <path d="M 9.401960784313726 1.6171875  C 9.186274509803921 1.3962053571428574  8.928104575163399 1.2857142857142851  8.627450980392156 1.2857142857142851  C 8.326797385620916 1.2857142857142851  8.068627450980394 1.3962053571428574  7.852941176470588 1.6171875  C 7.637254901960785 1.8381696428571426  7.529411764705882 2.102678571428571  7.529411764705882 2.410714285714285  L 7.529411764705882 9  L 7.215686274509804 9  L 7.215686274509804 3.696428571428572  C 7.215686274509804 3.388392857142856  7.107843137254902 3.123883928571428  6.892156862745098 2.902901785714285  C 6.676470588235294 2.6819196428571423  6.418300653594772 2.571428571428572  6.117647058823529 2.571428571428572  C 5.816993464052288 2.571428571428572  5.5588235294117645 2.6819196428571423  5.3431372549019605 2.902901785714285  C 5.127450980392157 3.123883928571428  5.019607843137255 3.388392857142856  5.019607843137255 3.696428571428572  L 5.019607843137255 9  L 5.019607843137255 11.57142857142857  L 3.5098039215686274 9.512276785714285  C 3.2614379084967324 9.17075892857143  2.928104575163399 9  2.5098039215686274 9  C 2.163398692810458 9  1.8676470588235294 9.125558035714285  1.6225490196078431 9.376674107142858  C 1.3774509803921569 9.62779017857143  1.2549019607843137 9.930803571428571  1.2549019607843137 10.285714285714285  C 1.2549019607843137 10.573660714285714  1.3398692810457518 10.831473214285714  1.5098039215686274 11.059151785714285  L 5.2745098039215685 16.202008928571427  C 5.522875816993465 16.543526785714285  5.856209150326798 16.714285714285715  6.2745098039215685 16.714285714285715  L 13.019607843137255 16.714285714285715  C 13.241830065359478 16.714285714285715  13.441176470588236 16.640625  13.617647058823529 16.493303571428573  C 13.794117647058824 16.345982142857142  13.905228758169937 16.158482142857142  13.950980392156863 15.930803571428573  L 14.696078431372548 11.862723214285715  C 14.728758169934641 11.648437499999996  14.745098039215685 11.450892857142858  14.745098039215685 11.270089285714285  L 14.745098039215685 6.267857142857142  C 14.745098039215685 5.959821428571429  14.637254901960784 5.6953125  14.42156862745098 5.474330357142858  C 14.205882352941176 5.253348214285715  13.947712418300654 5.142857142857142  13.647058823529411 5.142857142857142  C 13.346405228758172 5.142857142857142  13.088235294117647 5.253348214285715  12.872549019607844 5.474330357142858  C 12.656862745098039 5.6953125  12.549019607843137 5.959821428571429  12.549019607843137 6.267857142857142  L 12.549019607843137 9  L 12.235294117647058 9  L 12.235294117647058 3.696428571428572  C 12.235294117647058 3.388392857142856  12.127450980392156 3.123883928571428  11.911764705882353 2.902901785714285  C 11.696078431372548 2.6819196428571423  11.437908496732026 2.571428571428572  11.137254901960784 2.571428571428572  C 10.836601307189545 2.571428571428572  10.57843137254902 2.6819196428571423  10.362745098039216 2.902901785714285  C 10.147058823529411 3.123883928571428  10.03921568627451 3.388392857142856  10.03921568627451 3.696428571428572  L 10.03921568627451 9  L 9.72549019607843 9  L 9.72549019607843 2.410714285714285  C 9.72549019607843 2.102678571428571  9.617647058823529 1.8381696428571426  9.401960784313726 1.6171875  Z M 7.397058823529412 0.3565848214285723  C 7.772875816993465 0.1188616071428581  8.183006535947714 0  8.627450980392156 0  C 9.071895424836603 0  9.48202614379085 0.1188616071428581  9.857843137254902 0.3565848214285723  C 10.233660130718956 0.5943080357142845  10.522875816993466 0.9174107142857135  10.72549019607843 1.3258928571428574  C 10.84967320261438 1.2991071428571412  10.986928104575163 1.2857142857142851  11.137254901960784 1.2857142857142851  C 11.784313725490197 1.2857142857142851  12.338235294117647 1.5217633928571426  12.799019607843137 1.9938616071428574  C 13.259803921568627 2.465959821428572  13.490196078431373 3.0334821428571423  13.490196078431373 3.696428571428572  L 13.490196078431373 3.8671875  C 14.176470588235293 3.827008928571428  14.766339869281046 4.0412946428571415  15.259803921568627 4.510044642857142  C 15.753267973856211 4.978794642857142  16.000000000000004 5.564732142857142  16 6.267857142857142  L 16 11.270089285714285  C 16.000000000000004 11.537946428571427  15.973856209150329 11.815848214285714  15.92156862745098 12.103794642857142  L 15.176470588235293 16.161830357142858  C 15.08496732026144 16.690848214285715  14.83496732026144 17.129464285714285  14.426470588235293 17.477678571428573  C 14.017973856209151 17.825892857142858  13.549019607843137 18  13.019607843137255 18  L 6.2745098039215685 18  C 5.882352941176471 18  5.508169934640523 17.907924107142858  5.151960784313726 17.723772321428573  C 4.795751633986929 17.539620535714285  4.500000000000001 17.290178571428573  4.264705882352941 16.975446428571427  L 0.5 11.832589285714285  C 0.16666666666666666 11.377232142857142  0 10.861607142857142  0 10.285714285714285  C 0 9.575892857142856  0.24509803921568626 8.969866071428573  0.7352941176470589 8.467633928571427  C 1.2254901960784315 7.965401785714285  1.8169934640522876 7.714285714285715  2.5098039215686274 7.714285714285715  C 3.019607843137255 7.714285714285715  3.4379084967320264 7.828125000000001  3.764705882352941 8.055803571428573  L 3.764705882352941 3.696428571428572  C 3.764705882352941 3.0334821428571423  3.9950980392156863 2.465959821428572  4.455882352941177 1.9938616071428574  C 4.916666666666667 1.5217633928571426  5.470588235294118 1.2857142857142851  6.117647058823529 1.2857142857142851  C 6.26797385620915 1.2857142857142851  6.405228758169935 1.2991071428571412  6.529411764705882 1.3258928571428574  C 6.732026143790851 0.9174107142857135  7.02124183006536 0.5943080357142845  7.397058823529412 0.3565848214285723  Z " fill-rule="evenodd" />
    </mask>
  </defs>
  <g transform="matrix(1 0 0 1 -270 -724 )">
    <path d="M 9.401960784313726 1.6171875  C 9.186274509803921 1.3962053571428574  8.928104575163399 1.2857142857142851  8.627450980392156 1.2857142857142851  C 8.326797385620916 1.2857142857142851  8.068627450980394 1.3962053571428574  7.852941176470588 1.6171875  C 7.637254901960785 1.8381696428571426  7.529411764705882 2.102678571428571  7.529411764705882 2.410714285714285  L 7.529411764705882 9  L 7.215686274509804 9  L 7.215686274509804 3.696428571428572  C 7.215686274509804 3.388392857142856  7.107843137254902 3.123883928571428  6.892156862745098 2.902901785714285  C 6.676470588235294 2.6819196428571423  6.418300653594772 2.571428571428572  6.117647058823529 2.571428571428572  C 5.816993464052288 2.571428571428572  5.5588235294117645 2.6819196428571423  5.3431372549019605 2.902901785714285  C 5.127450980392157 3.123883928571428  5.019607843137255 3.388392857142856  5.019607843137255 3.696428571428572  L 5.019607843137255 9  L 5.019607843137255 11.57142857142857  L 3.5098039215686274 9.512276785714285  C 3.2614379084967324 9.17075892857143  2.928104575163399 9  2.5098039215686274 9  C 2.163398692810458 9  1.8676470588235294 9.125558035714285  1.6225490196078431 9.376674107142858  C 1.3774509803921569 9.62779017857143  1.2549019607843137 9.930803571428571  1.2549019607843137 10.285714285714285  C 1.2549019607843137 10.573660714285714  1.3398692810457518 10.831473214285714  1.5098039215686274 11.059151785714285  L 5.2745098039215685 16.202008928571427  C 5.522875816993465 16.543526785714285  5.856209150326798 16.714285714285715  6.2745098039215685 16.714285714285715  L 13.019607843137255 16.714285714285715  C 13.241830065359478 16.714285714285715  13.441176470588236 16.640625  13.617647058823529 16.493303571428573  C 13.794117647058824 16.345982142857142  13.905228758169937 16.158482142857142  13.950980392156863 15.930803571428573  L 14.696078431372548 11.862723214285715  C 14.728758169934641 11.648437499999996  14.745098039215685 11.450892857142858  14.745098039215685 11.270089285714285  L 14.745098039215685 6.267857142857142  C 14.745098039215685 5.959821428571429  14.637254901960784 5.6953125  14.42156862745098 5.474330357142858  C 14.205882352941176 5.253348214285715  13.947712418300654 5.142857142857142  13.647058823529411 5.142857142857142  C 13.346405228758172 5.142857142857142  13.088235294117647 5.253348214285715  12.872549019607844 5.474330357142858  C 12.656862745098039 5.6953125  12.549019607843137 5.959821428571429  12.549019607843137 6.267857142857142  L 12.549019607843137 9  L 12.235294117647058 9  L 12.235294117647058 3.696428571428572  C 12.235294117647058 3.388392857142856  12.127450980392156 3.123883928571428  11.911764705882353 2.902901785714285  C 11.696078431372548 2.6819196428571423  11.437908496732026 2.571428571428572  11.137254901960784 2.571428571428572  C 10.836601307189545 2.571428571428572  10.57843137254902 2.6819196428571423  10.362745098039216 2.902901785714285  C 10.147058823529411 3.123883928571428  10.03921568627451 3.388392857142856  10.03921568627451 3.696428571428572  L 10.03921568627451 9  L 9.72549019607843 9  L 9.72549019607843 2.410714285714285  C 9.72549019607843 2.102678571428571  9.617647058823529 1.8381696428571426  9.401960784313726 1.6171875  Z M 7.397058823529412 0.3565848214285723  C 7.772875816993465 0.1188616071428581  8.183006535947714 0  8.627450980392156 0  C 9.071895424836603 0  9.48202614379085 0.1188616071428581  9.857843137254902 0.3565848214285723  C 10.233660130718956 0.5943080357142845  10.522875816993466 0.9174107142857135  10.72549019607843 1.3258928571428574  C 10.84967320261438 1.2991071428571412  10.986928104575163 1.2857142857142851  11.137254901960784 1.2857142857142851  C 11.784313725490197 1.2857142857142851  12.338235294117647 1.5217633928571426  12.799019607843137 1.9938616071428574  C 13.259803921568627 2.465959821428572  13.490196078431373 3.0334821428571423  13.490196078431373 3.696428571428572  L 13.490196078431373 3.8671875  C 14.176470588235293 3.827008928571428  14.766339869281046 4.0412946428571415  15.259803921568627 4.510044642857142  C 15.753267973856211 4.978794642857142  16.000000000000004 5.564732142857142  16 6.267857142857142  L 16 11.270089285714285  C 16.000000000000004 11.537946428571427  15.973856209150329 11.815848214285714  15.92156862745098 12.103794642857142  L 15.176470588235293 16.161830357142858  C 15.08496732026144 16.690848214285715  14.83496732026144 17.129464285714285  14.426470588235293 17.477678571428573  C 14.017973856209151 17.825892857142858  13.549019607843137 18  13.019607843137255 18  L 6.2745098039215685 18  C 5.882352941176471 18  5.508169934640523 17.907924107142858  5.151960784313726 17.723772321428573  C 4.795751633986929 17.539620535714285  4.500000000000001 17.290178571428573  4.264705882352941 16.975446428571427  L 0.5 11.832589285714285  C 0.16666666666666666 11.377232142857142  0 10.861607142857142  0 10.285714285714285  C 0 9.575892857142856  0.24509803921568626 8.969866071428573  0.7352941176470589 8.467633928571427  C 1.2254901960784315 7.965401785714285  1.8169934640522876 7.714285714285715  2.5098039215686274 7.714285714285715  C 3.019607843137255 7.714285714285715  3.4379084967320264 7.828125000000001  3.764705882352941 8.055803571428573  L 3.764705882352941 3.696428571428572  C 3.764705882352941 3.0334821428571423  3.9950980392156863 2.465959821428572  4.455882352941177 1.9938616071428574  C 4.916666666666667 1.5217633928571426  5.470588235294118 1.2857142857142851  6.117647058823529 1.2857142857142851  C 6.26797385620915 1.2857142857142851  6.405228758169935 1.2991071428571412  6.529411764705882 1.3258928571428574  C 6.732026143790851 0.9174107142857135  7.02124183006536 0.5943080357142845  7.397058823529412 0.3565848214285723  Z " fill-rule="nonzero" fill="rgba(22, 155, 213, 1)" stroke="none" transform="matrix(1 0 0 1 270 724 )" class="fill" />
    <path d="M 9.401960784313726 1.6171875  C 9.186274509803921 1.3962053571428574  8.928104575163399 1.2857142857142851  8.627450980392156 1.2857142857142851  C 8.326797385620916 1.2857142857142851  8.068627450980394 1.3962053571428574  7.852941176470588 1.6171875  C 7.637254901960785 1.8381696428571426  7.529411764705882 2.102678571428571  7.529411764705882 2.410714285714285  L 7.529411764705882 9  L 7.215686274509804 9  L 7.215686274509804 3.696428571428572  C 7.215686274509804 3.388392857142856  7.107843137254902 3.123883928571428  6.892156862745098 2.902901785714285  C 6.676470588235294 2.6819196428571423  6.418300653594772 2.571428571428572  6.117647058823529 2.571428571428572  C 5.816993464052288 2.571428571428572  5.5588235294117645 2.6819196428571423  5.3431372549019605 2.902901785714285  C 5.127450980392157 3.123883928571428  5.019607843137255 3.388392857142856  5.019607843137255 3.696428571428572  L 5.019607843137255 9  L 5.019607843137255 11.57142857142857  L 3.5098039215686274 9.512276785714285  C 3.2614379084967324 9.17075892857143  2.928104575163399 9  2.5098039215686274 9  C 2.163398692810458 9  1.8676470588235294 9.125558035714285  1.6225490196078431 9.376674107142858  C 1.3774509803921569 9.62779017857143  1.2549019607843137 9.930803571428571  1.2549019607843137 10.285714285714285  C 1.2549019607843137 10.573660714285714  1.3398692810457518 10.831473214285714  1.5098039215686274 11.059151785714285  L 5.2745098039215685 16.202008928571427  C 5.522875816993465 16.543526785714285  5.856209150326798 16.714285714285715  6.2745098039215685 16.714285714285715  L 13.019607843137255 16.714285714285715  C 13.241830065359478 16.714285714285715  13.441176470588236 16.640625  13.617647058823529 16.493303571428573  C 13.794117647058824 16.345982142857142  13.905228758169937 16.158482142857142  13.950980392156863 15.930803571428573  L 14.696078431372548 11.862723214285715  C 14.728758169934641 11.648437499999996  14.745098039215685 11.450892857142858  14.745098039215685 11.270089285714285  L 14.745098039215685 6.267857142857142  C 14.745098039215685 5.959821428571429  14.637254901960784 5.6953125  14.42156862745098 5.474330357142858  C 14.205882352941176 5.253348214285715  13.947712418300654 5.142857142857142  13.647058823529411 5.142857142857142  C 13.346405228758172 5.142857142857142  13.088235294117647 5.253348214285715  12.872549019607844 5.474330357142858  C 12.656862745098039 5.6953125  12.549019607843137 5.959821428571429  12.549019607843137 6.267857142857142  L 12.549019607843137 9  L 12.235294117647058 9  L 12.235294117647058 3.696428571428572  C 12.235294117647058 3.388392857142856  12.127450980392156 3.123883928571428  11.911764705882353 2.902901785714285  C 11.696078431372548 2.6819196428571423  11.437908496732026 2.571428571428572  11.137254901960784 2.571428571428572  C 10.836601307189545 2.571428571428572  10.57843137254902 2.6819196428571423  10.362745098039216 2.902901785714285  C 10.147058823529411 3.123883928571428  10.03921568627451 3.388392857142856  10.03921568627451 3.696428571428572  L 10.03921568627451 9  L 9.72549019607843 9  L 9.72549019607843 2.410714285714285  C 9.72549019607843 2.102678571428571  9.617647058823529 1.8381696428571426  9.401960784313726 1.6171875  Z " stroke-width="0" stroke-dasharray="0" stroke="rgba(255, 255, 255, 0)" fill="none" transform="matrix(1 0 0 1 270 724 )" class="stroke" mask="url(#Clip89)" />
    <path d="M 7.397058823529412 0.3565848214285723  C 7.772875816993465 0.1188616071428581  8.183006535947714 0  8.627450980392156 0  C 9.071895424836603 0  9.48202614379085 0.1188616071428581  9.857843137254902 0.3565848214285723  C 10.233660130718956 0.5943080357142845  10.522875816993466 0.9174107142857135  10.72549019607843 1.3258928571428574  C 10.84967320261438 1.2991071428571412  10.986928104575163 1.2857142857142851  11.137254901960784 1.2857142857142851  C 11.784313725490197 1.2857142857142851  12.338235294117647 1.5217633928571426  12.799019607843137 1.9938616071428574  C 13.259803921568627 2.465959821428572  13.490196078431373 3.0334821428571423  13.490196078431373 3.696428571428572  L 13.490196078431373 3.8671875  C 14.176470588235293 3.827008928571428  14.766339869281046 4.0412946428571415  15.259803921568627 4.510044642857142  C 15.753267973856211 4.978794642857142  16.000000000000004 5.564732142857142  16 6.267857142857142  L 16 11.270089285714285  C 16.000000000000004 11.537946428571427  15.973856209150329 11.815848214285714  15.92156862745098 12.103794642857142  L 15.176470588235293 16.161830357142858  C 15.08496732026144 16.690848214285715  14.83496732026144 17.129464285714285  14.426470588235293 17.477678571428573  C 14.017973856209151 17.825892857142858  13.549019607843137 18  13.019607843137255 18  L 6.2745098039215685 18  C 5.882352941176471 18  5.508169934640523 17.907924107142858  5.151960784313726 17.723772321428573  C 4.795751633986929 17.539620535714285  4.500000000000001 17.290178571428573  4.264705882352941 16.975446428571427  L 0.5 11.832589285714285  C 0.16666666666666666 11.377232142857142  0 10.861607142857142  0 10.285714285714285  C 0 9.575892857142856  0.24509803921568626 8.969866071428573  0.7352941176470589 8.467633928571427  C 1.2254901960784315 7.965401785714285  1.8169934640522876 7.714285714285715  2.5098039215686274 7.714285714285715  C 3.019607843137255 7.714285714285715  3.4379084967320264 7.828125000000001  3.764705882352941 8.055803571428573  L 3.764705882352941 3.696428571428572  C 3.764705882352941 3.0334821428571423  3.9950980392156863 2.465959821428572  4.455882352941177 1.9938616071428574  C 4.916666666666667 1.5217633928571426  5.470588235294118 1.2857142857142851  6.117647058823529 1.2857142857142851  C 6.26797385620915 1.2857142857142851  6.405228758169935 1.2991071428571412  6.529411764705882 1.3258928571428574  C 6.732026143790851 0.9174107142857135  7.02124183006536 0.5943080357142845  7.397058823529412 0.3565848214285723  Z " stroke-width="0" stroke-dasharray="0" stroke="rgba(255, 255, 255, 0)" fill="none" transform="matrix(1 0 0 1 270 724 )" class="stroke" mask="url(#Clip89)" />
  </g>
</svg>