<?xml version="1.0" encoding="utf-8"?>
<svg version="1.1" xmlns:xlink="http://www.w3.org/1999/xlink" width="24px" height="24px" xmlns="http://www.w3.org/2000/svg">
  <defs>
    <pattern id="BGPattern" patternUnits="userSpaceOnUse" alignment="0 0" imageRepeat="None" />
    <mask fill="white" id="Clip90">
      <path d="M 15.59375 15.343750000000002  C 16.552083333333336 14.447916666666664  17.6875 13.999999999999998  19 13.999999999999998  C 20.385416666666668 13.999999999999998  21.565104166666668 14.486979166666666  22.5390625 15.460937500000002  C 23.513020833333332 16.434895833333332  24 17.61458333333333  24 19  C 24 20.385416666666668  23.513020833333332 21.565104166666668  22.5390625 22.5390625  C 21.565104166666668 23.513020833333332  20.385416666666668 24  19 24  C 17.614583333333336 24  16.434895833333336 23.513020833333332  15.4609375 22.5390625  C 14.486979166666668 21.565104166666668  14 20.385416666666668  14 19  C 14 18.875  14.010416666666668 18.697916666666664  14.03125 18.46875  L 8.40625 15.65625  C 7.447916666666666 16.552083333333332  6.3125 17  5 17  C 3.6145833333333335 17  2.4348958333333335 16.51302083333333  1.4609375 15.5390625  C 0.48697916666666663 14.565104166666664  0 13.385416666666666  0 12  C 0 10.614583333333332  0.48697916666666663 9.434895833333332  1.4609375 8.4609375  C 2.4348958333333335 7.486979166666664  3.6145833333333335 6.999999999999999  5 6.999999999999999  C 6.3125 6.999999999999999  7.447916666666666 7.447916666666665  8.40625 8.34375  L 14.03125 5.53125  C 14.010416666666668 5.302083333333332  14 5.124999999999999  14 5.000000000000001  C 14 3.614583333333332  14.486979166666668 2.4348958333333313  15.4609375 1.4609375000000009  C 16.434895833333336 0.4869791666666652  17.614583333333336 0  19 0  C 20.385416666666668 0  21.565104166666668 0.4869791666666652  22.5390625 1.4609375000000009  C 23.513020833333332 2.4348958333333313  24 3.614583333333332  24 5.000000000000001  C 24 6.385416666666664  23.513020833333332 7.565104166666665  22.5390625 8.5390625  C 21.565104166666668 9.513020833333334  20.385416666666668 10  19 10  C 17.6875 10  16.552083333333336 9.552083333333332  15.59375 8.65625  L 9.96875 11.46875  C 9.989583333333334 11.697916666666666  10 11.875  10 12  C 10 12.124999999999998  9.989583333333334 12.302083333333334  9.96875 12.531250000000002  L 15.59375 15.343750000000002  Z " fill-rule="evenodd" />
    </mask>
  </defs>
  <g transform="matrix(1 0 0 1 -272 -243 )">
    <path d="M 15.59375 15.343750000000002  C 16.552083333333336 14.447916666666664  17.6875 13.999999999999998  19 13.999999999999998  C 20.385416666666668 13.999999999999998  21.565104166666668 14.486979166666666  22.5390625 15.460937500000002  C 23.513020833333332 16.434895833333332  24 17.61458333333333  24 19  C 24 20.385416666666668  23.513020833333332 21.565104166666668  22.5390625 22.5390625  C 21.565104166666668 23.513020833333332  20.385416666666668 24  19 24  C 17.614583333333336 24  16.434895833333336 23.513020833333332  15.4609375 22.5390625  C 14.486979166666668 21.565104166666668  14 20.385416666666668  14 19  C 14 18.875  14.010416666666668 18.697916666666664  14.03125 18.46875  L 8.40625 15.65625  C 7.447916666666666 16.552083333333332  6.3125 17  5 17  C 3.6145833333333335 17  2.4348958333333335 16.51302083333333  1.4609375 15.5390625  C 0.48697916666666663 14.565104166666664  0 13.385416666666666  0 12  C 0 10.614583333333332  0.48697916666666663 9.434895833333332  1.4609375 8.4609375  C 2.4348958333333335 7.486979166666664  3.6145833333333335 6.999999999999999  5 6.999999999999999  C 6.3125 6.999999999999999  7.447916666666666 7.447916666666665  8.40625 8.34375  L 14.03125 5.53125  C 14.010416666666668 5.302083333333332  14 5.124999999999999  14 5.000000000000001  C 14 3.614583333333332  14.486979166666668 2.4348958333333313  15.4609375 1.4609375000000009  C 16.434895833333336 0.4869791666666652  17.614583333333336 0  19 0  C 20.385416666666668 0  21.565104166666668 0.4869791666666652  22.5390625 1.4609375000000009  C 23.513020833333332 2.4348958333333313  24 3.614583333333332  24 5.000000000000001  C 24 6.385416666666664  23.513020833333332 7.565104166666665  22.5390625 8.5390625  C 21.565104166666668 9.513020833333334  20.385416666666668 10  19 10  C 17.6875 10  16.552083333333336 9.552083333333332  15.59375 8.65625  L 9.96875 11.46875  C 9.989583333333334 11.697916666666666  10 11.875  10 12  C 10 12.124999999999998  9.989583333333334 12.302083333333334  9.96875 12.531250000000002  L 15.59375 15.343750000000002  Z " fill-rule="nonzero" fill="rgba(22, 155, 213, 1)" stroke="none" transform="matrix(1 0 0 1 272 243 )" class="fill" />
    <path d="M 15.59375 15.343750000000002  C 16.552083333333336 14.447916666666664  17.6875 13.999999999999998  19 13.999999999999998  C 20.385416666666668 13.999999999999998  21.565104166666668 14.486979166666666  22.5390625 15.460937500000002  C 23.513020833333332 16.434895833333332  24 17.61458333333333  24 19  C 24 20.385416666666668  23.513020833333332 21.565104166666668  22.5390625 22.5390625  C 21.565104166666668 23.513020833333332  20.385416666666668 24  19 24  C 17.614583333333336 24  16.434895833333336 23.513020833333332  15.4609375 22.5390625  C 14.486979166666668 21.565104166666668  14 20.385416666666668  14 19  C 14 18.875  14.010416666666668 18.697916666666664  14.03125 18.46875  L 8.40625 15.65625  C 7.447916666666666 16.552083333333332  6.3125 17  5 17  C 3.6145833333333335 17  2.4348958333333335 16.51302083333333  1.4609375 15.5390625  C 0.48697916666666663 14.565104166666664  0 13.385416666666666  0 12  C 0 10.614583333333332  0.48697916666666663 9.434895833333332  1.4609375 8.4609375  C 2.4348958333333335 7.486979166666664  3.6145833333333335 6.999999999999999  5 6.999999999999999  C 6.3125 6.999999999999999  7.447916666666666 7.447916666666665  8.40625 8.34375  L 14.03125 5.53125  C 14.010416666666668 5.302083333333332  14 5.124999999999999  14 5.000000000000001  C 14 3.614583333333332  14.486979166666668 2.4348958333333313  15.4609375 1.4609375000000009  C 16.434895833333336 0.4869791666666652  17.614583333333336 0  19 0  C 20.385416666666668 0  21.565104166666668 0.4869791666666652  22.5390625 1.4609375000000009  C 23.513020833333332 2.4348958333333313  24 3.614583333333332  24 5.000000000000001  C 24 6.385416666666664  23.513020833333332 7.565104166666665  22.5390625 8.5390625  C 21.565104166666668 9.513020833333334  20.385416666666668 10  19 10  C 17.6875 10  16.552083333333336 9.552083333333332  15.59375 8.65625  L 9.96875 11.46875  C 9.989583333333334 11.697916666666666  10 11.875  10 12  C 10 12.124999999999998  9.989583333333334 12.302083333333334  9.96875 12.531250000000002  L 15.59375 15.343750000000002  Z " stroke-width="0" stroke-dasharray="0" stroke="rgba(255, 255, 255, 0)" fill="none" transform="matrix(1 0 0 1 272 243 )" class="stroke" mask="url(#Clip90)" />
  </g>
</svg>