<?xml version="1.0" encoding="utf-8"?>
<svg version="1.1" xmlns:xlink="http://www.w3.org/1999/xlink" width="22px" height="24px" xmlns="http://www.w3.org/2000/svg">
  <defs>
    <pattern id="BGPattern" patternUnits="userSpaceOnUse" alignment="0 0" imageRepeat="None" />
    <mask fill="white" id="Clip92">
      <path d="M 18.615384615384617 3.4285714285714297  L 20.30769230769231 3.4285714285714297  C 20.766025641025642 3.4285714285714297  21.16266025641026 3.598214285714283  21.497596153846153 3.9375  C 21.832532051282055 4.276785714285714  22 4.678571428571428  22 5.142857142857143  L 22 22.285714285714285  C 22 22.75  21.832532051282055 23.151785714285715  21.497596153846153 23.49107142857143  C 21.16266025641026 23.830357142857142  20.766025641025642 24  20.30769230769231 24  L 1.6923076923076925 24  C 1.2339743589743593 24  0.8373397435897436 23.830357142857142  0.5024038461538461 23.49107142857143  C 0.1674679487179487 23.151785714285715  0 22.75  0 22.285714285714285  L 0 5.142857142857143  C 0 4.678571428571428  0.1674679487179487 4.276785714285714  0.5024038461538461 3.9375  C 0.8373397435897436 3.598214285714283  1.2339743589743593 3.4285714285714297  1.6923076923076925 3.4285714285714297  L 3.384615384615385 3.4285714285714297  L 3.384615384615385 2.1428571428571432  C 3.384615384615385 1.5535714285714297  3.5917467948717947 1.0491071428571415  4.006009615384615 0.6294642857142865  C 4.420272435897437 0.20982142857142883  4.918269230769231 0  5.5 0  L 6.346153846153846 0  C 6.927884615384615 0  7.4258814102564115 0.20982142857142883  7.84014423076923 0.6294642857142865  C 8.254407051282051 1.0491071428571415  8.461538461538462 1.5535714285714297  8.461538461538462 2.1428571428571432  L 8.461538461538462 3.4285714285714297  L 13.53846153846154 3.4285714285714297  L 13.53846153846154 2.1428571428571432  C 13.53846153846154 1.5535714285714297  13.745592948717949 1.0491071428571415  14.15985576923077 0.6294642857142865  C 14.574118589743593 0.20982142857142883  15.072115384615385 0  15.653846153846155 0  L 16.5 0  C 17.08173076923077 0  17.579727564102566 0.20982142857142883  17.993990384615383 0.6294642857142865  C 18.408253205128208 1.0491071428571415  18.615384615384617 1.5535714285714297  18.615384615384617 2.1428571428571432  L 18.615384615384617 3.4285714285714297  Z M 15.349759615384615 1.8348214285714297  C 15.270432692307692 1.9151785714285703  15.23076923076923 2.0178571428571397  15.23076923076923 2.1428571428571432  L 15.23076923076923 6  C 15.23076923076923 6.124999999999998  15.270432692307692 6.22767857142857  15.349759615384615 6.3080357142857135  C 15.42908653846154 6.388392857142857  15.530448717948719 6.42857142857143  15.653846153846155 6.42857142857143  L 16.5 6.42857142857143  C 16.623397435897438 6.42857142857143  16.724759615384617 6.388392857142857  16.80408653846154 6.3080357142857135  C 16.88341346153846 6.22767857142857  16.923076923076923 6.124999999999998  16.923076923076923 6  L 16.923076923076923 2.1428571428571432  C 16.923076923076923 2.0178571428571397  16.88341346153846 1.9151785714285703  16.80408653846154 1.8348214285714297  C 16.724759615384617 1.7544642857142865  16.623397435897438 1.7142857142857135  16.5 1.7142857142857135  L 15.653846153846155 1.7142857142857135  C 15.530448717948719 1.7142857142857135  15.42908653846154 1.7544642857142865  15.349759615384615 1.8348214285714297  Z M 5.195913461538462 1.8348214285714297  C 5.116586538461538 1.9151785714285703  5.0769230769230775 2.0178571428571397  5.0769230769230775 2.1428571428571432  L 5.0769230769230775 6  C 5.0769230769230775 6.124999999999998  5.116586538461538 6.22767857142857  5.195913461538462 6.3080357142857135  C 5.275240384615385 6.388392857142857  5.376602564102565 6.42857142857143  5.5 6.42857142857143  L 6.346153846153846 6.42857142857143  C 6.469551282051282 6.42857142857143  6.570913461538462 6.388392857142857  6.650240384615385 6.3080357142857135  C 6.7295673076923075 6.22767857142857  6.76923076923077 6.124999999999998  6.76923076923077 6  L 6.76923076923077 2.1428571428571432  C 6.76923076923077 2.0178571428571397  6.7295673076923075 1.9151785714285703  6.650240384615385 1.8348214285714297  C 6.570913461538462 1.7544642857142865  6.469551282051282 1.7142857142857135  6.346153846153846 1.7142857142857135  L 5.5 1.7142857142857135  C 5.376602564102565 1.7142857142857135  5.275240384615385 1.7544642857142865  5.195913461538462 1.8348214285714297  Z M 2 22  L 20 22  L 20 9  L 2 9  L 2 22  Z M 11.846153846153845 11.57142857142857  L 11.846153846153845 14.571428571428573  L 14.807692307692308 14.571428571428573  C 14.931089743589746 14.571428571428573  15.032451923076923 14.611607142857142  15.111778846153845 14.691964285714286  C 15.19110576923077 14.772321428571427  15.23076923076923 14.874999999999996  15.23076923076923 15  L 15.23076923076923 15.857142857142858  C 15.23076923076923 15.982142857142858  15.19110576923077 16.084821428571427  15.111778846153845 16.165178571428573  C 15.032451923076923 16.245535714285715  14.931089743589746 16.285714285714285  14.807692307692308 16.285714285714285  L 11.846153846153845 16.285714285714285  L 11.846153846153845 19.285714285714285  C 11.846153846153845 19.410714285714285  11.806490384615385 19.513392857142858  11.72716346153846 19.59375  C 11.64783653846154 19.674107142857142  11.54647435897436 19.714285714285715  11.423076923076923 19.714285714285715  L 10.576923076923077 19.714285714285715  C 10.453525641025642 19.714285714285715  10.352163461538463 19.674107142857142  10.272836538461538 19.59375  C 10.193509615384615 19.513392857142858  10.153846153846155 19.410714285714285  10.153846153846155 19.285714285714285  L 10.153846153846155 16.285714285714285  L 7.1923076923076925 16.285714285714285  C 7.068910256410257 16.285714285714285  6.9675480769230775 16.245535714285715  6.888221153846154 16.165178571428573  C 6.80889423076923 16.084821428571427  6.76923076923077 15.982142857142858  6.76923076923077 15.857142857142858  L 6.76923076923077 15  C 6.76923076923077 14.874999999999996  6.80889423076923 14.772321428571427  6.888221153846154 14.691964285714286  C 6.9675480769230775 14.611607142857142  7.068910256410257 14.571428571428573  7.1923076923076925 14.571428571428573  L 10.153846153846155 14.571428571428573  L 10.153846153846155 11.57142857142857  C 10.153846153846155 11.446428571428573  10.193509615384615 11.34375  10.272836538461538 11.263392857142858  C 10.352163461538463 11.183035714285714  10.453525641025642 11.142857142857142  10.576923076923077 11.142857142857142  L 11.423076923076923 11.142857142857142  C 11.54647435897436 11.142857142857142  11.64783653846154 11.183035714285714  11.72716346153846 11.263392857142858  C 11.806490384615385 11.34375  11.846153846153845 11.446428571428573  11.846153846153845 11.57142857142857  Z " fill-rule="evenodd" />
    </mask>
  </defs>
  <g transform="matrix(1 0 0 1 -319 -243 )">
    <path d="M 18.615384615384617 3.4285714285714297  L 20.30769230769231 3.4285714285714297  C 20.766025641025642 3.4285714285714297  21.16266025641026 3.598214285714283  21.497596153846153 3.9375  C 21.832532051282055 4.276785714285714  22 4.678571428571428  22 5.142857142857143  L 22 22.285714285714285  C 22 22.75  21.832532051282055 23.151785714285715  21.497596153846153 23.49107142857143  C 21.16266025641026 23.830357142857142  20.766025641025642 24  20.30769230769231 24  L 1.6923076923076925 24  C 1.2339743589743593 24  0.8373397435897436 23.830357142857142  0.5024038461538461 23.49107142857143  C 0.1674679487179487 23.151785714285715  0 22.75  0 22.285714285714285  L 0 5.142857142857143  C 0 4.678571428571428  0.1674679487179487 4.276785714285714  0.5024038461538461 3.9375  C 0.8373397435897436 3.598214285714283  1.2339743589743593 3.4285714285714297  1.6923076923076925 3.4285714285714297  L 3.384615384615385 3.4285714285714297  L 3.384615384615385 2.1428571428571432  C 3.384615384615385 1.5535714285714297  3.5917467948717947 1.0491071428571415  4.006009615384615 0.6294642857142865  C 4.420272435897437 0.20982142857142883  4.918269230769231 0  5.5 0  L 6.346153846153846 0  C 6.927884615384615 0  7.4258814102564115 0.20982142857142883  7.84014423076923 0.6294642857142865  C 8.254407051282051 1.0491071428571415  8.461538461538462 1.5535714285714297  8.461538461538462 2.1428571428571432  L 8.461538461538462 3.4285714285714297  L 13.53846153846154 3.4285714285714297  L 13.53846153846154 2.1428571428571432  C 13.53846153846154 1.5535714285714297  13.745592948717949 1.0491071428571415  14.15985576923077 0.6294642857142865  C 14.574118589743593 0.20982142857142883  15.072115384615385 0  15.653846153846155 0  L 16.5 0  C 17.08173076923077 0  17.579727564102566 0.20982142857142883  17.993990384615383 0.6294642857142865  C 18.408253205128208 1.0491071428571415  18.615384615384617 1.5535714285714297  18.615384615384617 2.1428571428571432  L 18.615384615384617 3.4285714285714297  Z M 15.349759615384615 1.8348214285714297  C 15.270432692307692 1.9151785714285703  15.23076923076923 2.0178571428571397  15.23076923076923 2.1428571428571432  L 15.23076923076923 6  C 15.23076923076923 6.124999999999998  15.270432692307692 6.22767857142857  15.349759615384615 6.3080357142857135  C 15.42908653846154 6.388392857142857  15.530448717948719 6.42857142857143  15.653846153846155 6.42857142857143  L 16.5 6.42857142857143  C 16.623397435897438 6.42857142857143  16.724759615384617 6.388392857142857  16.80408653846154 6.3080357142857135  C 16.88341346153846 6.22767857142857  16.923076923076923 6.124999999999998  16.923076923076923 6  L 16.923076923076923 2.1428571428571432  C 16.923076923076923 2.0178571428571397  16.88341346153846 1.9151785714285703  16.80408653846154 1.8348214285714297  C 16.724759615384617 1.7544642857142865  16.623397435897438 1.7142857142857135  16.5 1.7142857142857135  L 15.653846153846155 1.7142857142857135  C 15.530448717948719 1.7142857142857135  15.42908653846154 1.7544642857142865  15.349759615384615 1.8348214285714297  Z M 5.195913461538462 1.8348214285714297  C 5.116586538461538 1.9151785714285703  5.0769230769230775 2.0178571428571397  5.0769230769230775 2.1428571428571432  L 5.0769230769230775 6  C 5.0769230769230775 6.124999999999998  5.116586538461538 6.22767857142857  5.195913461538462 6.3080357142857135  C 5.275240384615385 6.388392857142857  5.376602564102565 6.42857142857143  5.5 6.42857142857143  L 6.346153846153846 6.42857142857143  C 6.469551282051282 6.42857142857143  6.570913461538462 6.388392857142857  6.650240384615385 6.3080357142857135  C 6.7295673076923075 6.22767857142857  6.76923076923077 6.124999999999998  6.76923076923077 6  L 6.76923076923077 2.1428571428571432  C 6.76923076923077 2.0178571428571397  6.7295673076923075 1.9151785714285703  6.650240384615385 1.8348214285714297  C 6.570913461538462 1.7544642857142865  6.469551282051282 1.7142857142857135  6.346153846153846 1.7142857142857135  L 5.5 1.7142857142857135  C 5.376602564102565 1.7142857142857135  5.275240384615385 1.7544642857142865  5.195913461538462 1.8348214285714297  Z M 2 22  L 20 22  L 20 9  L 2 9  L 2 22  Z M 11.846153846153845 11.57142857142857  L 11.846153846153845 14.571428571428573  L 14.807692307692308 14.571428571428573  C 14.931089743589746 14.571428571428573  15.032451923076923 14.611607142857142  15.111778846153845 14.691964285714286  C 15.19110576923077 14.772321428571427  15.23076923076923 14.874999999999996  15.23076923076923 15  L 15.23076923076923 15.857142857142858  C 15.23076923076923 15.982142857142858  15.19110576923077 16.084821428571427  15.111778846153845 16.165178571428573  C 15.032451923076923 16.245535714285715  14.931089743589746 16.285714285714285  14.807692307692308 16.285714285714285  L 11.846153846153845 16.285714285714285  L 11.846153846153845 19.285714285714285  C 11.846153846153845 19.410714285714285  11.806490384615385 19.513392857142858  11.72716346153846 19.59375  C 11.64783653846154 19.674107142857142  11.54647435897436 19.714285714285715  11.423076923076923 19.714285714285715  L 10.576923076923077 19.714285714285715  C 10.453525641025642 19.714285714285715  10.352163461538463 19.674107142857142  10.272836538461538 19.59375  C 10.193509615384615 19.513392857142858  10.153846153846155 19.410714285714285  10.153846153846155 19.285714285714285  L 10.153846153846155 16.285714285714285  L 7.1923076923076925 16.285714285714285  C 7.068910256410257 16.285714285714285  6.9675480769230775 16.245535714285715  6.888221153846154 16.165178571428573  C 6.80889423076923 16.084821428571427  6.76923076923077 15.982142857142858  6.76923076923077 15.857142857142858  L 6.76923076923077 15  C 6.76923076923077 14.874999999999996  6.80889423076923 14.772321428571427  6.888221153846154 14.691964285714286  C 6.9675480769230775 14.611607142857142  7.068910256410257 14.571428571428573  7.1923076923076925 14.571428571428573  L 10.153846153846155 14.571428571428573  L 10.153846153846155 11.57142857142857  C 10.153846153846155 11.446428571428573  10.193509615384615 11.34375  10.272836538461538 11.263392857142858  C 10.352163461538463 11.183035714285714  10.453525641025642 11.142857142857142  10.576923076923077 11.142857142857142  L 11.423076923076923 11.142857142857142  C 11.54647435897436 11.142857142857142  11.64783653846154 11.183035714285714  11.72716346153846 11.263392857142858  C 11.806490384615385 11.34375  11.846153846153845 11.446428571428573  11.846153846153845 11.57142857142857  Z " fill-rule="nonzero" fill="rgba(2, 167, 240, 1)" stroke="none" transform="matrix(1 0 0 1 319 243 )" class="fill" />
    <path d="M 18.615384615384617 3.4285714285714297  L 20.30769230769231 3.4285714285714297  C 20.766025641025642 3.4285714285714297  21.16266025641026 3.598214285714283  21.497596153846153 3.9375  C 21.832532051282055 4.276785714285714  22 4.678571428571428  22 5.142857142857143  L 22 22.285714285714285  C 22 22.75  21.832532051282055 23.151785714285715  21.497596153846153 23.49107142857143  C 21.16266025641026 23.830357142857142  20.766025641025642 24  20.30769230769231 24  L 1.6923076923076925 24  C 1.2339743589743593 24  0.8373397435897436 23.830357142857142  0.5024038461538461 23.49107142857143  C 0.1674679487179487 23.151785714285715  0 22.75  0 22.285714285714285  L 0 5.142857142857143  C 0 4.678571428571428  0.1674679487179487 4.276785714285714  0.5024038461538461 3.9375  C 0.8373397435897436 3.598214285714283  1.2339743589743593 3.4285714285714297  1.6923076923076925 3.4285714285714297  L 3.384615384615385 3.4285714285714297  L 3.384615384615385 2.1428571428571432  C 3.384615384615385 1.5535714285714297  3.5917467948717947 1.0491071428571415  4.006009615384615 0.6294642857142865  C 4.420272435897437 0.20982142857142883  4.918269230769231 0  5.5 0  L 6.346153846153846 0  C 6.927884615384615 0  7.4258814102564115 0.20982142857142883  7.84014423076923 0.6294642857142865  C 8.254407051282051 1.0491071428571415  8.461538461538462 1.5535714285714297  8.461538461538462 2.1428571428571432  L 8.461538461538462 3.4285714285714297  L 13.53846153846154 3.4285714285714297  L 13.53846153846154 2.1428571428571432  C 13.53846153846154 1.5535714285714297  13.745592948717949 1.0491071428571415  14.15985576923077 0.6294642857142865  C 14.574118589743593 0.20982142857142883  15.072115384615385 0  15.653846153846155 0  L 16.5 0  C 17.08173076923077 0  17.579727564102566 0.20982142857142883  17.993990384615383 0.6294642857142865  C 18.408253205128208 1.0491071428571415  18.615384615384617 1.5535714285714297  18.615384615384617 2.1428571428571432  L 18.615384615384617 3.4285714285714297  Z " stroke-width="0" stroke-dasharray="0" stroke="rgba(255, 255, 255, 0)" fill="none" transform="matrix(1 0 0 1 319 243 )" class="stroke" mask="url(#Clip92)" />
    <path d="M 15.349759615384615 1.8348214285714297  C 15.270432692307692 1.9151785714285703  15.23076923076923 2.0178571428571397  15.23076923076923 2.1428571428571432  L 15.23076923076923 6  C 15.23076923076923 6.124999999999998  15.270432692307692 6.22767857142857  15.349759615384615 6.3080357142857135  C 15.42908653846154 6.388392857142857  15.530448717948719 6.42857142857143  15.653846153846155 6.42857142857143  L 16.5 6.42857142857143  C 16.623397435897438 6.42857142857143  16.724759615384617 6.388392857142857  16.80408653846154 6.3080357142857135  C 16.88341346153846 6.22767857142857  16.923076923076923 6.124999999999998  16.923076923076923 6  L 16.923076923076923 2.1428571428571432  C 16.923076923076923 2.0178571428571397  16.88341346153846 1.9151785714285703  16.80408653846154 1.8348214285714297  C 16.724759615384617 1.7544642857142865  16.623397435897438 1.7142857142857135  16.5 1.7142857142857135  L 15.653846153846155 1.7142857142857135  C 15.530448717948719 1.7142857142857135  15.42908653846154 1.7544642857142865  15.349759615384615 1.8348214285714297  Z " stroke-width="0" stroke-dasharray="0" stroke="rgba(255, 255, 255, 0)" fill="none" transform="matrix(1 0 0 1 319 243 )" class="stroke" mask="url(#Clip92)" />
    <path d="M 5.195913461538462 1.8348214285714297  C 5.116586538461538 1.9151785714285703  5.0769230769230775 2.0178571428571397  5.0769230769230775 2.1428571428571432  L 5.0769230769230775 6  C 5.0769230769230775 6.124999999999998  5.116586538461538 6.22767857142857  5.195913461538462 6.3080357142857135  C 5.275240384615385 6.388392857142857  5.376602564102565 6.42857142857143  5.5 6.42857142857143  L 6.346153846153846 6.42857142857143  C 6.469551282051282 6.42857142857143  6.570913461538462 6.388392857142857  6.650240384615385 6.3080357142857135  C 6.7295673076923075 6.22767857142857  6.76923076923077 6.124999999999998  6.76923076923077 6  L 6.76923076923077 2.1428571428571432  C 6.76923076923077 2.0178571428571397  6.7295673076923075 1.9151785714285703  6.650240384615385 1.8348214285714297  C 6.570913461538462 1.7544642857142865  6.469551282051282 1.7142857142857135  6.346153846153846 1.7142857142857135  L 5.5 1.7142857142857135  C 5.376602564102565 1.7142857142857135  5.275240384615385 1.7544642857142865  5.195913461538462 1.8348214285714297  Z " stroke-width="0" stroke-dasharray="0" stroke="rgba(255, 255, 255, 0)" fill="none" transform="matrix(1 0 0 1 319 243 )" class="stroke" mask="url(#Clip92)" />
    <path d="M 2 22  L 20 22  L 20 9  L 2 9  L 2 22  Z " stroke-width="0" stroke-dasharray="0" stroke="rgba(255, 255, 255, 0)" fill="none" transform="matrix(1 0 0 1 319 243 )" class="stroke" mask="url(#Clip92)" />
    <path d="M 11.846153846153845 11.57142857142857  L 11.846153846153845 14.571428571428573  L 14.807692307692308 14.571428571428573  C 14.931089743589746 14.571428571428573  15.032451923076923 14.611607142857142  15.111778846153845 14.691964285714286  C 15.19110576923077 14.772321428571427  15.23076923076923 14.874999999999996  15.23076923076923 15  L 15.23076923076923 15.857142857142858  C 15.23076923076923 15.982142857142858  15.19110576923077 16.084821428571427  15.111778846153845 16.165178571428573  C 15.032451923076923 16.245535714285715  14.931089743589746 16.285714285714285  14.807692307692308 16.285714285714285  L 11.846153846153845 16.285714285714285  L 11.846153846153845 19.285714285714285  C 11.846153846153845 19.410714285714285  11.806490384615385 19.513392857142858  11.72716346153846 19.59375  C 11.64783653846154 19.674107142857142  11.54647435897436 19.714285714285715  11.423076923076923 19.714285714285715  L 10.576923076923077 19.714285714285715  C 10.453525641025642 19.714285714285715  10.352163461538463 19.674107142857142  10.272836538461538 19.59375  C 10.193509615384615 19.513392857142858  10.153846153846155 19.410714285714285  10.153846153846155 19.285714285714285  L 10.153846153846155 16.285714285714285  L 7.1923076923076925 16.285714285714285  C 7.068910256410257 16.285714285714285  6.9675480769230775 16.245535714285715  6.888221153846154 16.165178571428573  C 6.80889423076923 16.084821428571427  6.76923076923077 15.982142857142858  6.76923076923077 15.857142857142858  L 6.76923076923077 15  C 6.76923076923077 14.874999999999996  6.80889423076923 14.772321428571427  6.888221153846154 14.691964285714286  C 6.9675480769230775 14.611607142857142  7.068910256410257 14.571428571428573  7.1923076923076925 14.571428571428573  L 10.153846153846155 14.571428571428573  L 10.153846153846155 11.57142857142857  C 10.153846153846155 11.446428571428573  10.193509615384615 11.34375  10.272836538461538 11.263392857142858  C 10.352163461538463 11.183035714285714  10.453525641025642 11.142857142857142  10.576923076923077 11.142857142857142  L 11.423076923076923 11.142857142857142  C 11.54647435897436 11.142857142857142  11.64783653846154 11.183035714285714  11.72716346153846 11.263392857142858  C 11.806490384615385 11.34375  11.846153846153845 11.446428571428573  11.846153846153845 11.57142857142857  Z " stroke-width="0" stroke-dasharray="0" stroke="rgba(255, 255, 255, 0)" fill="none" transform="matrix(1 0 0 1 319 243 )" class="stroke" mask="url(#Clip92)" />
  </g>
</svg>