<?xml version="1.0" encoding="utf-8"?>
<svg version="1.1" xmlns:xlink="http://www.w3.org/1999/xlink" width="24px" height="24px" xmlns="http://www.w3.org/2000/svg">
  <defs>
    <pattern id="BGPattern" patternUnits="userSpaceOnUse" alignment="0 0" imageRepeat="None" />
    <mask fill="white" id="Clip91">
      <path d="M 21.53125 18.640625  C 21.65625 18.515625  21.770833333333336 18.302083333333332  21.875 18  L 18 18  L 18 21.875  C 18.302083333333336 21.770833333333332  18.515625 21.65625  18.640625 21.53125  L 21.53125 18.640625  Z M 16.4375 16.4375  C 16.729166666666668 16.145833333333336  17.083333333333336 16  17.5 16  L 22 16  L 22 2  L 2 2  L 2 22  L 16 22  L 16 17.5  C 16 17.083333333333336  16.145833333333336 16.729166666666664  16.4375 16.4375  Z M 23.5625 0.4374999999999991  C 23.854166666666664 0.7291666666666634  24 1.0833333333333321  24 1.5  L 24 17.5  C 24 17.916666666666664  23.895833333333332 18.375  23.6875 18.875  C 23.479166666666668 19.375  23.229166666666668 19.770833333333332  22.9375 20.0625  L 20.0625 22.9375  C 19.770833333333336 23.229166666666668  19.375 23.479166666666668  18.875 23.6875  C 18.375 23.895833333333332  17.916666666666668 24  17.5 24  L 1.5 24  C 1.0833333333333335 24  0.7291666666666667 23.854166666666668  0.4375 23.5625  C 0.14583333333333331 23.270833333333332  0 22.916666666666668  0 22.5  L 0 1.5  C 0 1.0833333333333321  0.14583333333333331 0.7291666666666634  0.4375 0.4374999999999991  C 0.7291666666666667 0.14583333333333215  1.0833333333333335 0  1.5 0  L 22.5 0  C 22.916666666666668 0  23.270833333333336 0.14583333333333215  23.5625 0.4374999999999991  Z " fill-rule="evenodd" />
    </mask>
  </defs>
  <g transform="matrix(1 0 0 1 -228 -243 )">
    <path d="M 21.53125 18.640625  C 21.65625 18.515625  21.770833333333336 18.302083333333332  21.875 18  L 18 18  L 18 21.875  C 18.302083333333336 21.770833333333332  18.515625 21.65625  18.640625 21.53125  L 21.53125 18.640625  Z M 16.4375 16.4375  C 16.729166666666668 16.145833333333336  17.083333333333336 16  17.5 16  L 22 16  L 22 2  L 2 2  L 2 22  L 16 22  L 16 17.5  C 16 17.083333333333336  16.145833333333336 16.729166666666664  16.4375 16.4375  Z M 23.5625 0.4374999999999991  C 23.854166666666664 0.7291666666666634  24 1.0833333333333321  24 1.5  L 24 17.5  C 24 17.916666666666664  23.895833333333332 18.375  23.6875 18.875  C 23.479166666666668 19.375  23.229166666666668 19.770833333333332  22.9375 20.0625  L 20.0625 22.9375  C 19.770833333333336 23.229166666666668  19.375 23.479166666666668  18.875 23.6875  C 18.375 23.895833333333332  17.916666666666668 24  17.5 24  L 1.5 24  C 1.0833333333333335 24  0.7291666666666667 23.854166666666668  0.4375 23.5625  C 0.14583333333333331 23.270833333333332  0 22.916666666666668  0 22.5  L 0 1.5  C 0 1.0833333333333321  0.14583333333333331 0.7291666666666634  0.4375 0.4374999999999991  C 0.7291666666666667 0.14583333333333215  1.0833333333333335 0  1.5 0  L 22.5 0  C 22.916666666666668 0  23.270833333333336 0.14583333333333215  23.5625 0.4374999999999991  Z " fill-rule="nonzero" fill="rgba(22, 155, 213, 1)" stroke="none" transform="matrix(1 0 0 1 228 243 )" class="fill" />
    <path d="M 21.53125 18.640625  C 21.65625 18.515625  21.770833333333336 18.302083333333332  21.875 18  L 18 18  L 18 21.875  C 18.302083333333336 21.770833333333332  18.515625 21.65625  18.640625 21.53125  L 21.53125 18.640625  Z " stroke-width="0" stroke-dasharray="0" stroke="rgba(255, 255, 255, 0)" fill="none" transform="matrix(1 0 0 1 228 243 )" class="stroke" mask="url(#Clip91)" />
    <path d="M 16.4375 16.4375  C 16.729166666666668 16.145833333333336  17.083333333333336 16  17.5 16  L 22 16  L 22 2  L 2 2  L 2 22  L 16 22  L 16 17.5  C 16 17.083333333333336  16.145833333333336 16.729166666666664  16.4375 16.4375  Z " stroke-width="0" stroke-dasharray="0" stroke="rgba(255, 255, 255, 0)" fill="none" transform="matrix(1 0 0 1 228 243 )" class="stroke" mask="url(#Clip91)" />
    <path d="M 23.5625 0.4374999999999991  C 23.854166666666664 0.7291666666666634  24 1.0833333333333321  24 1.5  L 24 17.5  C 24 17.916666666666664  23.895833333333332 18.375  23.6875 18.875  C 23.479166666666668 19.375  23.229166666666668 19.770833333333332  22.9375 20.0625  L 20.0625 22.9375  C 19.770833333333336 23.229166666666668  19.375 23.479166666666668  18.875 23.6875  C 18.375 23.895833333333332  17.916666666666668 24  17.5 24  L 1.5 24  C 1.0833333333333335 24  0.7291666666666667 23.854166666666668  0.4375 23.5625  C 0.14583333333333331 23.270833333333332  0 22.916666666666668  0 22.5  L 0 1.5  C 0 1.0833333333333321  0.14583333333333331 0.7291666666666634  0.4375 0.4374999999999991  C 0.7291666666666667 0.14583333333333215  1.0833333333333335 0  1.5 0  L 22.5 0  C 22.916666666666668 0  23.270833333333336 0.14583333333333215  23.5625 0.4374999999999991  Z " stroke-width="0" stroke-dasharray="0" stroke="rgba(255, 255, 255, 0)" fill="none" transform="matrix(1 0 0 1 228 243 )" class="stroke" mask="url(#Clip91)" />
  </g>
</svg>