<?xml version="1.0" encoding="utf-8"?>
<svg version="1.1" xmlns:xlink="http://www.w3.org/1999/xlink" width="23px" height="18px" xmlns="http://www.w3.org/2000/svg">
  <defs>
    <pattern id="BGPattern" patternUnits="userSpaceOnUse" alignment="0 0" imageRepeat="None" />
    <mask fill="white" id="Clip106">
      <path d="M 10.72645739910314 13.5  L 11.448430493273543 13.5  L 12.943946188340806 12.017045454545455  L 10.984304932735427 10.073863636363635  L 9.488789237668161 11.556818181818183  L 9.488789237668161 12.272727272727273  L 10.72645739910314 12.272727272727273  L 10.72645739910314 13.5  Z M 17.108183856502244 4.717329545454546  C 17.254297458893873 4.57244318181818  17.258594917787743 4.43181818181818  17.121076233183857 4.295454545454546  C 16.98355754857997 4.159090909090907  16.841741405082214 4.163352272727272  16.69562780269058 4.308238636363637  L 12.183295964125561 8.782670454545455  C 12.037182361733931 8.927556818181818  12.03288490284006 9.068181818181817  12.170403587443946 9.204545454545455  C 12.307922272047835 9.34090909090909  12.449738415545593 9.336647727272725  12.59585201793722 9.191761363636365  L 17.108183856502244 4.717329545454546  Z M 17.894618834080717 11.518465909090908  C 18.066517189835576 11.586647727272725  18.152466367713004 11.710227272727273  18.152466367713004 11.889204545454545  L 18.152466367713004 14.318181818181817  C 18.152466367713004 15.332386363636363  17.78933109118087 16.199573863636363  17.06306053811659 16.919744318181817  C 16.33678998505232 17.639914772727273  15.462257100149477 18  14.439461883408072 18  L 3.713004484304933 18  C 2.690209267563528 18  1.8156763826606876 17.639914772727273  1.0894058295964124 16.919744318181817  C 0.36313527653213745 16.199573863636363  0 15.332386363636363  0 14.318181818181817  L 0 3.6818181818181825  C 0 2.667613636363634  0.36313527653213745 1.8004261363636356  1.0894058295964124 1.0802556818181825  C 1.8156763826606876 0.3600852272727255  2.690209267563528 0  3.713004484304933 0  L 14.439461883408072 0  C 14.980941704035876 0  15.483744394618833 0.10653409090908994  15.947869955156952 0.3196022727272718  C 16.076793721973093 0.3792613636363624  16.154147982062778 0.47727272727272685  16.17993273542601 0.6136363636363631  C 16.205717488789237 0.7585227272727268  16.167040358744394 0.8821022727272718  16.06390134529148 0.984375  L 15.432174887892376 1.6107954545454544  C 15.311846038863976 1.7301136363636356  15.174327354260091 1.7642045454545456  15.019618834080719 1.7130681818181825  C 14.821935724962632 1.6619318181818175  14.628550074738417 1.636363636363637  14.439461883408072 1.636363636363637  L 3.713004484304933 1.636363636363637  C 3.1457399103139014 1.636363636363637  2.660127055306428 1.8366477272727255  2.256165919282511 2.2372159090909087  C 1.8522047832585953 2.63778409090909  1.6502242152466366 3.1193181818181825  2 3.6818181818181825  L 2 14.318181818181817  C 1.6502242152466366 14.880681818181817  1.8522047832585953 15.362215909090907  2.256165919282511 15.762784090909092  C 2.660127055306428 16.163352272727273  3.1457399103139014 16.363636363636363  3.713004484304933 16.363636363636363  L 14.439461883408072 16.363636363636363  C 15.006726457399104 16.363636363636363  15.492339312406576 16.163352272727273  15.896300448430495 15.762784090909092  C 16.30026158445441 15.362215909090907  16.502242152466366 14.880681818181817  16.502242152466366 14.318181818181817  L 16.502242152466366 12.707386363636365  C 16.502242152466366 12.596590909090907  16.54091928251121 12.502840909090908  16.618273542600896 12.426136363636365  L 17.443385650224215 11.607954545454545  C 17.57230941704036 11.480113636363635  17.72272047832586 11.45028409090909  17.894618834080717 11.518465909090908  Z M 8.251121076233183 11.045454545454545  L 16.91479820627803 2.454545454545454  L 20.62780269058296 6.136363636363637  L 11.964125560538115 14.727272727272727  L 8.251121076233183 14.727272727272727  L 8.251121076233183 11.045454545454545  Z M 23 3.2727272727272716  C 23 3.6136363636363624  22.8796711509716 3.90340909090909  22.639013452914796 4.142045454545454  L 21.45291479820628 5.3181818181818175  L 17.739910313901344 1.636363636363637  L 18.926008968609867 0.4602272727272718  C 19.166666666666668 0.2215909090909074  19.458893871449927 0.10227272727272818  19.80269058295964 0.10227272727272818  C 20.14648729446936 0.10227272727272818  20.438714499252615 0.2215909090909074  20.67937219730942 0.4602272727272718  L 22.639013452914796 2.4034090909090913  C 22.8796711509716 2.6420454545454515  23 2.931818181818181  23 3.2727272727272716  Z " fill-rule="evenodd" />
    </mask>
  </defs>
  <g transform="matrix(1 0 0 1 -265 -8 )">
    <path d="M 10.72645739910314 13.5  L 11.448430493273543 13.5  L 12.943946188340806 12.017045454545455  L 10.984304932735427 10.073863636363635  L 9.488789237668161 11.556818181818183  L 9.488789237668161 12.272727272727273  L 10.72645739910314 12.272727272727273  L 10.72645739910314 13.5  Z M 17.108183856502244 4.717329545454546  C 17.254297458893873 4.57244318181818  17.258594917787743 4.43181818181818  17.121076233183857 4.295454545454546  C 16.98355754857997 4.159090909090907  16.841741405082214 4.163352272727272  16.69562780269058 4.308238636363637  L 12.183295964125561 8.782670454545455  C 12.037182361733931 8.927556818181818  12.03288490284006 9.068181818181817  12.170403587443946 9.204545454545455  C 12.307922272047835 9.34090909090909  12.449738415545593 9.336647727272725  12.59585201793722 9.191761363636365  L 17.108183856502244 4.717329545454546  Z M 17.894618834080717 11.518465909090908  C 18.066517189835576 11.586647727272725  18.152466367713004 11.710227272727273  18.152466367713004 11.889204545454545  L 18.152466367713004 14.318181818181817  C 18.152466367713004 15.332386363636363  17.78933109118087 16.199573863636363  17.06306053811659 16.919744318181817  C 16.33678998505232 17.639914772727273  15.462257100149477 18  14.439461883408072 18  L 3.713004484304933 18  C 2.690209267563528 18  1.8156763826606876 17.639914772727273  1.0894058295964124 16.919744318181817  C 0.36313527653213745 16.199573863636363  0 15.332386363636363  0 14.318181818181817  L 0 3.6818181818181825  C 0 2.667613636363634  0.36313527653213745 1.8004261363636356  1.0894058295964124 1.0802556818181825  C 1.8156763826606876 0.3600852272727255  2.690209267563528 0  3.713004484304933 0  L 14.439461883408072 0  C 14.980941704035876 0  15.483744394618833 0.10653409090908994  15.947869955156952 0.3196022727272718  C 16.076793721973093 0.3792613636363624  16.154147982062778 0.47727272727272685  16.17993273542601 0.6136363636363631  C 16.205717488789237 0.7585227272727268  16.167040358744394 0.8821022727272718  16.06390134529148 0.984375  L 15.432174887892376 1.6107954545454544  C 15.311846038863976 1.7301136363636356  15.174327354260091 1.7642045454545456  15.019618834080719 1.7130681818181825  C 14.821935724962632 1.6619318181818175  14.628550074738417 1.636363636363637  14.439461883408072 1.636363636363637  L 3.713004484304933 1.636363636363637  C 3.1457399103139014 1.636363636363637  2.660127055306428 1.8366477272727255  2.256165919282511 2.2372159090909087  C 1.8522047832585953 2.63778409090909  1.6502242152466366 3.1193181818181825  2 3.6818181818181825  L 2 14.318181818181817  C 1.6502242152466366 14.880681818181817  1.8522047832585953 15.362215909090907  2.256165919282511 15.762784090909092  C 2.660127055306428 16.163352272727273  3.1457399103139014 16.363636363636363  3.713004484304933 16.363636363636363  L 14.439461883408072 16.363636363636363  C 15.006726457399104 16.363636363636363  15.492339312406576 16.163352272727273  15.896300448430495 15.762784090909092  C 16.30026158445441 15.362215909090907  16.502242152466366 14.880681818181817  16.502242152466366 14.318181818181817  L 16.502242152466366 12.707386363636365  C 16.502242152466366 12.596590909090907  16.54091928251121 12.502840909090908  16.618273542600896 12.426136363636365  L 17.443385650224215 11.607954545454545  C 17.57230941704036 11.480113636363635  17.72272047832586 11.45028409090909  17.894618834080717 11.518465909090908  Z M 8.251121076233183 11.045454545454545  L 16.91479820627803 2.454545454545454  L 20.62780269058296 6.136363636363637  L 11.964125560538115 14.727272727272727  L 8.251121076233183 14.727272727272727  L 8.251121076233183 11.045454545454545  Z M 23 3.2727272727272716  C 23 3.6136363636363624  22.8796711509716 3.90340909090909  22.639013452914796 4.142045454545454  L 21.45291479820628 5.3181818181818175  L 17.739910313901344 1.636363636363637  L 18.926008968609867 0.4602272727272718  C 19.166666666666668 0.2215909090909074  19.458893871449927 0.10227272727272818  19.80269058295964 0.10227272727272818  C 20.14648729446936 0.10227272727272818  20.438714499252615 0.2215909090909074  20.67937219730942 0.4602272727272718  L 22.639013452914796 2.4034090909090913  C 22.8796711509716 2.6420454545454515  23 2.931818181818181  23 3.2727272727272716  Z " fill-rule="nonzero" fill="rgba(2, 167, 240, 1)" stroke="none" transform="matrix(1 0 0 1 265 8 )" class="fill" />
    <path d="M 10.72645739910314 13.5  L 11.448430493273543 13.5  L 12.943946188340806 12.017045454545455  L 10.984304932735427 10.073863636363635  L 9.488789237668161 11.556818181818183  L 9.488789237668161 12.272727272727273  L 10.72645739910314 12.272727272727273  L 10.72645739910314 13.5  Z " stroke-width="0" stroke-dasharray="0" stroke="rgba(255, 255, 255, 0)" fill="none" transform="matrix(1 0 0 1 265 8 )" class="stroke" mask="url(#Clip106)" />
    <path d="M 17.108183856502244 4.717329545454546  C 17.254297458893873 4.57244318181818  17.258594917787743 4.43181818181818  17.121076233183857 4.295454545454546  C 16.98355754857997 4.159090909090907  16.841741405082214 4.163352272727272  16.69562780269058 4.308238636363637  L 12.183295964125561 8.782670454545455  C 12.037182361733931 8.927556818181818  12.03288490284006 9.068181818181817  12.170403587443946 9.204545454545455  C 12.307922272047835 9.34090909090909  12.449738415545593 9.336647727272725  12.59585201793722 9.191761363636365  L 17.108183856502244 4.717329545454546  Z " stroke-width="0" stroke-dasharray="0" stroke="rgba(255, 255, 255, 0)" fill="none" transform="matrix(1 0 0 1 265 8 )" class="stroke" mask="url(#Clip106)" />
    <path d="M 17.894618834080717 11.518465909090908  C 18.066517189835576 11.586647727272725  18.152466367713004 11.710227272727273  18.152466367713004 11.889204545454545  L 18.152466367713004 14.318181818181817  C 18.152466367713004 15.332386363636363  17.78933109118087 16.199573863636363  17.06306053811659 16.919744318181817  C 16.33678998505232 17.639914772727273  15.462257100149477 18  14.439461883408072 18  L 3.713004484304933 18  C 2.690209267563528 18  1.8156763826606876 17.639914772727273  1.0894058295964124 16.919744318181817  C 0.36313527653213745 16.199573863636363  0 15.332386363636363  0 14.318181818181817  L 0 3.6818181818181825  C 0 2.667613636363634  0.36313527653213745 1.8004261363636356  1.0894058295964124 1.0802556818181825  C 1.8156763826606876 0.3600852272727255  2.690209267563528 0  3.713004484304933 0  L 14.439461883408072 0  C 14.980941704035876 0  15.483744394618833 0.10653409090908994  15.947869955156952 0.3196022727272718  C 16.076793721973093 0.3792613636363624  16.154147982062778 0.47727272727272685  16.17993273542601 0.6136363636363631  C 16.205717488789237 0.7585227272727268  16.167040358744394 0.8821022727272718  16.06390134529148 0.984375  L 15.432174887892376 1.6107954545454544  C 15.311846038863976 1.7301136363636356  15.174327354260091 1.7642045454545456  15.019618834080719 1.7130681818181825  C 14.821935724962632 1.6619318181818175  14.628550074738417 1.636363636363637  14.439461883408072 1.636363636363637  L 3.713004484304933 1.636363636363637  C 3.1457399103139014 1.636363636363637  2.660127055306428 1.8366477272727255  2.256165919282511 2.2372159090909087  C 1.8522047832585953 2.63778409090909  1.6502242152466366 3.1193181818181825  2 3.6818181818181825  L 2 14.318181818181817  C 1.6502242152466366 14.880681818181817  1.8522047832585953 15.362215909090907  2.256165919282511 15.762784090909092  C 2.660127055306428 16.163352272727273  3.1457399103139014 16.363636363636363  3.713004484304933 16.363636363636363  L 14.439461883408072 16.363636363636363  C 15.006726457399104 16.363636363636363  15.492339312406576 16.163352272727273  15.896300448430495 15.762784090909092  C 16.30026158445441 15.362215909090907  16.502242152466366 14.880681818181817  16.502242152466366 14.318181818181817  L 16.502242152466366 12.707386363636365  C 16.502242152466366 12.596590909090907  16.54091928251121 12.502840909090908  16.618273542600896 12.426136363636365  L 17.443385650224215 11.607954545454545  C 17.57230941704036 11.480113636363635  17.72272047832586 11.45028409090909  17.894618834080717 11.518465909090908  Z " stroke-width="0" stroke-dasharray="0" stroke="rgba(255, 255, 255, 0)" fill="none" transform="matrix(1 0 0 1 265 8 )" class="stroke" mask="url(#Clip106)" />
    <path d="M 8.251121076233183 11.045454545454545  L 16.91479820627803 2.454545454545454  L 20.62780269058296 6.136363636363637  L 11.964125560538115 14.727272727272727  L 8.251121076233183 14.727272727272727  L 8.251121076233183 11.045454545454545  Z " stroke-width="0" stroke-dasharray="0" stroke="rgba(255, 255, 255, 0)" fill="none" transform="matrix(1 0 0 1 265 8 )" class="stroke" mask="url(#Clip106)" />
    <path d="M 23 3.2727272727272716  C 23 3.6136363636363624  22.8796711509716 3.90340909090909  22.639013452914796 4.142045454545454  L 21.45291479820628 5.3181818181818175  L 17.739910313901344 1.636363636363637  L 18.926008968609867 0.4602272727272718  C 19.166666666666668 0.2215909090909074  19.458893871449927 0.10227272727272818  19.80269058295964 0.10227272727272818  C 20.14648729446936 0.10227272727272818  20.438714499252615 0.2215909090909074  20.67937219730942 0.4602272727272718  L 22.639013452914796 2.4034090909090913  C 22.8796711509716 2.6420454545454515  23 2.931818181818181  23 3.2727272727272716  Z " stroke-width="0" stroke-dasharray="0" stroke="rgba(255, 255, 255, 0)" fill="none" transform="matrix(1 0 0 1 265 8 )" class="stroke" mask="url(#Clip106)" />
  </g>
</svg>