<?xml version="1.0" encoding="utf-8"?>
<svg version="1.1" xmlns:xlink="http://www.w3.org/1999/xlink" width="18px" height="18px" xmlns="http://www.w3.org/2000/svg">
  <defs>
    <pattern id="BGPattern" patternUnits="userSpaceOnUse" alignment="0 0" imageRepeat="None" />
    <mask fill="white" id="Clip108">
      <path d="M 11.25 11.624999999999998  C 11.453125 11.624999999999998  11.62890625 11.55078125  11.77734375 11.402343750000002  L 15.90234375 7.27734375  C 16.05078125 7.12890625  16.125 6.953125  16.125 6.75  C 16.125 6.546874999999998  16.05078125 6.371093749999998  15.90234375 6.22265625  L 11.77734375 2.097656250000001  C 11.542968750000002 1.8554687499999998  11.2734375 1.8007812499999982  10.96875 1.93359375  C 10.656250000000002 2.06640625  10.5 2.296874999999999  10.5 2.625000000000001  L 10.5 4.5  C 9.5703125 4.5  8.726562500000002 4.576171875000001  7.96875 4.728515625  C 7.2109375 4.880859374999999  6.576171875000001 5.080078125  6.064453125 5.326171875  C 5.552734375 5.572265625  5.107421875000001 5.880859375  4.728515625 6.251953124999999  C 4.349609375 6.623046874999999  4.05078125 6.99609375  3.83203125 7.371093750000001  C 3.6132812500000004 7.746093749999999  3.439453125 8.171874999999998  3.310546875 8.6484375  C 3.181640625 9.125  3.0976562500000004 9.560546875  3.05859375 9.955078124999998  C 3.0195312500000004 10.349609375  3 10.781249999999998  3 11.25  C 3 12.664062499999998  3.6523437500000004 14.2421875  4.95703125 15.984375  C 5.04296875 16.078125  5.140625 16.125  5.25 16.125  C 5.3046875 16.125  5.35546875 16.11328125  5.40234375 16.08984375  C 5.574218750000001 16.01953125  5.648437500000001 15.890625  5.625 15.703125  C 5.28125 12.9375  5.5234375 11.08984375  6.3515625 10.16015625  C 6.710937500000001 9.75390625  7.21875 9.458984375  7.875 9.275390625000002  C 8.53125 9.091796875  9.406250000000002 9  10.5 9  L 10.5 10.875000000000002  C 10.5 11.203124999999998  10.656250000000002 11.433593749999998  10.96875 11.56640625  C 11.0625 11.60546875  11.156250000000002 11.624999999999998  11.25 11.624999999999998  Z M 17.009765625 0.9902343750000007  C 17.669921875 1.6503906249999984  18 2.4453124999999973  18 3.375  L 18 14.625  C 18 15.554687499999998  17.669921875 16.349609375  17.009765625 17.009765625  C 16.349609375 17.669921875  15.554687500000002 18  14.625 18  L 3.375 18  C 2.4453125 18  1.6503906250000002 17.669921875  0.990234375 17.009765625  C 0.33007812499999994 16.349609375  0 15.554687499999998  0 14.625  L 0 3.375  C 0 2.4453124999999973  0.33007812499999994 1.6503906249999984  0.990234375 0.9902343750000007  C 1.6503906250000002 0.3300781249999989  2.4453125 0  3.375 0  L 14.625 0  C 15.554687500000002 0  16.349609375 0.3300781249999989  17.009765625 0.9902343750000007  Z " fill-rule="evenodd" />
    </mask>
  </defs>
  <g transform="matrix(1 0 0 1 -308 -8 )">
    <path d="M 11.25 11.624999999999998  C 11.453125 11.624999999999998  11.62890625 11.55078125  11.77734375 11.402343750000002  L 15.90234375 7.27734375  C 16.05078125 7.12890625  16.125 6.953125  16.125 6.75  C 16.125 6.546874999999998  16.05078125 6.371093749999998  15.90234375 6.22265625  L 11.77734375 2.097656250000001  C 11.542968750000002 1.8554687499999998  11.2734375 1.8007812499999982  10.96875 1.93359375  C 10.656250000000002 2.06640625  10.5 2.296874999999999  10.5 2.625000000000001  L 10.5 4.5  C 9.5703125 4.5  8.726562500000002 4.576171875000001  7.96875 4.728515625  C 7.2109375 4.880859374999999  6.576171875000001 5.080078125  6.064453125 5.326171875  C 5.552734375 5.572265625  5.107421875000001 5.880859375  4.728515625 6.251953124999999  C 4.349609375 6.623046874999999  4.05078125 6.99609375  3.83203125 7.371093750000001  C 3.6132812500000004 7.746093749999999  3.439453125 8.171874999999998  3.310546875 8.6484375  C 3.181640625 9.125  3.0976562500000004 9.560546875  3.05859375 9.955078124999998  C 3.0195312500000004 10.349609375  3 10.781249999999998  3 11.25  C 3 12.664062499999998  3.6523437500000004 14.2421875  4.95703125 15.984375  C 5.04296875 16.078125  5.140625 16.125  5.25 16.125  C 5.3046875 16.125  5.35546875 16.11328125  5.40234375 16.08984375  C 5.574218750000001 16.01953125  5.648437500000001 15.890625  5.625 15.703125  C 5.28125 12.9375  5.5234375 11.08984375  6.3515625 10.16015625  C 6.710937500000001 9.75390625  7.21875 9.458984375  7.875 9.275390625000002  C 8.53125 9.091796875  9.406250000000002 9  10.5 9  L 10.5 10.875000000000002  C 10.5 11.203124999999998  10.656250000000002 11.433593749999998  10.96875 11.56640625  C 11.0625 11.60546875  11.156250000000002 11.624999999999998  11.25 11.624999999999998  Z M 17.009765625 0.9902343750000007  C 17.669921875 1.6503906249999984  18 2.4453124999999973  18 3.375  L 18 14.625  C 18 15.554687499999998  17.669921875 16.349609375  17.009765625 17.009765625  C 16.349609375 17.669921875  15.554687500000002 18  14.625 18  L 3.375 18  C 2.4453125 18  1.6503906250000002 17.669921875  0.990234375 17.009765625  C 0.33007812499999994 16.349609375  0 15.554687499999998  0 14.625  L 0 3.375  C 0 2.4453124999999973  0.33007812499999994 1.6503906249999984  0.990234375 0.9902343750000007  C 1.6503906250000002 0.3300781249999989  2.4453125 0  3.375 0  L 14.625 0  C 15.554687500000002 0  16.349609375 0.3300781249999989  17.009765625 0.9902343750000007  Z " fill-rule="nonzero" fill="rgba(2, 167, 240, 1)" stroke="none" transform="matrix(1 0 0 1 308 8 )" class="fill" />
    <path d="M 11.25 11.624999999999998  C 11.453125 11.624999999999998  11.62890625 11.55078125  11.77734375 11.402343750000002  L 15.90234375 7.27734375  C 16.05078125 7.12890625  16.125 6.953125  16.125 6.75  C 16.125 6.546874999999998  16.05078125 6.371093749999998  15.90234375 6.22265625  L 11.77734375 2.097656250000001  C 11.542968750000002 1.8554687499999998  11.2734375 1.8007812499999982  10.96875 1.93359375  C 10.656250000000002 2.06640625  10.5 2.296874999999999  10.5 2.625000000000001  L 10.5 4.5  C 9.5703125 4.5  8.726562500000002 4.576171875000001  7.96875 4.728515625  C 7.2109375 4.880859374999999  6.576171875000001 5.080078125  6.064453125 5.326171875  C 5.552734375 5.572265625  5.107421875000001 5.880859375  4.728515625 6.251953124999999  C 4.349609375 6.623046874999999  4.05078125 6.99609375  3.83203125 7.371093750000001  C 3.6132812500000004 7.746093749999999  3.439453125 8.171874999999998  3.310546875 8.6484375  C 3.181640625 9.125  3.0976562500000004 9.560546875  3.05859375 9.955078124999998  C 3.0195312500000004 10.349609375  3 10.781249999999998  3 11.25  C 3 12.664062499999998  3.6523437500000004 14.2421875  4.95703125 15.984375  C 5.04296875 16.078125  5.140625 16.125  5.25 16.125  C 5.3046875 16.125  5.35546875 16.11328125  5.40234375 16.08984375  C 5.574218750000001 16.01953125  5.648437500000001 15.890625  5.625 15.703125  C 5.28125 12.9375  5.5234375 11.08984375  6.3515625 10.16015625  C 6.710937500000001 9.75390625  7.21875 9.458984375  7.875 9.275390625000002  C 8.53125 9.091796875  9.406250000000002 9  10.5 9  L 10.5 10.875000000000002  C 10.5 11.203124999999998  10.656250000000002 11.433593749999998  10.96875 11.56640625  C 11.0625 11.60546875  11.156250000000002 11.624999999999998  11.25 11.624999999999998  Z " stroke-width="0" stroke-dasharray="0" stroke="rgba(255, 255, 255, 0)" fill="none" transform="matrix(1 0 0 1 308 8 )" class="stroke" mask="url(#Clip108)" />
    <path d="M 17.009765625 0.9902343750000007  C 17.669921875 1.6503906249999984  18 2.4453124999999973  18 3.375  L 18 14.625  C 18 15.554687499999998  17.669921875 16.349609375  17.009765625 17.009765625  C 16.349609375 17.669921875  15.554687500000002 18  14.625 18  L 3.375 18  C 2.4453125 18  1.6503906250000002 17.669921875  0.990234375 17.009765625  C 0.33007812499999994 16.349609375  0 15.554687499999998  0 14.625  L 0 3.375  C 0 2.4453124999999973  0.33007812499999994 1.6503906249999984  0.990234375 0.9902343750000007  C 1.6503906250000002 0.3300781249999989  2.4453125 0  3.375 0  L 14.625 0  C 15.554687500000002 0  16.349609375 0.3300781249999989  17.009765625 0.9902343750000007  Z " stroke-width="0" stroke-dasharray="0" stroke="rgba(255, 255, 255, 0)" fill="none" transform="matrix(1 0 0 1 308 8 )" class="stroke" mask="url(#Clip108)" />
  </g>
</svg>