<?xml version="1.0" encoding="utf-8"?>
<svg version="1.1" xmlns:xlink="http://www.w3.org/1999/xlink" width="22px" height="24px" xmlns="http://www.w3.org/2000/svg">
  <defs>
    <pattern id="BGPattern" patternUnits="userSpaceOnUse" alignment="0 0" imageRepeat="None" />
    <mask fill="white" id="Clip15">
      <path d="M 1.6923076923076925 18.428571428571427  L 1.6923076923076925 22.285714285714285  L 5.5 22.285714285714285  L 5.5 18.428571428571427  L 1.6923076923076925 18.428571428571427  Z M 6.346153846153846 18.428571428571427  L 6.346153846153846 22.285714285714285  L 10.576923076923077 22.285714285714285  L 10.576923076923077 18.428571428571427  L 6.346153846153846 18.428571428571427  Z M 1.6923076923076925 13.285714285714286  L 1.6923076923076925 17.571428571428573  L 5.5 17.571428571428573  L 5.5 13.285714285714286  L 1.6923076923076925 13.285714285714286  Z M 6.346153846153846 13.285714285714286  L 6.346153846153846 17.571428571428573  L 10.576923076923077 17.571428571428573  L 10.576923076923077 13.285714285714286  L 6.346153846153846 13.285714285714286  Z M 1.6923076923076925 8.57142857142857  L 1.6923076923076925 12.428571428571427  L 5.5 12.428571428571427  L 5.5 8.57142857142857  L 1.6923076923076925 8.57142857142857  Z M 11.423076923076923 18.428571428571427  L 11.423076923076923 22.285714285714285  L 15.653846153846155 22.285714285714285  L 15.653846153846155 18.428571428571427  L 11.423076923076923 18.428571428571427  Z M 6.346153846153846 8.57142857142857  L 6.346153846153846 12.428571428571427  L 10.576923076923077 12.428571428571427  L 10.576923076923077 8.57142857142857  L 6.346153846153846 8.57142857142857  Z M 16.5 18.428571428571427  L 16.5 22.285714285714285  L 20.30769230769231 22.285714285714285  L 20.30769230769231 18.428571428571427  L 16.5 18.428571428571427  Z M 11.423076923076923 13.285714285714286  L 11.423076923076923 17.571428571428573  L 15.653846153846155 17.571428571428573  L 15.653846153846155 13.285714285714286  L 11.423076923076923 13.285714285714286  Z M 6.6436298076923075 6.3013392857142865  C 6.727363782051282 6.216517857142856  6.76923076923077 6.116071428571426  6.76923076923077 6  L 6.76923076923077 2.1428571428571432  C 6.76923076923077 2.0267857142857144  6.727363782051282 1.9263392857142847  6.6436298076923075 1.8415178571428568  C 6.559895833333334 1.7566964285714262  6.46073717948718 1.7142857142857135  6.346153846153846 1.7142857142857135  L 5.5 1.7142857142857135  C 5.385416666666667 1.7142857142857135  5.286258012820514 1.7566964285714262  5.202524038461538 1.8415178571428568  C 5.118790064102563 1.9263392857142847  5.0769230769230775 2.0267857142857144  5.0769230769230775 2.1428571428571432  L 5.0769230769230775 6  C 5.0769230769230775 6.116071428571426  5.118790064102563 6.216517857142856  5.202524038461538 6.3013392857142865  C 5.286258012820514 6.386160714285714  5.385416666666667 6.42857142857143  5.5 6.42857142857143  L 6.346153846153846 6.42857142857143  C 6.46073717948718 6.42857142857143  6.559895833333334 6.386160714285714  6.6436298076923075 6.3013392857142865  Z M 16.5 13.285714285714286  L 16.5 17.571428571428573  L 20.30769230769231 17.571428571428573  L 20.30769230769231 13.285714285714286  L 16.5 13.285714285714286  Z M 11.423076923076923 8.57142857142857  L 11.423076923076923 12.428571428571427  L 15.653846153846155 12.428571428571427  L 15.653846153846155 8.57142857142857  L 11.423076923076923 8.57142857142857  Z M 16.5 8.57142857142857  L 16.5 12.428571428571427  L 20.30769230769231 12.428571428571427  L 20.30769230769231 8.57142857142857  L 16.5 8.57142857142857  Z M 16.79747596153846 6.3013392857142865  C 16.881209935897438 6.216517857142856  16.923076923076923 6.116071428571426  16.923076923076923 6  L 16.923076923076923 2.1428571428571432  C 16.923076923076923 2.0267857142857144  16.881209935897438 1.9263392857142847  16.79747596153846 1.8415178571428568  C 16.71374198717949 1.7566964285714262  16.614583333333336 1.7142857142857135  16.5 1.7142857142857135  L 15.653846153846155 1.7142857142857135  C 15.539262820512823 1.7142857142857135  15.440104166666668 1.7566964285714262  15.356370192307692 1.8415178571428568  C 15.272636217948719 1.9263392857142847  15.23076923076923 2.0267857142857144  15.23076923076923 2.1428571428571432  L 15.23076923076923 6  C 15.23076923076923 6.116071428571426  15.272636217948719 6.216517857142856  15.356370192307692 6.3013392857142865  C 15.440104166666668 6.386160714285714  15.539262820512823 6.42857142857143  15.653846153846155 6.42857142857143  L 16.5 6.42857142857143  C 16.614583333333336 6.42857142857143  16.71374198717949 6.386160714285714  16.79747596153846 6.3013392857142865  Z M 21.497596153846153 3.9375  C 21.832532051282055 4.276785714285714  22 4.678571428571428  22 5.142857142857143  L 22 22.285714285714285  C 22 22.75  21.832532051282055 23.151785714285715  21.497596153846153 23.49107142857143  C 21.16266025641026 23.830357142857142  20.766025641025642 24  20.30769230769231 24  L 1.6923076923076925 24  C 1.2339743589743593 24  0.8373397435897436 23.830357142857142  0.5024038461538461 23.49107142857143  C 0.1674679487179487 23.151785714285715  0 22.75  0 22.285714285714285  L 0 5.142857142857143  C 0 4.678571428571428  0.1674679487179487 4.276785714285714  0.5024038461538461 3.9375  C 0.8373397435897436 3.598214285714283  1.2339743589743593 3.4285714285714297  1.6923076923076925 3.4285714285714297  L 3.384615384615385 3.4285714285714297  L 3.384615384615385 2.1428571428571432  C 3.384615384615385 1.5535714285714297  3.5917467948717947 1.0491071428571415  4.006009615384615 0.6294642857142865  C 4.420272435897437 0.20982142857142883  4.918269230769231 0  5.5 0  L 6.346153846153846 0  C 6.927884615384615 0  7.4258814102564115 0.20982142857142883  7.84014423076923 0.6294642857142865  C 8.254407051282051 1.0491071428571415  8.461538461538462 1.5535714285714297  8.461538461538462 2.1428571428571432  L 8.461538461538462 3.4285714285714297  L 13.53846153846154 3.4285714285714297  L 13.53846153846154 2.1428571428571432  C 13.53846153846154 1.5535714285714297  13.745592948717949 1.0491071428571415  14.15985576923077 0.6294642857142865  C 14.574118589743593 0.20982142857142883  15.072115384615385 0  15.653846153846155 0  L 16.5 0  C 17.08173076923077 0  17.579727564102566 0.20982142857142883  17.993990384615383 0.6294642857142865  C 18.408253205128208 1.0491071428571415  18.615384615384617 1.5535714285714297  18.615384615384617 2.1428571428571432  L 18.615384615384617 3.4285714285714297  L 20.30769230769231 3.4285714285714297  C 20.766025641025642 3.4285714285714297  21.16266025641026 3.598214285714283  21.497596153846153 3.9375  Z " fill-rule="evenodd" />
    </mask>
  </defs>
  <g transform="matrix(1 0 0 1 -159 -11 )">
    <path d="M 1.6923076923076925 18.428571428571427  L 1.6923076923076925 22.285714285714285  L 5.5 22.285714285714285  L 5.5 18.428571428571427  L 1.6923076923076925 18.428571428571427  Z M 6.346153846153846 18.428571428571427  L 6.346153846153846 22.285714285714285  L 10.576923076923077 22.285714285714285  L 10.576923076923077 18.428571428571427  L 6.346153846153846 18.428571428571427  Z M 1.6923076923076925 13.285714285714286  L 1.6923076923076925 17.571428571428573  L 5.5 17.571428571428573  L 5.5 13.285714285714286  L 1.6923076923076925 13.285714285714286  Z M 6.346153846153846 13.285714285714286  L 6.346153846153846 17.571428571428573  L 10.576923076923077 17.571428571428573  L 10.576923076923077 13.285714285714286  L 6.346153846153846 13.285714285714286  Z M 1.6923076923076925 8.57142857142857  L 1.6923076923076925 12.428571428571427  L 5.5 12.428571428571427  L 5.5 8.57142857142857  L 1.6923076923076925 8.57142857142857  Z M 11.423076923076923 18.428571428571427  L 11.423076923076923 22.285714285714285  L 15.653846153846155 22.285714285714285  L 15.653846153846155 18.428571428571427  L 11.423076923076923 18.428571428571427  Z M 6.346153846153846 8.57142857142857  L 6.346153846153846 12.428571428571427  L 10.576923076923077 12.428571428571427  L 10.576923076923077 8.57142857142857  L 6.346153846153846 8.57142857142857  Z M 16.5 18.428571428571427  L 16.5 22.285714285714285  L 20.30769230769231 22.285714285714285  L 20.30769230769231 18.428571428571427  L 16.5 18.428571428571427  Z M 11.423076923076923 13.285714285714286  L 11.423076923076923 17.571428571428573  L 15.653846153846155 17.571428571428573  L 15.653846153846155 13.285714285714286  L 11.423076923076923 13.285714285714286  Z M 6.6436298076923075 6.3013392857142865  C 6.727363782051282 6.216517857142856  6.76923076923077 6.116071428571426  6.76923076923077 6  L 6.76923076923077 2.1428571428571432  C 6.76923076923077 2.0267857142857144  6.727363782051282 1.9263392857142847  6.6436298076923075 1.8415178571428568  C 6.559895833333334 1.7566964285714262  6.46073717948718 1.7142857142857135  6.346153846153846 1.7142857142857135  L 5.5 1.7142857142857135  C 5.385416666666667 1.7142857142857135  5.286258012820514 1.7566964285714262  5.202524038461538 1.8415178571428568  C 5.118790064102563 1.9263392857142847  5.0769230769230775 2.0267857142857144  5.0769230769230775 2.1428571428571432  L 5.0769230769230775 6  C 5.0769230769230775 6.116071428571426  5.118790064102563 6.216517857142856  5.202524038461538 6.3013392857142865  C 5.286258012820514 6.386160714285714  5.385416666666667 6.42857142857143  5.5 6.42857142857143  L 6.346153846153846 6.42857142857143  C 6.46073717948718 6.42857142857143  6.559895833333334 6.386160714285714  6.6436298076923075 6.3013392857142865  Z M 16.5 13.285714285714286  L 16.5 17.571428571428573  L 20.30769230769231 17.571428571428573  L 20.30769230769231 13.285714285714286  L 16.5 13.285714285714286  Z M 11.423076923076923 8.57142857142857  L 11.423076923076923 12.428571428571427  L 15.653846153846155 12.428571428571427  L 15.653846153846155 8.57142857142857  L 11.423076923076923 8.57142857142857  Z M 16.5 8.57142857142857  L 16.5 12.428571428571427  L 20.30769230769231 12.428571428571427  L 20.30769230769231 8.57142857142857  L 16.5 8.57142857142857  Z M 16.79747596153846 6.3013392857142865  C 16.881209935897438 6.216517857142856  16.923076923076923 6.116071428571426  16.923076923076923 6  L 16.923076923076923 2.1428571428571432  C 16.923076923076923 2.0267857142857144  16.881209935897438 1.9263392857142847  16.79747596153846 1.8415178571428568  C 16.71374198717949 1.7566964285714262  16.614583333333336 1.7142857142857135  16.5 1.7142857142857135  L 15.653846153846155 1.7142857142857135  C 15.539262820512823 1.7142857142857135  15.440104166666668 1.7566964285714262  15.356370192307692 1.8415178571428568  C 15.272636217948719 1.9263392857142847  15.23076923076923 2.0267857142857144  15.23076923076923 2.1428571428571432  L 15.23076923076923 6  C 15.23076923076923 6.116071428571426  15.272636217948719 6.216517857142856  15.356370192307692 6.3013392857142865  C 15.440104166666668 6.386160714285714  15.539262820512823 6.42857142857143  15.653846153846155 6.42857142857143  L 16.5 6.42857142857143  C 16.614583333333336 6.42857142857143  16.71374198717949 6.386160714285714  16.79747596153846 6.3013392857142865  Z M 21.497596153846153 3.9375  C 21.832532051282055 4.276785714285714  22 4.678571428571428  22 5.142857142857143  L 22 22.285714285714285  C 22 22.75  21.832532051282055 23.151785714285715  21.497596153846153 23.49107142857143  C 21.16266025641026 23.830357142857142  20.766025641025642 24  20.30769230769231 24  L 1.6923076923076925 24  C 1.2339743589743593 24  0.8373397435897436 23.830357142857142  0.5024038461538461 23.49107142857143  C 0.1674679487179487 23.151785714285715  0 22.75  0 22.285714285714285  L 0 5.142857142857143  C 0 4.678571428571428  0.1674679487179487 4.276785714285714  0.5024038461538461 3.9375  C 0.8373397435897436 3.598214285714283  1.2339743589743593 3.4285714285714297  1.6923076923076925 3.4285714285714297  L 3.384615384615385 3.4285714285714297  L 3.384615384615385 2.1428571428571432  C 3.384615384615385 1.5535714285714297  3.5917467948717947 1.0491071428571415  4.006009615384615 0.6294642857142865  C 4.420272435897437 0.20982142857142883  4.918269230769231 0  5.5 0  L 6.346153846153846 0  C 6.927884615384615 0  7.4258814102564115 0.20982142857142883  7.84014423076923 0.6294642857142865  C 8.254407051282051 1.0491071428571415  8.461538461538462 1.5535714285714297  8.461538461538462 2.1428571428571432  L 8.461538461538462 3.4285714285714297  L 13.53846153846154 3.4285714285714297  L 13.53846153846154 2.1428571428571432  C 13.53846153846154 1.5535714285714297  13.745592948717949 1.0491071428571415  14.15985576923077 0.6294642857142865  C 14.574118589743593 0.20982142857142883  15.072115384615385 0  15.653846153846155 0  L 16.5 0  C 17.08173076923077 0  17.579727564102566 0.20982142857142883  17.993990384615383 0.6294642857142865  C 18.408253205128208 1.0491071428571415  18.615384615384617 1.5535714285714297  18.615384615384617 2.1428571428571432  L 18.615384615384617 3.4285714285714297  L 20.30769230769231 3.4285714285714297  C 20.766025641025642 3.4285714285714297  21.16266025641026 3.598214285714283  21.497596153846153 3.9375  Z " fill-rule="nonzero" fill="rgba(255, 255, 255, 1)" stroke="none" transform="matrix(1 0 0 1 159 11 )" class="fill" />
    <path d="M 1.6923076923076925 18.428571428571427  L 1.6923076923076925 22.285714285714285  L 5.5 22.285714285714285  L 5.5 18.428571428571427  L 1.6923076923076925 18.428571428571427  Z " stroke-width="0" stroke-dasharray="0" stroke="rgba(255, 255, 255, 0)" fill="none" transform="matrix(1 0 0 1 159 11 )" class="stroke" mask="url(#Clip15)" />
    <path d="M 6.346153846153846 18.428571428571427  L 6.346153846153846 22.285714285714285  L 10.576923076923077 22.285714285714285  L 10.576923076923077 18.428571428571427  L 6.346153846153846 18.428571428571427  Z " stroke-width="0" stroke-dasharray="0" stroke="rgba(255, 255, 255, 0)" fill="none" transform="matrix(1 0 0 1 159 11 )" class="stroke" mask="url(#Clip15)" />
    <path d="M 1.6923076923076925 13.285714285714286  L 1.6923076923076925 17.571428571428573  L 5.5 17.571428571428573  L 5.5 13.285714285714286  L 1.6923076923076925 13.285714285714286  Z " stroke-width="0" stroke-dasharray="0" stroke="rgba(255, 255, 255, 0)" fill="none" transform="matrix(1 0 0 1 159 11 )" class="stroke" mask="url(#Clip15)" />
    <path d="M 6.346153846153846 13.285714285714286  L 6.346153846153846 17.571428571428573  L 10.576923076923077 17.571428571428573  L 10.576923076923077 13.285714285714286  L 6.346153846153846 13.285714285714286  Z " stroke-width="0" stroke-dasharray="0" stroke="rgba(255, 255, 255, 0)" fill="none" transform="matrix(1 0 0 1 159 11 )" class="stroke" mask="url(#Clip15)" />
    <path d="M 1.6923076923076925 8.57142857142857  L 1.6923076923076925 12.428571428571427  L 5.5 12.428571428571427  L 5.5 8.57142857142857  L 1.6923076923076925 8.57142857142857  Z " stroke-width="0" stroke-dasharray="0" stroke="rgba(255, 255, 255, 0)" fill="none" transform="matrix(1 0 0 1 159 11 )" class="stroke" mask="url(#Clip15)" />
    <path d="M 11.423076923076923 18.428571428571427  L 11.423076923076923 22.285714285714285  L 15.653846153846155 22.285714285714285  L 15.653846153846155 18.428571428571427  L 11.423076923076923 18.428571428571427  Z " stroke-width="0" stroke-dasharray="0" stroke="rgba(255, 255, 255, 0)" fill="none" transform="matrix(1 0 0 1 159 11 )" class="stroke" mask="url(#Clip15)" />
    <path d="M 6.346153846153846 8.57142857142857  L 6.346153846153846 12.428571428571427  L 10.576923076923077 12.428571428571427  L 10.576923076923077 8.57142857142857  L 6.346153846153846 8.57142857142857  Z " stroke-width="0" stroke-dasharray="0" stroke="rgba(255, 255, 255, 0)" fill="none" transform="matrix(1 0 0 1 159 11 )" class="stroke" mask="url(#Clip15)" />
    <path d="M 16.5 18.428571428571427  L 16.5 22.285714285714285  L 20.30769230769231 22.285714285714285  L 20.30769230769231 18.428571428571427  L 16.5 18.428571428571427  Z " stroke-width="0" stroke-dasharray="0" stroke="rgba(255, 255, 255, 0)" fill="none" transform="matrix(1 0 0 1 159 11 )" class="stroke" mask="url(#Clip15)" />
    <path d="M 11.423076923076923 13.285714285714286  L 11.423076923076923 17.571428571428573  L 15.653846153846155 17.571428571428573  L 15.653846153846155 13.285714285714286  L 11.423076923076923 13.285714285714286  Z " stroke-width="0" stroke-dasharray="0" stroke="rgba(255, 255, 255, 0)" fill="none" transform="matrix(1 0 0 1 159 11 )" class="stroke" mask="url(#Clip15)" />
    <path d="M 6.6436298076923075 6.3013392857142865  C 6.727363782051282 6.216517857142856  6.76923076923077 6.116071428571426  6.76923076923077 6  L 6.76923076923077 2.1428571428571432  C 6.76923076923077 2.0267857142857144  6.727363782051282 1.9263392857142847  6.6436298076923075 1.8415178571428568  C 6.559895833333334 1.7566964285714262  6.46073717948718 1.7142857142857135  6.346153846153846 1.7142857142857135  L 5.5 1.7142857142857135  C 5.385416666666667 1.7142857142857135  5.286258012820514 1.7566964285714262  5.202524038461538 1.8415178571428568  C 5.118790064102563 1.9263392857142847  5.0769230769230775 2.0267857142857144  5.0769230769230775 2.1428571428571432  L 5.0769230769230775 6  C 5.0769230769230775 6.116071428571426  5.118790064102563 6.216517857142856  5.202524038461538 6.3013392857142865  C 5.286258012820514 6.386160714285714  5.385416666666667 6.42857142857143  5.5 6.42857142857143  L 6.346153846153846 6.42857142857143  C 6.46073717948718 6.42857142857143  6.559895833333334 6.386160714285714  6.6436298076923075 6.3013392857142865  Z " stroke-width="0" stroke-dasharray="0" stroke="rgba(255, 255, 255, 0)" fill="none" transform="matrix(1 0 0 1 159 11 )" class="stroke" mask="url(#Clip15)" />
    <path d="M 16.5 13.285714285714286  L 16.5 17.571428571428573  L 20.30769230769231 17.571428571428573  L 20.30769230769231 13.285714285714286  L 16.5 13.285714285714286  Z " stroke-width="0" stroke-dasharray="0" stroke="rgba(255, 255, 255, 0)" fill="none" transform="matrix(1 0 0 1 159 11 )" class="stroke" mask="url(#Clip15)" />
    <path d="M 11.423076923076923 8.57142857142857  L 11.423076923076923 12.428571428571427  L 15.653846153846155 12.428571428571427  L 15.653846153846155 8.57142857142857  L 11.423076923076923 8.57142857142857  Z " stroke-width="0" stroke-dasharray="0" stroke="rgba(255, 255, 255, 0)" fill="none" transform="matrix(1 0 0 1 159 11 )" class="stroke" mask="url(#Clip15)" />
    <path d="M 16.5 8.57142857142857  L 16.5 12.428571428571427  L 20.30769230769231 12.428571428571427  L 20.30769230769231 8.57142857142857  L 16.5 8.57142857142857  Z " stroke-width="0" stroke-dasharray="0" stroke="rgba(255, 255, 255, 0)" fill="none" transform="matrix(1 0 0 1 159 11 )" class="stroke" mask="url(#Clip15)" />
    <path d="M 16.79747596153846 6.3013392857142865  C 16.881209935897438 6.216517857142856  16.923076923076923 6.116071428571426  16.923076923076923 6  L 16.923076923076923 2.1428571428571432  C 16.923076923076923 2.0267857142857144  16.881209935897438 1.9263392857142847  16.79747596153846 1.8415178571428568  C 16.71374198717949 1.7566964285714262  16.614583333333336 1.7142857142857135  16.5 1.7142857142857135  L 15.653846153846155 1.7142857142857135  C 15.539262820512823 1.7142857142857135  15.440104166666668 1.7566964285714262  15.356370192307692 1.8415178571428568  C 15.272636217948719 1.9263392857142847  15.23076923076923 2.0267857142857144  15.23076923076923 2.1428571428571432  L 15.23076923076923 6  C 15.23076923076923 6.116071428571426  15.272636217948719 6.216517857142856  15.356370192307692 6.3013392857142865  C 15.440104166666668 6.386160714285714  15.539262820512823 6.42857142857143  15.653846153846155 6.42857142857143  L 16.5 6.42857142857143  C 16.614583333333336 6.42857142857143  16.71374198717949 6.386160714285714  16.79747596153846 6.3013392857142865  Z " stroke-width="0" stroke-dasharray="0" stroke="rgba(255, 255, 255, 0)" fill="none" transform="matrix(1 0 0 1 159 11 )" class="stroke" mask="url(#Clip15)" />
    <path d="M 21.497596153846153 3.9375  C 21.832532051282055 4.276785714285714  22 4.678571428571428  22 5.142857142857143  L 22 22.285714285714285  C 22 22.75  21.832532051282055 23.151785714285715  21.497596153846153 23.49107142857143  C 21.16266025641026 23.830357142857142  20.766025641025642 24  20.30769230769231 24  L 1.6923076923076925 24  C 1.2339743589743593 24  0.8373397435897436 23.830357142857142  0.5024038461538461 23.49107142857143  C 0.1674679487179487 23.151785714285715  0 22.75  0 22.285714285714285  L 0 5.142857142857143  C 0 4.678571428571428  0.1674679487179487 4.276785714285714  0.5024038461538461 3.9375  C 0.8373397435897436 3.598214285714283  1.2339743589743593 3.4285714285714297  1.6923076923076925 3.4285714285714297  L 3.384615384615385 3.4285714285714297  L 3.384615384615385 2.1428571428571432  C 3.384615384615385 1.5535714285714297  3.5917467948717947 1.0491071428571415  4.006009615384615 0.6294642857142865  C 4.420272435897437 0.20982142857142883  4.918269230769231 0  5.5 0  L 6.346153846153846 0  C 6.927884615384615 0  7.4258814102564115 0.20982142857142883  7.84014423076923 0.6294642857142865  C 8.254407051282051 1.0491071428571415  8.461538461538462 1.5535714285714297  8.461538461538462 2.1428571428571432  L 8.461538461538462 3.4285714285714297  L 13.53846153846154 3.4285714285714297  L 13.53846153846154 2.1428571428571432  C 13.53846153846154 1.5535714285714297  13.745592948717949 1.0491071428571415  14.15985576923077 0.6294642857142865  C 14.574118589743593 0.20982142857142883  15.072115384615385 0  15.653846153846155 0  L 16.5 0  C 17.08173076923077 0  17.579727564102566 0.20982142857142883  17.993990384615383 0.6294642857142865  C 18.408253205128208 1.0491071428571415  18.615384615384617 1.5535714285714297  18.615384615384617 2.1428571428571432  L 18.615384615384617 3.4285714285714297  L 20.30769230769231 3.4285714285714297  C 20.766025641025642 3.4285714285714297  21.16266025641026 3.598214285714283  21.497596153846153 3.9375  Z " stroke-width="0" stroke-dasharray="0" stroke="rgba(255, 255, 255, 0)" fill="none" transform="matrix(1 0 0 1 159 11 )" class="stroke" mask="url(#Clip15)" />
  </g>
</svg>