<?xml version="1.0" encoding="utf-8"?>
<svg version="1.1" xmlns:xlink="http://www.w3.org/1999/xlink" width="16px" height="16px" xmlns="http://www.w3.org/2000/svg">
  <defs>
    <pattern id="BGPattern" patternUnits="userSpaceOnUse" alignment="0 0" imageRepeat="None" />
    <mask fill="white" id="Clip3">
      <path d="M 3.34375 11.744318181818182  C 3.400297619047619 11.816287878787879  3.4285714285714284 11.90151515151515  3.4285714285714284 12  L 3.4285714285714284 12.727272727272727  C 3.4285714285714284 12.825757575757574  3.400297619047619 12.910984848484848  3.34375 12.982954545454545  C 3.287202380952381 13.054924242424242  3.2202380952380953 13.09090909090909  3.142857142857143 13.09090909090909  L 2.5714285714285716 13.09090909090909  C 2.4940476190476195 13.09090909090909  2.4270833333333335 13.054924242424242  2.3705357142857144 12.982954545454545  C 2.3139880952380953 12.910984848484848  2.2857142857142856 12.825757575757574  2.2857142857142856 12.727272727272727  L 2.2857142857142856 12  C 2.2857142857142856 11.90151515151515  2.3139880952380953 11.816287878787879  2.3705357142857144 11.744318181818182  C 2.4270833333333335 11.672348484848484  2.4940476190476195 11.636363636363637  2.5714285714285716 11.636363636363637  L 3.142857142857143 11.636363636363637  C 3.2202380952380953 11.636363636363637  3.287202380952381 11.672348484848484  3.34375 11.744318181818182  Z M 3.34375 8.835227272727273  C 3.400297619047619 8.907196969696969  3.4285714285714284 8.992424242424242  3.4285714285714284 9.09090909090909  L 3.4285714285714284 9.818181818181818  C 3.4285714285714284 9.916666666666666  3.400297619047619 10.001893939393938  3.34375 10.073863636363637  C 3.287202380952381 10.145833333333332  3.2202380952380953 10.181818181818182  3.142857142857143 10.181818181818182  L 2.5714285714285716 10.181818181818182  C 2.4940476190476195 10.181818181818182  2.4270833333333335 10.145833333333332  2.3705357142857144 10.073863636363637  C 2.3139880952380953 10.001893939393938  2.2857142857142856 9.916666666666666  2.2857142857142856 9.818181818181818  L 2.2857142857142856 9.09090909090909  C 2.2857142857142856 8.992424242424242  2.3139880952380953 8.907196969696969  2.3705357142857144 8.835227272727273  C 2.4270833333333335 8.763257575757574  2.4940476190476195 8.727272727272727  2.5714285714285716 8.727272727272727  L 3.142857142857143 8.727272727272727  C 3.2202380952380953 8.727272727272727  3.287202380952381 8.763257575757574  3.34375 8.835227272727273  Z M 3.34375 5.926136363636363  C 3.400297619047619 5.9981060606060606  3.4285714285714284 6.083333333333332  3.4285714285714284 6.181818181818182  L 3.4285714285714284 6.909090909090908  C 3.4285714285714284 7.007575757575758  3.400297619047619 7.092803030303029  3.34375 7.164772727272727  C 3.287202380952381 7.236742424242424  3.2202380952380953 7.272727272727273  3.142857142857143 7.272727272727273  L 2.5714285714285716 7.272727272727273  C 2.4940476190476195 7.272727272727273  2.4270833333333335 7.236742424242424  2.3705357142857144 7.164772727272727  C 2.3139880952380953 7.092803030303029  2.2857142857142856 7.007575757575758  2.2857142857142856 6.909090909090908  L 2.2857142857142856 6.181818181818182  C 2.2857142857142856 6.083333333333332  2.3139880952380953 5.9981060606060606  2.3705357142857144 5.926136363636363  C 2.4270833333333335 5.854166666666666  2.4940476190476195 5.818181818181818  2.5714285714285716 5.818181818181818  L 3.142857142857143 5.818181818181818  C 3.2202380952380953 5.818181818181818  3.287202380952381 5.854166666666666  3.34375 5.926136363636363  Z M 13.629464285714286 11.744318181818182  C 13.686011904761903 11.816287878787879  13.714285714285714 11.90151515151515  13.714285714285714 12  L 13.714285714285714 12.727272727272727  C 13.714285714285714 12.825757575757574  13.686011904761903 12.910984848484848  13.629464285714286 12.982954545454545  C 13.572916666666668 13.054924242424242  13.505952380952381 13.09090909090909  13.428571428571429 13.09090909090909  L 4.857142857142857 13.09090909090909  C 4.779761904761905 13.09090909090909  4.7127976190476195 13.054924242424242  4.65625 12.982954545454545  C 4.599702380952381 12.910984848484848  4.571428571428571 12.825757575757574  4.571428571428571 12.727272727272727  L 4.571428571428571 12  C 4.571428571428571 11.90151515151515  4.599702380952381 11.816287878787879  4.65625 11.744318181818182  C 4.7127976190476195 11.672348484848484  4.779761904761905 11.636363636363637  4.857142857142857 11.636363636363637  L 13.428571428571429 11.636363636363637  C 13.505952380952381 11.636363636363637  13.572916666666668 11.672348484848484  13.629464285714286 11.744318181818182  Z M 13.629464285714286 8.835227272727273  C 13.686011904761903 8.907196969696969  13.714285714285714 8.992424242424242  13.714285714285714 9.09090909090909  L 13.714285714285714 9.818181818181818  C 13.714285714285714 9.916666666666666  13.686011904761903 10.001893939393938  13.629464285714286 10.073863636363637  C 13.572916666666668 10.145833333333332  13.505952380952381 10.181818181818182  13.428571428571429 10.181818181818182  L 4.857142857142857 10.181818181818182  C 4.779761904761905 10.181818181818182  4.7127976190476195 10.145833333333332  4.65625 10.073863636363637  C 4.599702380952381 10.001893939393938  4.571428571428571 9.916666666666666  4.571428571428571 9.818181818181818  L 4.571428571428571 9.09090909090909  C 4.571428571428571 8.992424242424242  4.599702380952381 8.907196969696969  4.65625 8.835227272727273  C 4.7127976190476195 8.763257575757574  4.779761904761905 8.727272727272727  4.857142857142857 8.727272727272727  L 13.428571428571429 8.727272727272727  C 13.505952380952381 8.727272727272727  13.572916666666668 8.763257575757574  13.629464285714286 8.835227272727273  Z M 13.629464285714286 5.926136363636363  C 13.686011904761903 5.9981060606060606  13.714285714285714 6.083333333333332  13.714285714285714 6.181818181818182  L 13.714285714285714 6.909090909090908  C 13.714285714285714 7.007575757575758  13.686011904761903 7.092803030303029  13.629464285714286 7.164772727272727  C 13.572916666666668 7.236742424242424  13.505952380952381 7.272727272727273  13.428571428571429 7.272727272727273  L 4.857142857142857 7.272727272727273  C 4.779761904761905 7.272727272727273  4.7127976190476195 7.236742424242424  4.65625 7.164772727272727  C 4.599702380952381 7.092803030303029  4.571428571428571 7.007575757575758  4.571428571428571 6.909090909090908  L 4.571428571428571 6.181818181818182  C 4.571428571428571 6.083333333333332  4.599702380952381 5.9981060606060606  4.65625 5.926136363636363  C 4.7127976190476195 5.854166666666666  4.779761904761905 5.818181818181818  4.857142857142857 5.818181818181818  L 13.428571428571429 5.818181818181818  C 13.505952380952381 5.818181818181818  13.572916666666668 5.854166666666666  13.629464285714286 5.926136363636363  Z M 14.772321428571429 14.4375  C 14.82886904761905 14.365530303030305  14.857142857142858 14.280303030303031  14.857142857142858 14.181818181818182  L 14.857142857142858 4.727272727272727  C 14.857142857142858 4.628787878787877  14.82886904761905 4.5435606060606055  14.772321428571429 4.471590909090908  C 14.71577380952381 4.399621212121211  14.648809523809524 4.363636363636363  14.571428571428571 4.363636363636363  L 1.4285714285714286 4.363636363636363  C 1.3511904761904763 4.363636363636363  1.2842261904761905 4.399621212121211  1.2276785714285714 4.471590909090908  C 1.1711309523809526 4.5435606060606055  1.1428571428571428 4.628787878787877  1.1428571428571428 4.727272727272727  L 1.1428571428571428 14.181818181818182  C 1.1428571428571428 14.280303030303031  1.1711309523809526 14.365530303030305  1.2276785714285714 14.4375  C 1.2842261904761905 14.509469696969695  1.3511904761904763 14.545454545454545  1.4285714285714286 14.545454545454545  L 14.571428571428571 14.545454545454545  C 14.648809523809524 14.545454545454545  14.71577380952381 14.509469696969695  14.772321428571429 14.4375  Z M 15.580357142857142 0.5340909090909083  C 15.86011904761905 0.8901515151515138  16 1.3181818181818183  16 1.8181818181818183  L 16 14.181818181818182  C 16 14.681818181818182  15.86011904761905 15.109848484848486  15.580357142857142 15.465909090909092  C 15.30059523809524 15.821969696969695  14.964285714285717 16  14.571428571428571 16  L 1.4285714285714286 16  C 1.0357142857142858 16  0.699404761904762 15.821969696969695  0.41964285714285715 15.465909090909092  C 0.13988095238095238 15.109848484848486  0 14.681818181818182  0 14.181818181818182  L 0 1.8181818181818183  C 0 1.3181818181818183  0.13988095238095238 0.8901515151515138  0.41964285714285715 0.5340909090909083  C 0.699404761904762 0.17803030303030098  1.0357142857142858 0  1.4285714285714286 0  L 14.571428571428571 0  C 14.964285714285717 0  15.30059523809524 0.17803030303030098  15.580357142857142 0.5340909090909083  Z " fill-rule="evenodd" />
    </mask>
  </defs>
  <g transform="matrix(1 0 0 1 -24 -154 )">
    <path d="M 3.34375 11.744318181818182  C 3.400297619047619 11.816287878787879  3.4285714285714284 11.90151515151515  3.4285714285714284 12  L 3.4285714285714284 12.727272727272727  C 3.4285714285714284 12.825757575757574  3.400297619047619 12.910984848484848  3.34375 12.982954545454545  C 3.287202380952381 13.054924242424242  3.2202380952380953 13.09090909090909  3.142857142857143 13.09090909090909  L 2.5714285714285716 13.09090909090909  C 2.4940476190476195 13.09090909090909  2.4270833333333335 13.054924242424242  2.3705357142857144 12.982954545454545  C 2.3139880952380953 12.910984848484848  2.2857142857142856 12.825757575757574  2.2857142857142856 12.727272727272727  L 2.2857142857142856 12  C 2.2857142857142856 11.90151515151515  2.3139880952380953 11.816287878787879  2.3705357142857144 11.744318181818182  C 2.4270833333333335 11.672348484848484  2.4940476190476195 11.636363636363637  2.5714285714285716 11.636363636363637  L 3.142857142857143 11.636363636363637  C 3.2202380952380953 11.636363636363637  3.287202380952381 11.672348484848484  3.34375 11.744318181818182  Z M 3.34375 8.835227272727273  C 3.400297619047619 8.907196969696969  3.4285714285714284 8.992424242424242  3.4285714285714284 9.09090909090909  L 3.4285714285714284 9.818181818181818  C 3.4285714285714284 9.916666666666666  3.400297619047619 10.001893939393938  3.34375 10.073863636363637  C 3.287202380952381 10.145833333333332  3.2202380952380953 10.181818181818182  3.142857142857143 10.181818181818182  L 2.5714285714285716 10.181818181818182  C 2.4940476190476195 10.181818181818182  2.4270833333333335 10.145833333333332  2.3705357142857144 10.073863636363637  C 2.3139880952380953 10.001893939393938  2.2857142857142856 9.916666666666666  2.2857142857142856 9.818181818181818  L 2.2857142857142856 9.09090909090909  C 2.2857142857142856 8.992424242424242  2.3139880952380953 8.907196969696969  2.3705357142857144 8.835227272727273  C 2.4270833333333335 8.763257575757574  2.4940476190476195 8.727272727272727  2.5714285714285716 8.727272727272727  L 3.142857142857143 8.727272727272727  C 3.2202380952380953 8.727272727272727  3.287202380952381 8.763257575757574  3.34375 8.835227272727273  Z M 3.34375 5.926136363636363  C 3.400297619047619 5.9981060606060606  3.4285714285714284 6.083333333333332  3.4285714285714284 6.181818181818182  L 3.4285714285714284 6.909090909090908  C 3.4285714285714284 7.007575757575758  3.400297619047619 7.092803030303029  3.34375 7.164772727272727  C 3.287202380952381 7.236742424242424  3.2202380952380953 7.272727272727273  3.142857142857143 7.272727272727273  L 2.5714285714285716 7.272727272727273  C 2.4940476190476195 7.272727272727273  2.4270833333333335 7.236742424242424  2.3705357142857144 7.164772727272727  C 2.3139880952380953 7.092803030303029  2.2857142857142856 7.007575757575758  2.2857142857142856 6.909090909090908  L 2.2857142857142856 6.181818181818182  C 2.2857142857142856 6.083333333333332  2.3139880952380953 5.9981060606060606  2.3705357142857144 5.926136363636363  C 2.4270833333333335 5.854166666666666  2.4940476190476195 5.818181818181818  2.5714285714285716 5.818181818181818  L 3.142857142857143 5.818181818181818  C 3.2202380952380953 5.818181818181818  3.287202380952381 5.854166666666666  3.34375 5.926136363636363  Z M 13.629464285714286 11.744318181818182  C 13.686011904761903 11.816287878787879  13.714285714285714 11.90151515151515  13.714285714285714 12  L 13.714285714285714 12.727272727272727  C 13.714285714285714 12.825757575757574  13.686011904761903 12.910984848484848  13.629464285714286 12.982954545454545  C 13.572916666666668 13.054924242424242  13.505952380952381 13.09090909090909  13.428571428571429 13.09090909090909  L 4.857142857142857 13.09090909090909  C 4.779761904761905 13.09090909090909  4.7127976190476195 13.054924242424242  4.65625 12.982954545454545  C 4.599702380952381 12.910984848484848  4.571428571428571 12.825757575757574  4.571428571428571 12.727272727272727  L 4.571428571428571 12  C 4.571428571428571 11.90151515151515  4.599702380952381 11.816287878787879  4.65625 11.744318181818182  C 4.7127976190476195 11.672348484848484  4.779761904761905 11.636363636363637  4.857142857142857 11.636363636363637  L 13.428571428571429 11.636363636363637  C 13.505952380952381 11.636363636363637  13.572916666666668 11.672348484848484  13.629464285714286 11.744318181818182  Z M 13.629464285714286 8.835227272727273  C 13.686011904761903 8.907196969696969  13.714285714285714 8.992424242424242  13.714285714285714 9.09090909090909  L 13.714285714285714 9.818181818181818  C 13.714285714285714 9.916666666666666  13.686011904761903 10.001893939393938  13.629464285714286 10.073863636363637  C 13.572916666666668 10.145833333333332  13.505952380952381 10.181818181818182  13.428571428571429 10.181818181818182  L 4.857142857142857 10.181818181818182  C 4.779761904761905 10.181818181818182  4.7127976190476195 10.145833333333332  4.65625 10.073863636363637  C 4.599702380952381 10.001893939393938  4.571428571428571 9.916666666666666  4.571428571428571 9.818181818181818  L 4.571428571428571 9.09090909090909  C 4.571428571428571 8.992424242424242  4.599702380952381 8.907196969696969  4.65625 8.835227272727273  C 4.7127976190476195 8.763257575757574  4.779761904761905 8.727272727272727  4.857142857142857 8.727272727272727  L 13.428571428571429 8.727272727272727  C 13.505952380952381 8.727272727272727  13.572916666666668 8.763257575757574  13.629464285714286 8.835227272727273  Z M 13.629464285714286 5.926136363636363  C 13.686011904761903 5.9981060606060606  13.714285714285714 6.083333333333332  13.714285714285714 6.181818181818182  L 13.714285714285714 6.909090909090908  C 13.714285714285714 7.007575757575758  13.686011904761903 7.092803030303029  13.629464285714286 7.164772727272727  C 13.572916666666668 7.236742424242424  13.505952380952381 7.272727272727273  13.428571428571429 7.272727272727273  L 4.857142857142857 7.272727272727273  C 4.779761904761905 7.272727272727273  4.7127976190476195 7.236742424242424  4.65625 7.164772727272727  C 4.599702380952381 7.092803030303029  4.571428571428571 7.007575757575758  4.571428571428571 6.909090909090908  L 4.571428571428571 6.181818181818182  C 4.571428571428571 6.083333333333332  4.599702380952381 5.9981060606060606  4.65625 5.926136363636363  C 4.7127976190476195 5.854166666666666  4.779761904761905 5.818181818181818  4.857142857142857 5.818181818181818  L 13.428571428571429 5.818181818181818  C 13.505952380952381 5.818181818181818  13.572916666666668 5.854166666666666  13.629464285714286 5.926136363636363  Z M 14.772321428571429 14.4375  C 14.82886904761905 14.365530303030305  14.857142857142858 14.280303030303031  14.857142857142858 14.181818181818182  L 14.857142857142858 4.727272727272727  C 14.857142857142858 4.628787878787877  14.82886904761905 4.5435606060606055  14.772321428571429 4.471590909090908  C 14.71577380952381 4.399621212121211  14.648809523809524 4.363636363636363  14.571428571428571 4.363636363636363  L 1.4285714285714286 4.363636363636363  C 1.3511904761904763 4.363636363636363  1.2842261904761905 4.399621212121211  1.2276785714285714 4.471590909090908  C 1.1711309523809526 4.5435606060606055  1.1428571428571428 4.628787878787877  1.1428571428571428 4.727272727272727  L 1.1428571428571428 14.181818181818182  C 1.1428571428571428 14.280303030303031  1.1711309523809526 14.365530303030305  1.2276785714285714 14.4375  C 1.2842261904761905 14.509469696969695  1.3511904761904763 14.545454545454545  1.4285714285714286 14.545454545454545  L 14.571428571428571 14.545454545454545  C 14.648809523809524 14.545454545454545  14.71577380952381 14.509469696969695  14.772321428571429 14.4375  Z M 15.580357142857142 0.5340909090909083  C 15.86011904761905 0.8901515151515138  16 1.3181818181818183  16 1.8181818181818183  L 16 14.181818181818182  C 16 14.681818181818182  15.86011904761905 15.109848484848486  15.580357142857142 15.465909090909092  C 15.30059523809524 15.821969696969695  14.964285714285717 16  14.571428571428571 16  L 1.4285714285714286 16  C 1.0357142857142858 16  0.699404761904762 15.821969696969695  0.41964285714285715 15.465909090909092  C 0.13988095238095238 15.109848484848486  0 14.681818181818182  0 14.181818181818182  L 0 1.8181818181818183  C 0 1.3181818181818183  0.13988095238095238 0.8901515151515138  0.41964285714285715 0.5340909090909083  C 0.699404761904762 0.17803030303030098  1.0357142857142858 0  1.4285714285714286 0  L 14.571428571428571 0  C 14.964285714285717 0  15.30059523809524 0.17803030303030098  15.580357142857142 0.5340909090909083  Z " fill-rule="nonzero" fill="rgba(0, 0, 0, 1)" stroke="none" transform="matrix(1 0 0 1 24 154 )" class="fill" />
    <path d="M 3.34375 11.744318181818182  C 3.400297619047619 11.816287878787879  3.4285714285714284 11.90151515151515  3.4285714285714284 12  L 3.4285714285714284 12.727272727272727  C 3.4285714285714284 12.825757575757574  3.400297619047619 12.910984848484848  3.34375 12.982954545454545  C 3.287202380952381 13.054924242424242  3.2202380952380953 13.09090909090909  3.142857142857143 13.09090909090909  L 2.5714285714285716 13.09090909090909  C 2.4940476190476195 13.09090909090909  2.4270833333333335 13.054924242424242  2.3705357142857144 12.982954545454545  C 2.3139880952380953 12.910984848484848  2.2857142857142856 12.825757575757574  2.2857142857142856 12.727272727272727  L 2.2857142857142856 12  C 2.2857142857142856 11.90151515151515  2.3139880952380953 11.816287878787879  2.3705357142857144 11.744318181818182  C 2.4270833333333335 11.672348484848484  2.4940476190476195 11.636363636363637  2.5714285714285716 11.636363636363637  L 3.142857142857143 11.636363636363637  C 3.2202380952380953 11.636363636363637  3.287202380952381 11.672348484848484  3.34375 11.744318181818182  Z " stroke-width="0" stroke-dasharray="0" stroke="rgba(255, 255, 255, 0)" fill="none" transform="matrix(1 0 0 1 24 154 )" class="stroke" mask="url(#Clip3)" />
    <path d="M 3.34375 8.835227272727273  C 3.400297619047619 8.907196969696969  3.4285714285714284 8.992424242424242  3.4285714285714284 9.09090909090909  L 3.4285714285714284 9.818181818181818  C 3.4285714285714284 9.916666666666666  3.400297619047619 10.001893939393938  3.34375 10.073863636363637  C 3.287202380952381 10.145833333333332  3.2202380952380953 10.181818181818182  3.142857142857143 10.181818181818182  L 2.5714285714285716 10.181818181818182  C 2.4940476190476195 10.181818181818182  2.4270833333333335 10.145833333333332  2.3705357142857144 10.073863636363637  C 2.3139880952380953 10.001893939393938  2.2857142857142856 9.916666666666666  2.2857142857142856 9.818181818181818  L 2.2857142857142856 9.09090909090909  C 2.2857142857142856 8.992424242424242  2.3139880952380953 8.907196969696969  2.3705357142857144 8.835227272727273  C 2.4270833333333335 8.763257575757574  2.4940476190476195 8.727272727272727  2.5714285714285716 8.727272727272727  L 3.142857142857143 8.727272727272727  C 3.2202380952380953 8.727272727272727  3.287202380952381 8.763257575757574  3.34375 8.835227272727273  Z " stroke-width="0" stroke-dasharray="0" stroke="rgba(255, 255, 255, 0)" fill="none" transform="matrix(1 0 0 1 24 154 )" class="stroke" mask="url(#Clip3)" />
    <path d="M 3.34375 5.926136363636363  C 3.400297619047619 5.9981060606060606  3.4285714285714284 6.083333333333332  3.4285714285714284 6.181818181818182  L 3.4285714285714284 6.909090909090908  C 3.4285714285714284 7.007575757575758  3.400297619047619 7.092803030303029  3.34375 7.164772727272727  C 3.287202380952381 7.236742424242424  3.2202380952380953 7.272727272727273  3.142857142857143 7.272727272727273  L 2.5714285714285716 7.272727272727273  C 2.4940476190476195 7.272727272727273  2.4270833333333335 7.236742424242424  2.3705357142857144 7.164772727272727  C 2.3139880952380953 7.092803030303029  2.2857142857142856 7.007575757575758  2.2857142857142856 6.909090909090908  L 2.2857142857142856 6.181818181818182  C 2.2857142857142856 6.083333333333332  2.3139880952380953 5.9981060606060606  2.3705357142857144 5.926136363636363  C 2.4270833333333335 5.854166666666666  2.4940476190476195 5.818181818181818  2.5714285714285716 5.818181818181818  L 3.142857142857143 5.818181818181818  C 3.2202380952380953 5.818181818181818  3.287202380952381 5.854166666666666  3.34375 5.926136363636363  Z " stroke-width="0" stroke-dasharray="0" stroke="rgba(255, 255, 255, 0)" fill="none" transform="matrix(1 0 0 1 24 154 )" class="stroke" mask="url(#Clip3)" />
    <path d="M 13.629464285714286 11.744318181818182  C 13.686011904761903 11.816287878787879  13.714285714285714 11.90151515151515  13.714285714285714 12  L 13.714285714285714 12.727272727272727  C 13.714285714285714 12.825757575757574  13.686011904761903 12.910984848484848  13.629464285714286 12.982954545454545  C 13.572916666666668 13.054924242424242  13.505952380952381 13.09090909090909  13.428571428571429 13.09090909090909  L 4.857142857142857 13.09090909090909  C 4.779761904761905 13.09090909090909  4.7127976190476195 13.054924242424242  4.65625 12.982954545454545  C 4.599702380952381 12.910984848484848  4.571428571428571 12.825757575757574  4.571428571428571 12.727272727272727  L 4.571428571428571 12  C 4.571428571428571 11.90151515151515  4.599702380952381 11.816287878787879  4.65625 11.744318181818182  C 4.7127976190476195 11.672348484848484  4.779761904761905 11.636363636363637  4.857142857142857 11.636363636363637  L 13.428571428571429 11.636363636363637  C 13.505952380952381 11.636363636363637  13.572916666666668 11.672348484848484  13.629464285714286 11.744318181818182  Z " stroke-width="0" stroke-dasharray="0" stroke="rgba(255, 255, 255, 0)" fill="none" transform="matrix(1 0 0 1 24 154 )" class="stroke" mask="url(#Clip3)" />
    <path d="M 13.629464285714286 8.835227272727273  C 13.686011904761903 8.907196969696969  13.714285714285714 8.992424242424242  13.714285714285714 9.09090909090909  L 13.714285714285714 9.818181818181818  C 13.714285714285714 9.916666666666666  13.686011904761903 10.001893939393938  13.629464285714286 10.073863636363637  C 13.572916666666668 10.145833333333332  13.505952380952381 10.181818181818182  13.428571428571429 10.181818181818182  L 4.857142857142857 10.181818181818182  C 4.779761904761905 10.181818181818182  4.7127976190476195 10.145833333333332  4.65625 10.073863636363637  C 4.599702380952381 10.001893939393938  4.571428571428571 9.916666666666666  4.571428571428571 9.818181818181818  L 4.571428571428571 9.09090909090909  C 4.571428571428571 8.992424242424242  4.599702380952381 8.907196969696969  4.65625 8.835227272727273  C 4.7127976190476195 8.763257575757574  4.779761904761905 8.727272727272727  4.857142857142857 8.727272727272727  L 13.428571428571429 8.727272727272727  C 13.505952380952381 8.727272727272727  13.572916666666668 8.763257575757574  13.629464285714286 8.835227272727273  Z " stroke-width="0" stroke-dasharray="0" stroke="rgba(255, 255, 255, 0)" fill="none" transform="matrix(1 0 0 1 24 154 )" class="stroke" mask="url(#Clip3)" />
    <path d="M 13.629464285714286 5.926136363636363  C 13.686011904761903 5.9981060606060606  13.714285714285714 6.083333333333332  13.714285714285714 6.181818181818182  L 13.714285714285714 6.909090909090908  C 13.714285714285714 7.007575757575758  13.686011904761903 7.092803030303029  13.629464285714286 7.164772727272727  C 13.572916666666668 7.236742424242424  13.505952380952381 7.272727272727273  13.428571428571429 7.272727272727273  L 4.857142857142857 7.272727272727273  C 4.779761904761905 7.272727272727273  4.7127976190476195 7.236742424242424  4.65625 7.164772727272727  C 4.599702380952381 7.092803030303029  4.571428571428571 7.007575757575758  4.571428571428571 6.909090909090908  L 4.571428571428571 6.181818181818182  C 4.571428571428571 6.083333333333332  4.599702380952381 5.9981060606060606  4.65625 5.926136363636363  C 4.7127976190476195 5.854166666666666  4.779761904761905 5.818181818181818  4.857142857142857 5.818181818181818  L 13.428571428571429 5.818181818181818  C 13.505952380952381 5.818181818181818  13.572916666666668 5.854166666666666  13.629464285714286 5.926136363636363  Z " stroke-width="0" stroke-dasharray="0" stroke="rgba(255, 255, 255, 0)" fill="none" transform="matrix(1 0 0 1 24 154 )" class="stroke" mask="url(#Clip3)" />
    <path d="M 14.772321428571429 14.4375  C 14.82886904761905 14.365530303030305  14.857142857142858 14.280303030303031  14.857142857142858 14.181818181818182  L 14.857142857142858 4.727272727272727  C 14.857142857142858 4.628787878787877  14.82886904761905 4.5435606060606055  14.772321428571429 4.471590909090908  C 14.71577380952381 4.399621212121211  14.648809523809524 4.363636363636363  14.571428571428571 4.363636363636363  L 1.4285714285714286 4.363636363636363  C 1.3511904761904763 4.363636363636363  1.2842261904761905 4.399621212121211  1.2276785714285714 4.471590909090908  C 1.1711309523809526 4.5435606060606055  1.1428571428571428 4.628787878787877  1.1428571428571428 4.727272727272727  L 1.1428571428571428 14.181818181818182  C 1.1428571428571428 14.280303030303031  1.1711309523809526 14.365530303030305  1.2276785714285714 14.4375  C 1.2842261904761905 14.509469696969695  1.3511904761904763 14.545454545454545  1.4285714285714286 14.545454545454545  L 14.571428571428571 14.545454545454545  C 14.648809523809524 14.545454545454545  14.71577380952381 14.509469696969695  14.772321428571429 14.4375  Z " stroke-width="0" stroke-dasharray="0" stroke="rgba(255, 255, 255, 0)" fill="none" transform="matrix(1 0 0 1 24 154 )" class="stroke" mask="url(#Clip3)" />
    <path d="M 15.580357142857142 0.5340909090909083  C 15.86011904761905 0.8901515151515138  16 1.3181818181818183  16 1.8181818181818183  L 16 14.181818181818182  C 16 14.681818181818182  15.86011904761905 15.109848484848486  15.580357142857142 15.465909090909092  C 15.30059523809524 15.821969696969695  14.964285714285717 16  14.571428571428571 16  L 1.4285714285714286 16  C 1.0357142857142858 16  0.699404761904762 15.821969696969695  0.41964285714285715 15.465909090909092  C 0.13988095238095238 15.109848484848486  0 14.681818181818182  0 14.181818181818182  L 0 1.8181818181818183  C 0 1.3181818181818183  0.13988095238095238 0.8901515151515138  0.41964285714285715 0.5340909090909083  C 0.699404761904762 0.17803030303030098  1.0357142857142858 0  1.4285714285714286 0  L 14.571428571428571 0  C 14.964285714285717 0  15.30059523809524 0.17803030303030098  15.580357142857142 0.5340909090909083  Z " stroke-width="0" stroke-dasharray="0" stroke="rgba(255, 255, 255, 0)" fill="none" transform="matrix(1 0 0 1 24 154 )" class="stroke" mask="url(#Clip3)" />
  </g>
</svg>