<?xml version="1.0" encoding="utf-8"?>
<svg version="1.1" xmlns:xlink="http://www.w3.org/1999/xlink" width="16px" height="16px" xmlns="http://www.w3.org/2000/svg">
  <defs>
    <pattern id="BGPattern" patternUnits="userSpaceOnUse" alignment="0 0" imageRepeat="None" />
    <mask fill="white" id="Clip9">
      <path d="M 6.510204081632653 14.63125  C 6.503401360544218 14.677083333333334  6.510204081632653 14.733333333333334  6.530612244897959 14.8  C 6.530612244897959 14.833333333333334  6.534013605442177 14.916666666666666  6.540816326530612 15.05  C 6.547619047619048 15.183333333333334  6.549319727891157 15.29375  6.545918367346939 15.38125  C 6.542517006802722 15.46875  6.532312925170069 15.566666666666666  6.51530612244898 15.675  C 6.4982993197278915 15.783333333333335  6.464285714285714 15.864583333333334  6.413265306122449 15.91875  C 6.362244897959184 15.972916666666666  6.292517006802722 16  6.204081632653061 16  L 2.938775510204082 16  C 2.1292517006802725 16  1.4370748299319729 15.647916666666665  0.8622448979591837 14.94375  C 0.28741496598639454 14.239583333333334  0 13.391666666666666  0 12.4  L 0 3.5999999999999996  C 0 2.6083333333333307  0.28741496598639454 1.760416666666666  0.8622448979591837 1.0562500000000004  C 1.4370748299319729 0.3520833333333311  2.1292517006802725 0  2.938775510204082 0  L 6.204081632653061 0  C 6.292517006802722 0  6.3690476190476195 0.03958333333333108  6.433673469387755 0.11875000000000036  C 6.4982993197278915 0.19791666666666607  6.530612244897959 0.2916666666666661  6.530612244897959 0.40000000000000036  C 6.530612244897959 0.4333333333333318  6.534013605442177 0.5166666666666657  6.540816326530612 0.6500000000000004  C 6.547619047619048 0.7833333333333314  6.549319727891157 0.8937500000000007  6.545918367346939 0.9812499999999993  C 6.542517006802722 1.0687499999999996  6.532312925170069 1.166666666666666  6.51530612244898 1.2750000000000004  C 6.4982993197278915 1.383333333333331  6.464285714285714 1.4645833333333318  6.413265306122449 1.5187500000000007  C 6.362244897959184 1.572916666666666  6.292517006802722 1.5999999999999996  6.204081632653061 1.5999999999999996  L 2.938775510204082 1.5999999999999996  C 2.489795918367347 1.5999999999999996  2.1054421768707487 1.7958333333333307  1.7857142857142858 2.1875  C 1.4659863945578233 2.5791666666666657  1.3061224489795917 3.0500000000000007  1.3061224489795917 3.5999999999999996  L 1.3061224489795917 12.4  C 1.3061224489795917 12.95  1.4659863945578233 13.42083333333333  1.7857142857142858 13.8125  C 2.1054421768707487 14.204166666666666  2.489795918367347 14.4  2.938775510204082 14.4  L 5.877551020408164 14.4  L 5.989795918367347 14.4  L 6.122448979591836 14.4  C 6.122448979591836 14.4  6.161564625850341 14.404166666666665  6.239795918367347 14.4125  C 6.318027210884354 14.420833333333334  6.357142857142857 14.433333333333334  6.357142857142857 14.45  C 6.357142857142857 14.466666666666665  6.384353741496599 14.489583333333334  6.438775510204081 14.51875  C 6.493197278911565 14.547916666666666  6.517006802721089 14.585416666666665  6.510204081632653 14.63125  Z M 15.806122448979592 7.4375  C 15.935374149659864 7.595833333333333  16 7.783333333333333  16 8  C 16 8.216666666666665  15.935374149659864 8.404166666666665  15.806122448979592 8.5625  L 10.255102040816327 15.3625  C 10.125850340136054 15.520833333333334  9.97278911564626 15.6  9.795918367346939 15.6  C 9.61904761904762 15.6  9.465986394557824 15.520833333333334  9.33673469387755 15.3625  C 9.20748299319728 15.204166666666666  9.142857142857142 15.016666666666666  9.142857142857142 14.8  L 9.142857142857142 11.2  L 4.571428571428571 11.2  C 4.394557823129252 11.2  4.241496598639456 11.120833333333334  4.112244897959184 10.9625  C 3.9829931972789114 10.804166666666665  3.9183673469387754 10.616666666666665  3.9183673469387754 10.4  L 3.9183673469387754 5.6  C 3.9183673469387754 5.383333333333331  3.9829931972789114 5.195833333333331  4.112244897959184 5.0375  C 4.241496598639456 4.879166666666666  4.394557823129252 4.800000000000001  4.571428571428571 4.800000000000001  L 9.142857142857142 4.800000000000001  L 9.142857142857142 1.1999999999999993  C 9.142857142857142 0.9833333333333307  9.20748299319728 0.7958333333333307  9.33673469387755 0.6374999999999993  C 9.465986394557824 0.4791666666666661  9.61904761904762 0.40000000000000036  9.795918367346939 0.40000000000000036  C 9.97278911564626 0.40000000000000036  10.125850340136054 0.4791666666666661  10.255102040816327 0.6374999999999993  L 15.806122448979592 7.4375  Z " fill-rule="evenodd" />
    </mask>
  </defs>
  <g transform="matrix(1 0 0 1 -24 -777 )">
    <path d="M 6.510204081632653 14.63125  C 6.503401360544218 14.677083333333334  6.510204081632653 14.733333333333334  6.530612244897959 14.8  C 6.530612244897959 14.833333333333334  6.534013605442177 14.916666666666666  6.540816326530612 15.05  C 6.547619047619048 15.183333333333334  6.549319727891157 15.29375  6.545918367346939 15.38125  C 6.542517006802722 15.46875  6.532312925170069 15.566666666666666  6.51530612244898 15.675  C 6.4982993197278915 15.783333333333335  6.464285714285714 15.864583333333334  6.413265306122449 15.91875  C 6.362244897959184 15.972916666666666  6.292517006802722 16  6.204081632653061 16  L 2.938775510204082 16  C 2.1292517006802725 16  1.4370748299319729 15.647916666666665  0.8622448979591837 14.94375  C 0.28741496598639454 14.239583333333334  0 13.391666666666666  0 12.4  L 0 3.5999999999999996  C 0 2.6083333333333307  0.28741496598639454 1.760416666666666  0.8622448979591837 1.0562500000000004  C 1.4370748299319729 0.3520833333333311  2.1292517006802725 0  2.938775510204082 0  L 6.204081632653061 0  C 6.292517006802722 0  6.3690476190476195 0.03958333333333108  6.433673469387755 0.11875000000000036  C 6.4982993197278915 0.19791666666666607  6.530612244897959 0.2916666666666661  6.530612244897959 0.40000000000000036  C 6.530612244897959 0.4333333333333318  6.534013605442177 0.5166666666666657  6.540816326530612 0.6500000000000004  C 6.547619047619048 0.7833333333333314  6.549319727891157 0.8937500000000007  6.545918367346939 0.9812499999999993  C 6.542517006802722 1.0687499999999996  6.532312925170069 1.166666666666666  6.51530612244898 1.2750000000000004  C 6.4982993197278915 1.383333333333331  6.464285714285714 1.4645833333333318  6.413265306122449 1.5187500000000007  C 6.362244897959184 1.572916666666666  6.292517006802722 1.5999999999999996  6.204081632653061 1.5999999999999996  L 2.938775510204082 1.5999999999999996  C 2.489795918367347 1.5999999999999996  2.1054421768707487 1.7958333333333307  1.7857142857142858 2.1875  C 1.4659863945578233 2.5791666666666657  1.3061224489795917 3.0500000000000007  1.3061224489795917 3.5999999999999996  L 1.3061224489795917 12.4  C 1.3061224489795917 12.95  1.4659863945578233 13.42083333333333  1.7857142857142858 13.8125  C 2.1054421768707487 14.204166666666666  2.489795918367347 14.4  2.938775510204082 14.4  L 5.877551020408164 14.4  L 5.989795918367347 14.4  L 6.122448979591836 14.4  C 6.122448979591836 14.4  6.161564625850341 14.404166666666665  6.239795918367347 14.4125  C 6.318027210884354 14.420833333333334  6.357142857142857 14.433333333333334  6.357142857142857 14.45  C 6.357142857142857 14.466666666666665  6.384353741496599 14.489583333333334  6.438775510204081 14.51875  C 6.493197278911565 14.547916666666666  6.517006802721089 14.585416666666665  6.510204081632653 14.63125  Z M 15.806122448979592 7.4375  C 15.935374149659864 7.595833333333333  16 7.783333333333333  16 8  C 16 8.216666666666665  15.935374149659864 8.404166666666665  15.806122448979592 8.5625  L 10.255102040816327 15.3625  C 10.125850340136054 15.520833333333334  9.97278911564626 15.6  9.795918367346939 15.6  C 9.61904761904762 15.6  9.465986394557824 15.520833333333334  9.33673469387755 15.3625  C 9.20748299319728 15.204166666666666  9.142857142857142 15.016666666666666  9.142857142857142 14.8  L 9.142857142857142 11.2  L 4.571428571428571 11.2  C 4.394557823129252 11.2  4.241496598639456 11.120833333333334  4.112244897959184 10.9625  C 3.9829931972789114 10.804166666666665  3.9183673469387754 10.616666666666665  3.9183673469387754 10.4  L 3.9183673469387754 5.6  C 3.9183673469387754 5.383333333333331  3.9829931972789114 5.195833333333331  4.112244897959184 5.0375  C 4.241496598639456 4.879166666666666  4.394557823129252 4.800000000000001  4.571428571428571 4.800000000000001  L 9.142857142857142 4.800000000000001  L 9.142857142857142 1.1999999999999993  C 9.142857142857142 0.9833333333333307  9.20748299319728 0.7958333333333307  9.33673469387755 0.6374999999999993  C 9.465986394557824 0.4791666666666661  9.61904761904762 0.40000000000000036  9.795918367346939 0.40000000000000036  C 9.97278911564626 0.40000000000000036  10.125850340136054 0.4791666666666661  10.255102040816327 0.6374999999999993  L 15.806122448979592 7.4375  Z " fill-rule="nonzero" fill="rgba(0, 0, 0, 1)" stroke="none" transform="matrix(1 0 0 1 24 777 )" class="fill" />
    <path d="M 6.510204081632653 14.63125  C 6.503401360544218 14.677083333333334  6.510204081632653 14.733333333333334  6.530612244897959 14.8  C 6.530612244897959 14.833333333333334  6.534013605442177 14.916666666666666  6.540816326530612 15.05  C 6.547619047619048 15.183333333333334  6.549319727891157 15.29375  6.545918367346939 15.38125  C 6.542517006802722 15.46875  6.532312925170069 15.566666666666666  6.51530612244898 15.675  C 6.4982993197278915 15.783333333333335  6.464285714285714 15.864583333333334  6.413265306122449 15.91875  C 6.362244897959184 15.972916666666666  6.292517006802722 16  6.204081632653061 16  L 2.938775510204082 16  C 2.1292517006802725 16  1.4370748299319729 15.647916666666665  0.8622448979591837 14.94375  C 0.28741496598639454 14.239583333333334  0 13.391666666666666  0 12.4  L 0 3.5999999999999996  C 0 2.6083333333333307  0.28741496598639454 1.760416666666666  0.8622448979591837 1.0562500000000004  C 1.4370748299319729 0.3520833333333311  2.1292517006802725 0  2.938775510204082 0  L 6.204081632653061 0  C 6.292517006802722 0  6.3690476190476195 0.03958333333333108  6.433673469387755 0.11875000000000036  C 6.4982993197278915 0.19791666666666607  6.530612244897959 0.2916666666666661  6.530612244897959 0.40000000000000036  C 6.530612244897959 0.4333333333333318  6.534013605442177 0.5166666666666657  6.540816326530612 0.6500000000000004  C 6.547619047619048 0.7833333333333314  6.549319727891157 0.8937500000000007  6.545918367346939 0.9812499999999993  C 6.542517006802722 1.0687499999999996  6.532312925170069 1.166666666666666  6.51530612244898 1.2750000000000004  C 6.4982993197278915 1.383333333333331  6.464285714285714 1.4645833333333318  6.413265306122449 1.5187500000000007  C 6.362244897959184 1.572916666666666  6.292517006802722 1.5999999999999996  6.204081632653061 1.5999999999999996  L 2.938775510204082 1.5999999999999996  C 2.489795918367347 1.5999999999999996  2.1054421768707487 1.7958333333333307  1.7857142857142858 2.1875  C 1.4659863945578233 2.5791666666666657  1.3061224489795917 3.0500000000000007  1.3061224489795917 3.5999999999999996  L 1.3061224489795917 12.4  C 1.3061224489795917 12.95  1.4659863945578233 13.42083333333333  1.7857142857142858 13.8125  C 2.1054421768707487 14.204166666666666  2.489795918367347 14.4  2.938775510204082 14.4  L 5.877551020408164 14.4  L 5.989795918367347 14.4  L 6.122448979591836 14.4  C 6.122448979591836 14.4  6.161564625850341 14.404166666666665  6.239795918367347 14.4125  C 6.318027210884354 14.420833333333334  6.357142857142857 14.433333333333334  6.357142857142857 14.45  C 6.357142857142857 14.466666666666665  6.384353741496599 14.489583333333334  6.438775510204081 14.51875  C 6.493197278911565 14.547916666666666  6.517006802721089 14.585416666666665  6.510204081632653 14.63125  Z " stroke-width="0" stroke-dasharray="0" stroke="rgba(255, 255, 255, 0)" fill="none" transform="matrix(1 0 0 1 24 777 )" class="stroke" mask="url(#Clip9)" />
    <path d="M 15.806122448979592 7.4375  C 15.935374149659864 7.595833333333333  16 7.783333333333333  16 8  C 16 8.216666666666665  15.935374149659864 8.404166666666665  15.806122448979592 8.5625  L 10.255102040816327 15.3625  C 10.125850340136054 15.520833333333334  9.97278911564626 15.6  9.795918367346939 15.6  C 9.61904761904762 15.6  9.465986394557824 15.520833333333334  9.33673469387755 15.3625  C 9.20748299319728 15.204166666666666  9.142857142857142 15.016666666666666  9.142857142857142 14.8  L 9.142857142857142 11.2  L 4.571428571428571 11.2  C 4.394557823129252 11.2  4.241496598639456 11.120833333333334  4.112244897959184 10.9625  C 3.9829931972789114 10.804166666666665  3.9183673469387754 10.616666666666665  3.9183673469387754 10.4  L 3.9183673469387754 5.6  C 3.9183673469387754 5.383333333333331  3.9829931972789114 5.195833333333331  4.112244897959184 5.0375  C 4.241496598639456 4.879166666666666  4.394557823129252 4.800000000000001  4.571428571428571 4.800000000000001  L 9.142857142857142 4.800000000000001  L 9.142857142857142 1.1999999999999993  C 9.142857142857142 0.9833333333333307  9.20748299319728 0.7958333333333307  9.33673469387755 0.6374999999999993  C 9.465986394557824 0.4791666666666661  9.61904761904762 0.40000000000000036  9.795918367346939 0.40000000000000036  C 9.97278911564626 0.40000000000000036  10.125850340136054 0.4791666666666661  10.255102040816327 0.6374999999999993  L 15.806122448979592 7.4375  Z " stroke-width="0" stroke-dasharray="0" stroke="rgba(255, 255, 255, 0)" fill="none" transform="matrix(1 0 0 1 24 777 )" class="stroke" mask="url(#Clip9)" />
  </g>
</svg>