<?xml version="1.0" encoding="utf-8"?>
<svg version="1.1" xmlns:xlink="http://www.w3.org/1999/xlink" width="37px" height="38px" xmlns="http://www.w3.org/2000/svg">
  <defs>
    <pattern id="BGPattern" patternUnits="userSpaceOnUse" alignment="0 0" imageRepeat="None" />
    <mask fill="white" id="Clip1">
      <path d="M 9.439002403846153 28.664930555555557  C 9.994891826923078 29.214699074074073  10.272836538461538 29.87808641975308  10.272836538461538 30.655092592592595  C 10.272836538461538 31.432098765432094  9.994891826923078 32.095486111111114  9.439002403846153 32.645254629629626  C 8.88311298076923 33.195023148148145  8.212339743589745 33.469907407407405  7.4266826923076925 33.469907407407405  C 6.65584935897436 33.469907407407405  5.988782051282053 33.19135802469136  5.425480769230769 32.63425925925926  C 4.862179487179487 32.077160493827165  4.580528846153847 31.41743827160494  4.580528846153847 30.655092592592595  C 4.580528846153847 29.87808641975308  4.8584735576923075 29.214699074074073  5.414362980769231 28.664930555555557  C 5.970252403846153 28.115162037037035  6.641025641025641 27.840277777777775  7.4266826923076925 27.840277777777775  C 8.212339743589745 27.840277777777775  8.88311298076923 28.115162037037035  9.439002403846153 28.664930555555557  Z M 20.512319711538463 33.195023148148145  C 21.068209134615387 33.74479166666667  21.346153846153843 34.408179012345684  21.346153846153843 35.18518518518518  C 21.346153846153843 35.96219135802469  21.068209134615387 36.6255787037037  20.512319711538463 37.17534722222222  C 19.956430288461537 37.72511574074074  19.28565705128205 38  18.5 38  C 17.71434294871795 38  17.043569711538463 37.72511574074074  16.48768028846154 37.17534722222222  C 15.931790865384615 36.6255787037037  15.653846153846153 35.96219135802469  15.653846153846153 35.18518518518518  C 15.653846153846153 34.408179012345684  15.931790865384615 33.74479166666667  16.48768028846154 33.195023148148145  C 17.043569711538463 32.645254629629626  17.71434294871795 32.370370370370374  18.5 32.370370370370374  C 19.28565705128205 32.370370370370374  19.956430288461537 32.645254629629626  20.512319711538463 33.195023148148145  Z M 4.8584735576923075 17.713541666666668  C 5.414362980769231 18.263310185185187  5.6923076923076925 18.9266975308642  5.6923076923076925 19.703703703703706  C 5.6923076923076925 20.48070987654321  5.414362980769231 21.144097222222225  4.8584735576923075 21.69386574074074  C 4.302584134615385 22.24363425925926  3.631810897435898 22.51851851851852  2.8461538461538463 22.51851851851852  C 2.060496794871795 22.51851851851852  1.3897235576923077 22.24363425925926  0.8338341346153846 21.69386574074074  C 0.27794471153846156 21.144097222222225  0 20.48070987654321  0 19.703703703703706  C 0 18.9266975308642  0.27794471153846156 18.263310185185187  0.8338341346153846 17.713541666666668  C 1.3897235576923077 17.163773148148145  2.060496794871795 16.88888888888889  2.8461538461538463 16.88888888888889  C 3.631810897435898 16.88888888888889  4.302584134615385 17.163773148148145  4.8584735576923075 17.713541666666668  Z M 31.58563701923077 28.664930555555557  C 32.14152644230769 29.214699074074073  32.41947115384615 29.87808641975308  32.41947115384615 30.655092592592595  C 32.41947115384615 31.41743827160494  32.13782051282052 32.077160493827165  31.57451923076923 32.63425925925926  C 31.01121794871795 33.19135802469136  30.344150641025642 33.469907407407405  29.573317307692307 33.469907407407405  C 28.787660256410255 33.469907407407405  28.11688701923077 33.195023148148145  27.560997596153843 32.645254629629626  C 27.005108173076923 32.095486111111114  26.727163461538463 31.432098765432094  26.727163461538463 30.655092592592595  C 26.727163461538463 29.87808641975308  27.005108173076923 29.214699074074073  27.560997596153843 28.664930555555557  C 28.11688701923077 28.115162037037035  28.787660256410255 27.840277777777775  29.573317307692307 27.840277777777775  C 30.35897435897436 27.840277777777775  31.029747596153843 28.115162037037035  31.58563701923077 28.664930555555557  Z M 9.939302884615385 6.2673611111111125  C 10.636017628205128 6.956404320987651  10.984375 7.784722222222224  10.984375 8.752314814814815  C 10.984375 9.71990740740741  10.636017628205128 10.54822530864197  9.939302884615385 11.237268518518517  C 9.24258814102564 11.92631172839506  8.405048076923077 12.270833333333332  7.4266826923076925 12.270833333333332  C 6.4483173076923075 12.270833333333332  5.6107772435897445 11.92631172839506  4.9140625 11.237268518518517  C 4.217347756410257 10.54822530864197  3.8689903846153846 9.71990740740741  3.8689903846153846 8.752314814814815  C 3.8689903846153846 7.784722222222224  4.217347756410257 6.956404320987651  4.9140625 6.2673611111111125  C 5.6107772435897445 5.5783179012345645  6.4483173076923075 5.233796296296298  7.4266826923076925 5.233796296296298  C 8.405048076923077 5.233796296296298  9.24258814102564 5.5783179012345645  9.939302884615385 6.2673611111111125  Z M 36.16616586538461 17.713541666666668  C 36.72205528846155 18.263310185185187  37.00000000000001 18.9266975308642  37 19.703703703703706  C 37.00000000000001 20.48070987654321  36.72205528846155 21.144097222222225  36.16616586538461 21.69386574074074  C 35.61027644230769 22.24363425925926  34.93950320512821 22.51851851851852  34.15384615384615 22.51851851851852  C 33.3681891025641 22.51851851851852  32.69741586538461 22.24363425925926  32.14152644230769 21.69386574074074  C 31.58563701923077 21.144097222222225  31.307692307692307 20.48070987654321  31.307692307692307 19.703703703703706  C 31.307692307692307 18.9266975308642  31.58563701923077 18.263310185185187  32.14152644230769 17.713541666666668  C 32.69741586538461 17.163773148148145  33.3681891025641 16.88888888888889  34.15384615384615 16.88888888888889  C 34.93950320512821 16.88888888888889  35.61027644230769 17.163773148148145  36.16616586538461 17.713541666666668  Z M 21.524038461538463 1.2314814814814827  C 22.354166666666668 2.0524691358024656  22.76923076923077 3.0493827160493794  22.76923076923077 4.222222222222224  C 22.76923076923077 5.39506172839506  22.354166666666668 6.39197530864197  21.524038461538463 7.212962962962961  C 20.693910256410255 8.03395061728395  19.685897435897434 8.444444444444445  18.5 8.444444444444445  C 17.314102564102566 8.444444444444445  16.306089743589748 8.03395061728395  15.475961538461538 7.212962962962961  C 14.645833333333334 6.39197530864197  14.230769230769232 5.39506172839506  14.230769230769232 4.222222222222224  C 14.230769230769232 3.0493827160493794  14.645833333333334 2.0524691358024656  15.475961538461538 1.2314814814814827  C 16.306089743589748 0.41049382716049565  17.314102564102566 0  18.5 0  C 19.685897435897434 0  20.693910256410255 0.41049382716049565  21.524038461538463 1.2314814814814827  Z M 33.08653846153846 5.277777777777776  C 34.06490384615385 6.24537037037037  34.55408653846154 7.403549382716047  34.55408653846154 8.752314814814815  C 34.55408653846154 10.11574074074074  34.06490384615385 11.277584876543207  33.08653846153846 12.237847222222225  C 32.10817307692308 13.198109567901232  30.93709935897436 13.67824074074074  29.573317307692307 13.67824074074074  C 28.194711538461537 13.67824074074074  27.019931891025642 13.198109567901232  26.048978365384613 12.237847222222225  C 25.07802483974359 11.277584876543207  24.592548076923077 10.11574074074074  24.592548076923077 8.752314814814815  C 24.592548076923077 7.403549382716047  25.07802483974359 6.24537037037037  26.048978365384613 5.277777777777776  C 27.019931891025642 4.310185185185185  28.194711538461537 3.826388888888888  29.573317307692307 3.826388888888888  C 30.93709935897436 3.826388888888888  32.10817307692308 4.310185185185185  33.08653846153846 5.277777777777776  Z " fill-rule="evenodd" />
    </mask>
  </defs>
  <g transform="matrix(1 0 0 1 -158 -257 )">
    <path d="M 9.439002403846153 28.664930555555557  C 9.994891826923078 29.214699074074073  10.272836538461538 29.87808641975308  10.272836538461538 30.655092592592595  C 10.272836538461538 31.432098765432094  9.994891826923078 32.095486111111114  9.439002403846153 32.645254629629626  C 8.88311298076923 33.195023148148145  8.212339743589745 33.469907407407405  7.4266826923076925 33.469907407407405  C 6.65584935897436 33.469907407407405  5.988782051282053 33.19135802469136  5.425480769230769 32.63425925925926  C 4.862179487179487 32.077160493827165  4.580528846153847 31.41743827160494  4.580528846153847 30.655092592592595  C 4.580528846153847 29.87808641975308  4.8584735576923075 29.214699074074073  5.414362980769231 28.664930555555557  C 5.970252403846153 28.115162037037035  6.641025641025641 27.840277777777775  7.4266826923076925 27.840277777777775  C 8.212339743589745 27.840277777777775  8.88311298076923 28.115162037037035  9.439002403846153 28.664930555555557  Z M 20.512319711538463 33.195023148148145  C 21.068209134615387 33.74479166666667  21.346153846153843 34.408179012345684  21.346153846153843 35.18518518518518  C 21.346153846153843 35.96219135802469  21.068209134615387 36.6255787037037  20.512319711538463 37.17534722222222  C 19.956430288461537 37.72511574074074  19.28565705128205 38  18.5 38  C 17.71434294871795 38  17.043569711538463 37.72511574074074  16.48768028846154 37.17534722222222  C 15.931790865384615 36.6255787037037  15.653846153846153 35.96219135802469  15.653846153846153 35.18518518518518  C 15.653846153846153 34.408179012345684  15.931790865384615 33.74479166666667  16.48768028846154 33.195023148148145  C 17.043569711538463 32.645254629629626  17.71434294871795 32.370370370370374  18.5 32.370370370370374  C 19.28565705128205 32.370370370370374  19.956430288461537 32.645254629629626  20.512319711538463 33.195023148148145  Z M 4.8584735576923075 17.713541666666668  C 5.414362980769231 18.263310185185187  5.6923076923076925 18.9266975308642  5.6923076923076925 19.703703703703706  C 5.6923076923076925 20.48070987654321  5.414362980769231 21.144097222222225  4.8584735576923075 21.69386574074074  C 4.302584134615385 22.24363425925926  3.631810897435898 22.51851851851852  2.8461538461538463 22.51851851851852  C 2.060496794871795 22.51851851851852  1.3897235576923077 22.24363425925926  0.8338341346153846 21.69386574074074  C 0.27794471153846156 21.144097222222225  0 20.48070987654321  0 19.703703703703706  C 0 18.9266975308642  0.27794471153846156 18.263310185185187  0.8338341346153846 17.713541666666668  C 1.3897235576923077 17.163773148148145  2.060496794871795 16.88888888888889  2.8461538461538463 16.88888888888889  C 3.631810897435898 16.88888888888889  4.302584134615385 17.163773148148145  4.8584735576923075 17.713541666666668  Z M 31.58563701923077 28.664930555555557  C 32.14152644230769 29.214699074074073  32.41947115384615 29.87808641975308  32.41947115384615 30.655092592592595  C 32.41947115384615 31.41743827160494  32.13782051282052 32.077160493827165  31.57451923076923 32.63425925925926  C 31.01121794871795 33.19135802469136  30.344150641025642 33.469907407407405  29.573317307692307 33.469907407407405  C 28.787660256410255 33.469907407407405  28.11688701923077 33.195023148148145  27.560997596153843 32.645254629629626  C 27.005108173076923 32.095486111111114  26.727163461538463 31.432098765432094  26.727163461538463 30.655092592592595  C 26.727163461538463 29.87808641975308  27.005108173076923 29.214699074074073  27.560997596153843 28.664930555555557  C 28.11688701923077 28.115162037037035  28.787660256410255 27.840277777777775  29.573317307692307 27.840277777777775  C 30.35897435897436 27.840277777777775  31.029747596153843 28.115162037037035  31.58563701923077 28.664930555555557  Z M 9.939302884615385 6.2673611111111125  C 10.636017628205128 6.956404320987651  10.984375 7.784722222222224  10.984375 8.752314814814815  C 10.984375 9.71990740740741  10.636017628205128 10.54822530864197  9.939302884615385 11.237268518518517  C 9.24258814102564 11.92631172839506  8.405048076923077 12.270833333333332  7.4266826923076925 12.270833333333332  C 6.4483173076923075 12.270833333333332  5.6107772435897445 11.92631172839506  4.9140625 11.237268518518517  C 4.217347756410257 10.54822530864197  3.8689903846153846 9.71990740740741  3.8689903846153846 8.752314814814815  C 3.8689903846153846 7.784722222222224  4.217347756410257 6.956404320987651  4.9140625 6.2673611111111125  C 5.6107772435897445 5.5783179012345645  6.4483173076923075 5.233796296296298  7.4266826923076925 5.233796296296298  C 8.405048076923077 5.233796296296298  9.24258814102564 5.5783179012345645  9.939302884615385 6.2673611111111125  Z M 36.16616586538461 17.713541666666668  C 36.72205528846155 18.263310185185187  37.00000000000001 18.9266975308642  37 19.703703703703706  C 37.00000000000001 20.48070987654321  36.72205528846155 21.144097222222225  36.16616586538461 21.69386574074074  C 35.61027644230769 22.24363425925926  34.93950320512821 22.51851851851852  34.15384615384615 22.51851851851852  C 33.3681891025641 22.51851851851852  32.69741586538461 22.24363425925926  32.14152644230769 21.69386574074074  C 31.58563701923077 21.144097222222225  31.307692307692307 20.48070987654321  31.307692307692307 19.703703703703706  C 31.307692307692307 18.9266975308642  31.58563701923077 18.263310185185187  32.14152644230769 17.713541666666668  C 32.69741586538461 17.163773148148145  33.3681891025641 16.88888888888889  34.15384615384615 16.88888888888889  C 34.93950320512821 16.88888888888889  35.61027644230769 17.163773148148145  36.16616586538461 17.713541666666668  Z M 21.524038461538463 1.2314814814814827  C 22.354166666666668 2.0524691358024656  22.76923076923077 3.0493827160493794  22.76923076923077 4.222222222222224  C 22.76923076923077 5.39506172839506  22.354166666666668 6.39197530864197  21.524038461538463 7.212962962962961  C 20.693910256410255 8.03395061728395  19.685897435897434 8.444444444444445  18.5 8.444444444444445  C 17.314102564102566 8.444444444444445  16.306089743589748 8.03395061728395  15.475961538461538 7.212962962962961  C 14.645833333333334 6.39197530864197  14.230769230769232 5.39506172839506  14.230769230769232 4.222222222222224  C 14.230769230769232 3.0493827160493794  14.645833333333334 2.0524691358024656  15.475961538461538 1.2314814814814827  C 16.306089743589748 0.41049382716049565  17.314102564102566 0  18.5 0  C 19.685897435897434 0  20.693910256410255 0.41049382716049565  21.524038461538463 1.2314814814814827  Z M 33.08653846153846 5.277777777777776  C 34.06490384615385 6.24537037037037  34.55408653846154 7.403549382716047  34.55408653846154 8.752314814814815  C 34.55408653846154 10.11574074074074  34.06490384615385 11.277584876543207  33.08653846153846 12.237847222222225  C 32.10817307692308 13.198109567901232  30.93709935897436 13.67824074074074  29.573317307692307 13.67824074074074  C 28.194711538461537 13.67824074074074  27.019931891025642 13.198109567901232  26.048978365384613 12.237847222222225  C 25.07802483974359 11.277584876543207  24.592548076923077 10.11574074074074  24.592548076923077 8.752314814814815  C 24.592548076923077 7.403549382716047  25.07802483974359 6.24537037037037  26.048978365384613 5.277777777777776  C 27.019931891025642 4.310185185185185  28.194711538461537 3.826388888888888  29.573317307692307 3.826388888888888  C 30.93709935897436 3.826388888888888  32.10817307692308 4.310185185185185  33.08653846153846 5.277777777777776  Z " fill-rule="nonzero" fill="rgba(249, 252, 255, 0.8745098039215686)" stroke="none" transform="matrix(1 0 0 1 158 257 )" class="fill" />
    <path d="M 9.439002403846153 28.664930555555557  C 9.994891826923078 29.214699074074073  10.272836538461538 29.87808641975308  10.272836538461538 30.655092592592595  C 10.272836538461538 31.432098765432094  9.994891826923078 32.095486111111114  9.439002403846153 32.645254629629626  C 8.88311298076923 33.195023148148145  8.212339743589745 33.469907407407405  7.4266826923076925 33.469907407407405  C 6.65584935897436 33.469907407407405  5.988782051282053 33.19135802469136  5.425480769230769 32.63425925925926  C 4.862179487179487 32.077160493827165  4.580528846153847 31.41743827160494  4.580528846153847 30.655092592592595  C 4.580528846153847 29.87808641975308  4.8584735576923075 29.214699074074073  5.414362980769231 28.664930555555557  C 5.970252403846153 28.115162037037035  6.641025641025641 27.840277777777775  7.4266826923076925 27.840277777777775  C 8.212339743589745 27.840277777777775  8.88311298076923 28.115162037037035  9.439002403846153 28.664930555555557  Z " stroke-width="0" stroke-dasharray="0" stroke="rgba(255, 255, 255, 0)" fill="none" transform="matrix(1 0 0 1 158 257 )" class="stroke" mask="url(#Clip1)" />
    <path d="M 20.512319711538463 33.195023148148145  C 21.068209134615387 33.74479166666667  21.346153846153843 34.408179012345684  21.346153846153843 35.18518518518518  C 21.346153846153843 35.96219135802469  21.068209134615387 36.6255787037037  20.512319711538463 37.17534722222222  C 19.956430288461537 37.72511574074074  19.28565705128205 38  18.5 38  C 17.71434294871795 38  17.043569711538463 37.72511574074074  16.48768028846154 37.17534722222222  C 15.931790865384615 36.6255787037037  15.653846153846153 35.96219135802469  15.653846153846153 35.18518518518518  C 15.653846153846153 34.408179012345684  15.931790865384615 33.74479166666667  16.48768028846154 33.195023148148145  C 17.043569711538463 32.645254629629626  17.71434294871795 32.370370370370374  18.5 32.370370370370374  C 19.28565705128205 32.370370370370374  19.956430288461537 32.645254629629626  20.512319711538463 33.195023148148145  Z " stroke-width="0" stroke-dasharray="0" stroke="rgba(255, 255, 255, 0)" fill="none" transform="matrix(1 0 0 1 158 257 )" class="stroke" mask="url(#Clip1)" />
    <path d="M 4.8584735576923075 17.713541666666668  C 5.414362980769231 18.263310185185187  5.6923076923076925 18.9266975308642  5.6923076923076925 19.703703703703706  C 5.6923076923076925 20.48070987654321  5.414362980769231 21.144097222222225  4.8584735576923075 21.69386574074074  C 4.302584134615385 22.24363425925926  3.631810897435898 22.51851851851852  2.8461538461538463 22.51851851851852  C 2.060496794871795 22.51851851851852  1.3897235576923077 22.24363425925926  0.8338341346153846 21.69386574074074  C 0.27794471153846156 21.144097222222225  0 20.48070987654321  0 19.703703703703706  C 0 18.9266975308642  0.27794471153846156 18.263310185185187  0.8338341346153846 17.713541666666668  C 1.3897235576923077 17.163773148148145  2.060496794871795 16.88888888888889  2.8461538461538463 16.88888888888889  C 3.631810897435898 16.88888888888889  4.302584134615385 17.163773148148145  4.8584735576923075 17.713541666666668  Z " stroke-width="0" stroke-dasharray="0" stroke="rgba(255, 255, 255, 0)" fill="none" transform="matrix(1 0 0 1 158 257 )" class="stroke" mask="url(#Clip1)" />
    <path d="M 31.58563701923077 28.664930555555557  C 32.14152644230769 29.214699074074073  32.41947115384615 29.87808641975308  32.41947115384615 30.655092592592595  C 32.41947115384615 31.41743827160494  32.13782051282052 32.077160493827165  31.57451923076923 32.63425925925926  C 31.01121794871795 33.19135802469136  30.344150641025642 33.469907407407405  29.573317307692307 33.469907407407405  C 28.787660256410255 33.469907407407405  28.11688701923077 33.195023148148145  27.560997596153843 32.645254629629626  C 27.005108173076923 32.095486111111114  26.727163461538463 31.432098765432094  26.727163461538463 30.655092592592595  C 26.727163461538463 29.87808641975308  27.005108173076923 29.214699074074073  27.560997596153843 28.664930555555557  C 28.11688701923077 28.115162037037035  28.787660256410255 27.840277777777775  29.573317307692307 27.840277777777775  C 30.35897435897436 27.840277777777775  31.029747596153843 28.115162037037035  31.58563701923077 28.664930555555557  Z " stroke-width="0" stroke-dasharray="0" stroke="rgba(255, 255, 255, 0)" fill="none" transform="matrix(1 0 0 1 158 257 )" class="stroke" mask="url(#Clip1)" />
    <path d="M 9.939302884615385 6.2673611111111125  C 10.636017628205128 6.956404320987651  10.984375 7.784722222222224  10.984375 8.752314814814815  C 10.984375 9.71990740740741  10.636017628205128 10.54822530864197  9.939302884615385 11.237268518518517  C 9.24258814102564 11.92631172839506  8.405048076923077 12.270833333333332  7.4266826923076925 12.270833333333332  C 6.4483173076923075 12.270833333333332  5.6107772435897445 11.92631172839506  4.9140625 11.237268518518517  C 4.217347756410257 10.54822530864197  3.8689903846153846 9.71990740740741  3.8689903846153846 8.752314814814815  C 3.8689903846153846 7.784722222222224  4.217347756410257 6.956404320987651  4.9140625 6.2673611111111125  C 5.6107772435897445 5.5783179012345645  6.4483173076923075 5.233796296296298  7.4266826923076925 5.233796296296298  C 8.405048076923077 5.233796296296298  9.24258814102564 5.5783179012345645  9.939302884615385 6.2673611111111125  Z " stroke-width="0" stroke-dasharray="0" stroke="rgba(255, 255, 255, 0)" fill="none" transform="matrix(1 0 0 1 158 257 )" class="stroke" mask="url(#Clip1)" />
    <path d="M 36.16616586538461 17.713541666666668  C 36.72205528846155 18.263310185185187  37.00000000000001 18.9266975308642  37 19.703703703703706  C 37.00000000000001 20.48070987654321  36.72205528846155 21.144097222222225  36.16616586538461 21.69386574074074  C 35.61027644230769 22.24363425925926  34.93950320512821 22.51851851851852  34.15384615384615 22.51851851851852  C 33.3681891025641 22.51851851851852  32.69741586538461 22.24363425925926  32.14152644230769 21.69386574074074  C 31.58563701923077 21.144097222222225  31.307692307692307 20.48070987654321  31.307692307692307 19.703703703703706  C 31.307692307692307 18.9266975308642  31.58563701923077 18.263310185185187  32.14152644230769 17.713541666666668  C 32.69741586538461 17.163773148148145  33.3681891025641 16.88888888888889  34.15384615384615 16.88888888888889  C 34.93950320512821 16.88888888888889  35.61027644230769 17.163773148148145  36.16616586538461 17.713541666666668  Z " stroke-width="0" stroke-dasharray="0" stroke="rgba(255, 255, 255, 0)" fill="none" transform="matrix(1 0 0 1 158 257 )" class="stroke" mask="url(#Clip1)" />
    <path d="M 21.524038461538463 1.2314814814814827  C 22.354166666666668 2.0524691358024656  22.76923076923077 3.0493827160493794  22.76923076923077 4.222222222222224  C 22.76923076923077 5.39506172839506  22.354166666666668 6.39197530864197  21.524038461538463 7.212962962962961  C 20.693910256410255 8.03395061728395  19.685897435897434 8.444444444444445  18.5 8.444444444444445  C 17.314102564102566 8.444444444444445  16.306089743589748 8.03395061728395  15.475961538461538 7.212962962962961  C 14.645833333333334 6.39197530864197  14.230769230769232 5.39506172839506  14.230769230769232 4.222222222222224  C 14.230769230769232 3.0493827160493794  14.645833333333334 2.0524691358024656  15.475961538461538 1.2314814814814827  C 16.306089743589748 0.41049382716049565  17.314102564102566 0  18.5 0  C 19.685897435897434 0  20.693910256410255 0.41049382716049565  21.524038461538463 1.2314814814814827  Z " stroke-width="0" stroke-dasharray="0" stroke="rgba(255, 255, 255, 0)" fill="none" transform="matrix(1 0 0 1 158 257 )" class="stroke" mask="url(#Clip1)" />
    <path d="M 33.08653846153846 5.277777777777776  C 34.06490384615385 6.24537037037037  34.55408653846154 7.403549382716047  34.55408653846154 8.752314814814815  C 34.55408653846154 10.11574074074074  34.06490384615385 11.277584876543207  33.08653846153846 12.237847222222225  C 32.10817307692308 13.198109567901232  30.93709935897436 13.67824074074074  29.573317307692307 13.67824074074074  C 28.194711538461537 13.67824074074074  27.019931891025642 13.198109567901232  26.048978365384613 12.237847222222225  C 25.07802483974359 11.277584876543207  24.592548076923077 10.11574074074074  24.592548076923077 8.752314814814815  C 24.592548076923077 7.403549382716047  25.07802483974359 6.24537037037037  26.048978365384613 5.277777777777776  C 27.019931891025642 4.310185185185185  28.194711538461537 3.826388888888888  29.573317307692307 3.826388888888888  C 30.93709935897436 3.826388888888888  32.10817307692308 4.310185185185185  33.08653846153846 5.277777777777776  Z " stroke-width="0" stroke-dasharray="0" stroke="rgba(255, 255, 255, 0)" fill="none" transform="matrix(1 0 0 1 158 257 )" class="stroke" mask="url(#Clip1)" />
  </g>
</svg>