<?xml version="1.0" encoding="utf-8"?>
<svg version="1.1" xmlns:xlink="http://www.w3.org/1999/xlink" width="14px" height="16px" xmlns="http://www.w3.org/2000/svg">
  <defs>
    <pattern id="BGPattern" patternUnits="userSpaceOnUse" alignment="0 0" imageRepeat="None" />
    <mask fill="white" id="Clip5">
      <path d="M 1.26875 0  L 12.731250000000001 0  C 12.898958333333335 0  13.059375000000001 0.03172504957039024  13.2125 0.09517514871117072  C 13.453125 0.18682529191451636  13.64453125 0.3313505177351832  13.78671875 0.5287508261731659  C 13.928906249999999 0.7261511346111469  14 0.9447014760960553  14 1.184401850627891  L 14 14.815598149372109  C 14 15.055298523903945  13.928906249999999 15.273848865388851  13.78671875 15.471249173826834  C 13.64453125 15.668649482264817  13.453125 15.81317470808548  13.2125 15.90482485128883  C 13.073958333333335 15.961224939413967  12.913541666666667 15.989424983476537  12.731250000000001 15.989424983476537  C 12.38125 15.989424983476537  12.078645833333335 15.87662480722626  11.823437499999999 15.651024454725711  L 7 11.167217448777263  L 2.1765624999999997 15.651024454725711  C 1.9140625 15.883674818241904  1.6114583333333334 16  1.26875 16  C 1.1010416666666667 16  0.9406249999999999 15.96827495042961  0.7875 15.90482485128883  C 0.546875 15.81317470808548  0.35546875 15.668649482264817  0.21328125 15.471249173826834  C 0.07109375 15.273848865388851  0 15.055298523903945  0 14.815598149372109  L 0 1.184401850627891  C 0 0.9447014760960553  0.07109375 0.7261511346111469  0.21328125 0.5287508261731659  C 0.35546875 0.3313505177351832  0.546875 0.18682529191451636  0.7875 0.09517514871117072  C 0.9406249999999999 0.03172504957039024  1.1010416666666667 0  1.26875 0  Z " fill-rule="evenodd" />
    </mask>
  </defs>
  <g transform="matrix(1 0 0 1 -282 -27 )">
    <path d="M 1.26875 0  L 12.731250000000001 0  C 12.898958333333335 0  13.059375000000001 0.03172504957039024  13.2125 0.09517514871117072  C 13.453125 0.18682529191451636  13.64453125 0.3313505177351832  13.78671875 0.5287508261731659  C 13.928906249999999 0.7261511346111469  14 0.9447014760960553  14 1.184401850627891  L 14 14.815598149372109  C 14 15.055298523903945  13.928906249999999 15.273848865388851  13.78671875 15.471249173826834  C 13.64453125 15.668649482264817  13.453125 15.81317470808548  13.2125 15.90482485128883  C 13.073958333333335 15.961224939413967  12.913541666666667 15.989424983476537  12.731250000000001 15.989424983476537  C 12.38125 15.989424983476537  12.078645833333335 15.87662480722626  11.823437499999999 15.651024454725711  L 7 11.167217448777263  L 2.1765624999999997 15.651024454725711  C 1.9140625 15.883674818241904  1.6114583333333334 16  1.26875 16  C 1.1010416666666667 16  0.9406249999999999 15.96827495042961  0.7875 15.90482485128883  C 0.546875 15.81317470808548  0.35546875 15.668649482264817  0.21328125 15.471249173826834  C 0.07109375 15.273848865388851  0 15.055298523903945  0 14.815598149372109  L 0 1.184401850627891  C 0 0.9447014760960553  0.07109375 0.7261511346111469  0.21328125 0.5287508261731659  C 0.35546875 0.3313505177351832  0.546875 0.18682529191451636  0.7875 0.09517514871117072  C 0.9406249999999999 0.03172504957039024  1.1010416666666667 0  1.26875 0  Z " fill-rule="nonzero" fill="rgba(2, 133, 189, 1)" stroke="none" transform="matrix(1 0 0 1 282 27 )" class="fill" />
    <path d="M 1.26875 0  L 12.731250000000001 0  C 12.898958333333335 0  13.059375000000001 0.03172504957039024  13.2125 0.09517514871117072  C 13.453125 0.18682529191451636  13.64453125 0.3313505177351832  13.78671875 0.5287508261731659  C 13.928906249999999 0.7261511346111469  14 0.9447014760960553  14 1.184401850627891  L 14 14.815598149372109  C 14 15.055298523903945  13.928906249999999 15.273848865388851  13.78671875 15.471249173826834  C 13.64453125 15.668649482264817  13.453125 15.81317470808548  13.2125 15.90482485128883  C 13.073958333333335 15.961224939413967  12.913541666666667 15.989424983476537  12.731250000000001 15.989424983476537  C 12.38125 15.989424983476537  12.078645833333335 15.87662480722626  11.823437499999999 15.651024454725711  L 7 11.167217448777263  L 2.1765624999999997 15.651024454725711  C 1.9140625 15.883674818241904  1.6114583333333334 16  1.26875 16  C 1.1010416666666667 16  0.9406249999999999 15.96827495042961  0.7875 15.90482485128883  C 0.546875 15.81317470808548  0.35546875 15.668649482264817  0.21328125 15.471249173826834  C 0.07109375 15.273848865388851  0 15.055298523903945  0 14.815598149372109  L 0 1.184401850627891  C 0 0.9447014760960553  0.07109375 0.7261511346111469  0.21328125 0.5287508261731659  C 0.35546875 0.3313505177351832  0.546875 0.18682529191451636  0.7875 0.09517514871117072  C 0.9406249999999999 0.03172504957039024  1.1010416666666667 0  1.26875 0  Z " stroke-width="0" stroke-dasharray="0" stroke="rgba(255, 255, 255, 0)" fill="none" transform="matrix(1 0 0 1 282 27 )" class="stroke" mask="url(#Clip5)" />
  </g>
</svg>