<?xml version="1.0" encoding="utf-8"?>
<svg version="1.1" xmlns:xlink="http://www.w3.org/1999/xlink" width="41px" height="35px" xmlns="http://www.w3.org/2000/svg">
  <defs>
    <pattern id="BGPattern" patternUnits="userSpaceOnUse" alignment="0 0" imageRepeat="None" />
    <mask fill="white" id="Clip9">
      <path d="M 14.642857142857142 3  L 14.642857142857142 6  L 26.357142857142858 6  L 26.357142857142858 3  L 14.642857142857142 3  Z M 25.625 20  L 41 20  L 41 31.354166666666668  C 41 32.35677083333333  40.64155505952381 33.21506076388889  39.92466517857143 33.92903645833333  C 39.20777529761905 34.64301215277778  38.34598214285715 35  37.339285714285715 35  L 3.6607142857142856 35  C 2.654017857142857 35  1.7922247023809526 34.64301215277778  1.0753348214285714 33.92903645833333  C 0.35844494047619047 33.21506076388889  0 32.35677083333333  0 31.354166666666668  L 0 20  L 15.375 20  L 15.375 24.0625  C 15.375 24.457465277777775  15.519903273809526 24.799262152777775  15.809709821428571 25.087890625  C 16.09951636904762 25.376519097222218  16.442708333333336 25.520833333333336  16.839285714285715 25.520833333333336  L 24.160714285714285 25.520833333333336  C 24.557291666666668 25.520833333333336  24.900483630952387 25.376519097222218  25.190290178571427 25.087890625  C 25.480096726190478 24.799262152777775  25.625 24.457465277777775  25.625 24.0625  L 25.625 20  Z M 17.57142857142857 20.416666666666664  L 23.428571428571427 20.416666666666664  L 23.428571428571427 23.333333333333336  L 17.57142857142857 23.333333333333336  L 17.57142857142857 20.416666666666664  Z M 39.92466517857143 6.904296875  C 40.64155505952381 7.618272569444441  41 8.4765625  41 9.479166666666668  L 41 18  L 0 18  L 0 9.479166666666668  C 0 8.4765625  0.35844494047619047 7.618272569444441  1.0753348214285714 6.904296875  C 1.7922247023809526 6.190321180555551  2.654017857142857 5.833333333333332  3.6607142857142856 5.833333333333332  L 11.714285714285714 5.833333333333332  L 11.714285714285714 2.1875  C 11.714285714285714 1.5798611111111094  11.927827380952381 1.063368055555551  12.354910714285714 0.638020833333332  C 12.78199404761905 0.21267361111111327  13.300595238095239 0  13.910714285714286 0  L 27.089285714285715 0  C 27.699404761904763 0  28.218005952380956 0.21267361111111327  28.645089285714285 0.638020833333332  C 29.072172619047624 1.063368055555551  29.285714285714285 1.5798611111111094  29.285714285714285 2.1875  L 29.285714285714285 5.833333333333332  L 37.339285714285715 5.833333333333332  C 38.34598214285715 5.833333333333332  39.20777529761905 6.190321180555551  39.92466517857143 6.904296875  Z " fill-rule="evenodd" />
    </mask>
  </defs>
  <g transform="matrix(1 0 0 1 -26 -102 )">
    <path d="M 14.642857142857142 3  L 14.642857142857142 6  L 26.357142857142858 6  L 26.357142857142858 3  L 14.642857142857142 3  Z M 25.625 20  L 41 20  L 41 31.354166666666668  C 41 32.35677083333333  40.64155505952381 33.21506076388889  39.92466517857143 33.92903645833333  C 39.20777529761905 34.64301215277778  38.34598214285715 35  37.339285714285715 35  L 3.6607142857142856 35  C 2.654017857142857 35  1.7922247023809526 34.64301215277778  1.0753348214285714 33.92903645833333  C 0.35844494047619047 33.21506076388889  0 32.35677083333333  0 31.354166666666668  L 0 20  L 15.375 20  L 15.375 24.0625  C 15.375 24.457465277777775  15.519903273809526 24.799262152777775  15.809709821428571 25.087890625  C 16.09951636904762 25.376519097222218  16.442708333333336 25.520833333333336  16.839285714285715 25.520833333333336  L 24.160714285714285 25.520833333333336  C 24.557291666666668 25.520833333333336  24.900483630952387 25.376519097222218  25.190290178571427 25.087890625  C 25.480096726190478 24.799262152777775  25.625 24.457465277777775  25.625 24.0625  L 25.625 20  Z M 17.57142857142857 20.416666666666664  L 23.428571428571427 20.416666666666664  L 23.428571428571427 23.333333333333336  L 17.57142857142857 23.333333333333336  L 17.57142857142857 20.416666666666664  Z M 39.92466517857143 6.904296875  C 40.64155505952381 7.618272569444441  41 8.4765625  41 9.479166666666668  L 41 18  L 0 18  L 0 9.479166666666668  C 0 8.4765625  0.35844494047619047 7.618272569444441  1.0753348214285714 6.904296875  C 1.7922247023809526 6.190321180555551  2.654017857142857 5.833333333333332  3.6607142857142856 5.833333333333332  L 11.714285714285714 5.833333333333332  L 11.714285714285714 2.1875  C 11.714285714285714 1.5798611111111094  11.927827380952381 1.063368055555551  12.354910714285714 0.638020833333332  C 12.78199404761905 0.21267361111111327  13.300595238095239 0  13.910714285714286 0  L 27.089285714285715 0  C 27.699404761904763 0  28.218005952380956 0.21267361111111327  28.645089285714285 0.638020833333332  C 29.072172619047624 1.063368055555551  29.285714285714285 1.5798611111111094  29.285714285714285 2.1875  L 29.285714285714285 5.833333333333332  L 37.339285714285715 5.833333333333332  C 38.34598214285715 5.833333333333332  39.20777529761905 6.190321180555551  39.92466517857143 6.904296875  Z " fill-rule="nonzero" fill="rgba(51, 51, 51, 1)" stroke="none" transform="matrix(1 0 0 1 26 102 )" class="fill" />
    <path d="M 14.642857142857142 3  L 14.642857142857142 6  L 26.357142857142858 6  L 26.357142857142858 3  L 14.642857142857142 3  Z " stroke-width="0" stroke-dasharray="0" stroke="rgba(255, 255, 255, 0)" fill="none" transform="matrix(1 0 0 1 26 102 )" class="stroke" mask="url(#Clip9)" />
    <path d="M 25.625 20  L 41 20  L 41 31.354166666666668  C 41 32.35677083333333  40.64155505952381 33.21506076388889  39.92466517857143 33.92903645833333  C 39.20777529761905 34.64301215277778  38.34598214285715 35  37.339285714285715 35  L 3.6607142857142856 35  C 2.654017857142857 35  1.7922247023809526 34.64301215277778  1.0753348214285714 33.92903645833333  C 0.35844494047619047 33.21506076388889  0 32.35677083333333  0 31.354166666666668  L 0 20  L 15.375 20  L 15.375 24.0625  C 15.375 24.457465277777775  15.519903273809526 24.799262152777775  15.809709821428571 25.087890625  C 16.09951636904762 25.376519097222218  16.442708333333336 25.520833333333336  16.839285714285715 25.520833333333336  L 24.160714285714285 25.520833333333336  C 24.557291666666668 25.520833333333336  24.900483630952387 25.376519097222218  25.190290178571427 25.087890625  C 25.480096726190478 24.799262152777775  25.625 24.457465277777775  25.625 24.0625  L 25.625 20  Z " stroke-width="0" stroke-dasharray="0" stroke="rgba(255, 255, 255, 0)" fill="none" transform="matrix(1 0 0 1 26 102 )" class="stroke" mask="url(#Clip9)" />
    <path d="M 17.57142857142857 20.416666666666664  L 23.428571428571427 20.416666666666664  L 23.428571428571427 23.333333333333336  L 17.57142857142857 23.333333333333336  L 17.57142857142857 20.416666666666664  Z " stroke-width="0" stroke-dasharray="0" stroke="rgba(255, 255, 255, 0)" fill="none" transform="matrix(1 0 0 1 26 102 )" class="stroke" mask="url(#Clip9)" />
    <path d="M 39.92466517857143 6.904296875  C 40.64155505952381 7.618272569444441  41 8.4765625  41 9.479166666666668  L 41 18  L 0 18  L 0 9.479166666666668  C 0 8.4765625  0.35844494047619047 7.618272569444441  1.0753348214285714 6.904296875  C 1.7922247023809526 6.190321180555551  2.654017857142857 5.833333333333332  3.6607142857142856 5.833333333333332  L 11.714285714285714 5.833333333333332  L 11.714285714285714 2.1875  C 11.714285714285714 1.5798611111111094  11.927827380952381 1.063368055555551  12.354910714285714 0.638020833333332  C 12.78199404761905 0.21267361111111327  13.300595238095239 0  13.910714285714286 0  L 27.089285714285715 0  C 27.699404761904763 0  28.218005952380956 0.21267361111111327  28.645089285714285 0.638020833333332  C 29.072172619047624 1.063368055555551  29.285714285714285 1.5798611111111094  29.285714285714285 2.1875  L 29.285714285714285 5.833333333333332  L 37.339285714285715 5.833333333333332  C 38.34598214285715 5.833333333333332  39.20777529761905 6.190321180555551  39.92466517857143 6.904296875  Z " stroke-width="0" stroke-dasharray="0" stroke="rgba(255, 255, 255, 0)" fill="none" transform="matrix(1 0 0 1 26 102 )" class="stroke" mask="url(#Clip9)" />
  </g>
</svg>