<?xml version="1.0" encoding="utf-8"?>
<svg version="1.1" xmlns:xlink="http://www.w3.org/1999/xlink" width="43px" height="35px" xmlns="http://www.w3.org/2000/svg">
  <defs>
    <pattern id="BGPattern" patternUnits="userSpaceOnUse" alignment="0 0" imageRepeat="None" />
    <mask fill="white" id="Clip12">
      <path d="M 36.81908302354399 19.996102883865937  C 36.83684427922346 20.03247596778384  36.8457249070632 20.08703559366069  36 20.159781761496493  L 36 33.25409197194077  C 36.8457249070632 33.72694206287347  36.676992978108224 34.13613925694985  36.339529120198264 34.48168355416991  C 36.00206526228831 34.82722785138997  35.602437009500214 35  35.14064436183395 35  L 25 35  L 25 24.524551831644583  L 18 24.524551831644583  L 18 35  L 7.859355638166047 35  C 7.397562990499794 35  6.99793473771169 34.82722785138997  6.660470879801735 34.48168355416991  C 6.323007021891781 34.13613925694985  6.154275092936802 33.72694206287347  7 33.25409197194077  L 7 20.159781761496493  C 6.154275092936802 20.14159521953754  6.158715406856671 20.114315406599115  6.167596034696406 20.077942322681217  C 6.1764766625361425 20.041569238763316  6.18091697645601 20.01428942582489  6.18091697645601 19.996102883865937  L 21.5 7.065471551052221  L 36.81908302354399 19.996102883865937  Z M 42.97335811648079 17.636399064692128  C 42.99111937216027 17.881917381137956  42.92895497728212 18.095609249155626  42.786864931846345 18.277474668745132  L 41.13506815365552 20.29618082618862  C 40.992978108219745 20.459859703819177  40.806484923585295 20.559885684593404  40.575588599752166 20.5962587685113  L 40.495662949194546 20.5962587685113  C 40.264766625361425 20.5962587685113  40.078273440726974 20.532605871654972  39.9361833952912 20.40530007794232  L 21.5 4.664848012470772  L 3.063816604708798 20.40530007794232  C 2.8506815365551423 20.550792413613923  2.6375464684014873 20.614445310470252  2.4244114002478314 20.5962587685113  C 2.193515076414705 20.559885684593404  2.0070218917802563 20.459859703819177  1.8649318463444857 20.29618082618862  L 0.21313506815365552 18.277474668745132  C 0.07104502271788521 18.095609249155626  0.00888062783973571 17.881917381137956  0.02664188351920694 17.636399064692128  C 0.04440313919867836 17.3908807482463  0.14209004543577042 17.19537542218758  0.31970260223048325 17.049883086515976  L 19.47521685254027 0.7092751363990657  C 20.043577034283356 0.23642504546635135  20.718504750103264 0  21.5 0  C 22.28149524989674 0  22.956422965716648 0.23642504546635135  23.52478314745973 0.7092751363990657  L 30.025402726146222 6.274356975837878  L 30.025402726146222 0.9547934528448931  C 30.025402726146222 0.7001818654195857  30.105328376703838 0.4910366328916588  30.26517967781908 0.32735775526110844  C 30.425030978934323 0.16367887763055422  30.629285419248244 0.08183943881527711  30.877942998760844 0.08183943881527711  L 35.993184634448575 0.08183943881527711  C 36.24184221396118 0.08183943881527711  36.44609665427509 0.16367887763055422  36.605947955390334 0.32735775526110844  C 36.765799256505574 0.4910366328916588  36.8457249070632 0.7001818654195857  36 0.9547934528448931  L 36 12.084957131722526  L 42.680297397769515 17.049883086515976  C 42.857909954564235 17.19537542218758  42.95559686080133 17.3908807482463  42.97335811648079 17.636399064692128  Z " fill-rule="evenodd" />
    </mask>
  </defs>
  <g transform="matrix(1 0 0 1 -25 -17 )">
    <path d="M 36.81908302354399 19.996102883865937  C 36.83684427922346 20.03247596778384  36.8457249070632 20.08703559366069  36 20.159781761496493  L 36 33.25409197194077  C 36.8457249070632 33.72694206287347  36.676992978108224 34.13613925694985  36.339529120198264 34.48168355416991  C 36.00206526228831 34.82722785138997  35.602437009500214 35  35.14064436183395 35  L 25 35  L 25 24.524551831644583  L 18 24.524551831644583  L 18 35  L 7.859355638166047 35  C 7.397562990499794 35  6.99793473771169 34.82722785138997  6.660470879801735 34.48168355416991  C 6.323007021891781 34.13613925694985  6.154275092936802 33.72694206287347  7 33.25409197194077  L 7 20.159781761496493  C 6.154275092936802 20.14159521953754  6.158715406856671 20.114315406599115  6.167596034696406 20.077942322681217  C 6.1764766625361425 20.041569238763316  6.18091697645601 20.01428942582489  6.18091697645601 19.996102883865937  L 21.5 7.065471551052221  L 36.81908302354399 19.996102883865937  Z M 42.97335811648079 17.636399064692128  C 42.99111937216027 17.881917381137956  42.92895497728212 18.095609249155626  42.786864931846345 18.277474668745132  L 41.13506815365552 20.29618082618862  C 40.992978108219745 20.459859703819177  40.806484923585295 20.559885684593404  40.575588599752166 20.5962587685113  L 40.495662949194546 20.5962587685113  C 40.264766625361425 20.5962587685113  40.078273440726974 20.532605871654972  39.9361833952912 20.40530007794232  L 21.5 4.664848012470772  L 3.063816604708798 20.40530007794232  C 2.8506815365551423 20.550792413613923  2.6375464684014873 20.614445310470252  2.4244114002478314 20.5962587685113  C 2.193515076414705 20.559885684593404  2.0070218917802563 20.459859703819177  1.8649318463444857 20.29618082618862  L 0.21313506815365552 18.277474668745132  C 0.07104502271788521 18.095609249155626  0.00888062783973571 17.881917381137956  0.02664188351920694 17.636399064692128  C 0.04440313919867836 17.3908807482463  0.14209004543577042 17.19537542218758  0.31970260223048325 17.049883086515976  L 19.47521685254027 0.7092751363990657  C 20.043577034283356 0.23642504546635135  20.718504750103264 0  21.5 0  C 22.28149524989674 0  22.956422965716648 0.23642504546635135  23.52478314745973 0.7092751363990657  L 30.025402726146222 6.274356975837878  L 30.025402726146222 0.9547934528448931  C 30.025402726146222 0.7001818654195857  30.105328376703838 0.4910366328916588  30.26517967781908 0.32735775526110844  C 30.425030978934323 0.16367887763055422  30.629285419248244 0.08183943881527711  30.877942998760844 0.08183943881527711  L 35.993184634448575 0.08183943881527711  C 36.24184221396118 0.08183943881527711  36.44609665427509 0.16367887763055422  36.605947955390334 0.32735775526110844  C 36.765799256505574 0.4910366328916588  36.8457249070632 0.7001818654195857  36 0.9547934528448931  L 36 12.084957131722526  L 42.680297397769515 17.049883086515976  C 42.857909954564235 17.19537542218758  42.95559686080133 17.3908807482463  42.97335811648079 17.636399064692128  Z " fill-rule="nonzero" fill="rgba(51, 51, 51, 1)" stroke="none" transform="matrix(1 0 0 1 25 17 )" class="fill" />
    <path d="M 36.81908302354399 19.996102883865937  C 36.83684427922346 20.03247596778384  36.8457249070632 20.08703559366069  36 20.159781761496493  L 36 33.25409197194077  C 36.8457249070632 33.72694206287347  36.676992978108224 34.13613925694985  36.339529120198264 34.48168355416991  C 36.00206526228831 34.82722785138997  35.602437009500214 35  35.14064436183395 35  L 25 35  L 25 24.524551831644583  L 18 24.524551831644583  L 18 35  L 7.859355638166047 35  C 7.397562990499794 35  6.99793473771169 34.82722785138997  6.660470879801735 34.48168355416991  C 6.323007021891781 34.13613925694985  6.154275092936802 33.72694206287347  7 33.25409197194077  L 7 20.159781761496493  C 6.154275092936802 20.14159521953754  6.158715406856671 20.114315406599115  6.167596034696406 20.077942322681217  C 6.1764766625361425 20.041569238763316  6.18091697645601 20.01428942582489  6.18091697645601 19.996102883865937  L 21.5 7.065471551052221  L 36.81908302354399 19.996102883865937  Z " stroke-width="0" stroke-dasharray="0" stroke="rgba(255, 255, 255, 0)" fill="none" transform="matrix(1 0 0 1 25 17 )" class="stroke" mask="url(#Clip12)" />
    <path d="M 42.97335811648079 17.636399064692128  C 42.99111937216027 17.881917381137956  42.92895497728212 18.095609249155626  42.786864931846345 18.277474668745132  L 41.13506815365552 20.29618082618862  C 40.992978108219745 20.459859703819177  40.806484923585295 20.559885684593404  40.575588599752166 20.5962587685113  L 40.495662949194546 20.5962587685113  C 40.264766625361425 20.5962587685113  40.078273440726974 20.532605871654972  39.9361833952912 20.40530007794232  L 21.5 4.664848012470772  L 3.063816604708798 20.40530007794232  C 2.8506815365551423 20.550792413613923  2.6375464684014873 20.614445310470252  2.4244114002478314 20.5962587685113  C 2.193515076414705 20.559885684593404  2.0070218917802563 20.459859703819177  1.8649318463444857 20.29618082618862  L 0.21313506815365552 18.277474668745132  C 0.07104502271788521 18.095609249155626  0.00888062783973571 17.881917381137956  0.02664188351920694 17.636399064692128  C 0.04440313919867836 17.3908807482463  0.14209004543577042 17.19537542218758  0.31970260223048325 17.049883086515976  L 19.47521685254027 0.7092751363990657  C 20.043577034283356 0.23642504546635135  20.718504750103264 0  21.5 0  C 22.28149524989674 0  22.956422965716648 0.23642504546635135  23.52478314745973 0.7092751363990657  L 30.025402726146222 6.274356975837878  L 30.025402726146222 0.9547934528448931  C 30.025402726146222 0.7001818654195857  30.105328376703838 0.4910366328916588  30.26517967781908 0.32735775526110844  C 30.425030978934323 0.16367887763055422  30.629285419248244 0.08183943881527711  30.877942998760844 0.08183943881527711  L 35.993184634448575 0.08183943881527711  C 36.24184221396118 0.08183943881527711  36.44609665427509 0.16367887763055422  36.605947955390334 0.32735775526110844  C 36.765799256505574 0.4910366328916588  36.8457249070632 0.7001818654195857  36 0.9547934528448931  L 36 12.084957131722526  L 42.680297397769515 17.049883086515976  C 42.857909954564235 17.19537542218758  42.95559686080133 17.3908807482463  42.97335811648079 17.636399064692128  Z " stroke-width="0" stroke-dasharray="0" stroke="rgba(255, 255, 255, 0)" fill="none" transform="matrix(1 0 0 1 25 17 )" class="stroke" mask="url(#Clip12)" />
  </g>
</svg>