<?xml version="1.0" encoding="utf-8"?>
<svg version="1.1" xmlns:xlink="http://www.w3.org/1999/xlink" width="28px" height="16px" xmlns="http://www.w3.org/2000/svg">
  <defs>
    <pattern id="BGPattern" patternUnits="userSpaceOnUse" alignment="0 0" imageRepeat="None" />
    <mask fill="white" id="Clip34">
      <path d="M 27.71943887775551 13.085910652920962  C 27.906479625918504 13.269186712485677  28 13.479954180985107  28 13.718213058419245  C 28 13.956471935853376  27.906479625918504 14.167239404352804  27.71943887775551 14.350515463917526  L 26.316633266533067 15.72508591065292  C 26.129592518370078 15.908361970217635  25.914495657982634 16  25.67134268537074 16  C 25.42818971275885 16  25.21309285237141 15.908361970217635  25.026052104208418 15.72508591065292  L 14 4.920962199312715  L 2.973947895791583 15.72508591065292  C 2.7869071476285905 15.908361970217635  2.5718102872411492 16  2.3286573146292584 16  C 2.0855043420173685 16  1.8704074816299272 15.908361970217635  1.6833667334669338 15.72508591065292  L 0.280561122244489 14.350515463917526  C 0.0935203740814966 14.167239404352804  0 13.956471935853376  0 13.718213058419245  C 0 13.479954180985107  0.0935203740814966 13.269186712485677  0.280561122244489 13.085910652920962  L 13.354709418837675 0.27491408934707984  C 13.54175016700067 0.09163802978235758  13.756847027388112 0  14 0  C 14.243152972611892 0  14.458249832999332 0.09163802978235758  14.645290581162325 0.27491408934707984  L 27.71943887775551 13.085910652920962  Z " fill-rule="evenodd" />
    </mask>
  </defs>
  <g transform="matrix(1 0 0 1 -77 -100 )">
    <path d="M 27.71943887775551 13.085910652920962  C 27.906479625918504 13.269186712485677  28 13.479954180985107  28 13.718213058419245  C 28 13.956471935853376  27.906479625918504 14.167239404352804  27.71943887775551 14.350515463917526  L 26.316633266533067 15.72508591065292  C 26.129592518370078 15.908361970217635  25.914495657982634 16  25.67134268537074 16  C 25.42818971275885 16  25.21309285237141 15.908361970217635  25.026052104208418 15.72508591065292  L 14 4.920962199312715  L 2.973947895791583 15.72508591065292  C 2.7869071476285905 15.908361970217635  2.5718102872411492 16  2.3286573146292584 16  C 2.0855043420173685 16  1.8704074816299272 15.908361970217635  1.6833667334669338 15.72508591065292  L 0.280561122244489 14.350515463917526  C 0.0935203740814966 14.167239404352804  0 13.956471935853376  0 13.718213058419245  C 0 13.479954180985107  0.0935203740814966 13.269186712485677  0.280561122244489 13.085910652920962  L 13.354709418837675 0.27491408934707984  C 13.54175016700067 0.09163802978235758  13.756847027388112 0  14 0  C 14.243152972611892 0  14.458249832999332 0.09163802978235758  14.645290581162325 0.27491408934707984  L 27.71943887775551 13.085910652920962  Z " fill-rule="nonzero" fill="rgba(2, 133, 189, 1)" stroke="none" transform="matrix(1 0 0 1 77 100 )" class="fill" />
    <path d="M 27.71943887775551 13.085910652920962  C 27.906479625918504 13.269186712485677  28 13.479954180985107  28 13.718213058419245  C 28 13.956471935853376  27.906479625918504 14.167239404352804  27.71943887775551 14.350515463917526  L 26.316633266533067 15.72508591065292  C 26.129592518370078 15.908361970217635  25.914495657982634 16  25.67134268537074 16  C 25.42818971275885 16  25.21309285237141 15.908361970217635  25.026052104208418 15.72508591065292  L 14 4.920962199312715  L 2.973947895791583 15.72508591065292  C 2.7869071476285905 15.908361970217635  2.5718102872411492 16  2.3286573146292584 16  C 2.0855043420173685 16  1.8704074816299272 15.908361970217635  1.6833667334669338 15.72508591065292  L 0.280561122244489 14.350515463917526  C 0.0935203740814966 14.167239404352804  0 13.956471935853376  0 13.718213058419245  C 0 13.479954180985107  0.0935203740814966 13.269186712485677  0.280561122244489 13.085910652920962  L 13.354709418837675 0.27491408934707984  C 13.54175016700067 0.09163802978235758  13.756847027388112 0  14 0  C 14.243152972611892 0  14.458249832999332 0.09163802978235758  14.645290581162325 0.27491408934707984  L 27.71943887775551 13.085910652920962  Z " stroke-width="0" stroke-dasharray="0" stroke="rgba(255, 255, 255, 0)" fill="none" transform="matrix(1 0 0 1 77 100 )" class="stroke" mask="url(#Clip34)" />
  </g>
</svg>