<?xml version="1.0" encoding="utf-8"?>
<svg version="1.1" xmlns:xlink="http://www.w3.org/1999/xlink" width="32px" height="24px" xmlns="http://www.w3.org/2000/svg">
  <defs>
    <pattern id="BGPattern" patternUnits="userSpaceOnUse" alignment="0 0" imageRepeat="None" />
    <mask fill="white" id="Clip45">
      <path d="M 31.604166666666668 19.55625  C 31.868055555555554 19.793750000000003  32 20.075000000000003  32 20.4  L 32 22.799999999999997  C 32 23.125  31.868055555555554 23.40625  31.604166666666668 23.643749999999997  C 31.340277777777782 23.88125  31.027777777777782 24  30.666666666666668 24  L 1.3333333333333333 24  C 0.9722222222222223 24  0.6597222222222222 23.88125  0.3958333333333333 23.643749999999997  C 0.13194444444444445 23.40625  0 23.125  0 22.799999999999997  L 0 20.4  C 0 20.075000000000003  0.13194444444444445 19.793750000000003  0.3958333333333333 19.55625  C 0.6597222222222222 19.31875  0.9722222222222223 19.200000000000003  1.3333333333333333 19  L 30.666666666666668 19  C 31.027777777777782 19.200000000000003  31.340277777777782 19.31875  31.604166666666668 19.55625  Z M 31.604166666666668 9.956249999999999  C 31.868055555555554 10.193749999999998  32 10.474999999999998  32 10.799999999999999  L 32 13.200000000000001  C 32 13.524999999999999  31.868055555555554 13.806249999999999  31.604166666666668 14.043750000000001  C 31.340277777777782 14.281249999999998  31.027777777777782 14.399999999999999  30.666666666666668 14  L 1.3333333333333333 14  C 0.9722222222222223 14.399999999999999  0.6597222222222222 14.281249999999998  0.3958333333333333 14.043750000000001  C 0.13194444444444445 13.806249999999999  0 13.524999999999999  0 13.200000000000001  L 0 10.799999999999999  C 0 10.474999999999998  0.13194444444444445 10.193749999999998  0.3958333333333333 9.956249999999999  C 0.6597222222222222 9.718750000000002  0.9722222222222223 9.600000000000001  1.3333333333333333 10  L 30.666666666666668 10  C 31.027777777777782 9.600000000000001  31.340277777777782 9.718750000000002  31.604166666666668 9.956249999999999  Z M 31.604166666666668 0.35625000000000107  C 31.868055555555554 0.5937499999999982  32 0.8749999999999982  32 1.200000000000001  L 32 3.6000000000000005  C 32 3.924999999999998  31.868055555555554 4.206249999999998  31.604166666666668 4.4437500000000005  C 31.340277777777782 4.681249999999998  31.027777777777782 4.799999999999999  30.666666666666668 5  L 1.3333333333333333 5  C 0.9722222222222223 4.799999999999999  0.6597222222222222 4.681249999999998  0.3958333333333333 4.4437500000000005  C 0.13194444444444445 4.206249999999998  0 3.924999999999998  0 3.6000000000000005  L 0 1.200000000000001  C 0 0.8749999999999982  0.13194444444444445 0.5937499999999982  0.3958333333333333 0.35625000000000107  C 0.6597222222222222 0.11874999999999858  0.9722222222222223 0  1.3333333333333333 0  L 30.666666666666668 0  C 31.027777777777782 0  31.340277777777782 0.11874999999999858  31.604166666666668 0.35625000000000107  Z " fill-rule="evenodd" />
    </mask>
  </defs>
  <g transform="matrix(1 0 0 1 -20 -15 )">
    <path d="M 31.604166666666668 19.55625  C 31.868055555555554 19.793750000000003  32 20.075000000000003  32 20.4  L 32 22.799999999999997  C 32 23.125  31.868055555555554 23.40625  31.604166666666668 23.643749999999997  C 31.340277777777782 23.88125  31.027777777777782 24  30.666666666666668 24  L 1.3333333333333333 24  C 0.9722222222222223 24  0.6597222222222222 23.88125  0.3958333333333333 23.643749999999997  C 0.13194444444444445 23.40625  0 23.125  0 22.799999999999997  L 0 20.4  C 0 20.075000000000003  0.13194444444444445 19.793750000000003  0.3958333333333333 19.55625  C 0.6597222222222222 19.31875  0.9722222222222223 19.200000000000003  1.3333333333333333 19  L 30.666666666666668 19  C 31.027777777777782 19.200000000000003  31.340277777777782 19.31875  31.604166666666668 19.55625  Z M 31.604166666666668 9.956249999999999  C 31.868055555555554 10.193749999999998  32 10.474999999999998  32 10.799999999999999  L 32 13.200000000000001  C 32 13.524999999999999  31.868055555555554 13.806249999999999  31.604166666666668 14.043750000000001  C 31.340277777777782 14.281249999999998  31.027777777777782 14.399999999999999  30.666666666666668 14  L 1.3333333333333333 14  C 0.9722222222222223 14.399999999999999  0.6597222222222222 14.281249999999998  0.3958333333333333 14.043750000000001  C 0.13194444444444445 13.806249999999999  0 13.524999999999999  0 13.200000000000001  L 0 10.799999999999999  C 0 10.474999999999998  0.13194444444444445 10.193749999999998  0.3958333333333333 9.956249999999999  C 0.6597222222222222 9.718750000000002  0.9722222222222223 9.600000000000001  1.3333333333333333 10  L 30.666666666666668 10  C 31.027777777777782 9.600000000000001  31.340277777777782 9.718750000000002  31.604166666666668 9.956249999999999  Z M 31.604166666666668 0.35625000000000107  C 31.868055555555554 0.5937499999999982  32 0.8749999999999982  32 1.200000000000001  L 32 3.6000000000000005  C 32 3.924999999999998  31.868055555555554 4.206249999999998  31.604166666666668 4.4437500000000005  C 31.340277777777782 4.681249999999998  31.027777777777782 4.799999999999999  30.666666666666668 5  L 1.3333333333333333 5  C 0.9722222222222223 4.799999999999999  0.6597222222222222 4.681249999999998  0.3958333333333333 4.4437500000000005  C 0.13194444444444445 4.206249999999998  0 3.924999999999998  0 3.6000000000000005  L 0 1.200000000000001  C 0 0.8749999999999982  0.13194444444444445 0.5937499999999982  0.3958333333333333 0.35625000000000107  C 0.6597222222222222 0.11874999999999858  0.9722222222222223 0  1.3333333333333333 0  L 30.666666666666668 0  C 31.027777777777782 0  31.340277777777782 0.11874999999999858  31.604166666666668 0.35625000000000107  Z " fill-rule="nonzero" fill="rgba(249, 252, 255, 1)" stroke="none" transform="matrix(1 0 0 1 20 15 )" class="fill" />
    <path d="M 31.604166666666668 19.55625  C 31.868055555555554 19.793750000000003  32 20.075000000000003  32 20.4  L 32 22.799999999999997  C 32 23.125  31.868055555555554 23.40625  31.604166666666668 23.643749999999997  C 31.340277777777782 23.88125  31.027777777777782 24  30.666666666666668 24  L 1.3333333333333333 24  C 0.9722222222222223 24  0.6597222222222222 23.88125  0.3958333333333333 23.643749999999997  C 0.13194444444444445 23.40625  0 23.125  0 22.799999999999997  L 0 20.4  C 0 20.075000000000003  0.13194444444444445 19.793750000000003  0.3958333333333333 19.55625  C 0.6597222222222222 19.31875  0.9722222222222223 19.200000000000003  1.3333333333333333 19  L 30.666666666666668 19  C 31.027777777777782 19.200000000000003  31.340277777777782 19.31875  31.604166666666668 19.55625  Z " stroke-width="0" stroke-dasharray="0" stroke="rgba(255, 255, 255, 0)" fill="none" transform="matrix(1 0 0 1 20 15 )" class="stroke" mask="url(#Clip45)" />
    <path d="M 31.604166666666668 9.956249999999999  C 31.868055555555554 10.193749999999998  32 10.474999999999998  32 10.799999999999999  L 32 13.200000000000001  C 32 13.524999999999999  31.868055555555554 13.806249999999999  31.604166666666668 14.043750000000001  C 31.340277777777782 14.281249999999998  31.027777777777782 14.399999999999999  30.666666666666668 14  L 1.3333333333333333 14  C 0.9722222222222223 14.399999999999999  0.6597222222222222 14.281249999999998  0.3958333333333333 14.043750000000001  C 0.13194444444444445 13.806249999999999  0 13.524999999999999  0 13.200000000000001  L 0 10.799999999999999  C 0 10.474999999999998  0.13194444444444445 10.193749999999998  0.3958333333333333 9.956249999999999  C 0.6597222222222222 9.718750000000002  0.9722222222222223 9.600000000000001  1.3333333333333333 10  L 30.666666666666668 10  C 31.027777777777782 9.600000000000001  31.340277777777782 9.718750000000002  31.604166666666668 9.956249999999999  Z " stroke-width="0" stroke-dasharray="0" stroke="rgba(255, 255, 255, 0)" fill="none" transform="matrix(1 0 0 1 20 15 )" class="stroke" mask="url(#Clip45)" />
    <path d="M 31.604166666666668 0.35625000000000107  C 31.868055555555554 0.5937499999999982  32 0.8749999999999982  32 1.200000000000001  L 32 3.6000000000000005  C 32 3.924999999999998  31.868055555555554 4.206249999999998  31.604166666666668 4.4437500000000005  C 31.340277777777782 4.681249999999998  31.027777777777782 4.799999999999999  30.666666666666668 5  L 1.3333333333333333 5  C 0.9722222222222223 4.799999999999999  0.6597222222222222 4.681249999999998  0.3958333333333333 4.4437500000000005  C 0.13194444444444445 4.206249999999998  0 3.924999999999998  0 3.6000000000000005  L 0 1.200000000000001  C 0 0.8749999999999982  0.13194444444444445 0.5937499999999982  0.3958333333333333 0.35625000000000107  C 0.6597222222222222 0.11874999999999858  0.9722222222222223 0  1.3333333333333333 0  L 30.666666666666668 0  C 31.027777777777782 0  31.340277777777782 0.11874999999999858  31.604166666666668 0.35625000000000107  Z " stroke-width="0" stroke-dasharray="0" stroke="rgba(255, 255, 255, 0)" fill="none" transform="matrix(1 0 0 1 20 15 )" class="stroke" mask="url(#Clip45)" />
  </g>
</svg>