<?xml version="1.0" encoding="utf-8"?>
<svg version="1.1" xmlns:xlink="http://www.w3.org/1999/xlink" width="16px" height="16px" xmlns="http://www.w3.org/2000/svg">
  <defs>
    <pattern id="BGPattern" patternUnits="userSpaceOnUse" alignment="0 0" imageRepeat="None" />
    <mask fill="white" id="Clip68">
      <path d="M 10.395833333333334 10.229166666666668  C 11.034722222222223 9.631944444444443  11.791666666666666 9.333333333333332  12.666666666666666 9.333333333333332  C 13.590277777777779 9.333333333333332  14.376736111111112 9.65798611111111  15.026041666666666 10.307291666666668  C 15.675347222222221 10.956597222222221  16 11.743055555555554  16 12.666666666666666  C 16 13.590277777777779  15.675347222222221 14.376736111111112  15.026041666666666 15.026041666666666  C 14.376736111111112 15.675347222222221  13.590277777777779 16  12.666666666666666 16  C 11.743055555555557 16  10.956597222222223 15.675347222222221  10.307291666666666 15.026041666666666  C 9.657986111111112 14.376736111111112  9.333333333333334 13.590277777777779  9.333333333333334 12.666666666666666  C 9.333333333333334 12.583333333333334  9.340277777777779 12.465277777777777  9.354166666666666 12.3125  L 5.604166666666667 10.4375  C 4.965277777777778 11.034722222222221  4.208333333333333 11.333333333333332  3.3333333333333335 11.333333333333332  C 2.4097222222222223 11.333333333333332  1.623263888888889 11.008680555555554  0.9739583333333334 10.359375  C 0.32465277777777773 9.710069444444443  0 8.92361111111111  0 8  C 0 7.0763888888888875  0.32465277777777773 6.289930555555555  0.9739583333333334 5.640625  C 1.623263888888889 4.991319444444443  2.4097222222222223 4.666666666666666  3.3333333333333335 4.666666666666666  C 4.208333333333333 4.666666666666666  4.965277777777778 4.965277777777777  5.604166666666667 5.5625  L 9.354166666666666 3.6875  C 9.340277777777779 3.5347222222222214  9.333333333333334 3.416666666666666  9.333333333333334 3.333333333333334  C 9.333333333333334 2.4097222222222214  9.657986111111112 1.6232638888888875  10.307291666666666 0.9739583333333339  C 10.956597222222223 0.3246527777777768  11.743055555555557 0  12.666666666666666 0  C 13.590277777777779 0  14.376736111111112 0.3246527777777768  15.026041666666666 0.9739583333333339  C 15.675347222222221 1.6232638888888875  16 2.4097222222222214  16 3.333333333333334  C 16 4.256944444444443  15.675347222222221 5.043402777777777  15.026041666666666 5.692708333333334  C 14.376736111111112 6.342013888888889  13.590277777777779 6.666666666666666  12.666666666666666 6.666666666666666  C 11.791666666666666 6.666666666666666  11.034722222222223 6.368055555555555  10.395833333333334 5.770833333333334  L 6.645833333333333 7.645833333333334  C 6.659722222222222 7.798611111111111  6.666666666666667 7.916666666666666  6.666666666666667 8  C 6.666666666666667 8.083333333333332  6.659722222222222 8.20138888888889  6.645833333333333 8.354166666666668  L 10.395833333333334 10.229166666666668  Z " fill-rule="evenodd" />
    </mask>
  </defs>
  <g transform="matrix(1 0 0 1 -359 -25 )">
    <path d="M 10.395833333333334 10.229166666666668  C 11.034722222222223 9.631944444444443  11.791666666666666 9.333333333333332  12.666666666666666 9.333333333333332  C 13.590277777777779 9.333333333333332  14.376736111111112 9.65798611111111  15.026041666666666 10.307291666666668  C 15.675347222222221 10.956597222222221  16 11.743055555555554  16 12.666666666666666  C 16 13.590277777777779  15.675347222222221 14.376736111111112  15.026041666666666 15.026041666666666  C 14.376736111111112 15.675347222222221  13.590277777777779 16  12.666666666666666 16  C 11.743055555555557 16  10.956597222222223 15.675347222222221  10.307291666666666 15.026041666666666  C 9.657986111111112 14.376736111111112  9.333333333333334 13.590277777777779  9.333333333333334 12.666666666666666  C 9.333333333333334 12.583333333333334  9.340277777777779 12.465277777777777  9.354166666666666 12.3125  L 5.604166666666667 10.4375  C 4.965277777777778 11.034722222222221  4.208333333333333 11.333333333333332  3.3333333333333335 11.333333333333332  C 2.4097222222222223 11.333333333333332  1.623263888888889 11.008680555555554  0.9739583333333334 10.359375  C 0.32465277777777773 9.710069444444443  0 8.92361111111111  0 8  C 0 7.0763888888888875  0.32465277777777773 6.289930555555555  0.9739583333333334 5.640625  C 1.623263888888889 4.991319444444443  2.4097222222222223 4.666666666666666  3.3333333333333335 4.666666666666666  C 4.208333333333333 4.666666666666666  4.965277777777778 4.965277777777777  5.604166666666667 5.5625  L 9.354166666666666 3.6875  C 9.340277777777779 3.5347222222222214  9.333333333333334 3.416666666666666  9.333333333333334 3.333333333333334  C 9.333333333333334 2.4097222222222214  9.657986111111112 1.6232638888888875  10.307291666666666 0.9739583333333339  C 10.956597222222223 0.3246527777777768  11.743055555555557 0  12.666666666666666 0  C 13.590277777777779 0  14.376736111111112 0.3246527777777768  15.026041666666666 0.9739583333333339  C 15.675347222222221 1.6232638888888875  16 2.4097222222222214  16 3.333333333333334  C 16 4.256944444444443  15.675347222222221 5.043402777777777  15.026041666666666 5.692708333333334  C 14.376736111111112 6.342013888888889  13.590277777777779 6.666666666666666  12.666666666666666 6.666666666666666  C 11.791666666666666 6.666666666666666  11.034722222222223 6.368055555555555  10.395833333333334 5.770833333333334  L 6.645833333333333 7.645833333333334  C 6.659722222222222 7.798611111111111  6.666666666666667 7.916666666666666  6.666666666666667 8  C 6.666666666666667 8.083333333333332  6.659722222222222 8.20138888888889  6.645833333333333 8.354166666666668  L 10.395833333333334 10.229166666666668  Z " fill-rule="nonzero" fill="rgba(2, 133, 189, 1)" stroke="none" transform="matrix(1 0 0 1 359 25 )" class="fill" />
    <path d="M 10.395833333333334 10.229166666666668  C 11.034722222222223 9.631944444444443  11.791666666666666 9.333333333333332  12.666666666666666 9.333333333333332  C 13.590277777777779 9.333333333333332  14.376736111111112 9.65798611111111  15.026041666666666 10.307291666666668  C 15.675347222222221 10.956597222222221  16 11.743055555555554  16 12.666666666666666  C 16 13.590277777777779  15.675347222222221 14.376736111111112  15.026041666666666 15.026041666666666  C 14.376736111111112 15.675347222222221  13.590277777777779 16  12.666666666666666 16  C 11.743055555555557 16  10.956597222222223 15.675347222222221  10.307291666666666 15.026041666666666  C 9.657986111111112 14.376736111111112  9.333333333333334 13.590277777777779  9.333333333333334 12.666666666666666  C 9.333333333333334 12.583333333333334  9.340277777777779 12.465277777777777  9.354166666666666 12.3125  L 5.604166666666667 10.4375  C 4.965277777777778 11.034722222222221  4.208333333333333 11.333333333333332  3.3333333333333335 11.333333333333332  C 2.4097222222222223 11.333333333333332  1.623263888888889 11.008680555555554  0.9739583333333334 10.359375  C 0.32465277777777773 9.710069444444443  0 8.92361111111111  0 8  C 0 7.0763888888888875  0.32465277777777773 6.289930555555555  0.9739583333333334 5.640625  C 1.623263888888889 4.991319444444443  2.4097222222222223 4.666666666666666  3.3333333333333335 4.666666666666666  C 4.208333333333333 4.666666666666666  4.965277777777778 4.965277777777777  5.604166666666667 5.5625  L 9.354166666666666 3.6875  C 9.340277777777779 3.5347222222222214  9.333333333333334 3.416666666666666  9.333333333333334 3.333333333333334  C 9.333333333333334 2.4097222222222214  9.657986111111112 1.6232638888888875  10.307291666666666 0.9739583333333339  C 10.956597222222223 0.3246527777777768  11.743055555555557 0  12.666666666666666 0  C 13.590277777777779 0  14.376736111111112 0.3246527777777768  15.026041666666666 0.9739583333333339  C 15.675347222222221 1.6232638888888875  16 2.4097222222222214  16 3.333333333333334  C 16 4.256944444444443  15.675347222222221 5.043402777777777  15.026041666666666 5.692708333333334  C 14.376736111111112 6.342013888888889  13.590277777777779 6.666666666666666  12.666666666666666 6.666666666666666  C 11.791666666666666 6.666666666666666  11.034722222222223 6.368055555555555  10.395833333333334 5.770833333333334  L 6.645833333333333 7.645833333333334  C 6.659722222222222 7.798611111111111  6.666666666666667 7.916666666666666  6.666666666666667 8  C 6.666666666666667 8.083333333333332  6.659722222222222 8.20138888888889  6.645833333333333 8.354166666666668  L 10.395833333333334 10.229166666666668  Z " stroke-width="0" stroke-dasharray="0" stroke="rgba(255, 255, 255, 0)" fill="none" transform="matrix(1 0 0 1 359 25 )" class="stroke" mask="url(#Clip68)" />
  </g>
</svg>