<?xml version="1.0" encoding="utf-8"?>
<svg version="1.1" xmlns:xlink="http://www.w3.org/1999/xlink" width="32px" height="38px" xmlns="http://www.w3.org/2000/svg">
  <defs>
    <pattern id="BGPattern" patternUnits="userSpaceOnUse" alignment="0 0" imageRepeat="None" />
    <mask fill="white" id="Clip69">
      <path d="M 7.21875 27.704799107142858  C 7.739583333333333 27.174665178571427  8 26.534970238095237  8 25.78571428571429  C 8 25.03645833333333  7.739583333333333 24.396763392857142  7.21875 23.86662946428571  C 6.697916666666667 23.33649553571429  6.0694444444444455 23.071428571428573  5.333333333333333 23.071428571428573  C 4.597222222222222 23.071428571428573  3.96875 23.33649553571429  3.4479166666666665 23.86662946428571  C 2.9270833333333335 24.396763392857142  2.6666666666666665 25.03645833333333  2.6666666666666665 25.78571428571429  C 2.6666666666666665 26.534970238095237  2.9270833333333335 27.174665178571427  3.4479166666666665 27.704799107142858  C 3.96875 28.23493303571429  4.597222222222222 28.5  5.333333333333333 28.5  C 6.0694444444444455 28.5  6.697916666666667 28.23493303571429  7.21875 27.704799107142858  Z M 28.552083333333332 27.704799107142858  C 29.072916666666668 27.174665178571427  29.333333333333332 26.534970238095237  29.333333333333332 25.78571428571429  C 29.333333333333332 25.03645833333333  29.072916666666668 24.396763392857142  28.552083333333332 23.86662946428571  C 28.03125 23.33649553571429  27.402777777777782 23.071428571428573  26.666666666666668 23.071428571428573  C 25.930555555555557 23.071428571428573  25.302083333333332 23.33649553571429  24.78125 23.86662946428571  C 24.260416666666668 24.396763392857142  24 25.03645833333333  24 25.78571428571429  C 24 26.534970238095237  24.260416666666668 27.174665178571427  24.78125 27.704799107142858  C 25.302083333333332 28.23493303571429  25.930555555555557 28.5  26.666666666666668 28.5  C 27.402777777777782 28.5  28.03125 28.23493303571429  28.552083333333332 27.704799107142858  Z M 28.083333333333332 18.51227678571429  C 28.347222222222225 18.187127976190474  28.444444444444446 17.8125  28.375 17.388392857142858  L 26.875 9.245535714285714  C 26.805555555555557 8.920386904761902  26.649305555555557 8.655319940476188  26.40625 8.45033482142857  C 26.163194444444446 8.24534970238095  25.881944444444446 8.142857142857144  25.5625 8.142857142857144  L 6.4375 8.142857142857144  C 6.118055555555556 8.142857142857144  5.836805555555556 8.24534970238095  5.59375 8.45033482142857  C 5.3506944444444455 8.655319940476188  5.194444444444445 8.920386904761902  5.125 9.245535714285714  L 3.625 17.388392857142858  C 3.555555555555556 17.8125  3.652777777777778 18.187127976190474  3.9166666666666665 18.51227678571429  C 4.180555555555556 18.837425595238095  4.520833333333334 19  4.9375 19  L 27.0625 19  C 27.479166666666668 19  27.819444444444446 18.837425595238095  28.083333333333332 18.51227678571429  Z M 23.375 5.131696428571431  C 23.569444444444446 4.933779761904758  23.666666666666668 4.693452380952381  23.666666666666668 4.4107142857142865  C 23.666666666666668 4.127976190476188  23.569444444444446 3.8876488095238075  23.375 3.6897321428571432  C 23.180555555555557 3.491815476190471  22.944444444444446 3.3928571428571432  22.666666666666668 4  L 9.333333333333334 4  C 9.055555555555555 3.3928571428571432  8.819444444444445 3.491815476190471  8.625 3.6897321428571432  C 8.430555555555555 3.8876488095238075  8.333333333333334 4.127976190476188  8.333333333333334 4.4107142857142865  C 8.333333333333334 4.693452380952381  8.430555555555555 4.933779761904758  8.625 5.131696428571431  C 8.819444444444445 5.329613095238094  9.055555555555555 5.428571428571431  9.333333333333334 6  L 22.666666666666668 6  C 22.944444444444446 5.428571428571431  23.180555555555557 5.329613095238094  23.375 5.131696428571431  Z M 31.520833333333332 15.05580357142857  C 31.840277777777775 16.497767857142858  32 18.074032738095237  32 19.78459821428571  L 32 32.57142857142858  L 29.333333333333332 32.57142857142858  L 29.333333333333332 35.285714285714285  C 29.333333333333332 36.03497023809524  29.072916666666668 36.67466517857143  28.552083333333332 37.204799107142854  C 28.03125 37.734933035714285  27.402777777777782 38  26.666666666666668 38  C 25.930555555555557 38  25.302083333333332 37.734933035714285  24.78125 37.204799107142854  C 24.260416666666668 36.67466517857143  24 36.03497023809524  24 35.285714285714285  L 24 32  L 8 32  L 8 35.285714285714285  C 8 36.03497023809524  7.739583333333333 36.67466517857143  7.21875 37.204799107142854  C 6.697916666666667 37.734933035714285  6.0694444444444455 38  5.333333333333333 38  C 4.597222222222222 38  3.96875 37.734933035714285  3.4479166666666665 37.204799107142854  C 2.9270833333333335 36.67466517857143  2.6666666666666665 36.03497023809524  2.6666666666666665 35.285714285714285  L 2.6666666666666665 32.57142857142858  L 0 32.57142857142858  L 0 19.78459821428571  C 0 18.20126488095238  0.17361111111111108 16.625  0.5208333333333334 15.05580357142857  L 2.6666666666666665 5.428571428571431  C 2.7916666666666665 4.325892857142857  3.46875 3.3575148809523814  4.697916666666667 2.5234375  C 5.927083333333333 1.6893601190476146  7.5243055555555545 1.0602678571428565  9.489583333333334 0.6361607142857131  C 11.454861111111112 0.21205357142856962  13.625 0  16 0  C 18.375000000000004 0  20.54513888888889 0.21205357142856962  22.510416666666668 0.6361607142857131  C 24.475694444444446 1.0602678571428565  26.072916666666668 1.6893601190476146  27.302083333333332 2.5234375  C 28.53125 3.3575148809523814  29.208333333333332 4.325892857142857  29.333333333333332 5.428571428571431  L 31.520833333333332 15.05580357142857  Z " fill-rule="evenodd" />
    </mask>
  </defs>
  <g transform="matrix(1 0 0 1 -33 -30 )">
    <path d="M 7.21875 27.704799107142858  C 7.739583333333333 27.174665178571427  8 26.534970238095237  8 25.78571428571429  C 8 25.03645833333333  7.739583333333333 24.396763392857142  7.21875 23.86662946428571  C 6.697916666666667 23.33649553571429  6.0694444444444455 23.071428571428573  5.333333333333333 23.071428571428573  C 4.597222222222222 23.071428571428573  3.96875 23.33649553571429  3.4479166666666665 23.86662946428571  C 2.9270833333333335 24.396763392857142  2.6666666666666665 25.03645833333333  2.6666666666666665 25.78571428571429  C 2.6666666666666665 26.534970238095237  2.9270833333333335 27.174665178571427  3.4479166666666665 27.704799107142858  C 3.96875 28.23493303571429  4.597222222222222 28.5  5.333333333333333 28.5  C 6.0694444444444455 28.5  6.697916666666667 28.23493303571429  7.21875 27.704799107142858  Z M 28.552083333333332 27.704799107142858  C 29.072916666666668 27.174665178571427  29.333333333333332 26.534970238095237  29.333333333333332 25.78571428571429  C 29.333333333333332 25.03645833333333  29.072916666666668 24.396763392857142  28.552083333333332 23.86662946428571  C 28.03125 23.33649553571429  27.402777777777782 23.071428571428573  26.666666666666668 23.071428571428573  C 25.930555555555557 23.071428571428573  25.302083333333332 23.33649553571429  24.78125 23.86662946428571  C 24.260416666666668 24.396763392857142  24 25.03645833333333  24 25.78571428571429  C 24 26.534970238095237  24.260416666666668 27.174665178571427  24.78125 27.704799107142858  C 25.302083333333332 28.23493303571429  25.930555555555557 28.5  26.666666666666668 28.5  C 27.402777777777782 28.5  28.03125 28.23493303571429  28.552083333333332 27.704799107142858  Z M 28.083333333333332 18.51227678571429  C 28.347222222222225 18.187127976190474  28.444444444444446 17.8125  28.375 17.388392857142858  L 26.875 9.245535714285714  C 26.805555555555557 8.920386904761902  26.649305555555557 8.655319940476188  26.40625 8.45033482142857  C 26.163194444444446 8.24534970238095  25.881944444444446 8.142857142857144  25.5625 8.142857142857144  L 6.4375 8.142857142857144  C 6.118055555555556 8.142857142857144  5.836805555555556 8.24534970238095  5.59375 8.45033482142857  C 5.3506944444444455 8.655319940476188  5.194444444444445 8.920386904761902  5.125 9.245535714285714  L 3.625 17.388392857142858  C 3.555555555555556 17.8125  3.652777777777778 18.187127976190474  3.9166666666666665 18.51227678571429  C 4.180555555555556 18.837425595238095  4.520833333333334 19  4.9375 19  L 27.0625 19  C 27.479166666666668 19  27.819444444444446 18.837425595238095  28.083333333333332 18.51227678571429  Z M 23.375 5.131696428571431  C 23.569444444444446 4.933779761904758  23.666666666666668 4.693452380952381  23.666666666666668 4.4107142857142865  C 23.666666666666668 4.127976190476188  23.569444444444446 3.8876488095238075  23.375 3.6897321428571432  C 23.180555555555557 3.491815476190471  22.944444444444446 3.3928571428571432  22.666666666666668 4  L 9.333333333333334 4  C 9.055555555555555 3.3928571428571432  8.819444444444445 3.491815476190471  8.625 3.6897321428571432  C 8.430555555555555 3.8876488095238075  8.333333333333334 4.127976190476188  8.333333333333334 4.4107142857142865  C 8.333333333333334 4.693452380952381  8.430555555555555 4.933779761904758  8.625 5.131696428571431  C 8.819444444444445 5.329613095238094  9.055555555555555 5.428571428571431  9.333333333333334 6  L 22.666666666666668 6  C 22.944444444444446 5.428571428571431  23.180555555555557 5.329613095238094  23.375 5.131696428571431  Z M 31.520833333333332 15.05580357142857  C 31.840277777777775 16.497767857142858  32 18.074032738095237  32 19.78459821428571  L 32 32.57142857142858  L 29.333333333333332 32.57142857142858  L 29.333333333333332 35.285714285714285  C 29.333333333333332 36.03497023809524  29.072916666666668 36.67466517857143  28.552083333333332 37.204799107142854  C 28.03125 37.734933035714285  27.402777777777782 38  26.666666666666668 38  C 25.930555555555557 38  25.302083333333332 37.734933035714285  24.78125 37.204799107142854  C 24.260416666666668 36.67466517857143  24 36.03497023809524  24 35.285714285714285  L 24 32  L 8 32  L 8 35.285714285714285  C 8 36.03497023809524  7.739583333333333 36.67466517857143  7.21875 37.204799107142854  C 6.697916666666667 37.734933035714285  6.0694444444444455 38  5.333333333333333 38  C 4.597222222222222 38  3.96875 37.734933035714285  3.4479166666666665 37.204799107142854  C 2.9270833333333335 36.67466517857143  2.6666666666666665 36.03497023809524  2.6666666666666665 35.285714285714285  L 2.6666666666666665 32.57142857142858  L 0 32.57142857142858  L 0 19.78459821428571  C 0 18.20126488095238  0.17361111111111108 16.625  0.5208333333333334 15.05580357142857  L 2.6666666666666665 5.428571428571431  C 2.7916666666666665 4.325892857142857  3.46875 3.3575148809523814  4.697916666666667 2.5234375  C 5.927083333333333 1.6893601190476146  7.5243055555555545 1.0602678571428565  9.489583333333334 0.6361607142857131  C 11.454861111111112 0.21205357142856962  13.625 0  16 0  C 18.375000000000004 0  20.54513888888889 0.21205357142856962  22.510416666666668 0.6361607142857131  C 24.475694444444446 1.0602678571428565  26.072916666666668 1.6893601190476146  27.302083333333332 2.5234375  C 28.53125 3.3575148809523814  29.208333333333332 4.325892857142857  29.333333333333332 5.428571428571431  L 31.520833333333332 15.05580357142857  Z " fill-rule="nonzero" fill="rgba(51, 51, 51, 1)" stroke="none" transform="matrix(1 0 0 1 33 30 )" class="fill" />
    <path d="M 7.21875 27.704799107142858  C 7.739583333333333 27.174665178571427  8 26.534970238095237  8 25.78571428571429  C 8 25.03645833333333  7.739583333333333 24.396763392857142  7.21875 23.86662946428571  C 6.697916666666667 23.33649553571429  6.0694444444444455 23.071428571428573  5.333333333333333 23.071428571428573  C 4.597222222222222 23.071428571428573  3.96875 23.33649553571429  3.4479166666666665 23.86662946428571  C 2.9270833333333335 24.396763392857142  2.6666666666666665 25.03645833333333  2.6666666666666665 25.78571428571429  C 2.6666666666666665 26.534970238095237  2.9270833333333335 27.174665178571427  3.4479166666666665 27.704799107142858  C 3.96875 28.23493303571429  4.597222222222222 28.5  5.333333333333333 28.5  C 6.0694444444444455 28.5  6.697916666666667 28.23493303571429  7.21875 27.704799107142858  Z " stroke-width="0" stroke-dasharray="0" stroke="rgba(255, 255, 255, 0)" fill="none" transform="matrix(1 0 0 1 33 30 )" class="stroke" mask="url(#Clip69)" />
    <path d="M 28.552083333333332 27.704799107142858  C 29.072916666666668 27.174665178571427  29.333333333333332 26.534970238095237  29.333333333333332 25.78571428571429  C 29.333333333333332 25.03645833333333  29.072916666666668 24.396763392857142  28.552083333333332 23.86662946428571  C 28.03125 23.33649553571429  27.402777777777782 23.071428571428573  26.666666666666668 23.071428571428573  C 25.930555555555557 23.071428571428573  25.302083333333332 23.33649553571429  24.78125 23.86662946428571  C 24.260416666666668 24.396763392857142  24 25.03645833333333  24 25.78571428571429  C 24 26.534970238095237  24.260416666666668 27.174665178571427  24.78125 27.704799107142858  C 25.302083333333332 28.23493303571429  25.930555555555557 28.5  26.666666666666668 28.5  C 27.402777777777782 28.5  28.03125 28.23493303571429  28.552083333333332 27.704799107142858  Z " stroke-width="0" stroke-dasharray="0" stroke="rgba(255, 255, 255, 0)" fill="none" transform="matrix(1 0 0 1 33 30 )" class="stroke" mask="url(#Clip69)" />
    <path d="M 28.083333333333332 18.51227678571429  C 28.347222222222225 18.187127976190474  28.444444444444446 17.8125  28.375 17.388392857142858  L 26.875 9.245535714285714  C 26.805555555555557 8.920386904761902  26.649305555555557 8.655319940476188  26.40625 8.45033482142857  C 26.163194444444446 8.24534970238095  25.881944444444446 8.142857142857144  25.5625 8.142857142857144  L 6.4375 8.142857142857144  C 6.118055555555556 8.142857142857144  5.836805555555556 8.24534970238095  5.59375 8.45033482142857  C 5.3506944444444455 8.655319940476188  5.194444444444445 8.920386904761902  5.125 9.245535714285714  L 3.625 17.388392857142858  C 3.555555555555556 17.8125  3.652777777777778 18.187127976190474  3.9166666666666665 18.51227678571429  C 4.180555555555556 18.837425595238095  4.520833333333334 19  4.9375 19  L 27.0625 19  C 27.479166666666668 19  27.819444444444446 18.837425595238095  28.083333333333332 18.51227678571429  Z " stroke-width="0" stroke-dasharray="0" stroke="rgba(255, 255, 255, 0)" fill="none" transform="matrix(1 0 0 1 33 30 )" class="stroke" mask="url(#Clip69)" />
    <path d="M 23.375 5.131696428571431  C 23.569444444444446 4.933779761904758  23.666666666666668 4.693452380952381  23.666666666666668 4.4107142857142865  C 23.666666666666668 4.127976190476188  23.569444444444446 3.8876488095238075  23.375 3.6897321428571432  C 23.180555555555557 3.491815476190471  22.944444444444446 3.3928571428571432  22.666666666666668 4  L 9.333333333333334 4  C 9.055555555555555 3.3928571428571432  8.819444444444445 3.491815476190471  8.625 3.6897321428571432  C 8.430555555555555 3.8876488095238075  8.333333333333334 4.127976190476188  8.333333333333334 4.4107142857142865  C 8.333333333333334 4.693452380952381  8.430555555555555 4.933779761904758  8.625 5.131696428571431  C 8.819444444444445 5.329613095238094  9.055555555555555 5.428571428571431  9.333333333333334 6  L 22.666666666666668 6  C 22.944444444444446 5.428571428571431  23.180555555555557 5.329613095238094  23.375 5.131696428571431  Z " stroke-width="0" stroke-dasharray="0" stroke="rgba(255, 255, 255, 0)" fill="none" transform="matrix(1 0 0 1 33 30 )" class="stroke" mask="url(#Clip69)" />
    <path d="M 31.520833333333332 15.05580357142857  C 31.840277777777775 16.497767857142858  32 18.074032738095237  32 19.78459821428571  L 32 32.57142857142858  L 29.333333333333332 32.57142857142858  L 29.333333333333332 35.285714285714285  C 29.333333333333332 36.03497023809524  29.072916666666668 36.67466517857143  28.552083333333332 37.204799107142854  C 28.03125 37.734933035714285  27.402777777777782 38  26.666666666666668 38  C 25.930555555555557 38  25.302083333333332 37.734933035714285  24.78125 37.204799107142854  C 24.260416666666668 36.67466517857143  24 36.03497023809524  24 35.285714285714285  L 24 32  L 8 32  L 8 35.285714285714285  C 8 36.03497023809524  7.739583333333333 36.67466517857143  7.21875 37.204799107142854  C 6.697916666666667 37.734933035714285  6.0694444444444455 38  5.333333333333333 38  C 4.597222222222222 38  3.96875 37.734933035714285  3.4479166666666665 37.204799107142854  C 2.9270833333333335 36.67466517857143  2.6666666666666665 36.03497023809524  2.6666666666666665 35.285714285714285  L 2.6666666666666665 32.57142857142858  L 0 32.57142857142858  L 0 19.78459821428571  C 0 18.20126488095238  0.17361111111111108 16.625  0.5208333333333334 15.05580357142857  L 2.6666666666666665 5.428571428571431  C 2.7916666666666665 4.325892857142857  3.46875 3.3575148809523814  4.697916666666667 2.5234375  C 5.927083333333333 1.6893601190476146  7.5243055555555545 1.0602678571428565  9.489583333333334 0.6361607142857131  C 11.454861111111112 0.21205357142856962  13.625 0  16 0  C 18.375000000000004 0  20.54513888888889 0.21205357142856962  22.510416666666668 0.6361607142857131  C 24.475694444444446 1.0602678571428565  26.072916666666668 1.6893601190476146  27.302083333333332 2.5234375  C 28.53125 3.3575148809523814  29.208333333333332 4.325892857142857  29.333333333333332 5.428571428571431  L 31.520833333333332 15.05580357142857  Z " stroke-width="0" stroke-dasharray="0" stroke="rgba(255, 255, 255, 0)" fill="none" transform="matrix(1 0 0 1 33 30 )" class="stroke" mask="url(#Clip69)" />
  </g>
</svg>