<?xml version="1.0" encoding="utf-8"?>
<svg version="1.1" xmlns:xlink="http://www.w3.org/1999/xlink" width="62px" height="23px" xmlns="http://www.w3.org/2000/svg">
  <defs>
    <pattern id="BGPattern" patternUnits="userSpaceOnUse" alignment="0 0" imageRepeat="None" />
    <mask fill="white" id="Clip71">
      <path d="M 3.1740965902654565 5.850626962434546  C 3.1740965902654565 6.744370948313076  3.3050657834405897 15.633292267525576  3.567071059062151 16.367426501678665  C 3.8290763346837053 17.101560735831754  4.1918168528597874 17.729264927573297  4.655359502861671 18.25053907690318  C 5.118902152863562 18.77188385001699  5.6680630701096675 19.170837605546694  6.302842254599987 19.447470967276104  C 6.937688328361588 19.72410432900557  7.627918718746798 19.86238569797831  8.373600315026891 19.86238569797831  C 9.099148240650337 19.86238569797831  9.779278351071575 19.71873692142543  10.414124424833183 19.431439368319616  C 11.048970498594791 19.1441418152138  11.603148111187231 18.739891275887942  12.076724151881805 18.21861712655806  C 12.550300192576373 17.697272353444248  12.918124295370077 17.0749355692829  13.180129570991632 16.351465526506104  C 13.442134846613193 15.627995483729364  13.573104039788333 14.81949440507759  14 13.925750419199062  L 14 0.1374453360708685  L 17 0.1374453360708685  L 17 22.47956188357199  L 13.603337990408946 22.47956188357199  L 13.603337990408946 20.404917606276967  C 12.89799062471343 21.192160925959968  12.066623871917834 21.79860735873274  11.109371510564728 22.224256904595222  C 10.15205225994034 22.649765202889853  9.119281911306985 22.86255466392913  8.01085979685081 22.86255466392913  C 6.882237122466705 22.86255466392913  5.829266213905413 22.655061986686064  4.851813292624378 22.240147255983857  C 3.874427260614624 21.825232525281592  3.027943532508722 21.234817691465366  2.3125627761205294 20.468761506967155  C 1.5971820197323368 19.702705322468944  1.032837237904637 18.78254804139334  0.6197290984512946 17.707936544820598  C 0.20655406972667123 16.63339567203178  0 15.436534405442785  0 14.11721149748564  L 0 0.1374453360708685  L 3.1740965902654565 0.1374453360708685  L 3.1740965902654565 5.850626962434546  Z M 20 0.1374453360708685  L 22.218475464044324 0.1374453360708685  L 22.218475464044324 8.276342069741588  C 22.923822829739834 7.531614267996076  23.740072607225123 6.94119943417985  24.66709101795761 6.504956320724943  C 25.594109428690103 6.0687132072700365  26.601796300591758 5.850626962434546  27.69001785511999 5.850626962434546  C 28.81864052950411 5.850626962434546  29.876561244140447 6.074009991066191  30.864114445385454 6.52084667211352  C 31.85160075735916 6.967683353160851  32.70805098688646 7.574129785933565  33.43359891250992 8.340185970431776  C 34.15914683813335 9.106242154929987  34.73352501065372 10.010509084617013  35.15673343007103 11.053128007060707  C 35.57994184948835 12.095817553288384  35.791512614561356 13.202280376422264  35.791512614561356 14.372587100246335  C 35.791512614561356 15.542823200286476  35.57994184948835 16.643989239624148  35.15673343007103 17.67594397069155  C 34.73352501065372 18.707969325542877  34.15914683813335 19.607010095217618  33.43359891250991 20.37292503214792  C 32.70805098688646 21.13898121664613  31.85160075735916 21.7454276494189  30.86411444538544 22.192264330466173  C 29.876561244140447 22.639101011513503  28.818573640232813 22.862484040145205  27.69001785511999 22.862484040145205  C 26.601729411320463 22.862484040145205  25.589092733343747 22.644397795309715  24.651974042647296 22.208154681854808  C 23.714855351950845 21.771982192183827  22.893588879119207 21.181496734583618  22.188241513423705 20.436768932838106  L 22.188241513423705 22.479491259788063  L 20 22.479491259788063  L 20 0.1374453360708685  Z M 22.15807445207438 14.372587100246335  C 22.1580075628031 15.159901043713319  22.294060340595863 15.893964654082483  22.566099006910093 16.574848555137805  C 22.838137673224338 17.255803079977056  23.216062055982007 17.851585321373477  23.69973837664054 18.362265903110995  C 24.183414697299078 18.872946484848455  24.74769258985549 19.277267647958297  25.392572054309767 19.57515876865648  C 26.037518408035346 19.87304988935466  26.73276549376689 20.02199544970381  27.478447090046984 20.02199544970381  C 28.20399501567043 20.02199544970381  28.889141821438017 19.87304988935466  29.534021285892294 19.57515876865648  C 30.178900750346585 19.277267647958297  30.738095058285367 18.873017108632382  31.211804877522507 18.362265903110995  C 31.685380918217078 17.85165594515746  32.06323841170348 17.255803079977056  32.345377357981675 16.574848555137805  C 32.62751630425987 15.893964654082483  32.76858577739898 15.159901043713319  32.76858577739898 14.372587100246335  C 32.76858577739898 13.585273156779408  32.62751630425987 12.84584213883011  32.345377357981675 12.154294046398434  C 32.06323841170348 11.46274595396676  31.685380918217078 10.861666928774127  31.211804877522507 10.350986347036667  C 30.738161947556648 9.840376389083133  30.178967639617866 9.441352009769503  29.534021285892308 9.154125080447614  C 28.889074932166736 8.866898151125781  28.20392812639915 8.723178750788918  27.47844709004699 8.723178750788918  C 26.752966053694827 8.723178750788918  26.067752358655966 8.866827527341798  25.422872894201674 9.154125080447614  C 24.77799342974739 9.44142263355343  24.213715537190986 9.840376389083133  23.729972327261166 10.350986347036667  C 23.246362895873908 10.861666928774127  22.86342181776989 11.46274595396676  22.581282871491695 12.154294046398434  C 22.299143925213485 12.84584213883011  22.15807445207438 13.585273156779408  22.15807445207438 14.372587100246335  Z M 36.90983434116765 14.340665149901271  C 36.90970056262509 13.191686808829902  37.111304826276694 12.106481744664734  37.51431268576607 11.085120581189756  C 37.91732054525545 10.063759417714778  38.471631936390466 9.164789271823963  39.17691241281469 8.388139519733386  C 39.88219288923892 7.611489767642753  40.71864322665215 6.9997465510738275  41.68599586796921 6.552909870026497  C 42.653348509286275 6.106073188979225  43.701302722501225 5.882690160347522  44.82985850761405 5.882690160347522  C 45.938280622070224 5.882690160347522  46.966101164628526 6.095479621386801  47.91332013528894 6.520987919681431  C 48.86047221667809 6.946566841759989  49.67665510489208 7.537052299360198  50.361868799930946 8.29244429248206  C 51.047082494969814 9.047765661819938  51.5811933261769 9.941509647698524  51.964000625738336 10.973464378765868  C 52.34694170384236 12.005489733617196  52.53837879825872 13.127913531923639  52.53837879825872 14.34080639746918  L 52.53837879825872 15  L 39.993162190299984 15  C 40.09396432212577 16.053715653375832  40.29550169650611 16.665458869944757  40.597774313440965 17.22924853721213  C 40.9001138196471 17.793108828263485  41.27790442386221 18.282531651032173  41.731346793900116 18.697446381734437  C 42.18478916393805 19.11243173622057  42.69869943521721 19.436948023467664  43.27307760773758 19.670924619691732  C 43.847455780257945 19.904971839699783  44.457017709474 20.022066073487736  45.101964063199574 20.022066073487736  C 46.93593410327918 20.022066073487736  48.417197015875416 19.22408793864446  49.545752800988225 17.628202292741776  L 51.752496749936626 19.35170511624085  C 50.98668148299987 20.436910180406016  50.039529401610736 21.28806802456313  48.91097361649793 21.905108024928268  C 47.78235094211381 22.52214802529346  46.51272568386189 22.830703337367993  45.10203095247087 22.830703337367993  C 43.9532746074301 22.830703337367993  42.88017002821218 22.61784325254473  41.88258343627449 22.192334954250157  C 40.8849968443368 21.766826655955526  40.018446334845535 21.17097379077518  39.28286501852941 20.404917606276967  C 38.54728370221329 19.638861421778756  37.96788883434657 18.739891275887942  37.54468041492926 17.707936544820598  C 37.12147199551195 16.675981813753197  36.90983434116765 15.553487391662829  36.90983434116765 14.340665149901271  Z M 44.769457495644104 8.69132742422778  C 43.62070115060335 8.69132742422778  42.618097863319335 9.06902342078871  41.76158074452076 9.824344790126588  C 40.905063625722164 10.57973678324845  40.335769037819404 11.585136971550924  40.053630091541194 12.840545355033894  L 49.45505094912639 12.840545355033894  C 49.19304567350484 11.585136971550924  48.63378447629478 10.57973678324845  47.777267357496186 9.824344790126588  C 46.92075023869761 9.06902342078871  45.918146951413576 8.69132742422778  44.769457495644104 8.69132742422778  Z M 60.73037474174808 9.074249580800938  C 59.72275475911772 9.074320204584922  58.89647159093974 9.446648793565657  58.25159212648546 10.19137659531117  C 57.60671266203117 10.936104397056681  57.284239485168385 11.946801369155311  57.284239485168385 13.223538135391038  L 57.284239485168385 22.479632507355973  L 54 22.479632507355973  L 54 6.201768416230494  L 57.25393864527649 6.201768416230494  L 57.25393864527649 8.212568792835384  C 57.6368797233805 7.552942650748776  58.13567301934934 7.031597877634965  58.75031853318302 6.648605097277823  C 59.364964047016684 6.265541693136753  60.09552866798647 6.074009991066191  60.94201239609238 6.074009991066191  L 62 6.074009991066191  L 62 9.074249580800938  L 60.73037474174808 9.074249580800938  Z " fill-rule="evenodd" />
    </mask>
  </defs>
  <g transform="matrix(1 0 0 1 -43 -207 )">
    <path d="M 3.1740965902654565 5.850626962434546  C 3.1740965902654565 6.744370948313076  3.3050657834405897 15.633292267525576  3.567071059062151 16.367426501678665  C 3.8290763346837053 17.101560735831754  4.1918168528597874 17.729264927573297  4.655359502861671 18.25053907690318  C 5.118902152863562 18.77188385001699  5.6680630701096675 19.170837605546694  6.302842254599987 19.447470967276104  C 6.937688328361588 19.72410432900557  7.627918718746798 19.86238569797831  8.373600315026891 19.86238569797831  C 9.099148240650337 19.86238569797831  9.779278351071575 19.71873692142543  10.414124424833183 19.431439368319616  C 11.048970498594791 19.1441418152138  11.603148111187231 18.739891275887942  12.076724151881805 18.21861712655806  C 12.550300192576373 17.697272353444248  12.918124295370077 17.0749355692829  13.180129570991632 16.351465526506104  C 13.442134846613193 15.627995483729364  13.573104039788333 14.81949440507759  14 13.925750419199062  L 14 0.1374453360708685  L 17 0.1374453360708685  L 17 22.47956188357199  L 13.603337990408946 22.47956188357199  L 13.603337990408946 20.404917606276967  C 12.89799062471343 21.192160925959968  12.066623871917834 21.79860735873274  11.109371510564728 22.224256904595222  C 10.15205225994034 22.649765202889853  9.119281911306985 22.86255466392913  8.01085979685081 22.86255466392913  C 6.882237122466705 22.86255466392913  5.829266213905413 22.655061986686064  4.851813292624378 22.240147255983857  C 3.874427260614624 21.825232525281592  3.027943532508722 21.234817691465366  2.3125627761205294 20.468761506967155  C 1.5971820197323368 19.702705322468944  1.032837237904637 18.78254804139334  0.6197290984512946 17.707936544820598  C 0.20655406972667123 16.63339567203178  0 15.436534405442785  0 14.11721149748564  L 0 0.1374453360708685  L 3.1740965902654565 0.1374453360708685  L 3.1740965902654565 5.850626962434546  Z M 20 0.1374453360708685  L 22.218475464044324 0.1374453360708685  L 22.218475464044324 8.276342069741588  C 22.923822829739834 7.531614267996076  23.740072607225123 6.94119943417985  24.66709101795761 6.504956320724943  C 25.594109428690103 6.0687132072700365  26.601796300591758 5.850626962434546  27.69001785511999 5.850626962434546  C 28.81864052950411 5.850626962434546  29.876561244140447 6.074009991066191  30.864114445385454 6.52084667211352  C 31.85160075735916 6.967683353160851  32.70805098688646 7.574129785933565  33.43359891250992 8.340185970431776  C 34.15914683813335 9.106242154929987  34.73352501065372 10.010509084617013  35.15673343007103 11.053128007060707  C 35.57994184948835 12.095817553288384  35.791512614561356 13.202280376422264  35.791512614561356 14.372587100246335  C 35.791512614561356 15.542823200286476  35.57994184948835 16.643989239624148  35.15673343007103 17.67594397069155  C 34.73352501065372 18.707969325542877  34.15914683813335 19.607010095217618  33.43359891250991 20.37292503214792  C 32.70805098688646 21.13898121664613  31.85160075735916 21.7454276494189  30.86411444538544 22.192264330466173  C 29.876561244140447 22.639101011513503  28.818573640232813 22.862484040145205  27.69001785511999 22.862484040145205  C 26.601729411320463 22.862484040145205  25.589092733343747 22.644397795309715  24.651974042647296 22.208154681854808  C 23.714855351950845 21.771982192183827  22.893588879119207 21.181496734583618  22.188241513423705 20.436768932838106  L 22.188241513423705 22.479491259788063  L 20 22.479491259788063  L 20 0.1374453360708685  Z M 22.15807445207438 14.372587100246335  C 22.1580075628031 15.159901043713319  22.294060340595863 15.893964654082483  22.566099006910093 16.574848555137805  C 22.838137673224338 17.255803079977056  23.216062055982007 17.851585321373477  23.69973837664054 18.362265903110995  C 24.183414697299078 18.872946484848455  24.74769258985549 19.277267647958297  25.392572054309767 19.57515876865648  C 26.037518408035346 19.87304988935466  26.73276549376689 20.02199544970381  27.478447090046984 20.02199544970381  C 28.20399501567043 20.02199544970381  28.889141821438017 19.87304988935466  29.534021285892294 19.57515876865648  C 30.178900750346585 19.277267647958297  30.738095058285367 18.873017108632382  31.211804877522507 18.362265903110995  C 31.685380918217078 17.85165594515746  32.06323841170348 17.255803079977056  32.345377357981675 16.574848555137805  C 32.62751630425987 15.893964654082483  32.76858577739898 15.159901043713319  32.76858577739898 14.372587100246335  C 32.76858577739898 13.585273156779408  32.62751630425987 12.84584213883011  32.345377357981675 12.154294046398434  C 32.06323841170348 11.46274595396676  31.685380918217078 10.861666928774127  31.211804877522507 10.350986347036667  C 30.738161947556648 9.840376389083133  30.178967639617866 9.441352009769503  29.534021285892308 9.154125080447614  C 28.889074932166736 8.866898151125781  28.20392812639915 8.723178750788918  27.47844709004699 8.723178750788918  C 26.752966053694827 8.723178750788918  26.067752358655966 8.866827527341798  25.422872894201674 9.154125080447614  C 24.77799342974739 9.44142263355343  24.213715537190986 9.840376389083133  23.729972327261166 10.350986347036667  C 23.246362895873908 10.861666928774127  22.86342181776989 11.46274595396676  22.581282871491695 12.154294046398434  C 22.299143925213485 12.84584213883011  22.15807445207438 13.585273156779408  22.15807445207438 14.372587100246335  Z M 36.90983434116765 14.340665149901271  C 36.90970056262509 13.191686808829902  37.111304826276694 12.106481744664734  37.51431268576607 11.085120581189756  C 37.91732054525545 10.063759417714778  38.471631936390466 9.164789271823963  39.17691241281469 8.388139519733386  C 39.88219288923892 7.611489767642753  40.71864322665215 6.9997465510738275  41.68599586796921 6.552909870026497  C 42.653348509286275 6.106073188979225  43.701302722501225 5.882690160347522  44.82985850761405 5.882690160347522  C 45.938280622070224 5.882690160347522  46.966101164628526 6.095479621386801  47.91332013528894 6.520987919681431  C 48.86047221667809 6.946566841759989  49.67665510489208 7.537052299360198  50.361868799930946 8.29244429248206  C 51.047082494969814 9.047765661819938  51.5811933261769 9.941509647698524  51.964000625738336 10.973464378765868  C 52.34694170384236 12.005489733617196  52.53837879825872 13.127913531923639  52.53837879825872 14.34080639746918  L 52.53837879825872 15  L 39.993162190299984 15  C 40.09396432212577 16.053715653375832  40.29550169650611 16.665458869944757  40.597774313440965 17.22924853721213  C 40.9001138196471 17.793108828263485  41.27790442386221 18.282531651032173  41.731346793900116 18.697446381734437  C 42.18478916393805 19.11243173622057  42.69869943521721 19.436948023467664  43.27307760773758 19.670924619691732  C 43.847455780257945 19.904971839699783  44.457017709474 20.022066073487736  45.101964063199574 20.022066073487736  C 46.93593410327918 20.022066073487736  48.417197015875416 19.22408793864446  49.545752800988225 17.628202292741776  L 51.752496749936626 19.35170511624085  C 50.98668148299987 20.436910180406016  50.039529401610736 21.28806802456313  48.91097361649793 21.905108024928268  C 47.78235094211381 22.52214802529346  46.51272568386189 22.830703337367993  45.10203095247087 22.830703337367993  C 43.9532746074301 22.830703337367993  42.88017002821218 22.61784325254473  41.88258343627449 22.192334954250157  C 40.8849968443368 21.766826655955526  40.018446334845535 21.17097379077518  39.28286501852941 20.404917606276967  C 38.54728370221329 19.638861421778756  37.96788883434657 18.739891275887942  37.54468041492926 17.707936544820598  C 37.12147199551195 16.675981813753197  36.90983434116765 15.553487391662829  36.90983434116765 14.340665149901271  Z M 44.769457495644104 8.69132742422778  C 43.62070115060335 8.69132742422778  42.618097863319335 9.06902342078871  41.76158074452076 9.824344790126588  C 40.905063625722164 10.57973678324845  40.335769037819404 11.585136971550924  40.053630091541194 12.840545355033894  L 49.45505094912639 12.840545355033894  C 49.19304567350484 11.585136971550924  48.63378447629478 10.57973678324845  47.777267357496186 9.824344790126588  C 46.92075023869761 9.06902342078871  45.918146951413576 8.69132742422778  44.769457495644104 8.69132742422778  Z M 60.73037474174808 9.074249580800938  C 59.72275475911772 9.074320204584922  58.89647159093974 9.446648793565657  58.25159212648546 10.19137659531117  C 57.60671266203117 10.936104397056681  57.284239485168385 11.946801369155311  57.284239485168385 13.223538135391038  L 57.284239485168385 22.479632507355973  L 54 22.479632507355973  L 54 6.201768416230494  L 57.25393864527649 6.201768416230494  L 57.25393864527649 8.212568792835384  C 57.6368797233805 7.552942650748776  58.13567301934934 7.031597877634965  58.75031853318302 6.648605097277823  C 59.364964047016684 6.265541693136753  60.09552866798647 6.074009991066191  60.94201239609238 6.074009991066191  L 62 6.074009991066191  L 62 9.074249580800938  L 60.73037474174808 9.074249580800938  Z " fill-rule="nonzero" fill="rgba(0, 0, 0, 1)" stroke="none" transform="matrix(1 0 0 1 43 207 )" class="fill" />
    <path d="M 3.1740965902654565 5.850626962434546  C 3.1740965902654565 6.744370948313076  3.3050657834405897 15.633292267525576  3.567071059062151 16.367426501678665  C 3.8290763346837053 17.101560735831754  4.1918168528597874 17.729264927573297  4.655359502861671 18.25053907690318  C 5.118902152863562 18.77188385001699  5.6680630701096675 19.170837605546694  6.302842254599987 19.447470967276104  C 6.937688328361588 19.72410432900557  7.627918718746798 19.86238569797831  8.373600315026891 19.86238569797831  C 9.099148240650337 19.86238569797831  9.779278351071575 19.71873692142543  10.414124424833183 19.431439368319616  C 11.048970498594791 19.1441418152138  11.603148111187231 18.739891275887942  12.076724151881805 18.21861712655806  C 12.550300192576373 17.697272353444248  12.918124295370077 17.0749355692829  13.180129570991632 16.351465526506104  C 13.442134846613193 15.627995483729364  13.573104039788333 14.81949440507759  14 13.925750419199062  L 14 0.1374453360708685  L 17 0.1374453360708685  L 17 22.47956188357199  L 13.603337990408946 22.47956188357199  L 13.603337990408946 20.404917606276967  C 12.89799062471343 21.192160925959968  12.066623871917834 21.79860735873274  11.109371510564728 22.224256904595222  C 10.15205225994034 22.649765202889853  9.119281911306985 22.86255466392913  8.01085979685081 22.86255466392913  C 6.882237122466705 22.86255466392913  5.829266213905413 22.655061986686064  4.851813292624378 22.240147255983857  C 3.874427260614624 21.825232525281592  3.027943532508722 21.234817691465366  2.3125627761205294 20.468761506967155  C 1.5971820197323368 19.702705322468944  1.032837237904637 18.78254804139334  0.6197290984512946 17.707936544820598  C 0.20655406972667123 16.63339567203178  0 15.436534405442785  0 14.11721149748564  L 0 0.1374453360708685  L 3.1740965902654565 0.1374453360708685  L 3.1740965902654565 5.850626962434546  Z " stroke-width="0" stroke-dasharray="0" stroke="rgba(255, 255, 255, 0)" fill="none" transform="matrix(1 0 0 1 43 207 )" class="stroke" mask="url(#Clip71)" />
    <path d="M 20 0.1374453360708685  L 22.218475464044324 0.1374453360708685  L 22.218475464044324 8.276342069741588  C 22.923822829739834 7.531614267996076  23.740072607225123 6.94119943417985  24.66709101795761 6.504956320724943  C 25.594109428690103 6.0687132072700365  26.601796300591758 5.850626962434546  27.69001785511999 5.850626962434546  C 28.81864052950411 5.850626962434546  29.876561244140447 6.074009991066191  30.864114445385454 6.52084667211352  C 31.85160075735916 6.967683353160851  32.70805098688646 7.574129785933565  33.43359891250992 8.340185970431776  C 34.15914683813335 9.106242154929987  34.73352501065372 10.010509084617013  35.15673343007103 11.053128007060707  C 35.57994184948835 12.095817553288384  35.791512614561356 13.202280376422264  35.791512614561356 14.372587100246335  C 35.791512614561356 15.542823200286476  35.57994184948835 16.643989239624148  35.15673343007103 17.67594397069155  C 34.73352501065372 18.707969325542877  34.15914683813335 19.607010095217618  33.43359891250991 20.37292503214792  C 32.70805098688646 21.13898121664613  31.85160075735916 21.7454276494189  30.86411444538544 22.192264330466173  C 29.876561244140447 22.639101011513503  28.818573640232813 22.862484040145205  27.69001785511999 22.862484040145205  C 26.601729411320463 22.862484040145205  25.589092733343747 22.644397795309715  24.651974042647296 22.208154681854808  C 23.714855351950845 21.771982192183827  22.893588879119207 21.181496734583618  22.188241513423705 20.436768932838106  L 22.188241513423705 22.479491259788063  L 20 22.479491259788063  L 20 0.1374453360708685  Z " stroke-width="0" stroke-dasharray="0" stroke="rgba(255, 255, 255, 0)" fill="none" transform="matrix(1 0 0 1 43 207 )" class="stroke" mask="url(#Clip71)" />
    <path d="M 22.15807445207438 14.372587100246335  C 22.1580075628031 15.159901043713319  22.294060340595863 15.893964654082483  22.566099006910093 16.574848555137805  C 22.838137673224338 17.255803079977056  23.216062055982007 17.851585321373477  23.69973837664054 18.362265903110995  C 24.183414697299078 18.872946484848455  24.74769258985549 19.277267647958297  25.392572054309767 19.57515876865648  C 26.037518408035346 19.87304988935466  26.73276549376689 20.02199544970381  27.478447090046984 20.02199544970381  C 28.20399501567043 20.02199544970381  28.889141821438017 19.87304988935466  29.534021285892294 19.57515876865648  C 30.178900750346585 19.277267647958297  30.738095058285367 18.873017108632382  31.211804877522507 18.362265903110995  C 31.685380918217078 17.85165594515746  32.06323841170348 17.255803079977056  32.345377357981675 16.574848555137805  C 32.62751630425987 15.893964654082483  32.76858577739898 15.159901043713319  32.76858577739898 14.372587100246335  C 32.76858577739898 13.585273156779408  32.62751630425987 12.84584213883011  32.345377357981675 12.154294046398434  C 32.06323841170348 11.46274595396676  31.685380918217078 10.861666928774127  31.211804877522507 10.350986347036667  C 30.738161947556648 9.840376389083133  30.178967639617866 9.441352009769503  29.534021285892308 9.154125080447614  C 28.889074932166736 8.866898151125781  28.20392812639915 8.723178750788918  27.47844709004699 8.723178750788918  C 26.752966053694827 8.723178750788918  26.067752358655966 8.866827527341798  25.422872894201674 9.154125080447614  C 24.77799342974739 9.44142263355343  24.213715537190986 9.840376389083133  23.729972327261166 10.350986347036667  C 23.246362895873908 10.861666928774127  22.86342181776989 11.46274595396676  22.581282871491695 12.154294046398434  C 22.299143925213485 12.84584213883011  22.15807445207438 13.585273156779408  22.15807445207438 14.372587100246335  Z " stroke-width="0" stroke-dasharray="0" stroke="rgba(255, 255, 255, 0)" fill="none" transform="matrix(1 0 0 1 43 207 )" class="stroke" mask="url(#Clip71)" />
    <path d="M 36.90983434116765 14.340665149901271  C 36.90970056262509 13.191686808829902  37.111304826276694 12.106481744664734  37.51431268576607 11.085120581189756  C 37.91732054525545 10.063759417714778  38.471631936390466 9.164789271823963  39.17691241281469 8.388139519733386  C 39.88219288923892 7.611489767642753  40.71864322665215 6.9997465510738275  41.68599586796921 6.552909870026497  C 42.653348509286275 6.106073188979225  43.701302722501225 5.882690160347522  44.82985850761405 5.882690160347522  C 45.938280622070224 5.882690160347522  46.966101164628526 6.095479621386801  47.91332013528894 6.520987919681431  C 48.86047221667809 6.946566841759989  49.67665510489208 7.537052299360198  50.361868799930946 8.29244429248206  C 51.047082494969814 9.047765661819938  51.5811933261769 9.941509647698524  51.964000625738336 10.973464378765868  C 52.34694170384236 12.005489733617196  52.53837879825872 13.127913531923639  52.53837879825872 14.34080639746918  L 52.53837879825872 15  L 39.993162190299984 15  C 40.09396432212577 16.053715653375832  40.29550169650611 16.665458869944757  40.597774313440965 17.22924853721213  C 40.9001138196471 17.793108828263485  41.27790442386221 18.282531651032173  41.731346793900116 18.697446381734437  C 42.18478916393805 19.11243173622057  42.69869943521721 19.436948023467664  43.27307760773758 19.670924619691732  C 43.847455780257945 19.904971839699783  44.457017709474 20.022066073487736  45.101964063199574 20.022066073487736  C 46.93593410327918 20.022066073487736  48.417197015875416 19.22408793864446  49.545752800988225 17.628202292741776  L 51.752496749936626 19.35170511624085  C 50.98668148299987 20.436910180406016  50.039529401610736 21.28806802456313  48.91097361649793 21.905108024928268  C 47.78235094211381 22.52214802529346  46.51272568386189 22.830703337367993  45.10203095247087 22.830703337367993  C 43.9532746074301 22.830703337367993  42.88017002821218 22.61784325254473  41.88258343627449 22.192334954250157  C 40.8849968443368 21.766826655955526  40.018446334845535 21.17097379077518  39.28286501852941 20.404917606276967  C 38.54728370221329 19.638861421778756  37.96788883434657 18.739891275887942  37.54468041492926 17.707936544820598  C 37.12147199551195 16.675981813753197  36.90983434116765 15.553487391662829  36.90983434116765 14.340665149901271  Z " stroke-width="0" stroke-dasharray="0" stroke="rgba(255, 255, 255, 0)" fill="none" transform="matrix(1 0 0 1 43 207 )" class="stroke" mask="url(#Clip71)" />
    <path d="M 44.769457495644104 8.69132742422778  C 43.62070115060335 8.69132742422778  42.618097863319335 9.06902342078871  41.76158074452076 9.824344790126588  C 40.905063625722164 10.57973678324845  40.335769037819404 11.585136971550924  40.053630091541194 12.840545355033894  L 49.45505094912639 12.840545355033894  C 49.19304567350484 11.585136971550924  48.63378447629478 10.57973678324845  47.777267357496186 9.824344790126588  C 46.92075023869761 9.06902342078871  45.918146951413576 8.69132742422778  44.769457495644104 8.69132742422778  Z " stroke-width="0" stroke-dasharray="0" stroke="rgba(255, 255, 255, 0)" fill="none" transform="matrix(1 0 0 1 43 207 )" class="stroke" mask="url(#Clip71)" />
    <path d="M 60.73037474174808 9.074249580800938  C 59.72275475911772 9.074320204584922  58.89647159093974 9.446648793565657  58.25159212648546 10.19137659531117  C 57.60671266203117 10.936104397056681  57.284239485168385 11.946801369155311  57.284239485168385 13.223538135391038  L 57.284239485168385 22.479632507355973  L 54 22.479632507355973  L 54 6.201768416230494  L 57.25393864527649 6.201768416230494  L 57.25393864527649 8.212568792835384  C 57.6368797233805 7.552942650748776  58.13567301934934 7.031597877634965  58.75031853318302 6.648605097277823  C 59.364964047016684 6.265541693136753  60.09552866798647 6.074009991066191  60.94201239609238 6.074009991066191  L 62 6.074009991066191  L 62 9.074249580800938  L 60.73037474174808 9.074249580800938  Z " stroke-width="0" stroke-dasharray="0" stroke="rgba(255, 255, 255, 0)" fill="none" transform="matrix(1 0 0 1 43 207 )" class="stroke" mask="url(#Clip71)" />
  </g>
</svg>