<?xml version="1.0" encoding="utf-8"?>
<svg version="1.1" xmlns:xlink="http://www.w3.org/1999/xlink" width="49px" height="36px" xmlns="http://www.w3.org/2000/svg">
  <defs>
    <pattern id="BGPattern" patternUnits="userSpaceOnUse" alignment="0 0" imageRepeat="None" />
    <mask fill="white" id="Clip72">
      <path d="M 18.077741262460286 7.791945335288716  L 18.077741262460286 17.649667829068648  C 18.077741262460286 18.906177672708434  17.9461088459493 19.53365159924281  17.036486529484225 19.53365159924281  C 16.08677312169601 19.53365159924281  15.936876985804483 18.963078757796005  16 17.82260249943285  L 16 7.791945335288716  L 9 7.791945335288716  L 9 19.572924505028745  C 8.562788921767828 21.622256134222095  9.055463888472222 23.31009851697673  10.209864590293593 24.636674794802786  C 11.364042563829837 25.96168908205781  12.79039450179319 26.624865650215764  14.572443511106867 26.624865650215764  C 15.777626261937556 26.624865650215764  16.987709035041068 26.254450743371144  18.244119291451327 25.510496948539846  C 17.551879781271737 28.13731880599457  15.99612270964868 29.450729734721936  13.661707553216154 29.450729734721936  C 12.931158777994447 29.450729734721936  12.233573788971771 29.24543954538637  11.081177641716556 28.83418974218478  C 11.081177641716556 28.83418974218478  9.990477229441955 28.487204693905632  8.562788921767828 27.655110002566126  L 8.562788921767828 33.77588162590822  C 8.562788921767828 33.77588162590822  9.982904467747582 34.66710881743677  11.081177641716556 35.08170574329057  C 12.426456483893109 35.59381550907875  13.750798867267582 35.85042824574822  15.084273110332322 35.85042824574822  C 18.1238460174819 35.85042824574822  20.665843935654255 34.684067572207965  22.80737639716544 32.35246193267821  C 24.602343647016582 30.39216376603365  25.45205205478207 27.81644131440267  25 24.62707970986645  L 25 7.791945335288716  L 18.077741262460286 7.791945335288716  Z M 35.93876790349046 0.15715856559678876  C 35.47994763612561 0.17367103734769343  34.79683998563629 0.239720924351312  34.796839985636296 0.23972092435131093  C 26.045622934649703 1.0294187287628185  26.640752912513236 10.40448613609401  26 10.40448613609401  L 26 26.79891602813071  C 31.398451811144593 26.79891602813071  33.776744439747446 24.51082298307967  33.776744439747446 21.342436680497308  L 33.776744439747446 19.20117074912324  L 37.286051300233176 19.20117074912324  L 37.286051300233176 12.070237509344052  L 33.77674443974746 12.070237509344052  L 33.77674443974746 11.115861270443792  C 33.77674443974746 10.001269427257727  34.07119123268742 9.143290320741126  34.56497984081745 8.54058510183311  C 35.04830021954645 7.952384081084666  35.75434888340401 7.653374457487204  36.63434833794699 7.6399859668783625  C 37.22123736926076 7.646680212182784  38.29991045413843 7.841482750541429  38.5179614452793 8.68919734759125  L 38.53399788180855 8.756586083655753  L 38.53399788180855 16.188983503644025  C 38.53399788180855 18.918673597276683  39.0473865790299 21.109700085413607  40.1505597752717 22.762732392585256  C 41.02187282669467 24.0567300099298  42.15979163541653 25.081395824526478  43.60240273819426 25.83829182694632  C 45.045013840972004 26.593625838795134  46.562238919267806 26.97006556641373  48.19149632498329 26.97006556641373  C 48.37123805108204 26.97006556641373  48.69775771708053 26.964933311680344  48.999999999999986 26.95132167956135  L 48.999999999999986 19.39909726862395  C 47.491684053109324 19.39909726862395  46.84465838481083 19.11972409791946  46.36445620207365 18.54223386965809  C 45.8831403779108 17.965859348947458  45.650612048236574 16.82449052454371  45.650612048236574 15.397946850171637  L 48.218891904054104 15.397946850171637  L 48.218891904054104 7.791945335288716  L 45.78669903045013 7.791945335288716  C 45.32899240451092 4.939750552585159  43.61955281614916 0.6433839162078858  37.278033081968545 0.164745376941799  C 37.278033081968545 0.164745376941799  36.52721603280014 0.13640640515308428  35.93876790349046 0.15715856559678876  Z M 9.03051832053782 25.400265042527057  C 9.2843673972032 25.693239043804954  9.564057764258003 25.962694016460336  9.86619484634021 26.205359611138725  L 9.871540325183297 26.216739828156246  C 9.050786594484519 26.719923933538542  8.087041304733201 27.06914039691916  7.373865335751526 27.253901567321172  L 7.373865335751526 27.292728190086816  L 7.349142496102255 27.25747183148353  C 6.912372328965132 27.353645822357045  6.479388542675194 27.406084077241676  6.062886649484771 27.406084077241676  C 4.2654693884972215 27.406084077241676  2.825308296855896 26.73755211284018  1.661775735344252 25.400265042527053  C 0.4980204455474798 24.06230854768348  0 22.35996196676927  0 20.29277901676413  L 0 0.6436070577180328  L 8 0.6436070577180328  L 8 20.293002158274277  C 7.373865335751526 22.360408249789568  7.865872117600535 24.062754830703774  9.03051832053782 25.400265042527057  Z " fill-rule="evenodd" />
    </mask>
  </defs>
  <g transform="matrix(1 0 0 1 -49 -371 )">
    <path d="M 18.077741262460286 7.791945335288716  L 18.077741262460286 17.649667829068648  C 18.077741262460286 18.906177672708434  17.9461088459493 19.53365159924281  17.036486529484225 19.53365159924281  C 16.08677312169601 19.53365159924281  15.936876985804483 18.963078757796005  16 17.82260249943285  L 16 7.791945335288716  L 9 7.791945335288716  L 9 19.572924505028745  C 8.562788921767828 21.622256134222095  9.055463888472222 23.31009851697673  10.209864590293593 24.636674794802786  C 11.364042563829837 25.96168908205781  12.79039450179319 26.624865650215764  14.572443511106867 26.624865650215764  C 15.777626261937556 26.624865650215764  16.987709035041068 26.254450743371144  18.244119291451327 25.510496948539846  C 17.551879781271737 28.13731880599457  15.99612270964868 29.450729734721936  13.661707553216154 29.450729734721936  C 12.931158777994447 29.450729734721936  12.233573788971771 29.24543954538637  11.081177641716556 28.83418974218478  C 11.081177641716556 28.83418974218478  9.990477229441955 28.487204693905632  8.562788921767828 27.655110002566126  L 8.562788921767828 33.77588162590822  C 8.562788921767828 33.77588162590822  9.982904467747582 34.66710881743677  11.081177641716556 35.08170574329057  C 12.426456483893109 35.59381550907875  13.750798867267582 35.85042824574822  15.084273110332322 35.85042824574822  C 18.1238460174819 35.85042824574822  20.665843935654255 34.684067572207965  22.80737639716544 32.35246193267821  C 24.602343647016582 30.39216376603365  25.45205205478207 27.81644131440267  25 24.62707970986645  L 25 7.791945335288716  L 18.077741262460286 7.791945335288716  Z M 35.93876790349046 0.15715856559678876  C 35.47994763612561 0.17367103734769343  34.79683998563629 0.239720924351312  34.796839985636296 0.23972092435131093  C 26.045622934649703 1.0294187287628185  26.640752912513236 10.40448613609401  26 10.40448613609401  L 26 26.79891602813071  C 31.398451811144593 26.79891602813071  33.776744439747446 24.51082298307967  33.776744439747446 21.342436680497308  L 33.776744439747446 19.20117074912324  L 37.286051300233176 19.20117074912324  L 37.286051300233176 12.070237509344052  L 33.77674443974746 12.070237509344052  L 33.77674443974746 11.115861270443792  C 33.77674443974746 10.001269427257727  34.07119123268742 9.143290320741126  34.56497984081745 8.54058510183311  C 35.04830021954645 7.952384081084666  35.75434888340401 7.653374457487204  36.63434833794699 7.6399859668783625  C 37.22123736926076 7.646680212182784  38.29991045413843 7.841482750541429  38.5179614452793 8.68919734759125  L 38.53399788180855 8.756586083655753  L 38.53399788180855 16.188983503644025  C 38.53399788180855 18.918673597276683  39.0473865790299 21.109700085413607  40.1505597752717 22.762732392585256  C 41.02187282669467 24.0567300099298  42.15979163541653 25.081395824526478  43.60240273819426 25.83829182694632  C 45.045013840972004 26.593625838795134  46.562238919267806 26.97006556641373  48.19149632498329 26.97006556641373  C 48.37123805108204 26.97006556641373  48.69775771708053 26.964933311680344  48.999999999999986 26.95132167956135  L 48.999999999999986 19.39909726862395  C 47.491684053109324 19.39909726862395  46.84465838481083 19.11972409791946  46.36445620207365 18.54223386965809  C 45.8831403779108 17.965859348947458  45.650612048236574 16.82449052454371  45.650612048236574 15.397946850171637  L 48.218891904054104 15.397946850171637  L 48.218891904054104 7.791945335288716  L 45.78669903045013 7.791945335288716  C 45.32899240451092 4.939750552585159  43.61955281614916 0.6433839162078858  37.278033081968545 0.164745376941799  C 37.278033081968545 0.164745376941799  36.52721603280014 0.13640640515308428  35.93876790349046 0.15715856559678876  Z M 9.03051832053782 25.400265042527057  C 9.2843673972032 25.693239043804954  9.564057764258003 25.962694016460336  9.86619484634021 26.205359611138725  L 9.871540325183297 26.216739828156246  C 9.050786594484519 26.719923933538542  8.087041304733201 27.06914039691916  7.373865335751526 27.253901567321172  L 7.373865335751526 27.292728190086816  L 7.349142496102255 27.25747183148353  C 6.912372328965132 27.353645822357045  6.479388542675194 27.406084077241676  6.062886649484771 27.406084077241676  C 4.2654693884972215 27.406084077241676  2.825308296855896 26.73755211284018  1.661775735344252 25.400265042527053  C 0.4980204455474798 24.06230854768348  0 22.35996196676927  0 20.29277901676413  L 0 0.6436070577180328  L 8 0.6436070577180328  L 8 20.293002158274277  C 7.373865335751526 22.360408249789568  7.865872117600535 24.062754830703774  9.03051832053782 25.400265042527057  Z " fill-rule="nonzero" fill="rgba(255, 0, 191, 1)" stroke="none" transform="matrix(1 0 0 1 49 371 )" class="fill" />
    <path d="M 18.077741262460286 7.791945335288716  L 18.077741262460286 17.649667829068648  C 18.077741262460286 18.906177672708434  17.9461088459493 19.53365159924281  17.036486529484225 19.53365159924281  C 16.08677312169601 19.53365159924281  15.936876985804483 18.963078757796005  16 17.82260249943285  L 16 7.791945335288716  L 9 7.791945335288716  L 9 19.572924505028745  C 8.562788921767828 21.622256134222095  9.055463888472222 23.31009851697673  10.209864590293593 24.636674794802786  C 11.364042563829837 25.96168908205781  12.79039450179319 26.624865650215764  14.572443511106867 26.624865650215764  C 15.777626261937556 26.624865650215764  16.987709035041068 26.254450743371144  18.244119291451327 25.510496948539846  C 17.551879781271737 28.13731880599457  15.99612270964868 29.450729734721936  13.661707553216154 29.450729734721936  C 12.931158777994447 29.450729734721936  12.233573788971771 29.24543954538637  11.081177641716556 28.83418974218478  C 11.081177641716556 28.83418974218478  9.990477229441955 28.487204693905632  8.562788921767828 27.655110002566126  L 8.562788921767828 33.77588162590822  C 8.562788921767828 33.77588162590822  9.982904467747582 34.66710881743677  11.081177641716556 35.08170574329057  C 12.426456483893109 35.59381550907875  13.750798867267582 35.85042824574822  15.084273110332322 35.85042824574822  C 18.1238460174819 35.85042824574822  20.665843935654255 34.684067572207965  22.80737639716544 32.35246193267821  C 24.602343647016582 30.39216376603365  25.45205205478207 27.81644131440267  25 24.62707970986645  L 25 7.791945335288716  L 18.077741262460286 7.791945335288716  Z " stroke-width="0" stroke-dasharray="0" stroke="rgba(255, 255, 255, 0)" fill="none" transform="matrix(1 0 0 1 49 371 )" class="stroke" mask="url(#Clip72)" />
    <path d="M 35.93876790349046 0.15715856559678876  C 35.47994763612561 0.17367103734769343  34.79683998563629 0.239720924351312  34.796839985636296 0.23972092435131093  C 26.045622934649703 1.0294187287628185  26.640752912513236 10.40448613609401  26 10.40448613609401  L 26 26.79891602813071  C 31.398451811144593 26.79891602813071  33.776744439747446 24.51082298307967  33.776744439747446 21.342436680497308  L 33.776744439747446 19.20117074912324  L 37.286051300233176 19.20117074912324  L 37.286051300233176 12.070237509344052  L 33.77674443974746 12.070237509344052  L 33.77674443974746 11.115861270443792  C 33.77674443974746 10.001269427257727  34.07119123268742 9.143290320741126  34.56497984081745 8.54058510183311  C 35.04830021954645 7.952384081084666  35.75434888340401 7.653374457487204  36.63434833794699 7.6399859668783625  C 37.22123736926076 7.646680212182784  38.29991045413843 7.841482750541429  38.5179614452793 8.68919734759125  L 38.53399788180855 8.756586083655753  L 38.53399788180855 16.188983503644025  C 38.53399788180855 18.918673597276683  39.0473865790299 21.109700085413607  40.1505597752717 22.762732392585256  C 41.02187282669467 24.0567300099298  42.15979163541653 25.081395824526478  43.60240273819426 25.83829182694632  C 45.045013840972004 26.593625838795134  46.562238919267806 26.97006556641373  48.19149632498329 26.97006556641373  C 48.37123805108204 26.97006556641373  48.69775771708053 26.964933311680344  48.999999999999986 26.95132167956135  L 48.999999999999986 19.39909726862395  C 47.491684053109324 19.39909726862395  46.84465838481083 19.11972409791946  46.36445620207365 18.54223386965809  C 45.8831403779108 17.965859348947458  45.650612048236574 16.82449052454371  45.650612048236574 15.397946850171637  L 48.218891904054104 15.397946850171637  L 48.218891904054104 7.791945335288716  L 45.78669903045013 7.791945335288716  C 45.32899240451092 4.939750552585159  43.61955281614916 0.6433839162078858  37.278033081968545 0.164745376941799  C 37.278033081968545 0.164745376941799  36.52721603280014 0.13640640515308428  35.93876790349046 0.15715856559678876  Z " stroke-width="0" stroke-dasharray="0" stroke="rgba(255, 255, 255, 0)" fill="none" transform="matrix(1 0 0 1 49 371 )" class="stroke" mask="url(#Clip72)" />
    <path d="M 9.03051832053782 25.400265042527057  C 9.2843673972032 25.693239043804954  9.564057764258003 25.962694016460336  9.86619484634021 26.205359611138725  L 9.871540325183297 26.216739828156246  C 9.050786594484519 26.719923933538542  8.087041304733201 27.06914039691916  7.373865335751526 27.253901567321172  L 7.373865335751526 27.292728190086816  L 7.349142496102255 27.25747183148353  C 6.912372328965132 27.353645822357045  6.479388542675194 27.406084077241676  6.062886649484771 27.406084077241676  C 4.2654693884972215 27.406084077241676  2.825308296855896 26.73755211284018  1.661775735344252 25.400265042527053  C 0.4980204455474798 24.06230854768348  0 22.35996196676927  0 20.29277901676413  L 0 0.6436070577180328  L 8 0.6436070577180328  L 8 20.293002158274277  C 7.373865335751526 22.360408249789568  7.865872117600535 24.062754830703774  9.03051832053782 25.400265042527057  Z " stroke-width="0" stroke-dasharray="0" stroke="rgba(255, 255, 255, 0)" fill="none" transform="matrix(1 0 0 1 49 371 )" class="stroke" mask="url(#Clip72)" />
  </g>
</svg>