<?xml version="1.0" encoding="utf-8"?>
<svg version="1.1" xmlns:xlink="http://www.w3.org/1999/xlink" width="15px" height="24px" xmlns="http://www.w3.org/2000/svg">
  <defs>
    <pattern id="BGPattern" patternUnits="userSpaceOnUse" alignment="0 0" imageRepeat="None" />
    <mask fill="white" id="Clip46">
      <path d="M 10.1513671875 10.828125  C 10.8837890625 10.046875  11.25 9.104166666666668  11.25 8  C 11.25 6.895833333333332  10.8837890625 5.953125  10.1513671875 5.171874999999999  C 9.4189453125 4.390625000000001  8.535156250000002 3.999999999999999  7.5 3.999999999999999  C 6.464843750000001 3.999999999999999  5.5810546875 4.390625000000001  4.8486328125 5.171874999999999  C 4.1162109375 5.953125  3.75 6.895833333333332  3.75 8  C 3.75 9.104166666666668  4.1162109375 10.046875  4.8486328125 10.828125  C 5.5810546875 11.609375  6.464843750000001 12  7.5 12  C 8.535156250000002 12  9.4189453125 11.609375  10.1513671875 10.828125  Z M 12.802734375 2.34375  C 14.267578125 3.906249999999999  15 5.791666666666663  15 8  C 15 9.135416666666664  14.8388671875 10.067708333333332  14.5166015625 10.796875  L 9.1845703125 22.890625  C 9.0283203125 23.234375  8.79638671875 23.505208333333332  8.48876953125 23.703125  C 8.18115234375 23.901041666666668  7.8515625 24  7.5 24  C 7.1484375 24  6.81884765625 23.901041666666668  6.51123046875 23.703125  C 6.20361328125 23.505208333333332  5.9765625 23.234375  5.830078125 22.890625  L 0.4833984375 10.796875  C 0.1611328125 10.067708333333332  0 9.135416666666664  0 8  C 0 5.791666666666663  0.732421875 3.906249999999999  2.197265625 2.34375  C 3.6621093750000004 0.7812500000000009  5.4296875 0  7.5 0  C 9.5703125 0  11.337890625 0.7812500000000009  12.802734375 2.34375  Z " fill-rule="evenodd" />
    </mask>
  </defs>
  <g transform="matrix(1 0 0 1 -37 -75 )">
    <path d="M 10.1513671875 10.828125  C 10.8837890625 10.046875  11.25 9.104166666666668  11.25 8  C 11.25 6.895833333333332  10.8837890625 5.953125  10.1513671875 5.171874999999999  C 9.4189453125 4.390625000000001  8.535156250000002 3.999999999999999  7.5 3.999999999999999  C 6.464843750000001 3.999999999999999  5.5810546875 4.390625000000001  4.8486328125 5.171874999999999  C 4.1162109375 5.953125  3.75 6.895833333333332  3.75 8  C 3.75 9.104166666666668  4.1162109375 10.046875  4.8486328125 10.828125  C 5.5810546875 11.609375  6.464843750000001 12  7.5 12  C 8.535156250000002 12  9.4189453125 11.609375  10.1513671875 10.828125  Z M 12.802734375 2.34375  C 14.267578125 3.906249999999999  15 5.791666666666663  15 8  C 15 9.135416666666664  14.8388671875 10.067708333333332  14.5166015625 10.796875  L 9.1845703125 22.890625  C 9.0283203125 23.234375  8.79638671875 23.505208333333332  8.48876953125 23.703125  C 8.18115234375 23.901041666666668  7.8515625 24  7.5 24  C 7.1484375 24  6.81884765625 23.901041666666668  6.51123046875 23.703125  C 6.20361328125 23.505208333333332  5.9765625 23.234375  5.830078125 22.890625  L 0.4833984375 10.796875  C 0.1611328125 10.067708333333332  0 9.135416666666664  0 8  C 0 5.791666666666663  0.732421875 3.906249999999999  2.197265625 2.34375  C 3.6621093750000004 0.7812500000000009  5.4296875 0  7.5 0  C 9.5703125 0  11.337890625 0.7812500000000009  12.802734375 2.34375  Z " fill-rule="nonzero" fill="rgba(255, 187, 23, 1)" stroke="none" transform="matrix(1 0 0 1 37 75 )" class="fill" />
    <path d="M 10.1513671875 10.828125  C 10.8837890625 10.046875  11.25 9.104166666666668  11.25 8  C 11.25 6.895833333333332  10.8837890625 5.953125  10.1513671875 5.171874999999999  C 9.4189453125 4.390625000000001  8.535156250000002 3.999999999999999  7.5 3.999999999999999  C 6.464843750000001 3.999999999999999  5.5810546875 4.390625000000001  4.8486328125 5.171874999999999  C 4.1162109375 5.953125  3.75 6.895833333333332  3.75 8  C 3.75 9.104166666666668  4.1162109375 10.046875  4.8486328125 10.828125  C 5.5810546875 11.609375  6.464843750000001 12  7.5 12  C 8.535156250000002 12  9.4189453125 11.609375  10.1513671875 10.828125  Z " stroke-width="0" stroke-dasharray="0" stroke="rgba(0, 0, 0, 1)" fill="none" transform="matrix(1 0 0 1 37 75 )" class="stroke" mask="url(#Clip46)" />
    <path d="M 12.802734375 2.34375  C 14.267578125 3.906249999999999  15 5.791666666666663  15 8  C 15 9.135416666666664  14.8388671875 10.067708333333332  14.5166015625 10.796875  L 9.1845703125 22.890625  C 9.0283203125 23.234375  8.79638671875 23.505208333333332  8.48876953125 23.703125  C 8.18115234375 23.901041666666668  7.8515625 24  7.5 24  C 7.1484375 24  6.81884765625 23.901041666666668  6.51123046875 23.703125  C 6.20361328125 23.505208333333332  5.9765625 23.234375  5.830078125 22.890625  L 0.4833984375 10.796875  C 0.1611328125 10.067708333333332  0 9.135416666666664  0 8  C 0 5.791666666666663  0.732421875 3.906249999999999  2.197265625 2.34375  C 3.6621093750000004 0.7812500000000009  5.4296875 0  7.5 0  C 9.5703125 0  11.337890625 0.7812500000000009  12.802734375 2.34375  Z " stroke-width="0" stroke-dasharray="0" stroke="rgba(0, 0, 0, 1)" fill="none" transform="matrix(1 0 0 1 37 75 )" class="stroke" mask="url(#Clip46)" />
  </g>
</svg>