<?xml version="1.0" encoding="utf-8"?>
<svg version="1.1" xmlns:xlink="http://www.w3.org/1999/xlink" width="12px" height="12px" xmlns="http://www.w3.org/2000/svg">
  <defs>
    <pattern id="BGPattern" patternUnits="userSpaceOnUse" alignment="0 0" imageRepeat="None" />
    <mask fill="white" id="Clip52">
      <path d="M 9.3515625 6.851562500000001  C 9.450520833333334 6.752604166666666  9.5 6.635416666666666  9.5 6.500000000000001  L 9.5 5.5  C 9.5 5.364583333333332  9.450520833333334 5.247395833333332  9.3515625 5.1484375  C 9.252604166666668 5.049479166666667  9.135416666666668 5  9 5  L 7 5  L 7 3  C 7 2.864583333333332  6.950520833333334 2.747395833333332  6.8515625 2.6484375  C 6.752604166666668 2.5494791666666665  6.635416666666668 2.5000000000000004  6.5 2.5000000000000004  L 5.5 2.5000000000000004  C 5.364583333333334 2.5000000000000004  5.247395833333334 2.5494791666666665  5.1484375 2.6484375  C 5.049479166666667 2.747395833333332  5 2.864583333333332  5 3  L 5 5  L 3 5  C 2.8645833333333335 5  2.7473958333333335 5.049479166666667  2.6484375 5.1484375  C 2.549479166666667 5.247395833333332  2.5 5.364583333333332  2.5 5.5  L 2.5 6.500000000000001  C 2.5 6.635416666666666  2.549479166666667 6.752604166666666  2.6484375 6.851562500000001  C 2.7473958333333335 6.950520833333333  2.8645833333333335 6.999999999999999  3 6.999999999999999  L 5 6.999999999999999  L 5 9  C 5 9.135416666666666  5.049479166666667 9.252604166666666  5.1484375 9.3515625  C 5.247395833333334 9.450520833333334  5.364583333333334 9.5  5.5 9.5  L 6.5 9.5  C 6.635416666666668 9.5  6.752604166666668 9.450520833333334  6.8515625 9.3515625  C 6.950520833333334 9.252604166666666  7 9.135416666666666  7 9  L 7 6.999999999999999  L 9 6.999999999999999  C 9.135416666666668 6.999999999999999  9.252604166666668 6.950520833333333  9.3515625 6.851562500000001  Z M 11.1953125 2.98828125  C 11.731770833333332 3.907552083333332  12 4.911458333333332  12 6  C 12 7.088541666666667  11.731770833333332 8.092447916666664  11.1953125 9.01171875  C 10.658854166666668 9.930989583333334  9.930989583333334 10.658854166666666  9.01171875 11.1953125  C 8.092447916666668 11.731770833333334  7.088541666666667 12  6 12  C 4.911458333333334 12  3.9075520833333335 11.731770833333334  2.98828125 11.1953125  C 2.069010416666667 10.658854166666666  1.3411458333333335 9.930989583333334  0.8046875 9.01171875  C 0.26822916666666663 8.092447916666664  0 7.088541666666667  0 6  C 0 4.911458333333332  0.26822916666666663 3.907552083333332  0.8046875 2.98828125  C 1.3411458333333335 2.0690104166666665  2.069010416666667 1.3411458333333321  2.98828125 0.8046874999999996  C 3.9075520833333335 0.26822916666666563  4.911458333333334 0  6 0  C 7.088541666666667 0  8.092447916666668 0.26822916666666563  9.01171875 0.8046874999999996  C 9.930989583333334 1.3411458333333321  10.658854166666668 2.0690104166666665  11.1953125 2.98828125  Z " fill-rule="evenodd" />
    </mask>
  </defs>
  <g transform="matrix(1 0 0 1 -37 -166 )">
    <path d="M 9.3515625 6.851562500000001  C 9.450520833333334 6.752604166666666  9.5 6.635416666666666  9.5 6.500000000000001  L 9.5 5.5  C 9.5 5.364583333333332  9.450520833333334 5.247395833333332  9.3515625 5.1484375  C 9.252604166666668 5.049479166666667  9.135416666666668 5  9 5  L 7 5  L 7 3  C 7 2.864583333333332  6.950520833333334 2.747395833333332  6.8515625 2.6484375  C 6.752604166666668 2.5494791666666665  6.635416666666668 2.5000000000000004  6.5 2.5000000000000004  L 5.5 2.5000000000000004  C 5.364583333333334 2.5000000000000004  5.247395833333334 2.5494791666666665  5.1484375 2.6484375  C 5.049479166666667 2.747395833333332  5 2.864583333333332  5 3  L 5 5  L 3 5  C 2.8645833333333335 5  2.7473958333333335 5.049479166666667  2.6484375 5.1484375  C 2.549479166666667 5.247395833333332  2.5 5.364583333333332  2.5 5.5  L 2.5 6.500000000000001  C 2.5 6.635416666666666  2.549479166666667 6.752604166666666  2.6484375 6.851562500000001  C 2.7473958333333335 6.950520833333333  2.8645833333333335 6.999999999999999  3 6.999999999999999  L 5 6.999999999999999  L 5 9  C 5 9.135416666666666  5.049479166666667 9.252604166666666  5.1484375 9.3515625  C 5.247395833333334 9.450520833333334  5.364583333333334 9.5  5.5 9.5  L 6.5 9.5  C 6.635416666666668 9.5  6.752604166666668 9.450520833333334  6.8515625 9.3515625  C 6.950520833333334 9.252604166666666  7 9.135416666666666  7 9  L 7 6.999999999999999  L 9 6.999999999999999  C 9.135416666666668 6.999999999999999  9.252604166666668 6.950520833333333  9.3515625 6.851562500000001  Z M 11.1953125 2.98828125  C 11.731770833333332 3.907552083333332  12 4.911458333333332  12 6  C 12 7.088541666666667  11.731770833333332 8.092447916666664  11.1953125 9.01171875  C 10.658854166666668 9.930989583333334  9.930989583333334 10.658854166666666  9.01171875 11.1953125  C 8.092447916666668 11.731770833333334  7.088541666666667 12  6 12  C 4.911458333333334 12  3.9075520833333335 11.731770833333334  2.98828125 11.1953125  C 2.069010416666667 10.658854166666666  1.3411458333333335 9.930989583333334  0.8046875 9.01171875  C 0.26822916666666663 8.092447916666664  0 7.088541666666667  0 6  C 0 4.911458333333332  0.26822916666666663 3.907552083333332  0.8046875 2.98828125  C 1.3411458333333335 2.0690104166666665  2.069010416666667 1.3411458333333321  2.98828125 0.8046874999999996  C 3.9075520833333335 0.26822916666666563  4.911458333333334 0  6 0  C 7.088541666666667 0  8.092447916666668 0.26822916666666563  9.01171875 0.8046874999999996  C 9.930989583333334 1.3411458333333321  10.658854166666668 2.0690104166666665  11.1953125 2.98828125  Z " fill-rule="nonzero" fill="rgba(2, 133, 189, 1)" stroke="none" transform="matrix(1 0 0 1 37 166 )" class="fill" />
    <path d="M 9.3515625 6.851562500000001  C 9.450520833333334 6.752604166666666  9.5 6.635416666666666  9.5 6.500000000000001  L 9.5 5.5  C 9.5 5.364583333333332  9.450520833333334 5.247395833333332  9.3515625 5.1484375  C 9.252604166666668 5.049479166666667  9.135416666666668 5  9 5  L 7 5  L 7 3  C 7 2.864583333333332  6.950520833333334 2.747395833333332  6.8515625 2.6484375  C 6.752604166666668 2.5494791666666665  6.635416666666668 2.5000000000000004  6.5 2.5000000000000004  L 5.5 2.5000000000000004  C 5.364583333333334 2.5000000000000004  5.247395833333334 2.5494791666666665  5.1484375 2.6484375  C 5.049479166666667 2.747395833333332  5 2.864583333333332  5 3  L 5 5  L 3 5  C 2.8645833333333335 5  2.7473958333333335 5.049479166666667  2.6484375 5.1484375  C 2.549479166666667 5.247395833333332  2.5 5.364583333333332  2.5 5.5  L 2.5 6.500000000000001  C 2.5 6.635416666666666  2.549479166666667 6.752604166666666  2.6484375 6.851562500000001  C 2.7473958333333335 6.950520833333333  2.8645833333333335 6.999999999999999  3 6.999999999999999  L 5 6.999999999999999  L 5 9  C 5 9.135416666666666  5.049479166666667 9.252604166666666  5.1484375 9.3515625  C 5.247395833333334 9.450520833333334  5.364583333333334 9.5  5.5 9.5  L 6.5 9.5  C 6.635416666666668 9.5  6.752604166666668 9.450520833333334  6.8515625 9.3515625  C 6.950520833333334 9.252604166666666  7 9.135416666666666  7 9  L 7 6.999999999999999  L 9 6.999999999999999  C 9.135416666666668 6.999999999999999  9.252604166666668 6.950520833333333  9.3515625 6.851562500000001  Z " stroke-width="0" stroke-dasharray="0" stroke="rgba(255, 255, 255, 0)" fill="none" transform="matrix(1 0 0 1 37 166 )" class="stroke" mask="url(#Clip52)" />
    <path d="M 11.1953125 2.98828125  C 11.731770833333332 3.907552083333332  12 4.911458333333332  12 6  C 12 7.088541666666667  11.731770833333332 8.092447916666664  11.1953125 9.01171875  C 10.658854166666668 9.930989583333334  9.930989583333334 10.658854166666666  9.01171875 11.1953125  C 8.092447916666668 11.731770833333334  7.088541666666667 12  6 12  C 4.911458333333334 12  3.9075520833333335 11.731770833333334  2.98828125 11.1953125  C 2.069010416666667 10.658854166666666  1.3411458333333335 9.930989583333334  0.8046875 9.01171875  C 0.26822916666666663 8.092447916666664  0 7.088541666666667  0 6  C 0 4.911458333333332  0.26822916666666663 3.907552083333332  0.8046875 2.98828125  C 1.3411458333333335 2.0690104166666665  2.069010416666667 1.3411458333333321  2.98828125 0.8046874999999996  C 3.9075520833333335 0.26822916666666563  4.911458333333334 0  6 0  C 7.088541666666667 0  8.092447916666668 0.26822916666666563  9.01171875 0.8046874999999996  C 9.930989583333334 1.3411458333333321  10.658854166666668 2.0690104166666665  11.1953125 2.98828125  Z " stroke-width="0" stroke-dasharray="0" stroke="rgba(255, 255, 255, 0)" fill="none" transform="matrix(1 0 0 1 37 166 )" class="stroke" mask="url(#Clip52)" />
  </g>
</svg>