<?xml version="1.0" encoding="utf-8"?>
<svg version="1.1" xmlns:xlink="http://www.w3.org/1999/xlink" width="7px" height="15px" xmlns="http://www.w3.org/2000/svg">
  <defs>
    <pattern id="BGPattern" patternUnits="userSpaceOnUse" alignment="0 0" imageRepeat="None" />
    <mask fill="white" id="Clip79">
      <path d="M 3.400105263157892 2.2223772321428585  C 3.1638245614035068 2.4762834821428554  2.879508771929826 2.6032366071428585  2.547157894736845 2.6032366071428585  C 2.21480701754386 2.6032366071428585  1.9291929824561431 2.4762834821428554  1.6903157894736853 2.2223772321428585  C 1.4514385964912275 1.9684709821428525  1.3320000000000027 1.6601562499999973  1.3319999999999987 1.2974330357142831  C 1.3320000000000027 0.9402901785714306  1.4514385964912275 0.6347656249999971  1.6903157894736853 0.380859375  C 1.9291929824561431 0.12695312500000286  2.21480701754386 0  2.547157894736845 0  C 2.879508771929826 0  3.1638245614035068 0.12695312500000286  3.400105263157892 0.380859375  C 3.636385964912282 0.6347656249999971  3.754526315789474 0.9402901785714306  3.754526315789474 1.2974330357142831  C 3.754526315789474 1.6601562499999973  3.636385964912282 1.9684709821428525  3.400105263157892 2.2223772321428585  Z M 6.784631578947367 7.734375  C 6.820982456140354 7.806919642857145  6.839157894736843 7.887834821428571  6.839157894736843 7.977120535714284  C 6.839157894736843 8.256138392857139  6.761263157894738 8.444475446428571  6.6054736842105255 8.542131696428566  C 6.449684210526318 8.63978794642857  6.284807017543858 8.657924107142856  6.110842105263157 8.596540178571434  C 5.936877192982457 8.535156250000004  5.813543859649123 8.44029017857143  5.740842105263158 8.311941964285715  L 2.8821052631578934 4.645647321428567  C 2.845754385964915 4.578683035714283  2.8094035087719282 4.535435267857139  2.7730526315789494 4.515904017857142  C 2.736701754385963 4.496372767857145  2.708140350877193 4.492187500000003  2.687368421052631 4.503348214285717  L 2.6639999999999975 4.528459821428567  C 2.627649122807019 4.573102678571431  2.6380350877192993 4.631696428571431  2.6951578947368398 4.704241071428567  L 3.645473684210526 5.867745535714283  L 3.6532631578947345 8.830915178571434  L 2.3991578947368417 12.65625  C 2.05122807017544 13.727678571428566  1.8123508771929822 14.380580357142858  1.6825263157894728 14.614955357142858  C 1.6046315789473669 14.760044642857139  1.5319298245614015 14.849330357142858  1.4644210526315806 14.8828125  C 1.2047719298245614 15.02790178571429  0.9373333333333334 15.03069196428571  0.6621052631578971 14.891183035714285  C 0.5115087719298219 14.818638392857139  0.40375438596491 14.698660714285715  0.3388421052631571 14.53125  C 0.2739298245614043 14.363839285714285  0.24926315789473846 14.204799107142858  0.2648421052631556 14.054129464285715  C 0.2752280701754364 13.959263392857144  0.7867368421052623 12.234933035714286  1.7993684210526293 8.881138392857142  L 1.8383157894736843 5.398995535714283  L 1.1762105263157911 6.771763392857142  L 1.4488421052631555 8.630022321428566  C 1.469614035087717 8.763950892857142  1.4670175438596489 8.881138392857142  1.4410526315789467 8.981584821428566  C 1.415087719298245 9.08203125  1.3787368421052622 9.158761160714286  1.3319999999999987 9.211774553571434  C 1.2852631578947353 9.264787946428571  1.2359298245614037 9.309430803571429  1.184 9.345703125  C 1.1320701754385958 9.381975446428571  1.0879298245614046 9.40290178571429  1.051578947368422 9.408482142857142  L 0.9970526315789459 9.425223214285715  C 0.8983859649122826 9.441964285714285  0.80880701754386 9.43359375  0.7283157894736859 9.400111607142858  C 0.6478245614035081 9.366629464285715  0.5855087719298274 9.321986607142852  0.5413684210526322 9.266183035714285  C 0.49722807017543685 9.210379464285714  0.4608771929824581 9.148995535714285  0.43231578947368404 9.08203125  C 0.40375438596491 9.015066964285715  0.3842807017543885 8.960658482142858  0.3738947368421077 8.918805803571434  C 0.36350877192982695 8.876953125  0.3583157894736826 8.85044642857143  0.3583157894736826 8.839285714285715  L 0 6.336495535714283  L 1.6435789473684217 3.1473214285714337  C 1.7630175438596507 2.9575892857142807  2.0564210526315763 2.8627232142857166  2.523789473684211 2.8627232142857166  C 2.913263157894736 2.8627232142857166  3.1910877192982445 2.9743303571428554  3.357263157894737 3.1975446428571415  L 6.660000000000001 7.55859375  C 6.696350877192984 7.586495535714289  6.7327017543859675 7.633928571428566  6.769052631578946 7.700892857142858  L 6.792421052631579 7.726004464285716  L 6.784631578947367 7.734375  Z M 2.991157894736842 11.350446428571434  L 3.7000000000000024 9.232700892857142  C 3.923298245614035 9.863281249999996  4.153087719298244 10.49107142857143  4.389368421052629 11.116071428571434  C 4.625649122807019 11.741071428571429  4.806105263157892 12.209821428571429  4.9307368421052615 12.522321428571434  L 5.117684210526316 12.982700892857142  C 5.304631578947369 13.501674107142858  5.413684210526317 13.850446428571429  5.4448421052631595 14.029017857142858  C 5.501964912280704 14.419642857142861  5.408491228070177 14.690290178571434  5.164421052631579 14.840959821428566  C 4.982666666666666 14.963727678571429  4.8112982456140365 15.008370535714285  4.650315789473685 14.974888392857142  C 4.489333333333333 14.94140625  4.3569122807017555 14.88002232142857  4.253052631578947 14.790736607142858  C 4.14919298245614 14.701450892857139  4.073894736842107 14.603794642857144  4.027157894736843 14.497767857142858  L 4.019368421052634 14.497767857142858  C 3.988210526315792 14.408482142857139  3.96743859649123 14.338727678571434  3.9570526315789496 14.288504464285715  L 2.991157894736842 11.350446428571434  Z " fill-rule="evenodd" />
    </mask>
  </defs>
  <g transform="matrix(1 0 0 1 -123 -224 )">
    <path d="M 3.400105263157892 2.2223772321428585  C 3.1638245614035068 2.4762834821428554  2.879508771929826 2.6032366071428585  2.547157894736845 2.6032366071428585  C 2.21480701754386 2.6032366071428585  1.9291929824561431 2.4762834821428554  1.6903157894736853 2.2223772321428585  C 1.4514385964912275 1.9684709821428525  1.3320000000000027 1.6601562499999973  1.3319999999999987 1.2974330357142831  C 1.3320000000000027 0.9402901785714306  1.4514385964912275 0.6347656249999971  1.6903157894736853 0.380859375  C 1.9291929824561431 0.12695312500000286  2.21480701754386 0  2.547157894736845 0  C 2.879508771929826 0  3.1638245614035068 0.12695312500000286  3.400105263157892 0.380859375  C 3.636385964912282 0.6347656249999971  3.754526315789474 0.9402901785714306  3.754526315789474 1.2974330357142831  C 3.754526315789474 1.6601562499999973  3.636385964912282 1.9684709821428525  3.400105263157892 2.2223772321428585  Z M 6.784631578947367 7.734375  C 6.820982456140354 7.806919642857145  6.839157894736843 7.887834821428571  6.839157894736843 7.977120535714284  C 6.839157894736843 8.256138392857139  6.761263157894738 8.444475446428571  6.6054736842105255 8.542131696428566  C 6.449684210526318 8.63978794642857  6.284807017543858 8.657924107142856  6.110842105263157 8.596540178571434  C 5.936877192982457 8.535156250000004  5.813543859649123 8.44029017857143  5.740842105263158 8.311941964285715  L 2.8821052631578934 4.645647321428567  C 2.845754385964915 4.578683035714283  2.8094035087719282 4.535435267857139  2.7730526315789494 4.515904017857142  C 2.736701754385963 4.496372767857145  2.708140350877193 4.492187500000003  2.687368421052631 4.503348214285717  L 2.6639999999999975 4.528459821428567  C 2.627649122807019 4.573102678571431  2.6380350877192993 4.631696428571431  2.6951578947368398 4.704241071428567  L 3.645473684210526 5.867745535714283  L 3.6532631578947345 8.830915178571434  L 2.3991578947368417 12.65625  C 2.05122807017544 13.727678571428566  1.8123508771929822 14.380580357142858  1.6825263157894728 14.614955357142858  C 1.6046315789473669 14.760044642857139  1.5319298245614015 14.849330357142858  1.4644210526315806 14.8828125  C 1.2047719298245614 15.02790178571429  0.9373333333333334 15.03069196428571  0.6621052631578971 14.891183035714285  C 0.5115087719298219 14.818638392857139  0.40375438596491 14.698660714285715  0.3388421052631571 14.53125  C 0.2739298245614043 14.363839285714285  0.24926315789473846 14.204799107142858  0.2648421052631556 14.054129464285715  C 0.2752280701754364 13.959263392857144  0.7867368421052623 12.234933035714286  1.7993684210526293 8.881138392857142  L 1.8383157894736843 5.398995535714283  L 1.1762105263157911 6.771763392857142  L 1.4488421052631555 8.630022321428566  C 1.469614035087717 8.763950892857142  1.4670175438596489 8.881138392857142  1.4410526315789467 8.981584821428566  C 1.415087719298245 9.08203125  1.3787368421052622 9.158761160714286  1.3319999999999987 9.211774553571434  C 1.2852631578947353 9.264787946428571  1.2359298245614037 9.309430803571429  1.184 9.345703125  C 1.1320701754385958 9.381975446428571  1.0879298245614046 9.40290178571429  1.051578947368422 9.408482142857142  L 0.9970526315789459 9.425223214285715  C 0.8983859649122826 9.441964285714285  0.80880701754386 9.43359375  0.7283157894736859 9.400111607142858  C 0.6478245614035081 9.366629464285715  0.5855087719298274 9.321986607142852  0.5413684210526322 9.266183035714285  C 0.49722807017543685 9.210379464285714  0.4608771929824581 9.148995535714285  0.43231578947368404 9.08203125  C 0.40375438596491 9.015066964285715  0.3842807017543885 8.960658482142858  0.3738947368421077 8.918805803571434  C 0.36350877192982695 8.876953125  0.3583157894736826 8.85044642857143  0.3583157894736826 8.839285714285715  L 0 6.336495535714283  L 1.6435789473684217 3.1473214285714337  C 1.7630175438596507 2.9575892857142807  2.0564210526315763 2.8627232142857166  2.523789473684211 2.8627232142857166  C 2.913263157894736 2.8627232142857166  3.1910877192982445 2.9743303571428554  3.357263157894737 3.1975446428571415  L 6.660000000000001 7.55859375  C 6.696350877192984 7.586495535714289  6.7327017543859675 7.633928571428566  6.769052631578946 7.700892857142858  L 6.792421052631579 7.726004464285716  L 6.784631578947367 7.734375  Z M 2.991157894736842 11.350446428571434  L 3.7000000000000024 9.232700892857142  C 3.923298245614035 9.863281249999996  4.153087719298244 10.49107142857143  4.389368421052629 11.116071428571434  C 4.625649122807019 11.741071428571429  4.806105263157892 12.209821428571429  4.9307368421052615 12.522321428571434  L 5.117684210526316 12.982700892857142  C 5.304631578947369 13.501674107142858  5.413684210526317 13.850446428571429  5.4448421052631595 14.029017857142858  C 5.501964912280704 14.419642857142861  5.408491228070177 14.690290178571434  5.164421052631579 14.840959821428566  C 4.982666666666666 14.963727678571429  4.8112982456140365 15.008370535714285  4.650315789473685 14.974888392857142  C 4.489333333333333 14.94140625  4.3569122807017555 14.88002232142857  4.253052631578947 14.790736607142858  C 4.14919298245614 14.701450892857139  4.073894736842107 14.603794642857144  4.027157894736843 14.497767857142858  L 4.019368421052634 14.497767857142858  C 3.988210526315792 14.408482142857139  3.96743859649123 14.338727678571434  3.9570526315789496 14.288504464285715  L 2.991157894736842 11.350446428571434  Z " fill-rule="nonzero" fill="rgba(51, 51, 51, 1)" stroke="none" transform="matrix(1 0 0 1 123 224 )" class="fill" />
    <path d="M 3.400105263157892 2.2223772321428585  C 3.1638245614035068 2.4762834821428554  2.879508771929826 2.6032366071428585  2.547157894736845 2.6032366071428585  C 2.21480701754386 2.6032366071428585  1.9291929824561431 2.4762834821428554  1.6903157894736853 2.2223772321428585  C 1.4514385964912275 1.9684709821428525  1.3320000000000027 1.6601562499999973  1.3319999999999987 1.2974330357142831  C 1.3320000000000027 0.9402901785714306  1.4514385964912275 0.6347656249999971  1.6903157894736853 0.380859375  C 1.9291929824561431 0.12695312500000286  2.21480701754386 0  2.547157894736845 0  C 2.879508771929826 0  3.1638245614035068 0.12695312500000286  3.400105263157892 0.380859375  C 3.636385964912282 0.6347656249999971  3.754526315789474 0.9402901785714306  3.754526315789474 1.2974330357142831  C 3.754526315789474 1.6601562499999973  3.636385964912282 1.9684709821428525  3.400105263157892 2.2223772321428585  Z " stroke-width="0" stroke-dasharray="0" stroke="rgba(255, 255, 255, 0)" fill="none" transform="matrix(1 0 0 1 123 224 )" class="stroke" mask="url(#Clip79)" />
    <path d="M 6.784631578947367 7.734375  C 6.820982456140354 7.806919642857145  6.839157894736843 7.887834821428571  6.839157894736843 7.977120535714284  C 6.839157894736843 8.256138392857139  6.761263157894738 8.444475446428571  6.6054736842105255 8.542131696428566  C 6.449684210526318 8.63978794642857  6.284807017543858 8.657924107142856  6.110842105263157 8.596540178571434  C 5.936877192982457 8.535156250000004  5.813543859649123 8.44029017857143  5.740842105263158 8.311941964285715  L 2.8821052631578934 4.645647321428567  C 2.845754385964915 4.578683035714283  2.8094035087719282 4.535435267857139  2.7730526315789494 4.515904017857142  C 2.736701754385963 4.496372767857145  2.708140350877193 4.492187500000003  2.687368421052631 4.503348214285717  L 2.6639999999999975 4.528459821428567  C 2.627649122807019 4.573102678571431  2.6380350877192993 4.631696428571431  2.6951578947368398 4.704241071428567  L 3.645473684210526 5.867745535714283  L 3.6532631578947345 8.830915178571434  L 2.3991578947368417 12.65625  C 2.05122807017544 13.727678571428566  1.8123508771929822 14.380580357142858  1.6825263157894728 14.614955357142858  C 1.6046315789473669 14.760044642857139  1.5319298245614015 14.849330357142858  1.4644210526315806 14.8828125  C 1.2047719298245614 15.02790178571429  0.9373333333333334 15.03069196428571  0.6621052631578971 14.891183035714285  C 0.5115087719298219 14.818638392857139  0.40375438596491 14.698660714285715  0.3388421052631571 14.53125  C 0.2739298245614043 14.363839285714285  0.24926315789473846 14.204799107142858  0.2648421052631556 14.054129464285715  C 0.2752280701754364 13.959263392857144  0.7867368421052623 12.234933035714286  1.7993684210526293 8.881138392857142  L 1.8383157894736843 5.398995535714283  L 1.1762105263157911 6.771763392857142  L 1.4488421052631555 8.630022321428566  C 1.469614035087717 8.763950892857142  1.4670175438596489 8.881138392857142  1.4410526315789467 8.981584821428566  C 1.415087719298245 9.08203125  1.3787368421052622 9.158761160714286  1.3319999999999987 9.211774553571434  C 1.2852631578947353 9.264787946428571  1.2359298245614037 9.309430803571429  1.184 9.345703125  C 1.1320701754385958 9.381975446428571  1.0879298245614046 9.40290178571429  1.051578947368422 9.408482142857142  L 0.9970526315789459 9.425223214285715  C 0.8983859649122826 9.441964285714285  0.80880701754386 9.43359375  0.7283157894736859 9.400111607142858  C 0.6478245614035081 9.366629464285715  0.5855087719298274 9.321986607142852  0.5413684210526322 9.266183035714285  C 0.49722807017543685 9.210379464285714  0.4608771929824581 9.148995535714285  0.43231578947368404 9.08203125  C 0.40375438596491 9.015066964285715  0.3842807017543885 8.960658482142858  0.3738947368421077 8.918805803571434  C 0.36350877192982695 8.876953125  0.3583157894736826 8.85044642857143  0.3583157894736826 8.839285714285715  L 0 6.336495535714283  L 1.6435789473684217 3.1473214285714337  C 1.7630175438596507 2.9575892857142807  2.0564210526315763 2.8627232142857166  2.523789473684211 2.8627232142857166  C 2.913263157894736 2.8627232142857166  3.1910877192982445 2.9743303571428554  3.357263157894737 3.1975446428571415  L 6.660000000000001 7.55859375  C 6.696350877192984 7.586495535714289  6.7327017543859675 7.633928571428566  6.769052631578946 7.700892857142858  L 6.792421052631579 7.726004464285716  L 6.784631578947367 7.734375  Z " stroke-width="0" stroke-dasharray="0" stroke="rgba(255, 255, 255, 0)" fill="none" transform="matrix(1 0 0 1 123 224 )" class="stroke" mask="url(#Clip79)" />
    <path d="M 2.991157894736842 11.350446428571434  L 3.7000000000000024 9.232700892857142  C 3.923298245614035 9.863281249999996  4.153087719298244 10.49107142857143  4.389368421052629 11.116071428571434  C 4.625649122807019 11.741071428571429  4.806105263157892 12.209821428571429  4.9307368421052615 12.522321428571434  L 5.117684210526316 12.982700892857142  C 5.304631578947369 13.501674107142858  5.413684210526317 13.850446428571429  5.4448421052631595 14.029017857142858  C 5.501964912280704 14.419642857142861  5.408491228070177 14.690290178571434  5.164421052631579 14.840959821428566  C 4.982666666666666 14.963727678571429  4.8112982456140365 15.008370535714285  4.650315789473685 14.974888392857142  C 4.489333333333333 14.94140625  4.3569122807017555 14.88002232142857  4.253052631578947 14.790736607142858  C 4.14919298245614 14.701450892857139  4.073894736842107 14.603794642857144  4.027157894736843 14.497767857142858  L 4.019368421052634 14.497767857142858  C 3.988210526315792 14.408482142857139  3.96743859649123 14.338727678571434  3.9570526315789496 14.288504464285715  L 2.991157894736842 11.350446428571434  Z " stroke-width="0" stroke-dasharray="0" stroke="rgba(255, 255, 255, 0)" fill="none" transform="matrix(1 0 0 1 123 224 )" class="stroke" mask="url(#Clip79)" />
  </g>
</svg>