<?xml version="1.0" encoding="utf-8"?>
<svg version="1.1" xmlns:xlink="http://www.w3.org/1999/xlink" width="50px" height="40px" xmlns="http://www.w3.org/2000/svg">
  <defs>
    <pattern id="BGPattern" patternUnits="userSpaceOnUse" alignment="0 0" imageRepeat="None" />
    <mask fill="white" id="Clip81">
      <path d="M 17.857142857142858 4  L 17.857142857142858 7  L 32.142857142857146 7  L 32.142857142857146 4  L 17.857142857142858 4  Z M 31.25 23  L 50 23  L 50 35.833333333333336  C 50 36.979166666666664  49.562872023809526 37.96006944444444  48.68861607142857 38.776041666666664  C 47.81436011904763 39.592013888888886  46.76339285714287 40  45.535714285714285 40  L 4.464285714285714 40  C 3.2366071428571432 40  2.1856398809523814 39.592013888888886  1.3113839285714286 38.776041666666664  C 0.4371279761904762 37.96006944444444  0 36.979166666666664  0 35.833333333333336  L 0 23  L 18.75 23  L 18.75 27.5  C 18.75 27.951388888888886  18.92671130952381 28.342013888888886  19.280133928571427 28.671875  C 19.63355654761905 29.001736111111107  20.052083333333336 29.16666666666667  20.535714285714285 29.16666666666667  L 29.464285714285715 29.16666666666667  C 29.947916666666668 29.16666666666667  30.36644345238096 29.001736111111107  30.71986607142857 28.671875  C 31.073288690476193 28.342013888888886  31.25 27.951388888888886  31.25 27.5  L 31.25 23  Z M 21.428571428571427 23.33333333333333  L 28.57142857142857 23.33333333333333  L 28.57142857142857 26.66666666666667  L 21.428571428571427 26.66666666666667  L 21.428571428571427 23.33333333333333  Z M 48.68861607142857 7.890625  C 49.562872023809526 8.706597222222218  50 9.6875  50 10.833333333333336  L 50 20.83333333333333  L 0 20.83333333333333  L 0 10.833333333333336  C 0 9.6875  0.4371279761904762 8.706597222222218  1.3113839285714286 7.890625  C 2.1856398809523814 7.074652777777772  3.2366071428571432 6.666666666666665  4.464285714285714 6.666666666666665  L 14.285714285714285 6.666666666666665  L 14.285714285714285 2.5  C 14.285714285714285 1.8055555555555536  14.546130952380953 1.2152777777777724  15.066964285714285 0.7291666666666652  C 15.587797619047622 0.24305555555555802  16.220238095238095 0  16.964285714285715 0  L 33.035714285714285 0  C 33.779761904761905 0  34.41220238095239 0.24305555555555802  34.933035714285715 0.7291666666666652  C 35.45386904761905 1.2152777777777724  35.714285714285715 1.8055555555555536  35.714285714285715 2.5  L 35.714285714285715 6.666666666666665  L 45.535714285714285 6.666666666666665  C 46.76339285714287 6.666666666666665  47.81436011904763 7.074652777777772  48.68861607142857 7.890625  Z " fill-rule="evenodd" />
    </mask>
  </defs>
  <g transform="matrix(1 0 0 1 -171 -214 )">
    <path d="M 17.857142857142858 4  L 17.857142857142858 7  L 32.142857142857146 7  L 32.142857142857146 4  L 17.857142857142858 4  Z M 31.25 23  L 50 23  L 50 35.833333333333336  C 50 36.979166666666664  49.562872023809526 37.96006944444444  48.68861607142857 38.776041666666664  C 47.81436011904763 39.592013888888886  46.76339285714287 40  45.535714285714285 40  L 4.464285714285714 40  C 3.2366071428571432 40  2.1856398809523814 39.592013888888886  1.3113839285714286 38.776041666666664  C 0.4371279761904762 37.96006944444444  0 36.979166666666664  0 35.833333333333336  L 0 23  L 18.75 23  L 18.75 27.5  C 18.75 27.951388888888886  18.92671130952381 28.342013888888886  19.280133928571427 28.671875  C 19.63355654761905 29.001736111111107  20.052083333333336 29.16666666666667  20.535714285714285 29.16666666666667  L 29.464285714285715 29.16666666666667  C 29.947916666666668 29.16666666666667  30.36644345238096 29.001736111111107  30.71986607142857 28.671875  C 31.073288690476193 28.342013888888886  31.25 27.951388888888886  31.25 27.5  L 31.25 23  Z M 21.428571428571427 23.33333333333333  L 28.57142857142857 23.33333333333333  L 28.57142857142857 26.66666666666667  L 21.428571428571427 26.66666666666667  L 21.428571428571427 23.33333333333333  Z M 48.68861607142857 7.890625  C 49.562872023809526 8.706597222222218  50 9.6875  50 10.833333333333336  L 50 20.83333333333333  L 0 20.83333333333333  L 0 10.833333333333336  C 0 9.6875  0.4371279761904762 8.706597222222218  1.3113839285714286 7.890625  C 2.1856398809523814 7.074652777777772  3.2366071428571432 6.666666666666665  4.464285714285714 6.666666666666665  L 14.285714285714285 6.666666666666665  L 14.285714285714285 2.5  C 14.285714285714285 1.8055555555555536  14.546130952380953 1.2152777777777724  15.066964285714285 0.7291666666666652  C 15.587797619047622 0.24305555555555802  16.220238095238095 0  16.964285714285715 0  L 33.035714285714285 0  C 33.779761904761905 0  34.41220238095239 0.24305555555555802  34.933035714285715 0.7291666666666652  C 35.45386904761905 1.2152777777777724  35.714285714285715 1.8055555555555536  35.714285714285715 2.5  L 35.714285714285715 6.666666666666665  L 45.535714285714285 6.666666666666665  C 46.76339285714287 6.666666666666665  47.81436011904763 7.074652777777772  48.68861607142857 7.890625  Z " fill-rule="nonzero" fill="rgba(51, 51, 51, 1)" stroke="none" transform="matrix(1 0 0 1 171 214 )" class="fill" />
    <path d="M 17.857142857142858 4  L 17.857142857142858 7  L 32.142857142857146 7  L 32.142857142857146 4  L 17.857142857142858 4  Z " stroke-width="0" stroke-dasharray="0" stroke="rgba(255, 255, 255, 0)" fill="none" transform="matrix(1 0 0 1 171 214 )" class="stroke" mask="url(#Clip81)" />
    <path d="M 31.25 23  L 50 23  L 50 35.833333333333336  C 50 36.979166666666664  49.562872023809526 37.96006944444444  48.68861607142857 38.776041666666664  C 47.81436011904763 39.592013888888886  46.76339285714287 40  45.535714285714285 40  L 4.464285714285714 40  C 3.2366071428571432 40  2.1856398809523814 39.592013888888886  1.3113839285714286 38.776041666666664  C 0.4371279761904762 37.96006944444444  0 36.979166666666664  0 35.833333333333336  L 0 23  L 18.75 23  L 18.75 27.5  C 18.75 27.951388888888886  18.92671130952381 28.342013888888886  19.280133928571427 28.671875  C 19.63355654761905 29.001736111111107  20.052083333333336 29.16666666666667  20.535714285714285 29.16666666666667  L 29.464285714285715 29.16666666666667  C 29.947916666666668 29.16666666666667  30.36644345238096 29.001736111111107  30.71986607142857 28.671875  C 31.073288690476193 28.342013888888886  31.25 27.951388888888886  31.25 27.5  L 31.25 23  Z " stroke-width="0" stroke-dasharray="0" stroke="rgba(255, 255, 255, 0)" fill="none" transform="matrix(1 0 0 1 171 214 )" class="stroke" mask="url(#Clip81)" />
    <path d="M 21.428571428571427 23.33333333333333  L 28.57142857142857 23.33333333333333  L 28.57142857142857 26.66666666666667  L 21.428571428571427 26.66666666666667  L 21.428571428571427 23.33333333333333  Z " stroke-width="0" stroke-dasharray="0" stroke="rgba(255, 255, 255, 0)" fill="none" transform="matrix(1 0 0 1 171 214 )" class="stroke" mask="url(#Clip81)" />
    <path d="M 48.68861607142857 7.890625  C 49.562872023809526 8.706597222222218  50 9.6875  50 10.833333333333336  L 50 20.83333333333333  L 0 20.83333333333333  L 0 10.833333333333336  C 0 9.6875  0.4371279761904762 8.706597222222218  1.3113839285714286 7.890625  C 2.1856398809523814 7.074652777777772  3.2366071428571432 6.666666666666665  4.464285714285714 6.666666666666665  L 14.285714285714285 6.666666666666665  L 14.285714285714285 2.5  C 14.285714285714285 1.8055555555555536  14.546130952380953 1.2152777777777724  15.066964285714285 0.7291666666666652  C 15.587797619047622 0.24305555555555802  16.220238095238095 0  16.964285714285715 0  L 33.035714285714285 0  C 33.779761904761905 0  34.41220238095239 0.24305555555555802  34.933035714285715 0.7291666666666652  C 35.45386904761905 1.2152777777777724  35.714285714285715 1.8055555555555536  35.714285714285715 2.5  L 35.714285714285715 6.666666666666665  L 45.535714285714285 6.666666666666665  C 46.76339285714287 6.666666666666665  47.81436011904763 7.074652777777772  48.68861607142857 7.890625  Z " stroke-width="0" stroke-dasharray="0" stroke="rgba(255, 255, 255, 0)" fill="none" transform="matrix(1 0 0 1 171 214 )" class="stroke" mask="url(#Clip81)" />
  </g>
</svg>