<?xml version="1.0" encoding="utf-8"?>
<svg version="1.1" xmlns:xlink="http://www.w3.org/1999/xlink" width="73px" height="26px" xmlns="http://www.w3.org/2000/svg">
  <defs>
    <pattern id="BGPattern" patternUnits="userSpaceOnUse" alignment="0 0" imageRepeat="None" />
    <mask fill="white" id="Clip22">
      <path d="M 4 15.742152647790224  C 3.737242759506099 16.752471936174686  3.8914484224381143 17.672417345898445  4.199938505024788 18.50230821928892  C 4.50842858761146 19.332199092679403  4.9355262944962 20.041777744213263  5.481310382401648 20.631044173890526  C 6.027094470307098 21.220390439149643  6.673687163193638 21.67138164105275  7.421088461061275 21.984097615181707  C 8.16856851565155 22.29681358931066  8.981259136588971 22.453131658584212  9.85923908059618 22.453131658584212  C 10.713513251088301 22.453131658584212  11.514311606906855 22.290746085089626  12.261791661497135 21.965974938100455  C 13.009271716087413 21.64120379111128  13.661771163172064 21.184224920568994  14.219368759473733 20.59495849089173  C 14.776966355775405 20.005612225632614  15.210049573580896 19.302101078319787  15.518539656167569 18.484265377789526  C 15.827029738754245 17.666429677259266  15.98123540168626 16.752471936174686  16 15.742152647790228  L 16 0.15537298860184995  L 20 0.15537298860184995  L 20 25.411678650994435  L 16.01683344032021 25.411678650994435  L 16.01683344032021 23.06642859840005  C 15.186343800065814 23.956355829346048  14.207476494354871 24.641903970741335  13.080389036632667 25.12307302258592  C 11.953222822187819 25.604082403266787  10.737219024603386 25.84462701139815  9.432141373711438 25.84462701139815  C 8.103279192581764 25.84462701139815  6.863490864759604 25.61007007190597  5.712618876799673 25.141036028503464  C 4.561825645562382 24.672001985100955  3.5651593205344665 24.004576520786923  2.72285617188385 23.138599964397653  C 1.8805530232332321 22.27262340800838  1.216082554307076 21.232445612009858  0.7296810352733021 20.017667398492833  C 0.24320075951688688 18.80296902055766  0 17.449995414848335  0 15.95858691020115  L 0 0.15537298860184995  L 4 0.15537298860184995  L 4 15.742152647790224  Z M 23 0.15537298860184995  L 26.16046304637477 0.15537298860184995  L 26.16046304637477 9.355864948403557  C 26.990952686629164 8.513998737734717  27.95202097302313 7.846573273420682  29.04351039211138 7.353428884297742  C 30.134999811199638 6.860284495174801  31.321469837793515 6.613752218404257  32.602762958447734 6.613752218404257  C 33.93162513957741 6.613752218404257  35.177241464875046 6.8662721638139805  36.34000571795384 7.371391890215284  C 37.50269121430998 7.876511616616588  38.51109229101148 8.562059758011875  39.365366461503605 9.42803631440115  C 40.219640631995716 10.294012870790421  40.8959246093181 11.316227660871393  41.39421839347074 12.494840355807765  C 41.892512177623374 13.673532886325997  42.14161969133837 14.924316947259966  42.14161969133837 16.247272374191528  C 42.14161969133837 17.570147965541235  41.892512177623374 18.814944357836023  41.39421839347074 19.98150187991218  C 40.8959246093181 21.14813923757019  40.219640631995716 22.164446194593836  39.3653664615036 23.030263079819395  C 38.51109229101148 23.89623963620867  37.50269121430998 24.58178777760396  36.34000571795383 25.08690750400526  C 35.17724146487504 25.59202723040657  33.931546382854755 25.844547175816295  32.602762958447734 25.844547175816295  C 31.321391081070868 25.844547175816295  30.129093057001516 25.598014899045747  29.025711372794397 25.104870509922808  C 27.92232968858728 24.611805956381726  26.9553546479952 23.944300656485836  26.12486500774081 23.102434445816996  L 26.12486500774081 25.41159881541258  L 23 25.41159881541258  L 23 0.15537298860184995  Z M 26.08934572582951 16.247272374191528  C 26.089266969106877 17.137279440719382  26.24945814295964 17.967090478528007  26.56976173394253 18.73678532319925  C 26.890065324925427 19.50656000345235  27.335040807849783 20.180052971987422  27.904530669270315 20.757344064386317  C 28.474020530690847 21.334635156785215  29.138412242894365 21.791693862909362  29.89770580588086 22.12844034717689  C 30.657078125590004 22.465186831444434  31.475675500725533 22.633560073578195  32.353655444732745 22.633560073578195  C 33.20792961522486 22.633560073578195  34.014634725241535 22.465186831444434  34.77392828822803 22.12844034717689  C 35.53322185121453 21.791693862909355  36.191628052497286 21.33471499236707  36.74938316224424 20.757344064386317  C 37.30698075854591 20.180132807569276  37.75187748474763 19.50656000345235  38.084073340849386 18.73678532319925  C 38.41626919695115 17.967090478528007  38.58236712500203 17.137279440719382  38.58236712500203 16.247272374191528  C 38.58236712500203 15.357265307663676  38.41626919695115 14.521386765634018  38.084073340849386 13.739636748102559  C 37.75187748474763 12.957886730571095  37.30698075854591 12.27840609339684  36.74938316224424 11.701115000997945  C 36.19170680921993 11.123903744180906  35.53330060793717 10.67283270669594  34.773928288228035 10.348141395288621  C 34.01455596851889 10.023450083881302  33.20785085850223 9.860984674804861  32.35365544473275 9.860984674804861  C 31.499460030963263 9.860984674804861  30.69267616422396 10.023370248299448  29.933382601237458 10.348141395288621  C 29.174089038250962 10.672912542277794  28.509697326047448 11.123903744180906  27.940128707904268 11.701115000997945  C 27.370717603206373 12.27840609339684  26.91983536608391 12.957886730571095  26.58763950998215 13.739636748102559  C 26.25544365388039 14.521386765634018  26.08934572582951 15.357265307663676  26.08934572582951 16.247272374191528  Z M 43.45835333718127 16.211186691192722  C 43.45819582373599 14.912341609981596  43.6955685857774 13.685588059186209  44.170077839692304 12.53100587438842  C 44.644587093607214 11.376423689590625  45.29724405413717 10.360196568148837  46.127654937668915 9.482244674481201  C 46.95806582120066 8.604292780813566  47.94291863783236 7.912756970779096  49.08189836067342 7.407637244377794  C 50.22087808351449 6.90251751797649  51.454759657138545 6.649997572566766  52.783543081545574 6.649997572566766  C 54.08862073243752 6.649997572566766  55.29879653254648 6.890542180698129  56.414070481872464 7.371551561378996  C 57.52926567447581 7.85264077764172  58.49025520414712 8.52014607753761  59.29703907088644 9.374067461066666  C 60.10382293762574 10.227909009013866  60.732695367917955 11.23822829739833  61.18342009159514 12.404785819474485  C 61.63430232871761 13.571423177132498  61.85970406891752 14.840250079565866  61.85970406891752 16.21134636235644  L 61.85970406891752 17  L 47.088723224062875 17  C 47.207409605083576 18.147678564685698  47.44470361040236 18.83921437472017  47.8006052400192 19.476541824674587  C 48.156585626358684 20.11394911021086  48.601403595837766 20.66720969247118  49.135295418624345 21.136243735873684  C 49.66918724141093 21.605357614858047  50.27427514146542 21.972202113485203  50.950559118787794 22.236697396173284  C 51.62684309611017 22.501272514443222  52.34455310954197 22.63363990916005  53.103925429251106 22.63363990916005  C 55.26327725063518 22.63363990916005  57.00734487353073 21.73157766977198  58.33612829793776 19.92753302657769  L 60.93439133460279 21.87584056618531  C 60.0327056170805 23.102594116980697  58.91751042447715 24.064772549506145  57.58872700007013 24.762296028179794  C 56.25986481894046 25.45981950685345  54.76498346648255 25.8086211639812  53.104004185973764 25.8086211639812  C 51.751436231328995 25.8086211639812  50.48794212999175 25.567996720267978  49.31336436851674 25.086987339587115  C 48.13878660704172 24.605977958906244  47.11849326522135 23.93240515478932  46.25240558633301 23.06642859840004  C 45.38631790744467 22.200452042010767  44.704127175924185 21.18422492056898  44.20583339177155 20.017667398492826  C 43.70753960761891 18.851109876416672  43.45835333718127 17.582203138401447  43.45835333718127 16.211186691192722  Z M 52.712425761000326 9.824978827387918  C 51.35985780635556 9.824978827387918  50.17937329068244 10.251939519152447  49.170893457258295 11.105781067099647  C 48.162413623834155 11.959702450628704  47.49211515743253 13.0962417939271  47.15991930133077 14  L 58.22933418203591 14  C 57.92084409944925 13.0962417939271  57.262359141443845 11.959702450628704  56.253879308019705 11.105781067099647  C 55.24539947459557 10.251939519152447  54.064914958922444 9.824978827387918  52.712425761000326 9.824978827387918  Z M 71.50511864754209 10.257847352209772  C 70.31872737767085 10.25792718779163  69.34584558288067 10.678820375335121  68.58655201989417 11.52068658600396  C 67.82725845690767 12.362552796672796  67.4475722970531 13.505079808610374  67 14.948347457398546  L 67 25.411758486576293  L 63 25.411758486576293  L 63 7.010694731391025  L 67.41189550169652 7.010694731391025  L 67.41189550169652 9.283773417987817  C 67.86277773881898 8.538109083455153  68.45006661955648 7.9487628181960375  69.17376214390903 7.515814457792328  C 69.89745766826158 7.082786261806763  70.75763859295182 6.866272163813981  71.75430491797974 6.866272163813981  L 73 6.866272163813981  L 73 10.257847352209772  L 71.50511864754209 10.257847352209772  Z " fill-rule="evenodd" />
    </mask>
  </defs>
  <g transform="matrix(1 0 0 1 -140 -113 )">
    <path d="M 4 15.742152647790224  C 3.737242759506099 16.752471936174686  3.8914484224381143 17.672417345898445  4.199938505024788 18.50230821928892  C 4.50842858761146 19.332199092679403  4.9355262944962 20.041777744213263  5.481310382401648 20.631044173890526  C 6.027094470307098 21.220390439149643  6.673687163193638 21.67138164105275  7.421088461061275 21.984097615181707  C 8.16856851565155 22.29681358931066  8.981259136588971 22.453131658584212  9.85923908059618 22.453131658584212  C 10.713513251088301 22.453131658584212  11.514311606906855 22.290746085089626  12.261791661497135 21.965974938100455  C 13.009271716087413 21.64120379111128  13.661771163172064 21.184224920568994  14.219368759473733 20.59495849089173  C 14.776966355775405 20.005612225632614  15.210049573580896 19.302101078319787  15.518539656167569 18.484265377789526  C 15.827029738754245 17.666429677259266  15.98123540168626 16.752471936174686  16 15.742152647790228  L 16 0.15537298860184995  L 20 0.15537298860184995  L 20 25.411678650994435  L 16.01683344032021 25.411678650994435  L 16.01683344032021 23.06642859840005  C 15.186343800065814 23.956355829346048  14.207476494354871 24.641903970741335  13.080389036632667 25.12307302258592  C 11.953222822187819 25.604082403266787  10.737219024603386 25.84462701139815  9.432141373711438 25.84462701139815  C 8.103279192581764 25.84462701139815  6.863490864759604 25.61007007190597  5.712618876799673 25.141036028503464  C 4.561825645562382 24.672001985100955  3.5651593205344665 24.004576520786923  2.72285617188385 23.138599964397653  C 1.8805530232332321 22.27262340800838  1.216082554307076 21.232445612009858  0.7296810352733021 20.017667398492833  C 0.24320075951688688 18.80296902055766  0 17.449995414848335  0 15.95858691020115  L 0 0.15537298860184995  L 4 0.15537298860184995  L 4 15.742152647790224  Z M 23 0.15537298860184995  L 26.16046304637477 0.15537298860184995  L 26.16046304637477 9.355864948403557  C 26.990952686629164 8.513998737734717  27.95202097302313 7.846573273420682  29.04351039211138 7.353428884297742  C 30.134999811199638 6.860284495174801  31.321469837793515 6.613752218404257  32.602762958447734 6.613752218404257  C 33.93162513957741 6.613752218404257  35.177241464875046 6.8662721638139805  36.34000571795384 7.371391890215284  C 37.50269121430998 7.876511616616588  38.51109229101148 8.562059758011875  39.365366461503605 9.42803631440115  C 40.219640631995716 10.294012870790421  40.8959246093181 11.316227660871393  41.39421839347074 12.494840355807765  C 41.892512177623374 13.673532886325997  42.14161969133837 14.924316947259966  42.14161969133837 16.247272374191528  C 42.14161969133837 17.570147965541235  41.892512177623374 18.814944357836023  41.39421839347074 19.98150187991218  C 40.8959246093181 21.14813923757019  40.219640631995716 22.164446194593836  39.3653664615036 23.030263079819395  C 38.51109229101148 23.89623963620867  37.50269121430998 24.58178777760396  36.34000571795383 25.08690750400526  C 35.17724146487504 25.59202723040657  33.931546382854755 25.844547175816295  32.602762958447734 25.844547175816295  C 31.321391081070868 25.844547175816295  30.129093057001516 25.598014899045747  29.025711372794397 25.104870509922808  C 27.92232968858728 24.611805956381726  26.9553546479952 23.944300656485836  26.12486500774081 23.102434445816996  L 26.12486500774081 25.41159881541258  L 23 25.41159881541258  L 23 0.15537298860184995  Z M 26.08934572582951 16.247272374191528  C 26.089266969106877 17.137279440719382  26.24945814295964 17.967090478528007  26.56976173394253 18.73678532319925  C 26.890065324925427 19.50656000345235  27.335040807849783 20.180052971987422  27.904530669270315 20.757344064386317  C 28.474020530690847 21.334635156785215  29.138412242894365 21.791693862909362  29.89770580588086 22.12844034717689  C 30.657078125590004 22.465186831444434  31.475675500725533 22.633560073578195  32.353655444732745 22.633560073578195  C 33.20792961522486 22.633560073578195  34.014634725241535 22.465186831444434  34.77392828822803 22.12844034717689  C 35.53322185121453 21.791693862909355  36.191628052497286 21.33471499236707  36.74938316224424 20.757344064386317  C 37.30698075854591 20.180132807569276  37.75187748474763 19.50656000345235  38.084073340849386 18.73678532319925  C 38.41626919695115 17.967090478528007  38.58236712500203 17.137279440719382  38.58236712500203 16.247272374191528  C 38.58236712500203 15.357265307663676  38.41626919695115 14.521386765634018  38.084073340849386 13.739636748102559  C 37.75187748474763 12.957886730571095  37.30698075854591 12.27840609339684  36.74938316224424 11.701115000997945  C 36.19170680921993 11.123903744180906  35.53330060793717 10.67283270669594  34.773928288228035 10.348141395288621  C 34.01455596851889 10.023450083881302  33.20785085850223 9.860984674804861  32.35365544473275 9.860984674804861  C 31.499460030963263 9.860984674804861  30.69267616422396 10.023370248299448  29.933382601237458 10.348141395288621  C 29.174089038250962 10.672912542277794  28.509697326047448 11.123903744180906  27.940128707904268 11.701115000997945  C 27.370717603206373 12.27840609339684  26.91983536608391 12.957886730571095  26.58763950998215 13.739636748102559  C 26.25544365388039 14.521386765634018  26.08934572582951 15.357265307663676  26.08934572582951 16.247272374191528  Z M 43.45835333718127 16.211186691192722  C 43.45819582373599 14.912341609981596  43.6955685857774 13.685588059186209  44.170077839692304 12.53100587438842  C 44.644587093607214 11.376423689590625  45.29724405413717 10.360196568148837  46.127654937668915 9.482244674481201  C 46.95806582120066 8.604292780813566  47.94291863783236 7.912756970779096  49.08189836067342 7.407637244377794  C 50.22087808351449 6.90251751797649  51.454759657138545 6.649997572566766  52.783543081545574 6.649997572566766  C 54.08862073243752 6.649997572566766  55.29879653254648 6.890542180698129  56.414070481872464 7.371551561378996  C 57.52926567447581 7.85264077764172  58.49025520414712 8.52014607753761  59.29703907088644 9.374067461066666  C 60.10382293762574 10.227909009013866  60.732695367917955 11.23822829739833  61.18342009159514 12.404785819474485  C 61.63430232871761 13.571423177132498  61.85970406891752 14.840250079565866  61.85970406891752 16.21134636235644  L 61.85970406891752 17  L 47.088723224062875 17  C 47.207409605083576 18.147678564685698  47.44470361040236 18.83921437472017  47.8006052400192 19.476541824674587  C 48.156585626358684 20.11394911021086  48.601403595837766 20.66720969247118  49.135295418624345 21.136243735873684  C 49.66918724141093 21.605357614858047  50.27427514146542 21.972202113485203  50.950559118787794 22.236697396173284  C 51.62684309611017 22.501272514443222  52.34455310954197 22.63363990916005  53.103925429251106 22.63363990916005  C 55.26327725063518 22.63363990916005  57.00734487353073 21.73157766977198  58.33612829793776 19.92753302657769  L 60.93439133460279 21.87584056618531  C 60.0327056170805 23.102594116980697  58.91751042447715 24.064772549506145  57.58872700007013 24.762296028179794  C 56.25986481894046 25.45981950685345  54.76498346648255 25.8086211639812  53.104004185973764 25.8086211639812  C 51.751436231328995 25.8086211639812  50.48794212999175 25.567996720267978  49.31336436851674 25.086987339587115  C 48.13878660704172 24.605977958906244  47.11849326522135 23.93240515478932  46.25240558633301 23.06642859840004  C 45.38631790744467 22.200452042010767  44.704127175924185 21.18422492056898  44.20583339177155 20.017667398492826  C 43.70753960761891 18.851109876416672  43.45835333718127 17.582203138401447  43.45835333718127 16.211186691192722  Z M 52.712425761000326 9.824978827387918  C 51.35985780635556 9.824978827387918  50.17937329068244 10.251939519152447  49.170893457258295 11.105781067099647  C 48.162413623834155 11.959702450628704  47.49211515743253 13.0962417939271  47.15991930133077 14  L 58.22933418203591 14  C 57.92084409944925 13.0962417939271  57.262359141443845 11.959702450628704  56.253879308019705 11.105781067099647  C 55.24539947459557 10.251939519152447  54.064914958922444 9.824978827387918  52.712425761000326 9.824978827387918  Z M 71.50511864754209 10.257847352209772  C 70.31872737767085 10.25792718779163  69.34584558288067 10.678820375335121  68.58655201989417 11.52068658600396  C 67.82725845690767 12.362552796672796  67.4475722970531 13.505079808610374  67 14.948347457398546  L 67 25.411758486576293  L 63 25.411758486576293  L 63 7.010694731391025  L 67.41189550169652 7.010694731391025  L 67.41189550169652 9.283773417987817  C 67.86277773881898 8.538109083455153  68.45006661955648 7.9487628181960375  69.17376214390903 7.515814457792328  C 69.89745766826158 7.082786261806763  70.75763859295182 6.866272163813981  71.75430491797974 6.866272163813981  L 73 6.866272163813981  L 73 10.257847352209772  L 71.50511864754209 10.257847352209772  Z " fill-rule="nonzero" fill="rgba(255, 255, 255, 1)" stroke="none" transform="matrix(1 0 0 1 140 113 )" class="fill" />
    <path d="M 4 15.742152647790224  C 3.737242759506099 16.752471936174686  3.8914484224381143 17.672417345898445  4.199938505024788 18.50230821928892  C 4.50842858761146 19.332199092679403  4.9355262944962 20.041777744213263  5.481310382401648 20.631044173890526  C 6.027094470307098 21.220390439149643  6.673687163193638 21.67138164105275  7.421088461061275 21.984097615181707  C 8.16856851565155 22.29681358931066  8.981259136588971 22.453131658584212  9.85923908059618 22.453131658584212  C 10.713513251088301 22.453131658584212  11.514311606906855 22.290746085089626  12.261791661497135 21.965974938100455  C 13.009271716087413 21.64120379111128  13.661771163172064 21.184224920568994  14.219368759473733 20.59495849089173  C 14.776966355775405 20.005612225632614  15.210049573580896 19.302101078319787  15.518539656167569 18.484265377789526  C 15.827029738754245 17.666429677259266  15.98123540168626 16.752471936174686  16 15.742152647790228  L 16 0.15537298860184995  L 20 0.15537298860184995  L 20 25.411678650994435  L 16.01683344032021 25.411678650994435  L 16.01683344032021 23.06642859840005  C 15.186343800065814 23.956355829346048  14.207476494354871 24.641903970741335  13.080389036632667 25.12307302258592  C 11.953222822187819 25.604082403266787  10.737219024603386 25.84462701139815  9.432141373711438 25.84462701139815  C 8.103279192581764 25.84462701139815  6.863490864759604 25.61007007190597  5.712618876799673 25.141036028503464  C 4.561825645562382 24.672001985100955  3.5651593205344665 24.004576520786923  2.72285617188385 23.138599964397653  C 1.8805530232332321 22.27262340800838  1.216082554307076 21.232445612009858  0.7296810352733021 20.017667398492833  C 0.24320075951688688 18.80296902055766  0 17.449995414848335  0 15.95858691020115  L 0 0.15537298860184995  L 4 0.15537298860184995  L 4 15.742152647790224  Z " stroke-width="2" stroke-dasharray="0" stroke="rgba(249, 252, 255, 1)" fill="none" transform="matrix(1 0 0 1 140 113 )" class="stroke" mask="url(#Clip22)" />
    <path d="M 23 0.15537298860184995  L 26.16046304637477 0.15537298860184995  L 26.16046304637477 9.355864948403557  C 26.990952686629164 8.513998737734717  27.95202097302313 7.846573273420682  29.04351039211138 7.353428884297742  C 30.134999811199638 6.860284495174801  31.321469837793515 6.613752218404257  32.602762958447734 6.613752218404257  C 33.93162513957741 6.613752218404257  35.177241464875046 6.8662721638139805  36.34000571795384 7.371391890215284  C 37.50269121430998 7.876511616616588  38.51109229101148 8.562059758011875  39.365366461503605 9.42803631440115  C 40.219640631995716 10.294012870790421  40.8959246093181 11.316227660871393  41.39421839347074 12.494840355807765  C 41.892512177623374 13.673532886325997  42.14161969133837 14.924316947259966  42.14161969133837 16.247272374191528  C 42.14161969133837 17.570147965541235  41.892512177623374 18.814944357836023  41.39421839347074 19.98150187991218  C 40.8959246093181 21.14813923757019  40.219640631995716 22.164446194593836  39.3653664615036 23.030263079819395  C 38.51109229101148 23.89623963620867  37.50269121430998 24.58178777760396  36.34000571795383 25.08690750400526  C 35.17724146487504 25.59202723040657  33.931546382854755 25.844547175816295  32.602762958447734 25.844547175816295  C 31.321391081070868 25.844547175816295  30.129093057001516 25.598014899045747  29.025711372794397 25.104870509922808  C 27.92232968858728 24.611805956381726  26.9553546479952 23.944300656485836  26.12486500774081 23.102434445816996  L 26.12486500774081 25.41159881541258  L 23 25.41159881541258  L 23 0.15537298860184995  Z " stroke-width="2" stroke-dasharray="0" stroke="rgba(249, 252, 255, 1)" fill="none" transform="matrix(1 0 0 1 140 113 )" class="stroke" mask="url(#Clip22)" />
    <path d="M 26.08934572582951 16.247272374191528  C 26.089266969106877 17.137279440719382  26.24945814295964 17.967090478528007  26.56976173394253 18.73678532319925  C 26.890065324925427 19.50656000345235  27.335040807849783 20.180052971987422  27.904530669270315 20.757344064386317  C 28.474020530690847 21.334635156785215  29.138412242894365 21.791693862909362  29.89770580588086 22.12844034717689  C 30.657078125590004 22.465186831444434  31.475675500725533 22.633560073578195  32.353655444732745 22.633560073578195  C 33.20792961522486 22.633560073578195  34.014634725241535 22.465186831444434  34.77392828822803 22.12844034717689  C 35.53322185121453 21.791693862909355  36.191628052497286 21.33471499236707  36.74938316224424 20.757344064386317  C 37.30698075854591 20.180132807569276  37.75187748474763 19.50656000345235  38.084073340849386 18.73678532319925  C 38.41626919695115 17.967090478528007  38.58236712500203 17.137279440719382  38.58236712500203 16.247272374191528  C 38.58236712500203 15.357265307663676  38.41626919695115 14.521386765634018  38.084073340849386 13.739636748102559  C 37.75187748474763 12.957886730571095  37.30698075854591 12.27840609339684  36.74938316224424 11.701115000997945  C 36.19170680921993 11.123903744180906  35.53330060793717 10.67283270669594  34.773928288228035 10.348141395288621  C 34.01455596851889 10.023450083881302  33.20785085850223 9.860984674804861  32.35365544473275 9.860984674804861  C 31.499460030963263 9.860984674804861  30.69267616422396 10.023370248299448  29.933382601237458 10.348141395288621  C 29.174089038250962 10.672912542277794  28.509697326047448 11.123903744180906  27.940128707904268 11.701115000997945  C 27.370717603206373 12.27840609339684  26.91983536608391 12.957886730571095  26.58763950998215 13.739636748102559  C 26.25544365388039 14.521386765634018  26.08934572582951 15.357265307663676  26.08934572582951 16.247272374191528  Z " stroke-width="2" stroke-dasharray="0" stroke="rgba(249, 252, 255, 1)" fill="none" transform="matrix(1 0 0 1 140 113 )" class="stroke" mask="url(#Clip22)" />
    <path d="M 43.45835333718127 16.211186691192722  C 43.45819582373599 14.912341609981596  43.6955685857774 13.685588059186209  44.170077839692304 12.53100587438842  C 44.644587093607214 11.376423689590625  45.29724405413717 10.360196568148837  46.127654937668915 9.482244674481201  C 46.95806582120066 8.604292780813566  47.94291863783236 7.912756970779096  49.08189836067342 7.407637244377794  C 50.22087808351449 6.90251751797649  51.454759657138545 6.649997572566766  52.783543081545574 6.649997572566766  C 54.08862073243752 6.649997572566766  55.29879653254648 6.890542180698129  56.414070481872464 7.371551561378996  C 57.52926567447581 7.85264077764172  58.49025520414712 8.52014607753761  59.29703907088644 9.374067461066666  C 60.10382293762574 10.227909009013866  60.732695367917955 11.23822829739833  61.18342009159514 12.404785819474485  C 61.63430232871761 13.571423177132498  61.85970406891752 14.840250079565866  61.85970406891752 16.21134636235644  L 61.85970406891752 17  L 47.088723224062875 17  C 47.207409605083576 18.147678564685698  47.44470361040236 18.83921437472017  47.8006052400192 19.476541824674587  C 48.156585626358684 20.11394911021086  48.601403595837766 20.66720969247118  49.135295418624345 21.136243735873684  C 49.66918724141093 21.605357614858047  50.27427514146542 21.972202113485203  50.950559118787794 22.236697396173284  C 51.62684309611017 22.501272514443222  52.34455310954197 22.63363990916005  53.103925429251106 22.63363990916005  C 55.26327725063518 22.63363990916005  57.00734487353073 21.73157766977198  58.33612829793776 19.92753302657769  L 60.93439133460279 21.87584056618531  C 60.0327056170805 23.102594116980697  58.91751042447715 24.064772549506145  57.58872700007013 24.762296028179794  C 56.25986481894046 25.45981950685345  54.76498346648255 25.8086211639812  53.104004185973764 25.8086211639812  C 51.751436231328995 25.8086211639812  50.48794212999175 25.567996720267978  49.31336436851674 25.086987339587115  C 48.13878660704172 24.605977958906244  47.11849326522135 23.93240515478932  46.25240558633301 23.06642859840004  C 45.38631790744467 22.200452042010767  44.704127175924185 21.18422492056898  44.20583339177155 20.017667398492826  C 43.70753960761891 18.851109876416672  43.45835333718127 17.582203138401447  43.45835333718127 16.211186691192722  Z " stroke-width="2" stroke-dasharray="0" stroke="rgba(249, 252, 255, 1)" fill="none" transform="matrix(1 0 0 1 140 113 )" class="stroke" mask="url(#Clip22)" />
    <path d="M 52.712425761000326 9.824978827387918  C 51.35985780635556 9.824978827387918  50.17937329068244 10.251939519152447  49.170893457258295 11.105781067099647  C 48.162413623834155 11.959702450628704  47.49211515743253 13.0962417939271  47.15991930133077 14  L 58.22933418203591 14  C 57.92084409944925 13.0962417939271  57.262359141443845 11.959702450628704  56.253879308019705 11.105781067099647  C 55.24539947459557 10.251939519152447  54.064914958922444 9.824978827387918  52.712425761000326 9.824978827387918  Z " stroke-width="2" stroke-dasharray="0" stroke="rgba(249, 252, 255, 1)" fill="none" transform="matrix(1 0 0 1 140 113 )" class="stroke" mask="url(#Clip22)" />
    <path d="M 71.50511864754209 10.257847352209772  C 70.31872737767085 10.25792718779163  69.34584558288067 10.678820375335121  68.58655201989417 11.52068658600396  C 67.82725845690767 12.362552796672796  67.4475722970531 13.505079808610374  67 14.948347457398546  L 67 25.411758486576293  L 63 25.411758486576293  L 63 7.010694731391025  L 67.41189550169652 7.010694731391025  L 67.41189550169652 9.283773417987817  C 67.86277773881898 8.538109083455153  68.45006661955648 7.9487628181960375  69.17376214390903 7.515814457792328  C 69.89745766826158 7.082786261806763  70.75763859295182 6.866272163813981  71.75430491797974 6.866272163813981  L 73 6.866272163813981  L 73 10.257847352209772  L 71.50511864754209 10.257847352209772  Z " stroke-width="2" stroke-dasharray="0" stroke="rgba(249, 252, 255, 1)" fill="none" transform="matrix(1 0 0 1 140 113 )" class="stroke" mask="url(#Clip22)" />
  </g>
</svg>