<?xml version="1.0" encoding="utf-8"?>
<svg version="1.1" xmlns:xlink="http://www.w3.org/1999/xlink" width="9px" height="11px" xmlns="http://www.w3.org/2000/svg">
  <defs>
    <pattern id="BGPattern" patternUnits="userSpaceOnUse" alignment="0 0" imageRepeat="None" />
    <mask fill="white" id="Clip23">
      <path d="M 8.940234375000001 7.952799479166666  C 8.980078125 8.31325954861111  9 8.696397569444445  9 9.102213541666668  C 9 9.622612847222223  8.853515625 10.069010416666668  8.560546875 10.44140625  C 8.267578125 10.813802083333332  7.914843750000001 11  7.5023437500000005 11  L 1.4976562500000001 11  C 1.08515625 11  0.7324218750000001 10.813802083333332  0.43945312500000006 10.44140625  C 0.14648437500000006 10.069010416666668  0 9.622612847222223  0 9.102213541666668  C 0 8.696397569444445  0.019921875000000047 8.31325954861111  0.05976562500000005 7.952799479166666  C 0.09960937500000006 7.5923394097222205  0.17343750000000005 7.2294921875  0.28125000000000006 6.8642578125  C 0.3890625000000001 6.4990234375  0.5261718750000001 6.186306423611112  0.6925781249999999 5.926106770833334  C 0.8589843750000001 5.6659071180555545  1.079296875 5.453450520833333  1.353515625 5.288736979166667  C 1.627734375 5.1240234375  1.9429687500000001 5.041666666666667  2.29921875 5.041666666666667  C 2.9132812500000003 5.652777777777777  3.6468750000000005 5.958333333333334  4.5 5.958333333333334  C 5.353125000000001 5.958333333333334  6.086718750000001 5.652777777777777  6.7007812499999995 5.041666666666667  C 7.0570312500000005 5.041666666666667  7.372265625 5.1240234375  7.646484375 5.288736979166667  C 7.920703125 5.453450520833333  8.141015625000001 5.6659071180555545  8.307421875000001 5.926106770833334  C 8.473828125 6.186306423611112  8.6109375 6.4990234375  8.71875 6.8642578125  C 8.826562500000001 7.2294921875  8.900390625 7.5923394097222205  8.940234375000001 7.952799479166666  Z M 6.408984375 0.8056640625  C 6.936328125 1.3427734375  7.2 1.990885416666667  7.2 2.75  C 7.2 3.509114583333333  6.936328125 4.1572265625  6.408984375 4.6943359375  C 5.881640625 5.2314453125  5.2453125 5.5  4.5 5.5  C 3.7546874999999997 5.5  3.1183593750000003 5.2314453125  2.5910156250000003 4.6943359375  C 2.0636718750000003 4.1572265625  1.8 3.509114583333333  1.8 2.75  C 1.8 1.990885416666667  2.0636718750000003 1.3427734375  2.5910156250000003 0.8056640625  C 3.1183593750000003 0.2685546875  3.7546874999999997 0  4.5 0  C 5.2453125 0  5.881640625 0.2685546875  6.408984375 0.8056640625  Z " fill-rule="evenodd" />
    </mask>
  </defs>
  <g transform="matrix(1 0 0 1 -87 -187 )">
    <path d="M 8.940234375000001 7.952799479166666  C 8.980078125 8.31325954861111  9 8.696397569444445  9 9.102213541666668  C 9 9.622612847222223  8.853515625 10.069010416666668  8.560546875 10.44140625  C 8.267578125 10.813802083333332  7.914843750000001 11  7.5023437500000005 11  L 1.4976562500000001 11  C 1.08515625 11  0.7324218750000001 10.813802083333332  0.43945312500000006 10.44140625  C 0.14648437500000006 10.069010416666668  0 9.622612847222223  0 9.102213541666668  C 0 8.696397569444445  0.019921875000000047 8.31325954861111  0.05976562500000005 7.952799479166666  C 0.09960937500000006 7.5923394097222205  0.17343750000000005 7.2294921875  0.28125000000000006 6.8642578125  C 0.3890625000000001 6.4990234375  0.5261718750000001 6.186306423611112  0.6925781249999999 5.926106770833334  C 0.8589843750000001 5.6659071180555545  1.079296875 5.453450520833333  1.353515625 5.288736979166667  C 1.627734375 5.1240234375  1.9429687500000001 5.041666666666667  2.29921875 5.041666666666667  C 2.9132812500000003 5.652777777777777  3.6468750000000005 5.958333333333334  4.5 5.958333333333334  C 5.353125000000001 5.958333333333334  6.086718750000001 5.652777777777777  6.7007812499999995 5.041666666666667  C 7.0570312500000005 5.041666666666667  7.372265625 5.1240234375  7.646484375 5.288736979166667  C 7.920703125 5.453450520833333  8.141015625000001 5.6659071180555545  8.307421875000001 5.926106770833334  C 8.473828125 6.186306423611112  8.6109375 6.4990234375  8.71875 6.8642578125  C 8.826562500000001 7.2294921875  8.900390625 7.5923394097222205  8.940234375000001 7.952799479166666  Z M 6.408984375 0.8056640625  C 6.936328125 1.3427734375  7.2 1.990885416666667  7.2 2.75  C 7.2 3.509114583333333  6.936328125 4.1572265625  6.408984375 4.6943359375  C 5.881640625 5.2314453125  5.2453125 5.5  4.5 5.5  C 3.7546874999999997 5.5  3.1183593750000003 5.2314453125  2.5910156250000003 4.6943359375  C 2.0636718750000003 4.1572265625  1.8 3.509114583333333  1.8 2.75  C 1.8 1.990885416666667  2.0636718750000003 1.3427734375  2.5910156250000003 0.8056640625  C 3.1183593750000003 0.2685546875  3.7546874999999997 0  4.5 0  C 5.2453125 0  5.881640625 0.2685546875  6.408984375 0.8056640625  Z " fill-rule="nonzero" fill="rgba(249, 252, 255, 1)" stroke="none" transform="matrix(1 0 0 1 87 187 )" class="fill" />
    <path d="M 8.940234375000001 7.952799479166666  C 8.980078125 8.31325954861111  9 8.696397569444445  9 9.102213541666668  C 9 9.622612847222223  8.853515625 10.069010416666668  8.560546875 10.44140625  C 8.267578125 10.813802083333332  7.914843750000001 11  7.5023437500000005 11  L 1.4976562500000001 11  C 1.08515625 11  0.7324218750000001 10.813802083333332  0.43945312500000006 10.44140625  C 0.14648437500000006 10.069010416666668  0 9.622612847222223  0 9.102213541666668  C 0 8.696397569444445  0.019921875000000047 8.31325954861111  0.05976562500000005 7.952799479166666  C 0.09960937500000006 7.5923394097222205  0.17343750000000005 7.2294921875  0.28125000000000006 6.8642578125  C 0.3890625000000001 6.4990234375  0.5261718750000001 6.186306423611112  0.6925781249999999 5.926106770833334  C 0.8589843750000001 5.6659071180555545  1.079296875 5.453450520833333  1.353515625 5.288736979166667  C 1.627734375 5.1240234375  1.9429687500000001 5.041666666666667  2.29921875 5.041666666666667  C 2.9132812500000003 5.652777777777777  3.6468750000000005 5.958333333333334  4.5 5.958333333333334  C 5.353125000000001 5.958333333333334  6.086718750000001 5.652777777777777  6.7007812499999995 5.041666666666667  C 7.0570312500000005 5.041666666666667  7.372265625 5.1240234375  7.646484375 5.288736979166667  C 7.920703125 5.453450520833333  8.141015625000001 5.6659071180555545  8.307421875000001 5.926106770833334  C 8.473828125 6.186306423611112  8.6109375 6.4990234375  8.71875 6.8642578125  C 8.826562500000001 7.2294921875  8.900390625 7.5923394097222205  8.940234375000001 7.952799479166666  Z " stroke-width="0" stroke-dasharray="0" stroke="rgba(255, 255, 255, 0)" fill="none" transform="matrix(1 0 0 1 87 187 )" class="stroke" mask="url(#Clip23)" />
    <path d="M 6.408984375 0.8056640625  C 6.936328125 1.3427734375  7.2 1.990885416666667  7.2 2.75  C 7.2 3.509114583333333  6.936328125 4.1572265625  6.408984375 4.6943359375  C 5.881640625 5.2314453125  5.2453125 5.5  4.5 5.5  C 3.7546874999999997 5.5  3.1183593750000003 5.2314453125  2.5910156250000003 4.6943359375  C 2.0636718750000003 4.1572265625  1.8 3.509114583333333  1.8 2.75  C 1.8 1.990885416666667  2.0636718750000003 1.3427734375  2.5910156250000003 0.8056640625  C 3.1183593750000003 0.2685546875  3.7546874999999997 0  4.5 0  C 5.2453125 0  5.881640625 0.2685546875  6.408984375 0.8056640625  Z " stroke-width="0" stroke-dasharray="0" stroke="rgba(255, 255, 255, 0)" fill="none" transform="matrix(1 0 0 1 87 187 )" class="stroke" mask="url(#Clip23)" />
  </g>
</svg>